<?xml version="1.0" encoding="utf-8"?>
<!-- Generator: Adobe Illustrator 16.0.4, SVG Export Plug-In . SVG Version: 6.00 Build 0)  -->
<!DOCTYPE svg PUBLIC "-//W3C//DTD SVG 1.1//EN" "http://www.w3.org/Graphics/SVG/1.1/DTD/svg11.dtd">
<svg version="1.1" id="Layer_1" xmlns="http://www.w3.org/2000/svg" xmlns:xlink="http://www.w3.org/1999/xlink" x="0px" y="0px"
	 width="141.732px" height="141.732px" viewBox="-23.689 -59.799 141.732 141.732"
	 enable-background="new -23.689 -59.799 141.732 141.732" xml:space="preserve">
<polygon points="99.265,0.141 97.633,1.774 97.865,2.158 98.094,2.561 98.306,2.966 98.498,3.369 98.691,3.792 98.863,4.216 
	99.017,4.637 99.151,5.078 99.265,5.522 99.381,5.965 99.476,6.425 99.554,6.886 99.612,7.348 99.651,7.828 99.69,8.309 
	99.69,8.791 99.669,9.462 99.632,10.115 99.534,10.771 99.419,11.403 99.287,12.038 99.113,12.654 98.903,13.268 98.671,13.863 
	98.403,14.44 98.116,14.995 97.806,15.537 97.461,16.074 97.098,16.591 96.714,17.075 96.312,17.554 95.869,18.016 95.428,18.438 
	94.946,18.842 94.447,19.248 93.949,19.592 93.412,19.938 92.872,20.266 92.298,20.554 91.722,20.804 91.145,21.034 90.531,21.245 
	89.917,21.419 89.284,21.572 88.649,21.686 87.996,21.764 87.326,21.821 86.652,21.84 85.98,21.821 85.327,21.764 84.675,21.686 
	84.042,21.572 83.407,21.419 82.793,21.245 82.179,21.034 81.585,20.804 81.009,20.554 80.453,20.266 79.916,19.938 79.378,19.592 
	78.859,19.248 78.376,18.842 77.896,18.438 77.456,18.016 77.014,17.554 76.612,17.075 76.226,16.591 75.864,16.074 75.517,15.537 
	75.212,14.995 74.924,14.44 74.653,13.863 74.421,13.268 74.211,12.654 74.038,12.038 73.885,11.403 73.769,10.771 73.692,10.115 
	73.633,9.462 73.633,8.791 73.633,8.116 73.692,7.444 73.769,6.809 73.885,6.156 74.038,5.522 74.211,4.907 74.421,4.311 
	74.653,3.715 74.924,3.138 75.212,2.58 75.517,2.024 75.864,1.505 76.226,0.985 76.612,0.486 77.014,0.024 77.456,-0.438 
	77.896,-0.86 78.376,-1.282 78.859,-1.667 79.378,-2.031 79.916,-2.359 80.453,-2.686 81.009,-2.975 81.585,-3.225 82.179,-3.475 
	82.793,-3.666 83.407,-3.84 84.042,-3.992 84.675,-4.107 85.327,-4.186 85.98,-4.243 86.652,-4.262 87.151,-4.243 87.614,-4.224 
	88.094,-4.186 88.573,-4.107 89.034,-4.03 89.496,-3.955 89.936,-3.84 90.377,-3.704 90.818,-3.571 91.26,-3.416 91.684,-3.243 
	92.107,-3.05 92.509,-2.86 92.914,-2.646 93.295,-2.417 93.68,-2.185 95.311,-3.82 94.851,-4.128 94.37,-4.417 93.871,-4.684 
	93.371,-4.954 92.854,-5.185 92.336,-5.416 91.819,-5.625 91.26,-5.8 90.724,-5.973 90.166,-6.108 89.588,-6.224 89.013,-6.338 
	88.437,-6.415 87.862,-6.472 87.268,-6.511 86.652,-6.511 85.864,-6.491 85.097,-6.434 84.331,-6.338 83.581,-6.203 82.852,-6.031 
	82.123,-5.819 81.412,-5.587 80.719,-5.32 80.048,-5.01 79.378,-4.666 78.743,-4.3 78.127,-3.897 77.513,-3.475 76.939,-3.013 
	76.383,-2.533 75.864,-2.031 75.344,-1.494 74.866,-0.937 74.421,-0.359 73.981,0.237 73.597,0.852 73.214,1.505 72.887,2.158 
	72.58,2.83 72.292,3.521 72.063,4.234 71.851,4.964 71.676,5.715 71.543,6.464 71.45,7.212 71.391,8.001 71.372,8.791 71.391,9.577 
	71.45,10.346 71.543,11.114 71.676,11.866 71.851,12.614 72.063,13.325 72.292,14.039 72.58,14.729 72.887,15.419 73.214,16.074 
	73.597,16.709 73.981,17.343 74.421,17.941 74.866,18.518 75.344,19.073 75.864,19.611 76.383,20.112 76.939,20.592 77.513,21.053 
	78.127,21.476 78.743,21.88 79.378,22.244 80.048,22.573 80.719,22.879 81.412,23.167 82.123,23.397 82.852,23.608 83.581,23.783 
	84.331,23.915 85.097,24.014 85.864,24.071 86.652,24.09 87.439,24.071 88.227,24.014 88.977,23.915 89.744,23.783 90.473,23.608 
	91.203,23.397 91.913,23.167 92.604,22.879 93.278,22.573 93.949,22.244 94.583,21.88 95.197,21.476 95.791,21.053 96.388,20.592 
	96.924,20.112 97.461,19.611 97.982,19.073 98.461,18.518 98.903,17.941 99.343,17.343 99.728,16.709 100.092,16.074 
	100.438,15.419 100.744,14.729 101.015,14.039 101.264,13.325 101.473,12.614 101.648,11.866 101.781,11.114 101.878,10.346 
	101.936,9.577 101.955,8.791 101.936,8.194 101.896,7.598 101.838,7.002 101.762,6.425 101.667,5.849 101.55,5.291 101.397,4.735 
	101.243,4.196 101.051,3.639 100.861,3.119 100.63,2.601 100.399,2.082 100.151,1.581 99.864,1.102 99.574,0.621 "/>
<path d="M57.875,1.965L57.875,1.965l-0.19-0.191L57.491,1.6l-0.21-0.174l-0.23-0.154l-0.231-0.153l-0.268-0.134L56.3,0.871
	l-0.287-0.115l-0.29-0.098l-0.307-0.076l-0.328-0.076l-0.326-0.057l-0.346-0.058l-0.363-0.02l-0.385-0.019l-0.386-0.02h-6.698
	v18.106h2.266v-7.015h4.472l0.367-0.021l0.344-0.018l0.347-0.019l0.326-0.04l0.325-0.058l0.309-0.075l0.287-0.079l0.289-0.095
	l0.266-0.099l0.271-0.114l0.228-0.114l0.251-0.135l0.212-0.152l0.211-0.154l0.213-0.152l0.188-0.192l0.174-0.175l0.156-0.212
	l0.152-0.192L58.392,9.1l0.134-0.212l0.116-0.231l0.113-0.25l0.113-0.25l0.078-0.269l0.076-0.269l0.076-0.289l0.059-0.289
	l0.037-0.289l0.037-0.308l0.021-0.327V5.792V5.503l-0.021-0.289l-0.037-0.269l-0.037-0.27l-0.059-0.269l-0.058-0.27l-0.076-0.25
	l-0.076-0.25l-0.099-0.232l-0.094-0.231l-0.116-0.211L58.449,2.75l-0.135-0.212L58.18,2.349l-0.153-0.191L57.875,1.965z
	 M53.266,9.346H48.85V2.409h4.378h0.422l0.385,0.038L54.4,2.523l0.364,0.095l0.328,0.115l0.288,0.135l0.288,0.174l0.25,0.19
	l0.23,0.232l0.191,0.25l0.174,0.289l0.134,0.289l0.113,0.345l0.075,0.365l0.058,0.384l0.021,0.403l-0.021,0.443l-0.037,0.422
	L56.78,7.02l-0.097,0.365l-0.135,0.308l-0.153,0.289L56.206,8.25l-0.213,0.23l-0.249,0.212l-0.269,0.174l-0.288,0.152l-0.325,0.115
	l-0.367,0.096l-0.384,0.058l-0.403,0.038L53.266,9.346z"/>
<polygon points="39.787,6.271 39.787,6.271 39.866,6.676 39.922,7.079 39.961,7.462 39.999,7.867 40.018,8.654 40.038,9.405 
	40.018,10.137 39.999,10.904 39.961,11.29 39.922,11.673 39.884,12.077 39.807,12.461 39.73,12.864 39.617,13.23 39.5,13.614 
	39.345,13.978 39.173,14.326 38.964,14.65 38.732,14.979 38.482,15.267 38.31,15.419 38.138,15.572 37.967,15.729 37.774,15.86 
	37.581,15.978 37.37,16.094 36.965,16.285 36.543,16.42 36.101,16.534 35.642,16.591 35.181,16.612 34.74,16.591 34.277,16.534 
	33.837,16.42 33.414,16.285 32.992,16.094 32.8,15.978 32.609,15.86 32.416,15.729 32.245,15.572 32.072,15.419 31.897,15.267 
	31.648,14.979 31.417,14.65 31.208,14.326 31.033,13.978 30.878,13.614 30.764,13.23 30.652,12.864 30.574,12.461 30.498,12.077 
	30.457,11.673 30.402,11.29 30.38,10.904 30.343,10.137 30.343,9.405 30.343,8.674 30.38,7.906 30.402,7.5 30.457,7.117 
	30.498,6.714 30.574,6.33 30.652,5.944 30.764,5.561 30.878,5.196 31.033,4.83 31.208,4.485 31.417,4.137 31.648,3.832 
	31.897,3.521 32.072,3.369 32.245,3.216 32.416,3.081 32.609,2.946 32.8,2.812 32.992,2.715 33.414,2.523 33.837,2.371 
	34.277,2.274 34.74,2.197 35.181,2.177 35.525,2.197 35.854,2.235 36.178,2.292 36.505,2.371 36.833,2.466 37.139,2.601 
	37.427,2.735 37.716,2.907 39.117,1.179 38.675,0.909 38.215,0.678 37.736,0.468 37.253,0.293 36.738,0.178 36.236,0.082 
	35.72,0.024 35.181,0.005 34.857,0.005 34.508,0.043 34.183,0.082 33.855,0.12 33.511,0.199 33.203,0.275 32.876,0.39 32.57,0.504 
	32.261,0.621 31.957,0.773 31.667,0.928 31.379,1.102 31.091,1.293 30.822,1.505 30.574,1.716 30.324,1.946 29.979,2.313 
	29.65,2.697 29.382,3.1 29.134,3.505 28.904,3.946 28.73,4.387 28.558,4.848 28.422,5.31 28.308,5.792 28.209,6.271 28.134,6.771 
	28.077,7.29 28.041,7.811 28.019,8.328 28,9.405 28.019,10.462 28.041,11.001 28.077,11.517 28.134,12.016 28.209,12.518 
	28.308,13.021 28.422,13.479 28.558,13.961 28.73,14.404 28.904,14.862 29.134,15.283 29.382,15.689 29.65,16.094 29.979,16.477 
	30.324,16.843 30.574,17.075 30.822,17.303 31.091,17.496 31.379,17.688 31.667,17.861 31.957,18.016 32.261,18.168 32.57,18.304 
	32.876,18.419 33.203,18.518 33.511,18.593 33.855,18.671 34.183,18.727 34.508,18.762 34.857,18.783 35.181,18.783 35.525,18.783 
	35.871,18.762 36.198,18.727 36.524,18.671 36.852,18.593 37.178,18.518 37.504,18.419 37.812,18.304 38.118,18.168 38.425,18.016 
	38.713,17.861 39.002,17.688 39.289,17.496 39.559,17.303 39.807,17.075 40.058,16.843 40.402,16.477 40.729,16.094 41,15.689 
	41.249,15.283 41.458,14.862 41.652,14.404 41.824,13.961 41.957,13.479 42.073,13.021 42.169,12.518 42.229,12.016 42.286,11.517 
	42.322,11.001 42.362,10.462 42.381,9.405 42.362,8.693 42.341,7.982 42.286,7.29 42.208,6.637 42.092,5.965 41.957,5.329 
	41.864,5.022 41.766,4.714 41.652,4.425 41.535,4.12 "/>
<polygon points="22.049,6.137 22.049,6.137 22.145,6.54 22.202,6.965 22.26,7.386 22.279,7.811 22.318,8.617 22.335,9.405 
	22.318,10.137 22.299,10.904 22.26,11.29 22.221,11.673 22.185,12.077 22.108,12.461 22.03,12.846 21.913,13.23 21.798,13.614 
	21.646,13.961 21.472,14.326 21.262,14.65 21.031,14.979 20.782,15.267 20.608,15.419 20.437,15.572 20.263,15.729 20.072,15.86 
	19.879,15.978 19.667,16.094 19.265,16.285 18.844,16.438 18.401,16.534 17.94,16.612 17.481,16.632 17.039,16.612 16.578,16.534 
	16.136,16.438 15.712,16.285 15.292,16.094 15.097,15.978 14.907,15.86 14.715,15.729 14.542,15.572 14.369,15.419 14.197,15.267 
	13.928,14.979 13.699,14.65 13.504,14.326 13.333,13.961 13.179,13.614 13.064,13.23 12.948,12.846 12.872,12.461 12.795,12.077 
	12.738,11.673 12.7,11.29 12.68,10.904 12.64,10.137 12.64,9.405 12.64,8.674 12.68,7.906 12.7,7.5 12.738,7.117 12.795,6.714 
	12.872,6.33 12.948,5.944 13.064,5.561 13.179,5.196 13.333,4.83 13.504,4.485 13.699,4.137 13.928,3.832 14.197,3.521 
	14.369,3.369 14.542,3.216 14.715,3.081 14.907,2.946 15.097,2.812 15.292,2.715 15.712,2.523 16.136,2.371 16.578,2.274 
	17.039,2.197 17.481,2.177 17.806,2.197 18.133,2.215 18.438,2.274 18.746,2.349 19.054,2.447 19.342,2.561 19.63,2.697 
	19.917,2.85 21.319,1.119 20.88,0.871 20.437,0.64 19.976,0.447 19.496,0.293 18.997,0.158 18.496,0.082 17.997,0.024 17.481,0.005 
	17.153,0.005 16.808,0.043 16.48,0.082 16.136,0.12 15.81,0.199 15.502,0.275 15.175,0.39 14.87,0.504 14.562,0.621 14.254,0.773 
	13.966,0.928 13.678,1.102 13.391,1.293 13.123,1.505 12.872,1.716 12.623,1.946 12.275,2.313 11.951,2.697 11.684,3.1 
	11.432,3.521 11.2,3.946 11.03,4.387 10.856,4.848 10.722,5.31 10.606,5.792 10.51,6.271 10.434,6.771 10.376,7.29 10.337,7.811 
	10.317,8.328 10.3,9.405 10.317,10.462 10.337,11.001 10.376,11.517 10.434,12.016 10.51,12.518 10.606,13.021 10.722,13.479 
	10.856,13.961 11.03,14.404 11.2,14.862 11.432,15.283 11.684,15.689 11.951,16.094 12.275,16.477 12.623,16.843 12.872,17.075 
	13.123,17.303 13.391,17.496 13.678,17.688 13.966,17.861 14.254,18.016 14.562,18.168 14.87,18.304 15.175,18.419 15.502,18.518 
	15.81,18.593 16.136,18.671 16.48,18.727 16.808,18.762 17.153,18.783 17.481,18.783 17.826,18.783 18.171,18.762 18.496,18.727 
	18.824,18.671 19.149,18.593 19.476,18.518 19.802,18.419 20.11,18.304 20.417,18.168 20.725,18.016 21.014,17.861 21.301,17.688 
	21.57,17.496 21.836,17.303 22.108,17.075 22.357,16.843 22.701,16.477 23.009,16.094 23.297,15.689 23.547,15.283 23.757,14.862 
	23.95,14.404 24.122,13.961 24.257,13.479 24.372,13.021 24.468,12.518 24.525,12.016 24.582,11.517 24.622,11.001 24.66,10.462 
	24.68,9.405 24.66,8.674 24.642,7.945 24.582,7.252 24.489,6.559 24.372,5.887 24.217,5.234 24.122,4.926 24.026,4.619 
	23.912,4.311 23.778,4.003 "/>
<polygon points="-0.433,0.332 -2.698,0.332 -2.698,18.438 8.265,18.438 8.265,16.324 -0.433,16.324 "/>
</svg>
