<svg xmlns="http://www.w3.org/2000/svg" width="141.732" height="141.732" viewBox="-23.689 -59.799 141.732 141.732" enable-background="new -23.689 -59.799 141.732 141.732"><path d="M99.265.141l-1.632 1.633.232.384.229.403.212.405.192.403.193.423.172.424.154.421.134.441.114.444.116.443.095.46.078.461.058.462.039.48.039.481v.482l-.021.671-.037.653-.098.656-.115.632-.132.635-.174.616-.21.614-.232.595-.268.577-.287.555-.31.542-.345.537-.363.517-.384.484-.402.479-.443.462-.441.422-.482.404-.499.406-.498.344-.537.346-.54.328-.574.288-.576.25-.577.23-.614.211-.614.174-.633.153-.635.114-.653.078-.67.057-.674.019-.672-.019-.653-.057-.652-.078-.633-.114-.635-.153-.614-.174-.614-.211-.594-.23-.576-.25-.556-.288-.537-.328-.538-.346-.519-.344-.483-.406-.48-.404-.44-.422-.442-.462-.402-.479-.386-.484-.362-.517-.347-.537-.305-.542-.288-.555-.271-.577-.232-.595-.21-.614-.173-.616-.153-.635-.116-.632-.077-.656-.059-.653v-1.346l.059-.672.077-.635.116-.653.153-.634.173-.615.21-.596.232-.596.271-.577.288-.558.305-.556.347-.519.362-.52.386-.499.402-.462.442-.462.44-.422.48-.422.483-.385.519-.364.538-.328.537-.327.556-.289.576-.25.594-.25.614-.191.614-.174.635-.152.633-.115.652-.079.653-.057.672-.019.499.019.463.019.48.038.479.079.461.077.462.075.44.115.441.136.441.133.442.155.424.173.423.193.402.19.405.214.381.229.385.232 1.631-1.635-.46-.308-.481-.289-.499-.267-.5-.27-.517-.231-.518-.231-.517-.209-.559-.175-.536-.173-.558-.135-.578-.116-.575-.114-.576-.077-.575-.057-.594-.039h-.616l-.788.02-.767.057-.766.096-.75.135-.729.172-.729.212-.711.232-.693.267-.671.31-.67.344-.635.366-.616.403-.614.422-.574.462-.556.48-.519.502-.52.537-.478.557-.445.578-.44.596-.384.615-.383.653-.327.653-.307.672-.288.691-.229.713-.212.73-.175.751-.133.749-.093.748-.059.789-.019.79.019.786.059.769.093.768.133.752.175.748.212.711.229.714.288.69.307.69.327.655.383.635.384.634.44.598.445.577.478.555.52.538.519.501.556.48.574.461.614.423.616.404.635.364.67.329.671.306.693.288.711.23.729.211.729.175.75.132.766.099.767.057.788.019.787-.019.788-.057.75-.099.767-.132.729-.175.73-.211.71-.23.691-.288.674-.306.671-.329.634-.364.614-.404.594-.423.597-.461.536-.48.537-.501.521-.538.479-.555.442-.577.44-.598.385-.634.364-.635.346-.655.306-.69.271-.69.249-.714.209-.711.175-.748.133-.752.097-.768.058-.769.019-.786-.019-.597-.04-.596-.058-.596-.076-.577-.095-.576-.117-.558-.153-.556-.154-.539-.192-.557-.19-.52-.231-.518-.231-.519-.248-.501-.287-.479-.29-.481zM57.875 1.965l-.19-.191-.194-.174-.21-.174-.23-.154-.231-.153-.268-.134-.252-.114-.287-.115-.29-.098-.307-.076-.328-.076-.326-.057-.346-.058-.363-.02-.385-.019-.386-.02h-6.698v18.106h2.266v-7.015h4.472l.367-.021.344-.018.347-.019.326-.04.325-.058.309-.075.287-.079.289-.095.266-.099.271-.114.228-.114.251-.135.212-.152.211-.154.213-.152.188-.192.174-.175.156-.212.152-.192.154-.227.134-.212.116-.231.113-.25.113-.25.078-.269.076-.269.076-.289.059-.289.037-.289.037-.308.021-.327v-.614l-.021-.289-.037-.269-.037-.27-.059-.269-.058-.27-.076-.25-.076-.25-.099-.232-.094-.231-.116-.211-.13-.212-.135-.212-.134-.189-.153-.191-.152-.193zm-4.609 7.381h-4.416v-6.937h4.8l.385.038.365.076.364.095.328.115.288.135.288.174.25.19.23.232.191.25.174.289.134.289.113.345.075.365.058.384.021.403-.021.443-.037.422-.076.366-.097.365-.135.308-.153.289-.189.268-.213.23-.249.212-.269.174-.288.152-.325.115-.367.096-.384.058-.403.038-.442.021zM39.787 6.271l.079.405.056.403.039.383.038.405.019.787.02.751-.02.732-.019.767-.038.386-.039.383-.038.404-.077.384-.077.403-.113.366-.117.384-.155.364-.172.348-.209.324-.232.329-.25.288-.172.152-.172.153-.171.157-.193.131-.193.118-.211.116-.405.191-.422.135-.442.114-.459.057-.461.021-.441-.021-.463-.057-.44-.114-.423-.135-.422-.191-.192-.116-.191-.118-.193-.131-.171-.157-.173-.153-.175-.152-.249-.288-.231-.329-.209-.324-.175-.348-.155-.364-.114-.384-.112-.366-.078-.403-.076-.384-.041-.404-.055-.383-.022-.386-.037-.767v-1.463l.037-.768.022-.406.055-.383.041-.403.076-.384.078-.386.112-.383.114-.365.155-.366.175-.345.209-.348.231-.305.249-.311.175-.152.173-.153.171-.135.193-.135.191-.134.192-.097.422-.192.423-.152.44-.097.463-.077.441-.02.344.02.329.038.324.057.327.079.328.095.306.135.288.134.289.172 1.401-1.728-.442-.27-.46-.231-.479-.21-.483-.175-.515-.115-.502-.096-.516-.058-.539-.019h-.324l-.349.038-.325.039-.328.038-.344.079-.308.076-.327.115-.306.114-.309.117-.304.152-.29.155-.288.174-.288.191-.269.212-.248.211-.25.23-.345.367-.329.384-.268.403-.248.405-.23.441-.174.441-.172.461-.136.462-.114.482-.099.479-.075.5-.057.519-.036.521-.022.517-.019 1.077.019 1.057.022.539.036.516.057.499.075.502.099.503.114.458.136.482.172.443.174.458.23.421.248.406.268.405.329.383.345.366.25.232.248.228.269.193.288.192.288.173.29.155.304.152.309.136.306.115.327.099.308.075.344.078.328.056.325.035.349.021h.6679999999999999l.346-.021.327-.035.326-.056.328-.078.326-.075.326-.099.308-.115.306-.136.307-.152.288-.155.289-.173.287-.192.27-.193.248-.228.251-.232.344-.366.327-.383.271-.405.249-.406.209-.421.194-.458.172-.443.133-.482.116-.458.096-.503.06-.502.057-.499.036-.516.04-.539.019-1.057-.019-.712-.021-.711-.055-.692-.078-.653-.116-.672-.135-.636-.093-.307-.098-.308-.114-.289-.117-.305zM22.049 6.137l.096.403.057.425.058.421.019.425.039.806.017.788-.017.732-.019.767-.039.386-.039.383-.036.404-.077.384-.078.385-.117.384-.115.384-.152.347-.174.365-.21.324-.231.329-.249.288-.174.152-.171.153-.174.157-.191.131-.193.118-.212.116-.402.191-.421.153-.443.096-.461.078-.459.02-.442-.02-.461-.078-.442-.096-.424-.153-.42-.191-.195-.116-.19-.118-.192-.131-.173-.157-.173-.153-.172-.152-.269-.288-.229-.329-.195-.324-.171-.365-.154-.347-.115-.384-.116-.384-.076-.385-.077-.384-.057-.404-.038-.383-.02-.386-.04-.767v-1.463l.04-.768.02-.406.038-.383.057-.403.077-.384.076-.386.116-.383.115-.365.154-.366.171-.345.195-.348.229-.305.269-.311.172-.152.173-.153.173-.135.192-.135.19-.134.195-.097.42-.192.424-.152.442-.097.461-.077.442-.02.325.02.327.018.305.059.308.075.308.098.288.114.288.136.287.153 1.402-1.731-.439-.248-.443-.231-.461-.193-.48-.154-.499-.135-.501-.076-.499-.058-.516-.019h-.328l-.345.038-.328.039-.344.038-.326.079-.308.076-.327.115-.305.114-.308.117-.308.152-.288.155-.288.174-.287.191-.268.212-.251.211-.249.23-.348.367-.324.384-.267.403-.252.421-.232.425-.17.441-.174.461-.134.462-.116.482-.096.479-.076.5-.058.519-.039.521-.02.517-.017 1.077.017 1.057.02.539.039.516.058.499.076.502.096.503.116.458.134.482.174.443.17.458.232.421.252.406.267.405.324.383.348.366.249.232.251.228.268.193.287.192.288.173.288.155.308.152.308.136.305.115.327.099.308.075.326.078.344.056.328.035.345.021h.673l.345-.021.325-.035.328-.056.325-.078.327-.075.326-.099.308-.115.307-.136.308-.152.289-.155.287-.173.269-.192.266-.193.272-.228.249-.232.344-.366.308-.383.288-.405.25-.406.21-.421.193-.458.172-.443.135-.482.115-.458.096-.503.057-.502.057-.499.04-.516.038-.539.02-1.057-.02-.731-.018-.729-.06-.693-.093-.693-.117-.672-.155-.653-.095-.308-.096-.307-.114-.308-.134-.308zM-.433.332h-2.265v18.106h10.963v-2.114h-8.698z"/></svg>