<?xml version="1.0" standalone="no"?>
<!DOCTYPE svg PUBLIC "-//W3C//DTD SVG 1.1//EN" "http://www.w3.org/Graphics/SVG/1.1/DTD/svg11.dtd" >
<svg>
<metadata>
Created by FontForge 20130207 at Thu Jun 12 16:42:41 2014
 By Roland Lösslein
copyright missing
</metadata>
<defs>
<font id="DurexIcons-Regular" horiz-adv-x="1228" >
  <font-face 
    font-family="DurexIcons-Regular"
    font-weight="400"
    font-stretch="normal"
    units-per-em="2048"
    panose-1="0 0 5 0 0 0 0 0 0 0"
    ascent="1638"
    descent="-410"
    cap-height="1427"
    bbox="-72 -391 2200 1642"
    underline-thickness="102"
    underline-position="-102"
    unicode-range="U+0020-007A"
  />
<missing-glyph horiz-adv-x="1024" 
d="M102 1239v-1044l349 522zM164 102h696l-348 523zM573 717l349 -522v1044zM512 809l348 522h-696zM0 0v1434h1024v-1434h-1024z" />
    <glyph glyph-name=".notdef" horiz-adv-x="1024" 
d="M102 1239v-1044l349 522zM164 102h696l-348 523zM573 717l349 -522v1044zM512 809l348 522h-696zM0 0v1434h1024v-1434h-1024z" />
    <glyph glyph-name=".null" horiz-adv-x="0" 
 />
    <glyph glyph-name="nonmarkingreturn" horiz-adv-x="681" 
 />
    <glyph glyph-name="space" unicode=" " 
 />
    <glyph glyph-name="plus" unicode="+" horiz-adv-x="1150" 
d="M651 152h-149v501h-502v148h502v499h147v-501h502v-148l-500 2v-501z" />
    <glyph glyph-name="hyphen" unicode="-" horiz-adv-x="1150" 
d="M0 653v148l1151 -2v-148z" />
    <glyph glyph-name="one" unicode="1" horiz-adv-x="2048" 
d="M1475 307l-150 -170l-760 762l760 721l158 -162l-602 -559z" />
    <glyph glyph-name="two" unicode="2" horiz-adv-x="2048" 
d="M453 291l-170 149l761 760l721 -760l-159 -157l-562 602z" />
    <glyph glyph-name="three" unicode="3" horiz-adv-x="2048" 
d="M573 1432l150 170l760 -762l-760 -721l-158 162l602 559z" />
    <glyph glyph-name="four" unicode="4" horiz-adv-x="2048" 
d="M1595 1165l170 -149l-761 -760l-721 760l159 158l562 -603z" />
    <glyph glyph-name="A" unicode="A" horiz-adv-x="1830" 
d="M1417 219h414v-414h-414v414zM709 219h413v-414h-413v414zM0 -195v414h412v-414h-412zM1417 928h414v-414h-414v414zM709 928h413v-414h-413v414zM0 514v414h412v-414h-412zM1417 1636h414v-413h-414v413zM709 1636h413v-413h-413v413zM0 1223v413h412v-413h-412z" />
    <glyph glyph-name="B" unicode="B" horiz-adv-x="1609" 
d="M0 100v248h1610v-248h-1610zM0 594v248h1610v-248h-1610zM0 1090v245h1610v-245h-1610z" />
    <glyph glyph-name="C" unicode="C" horiz-adv-x="1495" 
d="M918 895l577 -578l-170 -170l-577 578l-578 -578l-170 170l578 578l-578 575l170 170l578 -579l577 579l170 -170z" />
    <glyph glyph-name="D" unicode="D" horiz-adv-x="1824" 
d="M1825 -57h-131v-131h-111v131h-133v110h133v133h111v-133h131v-110zM895 979q41 95 114 153t151 61q182 7 264 -147q46 -85 48 -207t-77 -199t-158 -125q-79 -47 -135 -87t-125 -118q-70 -78 -82 -117q-12 43 -86 125t-231 177q-158 95 -209 170q-50 75 -50 185
q0 109 46 196q81 157 263 152q76 -2 150 -60t117 -159zM1339 -186h-1339v1822h1823v-1341h-109v1231h-1603v-1602h1228v-110z" />
    <glyph glyph-name="E" unicode="E" horiz-adv-x="1900" 
d="M1901 877l-273 -986h-1616l271 986h1618zM0 1556h543l225 -251h864v-293h-1452l-180 -678v1222z" />
    <glyph glyph-name="F" unicode="F" horiz-adv-x="1353" 
d="M836 618v-1009h-379v1009h-252v349h252v204q0 231 87 345t322 114h281v-348h-176q-96 0 -116 -36q-19 -36 -19 -105v-174h313l-37 -349h-276z" />
    <glyph glyph-name="G" unicode="G" horiz-adv-x="2117" 
d="M643 365h-37q-162 -13 -270 -109t-98 -214t126 -184t278 -56q162 11 259 93q96 82 88 200t-103 194t-243 76zM2118 846v-217h-355v-344h-225v344h-354v217h354v344h225v-344h355zM647 829q25 0 45 7q98 28 146 150t9 259q-40 137 -109 193t-187 55q-118 0 -176 -147
q-39 -111 -5 -236t112 -203t165 -78zM578 -383h-29q-63 0 -157 15q-95 15 -153 45t-116 74q-123 95 -123 290q0 113 54 197t129 127t198 73t268 31h4q-39 49 -56 106t-15 91l2 32q-8 -2 -33 -2q-156 0 -262 68q-176 111 -176 373t215 397q91 58 194 80t140 22h544v-12
q0 -57 -184 -80q-86 -14 -90 -16q96 -49 128 -130t32 -220q0 -223 -158 -361q-56 -50 -73 -76q-17 -27 -17 -49q0 -47 117 -145q181 -154 224 -276q22 -62 21 -134q0 -315 -276 -446q-154 -74 -352 -74z" />
    <glyph glyph-name="H" unicode="H" horiz-adv-x="1978" 
d="M1536 1448q-118 0 -209 -66q-104 -70 -168 -217q-20 -51 -67 -82q-46 -31 -102 -31t-103 32q-47 30 -70 81q-61 147 -159 219t-199 72q-131 0 -226 -106q-118 -131 -118 -365q0 -118 236 -364q123 -129 355 -319t287 -239q106 90 135 113q356 296 490 438
q243 256 246 375q0 227 -117 357q-93 102 -211 102zM459 1642q160 0 303 -103t227 -302q82 193 225 294t294 101q316 0 463 -291q77 -149 79 -352q0 -100 -76 -228t-192 -247q-234 -241 -507 -458q-274 -217 -284 -261q-10 35 -125 132q-114 97 -268 223t-306 268
q-152 141 -258 295q-105 154 -106 272q2 305 159 481t372 176z" />
    <glyph glyph-name="I" unicode="I" horiz-adv-x="1822" 
d="M227 741v-499h1368v499h228v-727h-1823v727h227zM1139 1427v-354h229l-457 -455l-456 455h229v354h455z" />
    <glyph glyph-name="J" unicode="J" horiz-adv-x="1810" 
d="M1237 686q16 14 16 30t-12 21l-4 4l-455 283q-25 16 -42 6t-17 -41v-549q0 -30 17 -40t42 6zM905 1622q375 0 640 -266t265 -641t-265 -641t-640 -266t-640 266t-265 641t265 641t640 266z" />
    <glyph glyph-name="K" unicode="K" horiz-adv-x="1826" 
d="M1827 -57h-133v-133h-111v133h-133v110h133v133h111v-133h133v-110zM872 295q16 0 25 -14q30 30 53 4q27 -23 0 -47l-28 -29h-2l-23 -23l-53 54q-25 25 2 47q10 8 26 8zM1042 358q14 -14 0 -30l-16 -19h-2l-12 -12q0 -1 -17 10v2l-6 6l-4 2l-8 11q-16 14 -2 30t35 -4l2 4
q16 14 30 0zM804 385q12 0 25 -13q14 -13 -4 -32l-22 -25h-2l-17 -18h-4l-16 16h-2l-12 13l-13 10q-16 20 0 41q11 8 21 8t22 -12q12 12 24 12zM956 481q18 0 31 -13q12 -14 12 -32t-12 -30l-43 -41l-26 -27l-3 2l-28 29l-19 18l-18 19q-31 32 0 62t63 1l7 -6l6 4
q12 14 30 14zM1178 616q32 0 53 -22q20 -22 20 -50q0 -30 -22 -52l-62 -62l-49 -45q-2 -2 -4 -2l-4 2l-41 43q-2 0 -6 4l-62 62q-20 22 -20 52q-1 30 21 51t53 21t51 -22l10 -10q30 30 62 30zM811 548q0 -28 -20 -50l-115 -111l-47 45q-4 4 -4 6l-23 21l-8 10l-31 31
q-23 20 -22 51q0 31 21 52t53 21t63 -32l10 10q20 23 52 22t51 -24q20 -24 20 -52zM653 735q27 27 49 4t-2 -45l-47 -45h-2l-20 21l-8 10l-5 4l-12 12q-20 20 0 43t47 -4zM521 784q20 0 34 -14t14 -36t-14 -36l-78 -73l-2 -2h-4l-31 32h-2l-14 17l-27 26q-16 14 -16 36
q1 22 17 37t36 15t41 -22q26 20 46 20zM1450 714q0 -30 -23 -50l-69 -68l-43 -39q-2 -2 -4 -2l-49 49l-21 23l-10 8l-31 33q-20 22 -20 52t22 50q20 23 53 22t60 -34q67 56 115 8q20 -22 20 -52zM1038 732q0 -30 -22 -50l-111 -109q-2 -2 -4 -2l-4 2l-41 43q-4 4 -6 5
l-21 22l-10 8l-31 33q-20 20 -19 51t23 53t50 21q28 0 61 -33q30 30 61 30q32 1 53 -22q21 -22 21 -52zM901 905q16 16 30 3q13 -13 -1 -27l-17 -17h-2l-12 -12h-2l-20 20l-9 11q-12 12 2 26q16 12 27 -2zM983 928q-1 31 21 51t56 20t58 -30l12 8q18 23 50 23t54 -22
q22 -21 20 -53t-23 -53l-62 -61q-2 0 -6 -4l-41 -41q-4 -2 -6 -2l-45 45q-2 0 -6 4l-59 64q-23 20 -23 51zM743 1008q31 0 53 -22t20 -53q-1 -32 -21 -52l-62 -62l-8 -4l-41 -41q-2 -2 -4 -2l-4 2l-109 109q-20 23 -20 53t22 51q54 47 113 -12l10 10q20 23 51 23zM1416 1012
q28 0 50 -23l11 -10q30 31 62 31t52 -23q21 -23 21 -51t-23 -51l-67 -68l-43 -39q-2 -4 -4 -4l-113 113q-20 20 -20 52q2 33 24 53t50 20zM250 960q0 32 20 52t53 20t62 -31q64 58 113 9q22 -23 22 -54t-22 -51l-64 -59l-47 -47l-4 -2l-4 2l-47 47l-23 20l-8 11l-31 32
q-20 19 -20 51zM1118 1037q0 -1 -2 -1l-18 -18l-21 18q0 2 -2 2l-8 11l-18 16q-20 23 1 44t48 -5l6 4q22 23 44 0t-1 -43l-27 -27q-2 0 -2 -1zM1459 1135q13 0 30 -17q9 14 26 14q17 1 25 -10q27 -25 0 -47l-29 -28q-2 0 -2 -3l-20 -18h-4l-19 21q-2 0 -2 2q-58 46 -28 75
q10 11 23 11zM748 1126q22 27 46 1t1 -48l-29 -28q-2 -2 -4 -2l-21 -21l-53 51q-20 25 0 49q24 23 53 -6zM309 1149q27 27 47 4t0 -43l-26 -27q-2 0 -2 -2l-19 -18l-20 20q-2 0 -2 2l-25 25q-23 23 0 43t47 -4zM1230 1253q30 0 62 -32l11 10q20 23 51 23t51 -23t20 -53
t-20 -52l-64 -61q-4 -4 -6 -4l-41 -41q-2 -2 -4 -2l-4 2l-43 41l-65 67q-23 23 -23 54t23 51q22 20 52 20zM655 1188q0 -30 -22 -51l-62 -62q-4 -4 -6 -4l-43 -41q-2 -2 -4 -2l-4 2l-108 109q-20 20 -20 52q2 33 22 53t50 20t62 -33q30 31 62 31t53 -22q20 -22 20 -52z
M1339 -186h-1339v1822h1823v-1341h-109v1233h-1605v-1604h1230v-110z" />
    <glyph glyph-name="L" unicode="L" horiz-adv-x="1439" 
d="M1186 496q104 0 180 -76q74 -76 74 -182t-75 -182t-183 -76t-184 76q-75 76 -74 182v14l-512 260q-72 -51 -166 -51t-170 76t-76 183t76 183t175 76t175 -61l498 253v23q0 110 74 184t184 74t184 -75t74 -183t-75 -184q-75 -74 -176 -74t-173 61l-500 -256l2 -20
q0 -12 -4 -41l494 -252q74 68 178 68z" />
    <glyph glyph-name="M" unicode="M" horiz-adv-x="1908" 
d="M199 113h1501l-584 573l-168 -145l-170 145zM123 1253v-1044l563 557zM1786 195v1069l-576 -498zM1661 1317h-1425l712 -617zM1909 1438v-1446h-1909v1446h1909z" />
    <glyph glyph-name="N" unicode="N" 
 />
    <glyph glyph-name="O" unicode="O" horiz-adv-x="1863" 
 />
    <glyph glyph-name="P" unicode="P" horiz-adv-x="1552" 
d="M334 -356q-12 143 -12 281t116 580q31 118 47 197q-33 54 -40 132t13 148q47 168 152 208q57 20 129 -4q70 -30 87 -96q18 -66 -6 -146t-50 -170t-44 -167t12 -135t121 -76t171 24q148 79 213 306q65 226 6 428q-29 99 -101 171t-182 107q-213 68 -430 -49
q-217 -116 -286 -331q-37 -114 -17 -235q8 -52 69 -148q17 -28 16 -76t-35 -108q-295 63 -281 461q10 274 212 464t466 222q326 36 576 -114t286 -435q33 -225 -34 -435q-68 -210 -228 -341t-375 -114q-85 8 -141 44q-22 13 -62 41t-63 41q-47 -253 -113 -417t-192 -258z
" />
    <glyph glyph-name="Q" unicode="Q" 
 />
    <glyph glyph-name="R" unicode="R" 
 />
    <glyph glyph-name="S" unicode="S" horiz-adv-x="1966" 
d="M1966 193q0 -44 -217 -183t-258 -139l-10 2q-16 10 -25 96q0 37 -2 66h-254q-74 0 -108 59l-236 328l184 256l13 -19q178 -285 215 -307h2q8 -4 26 -4l68 -2l92 6q4 143 23 160l12 6q43 0 259 -143t216 -182zM0 1421h438q70 0 109 -59l235 -326l-184 -256l-12 17
q-186 289 -215 307h-2l-56 4h-41l-272 -6v319zM1333 1110q-47 0 -63 -6q-37 -31 -723 -1010q-39 -59 -109 -59h-438v319l264 -10q89 0 101 8h4q41 31 723 1010q35 59 108 59h256q4 143 23 160l12 2q43 0 259 -142t216 -179q0 -46 -258 -211q-176 -113 -217 -113h-10
q-16 10 -25 98l-2 68q-74 6 -121 6z" />
    <glyph glyph-name="T" unicode="T" horiz-adv-x="2199" 
d="M1976 977q0 -384 -215 -711q-236 -360 -619 -497q-210 -76 -450 -76q-379 0 -692 201q37 -4 106 -5q315 0 562 191q-145 2 -262 91t-160 224q28 -6 94 -6t109 14q-158 33 -260 156q-101 123 -101 285v6q92 -49 203 -55q-90 61 -145 160q-54 99 -54 221t62 223
q168 -209 410 -333t519 -138q-12 66 -12 100q0 188 132 320t323 133q191 0 327 -142q154 27 285 109q-51 -162 -196 -250q141 19 258 72q-92 -135 -224 -236v-57z" />
    <glyph glyph-name="U" unicode="U" 
 />
    <glyph glyph-name="V" unicode="V" 
 />
    <glyph glyph-name="W" unicode="W" 
 />
    <glyph glyph-name="X" unicode="X" 
 />
    <glyph glyph-name="Y" unicode="Y" horiz-adv-x="2107" 
 />
    <glyph glyph-name="Z" unicode="Z" 
 />
    <glyph glyph-name="a" unicode="a" 
 />
    <glyph glyph-name="b" unicode="b" 
 />
    <glyph glyph-name="c" unicode="c" 
 />
    <glyph glyph-name="d" unicode="d" 
 />
    <glyph glyph-name="e" unicode="e" 
 />
    <glyph glyph-name="f" unicode="f" 
 />
    <glyph glyph-name="g" unicode="g" 
 />
    <glyph glyph-name="h" unicode="h" 
 />
    <glyph glyph-name="i" unicode="i" 
 />
    <glyph glyph-name="j" unicode="j" 
 />
    <glyph glyph-name="k" unicode="k" 
 />
    <glyph glyph-name="l" unicode="l" 
 />
    <glyph glyph-name="m" unicode="m" 
 />
    <glyph glyph-name="n" unicode="n" 
 />
    <glyph glyph-name="o" unicode="o" 
 />
    <glyph glyph-name="p" unicode="p" 
 />
    <glyph glyph-name="q" unicode="q" 
 />
    <glyph glyph-name="r" unicode="r" 
 />
    <glyph glyph-name="s" unicode="s" 
 />
    <glyph glyph-name="t" unicode="t" 
 />
    <glyph glyph-name="u" unicode="u" 
 />
    <glyph glyph-name="v" unicode="v" 
 />
    <glyph glyph-name="w" unicode="w" 
 />
    <glyph glyph-name="x" unicode="x" 
 />
    <glyph glyph-name="y" unicode="y" 
 />
    <glyph glyph-name="z" unicode="z" 
 />
  </font>
</defs>
</svg>
