<?xml version="1.0" encoding="utf-8"?>
<!-- Generator: Adobe Illustrator 16.0.0, SVG Export Plug-In . SVG Version: 6.00 Build 0)  -->
<!DOCTYPE svg PUBLIC "-//W3C//DTD SVG 1.1//EN" "http://www.w3.org/Graphics/SVG/1.1/DTD/svg11.dtd">
<svg version="1.1" id="Layer_1" xmlns="http://www.w3.org/2000/svg" xmlns:xlink="http://www.w3.org/1999/xlink" x="0px" y="0px"
	 width="127.559px" height="50.01px" viewBox="0 0 127.559 50.01" enable-background="new 0 0 127.559 50.01" xml:space="preserve">
<g id="git_x5F_workflow_x5F_7">
	<path fill="none" stroke="#DDDDDD" stroke-width="0.5" stroke-miterlimit="10" d="M17.641,25.345c0-3.543-2.885-6.428-6.428-6.428
		 M8.689,44.628h18.546"/>
	<circle fill="#FFD6D3" stroke="#E5C2C1" stroke-width="0.5" stroke-miterlimit="10" cx="30.528" cy="44.627" r="3.292"/>
	<path fill="none" stroke="#DDDDDD" stroke-width="0.5" stroke-miterlimit="10" d="M11.213,18.917H2.105 M17.641,25.345
		c0,3.542,2.885,6.427,6.428,6.427h12.967"/>
	<circle fill="#FFD6D3" stroke="#E5C2C1" stroke-width="0.5" stroke-miterlimit="10" cx="30.528" cy="31.771" r="3.292"/>
	<circle fill="#FFD6D3" stroke="#E5C2C1" stroke-width="0.5" stroke-miterlimit="10" cx="40.326" cy="31.771" r="3.292"/>
	<circle fill="#FFD6D3" stroke="#E5C2C1" stroke-width="0.5" stroke-miterlimit="10" cx="5.397" cy="44.627" r="3.292"/>
	<circle fill="#94FFDD" stroke="#88E5C3" stroke-width="0.5" stroke-miterlimit="10" cx="5.397" cy="18.916" r="3.292"/>
	<path fill="none" stroke="#DDDDDD" stroke-width="0.5" stroke-miterlimit="10" d="M5.397,22.208v19.126"/>
</g>
<path fill="#94FFDD" stroke="#88E5C3" stroke-width="0.5" stroke-miterlimit="10" d="M2.105,2h15.117v7.856H2.105V2z"/>
<path fill="#404040" d="M5.315,6.872V5.205h0.58c0.425,0,0.802,0.284,0.802,0.834c0,0.551-0.377,0.833-0.802,0.833H5.315z
	 M5.88,6.667c0.31,0,0.562-0.204,0.562-0.628c0-0.426-0.254-0.63-0.562-0.63H5.533v1.258H5.88z M8.079,6.541
	C8.013,6.745,7.825,6.902,7.578,6.902c-0.303,0-0.569-0.22-0.569-0.613c0-0.359,0.253-0.596,0.532-0.596
	c0.347,0,0.554,0.236,0.554,0.596v0.08H7.247c0,0.202,0.153,0.345,0.347,0.345c0.185,0,0.279-0.093,0.31-0.235L8.079,6.541z
	 M7.856,6.18c0-0.158-0.105-0.285-0.314-0.285c-0.188,0-0.294,0.144-0.312,0.285H7.856z M9.038,6.872H8.815L8.343,5.74h0.256
	l0.324,0.881L9.255,5.74h0.238L9.038,6.872z M10.714,6.541c-0.062,0.204-0.248,0.361-0.502,0.361c-0.295,0-0.562-0.22-0.562-0.613
	c0-0.359,0.252-0.596,0.547-0.596c0.35,0,0.553,0.236,0.553,0.596v0.08H9.901c0,0.202,0.156,0.345,0.344,0.345
	c0.189,0,0.283-0.093,0.314-0.235L10.714,6.541z M10.497,6.18c0-0.158-0.109-0.285-0.314-0.285c-0.188,0-0.295,0.144-0.312,0.285
	H10.497z M11.124,6.872V5.158h0.223v1.714H11.124z M12.915,6.304c0,0.347-0.234,0.598-0.58,0.598c-0.35,0-0.58-0.251-0.58-0.598
	c0-0.344,0.23-0.596,0.58-0.596C12.667,5.693,12.915,5.961,12.915,6.304z M12.681,6.304c0-0.266-0.16-0.409-0.346-0.409
	c-0.188,0-0.35,0.144-0.35,0.409c0,0.267,0.162,0.409,0.35,0.409C12.521,6.713,12.681,6.556,12.681,6.304z M13.308,7.311V5.74h0.225
	v0.174c0.062-0.111,0.186-0.205,0.371-0.205c0.35,0,0.523,0.268,0.523,0.596c0,0.332-0.191,0.598-0.539,0.598
	c-0.172,0-0.311-0.077-0.355-0.188v0.598h-0.225V7.311z M13.858,5.914c-0.203,0-0.328,0.171-0.328,0.391
	c0,0.236,0.143,0.409,0.328,0.409c0.205,0,0.33-0.173,0.33-0.409C14.204,6.069,14.079,5.914,13.858,5.914z"/>
<path fill="#FFD6D3" stroke="#E5C2C1" stroke-width="0.5" stroke-miterlimit="10" d="M20.221,2h15.111v7.856H20.221V2z"/>
<path fill="#404040" d="M23.756,6.792V5.127h1.02v0.22h-0.783v0.534H24.7V6.1h-0.709v0.708h-0.234L23.756,6.792L23.756,6.792z
	 M26.065,6.463c-0.061,0.204-0.252,0.362-0.502,0.362C25.264,6.825,25,6.605,25,6.211c0-0.361,0.248-0.598,0.549-0.598
	c0.346,0,0.549,0.236,0.549,0.598v0.078h-0.85c0,0.205,0.152,0.348,0.348,0.348c0.188,0,0.283-0.096,0.314-0.236L26.065,6.463z
	 M25.829,6.099c0-0.154-0.109-0.281-0.312-0.281c-0.191,0-0.301,0.143-0.314,0.281H25.829z M26.74,6.15l0.314-0.051
	c0.062-0.015,0.094-0.046,0.094-0.077c0-0.108-0.078-0.204-0.25-0.204c-0.158,0-0.236,0.096-0.254,0.235l-0.201-0.046
	c0.031-0.221,0.219-0.363,0.473-0.363c0.348,0,0.473,0.189,0.473,0.409V6.62c0,0.093,0.014,0.155,0.014,0.187H27.18
	c0-0.031-0.016-0.078-0.016-0.156c-0.047,0.078-0.156,0.188-0.359,0.188c-0.236,0-0.377-0.157-0.377-0.346
	C26.397,6.289,26.538,6.164,26.74,6.15z M27.133,6.304V6.258l-0.342,0.046c-0.102,0.016-0.162,0.064-0.162,0.174
	c0,0.078,0.078,0.158,0.191,0.158C26.993,6.637,27.133,6.556,27.133,6.304z M28.106,5.66h0.254v0.205h-0.254v0.598
	c0,0.108,0.053,0.158,0.16,0.158c0.031,0,0.062,0,0.094-0.016v0.187c-0.018,0-0.076,0.016-0.154,0.016
	c-0.191,0-0.314-0.125-0.314-0.329V5.85h-0.225V5.645h0.066c0.125,0,0.172-0.077,0.172-0.17V5.286h0.201V5.66L28.106,5.66z
	 M29.176,6.825c-0.268,0-0.424-0.204-0.424-0.456V5.66h0.219v0.676c0,0.158,0.076,0.301,0.254,0.301c0.17,0,0.266-0.127,0.266-0.285
	V5.678h0.223v0.928c0,0.093,0,0.171,0.014,0.202h-0.201c0-0.031-0.02-0.094-0.02-0.141C29.458,6.776,29.317,6.825,29.176,6.825z
	 M30.856,5.881h-0.094c-0.188,0-0.311,0.096-0.311,0.347v0.564h-0.225V5.66h0.225v0.205c0.074-0.172,0.217-0.221,0.342-0.221h0.076
	V5.88L30.856,5.881L30.856,5.881z M32.174,6.463c-0.062,0.204-0.248,0.362-0.502,0.362c-0.295,0-0.564-0.22-0.564-0.614
	c0-0.361,0.254-0.598,0.551-0.598c0.348,0,0.549,0.236,0.549,0.598v0.078h-0.846c0,0.205,0.156,0.348,0.344,0.348
	c0.189,0,0.285-0.096,0.312-0.236L32.174,6.463z M31.958,6.099c0-0.154-0.109-0.281-0.316-0.281c-0.188,0-0.295,0.143-0.314,0.281
	H31.958z"/>
</svg>
