<?xml version="1.0" encoding="utf-8"?>
<!-- Generator: Adobe Illustrator 16.0.0, SVG Export Plug-In . SVG Version: 6.00 Build 0)  -->
<!DOCTYPE svg PUBLIC "-//W3C//DTD SVG 1.1//EN" "http://www.w3.org/Graphics/SVG/1.1/DTD/svg11.dtd">
<svg version="1.1" id="Layer_1" xmlns="http://www.w3.org/2000/svg" xmlns:xlink="http://www.w3.org/1999/xlink" x="0px" y="0px"
	 width="127.559px" height="54.129px" viewBox="0 0 127.559 54.129" enable-background="new 0 0 127.559 54.129"
	 xml:space="preserve">
<path fill="none" stroke="#DDDDDD" stroke-width="0.5" stroke-miterlimit="10" d="M28.628,32.609h-3.683
	c-3.604,0-6.538,2.933-6.538,6.535 M11.87,45.604c3.603,0,6.537-2.934,6.537-6.537 M28.644,32.609h10.189
	c3.603,0,6.537,2.933,6.537,6.535 M51.908,45.604c-3.604,0-6.538-2.934-6.538-6.537 M8.698,45.604h46.524"/>
<circle fill="#62B3CC" stroke="#57A1B2" stroke-width="0.5" stroke-miterlimit="10" cx="5.349" cy="45.603" r="3.349"/>
<circle fill="#62B3CC" stroke="#57A1B2" stroke-width="0.5" stroke-miterlimit="10" cx="58.573" cy="45.603" r="3.349"/>
<circle fill="#4BD6BA" stroke="#43BA9E" stroke-width="0.5" stroke-miterlimit="10" cx="58.765" cy="19.534" r="3.348"/>
<path fill="none" stroke="#DDDDDD" stroke-width="0.5" stroke-miterlimit="10" d="M48.879,25.992c0,3.604-2.935,6.535-6.537,6.535
	H32.153"/>
<path fill="none" stroke="#DDDDDD" stroke-width="0.5" stroke-miterlimit="10" d="M48.879,26.071c0-3.604,2.937-6.536,6.538-6.536"
	/>
<line fill="none" stroke="#DDDDDD" stroke-width="0.5" stroke-miterlimit="10" x1="8.89" y1="19.534" x2="55.417" y2="19.534"/>
<circle fill="#4BD6BA" stroke="#43BA9E" stroke-width="0.5" stroke-miterlimit="10" cx="5.349" cy="19.534" r="3.348"/>
<circle fill="#4BD6BA" stroke="#43BA9E" stroke-width="0.5" stroke-miterlimit="10" cx="23.156" cy="19.534" r="3.348"/>
<circle fill="#4BD6BA" stroke="#43BA9E" stroke-width="0.5" stroke-miterlimit="10" cx="40.96" cy="19.534" r="3.348"/>
<circle fill="#FA715E" stroke="#E06255" stroke-width="0.5" stroke-miterlimit="10" cx="31.977" cy="32.529" r="3.348"/>
<g>
	<rect x="2.262" y="2" fill="#62B3CC" stroke="#57A1B2" stroke-width="0.5" stroke-miterlimit="10" width="20" height="7"/>
	<g>
		<path fill="#40767C" d="M9.381,6.646V5.215L8.888,6.258h-0.24L8.142,5.215v1.431H7.818v-2.14h0.324l0.625,1.332l0.613-1.332h0.325
			v2.14H9.381z"/>
		<path fill="#40767C" d="M11.041,6.646V6.507c-0.111,0.111-0.216,0.156-0.406,0.156s-0.315-0.045-0.409-0.138
			c-0.078-0.081-0.12-0.199-0.12-0.328c0-0.256,0.177-0.439,0.526-0.439h0.403V5.65c0-0.192-0.096-0.286-0.333-0.286
			c-0.168,0-0.25,0.039-0.334,0.147l-0.201-0.189c0.144-0.168,0.294-0.219,0.547-0.219c0.418,0,0.628,0.177,0.628,0.523v1.019
			H11.041z M11.035,5.972h-0.358c-0.18,0-0.273,0.081-0.273,0.219c0,0.139,0.087,0.217,0.28,0.217c0.117,0,0.204-0.009,0.286-0.087
			c0.045-0.045,0.066-0.117,0.066-0.226V5.972z"/>
		<path fill="#40767C" d="M12.303,6.664c-0.25,0-0.46-0.042-0.64-0.219l0.201-0.202c0.124,0.126,0.289,0.159,0.439,0.159
			c0.187,0,0.334-0.066,0.334-0.21c0-0.102-0.057-0.168-0.205-0.18L12.189,5.99c-0.286-0.024-0.451-0.153-0.451-0.421
			c0-0.297,0.255-0.466,0.574-0.466c0.229,0,0.424,0.048,0.565,0.171L12.685,5.47c-0.096-0.081-0.231-0.111-0.375-0.111
			c-0.184,0-0.277,0.081-0.277,0.195c0,0.09,0.048,0.16,0.21,0.174l0.241,0.021c0.286,0.024,0.454,0.16,0.454,0.43
			C12.938,6.498,12.667,6.664,12.303,6.664z"/>
		<path fill="#40767C" d="M13.732,6.646c-0.286,0-0.417-0.205-0.417-0.424V5.383h-0.175V5.148h0.175V4.686h0.306v0.463h0.295v0.234
			H13.62v0.824c0,0.111,0.054,0.177,0.168,0.177h0.126v0.262H13.732z"/>
		<path fill="#40767C" d="M14.52,5.972c0,0.262,0.139,0.427,0.388,0.427c0.171,0,0.261-0.048,0.37-0.156l0.195,0.184
			c-0.156,0.156-0.304,0.237-0.571,0.237c-0.382,0-0.685-0.202-0.685-0.782c0-0.493,0.255-0.778,0.646-0.778
			c0.409,0,0.646,0.3,0.646,0.733v0.135H14.52z M15.164,5.551c-0.048-0.114-0.156-0.192-0.301-0.192
			c-0.144,0-0.255,0.078-0.304,0.192c-0.03,0.069-0.036,0.114-0.039,0.208h0.686C15.203,5.666,15.194,5.621,15.164,5.551z"/>
		<path fill="#40767C" d="M16.75,5.479c-0.069-0.069-0.123-0.102-0.229-0.102c-0.165,0-0.303,0.132-0.303,0.343v0.926h-0.307V5.122
			h0.3v0.165c0.078-0.108,0.234-0.183,0.406-0.183c0.147,0,0.259,0.039,0.364,0.144L16.75,5.479z"/>
	</g>
</g>
<g>
	<rect x="25.466" y="2" fill="#FA715E" stroke="#E06255" stroke-width="0.5" stroke-miterlimit="10" width="20" height="7"/>
	<g>
		<path fill="#AA4743" d="M32.955,6.646V5.71h-0.869v0.935h-0.324v-2.14h0.324v0.914h0.869V4.505h0.324v2.14H32.955z"/>
		<path fill="#AA4743" d="M34.817,6.483c-0.1,0.102-0.25,0.18-0.457,0.18s-0.355-0.078-0.454-0.18
			c-0.144-0.15-0.18-0.343-0.18-0.602c0-0.255,0.036-0.448,0.18-0.598c0.099-0.102,0.247-0.18,0.454-0.18s0.357,0.078,0.457,0.18
			c0.144,0.15,0.18,0.343,0.18,0.598C34.997,6.141,34.961,6.333,34.817,6.483z M34.586,5.464c-0.057-0.057-0.135-0.087-0.226-0.087
			s-0.166,0.03-0.223,0.087c-0.093,0.093-0.105,0.252-0.105,0.417c0,0.166,0.012,0.325,0.105,0.418
			c0.057,0.057,0.132,0.09,0.223,0.09s0.168-0.033,0.226-0.09c0.093-0.093,0.105-0.252,0.105-0.418
			C34.691,5.717,34.678,5.557,34.586,5.464z"/>
		<path fill="#AA4743" d="M35.863,6.646c-0.286,0-0.417-0.205-0.417-0.424V5.383h-0.175V5.148h0.175V4.686h0.306v0.463h0.295v0.234
			h-0.295v0.824c0,0.111,0.054,0.177,0.168,0.177h0.126v0.262H35.863z"/>
		<path fill="#AA4743" d="M36.784,5.383v1.263h-0.307V5.383h-0.174V5.148h0.174V4.914c0-0.219,0.132-0.424,0.418-0.424h0.189v0.262
			h-0.135c-0.114,0-0.165,0.066-0.165,0.177v0.219h0.3v0.234H36.784z M37.382,4.77V4.496h0.328V4.77H37.382z M37.391,6.646V5.148
			h0.307v1.497H37.391z"/>
		<path fill="#AA4743" d="M39.017,6.646l-0.319-0.52l-0.321,0.52h-0.37l0.523-0.778l-0.502-0.746h0.37l0.3,0.496l0.298-0.496h0.37
			l-0.499,0.746l0.52,0.778H39.017z"/>
	</g>
</g>
<g>
	<rect x="48.29" y="2" fill="#4BD6BA" stroke="#43BA9E" stroke-width="0.5" stroke-miterlimit="10" width="20" height="7"/>
	<g>
		<path fill="#3B9E84" d="M54.51,6.444c-0.135,0.135-0.331,0.201-0.553,0.201h-0.751v-2.14h0.751c0.222,0,0.417,0.066,0.553,0.201
			c0.231,0.231,0.217,0.544,0.217,0.854S54.741,6.213,54.51,6.444z M54.288,4.941c-0.09-0.099-0.21-0.144-0.364-0.144H53.53v1.557
			h0.394c0.153,0,0.273-0.045,0.364-0.145c0.111-0.123,0.114-0.354,0.114-0.649C54.402,5.266,54.399,5.064,54.288,4.941z"/>
		<path fill="#3B9E84" d="M55.393,5.972c0,0.262,0.139,0.427,0.388,0.427c0.171,0,0.261-0.048,0.37-0.156l0.195,0.184
			c-0.156,0.156-0.304,0.237-0.571,0.237c-0.382,0-0.685-0.202-0.685-0.782c0-0.493,0.255-0.778,0.646-0.778
			c0.409,0,0.646,0.3,0.646,0.733v0.135H55.393z M56.036,5.551c-0.048-0.114-0.156-0.192-0.301-0.192
			c-0.144,0-0.255,0.078-0.304,0.192c-0.03,0.069-0.036,0.114-0.039,0.208h0.686C56.075,5.666,56.066,5.621,56.036,5.551z"/>
		<path fill="#3B9E84" d="M57.344,6.646h-0.25l-0.559-1.524h0.325l0.361,1.073l0.357-1.073h0.325L57.344,6.646z"/>
		<path fill="#3B9E84" d="M58.363,5.972c0,0.262,0.139,0.427,0.388,0.427c0.171,0,0.261-0.048,0.37-0.156l0.195,0.184
			c-0.156,0.156-0.304,0.237-0.571,0.237c-0.382,0-0.685-0.202-0.685-0.782c0-0.493,0.255-0.778,0.646-0.778
			c0.409,0,0.646,0.3,0.646,0.733v0.135H58.363z M59.006,5.551c-0.048-0.114-0.156-0.192-0.301-0.192
			c-0.144,0-0.255,0.078-0.304,0.192c-0.03,0.069-0.036,0.114-0.039,0.208h0.686C59.045,5.666,59.036,5.621,59.006,5.551z"/>
		<path fill="#3B9E84" d="M60.163,6.646c-0.292,0-0.418-0.195-0.418-0.421V4.505h0.307v1.701c0,0.117,0.042,0.177,0.166,0.177h0.135
			v0.262H60.163z"/>
		<path fill="#3B9E84" d="M61.647,6.483c-0.1,0.102-0.25,0.18-0.457,0.18s-0.355-0.078-0.454-0.18
			c-0.144-0.15-0.18-0.343-0.18-0.602c0-0.255,0.036-0.448,0.18-0.598c0.099-0.102,0.247-0.18,0.454-0.18s0.357,0.078,0.457,0.18
			c0.144,0.15,0.18,0.343,0.18,0.598C61.827,6.141,61.791,6.333,61.647,6.483z M61.415,5.464c-0.057-0.057-0.135-0.087-0.226-0.087
			s-0.166,0.03-0.223,0.087c-0.093,0.093-0.105,0.252-0.105,0.417c0,0.166,0.012,0.325,0.105,0.418
			c0.057,0.057,0.132,0.09,0.223,0.09s0.168-0.033,0.226-0.09c0.093-0.093,0.105-0.252,0.105-0.418
			C61.52,5.717,61.508,5.557,61.415,5.464z"/>
		<path fill="#3B9E84" d="M63.315,6.528c-0.084,0.084-0.217,0.135-0.37,0.135c-0.162,0-0.289-0.042-0.399-0.174v0.772h-0.307v-2.14
			h0.3v0.162c0.114-0.138,0.238-0.18,0.403-0.18c0.153,0,0.289,0.051,0.373,0.135c0.153,0.153,0.171,0.412,0.171,0.643
			S63.468,6.375,63.315,6.528z M62.864,5.377c-0.276,0-0.318,0.234-0.318,0.505s0.042,0.508,0.318,0.508
			c0.277,0,0.316-0.238,0.316-0.508S63.14,5.377,62.864,5.377z"/>
	</g>
</g>
</svg>
