<?xml version="1.0" encoding="utf-8"?>
<!-- Generator: Adobe Illustrator 16.0.4, SVG Export Plug-In . SVG Version: 6.00 Build 0)  -->
<!DOCTYPE svg PUBLIC "-//W3C//DTD SVG 1.1//EN" "http://www.w3.org/Graphics/SVG/1.1/DTD/svg11.dtd">
<svg version="1.1" id="Layer_1" xmlns="http://www.w3.org/2000/svg" xmlns:xlink="http://www.w3.org/1999/xlink" x="0px" y="0px"
	 width="127.559px" height="46.01px" viewBox="0 0 127.559 46.01" enable-background="new 0 0 127.559 46.01" xml:space="preserve">
<g id="git_x5F_workflow_x5F_9">
	<path fill="none" stroke="#404040" stroke-width="0.6" stroke-miterlimit="10" d="M9.758,33.42h-2.2"/>
	<circle fill="#B18BE8" stroke="#404040" stroke-width="0.6" stroke-miterlimit="10" cx="4.289" cy="33.404" r="3.348"/>
	<path fill="none" stroke="#404040" stroke-width="0.6" stroke-miterlimit="10" d="M16.296,26.882c0,3.604-2.935,6.538-6.538,6.538
		 M23.024,20.345h-0.19c-3.604,0-6.537,2.934-6.537,6.537 M42.732,20.345H23.024"/>
	
		<circle fill="#4CD3D6" stroke="#404040" stroke-width="0.6" stroke-linejoin="round" stroke-miterlimit="10" cx="39.384" cy="20.329" r="3.349"/>
	
		<circle fill="#4CD3D6" stroke="#404040" stroke-width="0.6" stroke-linejoin="round" stroke-miterlimit="10" cx="29.418" cy="20.329" r="3.349"/>
</g>
<path fill="#4CD3D6" stroke="#404040" stroke-width="0.6" stroke-linecap="round" stroke-linejoin="round" stroke-miterlimit="10" d="
	M18.057,1.124h15.111v7.856H18.057V1.124z"/>
<path fill="#404040" d="M22.032,5.304H21.78v0.675h-0.233V4.33h0.627c0.313,0,0.52,0.219,0.52,0.504
	c0,0.235-0.157,0.424-0.409,0.471l0.395,0.708H22.41L22.032,5.304z M22.141,5.101c0.189,0,0.314-0.111,0.314-0.283
	c0-0.174-0.125-0.284-0.314-0.284h-0.346v0.567H22.141z M24.043,5.665c-0.064,0.204-0.254,0.359-0.504,0.359
	c-0.299,0-0.566-0.219-0.566-0.611c0-0.359,0.252-0.597,0.551-0.597c0.347,0,0.552,0.236,0.552,0.597v0.08h-0.851
	c0,0.201,0.158,0.345,0.346,0.345c0.188,0,0.283-0.094,0.314-0.235L24.043,5.665z M23.823,5.304c0-0.158-0.11-0.285-0.313-0.285
	c-0.189,0-0.299,0.146-0.314,0.285H23.823z M24.45,5.996V4.281h0.221v1.715H24.45z M26.163,5.665
	c-0.062,0.204-0.252,0.359-0.502,0.359c-0.3,0-0.566-0.219-0.566-0.611c0-0.359,0.252-0.597,0.551-0.597
	c0.347,0,0.551,0.236,0.551,0.597v0.08h-0.85c0,0.201,0.156,0.345,0.346,0.345c0.19,0,0.283-0.094,0.314-0.235L26.163,5.665z
	 M25.942,5.304c0-0.158-0.108-0.285-0.312-0.285c-0.189,0-0.299,0.146-0.314,0.285H25.942z M26.838,5.351l0.313-0.047
	c0.062-0.016,0.095-0.047,0.095-0.08c0-0.109-0.078-0.205-0.25-0.205c-0.158,0-0.236,0.096-0.254,0.238l-0.22-0.049
	c0.031-0.22,0.22-0.359,0.474-0.359c0.346,0,0.471,0.189,0.471,0.408v0.55c0,0.094,0.016,0.156,0.016,0.189h-0.235
	c0-0.033-0.017-0.08-0.017-0.158c-0.047,0.078-0.158,0.188-0.358,0.188c-0.238,0-0.379-0.155-0.379-0.346
	C26.493,5.493,26.651,5.366,26.838,5.351z M27.231,5.509V5.46l-0.346,0.049c-0.094,0.016-0.158,0.062-0.158,0.171
	c0,0.08,0.08,0.158,0.189,0.158C27.09,5.838,27.231,5.76,27.231,5.509z M28.016,5.634c0.019,0.126,0.111,0.204,0.269,0.204
	c0.125,0,0.188-0.078,0.188-0.158c0-0.062-0.049-0.124-0.143-0.14l-0.188-0.047C27.969,5.46,27.86,5.335,27.86,5.177
	c0-0.188,0.188-0.359,0.408-0.359c0.314,0,0.408,0.201,0.424,0.297l-0.188,0.078c-0.017-0.061-0.064-0.188-0.236-0.188
	c-0.108,0-0.188,0.08-0.188,0.158c0,0.061,0.049,0.125,0.127,0.141l0.188,0.047c0.205,0.047,0.314,0.174,0.314,0.329
	c0,0.158-0.142,0.346-0.408,0.346c-0.314,0-0.439-0.203-0.455-0.33L28.016,5.634z M30.075,5.665
	c-0.062,0.204-0.253,0.359-0.505,0.359c-0.297,0-0.563-0.219-0.563-0.611c0-0.359,0.252-0.597,0.549-0.597
	c0.346,0,0.551,0.236,0.551,0.597v0.08h-0.848c0,0.201,0.156,0.345,0.346,0.345c0.188,0,0.281-0.094,0.312-0.235L30.075,5.665z
	 M29.854,5.304c0-0.158-0.108-0.285-0.313-0.285c-0.188,0-0.299,0.146-0.314,0.285H29.854z"/>
<path fill="#B18BE8" stroke="#404040" stroke-width="0.6" stroke-linecap="round" stroke-linejoin="round" stroke-miterlimit="10" d="
	M0.941,1.124h15.116V8.98H0.941V1.124z"/>
<path fill="#404040" d="M4.151,5.996V4.329h0.58c0.425,0,0.803,0.283,0.803,0.834S5.156,5.996,4.731,5.996H4.151z M4.716,5.791
	c0.31,0,0.562-0.204,0.562-0.628c0-0.427-0.254-0.63-0.562-0.63H4.369v1.258H4.716z M6.915,5.665
	C6.848,5.869,6.661,6.027,6.414,6.027c-0.302,0-0.569-0.22-0.569-0.612c0-0.359,0.253-0.597,0.532-0.597
	c0.347,0,0.554,0.236,0.554,0.597v0.08H6.083c0,0.201,0.154,0.345,0.347,0.345c0.186,0,0.278-0.093,0.311-0.235L6.915,5.665z
	 M6.692,5.305c0-0.158-0.106-0.285-0.314-0.285c-0.187,0-0.294,0.145-0.311,0.285H6.692z M7.874,5.996H7.651L7.178,4.865h0.256
	l0.324,0.882L8.09,4.865h0.238L7.874,5.996z M9.549,5.665C9.487,5.869,9.301,6.027,9.047,6.027c-0.295,0-0.562-0.22-0.562-0.612
	c0-0.359,0.252-0.597,0.548-0.597c0.348,0,0.551,0.236,0.551,0.597v0.08H8.737c0,0.201,0.156,0.345,0.343,0.345
	c0.19,0,0.284-0.093,0.315-0.235L9.549,5.665z M9.333,5.305c0-0.158-0.109-0.285-0.314-0.285c-0.188,0-0.295,0.145-0.312,0.285
	H9.333z M9.959,5.996V4.281h0.223v1.715H9.959z M11.75,5.429c0,0.347-0.234,0.598-0.58,0.598c-0.349,0-0.58-0.251-0.58-0.598
	c0-0.344,0.231-0.596,0.58-0.596C11.502,4.818,11.75,5.085,11.75,5.429z M11.516,5.429c0-0.266-0.16-0.409-0.346-0.409
	c-0.187,0-0.349,0.145-0.349,0.409c0,0.267,0.162,0.409,0.349,0.409C11.356,5.838,11.516,5.681,11.516,5.429z M12.143,6.436V4.865
	h0.224v0.175c0.062-0.111,0.186-0.205,0.372-0.205c0.349,0,0.523,0.268,0.523,0.596c0,0.332-0.191,0.598-0.539,0.598
	c-0.172,0-0.311-0.076-0.356-0.188v0.598h-0.224V6.436z M12.694,5.038c-0.202,0-0.327,0.171-0.327,0.391
	c0,0.236,0.141,0.409,0.327,0.409c0.205,0,0.33-0.173,0.33-0.409C13.04,5.194,12.915,5.038,12.694,5.038z"/>
</svg>
