<?xml version="1.0" encoding="utf-8"?>
<!-- Generator: Adobe Illustrator 16.0.0, SVG Export Plug-In . SVG Version: 6.00 Build 0)  -->
<!DOCTYPE svg PUBLIC "-//W3C//DTD SVG 1.1//EN" "http://www.w3.org/Graphics/SVG/1.1/DTD/svg11.dtd">
<svg version="1.1" id="Layer_1" xmlns="http://www.w3.org/2000/svg" xmlns:xlink="http://www.w3.org/1999/xlink" x="0px" y="0px"
	 width="127.559px" height="54.129px" viewBox="0 0 127.559 54.129" enable-background="new 0 0 127.559 54.129"
	 xml:space="preserve">
<path fill="none" stroke="#DDDDDD" stroke-width="0.5" stroke-miterlimit="10" d="M27.68,32.609h-3.683
	c-3.604,0-6.538,2.933-6.538,6.535 M10.922,45.604c3.603,0,6.537-2.934,6.537-6.537 M27.696,32.609h10.189
	c3.603,0,6.537,2.933,6.537,6.535 M50.96,45.604c-3.604,0-6.538-2.934-6.538-6.537 M7.749,45.604h46.525"/>
<circle fill="#62B3CC" stroke="#57A1B2" stroke-width="0.5" stroke-miterlimit="10" cx="4.401" cy="45.603" r="3.349"/>
<circle fill="#62B3CC" stroke="#57A1B2" stroke-width="0.5" stroke-miterlimit="10" cx="57.625" cy="45.603" r="3.349"/>
<path fill="#1B7C99" stroke="#176C7F" stroke-width="0.5" stroke-miterlimit="10" d="M18.166,1.144h15.11V9h-15.11V1.144z"/>
<path fill="#F5F5F5" d="M23.679,6.016V5.278h-0.848v0.738h-0.236V4.349h0.236v0.709h0.848V4.349h0.236v1.667H23.679z M25.486,5.448
	c0,0.348-0.232,0.599-0.578,0.599c-0.349,0-0.581-0.251-0.581-0.599c0-0.344,0.232-0.596,0.581-0.596
	C25.25,4.837,25.486,5.105,25.486,5.448z M25.265,5.448c0-0.266-0.156-0.408-0.345-0.408c-0.189,0-0.346,0.144-0.346,0.408
	c0,0.268,0.155,0.409,0.346,0.409C25.109,5.858,25.265,5.7,25.265,5.448z M26.177,4.884h0.252v0.205h-0.252v0.58
	c0,0.11,0.047,0.157,0.158,0.157c0.031,0,0.062,0,0.094-0.017v0.188c-0.017,0-0.078,0.017-0.157,0.017
	c-0.188,0-0.312-0.127-0.312-0.331V5.057h-0.223V4.883H25.8c0.126,0,0.172-0.08,0.172-0.173V4.522h0.205V4.884z M27.403,4.318v0.205
	c-0.016,0-0.047-0.016-0.095-0.016c-0.078,0-0.172,0.031-0.172,0.188v0.188h0.753v1.132h-0.22V5.088h-0.533v0.927H26.9V5.088h-0.204
	V4.883H26.9V4.695c0-0.251,0.172-0.394,0.377-0.394C27.34,4.302,27.387,4.318,27.403,4.318z M27.763,4.286
	c0.095,0,0.158,0.062,0.158,0.157c0,0.095-0.078,0.158-0.158,0.158c-0.094,0-0.156-0.08-0.156-0.158
	C27.607,4.349,27.685,4.286,27.763,4.286z M28.628,5.433l-0.409-0.549h0.269l0.281,0.394l0.271-0.394h0.268l-0.409,0.549
	c0.063,0.096,0.349,0.487,0.426,0.583h-0.269l-0.299-0.425L28.47,6.016h-0.266L28.628,5.433z"/>
<path fill="#62B3CC" stroke="#57A1B2" stroke-width="0.5" stroke-miterlimit="10" d="M1.052,1.144h15.113V9H1.052V1.144z"/>
<path fill="#404040" d="M6.503,6.016V4.711L5.938,6.016H5.735L5.169,4.711v1.305H4.933V4.349h0.314l0.598,1.366l0.596-1.366h0.315
	v1.667H6.503z M7.509,5.371l0.299-0.048c0.062-0.017,0.094-0.047,0.094-0.08c0-0.108-0.075-0.204-0.252-0.204
	c-0.153,0-0.232,0.096-0.251,0.237L7.195,5.229C7.213,5.009,7.416,4.87,7.669,4.87c0.346,0,0.471,0.188,0.471,0.408v0.55
	c0,0.094,0.018,0.156,0.018,0.188H7.933c0-0.032-0.015-0.08-0.015-0.158C7.871,5.936,7.76,6.046,7.557,6.046
	c-0.235,0-0.378-0.157-0.378-0.346C7.164,5.513,7.322,5.386,7.509,5.371z M7.902,5.529V5.48L7.557,5.529
	C7.462,5.544,7.399,5.591,7.399,5.7c0,0.079,0.063,0.156,0.188,0.156C7.76,5.858,7.902,5.781,7.902,5.529z M8.689,5.654
	c0.019,0.127,0.109,0.204,0.269,0.204c0.126,0,0.188-0.077,0.188-0.156c0-0.062-0.049-0.125-0.143-0.142L8.814,5.513
	C8.64,5.48,8.531,5.355,8.531,5.198c0-0.188,0.188-0.359,0.406-0.359c0.314,0,0.408,0.202,0.427,0.298L9.175,5.213
	C9.16,5.152,9.112,5.025,8.939,5.025c-0.106,0-0.188,0.08-0.188,0.158c0,0.062,0.049,0.125,0.127,0.143l0.188,0.047
	C9.269,5.417,9.379,5.544,9.379,5.7c0,0.156-0.145,0.346-0.409,0.346c-0.312,0-0.438-0.204-0.455-0.331L8.689,5.654z M10.071,4.884
	h0.251v0.205h-0.251v0.58c0,0.11,0.049,0.157,0.155,0.157c0.032,0,0.064,0,0.096-0.017v0.188c-0.016,0-0.076,0.017-0.153,0.017
	c-0.189,0-0.314-0.127-0.314-0.331V5.057H9.63V4.883h0.062c0.127,0,0.177-0.08,0.177-0.173V4.522h0.201L10.071,4.884L10.071,4.884z
	 M11.705,5.685c-0.063,0.204-0.252,0.361-0.503,0.361c-0.303,0-0.565-0.22-0.565-0.613c0-0.359,0.251-0.596,0.55-0.596
	c0.349,0,0.55,0.235,0.55,0.596v0.062h-0.849c0,0.205,0.157,0.347,0.346,0.347c0.189,0,0.282-0.093,0.313-0.235L11.705,5.685z
	 M11.484,5.323c0-0.157-0.107-0.284-0.312-0.284c-0.188,0-0.299,0.144-0.312,0.284H11.484z M12.74,5.105h-0.097
	c-0.188,0-0.312,0.093-0.312,0.344v0.567H12.11V4.884h0.223v0.205c0.078-0.174,0.22-0.221,0.346-0.221h0.077v0.235L12.74,5.105
	L12.74,5.105z"/>
<path fill="#94FFDD" stroke="#88E5C3" stroke-width="0.5" stroke-miterlimit="10" d="M35.279,1.144h15.116v7.855H35.279V1.144z"/>
<path fill="#404040" d="M38.49,6.016V4.349h0.578c0.427,0,0.804,0.283,0.804,0.834c0,0.551-0.377,0.833-0.804,0.833H38.49z
	 M39.054,5.811c0.312,0,0.562-0.204,0.562-0.628c0-0.427-0.256-0.63-0.562-0.63h-0.349v1.258H39.054z M41.253,5.685
	c-0.067,0.204-0.256,0.36-0.502,0.36c-0.302,0-0.568-0.22-0.568-0.612c0-0.359,0.253-0.597,0.532-0.597
	c0.347,0,0.554,0.236,0.554,0.597v0.08h-0.848c0,0.201,0.153,0.345,0.347,0.345c0.187,0,0.278-0.093,0.312-0.235L41.253,5.685z
	 M41.03,5.323c0-0.158-0.104-0.285-0.312-0.285c-0.188,0-0.294,0.145-0.312,0.285H41.03z M42.212,6.016h-0.227l-0.473-1.133h0.256
	l0.324,0.882l0.333-0.882h0.236L42.212,6.016z M43.887,5.685c-0.062,0.204-0.248,0.36-0.501,0.36c-0.295,0-0.562-0.22-0.562-0.612
	c0-0.359,0.252-0.597,0.547-0.597c0.35,0,0.553,0.236,0.553,0.597v0.08h-0.849c0,0.201,0.154,0.345,0.342,0.345
	c0.189,0,0.285-0.093,0.314-0.235L43.887,5.685z M43.671,5.323c0-0.158-0.109-0.285-0.314-0.285c-0.188,0-0.295,0.145-0.312,0.285
	H43.671z M44.298,6.016V4.302h0.223v1.714H44.298z M46.089,5.447c0,0.347-0.234,0.598-0.58,0.598c-0.35,0-0.58-0.251-0.58-0.598
	c0-0.344,0.23-0.596,0.58-0.596C45.841,4.836,46.089,5.105,46.089,5.447z M45.854,5.447c0-0.266-0.16-0.409-0.346-0.409
	c-0.188,0-0.35,0.145-0.35,0.409c0,0.267,0.16,0.409,0.35,0.409C45.694,5.857,45.854,5.699,45.854,5.447z M46.481,6.454V4.883h0.225
	v0.175c0.062-0.111,0.188-0.205,0.373-0.205c0.35,0,0.521,0.268,0.521,0.596c0,0.332-0.189,0.598-0.539,0.598
	c-0.172,0-0.312-0.076-0.355-0.188v0.598h-0.225V6.454z M47.031,5.058c-0.203,0-0.328,0.171-0.328,0.391
	c0,0.236,0.143,0.409,0.328,0.409c0.203,0,0.328-0.173,0.328-0.409C47.378,5.212,47.253,5.058,47.031,5.058z"/>
<circle fill="#94FFDD" stroke="#88E5C3" stroke-width="0.5" stroke-miterlimit="10" cx="57.817" cy="19.534" r="3.348"/>
<path fill="none" stroke="#DDDDDD" stroke-width="0.5" stroke-miterlimit="10" d="M47.931,25.992c0,3.604-2.935,6.535-6.537,6.535
	H31.204"/>
<path fill="none" stroke="#DDDDDD" stroke-width="0.5" stroke-miterlimit="10" d="M47.931,26.071c0-3.604,2.936-6.536,6.538-6.536"
	/>
<line fill="none" stroke="#DDDDDD" stroke-width="0.5" stroke-miterlimit="10" x1="7.942" y1="19.534" x2="54.469" y2="19.534"/>
<circle fill="#94FFDD" stroke="#88E5C3" stroke-width="0.5" stroke-miterlimit="10" cx="4.401" cy="19.534" r="3.348"/>
<circle fill="#94FFDD" stroke="#88E5C3" stroke-width="0.5" stroke-miterlimit="10" cx="22.207" cy="19.534" r="3.348"/>
<circle fill="#94FFDD" stroke="#88E5C3" stroke-width="0.5" stroke-miterlimit="10" cx="40.012" cy="19.534" r="3.348"/>
<circle fill="#1B7C99" stroke="#176C7F" stroke-width="0.5" stroke-miterlimit="10" cx="31.029" cy="32.529" r="3.348"/>
</svg>
