<?xml version="1.0" encoding="utf-8"?>
<!-- Generator: Adobe Illustrator 16.0.4, SVG Export Plug-In . SVG Version: 6.00 Build 0)  -->
<!DOCTYPE svg PUBLIC "-//W3C//DTD SVG 1.1//EN" "http://www.w3.org/Graphics/SVG/1.1/DTD/svg11.dtd">
<svg version="1.1" id="Layer_1" xmlns="http://www.w3.org/2000/svg" xmlns:xlink="http://www.w3.org/1999/xlink" x="0px" y="0px"
	 width="127.559px" height="40.375px" viewBox="0 -1.74 127.559 40.375" enable-background="new 0 -1.74 127.559 40.375"
	 xml:space="preserve">
<g id="git_x5F_workflow_x5F_6">
	<path fill="none" stroke="#404040" stroke-width="0.6" stroke-linecap="round" stroke-linejoin="round" stroke-miterlimit="10" d="
		M33.516,27.01c0-3.604-2.934-6.537-6.537-6.537H7.845 M33.516,27.01c0,3.604,2.935,6.537,6.538,6.537h4.896"/>
	
		<circle fill="#B3E3FF" stroke="#404040" stroke-width="0.6" stroke-linejoin="round" stroke-miterlimit="10" cx="17.763" cy="20.472" r="3.348"/>
	
		<circle fill="#B3E3FF" stroke="#404040" stroke-width="0.6" stroke-linejoin="round" stroke-miterlimit="10" cx="4.497" cy="20.472" r="3.348"/>
	<circle fill="#B18BE8" stroke="#404040" stroke-width="0.6" stroke-miterlimit="10" cx="48.297" cy="33.548" r="3.348"/>
</g>
<path fill="#B18BE8" stroke="#404040" stroke-width="0.6" stroke-linecap="round" stroke-linejoin="round" stroke-miterlimit="10" d="
	M20.763,2.612h15.116v7.856H20.763V2.612z"/>
<path fill="#404040" d="M23.973,7.484V5.817h0.58c0.425,0,0.802,0.284,0.802,0.834c0,0.551-0.377,0.833-0.802,0.833H23.973z
	 M24.538,7.279c0.31,0,0.563-0.204,0.563-0.628c0-0.426-0.254-0.63-0.563-0.63h-0.348v1.258H24.538z M26.738,7.153
	c-0.066,0.204-0.254,0.361-0.502,0.361c-0.301,0-0.569-0.22-0.569-0.613c0-0.359,0.253-0.596,0.532-0.596
	c0.347,0,0.555,0.236,0.555,0.596v0.08h-0.849c0,0.202,0.155,0.345,0.347,0.345c0.186,0,0.279-0.093,0.311-0.235L26.738,7.153z
	 M26.515,6.792c0-0.158-0.108-0.285-0.316-0.285c-0.186,0-0.294,0.144-0.31,0.285H26.515z M27.696,7.484h-0.223l-0.472-1.132h0.255
	l0.325,0.881l0.332-0.881h0.238L27.696,7.484z M29.372,7.153c-0.062,0.204-0.248,0.361-0.502,0.361c-0.295,0-0.563-0.22-0.563-0.613
	c0-0.359,0.253-0.596,0.548-0.596c0.348,0,0.55,0.236,0.55,0.596v0.08H28.56c0,0.202,0.155,0.345,0.342,0.345
	c0.191,0,0.285-0.093,0.315-0.235L29.372,7.153z M29.156,6.792c0-0.158-0.109-0.285-0.315-0.285c-0.188,0-0.295,0.144-0.312,0.285
	H29.156z M29.782,7.484V5.77h0.222v1.714H29.782z M31.573,6.916c0,0.347-0.233,0.598-0.58,0.598s-0.579-0.251-0.579-0.598
	c0-0.344,0.232-0.596,0.579-0.596C31.324,6.305,31.573,6.573,31.573,6.916z M31.339,6.916c0-0.266-0.16-0.409-0.347-0.409
	c-0.186,0-0.347,0.144-0.347,0.409c0,0.267,0.161,0.409,0.347,0.409C31.179,7.325,31.339,7.168,31.339,6.916z M31.966,7.923V6.352
	h0.223v0.174c0.062-0.111,0.186-0.205,0.373-0.205c0.347,0,0.522,0.268,0.522,0.596c0,0.332-0.19,0.598-0.539,0.598
	c-0.171,0-0.31-0.077-0.356-0.188v0.598H31.966z M32.516,6.526c-0.203,0-0.327,0.171-0.327,0.391c0,0.236,0.14,0.409,0.327,0.409
	c0.206,0,0.331-0.173,0.331-0.409C32.863,6.681,32.738,6.526,32.516,6.526z"/>
<path fill="#B3E3FF" stroke="#404040" stroke-width="0.6" stroke-linecap="round" stroke-linejoin="round" stroke-miterlimit="10" d="
	M2.15,2.612h15.113v7.856H2.15V2.612z"/>
<path fill="#404040" d="M7.602,7.484V6.179L7.036,7.484H6.833L6.267,6.179v1.305H6.031V5.817h0.313l0.598,1.366l0.597-1.366h0.315
	v1.667H7.602z M8.607,6.839l0.299-0.047C8.968,6.776,9,6.745,9,6.711c0-0.108-0.079-0.204-0.252-0.204
	c-0.157,0-0.236,0.096-0.251,0.238L8.293,6.697c0.017-0.22,0.22-0.36,0.472-0.36c0.346,0,0.472,0.189,0.472,0.409v0.549
	c0,0.094,0.015,0.157,0.015,0.189h-0.22c0-0.032-0.015-0.08-0.015-0.158C8.968,7.404,8.858,7.514,8.655,7.514
	c-0.235,0-0.377-0.157-0.377-0.346C8.261,6.981,8.42,6.854,8.607,6.839z M9,6.996V6.948L8.655,6.996
	C8.561,7.012,8.497,7.059,8.497,7.168c0,0.08,0.064,0.157,0.189,0.157C8.858,7.325,9,7.248,9,6.996z M9.786,7.121
	c0.016,0.127,0.11,0.204,0.266,0.204c0.126,0,0.189-0.077,0.189-0.157c0-0.062-0.048-0.125-0.142-0.141L9.912,6.981
	C9.738,6.948,9.628,6.823,9.628,6.665c0-0.188,0.189-0.36,0.409-0.36c0.315,0,0.408,0.202,0.425,0.298l-0.189,0.078
	c-0.015-0.062-0.063-0.188-0.236-0.188c-0.11,0-0.189,0.08-0.189,0.158c0,0.061,0.048,0.125,0.126,0.142l0.188,0.047
	c0.205,0.046,0.315,0.173,0.315,0.329c0,0.157-0.143,0.346-0.409,0.346c-0.314,0-0.44-0.204-0.455-0.331L9.786,7.121z M11.169,6.352
	h0.251v0.205h-0.251v0.58c0,0.111,0.046,0.157,0.156,0.157c0.032,0,0.064,0,0.095-0.016v0.188c-0.016,0-0.079,0.017-0.157,0.017
	c-0.188,0-0.314-0.127-0.314-0.331V6.526h-0.22V6.352h0.062c0.126,0,0.173-0.08,0.173-0.173V5.99h0.205V6.352z M12.802,7.153
	c-0.063,0.204-0.251,0.361-0.502,0.361c-0.299,0-0.565-0.22-0.565-0.613c0-0.359,0.251-0.596,0.55-0.596
	c0.346,0,0.549,0.236,0.549,0.596v0.062h-0.848c0,0.205,0.157,0.347,0.346,0.347s0.282-0.093,0.314-0.235L12.802,7.153z
	 M12.582,6.792c0-0.158-0.11-0.285-0.315-0.285c-0.188,0-0.298,0.144-0.312,0.285H12.582z M13.838,6.573h-0.094
	c-0.188,0-0.313,0.093-0.313,0.344v0.567h-0.22V6.352h0.22v0.205c0.078-0.174,0.22-0.221,0.346-0.221h0.078v0.236H13.838z"/>
</svg>
