<?xml version="1.0" encoding="utf-8"?>
<!-- Generator: Adobe Illustrator 16.0.0, SVG Export Plug-In . SVG Version: 6.00 Build 0)  -->
<!DOCTYPE svg PUBLIC "-//W3C//DTD SVG 1.1//EN" "http://www.w3.org/Graphics/SVG/1.1/DTD/svg11.dtd">
<svg version="1.1" id="Layer_1" xmlns="http://www.w3.org/2000/svg" xmlns:xlink="http://www.w3.org/1999/xlink" x="0px" y="0px"
	 width="127.559px" height="40.375px" viewBox="0 0 127.559 40.375" enable-background="new 0 0 127.559 40.375"
	 xml:space="preserve">
<g id="git_x5F_workflow_x5F_6">
	<path fill="none" stroke="#DDDDDD" stroke-width="0.5" stroke-miterlimit="10" d="M34.367,27.01c0-3.604-2.935-6.537-6.537-6.537
		H8.697 M34.367,27.01c0,3.604,2.938,6.537,6.537,6.537h4.896"/>
	<circle fill="#62B3CC" stroke="#57A1B2" stroke-width="0.5" stroke-miterlimit="10" cx="18.615" cy="20.472" r="3.348"/>
	<circle fill="#62B3CC" stroke="#57A1B2" stroke-width="0.5" stroke-miterlimit="10" cx="5.349" cy="20.472" r="3.348"/>
	<circle fill="#4BD6BA" stroke="#43BA9E" stroke-width="0.5" stroke-miterlimit="10" cx="49.149" cy="33.548" r="3.348"/>
</g>
<g>
	<rect x="2" y="2" fill="#62B3CC" stroke="#57A1B2" stroke-width="0.5" stroke-miterlimit="10" width="20" height="7"/>
	<g enable-background="new    ">
		<path fill="#40767C" d="M9.1,6.646V5.215L8.607,6.258h-0.24L7.861,5.215v1.431H7.537V4.505h0.324l0.625,1.332L9.1,4.505h0.325
			v2.141H9.1z"/>
		<path fill="#40767C" d="M10.76,6.646V6.507c-0.111,0.111-0.216,0.156-0.406,0.156s-0.315-0.045-0.409-0.138
			c-0.078-0.081-0.12-0.198-0.12-0.328c0-0.255,0.177-0.438,0.526-0.438h0.403V5.65c0-0.192-0.096-0.285-0.333-0.285
			c-0.168,0-0.25,0.039-0.334,0.147L9.885,5.323c0.144-0.169,0.294-0.22,0.547-0.22c0.418,0,0.628,0.178,0.628,0.523v1.019H10.76z
			 M10.754,5.972h-0.358c-0.18,0-0.273,0.082-0.273,0.22c0,0.139,0.087,0.217,0.28,0.217c0.117,0,0.204-0.009,0.286-0.087
			c0.045-0.046,0.066-0.117,0.066-0.226V5.972z"/>
		<path fill="#40767C" d="M12.022,6.663c-0.25,0-0.46-0.042-0.64-0.219l0.201-0.201c0.124,0.126,0.289,0.159,0.439,0.159
			c0.187,0,0.334-0.066,0.334-0.211c0-0.102-0.057-0.168-0.205-0.18L11.908,5.99c-0.286-0.024-0.451-0.153-0.451-0.421
			c0-0.298,0.255-0.466,0.574-0.466c0.229,0,0.424,0.048,0.565,0.171L12.404,5.47c-0.096-0.081-0.231-0.11-0.375-0.11
			c-0.184,0-0.277,0.081-0.277,0.195c0,0.09,0.048,0.159,0.21,0.174l0.241,0.021c0.286,0.023,0.454,0.159,0.454,0.43
			C12.656,6.498,12.386,6.663,12.022,6.663z"/>
		<path fill="#40767C" d="M13.45,6.646c-0.286,0-0.417-0.204-0.417-0.424V5.383h-0.175V5.148h0.175V4.686h0.306v0.463h0.295v0.234
			h-0.295v0.824c0,0.11,0.054,0.177,0.168,0.177h0.126v0.262H13.45z"/>
		<path fill="#40767C" d="M14.239,5.972c0,0.262,0.139,0.428,0.388,0.428c0.171,0,0.261-0.049,0.37-0.156l0.195,0.183
			c-0.156,0.156-0.304,0.237-0.571,0.237c-0.382,0-0.685-0.201-0.685-0.781c0-0.493,0.255-0.778,0.646-0.778
			c0.409,0,0.646,0.301,0.646,0.733v0.135H14.239z M14.883,5.552c-0.048-0.114-0.156-0.192-0.301-0.192
			c-0.144,0-0.255,0.078-0.304,0.192c-0.03,0.068-0.036,0.114-0.039,0.207h0.686C14.922,5.666,14.912,5.62,14.883,5.552z"/>
		<path fill="#40767C" d="M16.469,5.479C16.4,5.41,16.346,5.377,16.24,5.377c-0.165,0-0.303,0.132-0.303,0.343v0.926h-0.307V5.121
			h0.3v0.166c0.078-0.108,0.234-0.184,0.406-0.184c0.147,0,0.259,0.039,0.364,0.145L16.469,5.479z"/>
	</g>
</g>
<g>
	<rect x="25" y="2" fill="#4BD6BA" stroke="#43BA9E" stroke-width="0.5" stroke-miterlimit="10" width="20" height="7"/>
	<g enable-background="new    ">
		<path fill="#3B9E84" d="M31.16,6.444c-0.135,0.135-0.331,0.201-0.553,0.201h-0.751V4.505h0.751c0.222,0,0.417,0.066,0.553,0.202
			c0.231,0.231,0.217,0.544,0.217,0.854S31.392,6.213,31.16,6.444z M30.938,4.941c-0.09-0.1-0.21-0.145-0.364-0.145H30.18v1.557
			h0.394c0.153,0,0.273-0.045,0.364-0.144c0.111-0.124,0.114-0.355,0.114-0.649C31.052,5.266,31.05,5.064,30.938,4.941z"/>
		<path fill="#3B9E84" d="M32.043,5.972c0,0.262,0.139,0.428,0.388,0.428c0.171,0,0.261-0.049,0.37-0.156l0.195,0.183
			c-0.156,0.156-0.304,0.237-0.571,0.237c-0.382,0-0.685-0.201-0.685-0.781c0-0.493,0.255-0.778,0.646-0.778
			c0.409,0,0.646,0.301,0.646,0.733v0.135H32.043z M32.687,5.552c-0.048-0.114-0.156-0.192-0.301-0.192
			c-0.144,0-0.255,0.078-0.304,0.192c-0.03,0.068-0.036,0.114-0.039,0.207h0.686C32.726,5.666,32.717,5.62,32.687,5.552z"/>
		<path fill="#3B9E84" d="M33.994,6.646h-0.25l-0.559-1.524h0.325l0.361,1.073l0.357-1.073h0.325L33.994,6.646z"/>
		<path fill="#3B9E84" d="M35.013,5.972c0,0.262,0.139,0.428,0.388,0.428c0.171,0,0.261-0.049,0.37-0.156l0.195,0.183
			c-0.156,0.156-0.304,0.237-0.571,0.237c-0.382,0-0.685-0.201-0.685-0.781c0-0.493,0.255-0.778,0.646-0.778
			c0.409,0,0.646,0.301,0.646,0.733v0.135H35.013z M35.656,5.552c-0.048-0.114-0.156-0.192-0.301-0.192
			c-0.144,0-0.255,0.078-0.304,0.192c-0.03,0.068-0.036,0.114-0.039,0.207h0.686C35.696,5.666,35.686,5.62,35.656,5.552z"/>
		<path fill="#3B9E84" d="M36.814,6.646c-0.292,0-0.418-0.195-0.418-0.421v-1.72h0.307v1.702c0,0.117,0.042,0.177,0.166,0.177h0.135
			v0.262H36.814z"/>
		<path fill="#3B9E84" d="M38.297,6.483c-0.1,0.102-0.25,0.18-0.457,0.18s-0.355-0.078-0.454-0.18
			c-0.144-0.15-0.18-0.343-0.18-0.602c0-0.255,0.036-0.447,0.18-0.598c0.099-0.103,0.247-0.181,0.454-0.181s0.357,0.078,0.457,0.181
			c0.144,0.15,0.18,0.343,0.18,0.598C38.477,6.141,38.441,6.333,38.297,6.483z M38.066,5.464c-0.057-0.057-0.135-0.087-0.226-0.087
			s-0.166,0.03-0.223,0.087c-0.093,0.094-0.105,0.253-0.105,0.418s0.012,0.325,0.105,0.418c0.057,0.057,0.132,0.09,0.223,0.09
			s0.168-0.033,0.226-0.09c0.093-0.093,0.105-0.253,0.105-0.418S38.158,5.558,38.066,5.464z"/>
		<path fill="#3B9E84" d="M39.965,6.528c-0.084,0.084-0.217,0.135-0.37,0.135c-0.162,0-0.289-0.042-0.399-0.174v0.772h-0.307V5.121
			h0.3v0.163c0.114-0.139,0.238-0.181,0.403-0.181c0.153,0,0.289,0.051,0.373,0.135c0.153,0.153,0.171,0.412,0.171,0.644
			S40.118,6.375,39.965,6.528z M39.514,5.377c-0.276,0-0.318,0.234-0.318,0.505s0.042,0.508,0.318,0.508s0.315-0.237,0.315-0.508
			S39.79,5.377,39.514,5.377z"/>
	</g>
</g>
<g>
	<rect x="2" y="-22.062" fill="#62B3CC" stroke="#57A1B2" stroke-width="0.5" stroke-miterlimit="10" width="20" height="7"/>
	<text transform="matrix(1 0 0 1 7.2571 -17.4165)" fill="#40767C" font-family="'DINPro-Medium'" font-size="3">Master</text>
</g>
<g>
	<rect x="25.204" y="-22.062" fill="#FA715E" stroke="#E06255" stroke-width="0.5" stroke-miterlimit="10" width="20" height="7"/>
	<text transform="matrix(1 0 0 1 31.22 -17.4165)" fill="#AA4743" font-family="'DINPro-Medium'" font-size="3">Hotfix</text>
</g>
<g>
	<rect x="48.029" y="-22.062" fill="#4BD6BA" stroke="#43BA9E" stroke-width="0.5" stroke-miterlimit="10" width="20" height="7"/>
	<text transform="matrix(1 0 0 1 52.6042 -17.4165)" fill="#3B9E84" font-family="'DINPro-Medium'" font-size="3">Develop</text>
</g>
<g>
	<rect x="71.027" y="-22.062" fill="#FFD6D3" stroke="#E5C2C1" stroke-width="0.5" stroke-miterlimit="10" width="20" height="7"/>
	<text transform="matrix(1 0 0 1 75.7151 -17.4165)" fill="#AF9595" font-family="'DINPro-Medium'" font-size="3">Feature</text>
</g>
<g>
	<rect x="94.027" y="-22.062" fill="#CC6281" stroke="#B25775" stroke-width="0.5" stroke-miterlimit="10" width="20" height="7"/>
	<text transform="matrix(1 0 0 1 98.6096 -17.4165)" fill="#7C3E56" font-family="'DINPro-Medium'" font-size="3">Release</text>
</g>
<g>
	<rect x="123.661" y="-22.062" fill="#EFAB59" stroke="#D39450" stroke-width="0.5" stroke-miterlimit="10" width="20" height="7"/>
	<text transform="matrix(1 0 0 1 130.5608 -17.4165)" fill="#9E6E3E" font-family="'DINPro-Medium'" font-size="3">Data</text>
</g>
<g>
	<rect x="148.613" y="-22.062" fill="#579663" stroke="#487A50" stroke-width="0.5" stroke-miterlimit="10" width="20" height="7"/>
	<text transform="matrix(1 0 0 1 153.22 -17.4165)" fill="#0E4149" font-family="'DINPro-Medium'" font-size="3">Scheme</text>
</g>
<g>
	<rect x="171.613" y="-22.062" fill="#FCD770" stroke="#E0BD65" stroke-width="0.5" stroke-miterlimit="10" width="20" height="7"/>
	<text transform="matrix(1 0 0 1 177.7854 -17.4165)" fill="#AA8E4F" font-family="'DINPro-Medium'" font-size="3">Patch</text>
</g>
<line fill="none" stroke="#DDDDDD" stroke-width="0.5" stroke-miterlimit="10" x1="14.668" y1="-6.061" x2="76.054" y2="-6.061"/>
</svg>
