<?xml version="1.0" encoding="utf-8"?>
<!-- Generator: Adobe Illustrator 16.0.0, SVG Export Plug-In . SVG Version: 6.00 Build 0)  -->
<!DOCTYPE svg PUBLIC "-//W3C//DTD SVG 1.1//EN" "http://www.w3.org/Graphics/SVG/1.1/DTD/svg11.dtd">
<svg version="1.1" id="Layer_1" xmlns="http://www.w3.org/2000/svg" xmlns:xlink="http://www.w3.org/1999/xlink" x="0px" y="0px"
	 width="127.559px" height="50.01px" viewBox="0 0 127.559 50.01" enable-background="new 0 0 127.559 50.01" xml:space="preserve">
<g id="git_x5F_workflow_x5F_7">
	<path fill="none" stroke="#DDDDDD" stroke-width="0.5" stroke-miterlimit="10" d="M17.536,25.345c0-3.543-2.885-6.428-6.428-6.428
		 M8.584,44.628H27.13"/>
	<path fill="none" stroke="#DDDDDD" stroke-width="0.5" stroke-miterlimit="10" d="M11.109,18.917H2 M17.536,25.345
		c0,3.543,2.885,6.428,6.428,6.428h12.968"/>
	<path fill="none" stroke="#DDDDDD" stroke-width="0.5" stroke-miterlimit="10" d="M5.292,22.208v19.125"/>
	<circle fill="#FFD6D3" stroke="#E5C2C1" stroke-width="0.5" stroke-miterlimit="10" cx="30.423" cy="44.627" r="3.292"/>
	<circle fill="#FFD6D3" stroke="#E5C2C1" stroke-width="0.5" stroke-miterlimit="10" cx="30.423" cy="31.771" r="3.292"/>
	<circle fill="#FFD6D3" stroke="#E5C2C1" stroke-width="0.5" stroke-miterlimit="10" cx="40.222" cy="31.771" r="3.292"/>
	<circle fill="#FFD6D3" stroke="#E5C2C1" stroke-width="0.5" stroke-miterlimit="10" cx="5.292" cy="44.627" r="3.292"/>
	<circle fill="#4BD6BA" stroke="#43BA9E" stroke-width="0.5" stroke-miterlimit="10" cx="5.292" cy="18.916" r="3.292"/>
</g>
<g>
	<rect x="1.93" y="1.897" fill="#4BD6BA" stroke="#43BA9E" stroke-width="0.5" stroke-miterlimit="10" width="20" height="7"/>
	<g>
		<path fill="#3B9E84" d="M8.151,6.341C8.015,6.477,7.82,6.542,7.598,6.542H6.846v-2.14h0.751c0.222,0,0.417,0.066,0.553,0.201
			c0.231,0.231,0.217,0.544,0.217,0.854S8.382,6.11,8.151,6.341z M7.928,4.838c-0.09-0.099-0.21-0.144-0.364-0.144H7.171v1.557
			h0.394c0.153,0,0.273-0.045,0.364-0.145C8.04,5.983,8.043,5.752,8.043,5.458C8.043,5.163,8.04,4.961,7.928,4.838z"/>
		<path fill="#3B9E84" d="M9.033,5.869c0,0.262,0.139,0.427,0.388,0.427c0.171,0,0.261-0.048,0.37-0.156l0.195,0.184
			C9.83,6.479,9.683,6.561,9.415,6.561c-0.382,0-0.685-0.202-0.685-0.782C8.73,5.286,8.986,5,9.376,5c0.409,0,0.646,0.3,0.646,0.733
			v0.135H9.033z M9.677,5.448C9.629,5.334,9.521,5.256,9.376,5.256c-0.144,0-0.255,0.078-0.304,0.192
			c-0.03,0.069-0.036,0.114-0.039,0.208h0.686C9.716,5.562,9.707,5.518,9.677,5.448z"/>
		<path fill="#3B9E84" d="M10.984,6.542h-0.25l-0.559-1.524H10.5l0.361,1.073l0.357-1.073h0.325L10.984,6.542z"/>
		<path fill="#3B9E84" d="M12.003,5.869c0,0.262,0.139,0.427,0.388,0.427c0.171,0,0.261-0.048,0.37-0.156l0.195,0.184
			c-0.156,0.156-0.304,0.237-0.571,0.237c-0.382,0-0.685-0.202-0.685-0.782C11.7,5.286,11.955,5,12.346,5
			c0.409,0,0.646,0.3,0.646,0.733v0.135H12.003z M12.647,5.448c-0.048-0.114-0.156-0.192-0.301-0.192
			c-0.144,0-0.255,0.078-0.304,0.192c-0.03,0.069-0.036,0.114-0.039,0.208h0.686C12.686,5.562,12.677,5.518,12.647,5.448z"/>
		<path fill="#3B9E84" d="M13.804,6.542c-0.292,0-0.418-0.195-0.418-0.421V4.402h0.307v1.701c0,0.117,0.042,0.177,0.166,0.177h0.135
			v0.262H13.804z"/>
		<path fill="#3B9E84" d="M15.287,6.38c-0.1,0.102-0.25,0.18-0.457,0.18s-0.355-0.078-0.454-0.18c-0.144-0.15-0.18-0.343-0.18-0.602
			c0-0.255,0.036-0.448,0.18-0.598C14.475,5.079,14.623,5,14.83,5s0.357,0.078,0.457,0.18c0.144,0.15,0.18,0.343,0.18,0.598
			C15.468,6.038,15.431,6.23,15.287,6.38z M15.056,5.361c-0.057-0.057-0.135-0.087-0.226-0.087s-0.166,0.03-0.223,0.087
			c-0.093,0.093-0.105,0.252-0.105,0.417c0,0.166,0.012,0.325,0.105,0.418c0.057,0.057,0.132,0.09,0.223,0.09
			s0.168-0.033,0.226-0.09c0.093-0.093,0.105-0.252,0.105-0.418C15.161,5.614,15.149,5.454,15.056,5.361z"/>
		<path fill="#3B9E84" d="M16.955,6.425c-0.084,0.084-0.217,0.135-0.37,0.135c-0.162,0-0.289-0.042-0.399-0.174v0.772h-0.307v-2.14
			h0.3v0.162C16.294,5.042,16.417,5,16.582,5c0.153,0,0.289,0.051,0.373,0.135c0.153,0.153,0.171,0.412,0.171,0.643
			S17.109,6.272,16.955,6.425z M16.504,5.274c-0.276,0-0.318,0.234-0.318,0.505s0.042,0.508,0.318,0.508
			c0.277,0,0.316-0.238,0.316-0.508S16.781,5.274,16.504,5.274z"/>
	</g>
</g>
<g>
	<rect x="24.93" y="1.897" fill="#FFD6D3" stroke="#E5C2C1" stroke-width="0.5" stroke-miterlimit="10" width="20" height="7"/>
	<g>
		<path fill="#AF9595" d="M30.318,4.694v0.652h0.89v0.292h-0.89v0.905h-0.324v-2.14h1.368v0.292H30.318z"/>
		<path fill="#AF9595" d="M31.839,5.869c0,0.262,0.139,0.427,0.388,0.427c0.171,0,0.261-0.048,0.37-0.156l0.195,0.184
			c-0.156,0.156-0.304,0.237-0.571,0.237c-0.382,0-0.685-0.202-0.685-0.782C31.535,5.286,31.791,5,32.181,5
			c0.409,0,0.646,0.3,0.646,0.733v0.135H31.839z M32.482,5.448c-0.048-0.114-0.156-0.192-0.301-0.192
			c-0.144,0-0.255,0.078-0.304,0.192c-0.03,0.069-0.036,0.114-0.039,0.208h0.686C32.521,5.562,32.512,5.518,32.482,5.448z"/>
		<path fill="#AF9595" d="M34.051,6.542V6.404c-0.111,0.111-0.216,0.156-0.406,0.156s-0.315-0.045-0.409-0.138
			c-0.078-0.081-0.12-0.199-0.12-0.328c0-0.256,0.177-0.439,0.526-0.439h0.403V5.547c0-0.192-0.096-0.286-0.333-0.286
			c-0.168,0-0.25,0.039-0.334,0.147L33.176,5.22C33.32,5.051,33.47,5,33.723,5c0.418,0,0.628,0.177,0.628,0.523v1.019H34.051z
			 M34.045,5.869h-0.358c-0.18,0-0.273,0.081-0.273,0.219c0,0.139,0.087,0.217,0.28,0.217c0.117,0,0.204-0.009,0.286-0.087
			c0.045-0.045,0.066-0.117,0.066-0.226V5.869z"/>
		<path fill="#AF9595" d="M35.274,6.542c-0.286,0-0.417-0.205-0.417-0.424V5.28h-0.175V5.045h0.175V4.583h0.306v0.463h0.295V5.28
			h-0.295v0.824c0,0.111,0.054,0.177,0.168,0.177h0.126v0.262H35.274z"/>
		<path fill="#AF9595" d="M36.766,6.542V6.389c-0.105,0.114-0.252,0.171-0.406,0.171c-0.156,0-0.285-0.051-0.375-0.138
			c-0.117-0.114-0.153-0.259-0.153-0.43V5.019h0.307v0.929c0,0.237,0.135,0.34,0.307,0.34s0.315-0.105,0.315-0.34V5.019h0.307v1.524
			H36.766z"/>
		<path fill="#AF9595" d="M38.388,5.376c-0.069-0.069-0.123-0.102-0.229-0.102c-0.165,0-0.303,0.132-0.303,0.343v0.926H37.55V5.019
			h0.3v0.165C37.928,5.076,38.085,5,38.256,5c0.147,0,0.259,0.039,0.364,0.144L38.388,5.376z"/>
		<path fill="#AF9595" d="M38.999,5.869c0,0.262,0.139,0.427,0.388,0.427c0.171,0,0.261-0.048,0.37-0.156l0.195,0.184
			c-0.156,0.156-0.304,0.237-0.571,0.237c-0.382,0-0.685-0.202-0.685-0.782C38.696,5.286,38.951,5,39.342,5
			c0.409,0,0.646,0.3,0.646,0.733v0.135H38.999z M39.643,5.448c-0.048-0.114-0.156-0.192-0.301-0.192
			c-0.144,0-0.255,0.078-0.304,0.192c-0.03,0.069-0.036,0.114-0.039,0.208h0.686C39.682,5.562,39.673,5.518,39.643,5.448z"/>
	</g>
</g>
</svg>
