<?xml version="1.0" encoding="utf-8"?>
<!-- Generator: Adobe Illustrator 16.0.0, SVG Export Plug-In . SVG Version: 6.00 Build 0)  -->
<!DOCTYPE svg PUBLIC "-//W3C//DTD SVG 1.1//EN" "http://www.w3.org/Graphics/SVG/1.1/DTD/svg11.dtd">
<svg version="1.1" id="Layer_1" xmlns="http://www.w3.org/2000/svg" xmlns:xlink="http://www.w3.org/1999/xlink" x="0px" y="0px"
	 width="127.559px" height="46.01px" viewBox="0 0 127.559 46.01" enable-background="new 0 0 127.559 46.01" xml:space="preserve">
<g id="git_x5F_workflow_x5F_9">
	<path fill="none" stroke="#DDDDDD" stroke-width="0.5" stroke-miterlimit="10" d="M10.758,33.42h-2.2"/>
	<circle fill="#4BD6BA" stroke="#43BA9E" stroke-width="0.5" stroke-miterlimit="10" cx="5.289" cy="33.404" r="3.348"/>
	<path fill="none" stroke="#DDDDDD" stroke-width="0.5" stroke-miterlimit="10" d="M17.296,26.882c0,3.604-2.938,6.538-6.538,6.538
		 M24.024,20.345h-0.188c-3.604,0-6.537,2.934-6.537,6.537 M43.732,20.345H24.024"/>
	<circle fill="#CC6281" stroke="#B25775" stroke-width="0.5" stroke-miterlimit="10" cx="40.384" cy="20.329" r="3.349"/>
	<circle fill="#CC6281" stroke="#B25775" stroke-width="0.5" stroke-miterlimit="10" cx="30.418" cy="20.329" r="3.349"/>
</g>
<g>
	<rect x="2" y="2" fill="#4BD6BA" stroke="#43BA9E" stroke-width="0.5" stroke-miterlimit="10" width="20" height="7"/>
	<g>
		<path fill="#3B9E84" d="M8.22,6.444C8.085,6.58,7.89,6.646,7.668,6.646H6.916v-2.14h0.751c0.222,0,0.417,0.066,0.553,0.201
			c0.231,0.231,0.217,0.544,0.217,0.854S8.452,6.213,8.22,6.444z M7.998,4.941c-0.09-0.099-0.21-0.144-0.364-0.144H7.24v1.557h0.394
			c0.153,0,0.273-0.045,0.364-0.145C8.11,6.086,8.113,5.855,8.113,5.561C8.113,5.266,8.11,5.064,7.998,4.941z"/>
		<path fill="#3B9E84" d="M9.103,5.972c0,0.262,0.139,0.427,0.388,0.427c0.171,0,0.261-0.048,0.37-0.156l0.195,0.184
			C9.9,6.583,9.753,6.664,9.485,6.664C9.103,6.664,8.8,6.462,8.8,5.882c0-0.493,0.255-0.778,0.646-0.778
			c0.409,0,0.646,0.3,0.646,0.733v0.135H9.103z M9.747,5.551C9.698,5.437,9.591,5.359,9.446,5.359c-0.144,0-0.255,0.078-0.304,0.192
			c-0.03,0.069-0.036,0.114-0.039,0.208h0.686C9.786,5.666,9.777,5.621,9.747,5.551z"/>
		<path fill="#3B9E84" d="M11.054,6.646h-0.25l-0.559-1.524h0.325l0.361,1.073l0.357-1.073h0.325L11.054,6.646z"/>
		<path fill="#3B9E84" d="M12.073,5.972c0,0.262,0.139,0.427,0.388,0.427c0.171,0,0.261-0.048,0.37-0.156l0.195,0.184
			c-0.156,0.156-0.304,0.237-0.571,0.237c-0.382,0-0.685-0.202-0.685-0.782c0-0.493,0.255-0.778,0.646-0.778
			c0.409,0,0.646,0.3,0.646,0.733v0.135H12.073z M12.717,5.551c-0.048-0.114-0.156-0.192-0.301-0.192
			c-0.144,0-0.255,0.078-0.304,0.192c-0.03,0.069-0.036,0.114-0.039,0.208h0.686C12.756,5.666,12.746,5.621,12.717,5.551z"/>
		<path fill="#3B9E84" d="M13.874,6.646c-0.292,0-0.418-0.195-0.418-0.421V4.505h0.307v1.701c0,0.117,0.042,0.177,0.166,0.177h0.135
			v0.262H13.874z"/>
		<path fill="#3B9E84" d="M15.357,6.483c-0.1,0.102-0.25,0.18-0.457,0.18s-0.355-0.078-0.454-0.18
			c-0.144-0.15-0.18-0.343-0.18-0.602c0-0.255,0.036-0.448,0.18-0.598c0.099-0.102,0.247-0.18,0.454-0.18s0.357,0.078,0.457,0.18
			c0.144,0.15,0.18,0.343,0.18,0.598C15.537,6.141,15.501,6.333,15.357,6.483z M15.126,5.464C15.069,5.407,14.99,5.377,14.9,5.377
			s-0.166,0.03-0.223,0.087c-0.093,0.093-0.105,0.252-0.105,0.417c0,0.166,0.012,0.325,0.105,0.418
			c0.057,0.057,0.132,0.09,0.223,0.09s0.168-0.033,0.226-0.09c0.093-0.093,0.105-0.252,0.105-0.418
			C15.231,5.717,15.219,5.557,15.126,5.464z"/>
		<path fill="#3B9E84" d="M17.025,6.528c-0.084,0.084-0.217,0.135-0.37,0.135c-0.162,0-0.289-0.042-0.399-0.174v0.772h-0.307v-2.14
			h0.3v0.162c0.114-0.138,0.238-0.18,0.403-0.18c0.153,0,0.289,0.051,0.373,0.135c0.153,0.153,0.171,0.412,0.171,0.643
			S17.178,6.375,17.025,6.528z M16.574,5.377c-0.276,0-0.318,0.234-0.318,0.505s0.042,0.508,0.318,0.508
			c0.277,0,0.316-0.238,0.316-0.508S16.851,5.377,16.574,5.377z"/>
	</g>
</g>
<g>
	<rect x="24.223" y="2" fill="#CC6281" stroke="#B25775" stroke-width="0.5" stroke-miterlimit="10" width="20" height="7"/>
	<g>
		<path fill="#7C3E56" d="M30.304,6.646l-0.451-0.902h-0.406v0.902h-0.324v-2.14h0.83c0.406,0,0.664,0.261,0.664,0.625
			c0,0.307-0.186,0.502-0.427,0.568l0.493,0.947H30.304z M29.928,4.797h-0.481v0.67h0.481c0.217,0,0.364-0.124,0.364-0.334
			S30.145,4.797,29.928,4.797z"/>
		<path fill="#7C3E56" d="M31.277,5.972c0,0.262,0.139,0.427,0.388,0.427c0.171,0,0.261-0.048,0.37-0.156l0.195,0.184
			c-0.156,0.156-0.304,0.237-0.571,0.237c-0.382,0-0.685-0.202-0.685-0.782c0-0.493,0.255-0.778,0.646-0.778
			c0.409,0,0.646,0.3,0.646,0.733v0.135H31.277z M31.921,5.551c-0.048-0.114-0.156-0.192-0.301-0.192
			c-0.144,0-0.255,0.078-0.304,0.192c-0.03,0.069-0.036,0.114-0.039,0.208h0.686C31.96,5.666,31.95,5.621,31.921,5.551z"/>
		<path fill="#7C3E56" d="M33.078,6.646c-0.292,0-0.418-0.195-0.418-0.421V4.505h0.307v1.701c0,0.117,0.042,0.177,0.166,0.177h0.135
			v0.262H33.078z"/>
		<path fill="#7C3E56" d="M33.752,5.972c0,0.262,0.139,0.427,0.388,0.427c0.171,0,0.261-0.048,0.37-0.156l0.195,0.184
			c-0.156,0.156-0.304,0.237-0.571,0.237c-0.382,0-0.685-0.202-0.685-0.782c0-0.493,0.255-0.778,0.646-0.778
			c0.409,0,0.646,0.3,0.646,0.733v0.135H33.752z M34.396,5.551c-0.048-0.114-0.156-0.192-0.301-0.192
			c-0.144,0-0.255,0.078-0.304,0.192c-0.03,0.069-0.036,0.114-0.039,0.208h0.686C34.435,5.666,34.426,5.621,34.396,5.551z"/>
		<path fill="#7C3E56" d="M35.965,6.646V6.507c-0.111,0.111-0.216,0.156-0.406,0.156s-0.315-0.045-0.409-0.138
			c-0.078-0.081-0.12-0.199-0.12-0.328c0-0.256,0.177-0.439,0.526-0.439h0.403V5.65c0-0.192-0.096-0.286-0.333-0.286
			c-0.168,0-0.25,0.039-0.334,0.147L35.09,5.323c0.144-0.168,0.294-0.219,0.547-0.219c0.418,0,0.628,0.177,0.628,0.523v1.019H35.965
			z M35.959,5.972h-0.358c-0.18,0-0.273,0.081-0.273,0.219c0,0.139,0.087,0.217,0.28,0.217c0.117,0,0.204-0.009,0.286-0.087
			c0.045-0.045,0.066-0.117,0.066-0.226V5.972z"/>
		<path fill="#7C3E56" d="M37.227,6.664c-0.25,0-0.46-0.042-0.64-0.219l0.201-0.202c0.124,0.126,0.289,0.159,0.439,0.159
			c0.187,0,0.334-0.066,0.334-0.21c0-0.102-0.057-0.168-0.205-0.18L37.113,5.99c-0.285-0.024-0.451-0.153-0.451-0.421
			c0-0.297,0.255-0.466,0.574-0.466c0.229,0,0.424,0.048,0.565,0.171L37.609,5.47c-0.096-0.081-0.231-0.111-0.375-0.111
			c-0.184,0-0.277,0.081-0.277,0.195c0,0.09,0.048,0.16,0.21,0.174l0.241,0.021c0.285,0.024,0.454,0.16,0.454,0.43
			C37.861,6.498,37.591,6.664,37.227,6.664z"/>
		<path fill="#7C3E56" d="M38.456,5.972c0,0.262,0.139,0.427,0.388,0.427c0.171,0,0.261-0.048,0.37-0.156l0.195,0.184
			c-0.156,0.156-0.304,0.237-0.571,0.237c-0.382,0-0.685-0.202-0.685-0.782c0-0.493,0.255-0.778,0.646-0.778
			c0.409,0,0.646,0.3,0.646,0.733v0.135H38.456z M39.1,5.551c-0.048-0.114-0.156-0.192-0.301-0.192
			c-0.144,0-0.255,0.078-0.304,0.192c-0.03,0.069-0.036,0.114-0.039,0.208h0.686C39.139,5.666,39.13,5.621,39.1,5.551z"/>
	</g>
</g>
</svg>
