<?xml version="1.0" encoding="utf-8"?>
<!-- Generator: Adobe Illustrator 16.0.4, SVG Export Plug-In . SVG Version: 6.00 Build 0)  -->
<!DOCTYPE svg PUBLIC "-//W3C//DTD SVG 1.1//EN" "http://www.w3.org/Graphics/SVG/1.1/DTD/svg11.dtd">
<svg version="1.1" id="Layer_1" xmlns="http://www.w3.org/2000/svg" xmlns:xlink="http://www.w3.org/1999/xlink" x="0px" y="0px"
	 width="127.559px" height="50.01px" viewBox="0 -15.99 127.559 50.01" enable-background="new 0 -15.99 127.559 50.01"
	 xml:space="preserve">
<g id="git_x5F_workflow_x5F_7">
	<path fill="none" stroke="#404040" stroke-width="0.6" stroke-miterlimit="10" d="M17.641,10.489c0-3.543-2.885-6.428-6.428-6.428
		 M8.689,29.772h18.546"/>
	<circle fill="#4ED1A1" stroke="#404040" stroke-width="0.6" stroke-miterlimit="10" cx="30.528" cy="29.771" r="3.292"/>
	<path fill="none" stroke="#404040" stroke-width="0.6" stroke-miterlimit="10" d="M11.213,4.061H2.105 M17.641,10.489
		c0,3.543,2.885,6.428,6.428,6.428h12.965"/>
	<circle fill="#4ED1A1" stroke="#404040" stroke-width="0.6" stroke-miterlimit="10" cx="30.528" cy="16.916" r="3.292"/>
	<circle fill="#4ED1A1" stroke="#404040" stroke-width="0.6" stroke-miterlimit="10" cx="40.326" cy="16.916" r="3.292"/>
	<circle fill="#4ED1A1" stroke="#404040" stroke-width="0.6" stroke-miterlimit="10" cx="5.397" cy="29.771" r="3.292"/>
	<circle fill="#B18BE8" stroke="#404040" stroke-width="0.6" stroke-miterlimit="10" cx="5.397" cy="4.06" r="3.292"/>
	<path fill="none" stroke="#404040" stroke-width="0.6" stroke-miterlimit="10" d="M5.397,7.353v19.126"/>
</g>
<path fill="#B18BE8" stroke="#404040" stroke-width="0.6" stroke-linecap="round" stroke-linejoin="round" stroke-miterlimit="10" d="
	M2.105-12.856h15.117V-5H2.105V-12.856z"/>
<path fill="#404040" d="M5.315-7.984v-1.667h0.58c0.425,0,0.802,0.284,0.802,0.834c0,0.551-0.377,0.833-0.802,0.833H5.315z
	 M5.88-8.189c0.31,0,0.563-0.204,0.563-0.628c0-0.426-0.254-0.63-0.563-0.63H5.533v1.258H5.88z M8.079-8.315
	C8.013-8.111,7.825-7.954,7.578-7.954c-0.301,0-0.569-0.22-0.569-0.613c0-0.359,0.253-0.596,0.532-0.596
	c0.347,0,0.554,0.236,0.554,0.596v0.08H7.247c0,0.202,0.155,0.345,0.347,0.345c0.185,0,0.279-0.093,0.31-0.235L8.079-8.315z
	 M7.856-8.676c0-0.158-0.107-0.285-0.316-0.285c-0.186,0-0.294,0.144-0.31,0.285H7.856z M9.038-7.984H8.815L8.343-9.116h0.256
	l0.324,0.881l0.332-0.881h0.238L9.038-7.984z M10.714-8.315c-0.062,0.204-0.248,0.361-0.502,0.361c-0.295,0-0.562-0.22-0.562-0.613
	c0-0.359,0.252-0.596,0.547-0.596c0.348,0,0.551,0.236,0.551,0.596v0.08H9.901c0,0.202,0.156,0.345,0.342,0.345
	c0.191,0,0.285-0.093,0.316-0.235L10.714-8.315z M10.497-8.676c0-0.158-0.109-0.285-0.314-0.285c-0.188,0-0.295,0.144-0.312,0.285
	H10.497z M11.124-7.984v-1.714h0.223v1.714H11.124z M12.915-8.552c0,0.347-0.234,0.598-0.58,0.598c-0.348,0-0.58-0.251-0.58-0.598
	c0-0.344,0.232-0.596,0.58-0.596C12.667-9.163,12.915-8.895,12.915-8.552z M12.681-8.552c0-0.266-0.16-0.409-0.346-0.409
	s-0.348,0.144-0.348,0.409c0,0.267,0.162,0.409,0.348,0.409S12.681-8.3,12.681-8.552z M13.308-7.545v-1.571h0.223v0.174
	c0.062-0.111,0.186-0.205,0.373-0.205c0.348,0,0.523,0.268,0.523,0.596c0,0.332-0.191,0.598-0.539,0.598
	c-0.172,0-0.311-0.077-0.357-0.188v0.598H13.308z M13.858-8.942c-0.203,0-0.328,0.171-0.328,0.391c0,0.236,0.141,0.409,0.328,0.409
	c0.205,0,0.33-0.173,0.33-0.409C14.204-8.787,14.079-8.942,13.858-8.942z"/>
<path fill="#4ED1A1" stroke="#404040" stroke-width="0.6" stroke-linecap="round" stroke-linejoin="round" stroke-miterlimit="10" d="
	M20.221-12.856h15.111V-5H20.221V-12.856z"/>
<path fill="#404040" d="M23.756-8.064v-1.665h1.02v0.22h-0.785v0.534H24.7v0.219h-0.709v0.708h-0.234V-8.064z M26.065-8.393
	c-0.061,0.204-0.252,0.362-0.502,0.362C25.264-8.031,25-8.251,25-8.645c0-0.361,0.248-0.598,0.549-0.598
	c0.346,0,0.549,0.236,0.549,0.598v0.078h-0.85c0,0.205,0.154,0.348,0.348,0.348c0.186,0,0.283-0.096,0.314-0.236L26.065-8.393z
	 M25.829-8.757c0-0.154-0.109-0.281-0.311-0.281c-0.193,0-0.301,0.143-0.316,0.281H25.829z M26.739-8.706l0.316-0.051
	c0.062-0.015,0.094-0.046,0.094-0.077c0-0.108-0.078-0.204-0.25-0.204c-0.16,0-0.238,0.096-0.254,0.235l-0.201-0.046
	c0.031-0.221,0.217-0.363,0.471-0.363c0.348,0,0.473,0.189,0.473,0.409v0.567c0,0.093,0.014,0.155,0.014,0.187H27.18
	c0-0.031-0.016-0.078-0.016-0.156c-0.047,0.078-0.156,0.188-0.359,0.188c-0.236,0-0.377-0.157-0.377-0.346
	C26.397-8.567,26.538-8.692,26.739-8.706z M27.133-8.552v-0.046l-0.342,0.046c-0.1,0.016-0.162,0.064-0.162,0.174
	c0,0.078,0.078,0.158,0.193,0.158C26.993-8.219,27.133-8.3,27.133-8.552z M28.106-9.196h0.254v0.205h-0.254v0.598
	c0,0.108,0.051,0.158,0.16,0.158c0.031,0,0.062,0,0.094-0.016v0.187c-0.018,0-0.078,0.016-0.156,0.016
	c-0.191,0-0.314-0.125-0.314-0.329v-0.629h-0.225v-0.205h0.068c0.125,0,0.172-0.077,0.172-0.17v-0.189h0.201V-9.196z M29.176-8.031
	c-0.268,0-0.424-0.204-0.424-0.456v-0.709h0.219v0.676c0,0.158,0.076,0.301,0.254,0.301c0.17,0,0.264-0.127,0.264-0.285v-0.674
	h0.223v0.928c0,0.093,0,0.171,0.014,0.202h-0.201c0-0.031-0.02-0.094-0.02-0.141C29.458-8.08,29.317-8.031,29.176-8.031z
	 M30.856-8.975h-0.094c-0.188,0-0.311,0.096-0.311,0.347v0.564h-0.223v-1.132h0.223v0.205c0.076-0.172,0.217-0.221,0.342-0.221
	h0.076v0.236H30.856z M32.174-8.393c-0.062,0.204-0.248,0.362-0.502,0.362c-0.295,0-0.564-0.22-0.564-0.614
	c0-0.361,0.254-0.598,0.549-0.598c0.348,0,0.549,0.236,0.549,0.598v0.078h-0.844c0,0.205,0.156,0.348,0.342,0.348
	c0.191,0,0.285-0.096,0.314-0.236L32.174-8.393z M31.958-8.757c0-0.154-0.109-0.281-0.316-0.281c-0.188,0-0.295,0.143-0.316,0.281
	H31.958z"/>
</svg>
