<?xml version="1.0" encoding="utf-8"?>
<!-- Generator: Adobe Illustrator 16.0.0, SVG Export Plug-In . SVG Version: 6.00 Build 0)  -->
<!DOCTYPE svg PUBLIC "-//W3C//DTD SVG 1.1//EN" "http://www.w3.org/Graphics/SVG/1.1/DTD/svg11.dtd">
<svg version="1.1" id="Layer_1" xmlns="http://www.w3.org/2000/svg" xmlns:xlink="http://www.w3.org/1999/xlink" x="0px" y="0px"
	 width="232.167px" height="109.34px" viewBox="0 0 232.167 109.34" enable-background="new 0 0 232.167 109.34"
	 xml:space="preserve">
<path fill="none" stroke="#404040" stroke-width="0.6" stroke-miterlimit="10" d="M145.753,66.846h-4.146l0,0"/>
<path fill="none" stroke="#DDDDDD" stroke-width="0.5" stroke-miterlimit="10" d="M202.098,40.771H9.297l0,0"/>
<g>
	<path id="repo1_65_" fill="#579663" stroke="#487A50" stroke-width="0.5" stroke-miterlimit="10" d="M141.569,101.082
		c0-0.645,1.472-1.168,3.285-1.168s3.287,0.521,3.287,1.168 M141.569,101.082v1.455c0,0.158,0.089,0.311,0.244,0.443
		c0.49,0.428,1.67,0.725,3.041,0.725c1.377,0,2.554-0.301,3.043-0.725c0.156-0.135,0.244-0.285,0.244-0.443v-1.455"/>
	<path fill="#579663" stroke="#487A50" stroke-width="0.5" stroke-miterlimit="10" d="M148.141,101.082
		c0,0.646-1.474,1.168-3.287,1.168s-3.285-0.52-3.285-1.168c0-0.645,1.472-1.168,3.285-1.168
		C146.669,99.914,148.141,100.438,148.141,101.082z"/>
	<path id="repo1_64_" fill="#579663" stroke="#487A50" stroke-width="0.5" stroke-miterlimit="10" d="M141.569,99.627
		c0-0.645,1.472-1.17,3.285-1.17s3.287,0.523,3.287,1.17 M141.569,99.627v1.455c0,0.156,0.089,0.309,0.244,0.443
		c0.49,0.428,1.67,0.725,3.041,0.725c1.377,0,2.554-0.303,3.043-0.725c0.156-0.137,0.244-0.287,0.244-0.443v-1.455"/>
	<path fill="#579663" stroke="#487A50" stroke-width="0.5" stroke-miterlimit="10" d="M148.141,99.627
		c0,0.646-1.474,1.168-3.287,1.168s-3.285-0.52-3.285-1.168c0-0.645,1.472-1.17,3.285-1.17
		C146.669,98.457,148.141,98.982,148.141,99.627z"/>
	<path id="repo1_63_" fill="#579663" stroke="#487A50" stroke-width="0.5" stroke-miterlimit="10" d="M141.569,98.172
		c0-0.646,1.472-1.17,3.285-1.17s3.287,0.521,3.287,1.17 M141.569,98.172v1.455c0,0.156,0.089,0.309,0.244,0.443
		c0.49,0.428,1.67,0.725,3.041,0.725c1.377,0,2.554-0.303,3.043-0.725c0.156-0.137,0.244-0.287,0.244-0.443v-1.455"/>
	<path fill="#579663" stroke="#487A50" stroke-width="0.5" stroke-miterlimit="10" d="M148.141,98.172
		c0,0.646-1.474,1.17-3.287,1.17s-3.285-0.523-3.285-1.17s1.472-1.17,3.285-1.17C146.669,97.002,148.141,97.525,148.141,98.172z"/>
	<path id="repo1_62_" fill="#579663" stroke="#487A50" stroke-width="0.5" stroke-miterlimit="10" d="M141.569,96.717
		c0-0.646,1.472-1.17,3.285-1.17s3.287,0.521,3.287,1.17 M141.569,96.717v1.455c0,0.154,0.089,0.309,0.244,0.443
		c0.49,0.426,1.67,0.727,3.041,0.727c1.377,0,2.554-0.305,3.043-0.727c0.156-0.137,0.244-0.289,0.244-0.443v-1.455"/>
	<path fill="#579663" stroke="#487A50" stroke-width="0.5" stroke-miterlimit="10" d="M148.141,96.717
		c0,0.646-1.474,1.168-3.287,1.168s-3.285-0.521-3.285-1.168c0-0.646,1.472-1.17,3.285-1.17
		C146.669,95.547,148.141,96.07,148.141,96.717z"/>
</g>
<g>
	<path id="repo1_61_" fill="#EFAB59" stroke="#D39450" stroke-width="0.5" stroke-miterlimit="10" d="M141.569,87.926
		c0-0.646,1.472-1.168,3.285-1.168s3.287,0.521,3.287,1.168 M141.569,87.926v1.453c0,0.158,0.089,0.311,0.244,0.443
		c0.49,0.428,1.67,0.725,3.041,0.725c1.377,0,2.554-0.301,3.043-0.725c0.156-0.135,0.244-0.285,0.244-0.443v-1.453"/>
	<path fill="#EFAB59" stroke="#D39450" stroke-width="0.5" stroke-miterlimit="10" d="M148.141,87.926
		c0,0.646-1.474,1.168-3.287,1.168s-3.285-0.521-3.285-1.168c0-0.646,1.472-1.168,3.285-1.168
		C146.669,86.758,148.141,87.279,148.141,87.926z"/>
	<path id="repo1_60_" fill="#EFAB59" stroke="#D39450" stroke-width="0.5" stroke-miterlimit="10" d="M141.569,86.471
		c0-0.646,1.472-1.17,3.285-1.17s3.287,0.521,3.287,1.17 M141.569,86.471v1.455c0,0.154,0.089,0.307,0.244,0.441
		c0.49,0.428,1.67,0.727,3.041,0.727c1.377,0,2.554-0.305,3.043-0.727c0.156-0.137,0.244-0.287,0.244-0.441v-1.455"/>
	<path fill="#EFAB59" stroke="#D39450" stroke-width="0.5" stroke-miterlimit="10" d="M148.141,86.471
		c0,0.646-1.474,1.168-3.287,1.168s-3.285-0.521-3.285-1.168c0-0.646,1.472-1.17,3.285-1.17
		C146.669,85.301,148.141,85.824,148.141,86.471z"/>
	<path id="repo1_59_" fill="#EFAB59" stroke="#D39450" stroke-width="0.5" stroke-miterlimit="10" d="M141.569,85.016
		c0-0.646,1.472-1.17,3.285-1.17s3.287,0.521,3.287,1.17 M141.569,85.016v1.455c0,0.154,0.089,0.307,0.244,0.441
		c0.49,0.43,1.67,0.727,3.041,0.727c1.377,0,2.554-0.305,3.043-0.727c0.156-0.137,0.244-0.287,0.244-0.441v-1.455"/>
	<path fill="#EFAB59" stroke="#D39450" stroke-width="0.5" stroke-miterlimit="10" d="M148.141,85.016
		c0,0.646-1.474,1.168-3.287,1.168s-3.285-0.521-3.285-1.168c0-0.646,1.472-1.17,3.285-1.17
		C146.669,83.846,148.141,84.367,148.141,85.016z"/>
	<path id="repo1_58_" fill="#EFAB59" stroke="#D39450" stroke-width="0.5" stroke-miterlimit="10" d="M141.569,83.559
		c0-0.646,1.472-1.168,3.285-1.168s3.287,0.521,3.287,1.168 M141.569,83.559v1.457c0,0.152,0.089,0.309,0.244,0.441
		c0.49,0.428,1.67,0.727,3.041,0.727c1.377,0,2.554-0.305,3.043-0.727c0.156-0.137,0.244-0.289,0.244-0.441v-1.457"/>
	<path fill="#EFAB59" stroke="#D39450" stroke-width="0.5" stroke-miterlimit="10" d="M148.141,83.559
		c0,0.646-1.474,1.168-3.287,1.168s-3.285-0.521-3.285-1.168c0-0.646,1.472-1.168,3.285-1.168
		C146.669,82.391,148.141,82.912,148.141,83.559z"/>
</g>
<g enable-background="new    ">
	<path fill="#404040" d="M141.932,72.678c-0.005-0.015-0.007-0.027-0.007-0.043c0-0.064,0.055-0.13,0.127-0.13
		c0.053,0,0.103,0.03,0.123,0.085l0.272,0.818l0.253-0.815c0.018-0.053,0.067-0.088,0.119-0.088c0.068,0,0.133,0.056,0.133,0.13
		c0,0.013-0.002,0.028-0.007,0.04l-0.355,1.047c-0.021,0.06-0.075,0.103-0.14,0.103c-0.065,0-0.123-0.056-0.139-0.098
		L141.932,72.678z"/>
	<path fill="#404040" d="M143.453,72.348l-0.225,0.13c-0.021,0.013-0.051,0.022-0.073,0.022c-0.069,0-0.122-0.055-0.122-0.123
		c0-0.045,0.021-0.085,0.064-0.109l0.396-0.228c0.022-0.013,0.048-0.021,0.073-0.021c0.08,0,0.145,0.065,0.145,0.146v1.528
		c0,0.073-0.058,0.131-0.127,0.131c-0.073,0-0.131-0.058-0.131-0.131V72.348z"/>
	<path fill="#404040" d="M144.037,73.656c0-0.088,0.073-0.16,0.164-0.16c0.087,0,0.16,0.072,0.16,0.16
		c0,0.09-0.073,0.162-0.16,0.162C144.11,73.818,144.037,73.746,144.037,73.656z"/>
	<path fill="#404040" d="M144.663,73.799c-0.08,0-0.146-0.065-0.146-0.146c0-0.032,0.013-0.067,0.033-0.092l0.631-0.759
		c0.072-0.088,0.104-0.168,0.104-0.275c0-0.147-0.095-0.27-0.258-0.27c-0.108,0-0.188,0.015-0.296,0.069
		c-0.02,0.011-0.039,0.021-0.064,0.021c-0.064,0-0.125-0.051-0.125-0.118c0-0.045,0.025-0.09,0.07-0.112
		c0.152-0.08,0.275-0.098,0.415-0.098c0.149,0,0.28,0.05,0.372,0.146c0.096,0.095,0.144,0.225,0.144,0.375
		c0,0.195-0.093,0.315-0.175,0.423c-0.043,0.055-0.32,0.383-0.491,0.591h0.556c0.072,0,0.127,0.053,0.127,0.12
		c0,0.072-0.055,0.125-0.127,0.125H144.663z"/>
	<path fill="#404040" d="M145.775,73.656c0-0.088,0.072-0.16,0.162-0.16c0.088,0,0.16,0.072,0.16,0.16
		c0,0.09-0.072,0.162-0.16,0.162C145.847,73.818,145.775,73.746,145.775,73.656z"/>
	<path fill="#404040" d="M147.484,73.248c0,0.168-0.056,0.313-0.158,0.416c-0.105,0.104-0.25,0.16-0.418,0.16
		s-0.311-0.056-0.416-0.16c-0.102-0.103-0.157-0.248-0.157-0.416v-0.653c0-0.17,0.056-0.312,0.157-0.415
		c0.105-0.105,0.248-0.16,0.416-0.16s0.312,0.055,0.416,0.158c0.104,0.104,0.16,0.247,0.16,0.417V73.248z M147.226,72.572
		c0-0.202-0.118-0.314-0.318-0.314s-0.315,0.112-0.315,0.314v0.698c0,0.2,0.115,0.315,0.315,0.315s0.318-0.115,0.318-0.315V72.572z"
		/>
</g>
<circle fill="#4BD6BA" stroke="#43BA9E" stroke-width="0.5" stroke-miterlimit="10" cx="125.348" cy="40.771" r="3.348"/>
<path fill="none" stroke="#DDDDDD" stroke-width="0.5" stroke-miterlimit="10" d="M144.848,79.977v-2.58 M146.048,79.023l-1.2,1.188
	l-1.188-1.188"/>
<g>
	
		<line fill="none" stroke="#DDDDDD" stroke-width="0.5" stroke-miterlimit="10" x1="144.856" y1="92.164" x2="144.856" y2="93.934"/>
	
		<line fill="none" stroke="#DDDDDD" stroke-width="0.5" stroke-miterlimit="10" x1="143.971" y1="93.121" x2="145.739" y2="93.121"/>
</g>
<g>
	<path fill="none" stroke="#DDDDDD" stroke-width="0.5" stroke-miterlimit="10" d="M128.533,40.771c3.604,0,6.536,2.934,6.536,6.538
		v12.953c0,3.604,2.937,6.535,6.537,6.535"/>
</g>
<g enable-background="new    ">
	<path fill="#404040" d="M202.369,6.562c-0.09,0-0.162-0.072-0.162-0.16V4.969c0-0.088,0.072-0.16,0.162-0.16h0.33
		c0.411,0,0.689,0.272,0.689,0.681v0.393c0,0.408-0.278,0.681-0.689,0.681H202.369z M203.123,5.484c0-0.266-0.152-0.424-0.421-0.424
		h-0.229V6.31h0.229c0.269,0,0.421-0.16,0.421-0.423V5.484z"/>
	<path fill="#404040" d="M204.605,6.37c0,0.069-0.045,0.13-0.11,0.152c-0.122,0.043-0.265,0.065-0.405,0.065
		c-0.152,0-0.273-0.038-0.357-0.11c-0.086-0.072-0.131-0.175-0.131-0.298s0.045-0.218,0.131-0.288
		c0.084-0.072,0.205-0.11,0.357-0.11h0.258V5.694c0-0.105-0.078-0.188-0.208-0.188c-0.118,0-0.183,0.015-0.271,0.067
		c-0.02,0.013-0.047,0.022-0.07,0.022c-0.066,0-0.122-0.05-0.122-0.112c0-0.046,0.021-0.091,0.062-0.115
		c0.136-0.078,0.253-0.101,0.433-0.101c0.281,0,0.434,0.203,0.434,0.426V6.37z M204.347,6.02h-0.258c-0.218,0-0.23,0.117-0.23,0.16
		c0,0.045,0.013,0.17,0.23,0.17c0.085,0,0.178-0.013,0.258-0.032V6.02z"/>
	<path fill="#404040" d="M204.909,4.913c0-0.072,0.058-0.13,0.13-0.13c0.07,0,0.128,0.058,0.128,0.13v0.381h0.243
		c0.072,0,0.129,0.053,0.129,0.122c0,0.075-0.055,0.125-0.129,0.125h-0.243v0.653c0,0.096,0.05,0.155,0.114,0.155
		c0.073,0,0.086-0.02,0.133-0.02c0.062,0,0.125,0.045,0.125,0.12c0,0.062-0.047,0.109-0.109,0.122
		c-0.051,0.01-0.098,0.016-0.148,0.016c-0.205,0-0.372-0.16-0.372-0.391V4.913z"/>
	<path fill="#404040" d="M206.7,6.37c0,0.069-0.046,0.13-0.11,0.152c-0.123,0.043-0.266,0.065-0.405,0.065
		c-0.153,0-0.272-0.038-0.358-0.11c-0.084-0.072-0.129-0.175-0.129-0.298s0.045-0.218,0.129-0.288
		c0.086-0.072,0.205-0.11,0.358-0.11h0.258V5.694c0-0.105-0.077-0.188-0.208-0.188c-0.117,0-0.183,0.015-0.27,0.067
		c-0.021,0.013-0.049,0.022-0.07,0.022c-0.068,0-0.123-0.05-0.123-0.112c0-0.046,0.02-0.091,0.062-0.115
		c0.135-0.078,0.253-0.101,0.434-0.101c0.279,0,0.433,0.203,0.433,0.426V6.37z M206.442,6.02h-0.258c-0.218,0-0.23,0.117-0.23,0.16
		c0,0.045,0.013,0.17,0.23,0.17c0.085,0,0.178-0.013,0.258-0.032V6.02z"/>
</g>
<g>
	<path id="repo1_36_" fill="#EFAB59" stroke="#D39450" stroke-width="0.5" stroke-miterlimit="10" d="M192.735,6.993
		c0-0.646,1.474-1.168,3.288-1.168c1.816,0,3.287,0.521,3.287,1.168 M192.735,6.993v1.455c0,0.158,0.089,0.309,0.246,0.443
		c0.489,0.428,1.671,0.725,3.042,0.725c1.377,0,2.551-0.301,3.043-0.725c0.156-0.135,0.244-0.285,0.244-0.443V6.993"/>
	<path fill="#EFAB59" stroke="#D39450" stroke-width="0.5" stroke-miterlimit="10" d="M199.31,6.993
		c0,0.646-1.471,1.168-3.287,1.168c-1.814,0-3.288-0.521-3.288-1.168s1.474-1.168,3.288-1.168
		C197.839,5.825,199.31,6.347,199.31,6.993z"/>
	<path id="repo1_35_" fill="#EFAB59" stroke="#D39450" stroke-width="0.5" stroke-miterlimit="10" d="M192.735,5.538
		c0-0.646,1.474-1.17,3.288-1.17c1.816,0,3.287,0.523,3.287,1.17 M192.735,5.538v1.455c0,0.156,0.089,0.307,0.246,0.443
		c0.489,0.428,1.671,0.725,3.042,0.725c1.377,0,2.551-0.303,3.043-0.725c0.156-0.137,0.244-0.287,0.244-0.443V5.538"/>
	<path fill="#EFAB59" stroke="#D39450" stroke-width="0.5" stroke-miterlimit="10" d="M199.31,5.538
		c0,0.646-1.471,1.168-3.287,1.168c-1.814,0-3.288-0.521-3.288-1.168s1.474-1.17,3.288-1.17
		C197.839,4.368,199.31,4.892,199.31,5.538z"/>
	<path id="repo1_34_" fill="#EFAB59" stroke="#D39450" stroke-width="0.5" stroke-miterlimit="10" d="M192.735,4.083
		c0-0.648,1.474-1.17,3.288-1.17c1.816,0,3.287,0.521,3.287,1.17 M192.735,4.083v1.455c0,0.156,0.089,0.307,0.246,0.443
		c0.489,0.428,1.671,0.725,3.042,0.725c1.377,0,2.551-0.303,3.043-0.725c0.156-0.137,0.244-0.287,0.244-0.443V4.083"/>
	<path fill="#EFAB59" stroke="#D39450" stroke-width="0.5" stroke-miterlimit="10" d="M199.31,4.083
		c0,0.645-1.471,1.168-3.287,1.168c-1.814,0-3.288-0.523-3.288-1.168c0-0.648,1.474-1.17,3.288-1.17
		C197.839,2.913,199.31,3.435,199.31,4.083z"/>
	<path id="repo1_32_" fill="#EFAB59" stroke="#D39450" stroke-width="0.5" stroke-miterlimit="10" d="M192.735,2.625
		c0-0.646,1.472-1.168,3.288-1.168s3.287,0.521,3.287,1.168 M192.735,2.625v1.457c0,0.154,0.089,0.307,0.246,0.443
		c0.489,0.426,1.671,0.725,3.042,0.725c1.377,0,2.551-0.303,3.043-0.725c0.156-0.137,0.244-0.289,0.244-0.443V2.625"/>
	<path fill="#EFAB59" stroke="#D39450" stroke-width="0.5" stroke-miterlimit="10" d="M199.31,2.625
		c0,0.646-1.471,1.168-3.287,1.168c-1.814,0-3.288-0.521-3.288-1.168s1.472-1.168,3.288-1.168S199.31,1.979,199.31,2.625z"/>
</g>
<g enable-background="new    ">
	<path fill="#404040" d="M179.628,5.694c-0.195-0.085-0.295-0.238-0.295-0.433c0-0.298,0.279-0.479,0.564-0.479
		c0.139,0,0.283,0.025,0.414,0.083c0.052,0.022,0.098,0.058,0.098,0.127c0,0.065-0.056,0.12-0.126,0.12
		c-0.015,0-0.03-0.002-0.048-0.01c-0.06-0.022-0.146-0.075-0.35-0.075c-0.123,0-0.285,0.05-0.285,0.221
		c0,0.117,0.057,0.17,0.157,0.215l0.285,0.125c0.19,0.083,0.37,0.2,0.37,0.468c0,0.303-0.217,0.531-0.555,0.531
		c-0.148,0-0.318-0.04-0.448-0.096c-0.048-0.02-0.077-0.062-0.077-0.117c0-0.07,0.045-0.128,0.119-0.128
		c0.033,0,0.059,0.008,0.08,0.018c0.104,0.045,0.208,0.077,0.326,0.077c0.18,0,0.287-0.087,0.287-0.252
		c0-0.125-0.105-0.213-0.217-0.263L179.628,5.694z"/>
	<path fill="#404040" d="M180.605,5.77c0-0.146,0.048-0.271,0.139-0.36c0.092-0.093,0.217-0.141,0.362-0.141
		c0.122,0,0.24,0.027,0.348,0.08c0.048,0.022,0.073,0.067,0.073,0.115c0,0.062-0.053,0.118-0.123,0.118
		c-0.023,0-0.043-0.008-0.061-0.016c-0.072-0.032-0.154-0.06-0.237-0.06c-0.153,0-0.243,0.09-0.243,0.242v0.355
		c0,0.155,0.09,0.243,0.243,0.243c0.083,0,0.173-0.028,0.245-0.062c0.018-0.011,0.035-0.013,0.055-0.013
		c0.062,0,0.121,0.05,0.121,0.12c0,0.047-0.028,0.093-0.076,0.115c-0.107,0.052-0.223,0.08-0.345,0.08
		c-0.146,0-0.271-0.048-0.362-0.141c-0.091-0.09-0.139-0.215-0.139-0.362V5.77z"/>
	<path fill="#404040" d="M182.496,5.749c0-0.152-0.09-0.242-0.244-0.242c-0.088,0-0.174,0.032-0.243,0.09v0.86
		c0,0.073-0.058,0.131-0.128,0.131c-0.072,0-0.13-0.058-0.13-0.131V4.913c0-0.072,0.058-0.13,0.13-0.13
		c0.07,0,0.128,0.058,0.128,0.13v0.421c0.077-0.035,0.178-0.065,0.261-0.065c0.146,0,0.254,0.043,0.348,0.136
		c0.09,0.09,0.137,0.22,0.137,0.365v0.688c0,0.073-0.057,0.131-0.129,0.131c-0.073,0-0.129-0.058-0.129-0.131V5.749z"/>
	<path fill="#404040" d="M183.271,6.05c0,0.103,0.018,0.17,0.05,0.215c0.042,0.055,0.107,0.085,0.192,0.085
		c0.096,0,0.186-0.027,0.271-0.064c0.018-0.008,0.035-0.013,0.053-0.013c0.062,0,0.122,0.053,0.122,0.117
		c0,0.048-0.02,0.09-0.064,0.112c-0.12,0.058-0.248,0.086-0.381,0.086c-0.145,0-0.27-0.048-0.363-0.141
		c-0.09-0.09-0.137-0.215-0.137-0.362V5.77c0-0.146,0.047-0.271,0.137-0.36c0.094-0.093,0.219-0.141,0.363-0.141
		c0.148,0,0.273,0.048,0.363,0.141c0.09,0.09,0.141,0.215,0.141,0.36v0.117c0,0.09-0.073,0.163-0.163,0.163H183.271z M183.759,5.812
		c0-0.207-0.086-0.305-0.246-0.305c-0.157,0-0.242,0.095-0.242,0.305H183.759z"/>
	<path fill="#404040" d="M185.662,5.722c0-0.117-0.098-0.215-0.215-0.215c-0.078,0-0.152,0.024-0.215,0.064v0.886
		c0,0.073-0.059,0.131-0.131,0.131c-0.07,0-0.127-0.058-0.127-0.131V5.689c0-0.146-0.096-0.183-0.205-0.183
		c-0.09,0-0.146,0.012-0.226,0.034v0.916c0,0.073-0.058,0.131-0.128,0.131c-0.072,0-0.13-0.058-0.13-0.131V5.494
		c0-0.067,0.042-0.128,0.104-0.152c0.131-0.051,0.258-0.073,0.403-0.073c0.12,0,0.226,0.038,0.303,0.103
		c0.103-0.067,0.226-0.103,0.351-0.103c0.27,0,0.473,0.203,0.473,0.474v0.715c0,0.073-0.057,0.131-0.13,0.131
		s-0.128-0.058-0.128-0.131V5.722z"/>
	<path fill="#404040" d="M187.16,6.37c0,0.069-0.046,0.13-0.111,0.152c-0.122,0.043-0.265,0.065-0.404,0.065
		c-0.153,0-0.273-0.038-0.358-0.11s-0.13-0.175-0.13-0.298s0.045-0.218,0.13-0.288c0.085-0.072,0.205-0.11,0.358-0.11h0.258V5.694
		c0-0.105-0.078-0.188-0.209-0.188c-0.117,0-0.182,0.015-0.27,0.067c-0.02,0.013-0.047,0.022-0.07,0.022
		c-0.067,0-0.123-0.05-0.123-0.112c0-0.046,0.021-0.091,0.062-0.115c0.136-0.078,0.254-0.101,0.434-0.101
		c0.28,0,0.434,0.203,0.434,0.426V6.37z M186.902,6.02h-0.258c-0.219,0-0.23,0.117-0.23,0.16c0,0.045,0.012,0.17,0.23,0.17
		c0.084,0,0.178-0.013,0.258-0.032V6.02z"/>
</g>
<g>
	<path id="repo1_40_" fill="#579663" stroke="#487A50" stroke-width="0.5" stroke-miterlimit="10" d="M169.934,6.993
		c0-0.646,1.471-1.168,3.285-1.168c1.815,0,3.286,0.521,3.286,1.168 M169.934,6.993v1.455c0,0.158,0.088,0.309,0.244,0.443
		c0.489,0.428,1.67,0.725,3.041,0.725c1.377,0,2.553-0.301,3.043-0.725c0.155-0.135,0.243-0.285,0.243-0.443V6.993"/>
	<path fill="#579663" stroke="#487A50" stroke-width="0.5" stroke-miterlimit="10" d="M176.507,6.993
		c0,0.646-1.471,1.168-3.286,1.168c-1.816,0-3.287-0.521-3.287-1.168s1.471-1.168,3.287-1.168
		C175.037,5.825,176.507,6.347,176.507,6.993z"/>
	<path id="repo1_39_" fill="#579663" stroke="#487A50" stroke-width="0.5" stroke-miterlimit="10" d="M169.934,5.538
		c0-0.646,1.471-1.17,3.285-1.17c1.815,0,3.286,0.523,3.286,1.17 M169.934,5.538v1.455c0,0.156,0.088,0.307,0.244,0.443
		c0.489,0.428,1.67,0.725,3.041,0.725c1.377,0,2.553-0.303,3.043-0.725c0.155-0.137,0.243-0.287,0.243-0.443V5.538"/>
	<path fill="#579663" stroke="#487A50" stroke-width="0.5" stroke-miterlimit="10" d="M176.507,5.538
		c0,0.646-1.471,1.168-3.286,1.168c-1.816,0-3.287-0.521-3.287-1.168s1.471-1.17,3.287-1.17
		C175.037,4.368,176.507,4.892,176.507,5.538z"/>
	<path id="repo1_38_" fill="#579663" stroke="#487A50" stroke-width="0.5" stroke-miterlimit="10" d="M169.934,4.083
		c0-0.648,1.471-1.17,3.285-1.17c1.815,0,3.286,0.521,3.286,1.17 M169.934,4.083v1.455c0,0.156,0.088,0.307,0.244,0.443
		c0.489,0.428,1.67,0.725,3.041,0.725c1.377,0,2.553-0.303,3.043-0.725c0.155-0.137,0.243-0.287,0.243-0.443V4.083"/>
	<path fill="#579663" stroke="#487A50" stroke-width="0.5" stroke-miterlimit="10" d="M176.507,4.083
		c0,0.645-1.471,1.168-3.286,1.168c-1.816,0-3.287-0.523-3.287-1.168c0-0.648,1.471-1.17,3.287-1.17
		C175.037,2.913,176.507,3.435,176.507,4.083z"/>
	<path id="repo1_37_" fill="#579663" stroke="#487A50" stroke-width="0.5" stroke-miterlimit="10" d="M169.934,2.625
		c0-0.646,1.471-1.168,3.287-1.168c1.815,0,3.286,0.521,3.286,1.168 M169.934,2.625v1.457c0,0.154,0.088,0.307,0.244,0.443
		c0.489,0.426,1.67,0.725,3.041,0.725c1.377,0,2.553-0.303,3.043-0.725c0.155-0.137,0.243-0.289,0.243-0.443V2.625"/>
	<path fill="#579663" stroke="#487A50" stroke-width="0.5" stroke-miterlimit="10" d="M176.507,2.625
		c0,0.646-1.471,1.168-3.286,1.168c-1.816,0-3.287-0.521-3.287-1.168s1.471-1.168,3.287-1.168
		C175.037,1.457,176.507,1.979,176.507,2.625z"/>
</g>
<g>
	<path id="repo1_30_" fill="#FCD770" stroke="#E0BD65" stroke-width="0.5" stroke-miterlimit="10" d="M160.819,27.415
		c0-0.646,1.472-1.168,3.287-1.168c1.817,0,3.289,0.521,3.289,1.168 M160.819,27.415v1.457c0,0.154,0.089,0.307,0.246,0.443
		c0.488,0.426,1.67,0.725,3.041,0.725c1.379,0,2.554-0.303,3.045-0.725c0.156-0.137,0.244-0.289,0.244-0.443v-1.457"/>
	<path fill="#FCD770" stroke="#E0BD65" stroke-width="0.5" stroke-miterlimit="10" d="M167.395,27.415
		c0,0.646-1.472,1.168-3.289,1.168c-1.815,0-3.287-0.521-3.287-1.168s1.472-1.168,3.287-1.168
		C165.923,26.247,167.395,26.769,167.395,27.415z"/>
</g>
<g enable-background="new    ">
	<path fill="#404040" d="M221.318,5.096c0-0.088,0.072-0.16,0.162-0.16h0.418c0.312,0,0.531,0.215,0.531,0.535
		c0,0.315-0.211,0.523-0.531,0.523h-0.314v0.588c0,0.072-0.062,0.133-0.133,0.133c-0.072,0-0.133-0.061-0.133-0.133V5.096z
		 M221.898,5.741c0.125,0,0.266-0.053,0.266-0.271c0-0.175-0.093-0.283-0.266-0.283h-0.314v0.554H221.898z"/>
	<path fill="#404040" d="M223.556,6.497c0,0.069-0.045,0.13-0.11,0.152c-0.122,0.043-0.265,0.065-0.405,0.065
		c-0.152,0-0.273-0.038-0.357-0.11c-0.086-0.072-0.131-0.175-0.131-0.298s0.045-0.218,0.131-0.288
		c0.084-0.072,0.205-0.11,0.357-0.11h0.258V5.821c0-0.105-0.078-0.188-0.208-0.188c-0.118,0-0.183,0.015-0.271,0.067
		c-0.02,0.013-0.047,0.022-0.07,0.022c-0.066,0-0.122-0.05-0.122-0.112c0-0.046,0.021-0.091,0.062-0.115
		c0.136-0.078,0.253-0.101,0.433-0.101c0.281,0,0.434,0.203,0.434,0.426V6.497z M223.298,6.146h-0.258
		c-0.218,0-0.23,0.117-0.23,0.16c0,0.045,0.013,0.17,0.23,0.17c0.085,0,0.178-0.013,0.258-0.032V6.146z"/>
	<path fill="#404040" d="M223.861,5.04c0-0.072,0.057-0.13,0.129-0.13c0.07,0,0.129,0.058,0.129,0.13v0.381h0.242
		c0.072,0,0.13,0.053,0.13,0.122c0,0.075-0.055,0.125-0.13,0.125h-0.242v0.653c0,0.096,0.049,0.155,0.115,0.155
		c0.072,0,0.084-0.02,0.132-0.02c0.062,0,0.125,0.045,0.125,0.12c0,0.062-0.048,0.109-0.11,0.122
		c-0.05,0.01-0.098,0.016-0.146,0.016c-0.206,0-0.373-0.16-0.373-0.391V5.04z"/>
	<path fill="#404040" d="M224.67,5.896c0-0.146,0.048-0.271,0.138-0.36c0.092-0.093,0.217-0.141,0.363-0.141
		c0.122,0,0.24,0.027,0.348,0.08c0.047,0.022,0.072,0.067,0.072,0.115c0,0.062-0.053,0.118-0.123,0.118
		c-0.022,0-0.043-0.008-0.061-0.016c-0.072-0.032-0.154-0.06-0.236-0.06c-0.153,0-0.244,0.09-0.244,0.242v0.355
		c0,0.155,0.091,0.243,0.244,0.243c0.082,0,0.172-0.028,0.244-0.062c0.018-0.011,0.035-0.013,0.056-0.013
		c0.062,0,0.12,0.05,0.12,0.12c0,0.047-0.027,0.093-0.075,0.115c-0.108,0.052-0.223,0.08-0.345,0.08
		c-0.146,0-0.271-0.048-0.363-0.141c-0.09-0.09-0.138-0.215-0.138-0.362V5.896z"/>
	<path fill="#404040" d="M226.56,5.876c0-0.152-0.09-0.242-0.244-0.242c-0.088,0-0.174,0.032-0.243,0.09v0.86
		c0,0.073-0.058,0.131-0.128,0.131c-0.072,0-0.13-0.058-0.13-0.131V5.04c0-0.072,0.058-0.13,0.13-0.13
		c0.07,0,0.128,0.058,0.128,0.13v0.421c0.077-0.035,0.178-0.065,0.261-0.065c0.146,0,0.254,0.043,0.348,0.136
		c0.09,0.09,0.137,0.22,0.137,0.365v0.688c0,0.073-0.057,0.131-0.129,0.131c-0.073,0-0.129-0.058-0.129-0.131V5.876z"/>
</g>
<circle fill="#4BD6BA" stroke="#43BA9E" stroke-width="0.5" stroke-miterlimit="10" cx="153.453" cy="40.692" r="3.348"/>
<circle fill="#4BD6BA" stroke="#43BA9E" stroke-width="0.5" stroke-miterlimit="10" cx="164.171" cy="40.692" r="3.348"/>
<g>
	<path id="repo1_41_" fill="#FCD770" stroke="#E0BD65" stroke-width="0.5" stroke-miterlimit="10" d="M212.33,4.935
		c0-0.646,1.471-1.168,3.285-1.168c1.816,0,3.287,0.521,3.287,1.168 M212.33,4.935v1.457c0,0.154,0.088,0.307,0.244,0.443
		c0.488,0.426,1.672,0.725,3.041,0.725c1.377,0,2.553-0.303,3.043-0.725c0.156-0.137,0.244-0.289,0.244-0.443V4.935"/>
	<path fill="#FCD770" stroke="#E0BD65" stroke-width="0.5" stroke-miterlimit="10" d="M218.904,4.935
		c0,0.646-1.471,1.168-3.287,1.168c-1.812,0-3.285-0.521-3.285-1.168s1.473-1.168,3.285-1.168
		C217.433,3.767,218.904,4.289,218.904,4.935z"/>
</g>
<path fill="none" stroke="#DDDDDD" stroke-width="0.5" stroke-miterlimit="10" d="M164.114,32.502v2.58 M162.912,33.455l1.202-1.188
	l1.189,1.188"/>
<g enable-background="new    ">
	<path fill="#404040" d="M160.043,22.389c0-0.07,0.045-0.133,0.11-0.152c0.125-0.04,0.255-0.065,0.391-0.065
		c0.146,0,0.271,0.048,0.362,0.141c0.091,0.09,0.14,0.215,0.14,0.36v0.315c0,0.147-0.047,0.277-0.137,0.367
		c-0.09,0.093-0.201,0.136-0.348,0.136c-0.083,0-0.184-0.03-0.261-0.065v0.468c0,0.072-0.058,0.13-0.128,0.13
		c-0.072,0-0.13-0.058-0.13-0.13V22.389z M160.789,22.651c0-0.152-0.09-0.242-0.244-0.242c-0.083,0-0.163,0.01-0.243,0.029v0.726
		c0.069,0.058,0.152,0.088,0.243,0.088c0.154,0,0.244-0.088,0.244-0.242V22.651z"/>
	<path fill="#404040" d="M162.265,23.272c0,0.069-0.046,0.13-0.111,0.152c-0.122,0.043-0.265,0.065-0.404,0.065
		c-0.153,0-0.273-0.038-0.358-0.11s-0.13-0.175-0.13-0.298s0.045-0.218,0.13-0.288c0.085-0.072,0.205-0.11,0.358-0.11h0.258v-0.087
		c0-0.105-0.078-0.188-0.209-0.188c-0.117,0-0.182,0.015-0.27,0.067c-0.02,0.013-0.047,0.022-0.07,0.022
		c-0.067,0-0.123-0.05-0.123-0.112c0-0.046,0.021-0.091,0.062-0.115c0.136-0.078,0.254-0.101,0.434-0.101
		c0.28,0,0.434,0.203,0.434,0.426V23.272z M162.007,22.922h-0.258c-0.219,0-0.23,0.117-0.23,0.16c0,0.045,0.012,0.17,0.23,0.17
		c0.084,0,0.178-0.013,0.258-0.032V22.922z"/>
	<path fill="#404040" d="M162.568,21.815c0-0.072,0.059-0.13,0.131-0.13c0.07,0,0.127,0.058,0.127,0.13v0.381h0.243
		c0.073,0,0.13,0.053,0.13,0.122c0,0.075-0.055,0.125-0.13,0.125h-0.243v0.653c0,0.096,0.051,0.155,0.115,0.155
		c0.072,0,0.086-0.02,0.133-0.02c0.062,0,0.125,0.045,0.125,0.12c0,0.062-0.047,0.109-0.109,0.122
		c-0.051,0.01-0.098,0.016-0.148,0.016c-0.205,0-0.373-0.16-0.373-0.391V21.815z"/>
	<path fill="#404040" d="M163.378,22.672c0-0.146,0.047-0.271,0.137-0.36c0.094-0.093,0.219-0.141,0.363-0.141
		c0.123,0,0.24,0.027,0.348,0.08c0.048,0.022,0.073,0.067,0.073,0.115c0,0.062-0.053,0.118-0.122,0.118
		c-0.023,0-0.043-0.008-0.061-0.016c-0.072-0.032-0.155-0.06-0.238-0.06c-0.152,0-0.242,0.09-0.242,0.242v0.355
		c0,0.155,0.09,0.243,0.242,0.243c0.083,0,0.173-0.028,0.246-0.062c0.018-0.011,0.035-0.013,0.055-0.013
		c0.062,0,0.12,0.05,0.12,0.12c0,0.047-0.028,0.093-0.075,0.115c-0.107,0.052-0.223,0.08-0.346,0.08
		c-0.145,0-0.27-0.048-0.363-0.141c-0.09-0.09-0.137-0.215-0.137-0.362V22.672z"/>
	<path fill="#404040" d="M165.269,22.651c0-0.152-0.09-0.242-0.245-0.242c-0.087,0-0.173,0.032-0.243,0.09v0.86
		c0,0.073-0.057,0.131-0.127,0.131c-0.072,0-0.131-0.058-0.131-0.131v-1.544c0-0.072,0.059-0.13,0.131-0.13
		c0.07,0,0.127,0.058,0.127,0.13v0.421c0.078-0.035,0.178-0.065,0.261-0.065c0.147,0,0.255,0.043,0.348,0.136
		c0.091,0.09,0.138,0.22,0.138,0.365v0.688c0,0.073-0.058,0.131-0.131,0.131c-0.072,0-0.127-0.058-0.127-0.131V22.651z"/>
	<path fill="#404040" d="M165.928,22.842c-0.067,0-0.12-0.055-0.12-0.123c0-0.064,0.05-0.122,0.12-0.122h0.583
		c0.067,0,0.123,0.055,0.123,0.122c0,0.068-0.056,0.123-0.123,0.123H165.928z"/>
	<path fill="#404040" d="M167.724,23.104v0.258c0,0.072-0.058,0.128-0.131,0.128c-0.069,0-0.127-0.056-0.127-0.128v-0.258h-0.496
		c-0.077,0-0.145-0.055-0.145-0.138c0-0.015,0.002-0.032,0.01-0.05l0.426-1.146c0.02-0.053,0.067-0.085,0.125-0.085
		c0.067,0,0.12,0.058,0.12,0.13c0,0.016-0.003,0.03-0.007,0.045l-0.379,0.999h0.346v-0.25c0-0.073,0.058-0.131,0.127-0.131
		c0.073,0,0.131,0.058,0.131,0.131v0.25h0.15c0.07,0,0.125,0.053,0.125,0.122c0,0.07-0.055,0.123-0.125,0.123H167.724z"/>
</g>
<g>
	<path id="repo1_1_" fill="#FCD770" stroke="#E0BD65" stroke-width="0.5" stroke-miterlimit="10" d="M180.653,27.415
		c0-0.646,1.472-1.168,3.287-1.168c1.817,0,3.289,0.521,3.289,1.168 M180.653,27.415v1.457c0,0.154,0.089,0.307,0.246,0.443
		c0.488,0.426,1.67,0.725,3.041,0.725c1.379,0,2.554-0.303,3.045-0.725c0.156-0.137,0.244-0.289,0.244-0.443v-1.457"/>
	<path fill="#FCD770" stroke="#E0BD65" stroke-width="0.5" stroke-miterlimit="10" d="M187.229,27.415
		c0,0.646-1.472,1.168-3.289,1.168c-1.815,0-3.287-0.521-3.287-1.168s1.472-1.168,3.287-1.168
		C185.757,26.247,187.229,26.769,187.229,27.415z"/>
</g>
<path fill="none" stroke="#DDDDDD" stroke-width="0.5" stroke-miterlimit="10" d="M183.949,32.502v2.58 M182.746,33.455l1.203-1.188
	l1.188,1.188"/>
<g enable-background="new    ">
	<path fill="#404040" d="M179.876,22.389c0-0.07,0.045-0.133,0.109-0.152c0.126-0.04,0.256-0.065,0.391-0.065
		c0.148,0,0.273,0.048,0.363,0.141c0.09,0.09,0.141,0.215,0.141,0.36v0.315c0,0.147-0.048,0.277-0.139,0.367
		c-0.09,0.093-0.199,0.136-0.348,0.136c-0.082,0-0.182-0.03-0.26-0.065v0.468c0,0.072-0.058,0.13-0.128,0.13
		c-0.072,0-0.13-0.058-0.13-0.13V22.389z M180.623,22.651c0-0.152-0.09-0.242-0.246-0.242c-0.082,0-0.162,0.01-0.242,0.029v0.726
		c0.07,0.058,0.152,0.088,0.242,0.088c0.156,0,0.246-0.088,0.246-0.242V22.651z"/>
	<path fill="#404040" d="M182.097,23.272c0,0.069-0.045,0.13-0.109,0.152c-0.123,0.043-0.266,0.065-0.406,0.065
		c-0.152,0-0.272-0.038-0.357-0.11s-0.131-0.175-0.131-0.298s0.046-0.218,0.131-0.288c0.085-0.072,0.205-0.11,0.357-0.11h0.258
		v-0.087c0-0.105-0.077-0.188-0.207-0.188c-0.117,0-0.184,0.015-0.271,0.067c-0.021,0.013-0.048,0.022-0.07,0.022
		c-0.067,0-0.122-0.05-0.122-0.112c0-0.046,0.02-0.091,0.062-0.115c0.135-0.078,0.252-0.101,0.433-0.101
		c0.28,0,0.433,0.203,0.433,0.426V23.272z M181.839,22.922h-0.258c-0.217,0-0.23,0.117-0.23,0.16c0,0.045,0.014,0.17,0.23,0.17
		c0.086,0,0.178-0.013,0.258-0.032V22.922z"/>
	<path fill="#404040" d="M182.402,21.815c0-0.072,0.057-0.13,0.129-0.13c0.07,0,0.129,0.058,0.129,0.13v0.381h0.242
		c0.072,0,0.13,0.053,0.13,0.122c0,0.075-0.055,0.125-0.13,0.125h-0.242v0.653c0,0.096,0.049,0.155,0.115,0.155
		c0.072,0,0.084-0.02,0.132-0.02c0.062,0,0.125,0.045,0.125,0.12c0,0.062-0.048,0.109-0.11,0.122
		c-0.05,0.01-0.098,0.016-0.146,0.016c-0.206,0-0.373-0.16-0.373-0.391V21.815z"/>
	<path fill="#404040" d="M183.211,22.672c0-0.146,0.048-0.271,0.138-0.36c0.092-0.093,0.217-0.141,0.363-0.141
		c0.122,0,0.24,0.027,0.348,0.08c0.047,0.022,0.072,0.067,0.072,0.115c0,0.062-0.053,0.118-0.123,0.118
		c-0.022,0-0.043-0.008-0.061-0.016c-0.072-0.032-0.154-0.06-0.236-0.06c-0.153,0-0.244,0.09-0.244,0.242v0.355
		c0,0.155,0.091,0.243,0.244,0.243c0.082,0,0.172-0.028,0.244-0.062c0.018-0.011,0.035-0.013,0.056-0.013
		c0.062,0,0.12,0.05,0.12,0.12c0,0.047-0.027,0.093-0.075,0.115c-0.108,0.052-0.223,0.08-0.345,0.08
		c-0.146,0-0.271-0.048-0.363-0.141c-0.09-0.09-0.138-0.215-0.138-0.362V22.672z"/>
	<path fill="#404040" d="M185.102,22.651c0-0.152-0.09-0.242-0.245-0.242c-0.088,0-0.173,0.032-0.242,0.09v0.86
		c0,0.073-0.059,0.131-0.129,0.131c-0.072,0-0.129-0.058-0.129-0.131v-1.544c0-0.072,0.057-0.13,0.129-0.13
		c0.07,0,0.129,0.058,0.129,0.13v0.421c0.077-0.035,0.178-0.065,0.26-0.065c0.147,0,0.256,0.043,0.348,0.136
		c0.09,0.09,0.138,0.22,0.138,0.365v0.688c0,0.073-0.058,0.131-0.13,0.131s-0.128-0.058-0.128-0.131V22.651z"/>
	<path fill="#404040" d="M185.761,22.842c-0.068,0-0.12-0.055-0.12-0.123c0-0.064,0.05-0.122,0.12-0.122h0.583
		c0.067,0,0.122,0.055,0.122,0.122c0,0.068-0.055,0.123-0.122,0.123H185.761z"/>
	<path fill="#404040" d="M187.773,22.954c0,0.296-0.24,0.536-0.536,0.536c-0.163,0-0.3-0.033-0.429-0.096
		c-0.047-0.022-0.072-0.062-0.072-0.109c0-0.068,0.055-0.123,0.128-0.123c0.021,0,0.042,0.008,0.06,0.018
		c0.094,0.05,0.191,0.072,0.313,0.072c0.152,0,0.274-0.145,0.274-0.298v-0.082c0-0.153-0.122-0.298-0.274-0.298
		c-0.091,0-0.183,0.022-0.263,0.064c-0.02,0.011-0.045,0.018-0.068,0.018c-0.08,0-0.145-0.064-0.145-0.145v-0.641
		c0-0.088,0.072-0.16,0.16-0.16h0.678c0.068,0,0.123,0.055,0.123,0.122c0,0.065-0.053,0.123-0.123,0.123h-0.58v0.41
		c0.07-0.02,0.145-0.03,0.218-0.03c0.296,0,0.536,0.24,0.536,0.536V22.954z"/>
</g>
<path fill="none" stroke="#DDDDDD" stroke-width="0.5" stroke-miterlimit="10" d="M161.178,53.885c-3.604,0-6.539,2.932-6.539,6.533
	 M148.102,66.877c3.604,0,6.537-2.934,6.537-6.537"/>
<circle fill="#4BD6BA" stroke="#43BA9E" stroke-width="0.5" stroke-miterlimit="10" cx="183.878" cy="40.811" r="3.349"/>
<circle fill="#1B7C99" stroke="#176C7F" stroke-width="0.5" stroke-miterlimit="10" cx="164.108" cy="53.885" r="3.348"/>
<circle fill="#62B3CC" stroke="#57A1B2" stroke-width="0.5" stroke-miterlimit="10" cx="144.854" cy="66.846" r="3.248"/>
<path fill="none" stroke="#DDDDDD" stroke-width="0.5" stroke-miterlimit="10" d="M173.994,60.418c0-3.604-2.935-6.533-6.537-6.533"
	/>
<path fill="none" stroke="#DDDDDD" stroke-width="0.5" stroke-miterlimit="10" d="M173.994,60.418c0,3.605,2.937,6.537,6.536,6.537"
	/>
<line fill="none" stroke="#DDDDDD" stroke-width="0.5" stroke-miterlimit="10" x1="148.102" y1="66.877" x2="221.705" y2="66.877"/>
<g enable-background="new    ">
	<path fill="#404040" d="M180.96,72.769c-0.005-0.015-0.008-0.027-0.008-0.043c0-0.064,0.055-0.13,0.128-0.13
		c0.053,0,0.103,0.03,0.122,0.085l0.273,0.818l0.252-0.815c0.018-0.053,0.068-0.088,0.121-0.088c0.067,0,0.133,0.056,0.133,0.13
		c0,0.013-0.003,0.028-0.008,0.04l-0.355,1.047c-0.02,0.06-0.075,0.103-0.141,0.103c-0.064,0-0.122-0.056-0.137-0.098L180.96,72.769
		z"/>
	<path fill="#404040" d="M182.481,72.438l-0.226,0.13c-0.02,0.013-0.049,0.022-0.072,0.022c-0.07,0-0.123-0.055-0.123-0.123
		c0-0.045,0.023-0.085,0.066-0.109l0.395-0.228c0.022-0.013,0.048-0.021,0.072-0.021c0.08,0,0.146,0.065,0.146,0.146v1.528
		c0,0.073-0.058,0.131-0.128,0.131c-0.072,0-0.13-0.058-0.13-0.131V72.438z"/>
	<path fill="#404040" d="M183.066,73.747c0-0.088,0.072-0.16,0.162-0.16c0.088,0,0.16,0.072,0.16,0.16
		c0,0.09-0.072,0.162-0.16,0.162C183.138,73.909,183.066,73.837,183.066,73.747z"/>
	<path fill="#404040" d="M183.691,73.89c-0.08,0-0.146-0.065-0.146-0.146c0-0.032,0.013-0.067,0.032-0.092l0.631-0.759
		c0.072-0.088,0.105-0.168,0.105-0.275c0-0.147-0.096-0.27-0.258-0.27c-0.107,0-0.188,0.015-0.295,0.069
		c-0.021,0.011-0.041,0.021-0.065,0.021c-0.065,0-0.125-0.051-0.125-0.118c0-0.045,0.024-0.09,0.069-0.112
		c0.153-0.08,0.275-0.098,0.416-0.098c0.15,0,0.28,0.05,0.373,0.146c0.095,0.095,0.143,0.225,0.143,0.375
		c0,0.195-0.093,0.315-0.176,0.423c-0.042,0.055-0.32,0.383-0.49,0.591h0.556c0.073,0,0.128,0.053,0.128,0.12
		c0,0.072-0.055,0.125-0.128,0.125H183.691z"/>
	<path fill="#404040" d="M184.802,73.747c0-0.088,0.073-0.16,0.164-0.16c0.087,0,0.16,0.072,0.16,0.16
		c0,0.09-0.073,0.162-0.16,0.162C184.875,73.909,184.802,73.837,184.802,73.747z"/>
	<path fill="#404040" d="M185.605,72.438l-0.225,0.13c-0.02,0.013-0.051,0.022-0.072,0.022c-0.07,0-0.123-0.055-0.123-0.123
		c0-0.045,0.022-0.085,0.064-0.109l0.396-0.228c0.021-0.013,0.047-0.021,0.072-0.021c0.08,0,0.145,0.065,0.145,0.146v1.528
		c0,0.073-0.057,0.131-0.127,0.131c-0.072,0-0.131-0.058-0.131-0.131V72.438z"/>
</g>
<path fill="none" stroke="#DDDDDD" stroke-width="0.5" stroke-miterlimit="10" d="M180.53,40.891c-3.604,0-6.536,2.932-6.536,6.535
	 M167.457,53.885c3.604,0,6.537-2.935,6.537-6.538"/>
<path fill="none" stroke="#404040" stroke-width="0.6" stroke-miterlimit="10" d="M48.354,67.031h-4.146l0,0"/>
<path fill="none" stroke="#DDDDDD" stroke-width="0.5" stroke-miterlimit="10" d="M141.606,66.951H44.207l0,0"/>
<circle fill="#62B3CC" stroke="#57A1B2" stroke-width="0.5" stroke-miterlimit="10" cx="47.453" cy="67.031" r="3.248"/>
<g>
	<path id="repo1_19_" fill="#579663" stroke="#487A50" stroke-width="0.5" stroke-miterlimit="10" d="M44.168,101.27
		c0-0.646,1.471-1.168,3.285-1.168c1.816,0,3.287,0.521,3.287,1.168 M44.168,101.27v1.455c0,0.158,0.088,0.311,0.244,0.443
		c0.49,0.428,1.67,0.725,3.041,0.725c1.377,0,2.553-0.301,3.043-0.725c0.156-0.135,0.244-0.285,0.244-0.443v-1.455"/>
	<path fill="#579663" stroke="#487A50" stroke-width="0.5" stroke-miterlimit="10" d="M50.74,101.27
		c0,0.646-1.471,1.168-3.287,1.168c-1.814,0-3.285-0.521-3.285-1.168c0-0.646,1.471-1.168,3.285-1.168
		C49.27,100.102,50.74,100.623,50.74,101.27z"/>
	<path id="repo1_18_" fill="#579663" stroke="#487A50" stroke-width="0.5" stroke-miterlimit="10" d="M44.168,99.814
		c0-0.646,1.471-1.17,3.285-1.17c1.816,0,3.287,0.521,3.287,1.17 M44.168,99.814v1.455c0,0.154,0.088,0.307,0.244,0.441
		c0.49,0.43,1.67,0.727,3.041,0.727c1.377,0,2.553-0.305,3.043-0.727c0.156-0.137,0.244-0.287,0.244-0.441v-1.455"/>
	<path fill="#579663" stroke="#487A50" stroke-width="0.5" stroke-miterlimit="10" d="M50.74,99.814
		c0,0.646-1.471,1.168-3.287,1.168c-1.814,0-3.285-0.521-3.285-1.168c0-0.647,1.471-1.17,3.285-1.17
		C49.27,98.645,50.74,99.168,50.74,99.814z"/>
	<path id="repo1_17_" fill="#579663" stroke="#487A50" stroke-width="0.5" stroke-miterlimit="10" d="M44.168,98.359
		c0-0.648,1.471-1.17,3.285-1.17c1.816,0,3.287,0.521,3.287,1.17 M44.168,98.359v1.455c0,0.156,0.088,0.307,0.244,0.441
		c0.49,0.43,1.67,0.727,3.041,0.727c1.377,0,2.553-0.303,3.043-0.727c0.156-0.137,0.244-0.285,0.244-0.441v-1.455"/>
	<path fill="#579663" stroke="#487A50" stroke-width="0.5" stroke-miterlimit="10" d="M50.74,98.359
		c0,0.645-1.471,1.168-3.287,1.168c-1.814,0-3.285-0.523-3.285-1.168c0-0.648,1.471-1.17,3.285-1.17
		C49.27,97.189,50.74,97.711,50.74,98.359z"/>
	<path id="repo1_16_" fill="#579663" stroke="#487A50" stroke-width="0.5" stroke-miterlimit="10" d="M44.168,96.902
		c0-0.646,1.471-1.168,3.285-1.168c1.816,0,3.287,0.521,3.287,1.168 M44.168,96.902v1.457c0,0.154,0.088,0.307,0.244,0.441
		c0.49,0.428,1.67,0.727,3.041,0.727c1.377,0,2.553-0.303,3.043-0.727c0.156-0.137,0.244-0.287,0.244-0.441v-1.457"/>
	<path fill="#579663" stroke="#487A50" stroke-width="0.5" stroke-miterlimit="10" d="M50.74,96.902
		c0,0.646-1.471,1.168-3.287,1.168c-1.814,0-3.285-0.521-3.285-1.168c0-0.647,1.471-1.168,3.285-1.168
		C49.27,95.734,50.74,96.256,50.74,96.902z"/>
</g>
<g>
	<path id="repo1_15_" fill="#EFAB59" stroke="#D39450" stroke-width="0.5" stroke-miterlimit="10" d="M44.168,88.111
		c0-0.646,1.471-1.168,3.285-1.168c1.816,0,3.287,0.521,3.287,1.168 M44.168,88.111v1.455c0,0.158,0.088,0.309,0.244,0.441
		c0.49,0.43,1.67,0.727,3.041,0.727c1.377,0,2.553-0.301,3.043-0.727c0.156-0.135,0.244-0.283,0.244-0.441v-1.455"/>
	<path fill="#EFAB59" stroke="#D39450" stroke-width="0.5" stroke-miterlimit="10" d="M50.74,88.111
		c0,0.646-1.471,1.168-3.287,1.168c-1.814,0-3.285-0.521-3.285-1.168c0-0.647,1.471-1.168,3.285-1.168
		C49.27,86.943,50.74,87.465,50.74,88.111z"/>
	<path id="repo1_14_" fill="#EFAB59" stroke="#D39450" stroke-width="0.5" stroke-miterlimit="10" d="M44.168,86.656
		c0-0.646,1.471-1.17,3.285-1.17c1.816,0,3.287,0.521,3.287,1.17 M44.168,86.656v1.455c0,0.156,0.088,0.307,0.244,0.443
		c0.49,0.428,1.67,0.725,3.041,0.725c1.377,0,2.553-0.303,3.043-0.725c0.156-0.139,0.244-0.287,0.244-0.443v-1.455"/>
	<path fill="#EFAB59" stroke="#D39450" stroke-width="0.5" stroke-miterlimit="10" d="M50.74,86.656
		c0,0.646-1.471,1.168-3.287,1.168c-1.814,0-3.285-0.52-3.285-1.168c0-0.646,1.471-1.17,3.285-1.17
		C49.27,85.486,50.74,86.01,50.74,86.656z"/>
	<path id="repo1_13_" fill="#EFAB59" stroke="#D39450" stroke-width="0.5" stroke-miterlimit="10" d="M44.168,85.201
		c0-0.646,1.471-1.17,3.285-1.17c1.816,0,3.287,0.521,3.287,1.17 M44.168,85.201v1.455c0,0.156,0.088,0.307,0.244,0.443
		c0.49,0.428,1.67,0.725,3.041,0.725c1.377,0,2.553-0.303,3.043-0.725c0.156-0.139,0.244-0.287,0.244-0.443v-1.455"/>
	<path fill="#EFAB59" stroke="#D39450" stroke-width="0.5" stroke-miterlimit="10" d="M50.74,85.201
		c0,0.646-1.471,1.168-3.287,1.168c-1.814,0-3.285-0.521-3.285-1.168s1.471-1.17,3.285-1.17C49.27,84.031,50.74,84.553,50.74,85.201
		z"/>
	<path id="repo1_12_" fill="#EFAB59" stroke="#D39450" stroke-width="0.5" stroke-miterlimit="10" d="M44.168,83.744
		c0-0.645,1.471-1.168,3.285-1.168c1.816,0,3.287,0.521,3.287,1.168 M44.168,83.744v1.457c0,0.154,0.088,0.307,0.244,0.443
		c0.49,0.426,1.67,0.725,3.041,0.725c1.377,0,2.553-0.303,3.043-0.725c0.156-0.139,0.244-0.289,0.244-0.443v-1.457"/>
	<path fill="#EFAB59" stroke="#D39450" stroke-width="0.5" stroke-miterlimit="10" d="M50.74,83.744
		c0,0.646-1.471,1.168-3.287,1.168c-1.814,0-3.285-0.52-3.285-1.168c0-0.646,1.471-1.168,3.285-1.168
		C49.27,82.576,50.74,83.098,50.74,83.744z"/>
</g>
<g enable-background="new    ">
	<path fill="#404040" d="M44.534,72.862c-0.005-0.015-0.007-0.027-0.007-0.043c0-0.064,0.055-0.13,0.127-0.13
		c0.053,0,0.103,0.03,0.123,0.085l0.273,0.818l0.252-0.815c0.018-0.053,0.068-0.088,0.12-0.088c0.068,0,0.133,0.056,0.133,0.13
		c0,0.013-0.002,0.028-0.007,0.04l-0.355,1.047c-0.02,0.06-0.075,0.103-0.14,0.103s-0.123-0.056-0.138-0.098L44.534,72.862z"/>
	<path fill="#404040" d="M46.054,72.532l-0.225,0.13c-0.02,0.013-0.05,0.022-0.073,0.022c-0.07,0-0.123-0.055-0.123-0.123
		c0-0.045,0.022-0.085,0.065-0.109l0.395-0.228c0.022-0.013,0.048-0.021,0.073-0.021c0.08,0,0.145,0.065,0.145,0.146v1.528
		c0,0.073-0.058,0.131-0.127,0.131c-0.073,0-0.13-0.058-0.13-0.131V72.532z"/>
	<path fill="#404040" d="M46.639,73.841c0-0.088,0.073-0.16,0.163-0.16c0.087,0,0.16,0.072,0.16,0.16c0,0.09-0.073,0.162-0.16,0.162
		C46.711,74.003,46.639,73.931,46.639,73.841z"/>
	<path fill="#404040" d="M48.348,73.433c0,0.168-0.055,0.313-0.158,0.416c-0.105,0.104-0.25,0.16-0.418,0.16s-0.31-0.056-0.416-0.16
		c-0.103-0.103-0.158-0.248-0.158-0.416v-0.653c0-0.17,0.055-0.312,0.158-0.415c0.105-0.105,0.248-0.16,0.416-0.16
		s0.313,0.055,0.416,0.158c0.105,0.104,0.16,0.247,0.16,0.417V73.433z M48.09,72.757c0-0.202-0.118-0.314-0.318-0.314
		s-0.315,0.112-0.315,0.314v0.698c0,0.2,0.115,0.315,0.315,0.315s0.318-0.115,0.318-0.315V72.757z"/>
	<path fill="#404040" d="M48.584,73.841c0-0.088,0.072-0.16,0.163-0.16c0.087,0,0.16,0.072,0.16,0.16c0,0.09-0.073,0.162-0.16,0.162
		C48.656,74.003,48.584,73.931,48.584,73.841z"/>
	<path fill="#404040" d="M50.292,73.433c0,0.168-0.055,0.313-0.158,0.416c-0.105,0.104-0.25,0.16-0.418,0.16
		s-0.311-0.056-0.416-0.16c-0.103-0.103-0.158-0.248-0.158-0.416v-0.653c0-0.17,0.055-0.312,0.158-0.415
		c0.105-0.105,0.248-0.16,0.416-0.16s0.313,0.055,0.416,0.158c0.105,0.104,0.16,0.247,0.16,0.417V73.433z M50.035,72.757
		c0-0.202-0.118-0.314-0.318-0.314s-0.315,0.112-0.315,0.314v0.698c0,0.2,0.115,0.315,0.315,0.315s0.318-0.115,0.318-0.315V72.757z"
		/>
</g>
<circle fill="#4BD6BA" stroke="#43BA9E" stroke-width="0.5" stroke-miterlimit="10" cx="27.948" cy="40.955" r="3.348"/>
<path fill="none" stroke="#DDDDDD" stroke-width="0.5" stroke-miterlimit="10" d="M47.447,80.162v-2.58 M48.648,79.209l-1.201,1.189
	l-1.189-1.189"/>
<g>
	<line fill="none" stroke="#DDDDDD" stroke-width="0.5" stroke-miterlimit="10" x1="47.455" y1="92.352" x2="47.455" y2="94.119"/>
	<line fill="none" stroke="#DDDDDD" stroke-width="0.5" stroke-miterlimit="10" x1="46.57" y1="93.307" x2="48.338" y2="93.307"/>
</g>
<g>
	<path id="repo1_11_" fill="#579663" stroke="#487A50" stroke-width="0.5" stroke-miterlimit="10" d="M93.874,101.27
		c0-0.646,1.471-1.168,3.287-1.168c1.814,0,3.287,0.521,3.287,1.168 M93.874,101.27v1.455c0,0.158,0.088,0.311,0.246,0.443
		c0.488,0.428,1.67,0.725,3.041,0.725c1.377,0,2.551-0.301,3.043-0.725c0.156-0.135,0.244-0.285,0.244-0.443v-1.455"/>
	<path fill="#579663" stroke="#487A50" stroke-width="0.5" stroke-miterlimit="10" d="M100.448,101.27
		c0,0.646-1.473,1.168-3.287,1.168c-1.816,0-3.287-0.521-3.287-1.168c0-0.646,1.471-1.168,3.287-1.168
		S100.448,100.623,100.448,101.27z"/>
	<path id="repo1_10_" fill="#579663" stroke="#487A50" stroke-width="0.5" stroke-miterlimit="10" d="M93.874,99.814
		c0-0.646,1.471-1.17,3.287-1.17c1.814,0,3.287,0.521,3.287,1.17 M93.874,99.814v1.455c0,0.154,0.088,0.307,0.246,0.441
		c0.488,0.43,1.67,0.727,3.041,0.727c1.377,0,2.551-0.305,3.043-0.727c0.156-0.137,0.244-0.287,0.244-0.441v-1.455"/>
	<path fill="#579663" stroke="#487A50" stroke-width="0.5" stroke-miterlimit="10" d="M100.448,99.814
		c0,0.646-1.473,1.168-3.287,1.168c-1.816,0-3.287-0.521-3.287-1.168c0-0.647,1.471-1.17,3.287-1.17S100.448,99.168,100.448,99.814z
		"/>
	<path id="repo1_9_" fill="#579663" stroke="#487A50" stroke-width="0.5" stroke-miterlimit="10" d="M93.874,98.359
		c0-0.648,1.471-1.17,3.287-1.17c1.814,0,3.287,0.521,3.287,1.17 M93.874,98.359v1.455c0,0.156,0.088,0.307,0.246,0.441
		c0.488,0.43,1.67,0.727,3.041,0.727c1.377,0,2.551-0.303,3.043-0.727c0.156-0.137,0.244-0.285,0.244-0.441v-1.455"/>
	<path fill="#579663" stroke="#487A50" stroke-width="0.5" stroke-miterlimit="10" d="M100.448,98.359
		c0,0.645-1.473,1.168-3.287,1.168c-1.816,0-3.287-0.523-3.287-1.168c0-0.648,1.471-1.17,3.287-1.17S100.448,97.711,100.448,98.359z
		"/>
	<path id="repo1_8_" fill="#579663" stroke="#487A50" stroke-width="0.5" stroke-miterlimit="10" d="M93.874,96.902
		c0-0.646,1.471-1.168,3.287-1.168c1.814,0,3.287,0.521,3.287,1.168 M93.874,96.902v1.457c0,0.154,0.088,0.307,0.246,0.441
		c0.488,0.428,1.67,0.727,3.041,0.727c1.377,0,2.551-0.303,3.043-0.727c0.156-0.137,0.244-0.287,0.244-0.441v-1.457"/>
	<path fill="#579663" stroke="#487A50" stroke-width="0.5" stroke-miterlimit="10" d="M100.448,96.902
		c0,0.646-1.473,1.168-3.287,1.168c-1.816,0-3.287-0.521-3.287-1.168c0-0.647,1.471-1.168,3.287-1.168
		S100.448,96.256,100.448,96.902z"/>
</g>
<g>
	<path id="repo1_7_" fill="#EFAB59" stroke="#D39450" stroke-width="0.5" stroke-miterlimit="10" d="M93.874,88.111
		c0-0.646,1.471-1.168,3.287-1.168c1.814,0,3.287,0.521,3.287,1.168 M93.874,88.111v1.455c0,0.158,0.088,0.309,0.246,0.441
		c0.488,0.43,1.67,0.727,3.041,0.727c1.377,0,2.551-0.301,3.043-0.727c0.156-0.135,0.244-0.283,0.244-0.441v-1.455"/>
	<path fill="#EFAB59" stroke="#D39450" stroke-width="0.5" stroke-miterlimit="10" d="M100.448,88.111
		c0,0.646-1.473,1.168-3.287,1.168c-1.816,0-3.287-0.521-3.287-1.168c0-0.647,1.471-1.168,3.287-1.168
		S100.448,87.465,100.448,88.111z"/>
	<path id="repo1_6_" fill="#EFAB59" stroke="#D39450" stroke-width="0.5" stroke-miterlimit="10" d="M93.874,86.656
		c0-0.646,1.471-1.17,3.287-1.17c1.814,0,3.287,0.521,3.287,1.17 M93.874,86.656v1.455c0,0.156,0.088,0.307,0.246,0.443
		c0.488,0.428,1.67,0.725,3.041,0.725c1.377,0,2.551-0.303,3.043-0.725c0.156-0.139,0.244-0.287,0.244-0.443v-1.455"/>
	<path fill="#EFAB59" stroke="#D39450" stroke-width="0.5" stroke-miterlimit="10" d="M100.448,86.656
		c0,0.646-1.473,1.168-3.287,1.168c-1.816,0-3.287-0.52-3.287-1.168c0-0.646,1.471-1.17,3.287-1.17S100.448,86.01,100.448,86.656z"
		/>
	<path id="repo1_5_" fill="#EFAB59" stroke="#D39450" stroke-width="0.5" stroke-miterlimit="10" d="M93.874,85.201
		c0-0.646,1.471-1.17,3.287-1.17c1.814,0,3.287,0.521,3.287,1.17 M93.874,85.201v1.455c0,0.156,0.088,0.307,0.246,0.443
		c0.488,0.428,1.67,0.725,3.041,0.725c1.377,0,2.551-0.303,3.043-0.725c0.156-0.139,0.244-0.287,0.244-0.443v-1.455"/>
	<path fill="#EFAB59" stroke="#D39450" stroke-width="0.5" stroke-miterlimit="10" d="M100.448,85.201
		c0,0.646-1.473,1.168-3.287,1.168c-1.816,0-3.287-0.521-3.287-1.168s1.471-1.17,3.287-1.17S100.448,84.553,100.448,85.201z"/>
	<path id="repo1_4_" fill="#EFAB59" stroke="#D39450" stroke-width="0.5" stroke-miterlimit="10" d="M93.874,83.744
		c0-0.645,1.471-1.168,3.287-1.168c1.814,0,3.287,0.521,3.287,1.168 M93.874,83.744v1.457c0,0.154,0.088,0.307,0.246,0.443
		c0.488,0.426,1.67,0.725,3.041,0.725c1.377,0,2.551-0.303,3.043-0.725c0.156-0.139,0.244-0.289,0.244-0.443v-1.457"/>
	<path fill="#EFAB59" stroke="#D39450" stroke-width="0.5" stroke-miterlimit="10" d="M100.448,83.744
		c0,0.646-1.473,1.168-3.287,1.168c-1.816,0-3.287-0.52-3.287-1.168c0-0.646,1.471-1.168,3.287-1.168S100.448,83.098,100.448,83.744
		z"/>
</g>
<path fill="none" stroke="#DDDDDD" stroke-width="0.5" stroke-miterlimit="10" d="M97.153,80.162v-2.58 M98.354,79.209l-1.201,1.189
	l-1.188-1.189"/>
<g>
	<line fill="none" stroke="#DDDDDD" stroke-width="0.5" stroke-miterlimit="10" x1="97.161" y1="92.352" x2="97.161" y2="94.119"/>
	<line fill="none" stroke="#DDDDDD" stroke-width="0.5" stroke-miterlimit="10" x1="96.278" y1="93.307" x2="98.045" y2="93.307"/>
</g>
<g>
	<path fill="none" stroke="#DDDDDD" stroke-width="0.5" stroke-miterlimit="10" d="M31.131,40.955c3.604,0,6.537,2.934,6.537,6.539
		v13c0,3.604,2.936,6.537,6.537,6.537"/>
</g>
<circle fill="#4BD6BA" stroke="#43BA9E" stroke-width="0.5" stroke-miterlimit="10" cx="16.948" cy="40.955" r="3.348"/>
<circle fill="#4BD6BA" stroke="#43BA9E" stroke-width="0.5" stroke-miterlimit="10" cx="5.948" cy="40.955" r="3.348"/>
<g>
	<path id="repo1_29_" fill="#FCD770" stroke="#E0BD65" stroke-width="0.5" stroke-miterlimit="10" d="M74.201,27.599
		c0-0.646,1.471-1.168,3.287-1.168c1.814,0,3.287,0.521,3.287,1.168 M74.201,27.599v1.457c0,0.154,0.088,0.307,0.246,0.443
		c0.488,0.426,1.67,0.725,3.041,0.725c1.377,0,2.551-0.303,3.043-0.725c0.154-0.137,0.244-0.289,0.244-0.443v-1.457"/>
	<path fill="#FCD770" stroke="#E0BD65" stroke-width="0.5" stroke-miterlimit="10" d="M80.775,27.599
		c0,0.646-1.473,1.168-3.287,1.168c-1.816,0-3.287-0.521-3.287-1.168s1.471-1.168,3.287-1.168
		C79.304,26.431,80.775,26.953,80.775,27.599z"/>
</g>
<g>
	<path id="repo1_3_" fill="#FCD770" stroke="#E0BD65" stroke-width="0.5" stroke-miterlimit="10" d="M63.418,27.599
		c0-0.646,1.471-1.168,3.287-1.168c1.818,0,3.289,0.521,3.289,1.168 M63.418,27.599v1.457c0,0.154,0.088,0.307,0.246,0.443
		c0.488,0.426,1.67,0.725,3.041,0.725c1.379,0,2.553-0.303,3.045-0.725c0.156-0.137,0.244-0.289,0.244-0.443v-1.457"/>
	<path fill="#FCD770" stroke="#E0BD65" stroke-width="0.5" stroke-miterlimit="10" d="M69.994,27.599
		c0,0.646-1.471,1.168-3.289,1.168c-1.816,0-3.287-0.521-3.287-1.168s1.471-1.168,3.287-1.168
		C68.523,26.431,69.994,26.953,69.994,27.599z"/>
</g>
<circle fill="#4BD6BA" stroke="#43BA9E" stroke-width="0.5" stroke-miterlimit="10" cx="56.051" cy="40.876" r="3.348"/>
<circle fill="#4BD6BA" stroke="#43BA9E" stroke-width="0.5" stroke-miterlimit="10" cx="66.771" cy="40.876" r="3.348"/>
<circle fill="#4BD6BA" stroke="#43BA9E" stroke-width="0.5" stroke-miterlimit="10" cx="77.49" cy="40.876" r="3.348"/>
<path fill="none" stroke="#DDDDDD" stroke-width="0.5" stroke-miterlimit="10" d="M66.713,32.687v2.58 M65.51,33.639l1.203-1.188
	l1.189,1.188"/>
<path fill="none" stroke="#DDDDDD" stroke-width="0.5" stroke-miterlimit="10" d="M77.496,32.687v2.58 M76.293,33.639l1.203-1.188
	l1.188,1.188"/>
<g enable-background="new    ">
	<path fill="#404040" d="M62.757,22.573c0-0.07,0.045-0.133,0.11-0.152c0.125-0.04,0.255-0.065,0.391-0.065
		c0.147,0,0.272,0.048,0.363,0.141c0.09,0.09,0.14,0.215,0.14,0.36v0.315c0,0.147-0.047,0.277-0.138,0.367
		c-0.09,0.093-0.2,0.136-0.348,0.136c-0.083,0-0.183-0.03-0.26-0.065v0.468c0,0.072-0.058,0.13-0.128,0.13
		c-0.072,0-0.13-0.058-0.13-0.13V22.573z M63.503,22.836c0-0.152-0.09-0.242-0.245-0.242c-0.083,0-0.163,0.01-0.243,0.029v0.726
		c0.07,0.058,0.152,0.088,0.243,0.088c0.155,0,0.245-0.088,0.245-0.242V22.836z"/>
	<path fill="#404040" d="M64.979,23.457c0,0.069-0.045,0.13-0.11,0.152c-0.123,0.043-0.265,0.065-0.405,0.065
		c-0.153,0-0.273-0.038-0.358-0.11s-0.13-0.175-0.13-0.298s0.045-0.218,0.13-0.288c0.085-0.072,0.205-0.11,0.358-0.11h0.258v-0.087
		c0-0.105-0.078-0.188-0.208-0.188c-0.117,0-0.183,0.015-0.27,0.067c-0.02,0.013-0.047,0.022-0.07,0.022
		c-0.067,0-0.123-0.05-0.123-0.112c0-0.046,0.02-0.091,0.062-0.115c0.135-0.078,0.253-0.101,0.433-0.101
		c0.28,0,0.433,0.203,0.433,0.426V23.457z M64.721,23.106h-0.258c-0.218,0-0.23,0.117-0.23,0.16c0,0.045,0.013,0.17,0.23,0.17
		c0.085,0,0.178-0.013,0.258-0.032V23.106z"/>
	<path fill="#404040" d="M65.282,22c0-0.072,0.058-0.13,0.13-0.13c0.07,0,0.128,0.058,0.128,0.13v0.381h0.243
		c0.073,0,0.13,0.053,0.13,0.122c0,0.075-0.055,0.125-0.13,0.125H65.54v0.653c0,0.096,0.05,0.155,0.115,0.155
		c0.072,0,0.085-0.02,0.132-0.02c0.062,0,0.125,0.045,0.125,0.12c0,0.062-0.047,0.109-0.11,0.122
		c-0.05,0.01-0.098,0.016-0.147,0.016c-0.206,0-0.373-0.16-0.373-0.391V22z"/>
	<path fill="#404040" d="M66.092,22.856c0-0.146,0.047-0.271,0.137-0.36c0.093-0.093,0.218-0.141,0.363-0.141
		c0.123,0,0.24,0.027,0.348,0.08c0.047,0.022,0.073,0.067,0.073,0.115c0,0.062-0.053,0.118-0.123,0.118
		c-0.023,0-0.043-0.008-0.061-0.016c-0.072-0.032-0.155-0.06-0.237-0.06c-0.153,0-0.243,0.09-0.243,0.242v0.355
		c0,0.155,0.09,0.243,0.243,0.243c0.083,0,0.172-0.028,0.245-0.062c0.018-0.011,0.035-0.013,0.055-0.013
		c0.062,0,0.12,0.05,0.12,0.12c0,0.047-0.028,0.093-0.075,0.115c-0.108,0.052-0.223,0.08-0.345,0.08
		c-0.146,0-0.271-0.048-0.363-0.141c-0.09-0.09-0.137-0.215-0.137-0.362V22.856z"/>
	<path fill="#404040" d="M67.983,22.836c0-0.152-0.09-0.242-0.245-0.242c-0.087,0-0.173,0.032-0.243,0.09v0.86
		c0,0.073-0.058,0.131-0.128,0.131c-0.072,0-0.13-0.058-0.13-0.131V22c0-0.072,0.058-0.13,0.13-0.13c0.07,0,0.128,0.058,0.128,0.13
		v0.421c0.078-0.035,0.178-0.065,0.26-0.065c0.147,0,0.255,0.043,0.348,0.136c0.09,0.09,0.138,0.22,0.138,0.365v0.688
		c0,0.073-0.058,0.131-0.13,0.131c-0.072,0-0.127-0.058-0.127-0.131V22.836z"/>
	<path fill="#404040" d="M68.642,23.026c-0.068,0-0.12-0.055-0.12-0.123c0-0.064,0.05-0.122,0.12-0.122h0.583
		c0.067,0,0.123,0.055,0.123,0.122c0,0.068-0.055,0.123-0.123,0.123H68.642z"/>
	<path fill="#404040" d="M69.847,22.198l-0.225,0.13c-0.02,0.013-0.05,0.022-0.073,0.022c-0.07,0-0.123-0.055-0.123-0.123
		c0-0.045,0.022-0.085,0.065-0.109l0.395-0.228c0.022-0.013,0.048-0.021,0.073-0.021c0.08,0,0.145,0.065,0.145,0.146v1.528
		c0,0.073-0.058,0.131-0.127,0.131c-0.073,0-0.13-0.058-0.13-0.131V22.198z"/>
</g>
<g enable-background="new    ">
	<path fill="#404040" d="M73.509,22.573c0-0.07,0.045-0.133,0.11-0.152c0.125-0.04,0.255-0.065,0.391-0.065
		c0.147,0,0.272,0.048,0.363,0.141c0.09,0.09,0.14,0.215,0.14,0.36v0.315c0,0.147-0.047,0.277-0.138,0.367
		c-0.09,0.093-0.2,0.136-0.348,0.136c-0.083,0-0.183-0.03-0.26-0.065v0.468c0,0.072-0.058,0.13-0.128,0.13
		c-0.072,0-0.13-0.058-0.13-0.13V22.573z M74.255,22.836c0-0.152-0.09-0.242-0.245-0.242c-0.083,0-0.163,0.01-0.243,0.029v0.726
		c0.07,0.058,0.152,0.088,0.243,0.088c0.155,0,0.245-0.088,0.245-0.242V22.836z"/>
	<path fill="#404040" d="M75.73,23.457c0,0.069-0.045,0.13-0.11,0.152c-0.123,0.043-0.265,0.065-0.405,0.065
		c-0.153,0-0.273-0.038-0.358-0.11s-0.13-0.175-0.13-0.298s0.045-0.218,0.13-0.288c0.085-0.072,0.205-0.11,0.358-0.11h0.258v-0.087
		c0-0.105-0.078-0.188-0.208-0.188c-0.117,0-0.183,0.015-0.27,0.067c-0.02,0.013-0.047,0.022-0.07,0.022
		c-0.067,0-0.123-0.05-0.123-0.112c0-0.046,0.02-0.091,0.062-0.115c0.135-0.078,0.253-0.101,0.433-0.101
		c0.28,0,0.433,0.203,0.433,0.426V23.457z M75.473,23.106h-0.258c-0.218,0-0.23,0.117-0.23,0.16c0,0.045,0.013,0.17,0.23,0.17
		c0.085,0,0.178-0.013,0.258-0.032V23.106z"/>
	<path fill="#404040" d="M76.034,22c0-0.072,0.058-0.13,0.13-0.13c0.07,0,0.128,0.058,0.128,0.13v0.381h0.243
		c0.073,0,0.13,0.053,0.13,0.122c0,0.075-0.055,0.125-0.13,0.125h-0.243v0.653c0,0.096,0.05,0.155,0.115,0.155
		c0.072,0,0.085-0.02,0.132-0.02c0.062,0,0.125,0.045,0.125,0.12c0,0.062-0.047,0.109-0.11,0.122
		c-0.05,0.01-0.098,0.016-0.147,0.016c-0.206,0-0.373-0.16-0.373-0.391V22z"/>
	<path fill="#404040" d="M76.844,22.856c0-0.146,0.047-0.271,0.137-0.36c0.093-0.093,0.218-0.141,0.363-0.141
		c0.123,0,0.24,0.027,0.348,0.08c0.047,0.022,0.073,0.067,0.073,0.115c0,0.062-0.053,0.118-0.123,0.118
		c-0.023,0-0.043-0.008-0.061-0.016c-0.072-0.032-0.155-0.06-0.237-0.06c-0.153,0-0.243,0.09-0.243,0.242v0.355
		c0,0.155,0.09,0.243,0.243,0.243c0.083,0,0.172-0.028,0.245-0.062c0.018-0.011,0.035-0.013,0.055-0.013
		c0.062,0,0.12,0.05,0.12,0.12c0,0.047-0.028,0.093-0.075,0.115c-0.108,0.052-0.223,0.08-0.345,0.08
		c-0.146,0-0.271-0.048-0.363-0.141c-0.09-0.09-0.137-0.215-0.137-0.362V22.856z"/>
	<path fill="#404040" d="M78.735,22.836c0-0.152-0.09-0.242-0.245-0.242c-0.087,0-0.173,0.032-0.243,0.09v0.86
		c0,0.073-0.058,0.131-0.128,0.131c-0.072,0-0.13-0.058-0.13-0.131V22c0-0.072,0.058-0.13,0.13-0.13c0.07,0,0.128,0.058,0.128,0.13
		v0.421c0.078-0.035,0.178-0.065,0.26-0.065c0.147,0,0.255,0.043,0.348,0.136c0.09,0.09,0.138,0.22,0.138,0.365v0.688
		c0,0.073-0.058,0.131-0.13,0.131c-0.072,0-0.127-0.058-0.127-0.131V22.836z"/>
	<path fill="#404040" d="M79.394,23.026c-0.068,0-0.12-0.055-0.12-0.123c0-0.064,0.05-0.122,0.12-0.122h0.583
		c0.067,0,0.123,0.055,0.123,0.122c0,0.068-0.055,0.123-0.123,0.123H79.394z"/>
	<path fill="#404040" d="M80.397,23.649c-0.08,0-0.146-0.065-0.146-0.146c0-0.032,0.013-0.067,0.033-0.092l0.631-0.759
		c0.072-0.088,0.105-0.168,0.105-0.275c0-0.147-0.095-0.27-0.258-0.27c-0.108,0-0.188,0.015-0.295,0.069
		c-0.02,0.011-0.04,0.021-0.065,0.021c-0.065,0-0.125-0.051-0.125-0.118c0-0.045,0.025-0.09,0.07-0.112
		c0.153-0.08,0.275-0.098,0.416-0.098c0.15,0,0.28,0.05,0.373,0.146c0.095,0.095,0.143,0.225,0.143,0.375
		c0,0.195-0.093,0.315-0.175,0.423c-0.042,0.055-0.32,0.383-0.491,0.591h0.556c0.073,0,0.127,0.053,0.127,0.12
		c0,0.072-0.055,0.125-0.127,0.125H80.397z"/>
</g>
<circle fill="#62B3CC" stroke="#57A1B2" stroke-width="0.5" stroke-miterlimit="10" cx="97.161" cy="66.951" r="3.248"/>
<g enable-background="new    ">
	<path fill="#404040" d="M94.241,72.782c-0.005-0.015-0.007-0.027-0.007-0.043c0-0.064,0.055-0.13,0.127-0.13
		c0.053,0,0.103,0.03,0.123,0.085l0.273,0.818l0.252-0.815c0.018-0.053,0.068-0.088,0.12-0.088c0.068,0,0.133,0.056,0.133,0.13
		c0,0.013-0.002,0.028-0.007,0.04l-0.355,1.047c-0.02,0.06-0.075,0.103-0.14,0.103s-0.123-0.056-0.138-0.098L94.241,72.782z"/>
	<path fill="#404040" d="M95.761,72.452l-0.225,0.13c-0.02,0.013-0.05,0.022-0.073,0.022c-0.07,0-0.123-0.055-0.123-0.123
		c0-0.045,0.022-0.085,0.065-0.109l0.395-0.228c0.022-0.013,0.048-0.021,0.073-0.021c0.08,0,0.145,0.065,0.145,0.146v1.528
		c0,0.073-0.058,0.131-0.127,0.131c-0.073,0-0.13-0.058-0.13-0.131V72.452z"/>
	<path fill="#404040" d="M96.346,73.761c0-0.088,0.073-0.16,0.163-0.16c0.087,0,0.16,0.072,0.16,0.16c0,0.09-0.073,0.162-0.16,0.162
		C96.418,73.923,96.346,73.851,96.346,73.761z"/>
	<path fill="#404040" d="M97.148,72.452l-0.225,0.13c-0.02,0.013-0.05,0.022-0.073,0.022c-0.07,0-0.123-0.055-0.123-0.123
		c0-0.045,0.022-0.085,0.065-0.109l0.396-0.228c0.022-0.013,0.048-0.021,0.073-0.021c0.08,0,0.145,0.065,0.145,0.146v1.528
		c0,0.073-0.058,0.131-0.127,0.131c-0.073,0-0.13-0.058-0.13-0.131V72.452z"/>
	<path fill="#404040" d="M97.733,73.761c0-0.088,0.072-0.16,0.163-0.16c0.087,0,0.16,0.072,0.16,0.16c0,0.09-0.073,0.162-0.16,0.162
		C97.806,73.923,97.733,73.851,97.733,73.761z"/>
	<path fill="#404040" d="M99.442,73.353c0,0.168-0.055,0.313-0.158,0.416c-0.105,0.104-0.25,0.16-0.418,0.16
		s-0.311-0.056-0.416-0.16c-0.103-0.103-0.158-0.248-0.158-0.416v-0.653c0-0.17,0.055-0.312,0.158-0.415
		c0.105-0.105,0.248-0.16,0.416-0.16s0.313,0.055,0.416,0.158c0.105,0.104,0.16,0.247,0.16,0.417V73.353z M99.184,72.677
		c0-0.202-0.118-0.314-0.318-0.314s-0.315,0.112-0.315,0.314v0.698c0,0.2,0.115,0.315,0.315,0.315s0.318-0.115,0.318-0.315V72.677z"
		/>
</g>
<g>
	<path fill="none" stroke="#DDDDDD" stroke-width="0.5" stroke-miterlimit="10" d="M80.838,40.876c3.604,0,6.537,2.934,6.537,6.538
		v13c0,3.605,2.936,6.537,6.538,6.537"/>
</g>
<g>
	<path id="repo1_2_" fill="#FCD770" stroke="#E0BD65" stroke-width="0.5" stroke-miterlimit="10" d="M111.125,27.522
		c0-0.646,1.471-1.168,3.287-1.168s3.287,0.521,3.287,1.168 M111.125,27.522v1.457c0,0.154,0.088,0.307,0.246,0.443
		c0.488,0.426,1.67,0.725,3.041,0.725c1.377,0,2.55-0.303,3.042-0.725c0.155-0.137,0.244-0.289,0.244-0.443v-1.457"/>
	<path fill="#FCD770" stroke="#E0BD65" stroke-width="0.5" stroke-miterlimit="10" d="M117.701,27.522
		c0,0.646-1.472,1.168-3.288,1.168s-3.287-0.521-3.287-1.168s1.471-1.168,3.287-1.168S117.701,26.876,117.701,27.522z"/>
</g>
<circle fill="#4BD6BA" stroke="#43BA9E" stroke-width="0.5" stroke-miterlimit="10" cx="114.479" cy="40.799" r="3.348"/>
<path fill="none" stroke="#DDDDDD" stroke-width="0.5" stroke-miterlimit="10" d="M114.42,32.61v2.58 M113.217,33.562l1.203-1.188
	l1.188,1.188"/>
<g enable-background="new    ">
	<path fill="#404040" d="M110.426,22.496c0-0.07,0.045-0.133,0.11-0.152c0.125-0.04,0.255-0.065,0.391-0.065
		c0.147,0,0.272,0.048,0.363,0.141c0.09,0.09,0.14,0.215,0.14,0.36v0.315c0,0.147-0.047,0.277-0.138,0.367
		c-0.09,0.093-0.2,0.136-0.348,0.136c-0.083,0-0.183-0.03-0.26-0.065V24c0,0.072-0.058,0.13-0.128,0.13
		c-0.072,0-0.13-0.058-0.13-0.13V22.496z M111.172,22.759c0-0.152-0.09-0.242-0.245-0.242c-0.083,0-0.163,0.01-0.243,0.029v0.726
		c0.07,0.058,0.152,0.088,0.243,0.088c0.155,0,0.245-0.088,0.245-0.242V22.759z"/>
	<path fill="#404040" d="M112.647,23.38c0,0.069-0.045,0.13-0.11,0.152c-0.123,0.043-0.265,0.065-0.405,0.065
		c-0.153,0-0.273-0.038-0.358-0.11s-0.13-0.175-0.13-0.298s0.045-0.218,0.13-0.288c0.085-0.072,0.205-0.11,0.358-0.11h0.258v-0.087
		c0-0.105-0.078-0.188-0.208-0.188c-0.117,0-0.183,0.015-0.27,0.067c-0.02,0.013-0.047,0.022-0.07,0.022
		c-0.067,0-0.123-0.05-0.123-0.112c0-0.046,0.02-0.091,0.062-0.115c0.135-0.078,0.253-0.101,0.433-0.101
		c0.28,0,0.433,0.203,0.433,0.426V23.38z M112.39,23.029h-0.258c-0.218,0-0.23,0.117-0.23,0.16c0,0.045,0.013,0.17,0.23,0.17
		c0.085,0,0.178-0.013,0.258-0.032V23.029z"/>
	<path fill="#404040" d="M112.951,21.923c0-0.072,0.058-0.13,0.13-0.13c0.07,0,0.128,0.058,0.128,0.13v0.381h0.243
		c0.073,0,0.13,0.053,0.13,0.122c0,0.075-0.055,0.125-0.13,0.125h-0.243v0.653c0,0.096,0.05,0.155,0.115,0.155
		c0.072,0,0.085-0.02,0.132-0.02c0.062,0,0.125,0.045,0.125,0.12c0,0.062-0.047,0.109-0.11,0.122
		c-0.05,0.01-0.098,0.016-0.147,0.016c-0.206,0-0.373-0.16-0.373-0.391V21.923z"/>
	<path fill="#404040" d="M113.761,22.779c0-0.146,0.047-0.271,0.137-0.36c0.093-0.093,0.218-0.141,0.363-0.141
		c0.123,0,0.24,0.027,0.348,0.08c0.047,0.022,0.073,0.067,0.073,0.115c0,0.062-0.053,0.118-0.123,0.118
		c-0.023,0-0.043-0.008-0.061-0.016c-0.072-0.032-0.155-0.06-0.237-0.06c-0.153,0-0.243,0.09-0.243,0.242v0.355
		c0,0.155,0.09,0.243,0.243,0.243c0.083,0,0.172-0.028,0.245-0.062c0.018-0.011,0.035-0.013,0.055-0.013
		c0.062,0,0.12,0.05,0.12,0.12c0,0.047-0.028,0.093-0.075,0.115c-0.108,0.052-0.223,0.08-0.345,0.08
		c-0.146,0-0.271-0.048-0.363-0.141c-0.09-0.09-0.137-0.215-0.137-0.362V22.779z"/>
	<path fill="#404040" d="M115.652,22.759c0-0.152-0.09-0.242-0.245-0.242c-0.087,0-0.173,0.032-0.243,0.09v0.86
		c0,0.073-0.058,0.131-0.128,0.131c-0.072,0-0.13-0.058-0.13-0.131v-1.544c0-0.072,0.058-0.13,0.13-0.13
		c0.07,0,0.128,0.058,0.128,0.13v0.421c0.078-0.035,0.178-0.065,0.26-0.065c0.147,0,0.255,0.043,0.348,0.136
		c0.09,0.09,0.138,0.22,0.138,0.365v0.688c0,0.073-0.058,0.131-0.13,0.131c-0.072,0-0.127-0.058-0.127-0.131V22.759z"/>
	<path fill="#404040" d="M116.311,22.949c-0.068,0-0.12-0.055-0.12-0.123c0-0.064,0.05-0.122,0.12-0.122h0.583
		c0.067,0,0.123,0.055,0.123,0.122c0,0.068-0.056,0.123-0.123,0.123H116.311z"/>
	<path fill="#404040" d="M117.572,22.789c-0.073,0-0.131-0.055-0.131-0.128c0-0.069,0.058-0.127,0.131-0.127h0.031
		c0.166,0,0.301-0.11,0.301-0.243c0-0.152-0.095-0.26-0.26-0.26c-0.105,0-0.193,0.015-0.301,0.067
		c-0.018,0.01-0.04,0.015-0.061,0.015c-0.062,0-0.122-0.05-0.122-0.117c0-0.048,0.024-0.091,0.07-0.113
		c0.152-0.075,0.274-0.09,0.413-0.09c0.15,0,0.277,0.048,0.373,0.138c0.095,0.09,0.145,0.215,0.145,0.36
		c0,0.143-0.064,0.268-0.183,0.36c0.146,0.098,0.233,0.245,0.233,0.413c0,0.312-0.233,0.533-0.568,0.533
		c-0.163,0-0.299-0.033-0.428-0.093c-0.045-0.022-0.073-0.062-0.073-0.112c0-0.068,0.058-0.121,0.13-0.121
		c0.018,0,0.038,0.008,0.056,0.016c0.095,0.045,0.192,0.072,0.315,0.072c0.15,0,0.311-0.093,0.311-0.295
		c0-0.15-0.15-0.275-0.336-0.275H117.572z"/>
</g>
<circle fill="#4BD6BA" stroke="#43BA9E" stroke-width="0.5" stroke-miterlimit="10" cx="103.348" cy="40.771" r="3.348"/>
<g>
	<path id="repo1_27_" fill="#579663" stroke="#487A50" stroke-width="0.5" stroke-miterlimit="10" d="M221.667,101.094
		c0-0.645,1.471-1.168,3.285-1.168c1.812,0,3.287,0.521,3.287,1.168 M221.667,101.094v1.455c0,0.158,0.088,0.311,0.244,0.443
		c0.488,0.428,1.67,0.725,3.041,0.725c1.377,0,2.553-0.301,3.043-0.725c0.154-0.135,0.244-0.285,0.244-0.443v-1.455"/>
	<path fill="#579663" stroke="#487A50" stroke-width="0.5" stroke-miterlimit="10" d="M228.239,101.094
		c0,0.646-1.473,1.168-3.286,1.168s-3.285-0.52-3.285-1.168c0-0.645,1.472-1.168,3.285-1.168
		C226.768,99.926,228.239,100.449,228.239,101.094z"/>
	<path id="repo1_26_" fill="#579663" stroke="#487A50" stroke-width="0.5" stroke-miterlimit="10" d="M221.667,99.639
		c0-0.645,1.471-1.17,3.285-1.17c1.812,0,3.287,0.523,3.287,1.17 M221.667,99.639v1.455c0,0.156,0.088,0.309,0.244,0.443
		c0.488,0.428,1.67,0.725,3.041,0.725c1.377,0,2.553-0.303,3.043-0.725c0.154-0.137,0.244-0.287,0.244-0.443v-1.455"/>
	<path fill="#579663" stroke="#487A50" stroke-width="0.5" stroke-miterlimit="10" d="M228.239,99.639
		c0,0.646-1.473,1.168-3.286,1.168s-3.285-0.52-3.285-1.168c0-0.645,1.472-1.17,3.285-1.17
		C226.768,98.469,228.239,98.994,228.239,99.639z"/>
	<path id="repo1_25_" fill="#579663" stroke="#487A50" stroke-width="0.5" stroke-miterlimit="10" d="M221.667,98.184
		c0-0.646,1.471-1.17,3.285-1.17c1.812,0,3.287,0.521,3.287,1.17 M221.667,98.184v1.455c0,0.156,0.088,0.311,0.244,0.443
		c0.488,0.428,1.67,0.725,3.041,0.725c1.377,0,2.553-0.303,3.043-0.725c0.154-0.137,0.244-0.287,0.244-0.443v-1.455"/>
	<path fill="#579663" stroke="#487A50" stroke-width="0.5" stroke-miterlimit="10" d="M228.239,98.184
		c0,0.646-1.473,1.17-3.286,1.17s-3.285-0.521-3.285-1.17c0-0.646,1.472-1.17,3.285-1.17
		C226.768,97.014,228.239,97.537,228.239,98.184z"/>
	<path id="repo1_24_" fill="#579663" stroke="#487A50" stroke-width="0.5" stroke-miterlimit="10" d="M221.667,96.729
		c0-0.646,1.471-1.17,3.285-1.17c1.812,0,3.287,0.521,3.287,1.17 M221.667,96.729v1.455c0,0.154,0.088,0.311,0.244,0.443
		c0.488,0.426,1.67,0.727,3.041,0.727c1.377,0,2.553-0.305,3.043-0.727c0.154-0.137,0.244-0.289,0.244-0.443v-1.455"/>
	<path fill="#579663" stroke="#487A50" stroke-width="0.5" stroke-miterlimit="10" d="M228.239,96.729
		c0,0.646-1.473,1.168-3.286,1.168s-3.285-0.521-3.285-1.168c0-0.646,1.472-1.17,3.285-1.17
		C226.768,95.559,228.239,96.082,228.239,96.729z"/>
</g>
<g>
	<path id="repo1_23_" fill="#EFAB59" stroke="#D39450" stroke-width="0.5" stroke-miterlimit="10" d="M221.667,87.938
		c0-0.646,1.471-1.168,3.285-1.168c1.812,0,3.287,0.521,3.287,1.168 M221.667,87.938v1.453c0,0.158,0.088,0.312,0.244,0.443
		c0.488,0.428,1.67,0.725,3.041,0.725c1.377,0,2.553-0.301,3.043-0.725c0.154-0.135,0.244-0.285,0.244-0.443v-1.453"/>
	<path fill="#EFAB59" stroke="#D39450" stroke-width="0.5" stroke-miterlimit="10" d="M228.239,87.938
		c0,0.646-1.473,1.168-3.286,1.168s-3.285-0.521-3.285-1.168c0-0.646,1.472-1.168,3.285-1.168
		C226.768,86.77,228.239,87.291,228.239,87.938z"/>
	<path id="repo1_22_" fill="#EFAB59" stroke="#D39450" stroke-width="0.5" stroke-miterlimit="10" d="M221.667,86.482
		c0-0.646,1.471-1.17,3.285-1.17c1.812,0,3.287,0.521,3.287,1.17 M221.667,86.482v1.455c0,0.152,0.088,0.307,0.244,0.439
		c0.488,0.43,1.67,0.729,3.041,0.729c1.377,0,2.553-0.307,3.043-0.729c0.154-0.137,0.244-0.287,0.244-0.439v-1.455"/>
	<path fill="#EFAB59" stroke="#D39450" stroke-width="0.5" stroke-miterlimit="10" d="M228.239,86.482
		c0,0.646-1.473,1.168-3.286,1.168s-3.285-0.521-3.285-1.168c0-0.647,1.472-1.17,3.285-1.17
		C226.768,85.312,228.239,85.836,228.239,86.482z"/>
	<path id="repo1_21_" fill="#EFAB59" stroke="#D39450" stroke-width="0.5" stroke-miterlimit="10" d="M221.667,85.027
		c0-0.646,1.471-1.17,3.285-1.17c1.812,0,3.287,0.521,3.287,1.17 M221.667,85.027v1.455c0,0.152,0.088,0.307,0.244,0.439
		c0.488,0.432,1.67,0.729,3.041,0.729c1.377,0,2.553-0.305,3.043-0.729c0.154-0.137,0.244-0.287,0.244-0.439v-1.455"/>
	<path fill="#EFAB59" stroke="#D39450" stroke-width="0.5" stroke-miterlimit="10" d="M228.239,85.027
		c0,0.646-1.473,1.168-3.286,1.168s-3.285-0.521-3.285-1.168c0-0.647,1.472-1.17,3.285-1.17
		C226.768,83.857,228.239,84.379,228.239,85.027z"/>
	<path id="repo1_20_" fill="#EFAB59" stroke="#D39450" stroke-width="0.5" stroke-miterlimit="10" d="M221.667,83.57
		c0-0.646,1.471-1.168,3.285-1.168c1.812,0,3.287,0.521,3.287,1.168 M221.667,83.57v1.457c0,0.152,0.088,0.307,0.244,0.439
		c0.488,0.43,1.67,0.729,3.041,0.729c1.377,0,2.553-0.305,3.043-0.729c0.154-0.137,0.244-0.287,0.244-0.439V83.57"/>
	<path fill="#EFAB59" stroke="#D39450" stroke-width="0.5" stroke-miterlimit="10" d="M228.239,83.57
		c0,0.646-1.473,1.168-3.286,1.168s-3.285-0.521-3.285-1.168c0-0.647,1.472-1.168,3.285-1.168
		C226.768,82.402,228.239,82.924,228.239,83.57z"/>
</g>
<g enable-background="new    ">
	<path fill="#404040" d="M222.032,72.689c-0.005-0.015-0.007-0.027-0.007-0.043c0-0.064,0.055-0.13,0.127-0.13
		c0.053,0,0.103,0.03,0.123,0.085l0.272,0.818l0.253-0.815c0.018-0.053,0.067-0.088,0.119-0.088c0.068,0,0.133,0.056,0.133,0.13
		c0,0.013-0.002,0.028-0.007,0.04l-0.355,1.047c-0.021,0.06-0.075,0.103-0.14,0.103c-0.065,0-0.123-0.056-0.139-0.098
		L222.032,72.689z"/>
	<path fill="#404040" d="M223.552,72.359l-0.225,0.13c-0.021,0.013-0.051,0.022-0.073,0.022c-0.069,0-0.122-0.055-0.122-0.123
		c0-0.045,0.021-0.085,0.064-0.109l0.396-0.228c0.022-0.013,0.048-0.021,0.073-0.021c0.08,0,0.145,0.065,0.145,0.146v1.528
		c0,0.073-0.058,0.131-0.127,0.131c-0.073,0-0.131-0.058-0.131-0.131V72.359z"/>
	<path fill="#404040" d="M224.136,73.668c0-0.088,0.073-0.16,0.164-0.16c0.087,0,0.16,0.072,0.16,0.16
		c0,0.09-0.073,0.162-0.16,0.162C224.209,73.83,224.136,73.758,224.136,73.668z"/>
	<path fill="#404040" d="M225.044,73.027c-0.072,0-0.13-0.055-0.13-0.128c0-0.069,0.058-0.127,0.13-0.127h0.033
		c0.165,0,0.3-0.11,0.3-0.243c0-0.152-0.095-0.26-0.261-0.26c-0.104,0-0.191,0.015-0.3,0.067c-0.017,0.01-0.04,0.015-0.06,0.015
		c-0.062,0-0.123-0.05-0.123-0.117c0-0.048,0.025-0.091,0.07-0.113c0.152-0.075,0.275-0.09,0.412-0.09
		c0.15,0,0.278,0.048,0.373,0.138c0.096,0.09,0.146,0.215,0.146,0.36c0,0.143-0.065,0.268-0.183,0.36
		c0.145,0.098,0.232,0.245,0.232,0.413c0,0.312-0.232,0.533-0.568,0.533c-0.162,0-0.297-0.033-0.428-0.093
		c-0.045-0.022-0.072-0.062-0.072-0.112c0-0.068,0.058-0.121,0.131-0.121c0.018,0,0.037,0.008,0.055,0.016
		c0.095,0.045,0.192,0.072,0.314,0.072c0.15,0,0.311-0.093,0.311-0.295c0-0.15-0.15-0.275-0.335-0.275H225.044z"/>
	<path fill="#404040" d="M225.91,73.668c0-0.088,0.072-0.16,0.162-0.16c0.088,0,0.16,0.072,0.16,0.16c0,0.09-0.072,0.162-0.16,0.162
		C225.982,73.83,225.91,73.758,225.91,73.668z"/>
	<path fill="#404040" d="M227.619,73.26c0,0.168-0.056,0.313-0.158,0.416c-0.105,0.104-0.25,0.16-0.418,0.16
		s-0.311-0.056-0.416-0.16c-0.102-0.103-0.157-0.248-0.157-0.416v-0.653c0-0.17,0.056-0.312,0.157-0.415
		c0.105-0.105,0.248-0.16,0.416-0.16s0.312,0.055,0.416,0.158c0.104,0.104,0.16,0.247,0.16,0.417V73.26z M227.361,72.584
		c0-0.202-0.118-0.314-0.318-0.314s-0.315,0.112-0.315,0.314v0.698c0,0.2,0.115,0.315,0.315,0.315s0.318-0.115,0.318-0.315V72.584z"
		/>
</g>
<circle fill="#4BD6BA" stroke="#43BA9E" stroke-width="0.5" stroke-miterlimit="10" cx="205.446" cy="40.782" r="3.348"/>
<path fill="none" stroke="#DDDDDD" stroke-width="0.5" stroke-miterlimit="10" d="M224.946,79.988v-2.58 M226.147,79.035
	l-1.201,1.188l-1.188-1.188"/>
<g>
	
		<line fill="none" stroke="#DDDDDD" stroke-width="0.5" stroke-miterlimit="10" x1="224.955" y1="92.176" x2="224.955" y2="93.945"/>
	
		<line fill="none" stroke="#DDDDDD" stroke-width="0.5" stroke-miterlimit="10" x1="224.069" y1="93.133" x2="225.835" y2="93.133"/>
</g>
<g>
	<path fill="none" stroke="#DDDDDD" stroke-width="0.5" stroke-miterlimit="10" d="M208.628,40.782c3.604,0,6.537,2.934,6.537,6.538
		v12.954c0,3.604,2.937,6.535,6.537,6.535"/>
</g>
<circle fill="#62B3CC" stroke="#57A1B2" stroke-width="0.5" stroke-miterlimit="10" cx="224.953" cy="66.857" r="3.248"/>
<circle fill="#4BD6BA" stroke="#43BA9E" stroke-width="0.5" stroke-miterlimit="10" cx="194.578" cy="40.811" r="3.348"/>
<circle fill="#62B3CC" stroke="#57A1B2" stroke-width="0.5" stroke-miterlimit="10" cx="183.878" cy="66.957" r="3.35"/>
<g>
	<rect x="2" y="1.854" fill="#62B3CC" stroke="#57A1B2" stroke-width="0.5" stroke-miterlimit="10" width="20" height="7"/>
	<g>
		<path fill="#40767C" d="M9.119,6.499V5.068L8.626,6.111h-0.24L7.88,5.068v1.431H7.556v-2.14H7.88L8.506,5.69l0.613-1.332h0.325
			v2.14H9.119z"/>
		<path fill="#40767C" d="M10.779,6.499V6.361c-0.111,0.111-0.216,0.156-0.406,0.156s-0.315-0.045-0.409-0.138
			c-0.078-0.081-0.12-0.199-0.12-0.328c0-0.256,0.177-0.439,0.526-0.439h0.403V5.504c0-0.192-0.096-0.286-0.333-0.286
			c-0.168,0-0.25,0.039-0.334,0.147L9.905,5.176c0.144-0.168,0.294-0.219,0.547-0.219c0.418,0,0.628,0.177,0.628,0.523v1.019H10.779
			z M10.773,5.826h-0.358c-0.18,0-0.273,0.081-0.273,0.219c0,0.139,0.087,0.217,0.28,0.217c0.117,0,0.204-0.009,0.286-0.087
			c0.045-0.045,0.066-0.117,0.066-0.226V5.826z"/>
		<path fill="#40767C" d="M12.042,6.517c-0.25,0-0.46-0.042-0.64-0.219l0.201-0.202c0.124,0.126,0.289,0.159,0.439,0.159
			c0.187,0,0.334-0.066,0.334-0.21c0-0.102-0.057-0.168-0.205-0.18l-0.244-0.021c-0.286-0.024-0.451-0.153-0.451-0.421
			c0-0.297,0.255-0.466,0.574-0.466c0.229,0,0.424,0.048,0.565,0.171l-0.192,0.195c-0.096-0.081-0.231-0.111-0.375-0.111
			c-0.184,0-0.277,0.081-0.277,0.195c0,0.09,0.048,0.16,0.21,0.174l0.241,0.021c0.286,0.024,0.454,0.16,0.454,0.43
			C12.676,6.352,12.405,6.517,12.042,6.517z"/>
		<path fill="#40767C" d="M13.47,6.499c-0.286,0-0.417-0.205-0.417-0.424V5.236h-0.175V5.002h0.175V4.539h0.306v0.463h0.295v0.234
			h-0.295V6.06c0,0.111,0.054,0.177,0.168,0.177h0.126v0.262H13.47z"/>
		<path fill="#40767C" d="M14.258,5.826c0,0.262,0.139,0.427,0.388,0.427c0.171,0,0.261-0.048,0.37-0.156l0.195,0.184
			c-0.156,0.156-0.304,0.237-0.571,0.237c-0.382,0-0.685-0.202-0.685-0.782c0-0.493,0.255-0.778,0.646-0.778
			c0.409,0,0.646,0.3,0.646,0.733v0.135H14.258z M14.902,5.405c-0.048-0.114-0.156-0.192-0.301-0.192
			c-0.144,0-0.255,0.078-0.304,0.192c-0.03,0.069-0.036,0.114-0.039,0.208h0.686C14.941,5.519,14.932,5.474,14.902,5.405z"/>
		<path fill="#40767C" d="M16.488,5.333C16.419,5.264,16.365,5.23,16.26,5.23c-0.165,0-0.303,0.132-0.303,0.343v0.926H15.65V4.975
			h0.3V5.14c0.078-0.108,0.234-0.183,0.406-0.183c0.147,0,0.259,0.039,0.364,0.144L16.488,5.333z"/>
	</g>
</g>
<g>
	<rect x="25.204" y="1.854" fill="#FA715E" stroke="#E06255" stroke-width="0.5" stroke-miterlimit="10" width="20" height="7"/>
	<g>
		<path fill="#AA4743" d="M32.693,6.499V5.564h-0.869v0.935H31.5v-2.14h0.324v0.914h0.869V4.359h0.324v2.14H32.693z"/>
		<path fill="#AA4743" d="M34.555,6.337c-0.1,0.102-0.25,0.18-0.457,0.18s-0.355-0.078-0.454-0.18
			c-0.144-0.15-0.18-0.343-0.18-0.602c0-0.255,0.036-0.448,0.18-0.598c0.099-0.102,0.247-0.18,0.454-0.18s0.357,0.078,0.457,0.18
			c0.144,0.15,0.18,0.343,0.18,0.598C34.735,5.994,34.699,6.187,34.555,6.337z M34.324,5.318c-0.057-0.057-0.135-0.087-0.226-0.087
			s-0.166,0.03-0.223,0.087c-0.093,0.093-0.105,0.252-0.105,0.417c0,0.166,0.012,0.325,0.105,0.418
			c0.057,0.057,0.132,0.09,0.223,0.09s0.168-0.033,0.226-0.09c0.093-0.093,0.105-0.252,0.105-0.418
			C34.429,5.57,34.417,5.411,34.324,5.318z"/>
		<path fill="#AA4743" d="M35.601,6.499c-0.286,0-0.417-0.205-0.417-0.424V5.236h-0.175V5.002h0.175V4.539h0.306v0.463h0.295v0.234
			H35.49V6.06c0,0.111,0.054,0.177,0.168,0.177h0.126v0.262H35.601z"/>
		<path fill="#AA4743" d="M36.522,5.236v1.263h-0.307V5.236h-0.174V5.002h0.174V4.768c0-0.219,0.132-0.424,0.418-0.424h0.189v0.262
			h-0.135c-0.114,0-0.165,0.066-0.165,0.177v0.219h0.3v0.234H36.522z M37.12,4.623V4.35h0.328v0.273H37.12z M37.129,6.499V5.002
			h0.307v1.497H37.129z"/>
		<path fill="#AA4743" d="M38.755,6.499l-0.319-0.52l-0.321,0.52h-0.37l0.523-0.778l-0.502-0.746h0.37l0.3,0.496l0.298-0.496h0.37
			l-0.499,0.746l0.52,0.778H38.755z"/>
	</g>
</g>
<g>
	<rect x="48.028" y="1.854" fill="#4BD6BA" stroke="#43BA9E" stroke-width="0.5" stroke-miterlimit="10" width="20" height="7"/>
	<g>
		<path fill="#3B9E84" d="M54.248,6.298c-0.135,0.135-0.331,0.201-0.553,0.201h-0.751v-2.14h0.751c0.222,0,0.417,0.066,0.553,0.201
			c0.231,0.231,0.217,0.544,0.217,0.854S54.479,6.066,54.248,6.298z M54.026,4.794c-0.09-0.099-0.21-0.144-0.364-0.144h-0.394v1.557
			h0.394c0.153,0,0.273-0.045,0.364-0.145c0.111-0.123,0.114-0.354,0.114-0.649C54.14,5.119,54.137,4.918,54.026,4.794z"/>
		<path fill="#3B9E84" d="M55.131,5.826c0,0.262,0.139,0.427,0.388,0.427c0.171,0,0.261-0.048,0.37-0.156l0.195,0.184
			c-0.156,0.156-0.304,0.237-0.571,0.237c-0.382,0-0.685-0.202-0.685-0.782c0-0.493,0.255-0.778,0.646-0.778
			c0.409,0,0.646,0.3,0.646,0.733v0.135H55.131z M55.774,5.405c-0.048-0.114-0.156-0.192-0.301-0.192
			c-0.144,0-0.255,0.078-0.304,0.192c-0.03,0.069-0.036,0.114-0.039,0.208h0.686C55.813,5.519,55.804,5.474,55.774,5.405z"/>
		<path fill="#3B9E84" d="M57.082,6.499h-0.25l-0.559-1.524h0.325l0.361,1.073l0.357-1.073h0.325L57.082,6.499z"/>
		<path fill="#3B9E84" d="M58.101,5.826c0,0.262,0.139,0.427,0.388,0.427c0.171,0,0.261-0.048,0.37-0.156l0.195,0.184
			c-0.156,0.156-0.304,0.237-0.571,0.237c-0.382,0-0.685-0.202-0.685-0.782c0-0.493,0.255-0.778,0.646-0.778
			c0.409,0,0.646,0.3,0.646,0.733v0.135H58.101z M58.744,5.405c-0.048-0.114-0.156-0.192-0.301-0.192
			c-0.144,0-0.255,0.078-0.304,0.192c-0.03,0.069-0.036,0.114-0.039,0.208h0.686C58.783,5.519,58.774,5.474,58.744,5.405z"/>
		<path fill="#3B9E84" d="M59.901,6.499c-0.292,0-0.418-0.195-0.418-0.421V4.359h0.307V6.06c0,0.117,0.042,0.177,0.166,0.177h0.135
			v0.262H59.901z"/>
		<path fill="#3B9E84" d="M61.385,6.337c-0.1,0.102-0.25,0.18-0.457,0.18s-0.355-0.078-0.454-0.18
			c-0.144-0.15-0.18-0.343-0.18-0.602c0-0.255,0.036-0.448,0.18-0.598c0.099-0.102,0.247-0.18,0.454-0.18s0.357,0.078,0.457,0.18
			c0.144,0.15,0.18,0.343,0.18,0.598C61.565,5.994,61.529,6.187,61.385,6.337z M61.153,5.318c-0.057-0.057-0.135-0.087-0.226-0.087
			s-0.166,0.03-0.223,0.087C60.612,5.411,60.6,5.57,60.6,5.735c0,0.166,0.012,0.325,0.105,0.418c0.057,0.057,0.132,0.09,0.223,0.09
			s0.168-0.033,0.226-0.09c0.093-0.093,0.105-0.252,0.105-0.418C61.258,5.57,61.246,5.411,61.153,5.318z"/>
		<path fill="#3B9E84" d="M63.053,6.382c-0.084,0.084-0.217,0.135-0.37,0.135c-0.162,0-0.289-0.042-0.399-0.174v0.772h-0.307v-2.14
			h0.3v0.162c0.114-0.138,0.238-0.18,0.403-0.18c0.153,0,0.289,0.051,0.373,0.135c0.153,0.153,0.171,0.412,0.171,0.643
			S63.206,6.229,63.053,6.382z M62.602,5.23c-0.276,0-0.318,0.234-0.318,0.505s0.042,0.508,0.318,0.508
			c0.277,0,0.316-0.238,0.316-0.508S62.878,5.23,62.602,5.23z"/>
	</g>
</g>
</svg>
