<?xml version="1.0" encoding="utf-8"?>
<!-- Generator: Adobe Illustrator 16.0.0, SVG Export Plug-In . SVG Version: 6.00 Build 0)  -->
<!DOCTYPE svg PUBLIC "-//W3C//DTD SVG 1.1//EN" "http://www.w3.org/Graphics/SVG/1.1/DTD/svg11.dtd">
<svg version="1.1" id="Layer_1" xmlns="http://www.w3.org/2000/svg" xmlns:xlink="http://www.w3.org/1999/xlink" x="0px" y="0px"
	 width="232.167px" height="109.34px" viewBox="0 0 232.167 109.34" enable-background="new 0 0 232.167 109.34"
	 xml:space="preserve">
<path fill="none" stroke="#404040" stroke-width="0.6" stroke-miterlimit="10" d="M145.753,66.846h-4.146l0,0"/>
<path fill="none" stroke="#DDDDDD" stroke-width="0.5" stroke-miterlimit="10" d="M202.098,40.771H9.297l0,0"/>
<g>
	<path id="repo1_65_" fill="#FFA759" stroke="#E59153" stroke-width="0.5" stroke-miterlimit="10" d="M141.569,101.082
		c0-0.645,1.472-1.168,3.285-1.168s3.287,0.521,3.287,1.168 M141.569,101.082v1.455c0,0.158,0.089,0.311,0.244,0.443
		c0.49,0.428,1.67,0.725,3.041,0.725c1.377,0,2.554-0.301,3.043-0.725c0.156-0.135,0.244-0.285,0.244-0.443v-1.455"/>
	<path fill="#FFA759" stroke="#E59153" stroke-width="0.5" stroke-miterlimit="10" d="M148.141,101.082
		c0,0.646-1.474,1.168-3.287,1.168s-3.285-0.52-3.285-1.168c0-0.645,1.472-1.168,3.285-1.168
		C146.669,99.914,148.141,100.438,148.141,101.082z"/>
	<path id="repo1_64_" fill="#FFA759" stroke="#E59153" stroke-width="0.5" stroke-miterlimit="10" d="M141.569,99.627
		c0-0.645,1.472-1.17,3.285-1.17s3.287,0.523,3.287,1.17 M141.569,99.627v1.455c0,0.156,0.089,0.309,0.244,0.443
		c0.49,0.428,1.67,0.725,3.041,0.725c1.377,0,2.554-0.303,3.043-0.725c0.156-0.137,0.244-0.287,0.244-0.443v-1.455"/>
	<path fill="#FFA759" stroke="#E59153" stroke-width="0.5" stroke-miterlimit="10" d="M148.141,99.627
		c0,0.646-1.474,1.168-3.287,1.168s-3.285-0.52-3.285-1.168c0-0.645,1.472-1.17,3.285-1.17
		C146.669,98.457,148.141,98.982,148.141,99.627z"/>
	<path id="repo1_63_" fill="#FFA759" stroke="#E59153" stroke-width="0.5" stroke-miterlimit="10" d="M141.569,98.172
		c0-0.646,1.472-1.17,3.285-1.17s3.287,0.521,3.287,1.17 M141.569,98.172v1.455c0,0.156,0.089,0.309,0.244,0.443
		c0.49,0.428,1.67,0.725,3.041,0.725c1.377,0,2.554-0.303,3.043-0.725c0.156-0.137,0.244-0.287,0.244-0.443v-1.455"/>
	<path fill="#FFA759" stroke="#E59153" stroke-width="0.5" stroke-miterlimit="10" d="M148.141,98.172
		c0,0.646-1.474,1.17-3.287,1.17s-3.285-0.523-3.285-1.17s1.472-1.17,3.285-1.17C146.669,97.002,148.141,97.525,148.141,98.172z"/>
	<path id="repo1_62_" fill="#FFA759" stroke="#E59153" stroke-width="0.5" stroke-miterlimit="10" d="M141.569,96.717
		c0-0.646,1.472-1.17,3.285-1.17s3.287,0.521,3.287,1.17 M141.569,96.717v1.455c0,0.154,0.089,0.309,0.244,0.443
		c0.49,0.426,1.67,0.727,3.041,0.727c1.377,0,2.554-0.305,3.043-0.727c0.156-0.137,0.244-0.289,0.244-0.443v-1.455"/>
	<path fill="#FFA759" stroke="#E59153" stroke-width="0.5" stroke-miterlimit="10" d="M148.141,96.717
		c0,0.646-1.474,1.168-3.287,1.168s-3.285-0.521-3.285-1.168c0-0.646,1.472-1.17,3.285-1.17
		C146.669,95.547,148.141,96.07,148.141,96.717z"/>
</g>
<g>
	<path id="repo1_61_" fill="#6ECCA8" stroke="#62B292" stroke-width="0.5" stroke-miterlimit="10" d="M141.569,87.926
		c0-0.646,1.472-1.168,3.285-1.168s3.287,0.521,3.287,1.168 M141.569,87.926v1.453c0,0.158,0.089,0.311,0.244,0.443
		c0.49,0.428,1.67,0.725,3.041,0.725c1.377,0,2.554-0.301,3.043-0.725c0.156-0.135,0.244-0.285,0.244-0.443v-1.453"/>
	<path fill="#6ECCA8" stroke="#62B292" stroke-width="0.5" stroke-miterlimit="10" d="M148.141,87.926
		c0,0.646-1.474,1.168-3.287,1.168s-3.285-0.521-3.285-1.168c0-0.646,1.472-1.168,3.285-1.168
		C146.669,86.758,148.141,87.279,148.141,87.926z"/>
	<path id="repo1_60_" fill="#6ECCA8" stroke="#62B292" stroke-width="0.5" stroke-miterlimit="10" d="M141.569,86.471
		c0-0.646,1.472-1.17,3.285-1.17s3.287,0.521,3.287,1.17 M141.569,86.471v1.455c0,0.154,0.089,0.307,0.244,0.441
		c0.49,0.428,1.67,0.727,3.041,0.727c1.377,0,2.554-0.305,3.043-0.727c0.156-0.137,0.244-0.287,0.244-0.441v-1.455"/>
	<path fill="#6ECCA8" stroke="#62B292" stroke-width="0.5" stroke-miterlimit="10" d="M148.141,86.471
		c0,0.646-1.474,1.168-3.287,1.168s-3.285-0.521-3.285-1.168c0-0.646,1.472-1.17,3.285-1.17
		C146.669,85.301,148.141,85.824,148.141,86.471z"/>
	<path id="repo1_59_" fill="#6ECCA8" stroke="#62B292" stroke-width="0.5" stroke-miterlimit="10" d="M141.569,85.016
		c0-0.646,1.472-1.17,3.285-1.17s3.287,0.521,3.287,1.17 M141.569,85.016v1.455c0,0.154,0.089,0.307,0.244,0.441
		c0.49,0.43,1.67,0.727,3.041,0.727c1.377,0,2.554-0.305,3.043-0.727c0.156-0.137,0.244-0.287,0.244-0.441v-1.455"/>
	<path fill="#6ECCA8" stroke="#62B292" stroke-width="0.5" stroke-miterlimit="10" d="M148.141,85.016
		c0,0.646-1.474,1.168-3.287,1.168s-3.285-0.521-3.285-1.168c0-0.646,1.472-1.17,3.285-1.17
		C146.669,83.846,148.141,84.367,148.141,85.016z"/>
	<path id="repo1_58_" fill="#6ECCA8" stroke="#62B292" stroke-width="0.5" stroke-miterlimit="10" d="M141.569,83.559
		c0-0.646,1.472-1.168,3.285-1.168s3.287,0.521,3.287,1.168 M141.569,83.559v1.457c0,0.152,0.089,0.308,0.244,0.441
		c0.49,0.428,1.67,0.727,3.041,0.727c1.377,0,2.554-0.305,3.043-0.727c0.156-0.137,0.244-0.289,0.244-0.441v-1.457"/>
	<path fill="#6ECCA8" stroke="#62B292" stroke-width="0.5" stroke-miterlimit="10" d="M148.141,83.559
		c0,0.646-1.474,1.168-3.287,1.168s-3.285-0.521-3.285-1.168c0-0.646,1.472-1.168,3.285-1.168
		C146.669,82.391,148.141,82.912,148.141,83.559z"/>
</g>
<text transform="matrix(1 0 0 1 141.8901 73.7988)" fill="#404040" font-family="'NettoOT-Bold'" font-size="2.5">v1.2.0</text>
<circle fill="#94FFDD" stroke="#88E5C3" stroke-width="0.5" stroke-miterlimit="10" cx="125.348" cy="40.771" r="3.348"/>
<path fill="none" stroke="#DDDDDD" stroke-width="0.5" stroke-miterlimit="10" d="M144.848,79.977v-2.58 M146.048,79.023l-1.2,1.188
	l-1.188-1.188"/>
<g>
	
		<line fill="none" stroke="#DDDDDD" stroke-width="0.5" stroke-miterlimit="10" x1="144.856" y1="92.164" x2="144.856" y2="93.934"/>
	
		<line fill="none" stroke="#DDDDDD" stroke-width="0.5" stroke-miterlimit="10" x1="143.971" y1="93.121" x2="145.739" y2="93.121"/>
</g>
<g>
	<path fill="none" stroke="#DDDDDD" stroke-width="0.5" stroke-miterlimit="10" d="M128.533,40.771c3.604,0,6.536,2.934,6.536,6.538
		v12.953c0,3.604,2.937,6.535,6.537,6.535"/>
</g>
<circle fill="#B18BE8" stroke="#404040" stroke-width="0.6" stroke-miterlimit="10" cx="114.348" cy="40.771" r="3.348"/>
<path fill="#94FFDD" stroke="#88E5C3" stroke-width="0.5" stroke-miterlimit="10" d="M18.865,1.609H33.98v7.855H18.865V1.609z"/>
<path fill="#404040" d="M22.074,6.481V4.814h0.58c0.426,0,0.803,0.283,0.803,0.834c0,0.551-0.377,0.833-0.803,0.833H22.074z
	 M22.641,6.276c0.309,0,0.561-0.204,0.561-0.628c0-0.427-0.254-0.63-0.561-0.63h-0.35v1.258H22.641z M24.84,6.15
	c-0.068,0.204-0.258,0.36-0.504,0.36c-0.301,0-0.566-0.22-0.566-0.612c0-0.359,0.252-0.597,0.531-0.597
	c0.348,0,0.555,0.236,0.555,0.597v0.08h-0.848c0,0.201,0.152,0.345,0.346,0.345c0.186,0,0.279-0.093,0.311-0.235L24.84,6.15z
	 M24.615,5.789c0-0.158-0.104-0.285-0.312-0.285c-0.188,0-0.293,0.145-0.312,0.285H24.615z M25.799,6.481h-0.225l-0.473-1.133h0.256
	l0.324,0.882l0.332-0.882h0.236L25.799,6.481z M27.473,6.15c-0.062,0.204-0.248,0.36-0.5,0.36c-0.295,0-0.562-0.22-0.562-0.612
	c0-0.359,0.252-0.597,0.547-0.597c0.35,0,0.553,0.236,0.553,0.597v0.08h-0.85c0,0.201,0.156,0.345,0.342,0.345
	c0.191,0,0.285-0.093,0.316-0.235L27.473,6.15z M27.258,5.789c0-0.158-0.109-0.285-0.314-0.285c-0.189,0-0.295,0.145-0.312,0.285
	H27.258z M27.885,6.481V4.768h0.223v1.714L27.885,6.481L27.885,6.481z M29.676,5.913c0,0.347-0.234,0.598-0.58,0.598
	c-0.352,0-0.58-0.251-0.58-0.598c0-0.344,0.229-0.596,0.58-0.596C29.428,5.302,29.676,5.57,29.676,5.913z M29.439,5.913
	c0-0.266-0.16-0.409-0.346-0.409c-0.188,0-0.35,0.145-0.35,0.409c0,0.267,0.162,0.409,0.35,0.409
	C29.279,6.322,29.439,6.165,29.439,5.913z M30.066,6.919v-1.57h0.223v0.175c0.062-0.111,0.189-0.205,0.373-0.205
	c0.352,0,0.523,0.268,0.523,0.596c0,0.332-0.191,0.598-0.539,0.598c-0.172,0-0.312-0.076-0.357-0.188v0.598h-0.223V6.919z
	 M30.617,5.523c-0.203,0-0.328,0.171-0.328,0.391c0,0.236,0.145,0.409,0.328,0.409c0.205,0,0.33-0.173,0.33-0.409
	C30.965,5.678,30.84,5.523,30.617,5.523z"/>
<path fill="#62B3CC" stroke="#57A1B2" stroke-width="0.5" stroke-miterlimit="10" d="M2,1.608h15.113v7.857H2V1.608z"/>
<path fill="#404040" d="M7.451,6.481V5.174L6.887,6.481H6.684L6.119,5.174v1.307h-0.24V4.813h0.314L6.791,6.18l0.598-1.367h0.314
	v1.668H7.451z M8.457,5.834l0.299-0.047c0.062-0.016,0.096-0.047,0.096-0.08c0-0.107-0.078-0.205-0.254-0.205
	c-0.154,0-0.234,0.098-0.25,0.238L8.145,5.692c0.015-0.22,0.218-0.359,0.472-0.359c0.346,0,0.471,0.189,0.471,0.408V6.29
	c0,0.094,0.018,0.156,0.018,0.189H8.879c0-0.033-0.014-0.08-0.014-0.158C8.818,6.399,8.707,6.51,8.504,6.51
	c-0.232,0-0.377-0.154-0.377-0.346C8.111,5.978,8.27,5.851,8.457,5.834z M8.85,5.993V5.944L8.504,5.993
	C8.41,6.009,8.346,6.056,8.346,6.165c0,0.08,0.062,0.158,0.188,0.158C8.709,6.322,8.85,6.245,8.85,5.993z M9.637,6.118
	c0.016,0.127,0.107,0.205,0.266,0.205c0.127,0,0.189-0.078,0.189-0.158c0-0.061-0.051-0.125-0.145-0.139L9.76,5.979
	C9.586,5.946,9.479,5.821,9.479,5.663c0-0.188,0.188-0.359,0.406-0.359c0.312,0,0.406,0.201,0.426,0.299l-0.188,0.076
	c-0.016-0.061-0.062-0.188-0.236-0.188c-0.109,0-0.189,0.08-0.189,0.158c0,0.061,0.049,0.125,0.127,0.143l0.189,0.047
	c0.205,0.045,0.312,0.172,0.312,0.328c0,0.158-0.143,0.346-0.408,0.346c-0.312,0-0.438-0.201-0.453-0.328L9.637,6.118z M11.02,5.349
	h0.25v0.205h-0.25v0.58c0,0.111,0.045,0.158,0.154,0.158c0.029,0,0.062,0,0.096-0.016v0.188c-0.018,0-0.078,0.018-0.156,0.018
	c-0.188,0-0.312-0.127-0.312-0.332V5.522h-0.223V5.349h0.062c0.127,0,0.174-0.08,0.174-0.174V4.987h0.205V5.349z M12.652,6.149
	c-0.06,0.205-0.252,0.362-0.502,0.362c-0.301,0-0.566-0.219-0.566-0.613c0-0.359,0.252-0.596,0.553-0.596
	c0.346,0,0.551,0.236,0.551,0.596V5.96h-0.852c0,0.205,0.156,0.346,0.348,0.346c0.188,0,0.281-0.094,0.311-0.234L12.652,6.149z
	 M12.432,5.788c0-0.158-0.109-0.285-0.314-0.285c-0.188,0-0.299,0.145-0.311,0.285H12.432z M13.688,5.569h-0.094
	c-0.189,0-0.312,0.094-0.312,0.344v0.568h-0.221v-1.13h0.221v0.203c0.078-0.174,0.219-0.221,0.346-0.221h0.076v0.236H13.688
	L13.688,5.569z"/>
<text transform="matrix(1 0 0 1 202.0366 6.5625)" fill="#404040" font-family="'NettoOT-Bold'" font-size="2.5">Data</text>
<g>
	<path id="repo1_36_" fill="#6ECCA8" stroke="#62B292" stroke-width="0.5" stroke-miterlimit="10" d="M192.735,6.993
		c0-0.646,1.474-1.168,3.288-1.168c1.816,0,3.287,0.521,3.287,1.168 M192.735,6.993v1.455c0,0.158,0.089,0.309,0.246,0.443
		c0.489,0.428,1.671,0.725,3.042,0.725c1.377,0,2.551-0.301,3.043-0.725c0.156-0.135,0.244-0.285,0.244-0.443V6.993"/>
	<path fill="#6ECCA8" stroke="#62B292" stroke-width="0.5" stroke-miterlimit="10" d="M199.31,6.993
		c0,0.646-1.471,1.168-3.287,1.168c-1.814,0-3.288-0.521-3.288-1.168s1.474-1.168,3.288-1.168
		C197.839,5.825,199.31,6.347,199.31,6.993z"/>
	<path id="repo1_35_" fill="#6ECCA8" stroke="#62B292" stroke-width="0.5" stroke-miterlimit="10" d="M192.735,5.538
		c0-0.646,1.474-1.17,3.288-1.17c1.816,0,3.287,0.523,3.287,1.17 M192.735,5.538v1.455c0,0.156,0.089,0.307,0.246,0.443
		c0.489,0.428,1.671,0.725,3.042,0.725c1.377,0,2.551-0.303,3.043-0.725c0.156-0.137,0.244-0.287,0.244-0.443V5.538"/>
	<path fill="#6ECCA8" stroke="#62B292" stroke-width="0.5" stroke-miterlimit="10" d="M199.31,5.538
		c0,0.646-1.471,1.168-3.287,1.168c-1.814,0-3.288-0.521-3.288-1.168s1.474-1.17,3.288-1.17
		C197.839,4.368,199.31,4.892,199.31,5.538z"/>
	<path id="repo1_34_" fill="#6ECCA8" stroke="#62B292" stroke-width="0.5" stroke-miterlimit="10" d="M192.735,4.083
		c0-0.648,1.474-1.17,3.288-1.17c1.816,0,3.287,0.521,3.287,1.17 M192.735,4.083v1.455c0,0.156,0.089,0.307,0.246,0.443
		c0.489,0.428,1.671,0.725,3.042,0.725c1.377,0,2.551-0.303,3.043-0.725c0.156-0.137,0.244-0.287,0.244-0.443V4.083"/>
	<path fill="#6ECCA8" stroke="#62B292" stroke-width="0.5" stroke-miterlimit="10" d="M199.31,4.083
		c0,0.645-1.471,1.168-3.287,1.168c-1.814,0-3.288-0.523-3.288-1.168c0-0.648,1.474-1.17,3.288-1.17
		C197.839,2.913,199.31,3.435,199.31,4.083z"/>
	<path id="repo1_32_" fill="#6ECCA8" stroke="#62B292" stroke-width="0.5" stroke-miterlimit="10" d="M192.735,2.625
		c0-0.646,1.472-1.168,3.288-1.168s3.287,0.521,3.287,1.168 M192.735,2.625v1.457c0,0.154,0.089,0.307,0.246,0.443
		c0.489,0.426,1.671,0.725,3.042,0.725c1.377,0,2.551-0.303,3.043-0.725c0.156-0.137,0.244-0.289,0.244-0.443V2.625"/>
	<path fill="#6ECCA8" stroke="#62B292" stroke-width="0.5" stroke-miterlimit="10" d="M199.31,2.625
		c0,0.646-1.471,1.168-3.287,1.168c-1.814,0-3.288-0.521-3.288-1.168s1.472-1.168,3.288-1.168S199.31,1.979,199.31,2.625z"/>
</g>
<text transform="matrix(1 0 0 1 179.2358 6.5625)" fill="#404040" font-family="'NettoOT-Bold'" font-size="2.5">Schema</text>
<g>
	<path id="repo1_40_" fill="#FFA759" stroke="#E59153" stroke-width="0.5" stroke-miterlimit="10" d="M169.934,6.993
		c0-0.646,1.471-1.168,3.285-1.168c1.815,0,3.286,0.521,3.286,1.168 M169.934,6.993v1.455c0,0.158,0.088,0.309,0.244,0.443
		c0.489,0.428,1.67,0.725,3.041,0.725c1.377,0,2.553-0.301,3.043-0.725c0.155-0.135,0.243-0.285,0.243-0.443V6.993"/>
	<path fill="#FFA759" stroke="#E59153" stroke-width="0.5" stroke-miterlimit="10" d="M176.507,6.993
		c0,0.646-1.471,1.168-3.286,1.168c-1.816,0-3.287-0.521-3.287-1.168s1.471-1.168,3.287-1.168
		C175.037,5.825,176.507,6.347,176.507,6.993z"/>
	<path id="repo1_39_" fill="#FFA759" stroke="#E59153" stroke-width="0.5" stroke-miterlimit="10" d="M169.934,5.538
		c0-0.646,1.471-1.17,3.285-1.17c1.815,0,3.286,0.523,3.286,1.17 M169.934,5.538v1.455c0,0.156,0.088,0.307,0.244,0.443
		c0.489,0.428,1.67,0.725,3.041,0.725c1.377,0,2.553-0.303,3.043-0.725c0.155-0.137,0.243-0.287,0.243-0.443V5.538"/>
	<path fill="#FFA759" stroke="#E59153" stroke-width="0.5" stroke-miterlimit="10" d="M176.507,5.538
		c0,0.646-1.471,1.168-3.286,1.168c-1.816,0-3.287-0.521-3.287-1.168s1.471-1.17,3.287-1.17
		C175.037,4.368,176.507,4.892,176.507,5.538z"/>
	<path id="repo1_38_" fill="#FFA759" stroke="#E59153" stroke-width="0.5" stroke-miterlimit="10" d="M169.934,4.083
		c0-0.648,1.471-1.17,3.285-1.17c1.815,0,3.286,0.521,3.286,1.17 M169.934,4.083v1.455c0,0.156,0.088,0.307,0.244,0.443
		c0.489,0.428,1.67,0.725,3.041,0.725c1.377,0,2.553-0.303,3.043-0.725c0.155-0.137,0.243-0.287,0.243-0.443V4.083"/>
	<path fill="#FFA759" stroke="#E59153" stroke-width="0.5" stroke-miterlimit="10" d="M176.507,4.083
		c0,0.645-1.471,1.168-3.286,1.168c-1.816,0-3.287-0.523-3.287-1.168c0-0.648,1.471-1.17,3.287-1.17
		C175.037,2.913,176.507,3.435,176.507,4.083z"/>
	<path id="repo1_37_" fill="#FFA759" stroke="#E59153" stroke-width="0.5" stroke-miterlimit="10" d="M169.934,2.625
		c0-0.646,1.471-1.168,3.287-1.168c1.815,0,3.286,0.521,3.286,1.168 M169.934,2.625v1.457c0,0.154,0.088,0.307,0.244,0.443
		c0.489,0.426,1.67,0.725,3.041,0.725c1.377,0,2.553-0.303,3.043-0.725c0.155-0.137,0.243-0.289,0.243-0.443V2.625"/>
	<path fill="#FFA759" stroke="#E59153" stroke-width="0.5" stroke-miterlimit="10" d="M176.507,2.625
		c0,0.646-1.471,1.168-3.286,1.168c-1.816,0-3.287-0.521-3.287-1.168s1.471-1.168,3.287-1.168
		C175.037,1.457,176.507,1.979,176.507,2.625z"/>
</g>
<g>
	<path id="repo1_30_" fill="#F96B6B" stroke="#CC5A5A" stroke-width="0.5" stroke-miterlimit="10" d="M160.819,27.415
		c0-0.646,1.472-1.168,3.287-1.168c1.817,0,3.289,0.521,3.289,1.168 M160.819,27.415v1.457c0,0.154,0.089,0.307,0.246,0.443
		c0.488,0.426,1.67,0.725,3.041,0.725c1.379,0,2.554-0.303,3.045-0.725c0.156-0.137,0.244-0.289,0.244-0.443v-1.457"/>
	<path fill="#F96B6B" stroke="#CC5A5A" stroke-width="0.5" stroke-miterlimit="10" d="M167.395,27.415
		c0,0.646-1.472,1.168-3.289,1.168c-1.815,0-3.287-0.521-3.287-1.168s1.472-1.168,3.287-1.168
		C165.923,26.247,167.395,26.769,167.395,27.415z"/>
</g>
<text transform="matrix(1 0 0 1 221.1479 6.6895)" fill="#404040" font-family="'NettoOT-Bold'" font-size="2.5">Patch</text>
<circle fill="#94FFDD" stroke="#88E5C3" stroke-width="0.5" stroke-miterlimit="10" cx="153.453" cy="40.692" r="3.348"/>
<circle fill="#94FFDD" stroke="#88E5C3" stroke-width="0.5" stroke-miterlimit="10" cx="164.171" cy="40.692" r="3.348"/>
<g>
	<path id="repo1_41_" fill="#F96B6B" stroke="#CC5A5A" stroke-width="0.5" stroke-miterlimit="10" d="M212.33,4.935
		c0-0.646,1.471-1.168,3.285-1.168c1.816,0,3.287,0.521,3.287,1.168 M212.33,4.935v1.457c0,0.154,0.088,0.307,0.244,0.443
		c0.488,0.426,1.672,0.725,3.041,0.725c1.377,0,2.553-0.303,3.043-0.725c0.156-0.137,0.244-0.289,0.244-0.443V4.935"/>
	<path fill="#F96B6B" stroke="#CC5A5A" stroke-width="0.5" stroke-miterlimit="10" d="M218.904,4.935
		c0,0.646-1.471,1.168-3.287,1.168c-1.813,0-3.285-0.521-3.285-1.168s1.472-1.168,3.285-1.168
		C217.433,3.767,218.904,4.289,218.904,4.935z"/>
</g>
<path fill="none" stroke="#DDDDDD" stroke-width="0.5" stroke-miterlimit="10" d="M164.114,32.502v2.58 M162.912,33.455l1.202-1.188
	l1.189,1.188"/>
<text transform="matrix(1 0 0 1 159.8862 23.4648)" fill="#404040" font-family="'NettoOT-Bold'" font-size="2.5">patch-4</text>
<g>
	<path id="repo1_1_" fill="#F96B6B" stroke="#CC5A5A" stroke-width="0.5" stroke-miterlimit="10" d="M180.653,27.415
		c0-0.646,1.472-1.168,3.287-1.168c1.817,0,3.289,0.521,3.289,1.168 M180.653,27.415v1.457c0,0.154,0.089,0.307,0.246,0.443
		c0.488,0.426,1.67,0.725,3.041,0.725c1.379,0,2.554-0.303,3.045-0.725c0.156-0.137,0.244-0.289,0.244-0.443v-1.457"/>
	<path fill="#F96B6B" stroke="#CC5A5A" stroke-width="0.5" stroke-miterlimit="10" d="M187.229,27.415
		c0,0.646-1.472,1.168-3.289,1.168c-1.815,0-3.287-0.521-3.287-1.168s1.472-1.168,3.287-1.168
		C185.757,26.247,187.229,26.769,187.229,27.415z"/>
</g>
<path fill="none" stroke="#DDDDDD" stroke-width="0.5" stroke-miterlimit="10" d="M183.949,32.502v2.58 M182.746,33.455l1.203-1.188
	l1.188,1.188"/>
<text transform="matrix(1 0 0 1 179.7183 23.4648)" fill="#404040" font-family="'NettoOT-Bold'" font-size="2.5">patch-5</text>
<path fill="none" stroke="#DDDDDD" stroke-width="0.5" stroke-miterlimit="10" d="M161.178,53.885c-3.604,0-6.539,2.932-6.539,6.533
	 M148.102,66.877c3.604,0,6.537-2.934,6.537-6.537"/>
<circle fill="#94FFDD" stroke="#88E5C3" stroke-width="0.5" stroke-miterlimit="10" cx="183.878" cy="40.811" r="3.349"/>
<circle fill="#1B7C99" stroke="#176C7F" stroke-width="0.5" stroke-miterlimit="10" cx="164.108" cy="53.885" r="3.348"/>
<circle fill="#62B3CC" stroke="#57A1B2" stroke-width="0.5" stroke-miterlimit="10" cx="144.854" cy="66.846" r="3.248"/>
<path fill="none" stroke="#DDDDDD" stroke-width="0.5" stroke-miterlimit="10" d="M173.994,60.418c0-3.604-2.935-6.533-6.537-6.533"
	/>
<path fill="none" stroke="#DDDDDD" stroke-width="0.5" stroke-miterlimit="10" d="M173.994,60.418c0,3.605,2.936,6.537,6.536,6.537"
	/>
<line fill="none" stroke="#DDDDDD" stroke-width="0.5" stroke-miterlimit="10" x1="148.102" y1="66.877" x2="221.705" y2="66.877"/>
<text transform="matrix(1 0 0 1 180.9175 73.8896)" fill="#404040" font-family="'NettoOT-Bold'" font-size="2.5">v1.2.1</text>
<path fill="none" stroke="#DDDDDD" stroke-width="0.5" stroke-miterlimit="10" d="M180.53,40.891c-3.604,0-6.536,2.932-6.536,6.535
	 M167.457,53.885c3.604,0,6.537-2.935,6.537-6.538"/>
<path fill="#1B7C99" stroke="#176C7F" stroke-width="0.5" stroke-miterlimit="10" d="M35.98,1.609h15.113v7.855H35.98V1.609z"/>
<path fill="#404040" d="M41.494,6.48V5.743h-0.848V6.48H40.41V4.814h0.236v0.709h0.848V4.814h0.236V6.48H41.494z M43.301,5.913
	c0,0.348-0.234,0.6-0.58,0.6c-0.348,0-0.582-0.252-0.582-0.6c0-0.344,0.234-0.596,0.582-0.596
	C43.064,5.303,43.301,5.57,43.301,5.913z M43.08,5.913c0-0.266-0.156-0.408-0.346-0.408s-0.346,0.145-0.346,0.408
	c0,0.268,0.156,0.41,0.346,0.41S43.08,6.166,43.08,5.913z M43.992,5.35h0.252v0.205h-0.252v0.58c0,0.109,0.047,0.156,0.158,0.156
	c0.031,0,0.061,0,0.094-0.016v0.188c-0.018,0-0.078,0.018-0.158,0.018c-0.188,0-0.312-0.127-0.312-0.332V5.521h-0.221V5.348h0.062
	c0.125,0,0.172-0.08,0.172-0.172v-0.19h0.205V5.35z M45.217,4.784v0.205c-0.016,0-0.047-0.016-0.096-0.016
	c-0.078,0-0.172,0.031-0.172,0.188v0.187h0.754V6.48h-0.221V5.553h-0.533V6.48h-0.234V5.553H44.51V5.348h0.205V5.161
	c0-0.252,0.172-0.395,0.377-0.395C45.154,4.768,45.201,4.784,45.217,4.784z M45.578,4.751c0.096,0,0.158,0.061,0.158,0.156
	c0,0.095-0.078,0.158-0.158,0.158c-0.094,0-0.156-0.08-0.156-0.158C45.422,4.814,45.5,4.751,45.578,4.751z M46.443,5.898
	l-0.41-0.549h0.27l0.281,0.393l0.27-0.393h0.268l-0.41,0.549c0.064,0.096,0.348,0.486,0.426,0.582H46.87l-0.3-0.423L46.285,6.48
	H46.02L46.443,5.898z"/>
<path fill="none" stroke="#404040" stroke-width="0.6" stroke-miterlimit="10" d="M48.354,67.031h-4.146l0,0"/>
<path fill="none" stroke="#DDDDDD" stroke-width="0.5" stroke-miterlimit="10" d="M141.606,66.951H44.207l0,0"/>
<circle fill="#62B3CC" stroke="#57A1B2" stroke-width="0.5" stroke-miterlimit="10" cx="47.453" cy="67.031" r="3.248"/>
<g>
	<path id="repo1_19_" fill="#FFA759" stroke="#E59153" stroke-width="0.5" stroke-miterlimit="10" d="M44.168,101.27
		c0-0.646,1.471-1.168,3.285-1.168c1.816,0,3.287,0.521,3.287,1.168 M44.168,101.27v1.455c0,0.158,0.088,0.31,0.244,0.443
		c0.49,0.428,1.67,0.725,3.041,0.725c1.377,0,2.553-0.301,3.043-0.725c0.156-0.135,0.244-0.285,0.244-0.443v-1.455"/>
	<path fill="#FFA759" stroke="#E59153" stroke-width="0.5" stroke-miterlimit="10" d="M50.74,101.27
		c0,0.646-1.471,1.168-3.287,1.168c-1.814,0-3.285-0.521-3.285-1.168c0-0.646,1.471-1.168,3.285-1.168
		C49.27,100.102,50.74,100.623,50.74,101.27z"/>
	<path id="repo1_18_" fill="#FFA759" stroke="#E59153" stroke-width="0.5" stroke-miterlimit="10" d="M44.168,99.814
		c0-0.646,1.471-1.17,3.285-1.17c1.816,0,3.287,0.522,3.287,1.17 M44.168,99.814v1.455c0,0.155,0.088,0.307,0.244,0.442
		c0.49,0.429,1.67,0.726,3.041,0.726c1.377,0,2.553-0.304,3.043-0.726c0.156-0.137,0.244-0.287,0.244-0.442v-1.455"/>
	<path fill="#FFA759" stroke="#E59153" stroke-width="0.5" stroke-miterlimit="10" d="M50.74,99.814
		c0,0.646-1.471,1.168-3.287,1.168c-1.814,0-3.285-0.521-3.285-1.168c0-0.647,1.471-1.17,3.285-1.17
		C49.27,98.645,50.74,99.168,50.74,99.814z"/>
	<path id="repo1_17_" fill="#FFA759" stroke="#E59153" stroke-width="0.5" stroke-miterlimit="10" d="M44.168,98.359
		c0-0.648,1.471-1.17,3.285-1.17c1.816,0,3.287,0.521,3.287,1.17 M44.168,98.359v1.455c0,0.156,0.088,0.307,0.244,0.442
		c0.49,0.429,1.67,0.726,3.041,0.726c1.377,0,2.553-0.303,3.043-0.726c0.156-0.137,0.244-0.286,0.244-0.442v-1.455"/>
	<path fill="#FFA759" stroke="#E59153" stroke-width="0.5" stroke-miterlimit="10" d="M50.74,98.359
		c0,0.645-1.471,1.168-3.287,1.168c-1.814,0-3.285-0.523-3.285-1.168c0-0.648,1.471-1.17,3.285-1.17
		C49.27,97.189,50.74,97.711,50.74,98.359z"/>
	<path id="repo1_16_" fill="#FFA759" stroke="#E59153" stroke-width="0.5" stroke-miterlimit="10" d="M44.168,96.902
		c0-0.646,1.471-1.168,3.285-1.168c1.816,0,3.287,0.521,3.287,1.168 M44.168,96.902v1.457c0,0.154,0.088,0.307,0.244,0.442
		c0.49,0.427,1.67,0.726,3.041,0.726c1.377,0,2.553-0.303,3.043-0.726c0.156-0.137,0.244-0.288,0.244-0.442v-1.457"/>
	<path fill="#FFA759" stroke="#E59153" stroke-width="0.5" stroke-miterlimit="10" d="M50.74,96.902
		c0,0.646-1.471,1.168-3.287,1.168c-1.814,0-3.285-0.521-3.285-1.168c0-0.647,1.471-1.168,3.285-1.168
		C49.27,95.734,50.74,96.256,50.74,96.902z"/>
</g>
<g>
	<path id="repo1_15_" fill="#6ECCA8" stroke="#62B292" stroke-width="0.5" stroke-miterlimit="10" d="M44.168,88.111
		c0-0.646,1.471-1.168,3.285-1.168c1.816,0,3.287,0.521,3.287,1.168 M44.168,88.111v1.455c0,0.158,0.088,0.309,0.244,0.442
		c0.49,0.429,1.67,0.726,3.041,0.726c1.377,0,2.553-0.301,3.043-0.726c0.156-0.135,0.244-0.284,0.244-0.442v-1.455"/>
	<path fill="#6ECCA8" stroke="#62B292" stroke-width="0.5" stroke-miterlimit="10" d="M50.74,88.111
		c0,0.646-1.471,1.168-3.287,1.168c-1.814,0-3.285-0.521-3.285-1.168c0-0.647,1.471-1.168,3.285-1.168
		C49.27,86.943,50.74,87.465,50.74,88.111z"/>
	<path id="repo1_14_" fill="#6ECCA8" stroke="#62B292" stroke-width="0.5" stroke-miterlimit="10" d="M44.168,86.656
		c0-0.646,1.471-1.17,3.285-1.17c1.816,0,3.287,0.522,3.287,1.17 M44.168,86.656v1.455c0,0.156,0.088,0.307,0.244,0.443
		c0.49,0.428,1.67,0.725,3.041,0.725c1.377,0,2.553-0.303,3.043-0.725c0.156-0.138,0.244-0.287,0.244-0.443v-1.455"/>
	<path fill="#6ECCA8" stroke="#62B292" stroke-width="0.5" stroke-miterlimit="10" d="M50.74,86.656
		c0,0.646-1.471,1.168-3.287,1.168c-1.814,0-3.285-0.52-3.285-1.168c0-0.646,1.471-1.17,3.285-1.17
		C49.27,85.486,50.74,86.01,50.74,86.656z"/>
	<path id="repo1_13_" fill="#6ECCA8" stroke="#62B292" stroke-width="0.5" stroke-miterlimit="10" d="M44.168,85.201
		c0-0.646,1.471-1.17,3.285-1.17c1.816,0,3.287,0.521,3.287,1.17 M44.168,85.201v1.455c0,0.156,0.088,0.307,0.244,0.443
		c0.49,0.428,1.67,0.725,3.041,0.725c1.377,0,2.553-0.303,3.043-0.725c0.156-0.138,0.244-0.287,0.244-0.443v-1.455"/>
	<path fill="#6ECCA8" stroke="#62B292" stroke-width="0.5" stroke-miterlimit="10" d="M50.74,85.201
		c0,0.646-1.471,1.168-3.287,1.168c-1.814,0-3.285-0.521-3.285-1.168s1.471-1.17,3.285-1.17C49.27,84.031,50.74,84.553,50.74,85.201
		z"/>
	<path id="repo1_12_" fill="#6ECCA8" stroke="#62B292" stroke-width="0.5" stroke-miterlimit="10" d="M44.168,83.744
		c0-0.645,1.471-1.168,3.285-1.168c1.816,0,3.287,0.521,3.287,1.168 M44.168,83.744v1.457c0,0.154,0.088,0.307,0.244,0.443
		c0.49,0.426,1.67,0.725,3.041,0.725c1.377,0,2.553-0.303,3.043-0.725c0.156-0.138,0.244-0.289,0.244-0.443v-1.457"/>
	<path fill="#6ECCA8" stroke="#62B292" stroke-width="0.5" stroke-miterlimit="10" d="M50.74,83.744
		c0,0.646-1.471,1.168-3.287,1.168c-1.814,0-3.285-0.52-3.285-1.168c0-0.646,1.471-1.168,3.285-1.168
		C49.27,82.576,50.74,83.098,50.74,83.744z"/>
</g>
<text transform="matrix(1 0 0 1 44.4912 73.9834)" fill="#404040" font-family="'NettoOT-Bold'" font-size="2.5">v1.0.0</text>
<circle fill="none" stroke="#DDDDDD" stroke-width="0.5" stroke-miterlimit="10" cx="27.948" cy="40.955" r="3.348"/>
<path fill="none" stroke="#DDDDDD" stroke-width="0.5" stroke-miterlimit="10" d="M47.447,80.162v-2.58 M48.648,79.209l-1.201,1.189
	l-1.189-1.189"/>
<g>
	<line fill="none" stroke="#DDDDDD" stroke-width="0.5" stroke-miterlimit="10" x1="47.455" y1="92.352" x2="47.455" y2="94.119"/>
	<line fill="none" stroke="#DDDDDD" stroke-width="0.5" stroke-miterlimit="10" x1="46.57" y1="93.307" x2="48.338" y2="93.307"/>
</g>
<g>
	<path id="repo1_11_" fill="#FFA759" stroke="#E59153" stroke-width="0.5" stroke-miterlimit="10" d="M93.874,101.27
		c0-0.646,1.471-1.168,3.287-1.168c1.814,0,3.287,0.521,3.287,1.168 M93.874,101.27v1.455c0,0.158,0.088,0.31,0.246,0.443
		c0.488,0.428,1.67,0.725,3.041,0.725c1.377,0,2.551-0.301,3.043-0.725c0.156-0.135,0.244-0.285,0.244-0.443v-1.455"/>
	<path fill="#FFA759" stroke="#E59153" stroke-width="0.5" stroke-miterlimit="10" d="M100.448,101.27
		c0,0.646-1.473,1.168-3.287,1.168c-1.816,0-3.287-0.521-3.287-1.168c0-0.646,1.471-1.168,3.287-1.168
		S100.448,100.623,100.448,101.27z"/>
	<path id="repo1_10_" fill="#FFA759" stroke="#E59153" stroke-width="0.5" stroke-miterlimit="10" d="M93.874,99.814
		c0-0.646,1.471-1.17,3.287-1.17c1.814,0,3.287,0.522,3.287,1.17 M93.874,99.814v1.455c0,0.155,0.088,0.307,0.246,0.442
		c0.488,0.429,1.67,0.726,3.041,0.726c1.377,0,2.551-0.304,3.043-0.726c0.156-0.137,0.244-0.287,0.244-0.442v-1.455"/>
	<path fill="#FFA759" stroke="#E59153" stroke-width="0.5" stroke-miterlimit="10" d="M100.448,99.814
		c0,0.646-1.473,1.168-3.287,1.168c-1.816,0-3.287-0.521-3.287-1.168c0-0.647,1.471-1.17,3.287-1.17S100.448,99.168,100.448,99.814z
		"/>
	<path id="repo1_9_" fill="#FFA759" stroke="#E59153" stroke-width="0.5" stroke-miterlimit="10" d="M93.874,98.359
		c0-0.648,1.471-1.17,3.287-1.17c1.814,0,3.287,0.521,3.287,1.17 M93.874,98.359v1.455c0,0.156,0.088,0.307,0.246,0.442
		c0.488,0.429,1.67,0.726,3.041,0.726c1.377,0,2.551-0.303,3.043-0.726c0.156-0.137,0.244-0.286,0.244-0.442v-1.455"/>
	<path fill="#FFA759" stroke="#E59153" stroke-width="0.5" stroke-miterlimit="10" d="M100.448,98.359
		c0,0.645-1.473,1.168-3.287,1.168c-1.816,0-3.287-0.523-3.287-1.168c0-0.648,1.471-1.17,3.287-1.17S100.448,97.711,100.448,98.359z
		"/>
	<path id="repo1_8_" fill="#FFA759" stroke="#E59153" stroke-width="0.5" stroke-miterlimit="10" d="M93.874,96.902
		c0-0.646,1.471-1.168,3.287-1.168c1.814,0,3.287,0.521,3.287,1.168 M93.874,96.902v1.457c0,0.154,0.088,0.307,0.246,0.442
		c0.488,0.427,1.67,0.726,3.041,0.726c1.377,0,2.551-0.303,3.043-0.726c0.156-0.137,0.244-0.288,0.244-0.442v-1.457"/>
	<path fill="#FFA759" stroke="#E59153" stroke-width="0.5" stroke-miterlimit="10" d="M100.448,96.902
		c0,0.646-1.473,1.168-3.287,1.168c-1.816,0-3.287-0.521-3.287-1.168c0-0.647,1.471-1.168,3.287-1.168
		S100.448,96.256,100.448,96.902z"/>
</g>
<g>
	<path id="repo1_7_" fill="#6ECCA8" stroke="#62B292" stroke-width="0.5" stroke-miterlimit="10" d="M93.874,88.111
		c0-0.646,1.471-1.168,3.287-1.168c1.814,0,3.287,0.521,3.287,1.168 M93.874,88.111v1.455c0,0.158,0.088,0.309,0.246,0.442
		c0.488,0.429,1.67,0.726,3.041,0.726c1.377,0,2.551-0.301,3.043-0.726c0.156-0.135,0.244-0.284,0.244-0.442v-1.455"/>
	<path fill="#6ECCA8" stroke="#62B292" stroke-width="0.5" stroke-miterlimit="10" d="M100.448,88.111
		c0,0.646-1.473,1.168-3.287,1.168c-1.816,0-3.287-0.521-3.287-1.168c0-0.647,1.471-1.168,3.287-1.168
		S100.448,87.465,100.448,88.111z"/>
	<path id="repo1_6_" fill="#6ECCA8" stroke="#62B292" stroke-width="0.5" stroke-miterlimit="10" d="M93.874,86.656
		c0-0.646,1.471-1.17,3.287-1.17c1.814,0,3.287,0.522,3.287,1.17 M93.874,86.656v1.455c0,0.156,0.088,0.307,0.246,0.443
		c0.488,0.428,1.67,0.725,3.041,0.725c1.377,0,2.551-0.303,3.043-0.725c0.156-0.138,0.244-0.287,0.244-0.443v-1.455"/>
	<path fill="#6ECCA8" stroke="#62B292" stroke-width="0.5" stroke-miterlimit="10" d="M100.448,86.656
		c0,0.646-1.473,1.168-3.287,1.168c-1.816,0-3.287-0.52-3.287-1.168c0-0.646,1.471-1.17,3.287-1.17S100.448,86.01,100.448,86.656z"
		/>
	<path id="repo1_5_" fill="#6ECCA8" stroke="#62B292" stroke-width="0.5" stroke-miterlimit="10" d="M93.874,85.201
		c0-0.646,1.471-1.17,3.287-1.17c1.814,0,3.287,0.521,3.287,1.17 M93.874,85.201v1.455c0,0.156,0.088,0.307,0.246,0.443
		c0.488,0.428,1.67,0.725,3.041,0.725c1.377,0,2.551-0.303,3.043-0.725c0.156-0.138,0.244-0.287,0.244-0.443v-1.455"/>
	<path fill="#6ECCA8" stroke="#62B292" stroke-width="0.5" stroke-miterlimit="10" d="M100.448,85.201
		c0,0.646-1.473,1.168-3.287,1.168c-1.816,0-3.287-0.521-3.287-1.168s1.471-1.17,3.287-1.17S100.448,84.553,100.448,85.201z"/>
	<path id="repo1_4_" fill="#6ECCA8" stroke="#62B292" stroke-width="0.5" stroke-miterlimit="10" d="M93.874,83.744
		c0-0.645,1.471-1.168,3.287-1.168c1.814,0,3.287,0.521,3.287,1.168 M93.874,83.744v1.457c0,0.154,0.088,0.307,0.246,0.443
		c0.488,0.426,1.67,0.725,3.041,0.725c1.377,0,2.551-0.303,3.043-0.725c0.156-0.138,0.244-0.289,0.244-0.443v-1.457"/>
	<path fill="#6ECCA8" stroke="#62B292" stroke-width="0.5" stroke-miterlimit="10" d="M100.448,83.744
		c0,0.646-1.473,1.168-3.287,1.168c-1.816,0-3.287-0.52-3.287-1.168c0-0.646,1.471-1.168,3.287-1.168S100.448,83.098,100.448,83.744
		z"/>
</g>
<path fill="none" stroke="#DDDDDD" stroke-width="0.5" stroke-miterlimit="10" d="M97.153,80.162v-2.58 M98.354,79.209l-1.201,1.189
	l-1.188-1.189"/>
<g>
	<line fill="none" stroke="#DDDDDD" stroke-width="0.5" stroke-miterlimit="10" x1="97.161" y1="92.352" x2="97.161" y2="94.119"/>
	<line fill="none" stroke="#DDDDDD" stroke-width="0.5" stroke-miterlimit="10" x1="96.278" y1="93.307" x2="98.045" y2="93.307"/>
</g>
<g>
	<path fill="none" stroke="#DDDDDD" stroke-width="0.5" stroke-miterlimit="10" d="M31.131,40.955c3.604,0,6.537,2.934,6.537,6.539
		v13c0,3.604,2.936,6.537,6.537,6.537"/>
</g>
<circle fill="#94FFDD" stroke="#88E5C3" stroke-width="0.5" stroke-miterlimit="10" cx="16.948" cy="40.955" r="3.348"/>
<circle fill="#94FFDD" stroke="#88E5C3" stroke-width="0.5" stroke-miterlimit="10" cx="5.948" cy="40.955" r="3.348"/>
<g>
	<path id="repo1_29_" fill="#F96B6B" stroke="#CC5A5A" stroke-width="0.5" stroke-miterlimit="10" d="M74.201,27.599
		c0-0.646,1.471-1.168,3.287-1.168c1.814,0,3.287,0.521,3.287,1.168 M74.201,27.599v1.457c0,0.154,0.088,0.307,0.246,0.443
		c0.488,0.426,1.67,0.725,3.041,0.725c1.377,0,2.551-0.303,3.043-0.725c0.154-0.137,0.244-0.289,0.244-0.443v-1.457"/>
	<path fill="#F96B6B" stroke="#CC5A5A" stroke-width="0.5" stroke-miterlimit="10" d="M80.775,27.599
		c0,0.646-1.473,1.168-3.287,1.168c-1.816,0-3.287-0.521-3.287-1.168s1.471-1.168,3.287-1.168
		C79.304,26.431,80.775,26.953,80.775,27.599z"/>
</g>
<g>
	<path id="repo1_3_" fill="#F96B6B" stroke="#CC5A5A" stroke-width="0.5" stroke-miterlimit="10" d="M63.418,27.599
		c0-0.646,1.471-1.168,3.287-1.168c1.818,0,3.289,0.521,3.289,1.168 M63.418,27.599v1.457c0,0.154,0.088,0.307,0.246,0.443
		c0.488,0.426,1.67,0.725,3.041,0.725c1.379,0,2.553-0.303,3.045-0.725c0.156-0.137,0.244-0.289,0.244-0.443v-1.457"/>
	<path fill="#F96B6B" stroke="#CC5A5A" stroke-width="0.5" stroke-miterlimit="10" d="M69.994,27.599
		c0,0.646-1.471,1.168-3.289,1.168c-1.816,0-3.287-0.521-3.287-1.168s1.471-1.168,3.287-1.168
		C68.523,26.431,69.994,26.953,69.994,27.599z"/>
</g>
<circle fill="#94FFDD" stroke="#88E5C3" stroke-width="0.5" stroke-miterlimit="10" cx="56.051" cy="40.876" r="3.348"/>
<circle fill="#94FFDD" stroke="#88E5C3" stroke-width="0.5" stroke-miterlimit="10" cx="66.771" cy="40.876" r="3.348"/>
<circle fill="#94FFDD" stroke="#88E5C3" stroke-width="0.5" stroke-miterlimit="10" cx="77.49" cy="40.876" r="3.348"/>
<path fill="none" stroke="#DDDDDD" stroke-width="0.5" stroke-miterlimit="10" d="M66.713,32.687v2.58 M65.51,33.639l1.203-1.188
	l1.189,1.188"/>
<path fill="none" stroke="#DDDDDD" stroke-width="0.5" stroke-miterlimit="10" d="M77.496,32.687v2.58 M76.293,33.639l1.203-1.188
	l1.188,1.188"/>
<text transform="matrix(1 0 0 1 62.5996 23.6494)" fill="#404040" font-family="'NettoOT-Bold'" font-size="2.5">patch-1</text>
<text transform="matrix(1 0 0 1 73.3516 23.6494)" fill="#404040" font-family="'NettoOT-Bold'" font-size="2.5">patch-2</text>
<circle fill="#62B3CC" stroke="#57A1B2" stroke-width="0.5" stroke-miterlimit="10" cx="97.161" cy="66.951" r="3.248"/>
<text transform="matrix(1 0 0 1 94.1982 73.9033)" fill="#404040" font-family="'NettoOT-Bold'" font-size="2.5">v1.1.0</text>
<g>
	<path fill="none" stroke="#DDDDDD" stroke-width="0.5" stroke-miterlimit="10" d="M80.838,40.876c3.604,0,6.537,2.934,6.537,6.538
		v13c0,3.605,2.936,6.537,6.538,6.537"/>
</g>
<g>
	<path id="repo1_2_" fill="#F96B6B" stroke="#CC5A5A" stroke-width="0.5" stroke-miterlimit="10" d="M111.125,27.522
		c0-0.646,1.471-1.168,3.287-1.168s3.287,0.521,3.287,1.168 M111.125,27.522v1.457c0,0.154,0.088,0.307,0.246,0.443
		c0.488,0.426,1.67,0.725,3.041,0.725c1.377,0,2.55-0.303,3.042-0.725c0.156-0.137,0.244-0.289,0.244-0.443v-1.457"/>
	<path fill="#F96B6B" stroke="#CC5A5A" stroke-width="0.5" stroke-miterlimit="10" d="M117.701,27.522
		c0,0.646-1.472,1.168-3.288,1.168s-3.287-0.521-3.287-1.168s1.471-1.168,3.287-1.168S117.701,26.876,117.701,27.522z"/>
</g>
<circle fill="#94FFDD" stroke="#88E5C3" stroke-width="0.5" stroke-miterlimit="10" cx="114.479" cy="40.799" r="3.348"/>
<path fill="none" stroke="#DDDDDD" stroke-width="0.5" stroke-miterlimit="10" d="M114.42,32.61v2.58 M113.217,33.562l1.203-1.188
	l1.188,1.188"/>
<text transform="matrix(1 0 0 1 110.2686 23.5723)" fill="#404040" font-family="'NettoOT-Bold'" font-size="2.5">patch-3</text>
<circle fill="#94FFDD" stroke="#88E5C3" stroke-width="0.5" stroke-miterlimit="10" cx="103.348" cy="40.771" r="3.348"/>
<g>
	<path id="repo1_27_" fill="#FFA759" stroke="#E59153" stroke-width="0.5" stroke-miterlimit="10" d="M221.667,101.094
		c0-0.645,1.471-1.168,3.285-1.168c1.813,0,3.287,0.521,3.287,1.168 M221.667,101.094v1.455c0,0.158,0.088,0.311,0.244,0.443
		c0.489,0.428,1.67,0.725,3.041,0.725c1.377,0,2.553-0.301,3.043-0.725c0.155-0.135,0.244-0.285,0.244-0.443v-1.455"/>
	<path fill="#FFA759" stroke="#E59153" stroke-width="0.5" stroke-miterlimit="10" d="M228.239,101.094
		c0,0.646-1.473,1.168-3.286,1.168c-1.814,0-3.285-0.52-3.285-1.168c0-0.645,1.471-1.168,3.285-1.168
		C226.768,99.926,228.239,100.449,228.239,101.094z"/>
	<path id="repo1_26_" fill="#FFA759" stroke="#E59153" stroke-width="0.5" stroke-miterlimit="10" d="M221.667,99.639
		c0-0.645,1.471-1.17,3.285-1.17c1.813,0,3.287,0.523,3.287,1.17 M221.667,99.639v1.455c0,0.156,0.088,0.309,0.244,0.443
		c0.489,0.428,1.67,0.725,3.041,0.725c1.377,0,2.553-0.303,3.043-0.725c0.155-0.137,0.244-0.287,0.244-0.443v-1.455"/>
	<path fill="#FFA759" stroke="#E59153" stroke-width="0.5" stroke-miterlimit="10" d="M228.239,99.639
		c0,0.646-1.473,1.168-3.286,1.168c-1.814,0-3.285-0.52-3.285-1.168c0-0.645,1.471-1.17,3.285-1.17
		C226.768,98.469,228.239,98.994,228.239,99.639z"/>
	<path id="repo1_25_" fill="#FFA759" stroke="#E59153" stroke-width="0.5" stroke-miterlimit="10" d="M221.667,98.184
		c0-0.646,1.471-1.17,3.285-1.17c1.813,0,3.287,0.521,3.287,1.17 M221.667,98.184v1.455c0,0.156,0.088,0.31,0.244,0.443
		c0.489,0.428,1.67,0.725,3.041,0.725c1.377,0,2.553-0.303,3.043-0.725c0.155-0.137,0.244-0.287,0.244-0.443v-1.455"/>
	<path fill="#FFA759" stroke="#E59153" stroke-width="0.5" stroke-miterlimit="10" d="M228.239,98.184
		c0,0.646-1.473,1.17-3.286,1.17c-1.814,0-3.285-0.522-3.285-1.17c0-0.646,1.471-1.17,3.285-1.17
		C226.768,97.014,228.239,97.537,228.239,98.184z"/>
	<path id="repo1_24_" fill="#FFA759" stroke="#E59153" stroke-width="0.5" stroke-miterlimit="10" d="M221.667,96.729
		c0-0.646,1.471-1.17,3.285-1.17c1.813,0,3.287,0.521,3.287,1.17 M221.667,96.729v1.455c0,0.154,0.088,0.31,0.244,0.443
		c0.489,0.426,1.67,0.727,3.041,0.727c1.377,0,2.553-0.305,3.043-0.727c0.155-0.137,0.244-0.289,0.244-0.443v-1.455"/>
	<path fill="#FFA759" stroke="#E59153" stroke-width="0.5" stroke-miterlimit="10" d="M228.239,96.729
		c0,0.646-1.473,1.168-3.286,1.168c-1.814,0-3.285-0.521-3.285-1.168c0-0.646,1.471-1.17,3.285-1.17
		C226.768,95.559,228.239,96.082,228.239,96.729z"/>
</g>
<g>
	<path id="repo1_23_" fill="#6ECCA8" stroke="#62B292" stroke-width="0.5" stroke-miterlimit="10" d="M221.667,87.938
		c0-0.646,1.471-1.168,3.285-1.168c1.813,0,3.287,0.521,3.287,1.168 M221.667,87.938v1.453c0,0.158,0.088,0.312,0.244,0.443
		c0.489,0.428,1.67,0.725,3.041,0.725c1.377,0,2.553-0.301,3.043-0.725c0.155-0.135,0.244-0.285,0.244-0.443v-1.453"/>
	<path fill="#6ECCA8" stroke="#62B292" stroke-width="0.5" stroke-miterlimit="10" d="M228.239,87.938
		c0,0.646-1.473,1.168-3.286,1.168c-1.814,0-3.285-0.521-3.285-1.168c0-0.646,1.471-1.168,3.285-1.168
		C226.768,86.77,228.239,87.291,228.239,87.938z"/>
	<path id="repo1_22_" fill="#6ECCA8" stroke="#62B292" stroke-width="0.5" stroke-miterlimit="10" d="M221.667,86.482
		c0-0.646,1.471-1.17,3.285-1.17c1.813,0,3.287,0.521,3.287,1.17 M221.667,86.482v1.455c0,0.153,0.088,0.307,0.244,0.44
		c0.489,0.429,1.67,0.728,3.041,0.728c1.377,0,2.553-0.306,3.043-0.728c0.155-0.137,0.244-0.287,0.244-0.44v-1.455"/>
	<path fill="#6ECCA8" stroke="#62B292" stroke-width="0.5" stroke-miterlimit="10" d="M228.239,86.482
		c0,0.646-1.473,1.168-3.286,1.168c-1.814,0-3.285-0.521-3.285-1.168c0-0.647,1.471-1.17,3.285-1.17
		C226.768,85.312,228.239,85.836,228.239,86.482z"/>
	<path id="repo1_21_" fill="#6ECCA8" stroke="#62B292" stroke-width="0.5" stroke-miterlimit="10" d="M221.667,85.027
		c0-0.646,1.471-1.17,3.285-1.17c1.813,0,3.287,0.521,3.287,1.17 M221.667,85.027v1.455c0,0.153,0.088,0.307,0.244,0.44
		c0.489,0.431,1.67,0.728,3.041,0.728c1.377,0,2.553-0.305,3.043-0.728c0.155-0.137,0.244-0.287,0.244-0.44v-1.455"/>
	<path fill="#6ECCA8" stroke="#62B292" stroke-width="0.5" stroke-miterlimit="10" d="M228.239,85.027
		c0,0.646-1.473,1.168-3.286,1.168c-1.814,0-3.285-0.521-3.285-1.168c0-0.647,1.471-1.17,3.285-1.17
		C226.768,83.857,228.239,84.379,228.239,85.027z"/>
	<path id="repo1_20_" fill="#6ECCA8" stroke="#62B292" stroke-width="0.5" stroke-miterlimit="10" d="M221.667,83.57
		c0-0.646,1.471-1.168,3.285-1.168c1.813,0,3.287,0.521,3.287,1.168 M221.667,83.57v1.457c0,0.152,0.088,0.307,0.244,0.44
		c0.489,0.429,1.67,0.728,3.041,0.728c1.377,0,2.553-0.305,3.043-0.728c0.155-0.137,0.244-0.288,0.244-0.44V83.57"/>
	<path fill="#6ECCA8" stroke="#62B292" stroke-width="0.5" stroke-miterlimit="10" d="M228.239,83.57
		c0,0.646-1.473,1.168-3.286,1.168c-1.814,0-3.285-0.521-3.285-1.168c0-0.647,1.471-1.168,3.285-1.168
		C226.768,82.402,228.239,82.924,228.239,83.57z"/>
</g>
<text transform="matrix(1 0 0 1 221.9897 73.8105)" fill="#404040" font-family="'NettoOT-Bold'" font-size="2.5">v1.3.0</text>
<circle fill="#94FFDD" stroke="#88E5C3" stroke-width="0.5" stroke-miterlimit="10" cx="205.446" cy="40.782" r="3.348"/>
<path fill="none" stroke="#DDDDDD" stroke-width="0.5" stroke-miterlimit="10" d="M224.946,79.988v-2.58 M226.147,79.035
	l-1.201,1.188l-1.188-1.188"/>
<g>
	
		<line fill="none" stroke="#DDDDDD" stroke-width="0.5" stroke-miterlimit="10" x1="224.955" y1="92.176" x2="224.955" y2="93.945"/>
	
		<line fill="none" stroke="#DDDDDD" stroke-width="0.5" stroke-miterlimit="10" x1="224.069" y1="93.133" x2="225.835" y2="93.133"/>
</g>
<g>
	<path fill="none" stroke="#DDDDDD" stroke-width="0.5" stroke-miterlimit="10" d="M208.628,40.782c3.605,0,6.537,2.934,6.537,6.538
		v12.954c0,3.604,2.937,6.535,6.537,6.535"/>
</g>
<circle fill="#62B3CC" stroke="#57A1B2" stroke-width="0.5" stroke-miterlimit="10" cx="224.953" cy="66.857" r="3.248"/>
<circle fill="#94FFDD" stroke="#88E5C3" stroke-width="0.5" stroke-miterlimit="10" cx="194.578" cy="40.811" r="3.348"/>
<circle fill="#62B3CC" stroke="#57A1B2" stroke-width="0.5" stroke-miterlimit="10" cx="183.878" cy="66.957" r="3.35"/>
</svg>
