<?xml version="1.0" encoding="utf-8"?>
<!-- Generator: Adobe Illustrator 16.0.4, SVG Export Plug-In . SVG Version: 6.00 Build 0)  -->
<!DOCTYPE svg PUBLIC "-//W3C//DTD SVG 1.1//EN" "http://www.w3.org/Graphics/SVG/1.1/DTD/svg11.dtd">
<svg version="1.1" id="Layer_1" xmlns="http://www.w3.org/2000/svg" xmlns:xlink="http://www.w3.org/1999/xlink" x="0px" y="0px"
	 width="127.559px" height="108.294px" viewBox="0 0 127.559 108.294" enable-background="new 0 0 127.559 108.294"
	 xml:space="preserve">
<path fill="none" stroke="#404040" stroke-width="0.6" stroke-miterlimit="10" d="M46.78,66.388h-4.146l0,0"/>
<path fill="none" stroke="#404040" stroke-width="0.6" stroke-miterlimit="10" d="M83.518,40.313H4.721l0,0"/>
<g>
	<path id="repo1_65_" fill="#6798C9" stroke="#404040" stroke-width="0.6" stroke-miterlimit="10" d="M42.594,100.626
		c0-0.646,1.471-1.168,3.286-1.168s3.287,0.521,3.287,1.168 M42.594,100.626v1.455c0,0.158,0.088,0.31,0.245,0.443
		c0.489,0.428,1.67,0.725,3.041,0.725c1.377,0,2.552-0.301,3.043-0.725c0.156-0.135,0.244-0.285,0.244-0.443v-1.455"/>
	<path fill="#6798C9" stroke="#404040" stroke-width="0.6" stroke-miterlimit="10" d="M49.167,100.626
		c0,0.646-1.472,1.168-3.287,1.168s-3.286-0.521-3.286-1.168c0-0.646,1.471-1.168,3.286-1.168
		C47.697,99.458,49.167,99.981,49.167,100.626z"/>
	<path id="repo1_64_" fill="#6798C9" stroke="#404040" stroke-width="0.6" stroke-miterlimit="10" d="M42.594,99.171
		c0-0.646,1.471-1.17,3.286-1.17s3.287,0.523,3.287,1.17 M42.594,99.171v1.455c0,0.156,0.088,0.308,0.245,0.443
		c0.489,0.428,1.67,0.725,3.041,0.725c1.377,0,2.552-0.303,3.043-0.725c0.156-0.137,0.244-0.287,0.244-0.443v-1.455"/>
	<path fill="#6798C9" stroke="#404040" stroke-width="0.6" stroke-miterlimit="10" d="M49.167,99.171
		c0,0.646-1.472,1.168-3.287,1.168s-3.286-0.521-3.286-1.168c0-0.646,1.471-1.17,3.286-1.17
		C47.697,98.001,49.167,98.526,49.167,99.171z"/>
	<path id="repo1_63_" fill="#6798C9" stroke="#404040" stroke-width="0.6" stroke-miterlimit="10" d="M42.594,97.716
		c0-0.647,1.471-1.17,3.286-1.17s3.287,0.521,3.287,1.17 M42.594,97.716v1.455c0,0.156,0.088,0.308,0.245,0.443
		c0.489,0.428,1.67,0.725,3.041,0.725c1.377,0,2.552-0.303,3.043-0.725c0.156-0.137,0.244-0.287,0.244-0.443v-1.455"/>
	<path fill="#6798C9" stroke="#404040" stroke-width="0.6" stroke-miterlimit="10" d="M49.167,97.716
		c0,0.646-1.472,1.169-3.287,1.169s-3.286-0.523-3.286-1.169c0-0.647,1.471-1.17,3.286-1.17
		C47.697,96.546,49.167,97.069,49.167,97.716z"/>
	<path id="repo1_62_" fill="#6798C9" stroke="#404040" stroke-width="0.6" stroke-miterlimit="10" d="M42.594,96.26
		c0-0.646,1.471-1.169,3.286-1.169s3.287,0.521,3.287,1.169 M42.594,96.26v1.456c0,0.154,0.088,0.308,0.245,0.443
		c0.489,0.426,1.67,0.726,3.041,0.726c1.377,0,2.552-0.304,3.043-0.726c0.156-0.137,0.244-0.289,0.244-0.443V96.26"/>
	<path fill="#6798C9" stroke="#404040" stroke-width="0.6" stroke-miterlimit="10" d="M49.167,96.26
		c0,0.646-1.472,1.168-3.287,1.168s-3.286-0.521-3.286-1.168c0-0.647,1.471-1.169,3.286-1.169
		C47.697,95.091,49.167,95.614,49.167,96.26z"/>
</g>
<g>
	
		<path id="repo1_61_" fill="#4ED1A1" stroke="#404040" stroke-width="0.6" stroke-linecap="round" stroke-linejoin="round" stroke-miterlimit="10" d="
		M42.594,87.469c0-0.646,1.471-1.168,3.286-1.168s3.287,0.521,3.287,1.168 M42.594,87.469v1.454c0,0.158,0.088,0.31,0.245,0.443
		c0.489,0.428,1.67,0.725,3.041,0.725c1.377,0,2.552-0.301,3.043-0.725c0.156-0.135,0.244-0.285,0.244-0.443v-1.454"/>
	
		<path fill="#4ED1A1" stroke="#404040" stroke-width="0.6" stroke-linecap="round" stroke-linejoin="round" stroke-miterlimit="10" d="
		M49.167,87.469c0,0.646-1.472,1.168-3.287,1.168s-3.286-0.521-3.286-1.168c0-0.647,1.471-1.168,3.286-1.168
		C47.697,86.301,49.167,86.823,49.167,87.469z"/>
	
		<path id="repo1_60_" fill="#4ED1A1" stroke="#404040" stroke-width="0.6" stroke-linecap="round" stroke-linejoin="round" stroke-miterlimit="10" d="
		M42.594,86.014c0-0.646,1.471-1.17,3.286-1.17s3.287,0.522,3.287,1.17 M42.594,86.014v1.455c0,0.155,0.088,0.307,0.245,0.442
		c0.489,0.428,1.67,0.726,3.041,0.726c1.377,0,2.552-0.304,3.043-0.726c0.156-0.137,0.244-0.287,0.244-0.442v-1.455"/>
	
		<path fill="#4ED1A1" stroke="#404040" stroke-width="0.6" stroke-linecap="round" stroke-linejoin="round" stroke-miterlimit="10" d="
		M49.167,86.014c0,0.646-1.472,1.168-3.287,1.168s-3.286-0.521-3.286-1.168s1.471-1.17,3.286-1.17
		C47.697,84.844,49.167,85.367,49.167,86.014z"/>
	
		<path id="repo1_59_" fill="#4ED1A1" stroke="#404040" stroke-width="0.6" stroke-linecap="round" stroke-linejoin="round" stroke-miterlimit="10" d="
		M42.594,84.559c0-0.647,1.471-1.17,3.286-1.17s3.287,0.521,3.287,1.17 M42.594,84.559v1.455c0,0.155,0.088,0.307,0.245,0.442
		c0.489,0.429,1.67,0.726,3.041,0.726c1.377,0,2.552-0.304,3.043-0.726c0.156-0.137,0.244-0.287,0.244-0.442v-1.455"/>
	
		<path fill="#4ED1A1" stroke="#404040" stroke-width="0.6" stroke-linecap="round" stroke-linejoin="round" stroke-miterlimit="10" d="
		M49.167,84.559c0,0.646-1.472,1.168-3.287,1.168s-3.286-0.522-3.286-1.168c0-0.647,1.471-1.17,3.286-1.17
		C47.697,83.389,49.167,83.91,49.167,84.559z"/>
	
		<path id="repo1_58_" fill="#4ED1A1" stroke="#404040" stroke-width="0.6" stroke-linecap="round" stroke-linejoin="round" stroke-miterlimit="10" d="
		M42.594,83.102c0-0.646,1.471-1.168,3.286-1.168s3.287,0.521,3.287,1.168 M42.594,83.102v1.457c0,0.153,0.088,0.307,0.245,0.442
		c0.489,0.427,1.67,0.726,3.041,0.726c1.377,0,2.552-0.304,3.043-0.726c0.156-0.137,0.244-0.289,0.244-0.442v-1.457"/>
	
		<path fill="#4ED1A1" stroke="#404040" stroke-width="0.6" stroke-linecap="round" stroke-linejoin="round" stroke-miterlimit="10" d="
		M49.167,83.102c0,0.646-1.472,1.168-3.287,1.168s-3.286-0.521-3.286-1.168s1.471-1.168,3.286-1.168
		C47.697,81.934,49.167,82.455,49.167,83.102z"/>
</g>
<text transform="matrix(1 0 0 1 42.9177 73.3413)" fill="#404040" font-family="'NettoOT-Bold'" font-size="2.5">v1.0.0</text>
<circle fill="#B18BE8" stroke="#404040" stroke-width="0.6" stroke-miterlimit="10" cx="26.374" cy="40.313" r="3.348"/>
<path fill="none" stroke="#404040" stroke-width="0.6" stroke-linecap="round" stroke-linejoin="round" stroke-miterlimit="10" d="
	M45.873,79.519v-2.58 M47.075,78.567l-1.202,1.188l-1.188-1.188"/>
<g>
	
		<line fill="none" stroke="#404040" stroke-width="0.6" stroke-linecap="round" stroke-linejoin="round" stroke-miterlimit="10" x1="45.881" y1="91.708" x2="45.881" y2="93.476"/>
	
		<line fill="none" stroke="#404040" stroke-width="0.6" stroke-linecap="round" stroke-linejoin="round" stroke-miterlimit="10" x1="44.997" y1="92.664" x2="46.764" y2="92.664"/>
</g>
<g>
	<path fill="none" stroke="#404040" stroke-width="0.6" stroke-miterlimit="10" d="M29.558,40.313c3.604,0,6.537,2.934,6.537,6.538
		v12.953c0,3.604,2.936,6.537,6.537,6.537"/>
</g>
<circle fill="#B18BE8" stroke="#404040" stroke-width="0.6" stroke-miterlimit="10" cx="15.374" cy="40.313" r="3.348"/>
<circle fill="#B18BE8" stroke="#404040" stroke-width="0.6" stroke-miterlimit="10" cx="4.374" cy="40.313" r="3.348"/>
<path fill="#B18BE8" stroke="#404040" stroke-width="0.6" stroke-linecap="round" stroke-linejoin="round" stroke-miterlimit="10" d="
	M17.891,1.152h15.116v7.855H17.891V1.152z"/>
<path fill="#404040" d="M21.101,6.024V4.357h0.58c0.425,0,0.802,0.283,0.802,0.834c0,0.551-0.377,0.833-0.802,0.833H21.101z
	 M21.666,5.819c0.31,0,0.562-0.204,0.562-0.628c0-0.427-0.254-0.63-0.562-0.63h-0.349v1.258H21.666z M23.865,5.693
	c-0.067,0.204-0.256,0.36-0.502,0.36c-0.302,0-0.568-0.22-0.568-0.612c0-0.359,0.253-0.597,0.532-0.597
	c0.347,0,0.554,0.236,0.554,0.597v0.08h-0.848c0,0.201,0.153,0.345,0.347,0.345c0.185,0,0.278-0.093,0.31-0.235L23.865,5.693z
	 M23.642,5.331c0-0.158-0.105-0.285-0.313-0.285c-0.188,0-0.294,0.145-0.312,0.285H23.642z M24.824,6.024H24.6l-0.473-1.133h0.256
	l0.324,0.882l0.333-0.882h0.236L24.824,6.024z M26.499,5.693c-0.062,0.204-0.248,0.36-0.501,0.36c-0.295,0-0.562-0.22-0.562-0.612
	c0-0.359,0.252-0.597,0.547-0.597c0.35,0,0.553,0.236,0.553,0.597v0.08h-0.849c0,0.201,0.156,0.345,0.342,0.345
	c0.191,0,0.285-0.093,0.316-0.235L26.499,5.693z M26.283,5.331c0-0.158-0.109-0.285-0.314-0.285c-0.188,0-0.295,0.145-0.312,0.285
	H26.283z M26.91,6.024V4.31h0.223v1.714H26.91z M28.701,5.455c0,0.347-0.234,0.598-0.58,0.598c-0.35,0-0.58-0.251-0.58-0.598
	c0-0.344,0.23-0.596,0.58-0.596C28.453,4.844,28.701,5.113,28.701,5.455z M28.466,5.455c0-0.266-0.16-0.409-0.346-0.409
	c-0.188,0-0.35,0.145-0.35,0.409c0,0.267,0.162,0.409,0.35,0.409C28.306,5.865,28.466,5.707,28.466,5.455z M29.093,6.462V4.891
	h0.223v0.175c0.062-0.111,0.188-0.205,0.373-0.205c0.35,0,0.523,0.268,0.523,0.596c0,0.332-0.191,0.598-0.539,0.598
	c-0.172,0-0.312-0.076-0.357-0.188v0.598h-0.223V6.462z M29.644,5.066c-0.203,0-0.328,0.171-0.328,0.391
	c0,0.236,0.143,0.409,0.328,0.409c0.205,0,0.33-0.173,0.33-0.409C29.99,5.22,29.865,5.066,29.644,5.066z"/>
<path fill="#B3E3FF" stroke="#404040" stroke-width="0.6" stroke-linecap="round" stroke-linejoin="round" stroke-miterlimit="10" d="
	M1.027,1.151H16.14v7.857H1.027V1.151z"/>
<path fill="#404040" d="M6.478,6.024V4.717L5.912,6.024H5.71L5.145,4.717v1.307H4.906V4.356H5.22l0.598,1.367l0.597-1.367H6.73
	v1.668H6.478z M7.484,5.377L7.782,5.33c0.062-0.016,0.095-0.047,0.095-0.08c0-0.107-0.078-0.205-0.253-0.205
	c-0.155,0-0.234,0.098-0.251,0.238L7.17,5.235c0.017-0.221,0.22-0.359,0.473-0.359c0.346,0,0.471,0.189,0.471,0.408v0.549
	c0,0.094,0.018,0.156,0.018,0.189H7.906c0-0.033-0.015-0.08-0.015-0.158c-0.047,0.078-0.157,0.188-0.36,0.188
	c-0.233,0-0.378-0.154-0.378-0.346C7.138,5.52,7.296,5.393,7.484,5.377z M7.876,5.535V5.487L7.531,5.535
	C7.436,5.551,7.372,5.598,7.372,5.707c0,0.08,0.062,0.158,0.188,0.158C7.735,5.865,7.876,5.787,7.876,5.535z M8.662,5.66
	c0.017,0.127,0.108,0.205,0.267,0.205c0.126,0,0.188-0.078,0.188-0.158c0-0.061-0.05-0.125-0.144-0.139L8.786,5.522
	C8.613,5.489,8.504,5.364,8.504,5.205c0-0.188,0.188-0.359,0.407-0.359c0.313,0,0.407,0.201,0.426,0.299L9.149,5.221
	C9.133,5.16,9.086,5.033,8.912,5.033c-0.108,0-0.188,0.08-0.188,0.158c0,0.061,0.049,0.125,0.127,0.143l0.188,0.047
	c0.205,0.045,0.314,0.172,0.314,0.328c0,0.158-0.143,0.346-0.409,0.346c-0.312,0-0.438-0.201-0.454-0.328L8.662,5.66z M10.045,4.891
	h0.251v0.205h-0.251v0.58c0,0.111,0.046,0.158,0.154,0.158c0.031,0,0.063,0,0.097-0.016v0.188c-0.018,0-0.079,0.018-0.156,0.018
	c-0.188,0-0.313-0.127-0.313-0.332V5.065H9.605V4.891h0.062c0.127,0,0.174-0.08,0.174-0.174V4.53h0.204V4.891z M11.679,5.692
	c-0.062,0.205-0.252,0.361-0.503,0.361c-0.3,0-0.565-0.219-0.565-0.613c0-0.359,0.251-0.596,0.551-0.596
	c0.347,0,0.551,0.236,0.551,0.596v0.062h-0.851c0,0.205,0.157,0.346,0.347,0.346c0.188,0,0.282-0.094,0.312-0.234L11.679,5.692z
	 M11.457,5.33c0-0.158-0.109-0.285-0.313-0.285c-0.188,0-0.299,0.145-0.312,0.285H11.457z M12.714,5.112h-0.095
	c-0.188,0-0.312,0.094-0.312,0.344v0.568h-0.22V4.893h0.22v0.203c0.078-0.174,0.22-0.221,0.346-0.221h0.077v0.236L12.714,5.112
	L12.714,5.112z"/>
<text transform="matrix(1 0 0 1 99.7014 6.105)" fill="#404040" font-family="'NettoOT-Bold'" font-size="2.5">Data</text>
<g>
	
		<path id="repo1_36_" fill="#4ED1A1" stroke="#404040" stroke-width="0.6" stroke-linecap="round" stroke-linejoin="round" stroke-miterlimit="10" d="
		M90.4,6.535c0-0.646,1.472-1.168,3.286-1.168c1.816,0,3.287,0.521,3.287,1.168 M90.4,6.535V7.99c0,0.158,0.088,0.309,0.245,0.443
		c0.489,0.428,1.67,0.725,3.041,0.725c1.377,0,2.552-0.301,3.043-0.725c0.156-0.135,0.244-0.285,0.244-0.443V6.535"/>
	
		<path fill="#4ED1A1" stroke="#404040" stroke-width="0.6" stroke-linecap="round" stroke-linejoin="round" stroke-miterlimit="10" d="
		M96.973,6.535c0,0.646-1.471,1.168-3.287,1.168c-1.814,0-3.286-0.521-3.286-1.168s1.472-1.168,3.286-1.168
		C95.502,5.367,96.973,5.889,96.973,6.535z"/>
	
		<path id="repo1_35_" fill="#4ED1A1" stroke="#404040" stroke-width="0.6" stroke-linecap="round" stroke-linejoin="round" stroke-miterlimit="10" d="
		M90.4,5.08c0-0.646,1.472-1.17,3.286-1.17c1.816,0,3.287,0.523,3.287,1.17 M90.4,5.08v1.455c0,0.156,0.088,0.307,0.245,0.443
		c0.489,0.428,1.67,0.725,3.041,0.725c1.377,0,2.552-0.303,3.043-0.725c0.156-0.137,0.244-0.287,0.244-0.443V5.08"/>
	
		<path fill="#4ED1A1" stroke="#404040" stroke-width="0.6" stroke-linecap="round" stroke-linejoin="round" stroke-miterlimit="10" d="
		M96.973,5.08c0,0.646-1.471,1.168-3.287,1.168c-1.814,0-3.286-0.521-3.286-1.168s1.472-1.17,3.286-1.17
		C95.502,3.91,96.973,4.434,96.973,5.08z"/>
	
		<path id="repo1_34_" fill="#4ED1A1" stroke="#404040" stroke-width="0.6" stroke-linecap="round" stroke-linejoin="round" stroke-miterlimit="10" d="
		M90.4,3.625c0-0.648,1.472-1.17,3.286-1.17c1.816,0,3.287,0.521,3.287,1.17 M90.4,3.625V5.08c0,0.156,0.088,0.307,0.245,0.443
		c0.489,0.428,1.67,0.725,3.041,0.725c1.377,0,2.552-0.303,3.043-0.725c0.156-0.137,0.244-0.287,0.244-0.443V3.625"/>
	
		<path fill="#4ED1A1" stroke="#404040" stroke-width="0.6" stroke-linecap="round" stroke-linejoin="round" stroke-miterlimit="10" d="
		M96.973,3.625c0,0.645-1.471,1.168-3.287,1.168c-1.814,0-3.286-0.523-3.286-1.168c0-0.648,1.472-1.17,3.286-1.17
		C95.502,2.455,96.973,2.977,96.973,3.625z"/>
	
		<path id="repo1_32_" fill="#4ED1A1" stroke="#404040" stroke-width="0.6" stroke-linecap="round" stroke-linejoin="round" stroke-miterlimit="10" d="
		M90.4,2.168C90.4,1.522,91.87,1,93.686,1c1.816,0,3.287,0.521,3.287,1.168 M90.4,2.168v1.457c0,0.154,0.088,0.307,0.245,0.443
		c0.489,0.426,1.67,0.725,3.041,0.725c1.377,0,2.552-0.303,3.043-0.725c0.156-0.137,0.244-0.289,0.244-0.443V2.168"/>
	
		<path fill="#4ED1A1" stroke="#404040" stroke-width="0.6" stroke-linecap="round" stroke-linejoin="round" stroke-miterlimit="10" d="
		M96.973,2.168c0,0.646-1.471,1.168-3.287,1.168c-1.814,0-3.286-0.521-3.286-1.168S91.87,1,93.686,1
		C95.502,1,96.973,1.522,96.973,2.168z"/>
</g>
<text transform="matrix(1 0 0 1 76.8997 6.105)" fill="#404040" font-family="'NettoOT-Bold'" font-size="2.5">Schema</text>
<g>
	<path id="repo1_40_" fill="#6798C9" stroke="#404040" stroke-width="0.6" stroke-miterlimit="10" d="M67.598,6.535
		c0-0.646,1.471-1.168,3.286-1.168c1.816,0,3.287,0.521,3.287,1.168 M67.598,6.535V7.99c0,0.158,0.088,0.309,0.245,0.443
		c0.489,0.428,1.67,0.725,3.041,0.725c1.377,0,2.552-0.301,3.043-0.725c0.156-0.135,0.244-0.285,0.244-0.443V6.535"/>
	<path fill="#6798C9" stroke="#404040" stroke-width="0.6" stroke-miterlimit="10" d="M74.172,6.535
		c0,0.646-1.471,1.168-3.287,1.168c-1.815,0-3.286-0.521-3.286-1.168s1.471-1.168,3.286-1.168
		C72.701,5.367,74.172,5.889,74.172,6.535z"/>
	<path id="repo1_39_" fill="#6798C9" stroke="#404040" stroke-width="0.6" stroke-miterlimit="10" d="M67.598,5.08
		c0-0.646,1.471-1.17,3.286-1.17c1.816,0,3.287,0.523,3.287,1.17 M67.598,5.08v1.455c0,0.156,0.088,0.307,0.245,0.443
		c0.489,0.428,1.67,0.725,3.041,0.725c1.377,0,2.552-0.303,3.043-0.725c0.156-0.137,0.244-0.287,0.244-0.443V5.08"/>
	<path fill="#6798C9" stroke="#404040" stroke-width="0.6" stroke-miterlimit="10" d="M74.172,5.08c0,0.646-1.471,1.168-3.287,1.168
		c-1.815,0-3.286-0.521-3.286-1.168s1.471-1.17,3.286-1.17C72.701,3.91,74.172,4.434,74.172,5.08z"/>
	<path id="repo1_38_" fill="#6798C9" stroke="#404040" stroke-width="0.6" stroke-miterlimit="10" d="M67.598,3.625
		c0-0.648,1.471-1.17,3.286-1.17c1.816,0,3.287,0.521,3.287,1.17 M67.598,3.625V5.08c0,0.156,0.088,0.307,0.245,0.443
		c0.489,0.428,1.67,0.725,3.041,0.725c1.377,0,2.552-0.303,3.043-0.725c0.156-0.137,0.244-0.287,0.244-0.443V3.625"/>
	<path fill="#6798C9" stroke="#404040" stroke-width="0.6" stroke-miterlimit="10" d="M74.172,3.625
		c0,0.645-1.471,1.168-3.287,1.168c-1.815,0-3.286-0.523-3.286-1.168c0-0.648,1.471-1.17,3.286-1.17
		C72.701,2.455,74.172,2.977,74.172,3.625z"/>
	<path id="repo1_37_" fill="#6798C9" stroke="#404040" stroke-width="0.6" stroke-miterlimit="10" d="M67.598,2.168
		C67.598,1.522,69.069,1,70.885,1s3.287,0.521,3.287,1.168 M67.598,2.168v1.457c0,0.154,0.088,0.307,0.245,0.443
		c0.489,0.426,1.67,0.725,3.041,0.725c1.377,0,2.552-0.303,3.043-0.725c0.156-0.137,0.244-0.289,0.244-0.443V2.168"/>
	<path fill="#6798C9" stroke="#404040" stroke-width="0.6" stroke-miterlimit="10" d="M74.172,2.168
		c0,0.646-1.471,1.168-3.287,1.168c-1.815,0-3.286-0.521-3.286-1.168S69.069,1,70.885,1S74.172,1.522,74.172,2.168z"/>
</g>
<g>
	<path id="repo1_30_" fill="#EDEF8F" stroke="#404040" stroke-width="0.6" stroke-miterlimit="10" d="M61.845,26.957
		c0-0.646,1.471-1.168,3.287-1.168c1.817,0,3.288,0.521,3.288,1.168 M61.845,26.957v1.457c0,0.154,0.088,0.307,0.246,0.443
		c0.488,0.426,1.67,0.725,3.041,0.725c1.378,0,2.552-0.303,3.044-0.725c0.156-0.137,0.244-0.289,0.244-0.443v-1.457"/>
	<path fill="#EDEF8F" stroke="#404040" stroke-width="0.6" stroke-miterlimit="10" d="M68.42,26.957
		c0,0.646-1.471,1.168-3.288,1.168c-1.816,0-3.287-0.521-3.287-1.168s1.471-1.168,3.287-1.168
		C66.949,25.789,68.42,26.311,68.42,26.957z"/>
</g>
<text transform="matrix(1 0 0 1 118.8108 6.2319)" fill="#404040" font-family="'NettoOT-Bold'" font-size="2.5">Patch</text>
<circle fill="#B18BE8" stroke="#404040" stroke-width="0.6" stroke-miterlimit="10" cx="54.477" cy="40.234" r="3.348"/>
<circle fill="#B18BE8" stroke="#404040" stroke-width="0.6" stroke-miterlimit="10" cx="65.198" cy="40.234" r="3.348"/>
<g>
	<path id="repo1_41_" fill="#EDEF8F" stroke="#404040" stroke-width="0.6" stroke-miterlimit="10" d="M109.992,4.477
		c0-0.646,1.471-1.168,3.286-1.168c1.816,0,3.287,0.521,3.287,1.168 M109.992,4.477v1.457c0,0.154,0.088,0.307,0.245,0.443
		c0.488,0.426,1.671,0.725,3.041,0.725c1.377,0,2.552-0.303,3.043-0.725c0.156-0.137,0.244-0.289,0.244-0.443V4.477"/>
	<path fill="#EDEF8F" stroke="#404040" stroke-width="0.6" stroke-miterlimit="10" d="M116.567,4.477
		c0,0.646-1.471,1.168-3.287,1.168c-1.815,0-3.286-0.521-3.286-1.168s1.471-1.168,3.286-1.168
		C115.096,3.309,116.567,3.831,116.567,4.477z"/>
</g>
<path fill="none" stroke="#404040" stroke-width="0.6" stroke-linecap="round" stroke-linejoin="round" stroke-miterlimit="10" d="
	M65.14,32.045v2.58 M63.937,32.997l1.203-1.188l1.188,1.188"/>
<text transform="matrix(1 0 0 1 60.9109 23.0073)" fill="#404040" font-family="'NettoOT-Bold'" font-size="2.5">patch-1</text>
<g>
	<path id="repo1_1_" fill="#EDEF8F" stroke="#404040" stroke-width="0.6" stroke-miterlimit="10" d="M81.679,26.957
		c0-0.646,1.471-1.168,3.287-1.168c1.817,0,3.288,0.521,3.288,1.168 M81.679,26.957v1.457c0,0.154,0.088,0.307,0.246,0.443
		c0.488,0.426,1.67,0.725,3.041,0.725c1.378,0,2.552-0.303,3.044-0.725c0.156-0.137,0.244-0.289,0.244-0.443v-1.457"/>
	<path fill="#EDEF8F" stroke="#404040" stroke-width="0.6" stroke-miterlimit="10" d="M88.254,26.957
		c0,0.646-1.471,1.168-3.288,1.168c-1.816,0-3.287-0.521-3.287-1.168s1.471-1.168,3.287-1.168
		C86.783,25.789,88.254,26.311,88.254,26.957z"/>
</g>
<path fill="none" stroke="#404040" stroke-width="0.6" stroke-linecap="round" stroke-linejoin="round" stroke-miterlimit="10" d="
	M84.974,32.045v2.58 M83.771,32.997l1.203-1.188l1.188,1.188"/>
<text transform="matrix(1 0 0 1 80.7444 23.0073)" fill="#404040" font-family="'NettoOT-Bold'" font-size="2.5">patch-2</text>
<path fill="none" stroke="#404040" stroke-width="0.6" stroke-miterlimit="10" d="M62.203,53.427c-3.604,0-6.538,2.932-6.538,6.535
	 M49.128,66.421c3.603,0,6.537-2.934,6.537-6.537"/>
<circle fill="#B3E3FF" stroke="#404040" stroke-width="0.6" stroke-miterlimit="10" cx="84.905" cy="66.5" r="3.349"/>
<circle fill="#B18BE8" stroke="#404040" stroke-width="0.6" stroke-miterlimit="10" cx="84.906" cy="40.353" r="3.349"/>
<circle fill="#FC8363" stroke="#404040" stroke-width="0.6" stroke-linecap="round" stroke-linejoin="round" stroke-miterlimit="10" cx="65.133" cy="53.427" r="3.348"/>
<circle fill="#B3E3FF" stroke="#404040" stroke-width="0.6" stroke-miterlimit="10" cx="45.88" cy="66.388" r="3.248"/>
<path fill="none" stroke="#404040" stroke-width="0.6" stroke-miterlimit="10" d="M75.019,59.962c0-3.604-2.934-6.535-6.538-6.535"
	/>
<path fill="none" stroke="#404040" stroke-width="0.6" stroke-miterlimit="10" d="M75.019,59.962c0,3.604,2.935,6.537,6.537,6.537"
	/>
<line fill="none" stroke="#404040" stroke-width="0.6" stroke-miterlimit="10" x1="49.128" y1="66.421" x2="81.556" y2="66.421"/>
<text transform="matrix(1 0 0 1 81.9436 73.4321)" fill="#404040" font-family="'NettoOT-Bold'" font-size="2.5">v1.0.1</text>
<path fill="none" stroke="#404040" stroke-width="0.6" stroke-miterlimit="10" d="M81.556,40.433c-3.604,0-6.538,2.932-6.538,6.535
	 M68.481,53.427c3.603,0,6.537-2.934,6.537-6.537"/>
<path fill="#FC8363" stroke="#404040" stroke-width="0.6" stroke-linecap="round" stroke-linejoin="round" stroke-miterlimit="10" d="
	M35.007,1.152h15.112v7.855H35.007V1.152z"/>
<path fill="#404040" d="M40.52,6.023V5.285h-0.848v0.738h-0.236V4.357h0.236v0.709h0.848V4.357h0.236v1.666H40.52z M42.326,5.455
	c0,0.348-0.234,0.6-0.58,0.6c-0.347,0-0.581-0.252-0.581-0.6c0-0.344,0.234-0.596,0.581-0.596
	C42.091,4.845,42.326,5.113,42.326,5.455z M42.106,5.455c0-0.266-0.156-0.408-0.345-0.408s-0.346,0.145-0.346,0.408
	c0,0.268,0.157,0.41,0.346,0.41S42.106,5.708,42.106,5.455z M43.018,4.892h0.252v0.205h-0.252v0.58c0,0.109,0.047,0.156,0.158,0.156
	c0.031,0,0.062,0,0.094-0.016v0.188c-0.017,0-0.078,0.018-0.157,0.018c-0.188,0-0.314-0.127-0.314-0.332V5.064h-0.221V4.89h0.063
	c0.126,0,0.172-0.08,0.172-0.172V4.529h0.205V4.892z M44.243,4.326v0.205c-0.016,0-0.047-0.016-0.095-0.016
	c-0.078,0-0.172,0.031-0.172,0.188V4.89h0.753v1.133h-0.22V5.095h-0.533v0.928H43.74V5.095h-0.204V4.89h0.204V4.703
	c0-0.252,0.172-0.395,0.377-0.395C44.181,4.31,44.228,4.326,44.243,4.326z M44.604,4.294c0.095,0,0.158,0.061,0.158,0.156
	s-0.078,0.158-0.158,0.158c-0.094,0-0.156-0.08-0.156-0.158C44.448,4.357,44.526,4.294,44.604,4.294z M45.469,5.441L45.06,4.892
	h0.269l0.281,0.393l0.269-0.393h0.268l-0.409,0.549c0.063,0.096,0.347,0.486,0.425,0.582h-0.268l-0.299-0.424l-0.284,0.424h-0.266
	L45.469,5.441z"/>
</svg>
