<?xml version="1.0" encoding="utf-8"?>
<!-- Generator: Adobe Illustrator 16.0.0, SVG Export Plug-In . SVG Version: 6.00 Build 0)  -->
<!DOCTYPE svg PUBLIC "-//W3C//DTD SVG 1.1//EN" "http://www.w3.org/Graphics/SVG/1.1/DTD/svg11.dtd">
<svg version="1.1" id="Layer_1" xmlns="http://www.w3.org/2000/svg" xmlns:xlink="http://www.w3.org/1999/xlink" x="0px" y="0px"
	 width="127.559px" height="95.839px" viewBox="0 0 127.559 95.839" enable-background="new 0 0 127.559 95.839"
	 xml:space="preserve">
<path fill="none" stroke="#404040" stroke-width="0.6" stroke-miterlimit="10" d="M46.78,53.388h-4.146l0,0"/>
<path fill="none" stroke="#DDDDDD" stroke-width="0.5" stroke-miterlimit="10" d="M112.946,40.313H4.721l0,0"/>
<path fill="none" stroke="#DDDDDD" stroke-width="0.5" stroke-miterlimit="10" d="M95.067,53.309H42.632l0,0"/>
<circle fill="#62B3CC" stroke="#57A1B2" stroke-width="0.5" stroke-miterlimit="10" cx="45.88" cy="53.388" r="3.248"/>
<g>
	<path id="repo1_65_" fill="#579663" stroke="#487A50" stroke-width="0.5" stroke-miterlimit="10" d="M42.594,87.626
		c0-0.646,1.471-1.168,3.286-1.168c1.813,0,3.287,0.521,3.287,1.168 M42.594,87.626v1.455c0,0.158,0.088,0.31,0.245,0.441
		c0.489,0.43,1.67,0.727,3.041,0.727c1.377,0,2.552-0.301,3.043-0.727c0.156-0.135,0.244-0.283,0.244-0.441v-1.455"/>
	<path fill="#579663" stroke="#487A50" stroke-width="0.5" stroke-miterlimit="10" d="M49.167,87.626
		c0,0.646-1.474,1.168-3.287,1.168c-1.815,0-3.286-0.521-3.286-1.168c0-0.647,1.471-1.168,3.286-1.168
		C47.697,86.458,49.167,86.981,49.167,87.626z"/>
	<path id="repo1_64_" fill="#579663" stroke="#487A50" stroke-width="0.5" stroke-miterlimit="10" d="M42.594,86.171
		c0-0.646,1.471-1.17,3.286-1.17c1.813,0,3.287,0.521,3.287,1.17 M42.594,86.171v1.455c0,0.156,0.088,0.308,0.245,0.441
		c0.489,0.43,1.67,0.727,3.041,0.727c1.377,0,2.552-0.303,3.043-0.727c0.156-0.137,0.244-0.285,0.244-0.441v-1.455"/>
	<path fill="#579663" stroke="#487A50" stroke-width="0.5" stroke-miterlimit="10" d="M49.167,86.171
		c0,0.646-1.474,1.168-3.287,1.168c-1.815,0-3.286-0.521-3.286-1.168c0-0.647,1.471-1.17,3.286-1.17
		C47.697,85.001,49.167,85.526,49.167,86.171z"/>
	<path id="repo1_63_" fill="#579663" stroke="#487A50" stroke-width="0.5" stroke-miterlimit="10" d="M42.594,84.716
		c0-0.647,1.471-1.17,3.286-1.17c1.813,0,3.287,0.521,3.287,1.17 M42.594,84.716v1.455c0,0.156,0.088,0.308,0.245,0.443
		c0.489,0.428,1.67,0.725,3.041,0.725c1.377,0,2.552-0.303,3.043-0.725c0.156-0.139,0.244-0.287,0.244-0.443v-1.455"/>
	<path fill="#579663" stroke="#487A50" stroke-width="0.5" stroke-miterlimit="10" d="M49.167,84.716
		c0,0.646-1.474,1.168-3.287,1.168c-1.815,0-3.286-0.522-3.286-1.168c0-0.647,1.471-1.17,3.286-1.17
		C47.697,83.546,49.167,84.069,49.167,84.716z"/>
	<path id="repo1_62_" fill="#579663" stroke="#487A50" stroke-width="0.5" stroke-miterlimit="10" d="M42.594,83.259
		c0-0.645,1.471-1.168,3.286-1.168c1.813,0,3.287,0.521,3.287,1.168 M42.594,83.259v1.457c0,0.154,0.088,0.308,0.245,0.443
		c0.489,0.426,1.67,0.725,3.041,0.725c1.377,0,2.552-0.303,3.043-0.725c0.156-0.139,0.244-0.289,0.244-0.443v-1.457"/>
	<path fill="#579663" stroke="#487A50" stroke-width="0.5" stroke-miterlimit="10" d="M49.167,83.259
		c0,0.646-1.474,1.169-3.287,1.169c-1.815,0-3.286-0.521-3.286-1.169c0-0.646,1.471-1.168,3.286-1.168
		C47.697,82.091,49.167,82.615,49.167,83.259z"/>
</g>
<g>
	<path id="repo1_61_" fill="#EFAB59" stroke="#D39450" stroke-width="0.5" stroke-miterlimit="10" d="M42.594,74.468
		c0-0.645,1.471-1.168,3.286-1.168c1.813,0,3.287,0.521,3.287,1.168 M42.594,74.468v1.455c0,0.158,0.088,0.31,0.245,0.443
		c0.489,0.428,1.67,0.725,3.041,0.725c1.377,0,2.552-0.301,3.043-0.725c0.156-0.137,0.244-0.285,0.244-0.443v-1.455"/>
	<path fill="#EFAB59" stroke="#D39450" stroke-width="0.5" stroke-miterlimit="10" d="M49.167,74.468
		c0,0.646-1.474,1.169-3.287,1.169c-1.815,0-3.286-0.521-3.286-1.169c0-0.646,1.471-1.168,3.286-1.168
		C47.697,73.3,49.167,73.824,49.167,74.468z"/>
	<path id="repo1_60_" fill="#EFAB59" stroke="#D39450" stroke-width="0.5" stroke-miterlimit="10" d="M42.594,73.014
		c0-0.646,1.471-1.171,3.286-1.171c1.813,0,3.287,0.523,3.287,1.171 M42.594,73.014v1.454c0,0.156,0.088,0.308,0.245,0.443
		c0.489,0.428,1.67,0.726,3.041,0.726c1.377,0,2.552-0.304,3.043-0.726c0.156-0.139,0.244-0.287,0.244-0.443v-1.454"/>
	<path fill="#EFAB59" stroke="#D39450" stroke-width="0.5" stroke-miterlimit="10" d="M49.167,73.014
		c0,0.646-1.474,1.168-3.287,1.168c-1.815,0-3.286-0.521-3.286-1.168s1.471-1.171,3.286-1.171
		C47.697,71.843,49.167,72.367,49.167,73.014z"/>
	<path id="repo1_59_" fill="#EFAB59" stroke="#D39450" stroke-width="0.5" stroke-miterlimit="10" d="M42.594,71.559
		c0-0.647,1.471-1.17,3.286-1.17c1.813,0,3.287,0.521,3.287,1.17 M42.594,71.559v1.455c0,0.155,0.088,0.307,0.245,0.442
		c0.489,0.428,1.67,0.726,3.041,0.726c1.377,0,2.552-0.304,3.043-0.726c0.156-0.139,0.244-0.287,0.244-0.442v-1.455"/>
	<path fill="#EFAB59" stroke="#D39450" stroke-width="0.5" stroke-miterlimit="10" d="M49.167,71.559
		c0,0.646-1.474,1.168-3.287,1.168c-1.815,0-3.286-0.522-3.286-1.168c0-0.647,1.471-1.17,3.286-1.17
		C47.697,70.389,49.167,70.91,49.167,71.559z"/>
	<path id="repo1_58_" fill="#EFAB59" stroke="#D39450" stroke-width="0.5" stroke-miterlimit="10" d="M42.594,70.102
		c0-0.646,1.471-1.168,3.286-1.168c1.813,0,3.287,0.521,3.287,1.168 M42.594,70.102v1.457c0,0.153,0.088,0.308,0.245,0.442
		c0.489,0.427,1.67,0.726,3.041,0.726c1.377,0,2.552-0.304,3.043-0.726c0.156-0.137,0.244-0.289,0.244-0.442v-1.457"/>
	<path fill="#EFAB59" stroke="#D39450" stroke-width="0.5" stroke-miterlimit="10" d="M49.167,70.102
		c0,0.646-1.474,1.168-3.287,1.168c-1.815,0-3.286-0.521-3.286-1.168s1.471-1.168,3.286-1.168
		C47.697,68.934,49.167,69.455,49.167,70.102z"/>
</g>
<text transform="matrix(1 0 0 1 42.9182 60.3413)" fill="#404040" font-family="'NettoOT-Bold'" font-size="2.5">v1.0.0</text>
<circle fill="#4BD6BA" stroke="#43BA9E" stroke-width="0.5" stroke-miterlimit="10" cx="26.374" cy="40.313" r="3.348"/>
<path fill="none" stroke="#DDDDDD" stroke-width="0.5" stroke-miterlimit="10" d="M45.873,66.519v-2.58 M47.075,65.567l-1.202,1.188
	l-1.188-1.188"/>
<g>
	<line fill="none" stroke="#DDDDDD" stroke-width="0.5" stroke-miterlimit="10" x1="45.881" y1="78.708" x2="45.881" y2="80.476"/>
	<line fill="none" stroke="#DDDDDD" stroke-width="0.5" stroke-miterlimit="10" x1="44.997" y1="79.664" x2="46.764" y2="79.664"/>
</g>
<g>
	<path fill="none" stroke="#DDDDDD" stroke-width="0.5" stroke-miterlimit="10" d="M36.095,46.851c0-3.604-2.934-6.538-6.537-6.538"
		/>
	<path fill="none" stroke="#DDDDDD" stroke-width="0.5" stroke-miterlimit="10" d="M36.095,46.851c0,3.604,2.938,6.537,6.537,6.537"
		/>
</g>
<circle fill="#4BD6BA" stroke="#43BA9E" stroke-width="0.5" stroke-miterlimit="10" cx="15.374" cy="40.313" r="3.348"/>
<circle fill="#4BD6BA" stroke="#43BA9E" stroke-width="0.5" stroke-miterlimit="10" cx="4.374" cy="40.313" r="3.348"/>
<text transform="matrix(1 0 0 1 97.0823 6.1055)" fill="#404040" font-family="'NettoOT-Bold'" font-size="2.5">Data</text>
<g>
	<path id="repo1_36_" fill="#EFAB59" stroke="#D39450" stroke-width="0.5" stroke-miterlimit="10" d="M87.781,6.535
		c0-0.646,1.472-1.168,3.284-1.168c1.816,0,3.287,0.521,3.287,1.168 M87.781,6.535V7.99c0,0.158,0.088,0.309,0.243,0.443
		c0.489,0.428,1.67,0.725,3.041,0.725c1.377,0,2.554-0.301,3.043-0.725c0.156-0.135,0.244-0.285,0.244-0.443V6.535"/>
	<path fill="#EFAB59" stroke="#D39450" stroke-width="0.5" stroke-miterlimit="10" d="M94.355,6.535
		c0,0.646-1.471,1.168-3.287,1.168c-1.812,0-3.284-0.521-3.284-1.168s1.472-1.168,3.284-1.168
		C92.884,5.367,94.355,5.889,94.355,6.535z"/>
	<path id="repo1_35_" fill="#EFAB59" stroke="#D39450" stroke-width="0.5" stroke-miterlimit="10" d="M87.781,5.08
		c0-0.646,1.472-1.17,3.284-1.17c1.816,0,3.287,0.523,3.287,1.17 M87.781,5.08v1.455c0,0.156,0.088,0.307,0.243,0.443
		c0.489,0.428,1.67,0.725,3.041,0.725c1.377,0,2.554-0.303,3.043-0.725c0.156-0.137,0.244-0.287,0.244-0.443V5.08"/>
	<path fill="#EFAB59" stroke="#D39450" stroke-width="0.5" stroke-miterlimit="10" d="M94.355,5.08c0,0.646-1.471,1.168-3.287,1.168
		c-1.812,0-3.284-0.521-3.284-1.168s1.472-1.17,3.284-1.17C92.884,3.91,94.355,4.434,94.355,5.08z"/>
	<path id="repo1_34_" fill="#EFAB59" stroke="#D39450" stroke-width="0.5" stroke-miterlimit="10" d="M87.781,3.625
		c0-0.648,1.472-1.17,3.284-1.17c1.816,0,3.287,0.521,3.287,1.17 M87.781,3.625V5.08c0,0.156,0.088,0.307,0.243,0.443
		c0.489,0.428,1.67,0.725,3.041,0.725c1.377,0,2.554-0.303,3.043-0.725c0.156-0.137,0.244-0.287,0.244-0.443V3.625"/>
	<path fill="#EFAB59" stroke="#D39450" stroke-width="0.5" stroke-miterlimit="10" d="M94.355,3.625
		c0,0.645-1.471,1.168-3.287,1.168c-1.812,0-3.284-0.523-3.284-1.168c0-0.648,1.472-1.17,3.284-1.17
		C92.884,2.455,94.355,2.977,94.355,3.625z"/>
	<path id="repo1_32_" fill="#EFAB59" stroke="#D39450" stroke-width="0.5" stroke-miterlimit="10" d="M87.781,2.168
		C87.781,1.522,89.252,1,91.068,1c1.816,0,3.287,0.521,3.287,1.168 M87.781,2.168v1.457c0,0.154,0.088,0.307,0.243,0.443
		c0.489,0.426,1.67,0.725,3.041,0.725c1.377,0,2.554-0.303,3.043-0.725c0.156-0.137,0.244-0.289,0.244-0.443V2.168"/>
	<path fill="#EFAB59" stroke="#D39450" stroke-width="0.5" stroke-miterlimit="10" d="M94.355,2.168
		c0,0.646-1.471,1.168-3.287,1.168c-1.812,0-3.284-0.521-3.284-1.168S89.252,1,91.068,1C92.884,1,94.355,1.522,94.355,2.168z"/>
</g>
<text transform="matrix(1 0 0 1 74.2815 6.1055)" fill="#404040" font-family="'NettoOT-Bold'" font-size="2.5">Schema</text>
<g>
	<path id="repo1_40_" fill="#579663" stroke="#487A50" stroke-width="0.5" stroke-miterlimit="10" d="M64.98,6.535
		c0-0.646,1.473-1.168,3.286-1.168c1.816,0,3.287,0.521,3.287,1.168 M64.98,6.535V7.99c0,0.158,0.088,0.309,0.245,0.443
		c0.489,0.428,1.67,0.725,3.041,0.725c1.377,0,2.552-0.301,3.043-0.725c0.156-0.135,0.244-0.285,0.244-0.443V6.535"/>
	<path fill="#579663" stroke="#487A50" stroke-width="0.5" stroke-miterlimit="10" d="M71.554,6.535
		c0,0.646-1.471,1.168-3.287,1.168c-1.813,0-3.286-0.521-3.286-1.168s1.473-1.168,3.286-1.168
		C70.083,5.367,71.554,5.889,71.554,6.535z"/>
	<path id="repo1_39_" fill="#579663" stroke="#487A50" stroke-width="0.5" stroke-miterlimit="10" d="M64.98,5.08
		c0-0.646,1.473-1.17,3.286-1.17c1.816,0,3.287,0.523,3.287,1.17 M64.98,5.08v1.455c0,0.156,0.088,0.307,0.245,0.443
		c0.489,0.428,1.67,0.725,3.041,0.725c1.377,0,2.552-0.303,3.043-0.725c0.156-0.137,0.244-0.287,0.244-0.443V5.08"/>
	<path fill="#579663" stroke="#487A50" stroke-width="0.5" stroke-miterlimit="10" d="M71.554,5.08c0,0.646-1.471,1.168-3.287,1.168
		c-1.813,0-3.286-0.521-3.286-1.168s1.473-1.17,3.286-1.17C70.083,3.91,71.554,4.434,71.554,5.08z"/>
	<path id="repo1_38_" fill="#579663" stroke="#487A50" stroke-width="0.5" stroke-miterlimit="10" d="M64.98,3.625
		c0-0.648,1.473-1.17,3.286-1.17c1.816,0,3.287,0.521,3.287,1.17 M64.98,3.625V5.08c0,0.156,0.088,0.307,0.245,0.443
		c0.489,0.428,1.67,0.725,3.041,0.725c1.377,0,2.552-0.303,3.043-0.725c0.156-0.137,0.244-0.287,0.244-0.443V3.625"/>
	<path fill="#579663" stroke="#487A50" stroke-width="0.5" stroke-miterlimit="10" d="M71.554,3.625
		c0,0.645-1.471,1.168-3.287,1.168c-1.813,0-3.286-0.523-3.286-1.168c0-0.648,1.473-1.17,3.286-1.17
		C70.083,2.455,71.554,2.977,71.554,3.625z"/>
	<path id="repo1_37_" fill="#579663" stroke="#487A50" stroke-width="0.5" stroke-miterlimit="10" d="M64.98,2.168
		C64.98,1.522,66.45,1,68.267,1c1.817,0,3.287,0.521,3.287,1.168 M64.98,2.168v1.457c0,0.154,0.088,0.307,0.245,0.443
		c0.489,0.426,1.67,0.725,3.041,0.725c1.377,0,2.552-0.303,3.043-0.725c0.156-0.137,0.244-0.289,0.244-0.443V2.168"/>
	<path fill="#579663" stroke="#487A50" stroke-width="0.5" stroke-miterlimit="10" d="M71.554,2.168
		c0,0.646-1.471,1.168-3.287,1.168c-1.813,0-3.286-0.521-3.286-1.168S66.45,1,68.267,1C70.084,1,71.554,1.522,71.554,2.168z"/>
</g>
<g>
	<path id="repo1_29_" fill="#FCD770" stroke="#E0BD65" stroke-width="0.5" stroke-miterlimit="10" d="M72.628,26.957
		c0-0.646,1.471-1.168,3.286-1.168c1.813,0,3.287,0.521,3.287,1.168 M72.628,26.957v1.457c0,0.154,0.088,0.307,0.245,0.443
		c0.486,0.426,1.67,0.725,3.041,0.725c1.377,0,2.552-0.303,3.043-0.725c0.153-0.137,0.244-0.289,0.244-0.443v-1.457"/>
	<path fill="#FCD770" stroke="#E0BD65" stroke-width="0.5" stroke-miterlimit="10" d="M79.201,26.957
		c0,0.646-1.474,1.168-3.287,1.168c-1.815,0-3.286-0.521-3.286-1.168s1.471-1.168,3.286-1.168
		C77.731,25.789,79.201,26.311,79.201,26.957z"/>
</g>
<g>
	<path id="repo1_30_" fill="#FCD770" stroke="#E0BD65" stroke-width="0.5" stroke-miterlimit="10" d="M61.845,26.957
		c0-0.646,1.471-1.168,3.287-1.168c1.817,0,3.288,0.521,3.288,1.168 M61.845,26.957v1.457c0,0.154,0.088,0.307,0.246,0.443
		c0.488,0.426,1.67,0.725,3.041,0.725c1.378,0,2.552-0.303,3.044-0.725c0.156-0.137,0.244-0.289,0.244-0.443v-1.457"/>
	<path fill="#FCD770" stroke="#E0BD65" stroke-width="0.5" stroke-miterlimit="10" d="M68.42,26.957
		c0,0.646-1.471,1.168-3.288,1.168c-1.816,0-3.287-0.521-3.287-1.168s1.471-1.168,3.287-1.168
		C66.949,25.789,68.42,26.311,68.42,26.957z"/>
</g>
<text transform="matrix(1 0 0 1 116.1926 6.2314)" fill="#404040" font-family="'NettoOT-Bold'" font-size="2.5">Patch</text>
<circle fill="#4BD6BA" stroke="#43BA9E" stroke-width="0.5" stroke-miterlimit="10" cx="54.477" cy="40.234" r="3.348"/>
<circle fill="#4BD6BA" stroke="#43BA9E" stroke-width="0.5" stroke-miterlimit="10" cx="65.198" cy="40.234" r="3.348"/>
<circle fill="#4BD6BA" stroke="#43BA9E" stroke-width="0.5" stroke-miterlimit="10" cx="75.916" cy="40.234" r="3.348"/>
<g>
	<path id="repo1_41_" fill="#FCD770" stroke="#E0BD65" stroke-width="0.5" stroke-miterlimit="10" d="M107.374,4.477
		c0-0.646,1.471-1.168,3.286-1.168c1.814,0,3.285,0.521,3.285,1.168 M107.374,4.477v1.457c0,0.154,0.088,0.307,0.245,0.443
		c0.486,0.426,1.671,0.725,3.041,0.725c1.377,0,2.552-0.303,3.043-0.725c0.154-0.137,0.242-0.289,0.242-0.443V4.477"/>
	<path fill="#FCD770" stroke="#E0BD65" stroke-width="0.5" stroke-miterlimit="10" d="M113.948,4.477
		c0,0.646-1.473,1.168-3.287,1.168c-1.815,0-3.286-0.521-3.286-1.168s1.471-1.168,3.286-1.168
		C112.478,3.309,113.948,3.831,113.948,4.477z"/>
</g>
<path fill="none" stroke="#DDDDDD" stroke-width="0.5" stroke-miterlimit="10" d="M65.14,32.045v2.58 M63.937,32.997l1.203-1.188
	l1.188,1.188"/>
<path fill="none" stroke="#DDDDDD" stroke-width="0.5" stroke-miterlimit="10" d="M75.922,32.045v2.58 M74.72,32.997l1.202-1.188
	l1.188,1.188"/>
<text transform="matrix(1 0 0 1 60.9114 23.0068)" fill="#404040" font-family="'NettoOT-Bold'" font-size="2.5">patch-1</text>
<text transform="matrix(1 0 0 1 71.5549 23.0068)" fill="#404040" font-family="'NettoOT-Bold'" font-size="2.5">patch-2</text>
<path fill="none" stroke="#404040" stroke-width="0.6" stroke-miterlimit="10" d="M96.486,53.309H92.34l0,0"/>
<circle fill="#62B3CC" stroke="#57A1B2" stroke-width="0.5" stroke-miterlimit="10" cx="95.586" cy="53.309" r="3.248"/>
<text transform="matrix(1 0 0 1 92.6243 60.2612)" fill="#404040" font-family="'NettoOT-Bold'" font-size="2.5">v1.1.0</text>
<g>
	<path fill="none" stroke="#DDDDDD" stroke-width="0.5" stroke-miterlimit="10" d="M85.801,46.772c0-3.604-2.934-6.538-6.537-6.538"
		/>
	<path fill="none" stroke="#DDDDDD" stroke-width="0.5" stroke-miterlimit="10" d="M85.801,46.772c0,3.604,2.936,6.537,6.537,6.537"
		/>
</g>
<g>
	<path id="repo1_1_" fill="#FCD770" stroke="#E0BD65" stroke-width="0.5" stroke-miterlimit="10" d="M109.551,26.88
		c0-0.646,1.471-1.168,3.287-1.168c1.814,0,3.288,0.521,3.288,1.168 M109.551,26.88v1.457c0,0.154,0.088,0.307,0.246,0.443
		c0.488,0.426,1.67,0.725,3.041,0.725c1.378,0,2.552-0.303,3.044-0.725c0.156-0.137,0.244-0.289,0.244-0.443V26.88"/>
	<path fill="#FCD770" stroke="#E0BD65" stroke-width="0.5" stroke-miterlimit="10" d="M116.126,26.88
		c0,0.646-1.474,1.168-3.288,1.168c-1.816,0-3.287-0.521-3.287-1.168s1.471-1.168,3.287-1.168
		C114.656,25.712,116.126,26.234,116.126,26.88z"/>
</g>
<circle fill="#4BD6BA" stroke="#43BA9E" stroke-width="0.5" stroke-miterlimit="10" cx="102.183" cy="40.157" r="3.348"/>
<circle fill="#4BD6BA" stroke="#43BA9E" stroke-width="0.5" stroke-miterlimit="10" cx="112.905" cy="40.157" r="3.348"/>
<path fill="none" stroke="#DDDDDD" stroke-width="0.5" stroke-miterlimit="10" d="M112.846,31.968v2.58 M111.643,32.92l1.203-1.188
	l1.188,1.188"/>
<text transform="matrix(1 0 0 1 108.4622 22.9307)" fill="#404040" font-family="'NettoOT-Bold'" font-size="2.5">patch-3</text>
<g>
	<rect x="2" y="1.836" fill="#62B3CC" stroke="#57A1B2" stroke-width="0.5" stroke-miterlimit="10" width="20" height="7"/>
	<text transform="matrix(1 0 0 1 7.2571 6.4814)" fill="#40767C" font-family="'DINPro-Medium'" font-size="3">Master</text>
</g>
<g>
	<rect x="25.176" y="1.836" fill="#4BD6BA" stroke="#43BA9E" stroke-width="0.5" stroke-miterlimit="10" width="20" height="7"/>
	<text transform="matrix(1 0 0 1 29.7522 6.4814)" fill="#3B9E84" font-family="'DINPro-Medium'" font-size="3">Develop</text>
</g>
</svg>
