<?xml version="1.0" encoding="utf-8"?>
<!-- Generator: Adobe Illustrator 16.0.0, SVG Export Plug-In . SVG Version: 6.00 Build 0)  -->
<!DOCTYPE svg PUBLIC "-//W3C//DTD SVG 1.1//EN" "http://www.w3.org/Graphics/SVG/1.1/DTD/svg11.dtd">
<svg version="1.1" id="Layer_1" xmlns="http://www.w3.org/2000/svg" xmlns:xlink="http://www.w3.org/1999/xlink" x="0px" y="0px"
	 width="127.559px" height="75.838px" viewBox="0 0 127.559 75.838" enable-background="new 0 0 127.559 75.838"
	 xml:space="preserve">
<path fill="none" stroke="#404040" stroke-width="0.6" stroke-miterlimit="10" d="M47.754,33.388h-4.146l0,0"/>
<path fill="none" stroke="#DDDDDD" stroke-width="0.5" stroke-miterlimit="10" d="M28.543,20.313H5.696l0,0"/>
<g>
	<path id="repo1_65_" fill="#579663" stroke="#487A50" stroke-width="0.5" stroke-miterlimit="10" d="M43.569,67.627
		c0-0.646,1.472-1.168,3.286-1.168c1.813,0,3.287,0.521,3.287,1.168 M43.569,67.627v1.455c0,0.157,0.089,0.31,0.245,0.442
		c0.489,0.429,1.67,0.726,3.041,0.726c1.377,0,2.553-0.302,3.043-0.726c0.156-0.135,0.244-0.285,0.244-0.442v-1.455"/>
	<path fill="#579663" stroke="#487A50" stroke-width="0.5" stroke-miterlimit="10" d="M50.142,67.627
		c0,0.646-1.474,1.168-3.287,1.168c-1.814,0-3.286-0.521-3.286-1.168s1.472-1.168,3.286-1.168
		C48.671,66.459,50.142,66.981,50.142,67.627z"/>
	<path id="repo1_64_" fill="#579663" stroke="#487A50" stroke-width="0.5" stroke-miterlimit="10" d="M43.569,66.172
		c0-0.646,1.472-1.17,3.286-1.17c1.813,0,3.287,0.522,3.287,1.17 M43.569,66.172v1.455c0,0.156,0.089,0.308,0.245,0.442
		c0.489,0.429,1.67,0.726,3.041,0.726c1.377,0,2.553-0.303,3.043-0.726c0.156-0.137,0.244-0.286,0.244-0.442v-1.455"/>
	<path fill="#579663" stroke="#487A50" stroke-width="0.5" stroke-miterlimit="10" d="M50.142,66.172
		c0,0.646-1.474,1.168-3.287,1.168c-1.814,0-3.286-0.521-3.286-1.168s1.472-1.17,3.286-1.17
		C48.671,65.002,50.142,65.526,50.142,66.172z"/>
	<path id="repo1_63_" fill="#579663" stroke="#487A50" stroke-width="0.5" stroke-miterlimit="10" d="M43.569,64.717
		c0-0.647,1.472-1.17,3.286-1.17c1.813,0,3.287,0.521,3.287,1.17 M43.569,64.717v1.455c0,0.156,0.089,0.308,0.245,0.442
		c0.489,0.429,1.67,0.726,3.041,0.726c1.377,0,2.553-0.303,3.043-0.726c0.156-0.137,0.244-0.286,0.244-0.442v-1.455"/>
	<path fill="#579663" stroke="#487A50" stroke-width="0.5" stroke-miterlimit="10" d="M50.142,64.717
		c0,0.646-1.474,1.169-3.287,1.169c-1.814,0-3.286-0.523-3.286-1.169c0-0.647,1.472-1.17,3.286-1.17
		C48.671,63.547,50.142,64.069,50.142,64.717z"/>
	<path id="repo1_62_" fill="#579663" stroke="#487A50" stroke-width="0.5" stroke-miterlimit="10" d="M43.569,63.261
		c0-0.646,1.472-1.169,3.286-1.169c1.813,0,3.287,0.521,3.287,1.169 M43.569,63.261v1.456c0,0.154,0.089,0.308,0.245,0.443
		c0.489,0.426,1.67,0.726,3.041,0.726c1.377,0,2.553-0.304,3.043-0.726c0.156-0.138,0.244-0.289,0.244-0.443v-1.456"/>
	<path fill="#579663" stroke="#487A50" stroke-width="0.5" stroke-miterlimit="10" d="M50.142,63.261
		c0,0.646-1.474,1.168-3.287,1.168c-1.814,0-3.286-0.521-3.286-1.168c0-0.648,1.472-1.169,3.286-1.169
		C48.671,62.092,50.142,62.614,50.142,63.261z"/>
</g>
<g>
	<path id="repo1_61_" fill="#EFAB59" stroke="#D39450" stroke-width="0.5" stroke-miterlimit="10" d="M43.569,54.47
		c0-0.646,1.472-1.168,3.286-1.168c1.813,0,3.287,0.52,3.287,1.168 M43.569,54.47v1.454c0,0.158,0.089,0.31,0.245,0.443
		c0.489,0.428,1.67,0.725,3.041,0.725c1.377,0,2.553-0.301,3.043-0.725c0.156-0.136,0.244-0.285,0.244-0.443V54.47"/>
	<path fill="#EFAB59" stroke="#D39450" stroke-width="0.5" stroke-miterlimit="10" d="M50.142,54.47
		c0,0.646-1.474,1.168-3.287,1.168c-1.814,0-3.286-0.521-3.286-1.168c0-0.648,1.472-1.168,3.286-1.168
		C48.671,53.302,50.142,53.823,50.142,54.47z"/>
	<path id="repo1_60_" fill="#EFAB59" stroke="#D39450" stroke-width="0.5" stroke-miterlimit="10" d="M43.569,53.015
		c0-0.646,1.472-1.17,3.286-1.17c1.813,0,3.287,0.522,3.287,1.17 M43.569,53.015v1.455c0,0.155,0.089,0.307,0.245,0.442
		c0.489,0.428,1.67,0.726,3.041,0.726c1.377,0,2.553-0.304,3.043-0.726c0.156-0.138,0.244-0.287,0.244-0.442v-1.455"/>
	<path fill="#EFAB59" stroke="#D39450" stroke-width="0.5" stroke-miterlimit="10" d="M50.142,53.015
		c0,0.646-1.474,1.168-3.287,1.168c-1.814,0-3.286-0.521-3.286-1.168c0-0.646,1.472-1.17,3.286-1.17
		C48.671,51.845,50.142,52.367,50.142,53.015z"/>
	<path id="repo1_59_" fill="#EFAB59" stroke="#D39450" stroke-width="0.5" stroke-miterlimit="10" d="M43.569,51.56
		c0-0.646,1.472-1.17,3.286-1.17c1.813,0,3.287,0.521,3.287,1.17 M43.569,51.56v1.455c0,0.155,0.089,0.307,0.245,0.442
		c0.489,0.429,1.67,0.726,3.041,0.726c1.377,0,2.553-0.304,3.043-0.726c0.156-0.138,0.244-0.287,0.244-0.442V51.56"/>
	<path fill="#EFAB59" stroke="#D39450" stroke-width="0.5" stroke-miterlimit="10" d="M50.142,51.56
		c0,0.646-1.474,1.168-3.287,1.168c-1.814,0-3.286-0.521-3.286-1.168c0-0.646,1.472-1.17,3.286-1.17
		C48.671,50.39,50.142,50.91,50.142,51.56z"/>
	<path id="repo1_58_" fill="#EFAB59" stroke="#D39450" stroke-width="0.5" stroke-miterlimit="10" d="M43.569,50.103
		c0-0.646,1.472-1.168,3.286-1.168c1.813,0,3.287,0.521,3.287,1.168 M43.569,50.103v1.457c0,0.153,0.089,0.31,0.245,0.442
		c0.489,0.427,1.67,0.726,3.041,0.726c1.377,0,2.553-0.304,3.043-0.726c0.156-0.138,0.244-0.289,0.244-0.442v-1.457"/>
	<path fill="#EFAB59" stroke="#D39450" stroke-width="0.5" stroke-miterlimit="10" d="M50.142,50.103
		c0,0.646-1.474,1.168-3.287,1.168c-1.814,0-3.286-0.521-3.286-1.168c0-0.646,1.472-1.168,3.286-1.168
		C48.671,48.935,50.142,49.455,50.142,50.103z"/>
</g>
<g enable-background="new    ">
	<path fill="#404040" d="M43.935,39.22c-0.005-0.015-0.007-0.027-0.007-0.043c0-0.064,0.055-0.13,0.127-0.13
		c0.053,0,0.103,0.03,0.123,0.085l0.273,0.818l0.252-0.815c0.018-0.053,0.068-0.088,0.12-0.088c0.068,0,0.133,0.056,0.133,0.13
		c0,0.013-0.002,0.028-0.007,0.04l-0.355,1.047c-0.02,0.06-0.075,0.103-0.14,0.103s-0.123-0.056-0.138-0.098L43.935,39.22z"/>
	<path fill="#404040" d="M45.456,38.89l-0.225,0.13c-0.02,0.013-0.05,0.022-0.073,0.022c-0.07,0-0.123-0.055-0.123-0.123
		c0-0.045,0.022-0.085,0.065-0.109l0.395-0.228c0.022-0.013,0.048-0.021,0.073-0.021c0.08,0,0.145,0.065,0.145,0.146v1.528
		c0,0.073-0.058,0.131-0.127,0.131c-0.073,0-0.13-0.058-0.13-0.131V38.89z"/>
	<path fill="#404040" d="M46.04,40.198c0-0.088,0.073-0.16,0.163-0.16c0.087,0,0.16,0.072,0.16,0.16c0,0.09-0.073,0.162-0.16,0.162
		C46.113,40.36,46.04,40.288,46.04,40.198z"/>
	<path fill="#404040" d="M47.749,39.79c0,0.168-0.055,0.313-0.158,0.416c-0.105,0.104-0.25,0.16-0.418,0.16s-0.31-0.056-0.416-0.16
		c-0.103-0.103-0.158-0.248-0.158-0.416v-0.653c0-0.17,0.055-0.312,0.158-0.415c0.105-0.105,0.248-0.16,0.416-0.16
		s0.313,0.055,0.416,0.158c0.105,0.104,0.16,0.247,0.16,0.417V39.79z M47.491,39.114c0-0.202-0.118-0.314-0.318-0.314
		s-0.315,0.112-0.315,0.314v0.698c0,0.2,0.115,0.315,0.315,0.315s0.318-0.115,0.318-0.315V39.114z"/>
	<path fill="#404040" d="M47.986,40.198c0-0.088,0.072-0.16,0.163-0.16c0.087,0,0.16,0.072,0.16,0.16c0,0.09-0.073,0.162-0.16,0.162
		C48.058,40.36,47.986,40.288,47.986,40.198z"/>
	<path fill="#404040" d="M49.694,39.79c0,0.168-0.055,0.313-0.158,0.416c-0.105,0.104-0.25,0.16-0.418,0.16s-0.311-0.056-0.416-0.16
		c-0.103-0.103-0.158-0.248-0.158-0.416v-0.653c0-0.17,0.055-0.312,0.158-0.415c0.105-0.105,0.248-0.16,0.416-0.16
		s0.313,0.055,0.416,0.158c0.105,0.104,0.16,0.247,0.16,0.417V39.79z M49.436,39.114c0-0.202-0.118-0.314-0.318-0.314
		s-0.315,0.112-0.315,0.314v0.698c0,0.2,0.115,0.315,0.315,0.315s0.318-0.115,0.318-0.315V39.114z"/>
</g>
<circle fill="#4BD6BA" stroke="#43BA9E" stroke-width="0.5" stroke-miterlimit="10" cx="27.349" cy="20.313" r="3.348"/>
<path fill="none" stroke="#DDDDDD" stroke-width="0.5" stroke-miterlimit="10" d="M46.848,46.519v-2.58 M48.05,45.567l-1.202,1.188
	l-1.188-1.188"/>
<g>
	<line fill="none" stroke="#DDDDDD" stroke-width="0.5" stroke-miterlimit="10" x1="46.856" y1="58.708" x2="46.856" y2="60.476"/>
	<line fill="none" stroke="#DDDDDD" stroke-width="0.5" stroke-miterlimit="10" x1="45.972" y1="59.664" x2="47.739" y2="59.664"/>
</g>
<g>
	<path fill="none" stroke="#DDDDDD" stroke-width="0.5" stroke-miterlimit="10" d="M37.07,26.851c0-3.604-2.934-6.538-6.536-6.538"
		/>
	<path fill="none" stroke="#DDDDDD" stroke-width="0.5" stroke-miterlimit="10" d="M37.07,26.851c0,3.604,2.938,6.537,6.537,6.537"
		/>
</g>
<circle fill="#4BD6BA" stroke="#43BA9E" stroke-width="0.5" stroke-miterlimit="10" cx="16.349" cy="20.313" r="3.348"/>
<circle fill="#4BD6BA" stroke="#43BA9E" stroke-width="0.5" stroke-miterlimit="10" cx="5.349" cy="20.313" r="3.348"/>
<g>
	<g enable-background="new    ">
		<path fill="#9E6E3E" d="M119.338,5.903c-0.135,0.135-0.33,0.201-0.553,0.201h-0.752V3.964h0.752c0.223,0,0.418,0.066,0.553,0.202
			c0.231,0.231,0.217,0.544,0.217,0.854S119.57,5.672,119.338,5.903z M119.115,4.4c-0.09-0.1-0.21-0.145-0.363-0.145h-0.395v1.557
			h0.395c0.153,0,0.273-0.045,0.363-0.144c0.111-0.124,0.115-0.355,0.115-0.649C119.231,4.725,119.227,4.523,119.115,4.4z"/>
		<path fill="#9E6E3E" d="M120.817,6.104V5.966c-0.111,0.111-0.217,0.156-0.406,0.156s-0.315-0.045-0.408-0.138
			c-0.078-0.081-0.121-0.198-0.121-0.328c0-0.255,0.178-0.438,0.526-0.438h0.403V5.109c0-0.192-0.097-0.285-0.334-0.285
			c-0.168,0-0.25,0.039-0.334,0.147l-0.201-0.189c0.145-0.169,0.295-0.22,0.547-0.22c0.418,0,0.629,0.178,0.629,0.523v1.019H120.817
			z M120.811,5.431h-0.358c-0.181,0-0.273,0.082-0.273,0.22c0,0.139,0.087,0.217,0.28,0.217c0.117,0,0.203-0.009,0.285-0.087
			c0.045-0.046,0.066-0.117,0.066-0.226V5.431z"/>
		<path fill="#9E6E3E" d="M122.039,6.104c-0.285,0-0.418-0.204-0.418-0.424V4.842h-0.174V4.607h0.174V4.145h0.307v0.463h0.295v0.234
			h-0.295v0.824c0,0.11,0.055,0.177,0.168,0.177h0.127v0.262H122.039z"/>
		<path fill="#9E6E3E" d="M123.423,6.104V5.966c-0.11,0.111-0.216,0.156-0.405,0.156s-0.316-0.045-0.409-0.138
			c-0.078-0.081-0.12-0.198-0.12-0.328c0-0.255,0.178-0.438,0.525-0.438h0.403V5.109c0-0.192-0.097-0.285-0.333-0.285
			c-0.169,0-0.25,0.039-0.334,0.147l-0.201-0.189c0.144-0.169,0.294-0.22,0.547-0.22c0.418,0,0.628,0.178,0.628,0.523v1.019H123.423
			z M123.417,5.431h-0.358c-0.18,0-0.273,0.082-0.273,0.22c0,0.139,0.088,0.217,0.28,0.217c0.117,0,0.204-0.009,0.286-0.087
			c0.045-0.046,0.065-0.117,0.065-0.226V5.431z"/>
	</g>
</g>
<g>
	<path id="repo1_36_" fill="#EFAB59" stroke="#D39450" stroke-width="0.5" stroke-miterlimit="10" d="M108.452,6.535
		c0-0.646,1.472-1.168,3.283-1.168c1.816,0,3.287,0.521,3.287,1.168 M108.452,6.535V7.99c0,0.158,0.088,0.309,0.242,0.443
		c0.489,0.428,1.673,0.725,3.041,0.725c1.38,0,2.555-0.301,3.046-0.725c0.153-0.135,0.241-0.285,0.241-0.443V6.535"/>
	<path fill="#EFAB59" stroke="#D39450" stroke-width="0.5" stroke-miterlimit="10" d="M115.026,6.535
		c0,0.646-1.471,1.168-3.287,1.168c-1.812,0-3.283-0.521-3.283-1.168s1.472-1.168,3.283-1.168
		C113.555,5.367,115.026,5.889,115.026,6.535z"/>
	<path id="repo1_35_" fill="#EFAB59" stroke="#D39450" stroke-width="0.5" stroke-miterlimit="10" d="M108.452,5.08
		c0-0.646,1.472-1.17,3.283-1.17c1.816,0,3.287,0.523,3.287,1.17 M108.452,5.08v1.455c0,0.156,0.088,0.307,0.242,0.443
		c0.489,0.428,1.673,0.725,3.041,0.725c1.38,0,2.555-0.303,3.046-0.725c0.153-0.137,0.241-0.287,0.241-0.443V5.08"/>
	<path fill="#EFAB59" stroke="#D39450" stroke-width="0.5" stroke-miterlimit="10" d="M115.026,5.08
		c0,0.646-1.471,1.168-3.287,1.168c-1.812,0-3.283-0.521-3.283-1.168s1.472-1.17,3.283-1.17
		C113.555,3.91,115.026,4.434,115.026,5.08z"/>
	<path id="repo1_34_" fill="#EFAB59" stroke="#D39450" stroke-width="0.5" stroke-miterlimit="10" d="M108.452,3.625
		c0-0.648,1.472-1.17,3.283-1.17c1.816,0,3.287,0.521,3.287,1.17 M108.452,3.625V5.08c0,0.156,0.088,0.307,0.242,0.443
		c0.489,0.428,1.673,0.725,3.041,0.725c1.38,0,2.555-0.303,3.046-0.725c0.153-0.137,0.241-0.287,0.241-0.443V3.625"/>
	<path fill="#EFAB59" stroke="#D39450" stroke-width="0.5" stroke-miterlimit="10" d="M115.026,3.625
		c0,0.645-1.471,1.168-3.287,1.168c-1.812,0-3.283-0.523-3.283-1.168c0-0.648,1.472-1.17,3.283-1.17
		C113.555,2.455,115.026,2.977,115.026,3.625z"/>
	<path id="repo1_32_" fill="#EFAB59" stroke="#D39450" stroke-width="0.5" stroke-miterlimit="10" d="M108.452,2.168
		c0-0.646,1.471-1.168,3.283-1.168c1.816,0,3.287,0.521,3.287,1.168 M108.452,2.168v1.457c0,0.154,0.088,0.307,0.242,0.443
		c0.489,0.426,1.673,0.725,3.041,0.725c1.38,0,2.555-0.303,3.046-0.725c0.153-0.137,0.241-0.289,0.241-0.443V2.168"/>
	<path fill="#EFAB59" stroke="#D39450" stroke-width="0.5" stroke-miterlimit="10" d="M115.026,2.168
		c0,0.646-1.471,1.168-3.287,1.168c-1.812,0-3.283-0.521-3.283-1.168S109.923,1,111.739,1C113.555,1,115.026,1.522,115.026,2.168z"
		/>
</g>
<g>
	<g enable-background="new    ">
		<path fill="#0E4149" d="M95.8,6.122c-0.321,0-0.554-0.074-0.757-0.282l0.216-0.213c0.156,0.156,0.327,0.204,0.547,0.204
			c0.28,0,0.442-0.12,0.442-0.328c0-0.093-0.027-0.171-0.084-0.222C96.11,5.229,96.055,5.209,95.93,5.19l-0.253-0.036
			c-0.175-0.023-0.313-0.084-0.405-0.171c-0.105-0.1-0.157-0.234-0.157-0.409c0-0.372,0.271-0.628,0.716-0.628
			c0.282,0,0.48,0.072,0.664,0.243l-0.207,0.205c-0.133-0.127-0.285-0.166-0.467-0.166c-0.252,0-0.391,0.145-0.391,0.334
			c0,0.078,0.024,0.147,0.082,0.198c0.054,0.048,0.141,0.084,0.24,0.1l0.243,0.036c0.198,0.029,0.31,0.078,0.399,0.159
			c0.117,0.102,0.175,0.255,0.175,0.438C96.57,5.888,96.248,6.122,95.8,6.122z"/>
		<path fill="#0E4149" d="M97.567,6.122c-0.342,0-0.679-0.21-0.679-0.781s0.337-0.778,0.679-0.778c0.211,0,0.358,0.06,0.502,0.213
			l-0.21,0.205c-0.097-0.105-0.171-0.145-0.292-0.145c-0.117,0-0.216,0.048-0.282,0.136c-0.065,0.084-0.09,0.192-0.09,0.369
			c0,0.178,0.024,0.289,0.09,0.373c0.066,0.087,0.165,0.135,0.282,0.135c0.121,0,0.195-0.039,0.292-0.144l0.21,0.201
			C97.925,6.06,97.778,6.122,97.567,6.122z"/>
		<path fill="#0E4149" d="M99.344,6.104V5.17c0-0.231-0.135-0.334-0.307-0.334s-0.31,0.105-0.31,0.334v0.935h-0.307V3.964h0.307
			v0.77c0.104-0.114,0.243-0.171,0.394-0.171c0.34,0,0.529,0.229,0.529,0.559v0.983H99.344z"/>
		<path fill="#0E4149" d="M100.344,5.431c0,0.262,0.139,0.428,0.389,0.428c0.17,0,0.261-0.049,0.369-0.156l0.195,0.183
			c-0.156,0.156-0.304,0.237-0.571,0.237c-0.382,0-0.685-0.201-0.685-0.781c0-0.493,0.255-0.778,0.646-0.778
			c0.409,0,0.646,0.301,0.646,0.733v0.135H100.344z M100.988,5.011c-0.048-0.114-0.156-0.192-0.301-0.192
			c-0.144,0-0.255,0.078-0.304,0.192c-0.029,0.068-0.035,0.114-0.039,0.207h0.686C101.027,5.125,101.018,5.079,100.988,5.011z"/>
		<path fill="#0E4149" d="M103.594,6.104V5.176c0-0.237-0.136-0.34-0.307-0.34c-0.166,0-0.316,0.105-0.316,0.324v0.944h-0.307V5.176
			c0-0.237-0.135-0.34-0.307-0.34c-0.171,0-0.314,0.105-0.314,0.34v0.929h-0.307V4.58h0.3v0.153
			c0.103-0.111,0.253-0.171,0.405-0.171c0.189,0,0.338,0.075,0.434,0.223c0.123-0.15,0.276-0.223,0.479-0.223
			c0.156,0,0.294,0.051,0.385,0.139c0.117,0.113,0.162,0.258,0.162,0.43v0.974H103.594z"/>
		<path fill="#0E4149" d="M105.188,6.104V5.966c-0.111,0.111-0.217,0.156-0.406,0.156s-0.315-0.045-0.408-0.138
			c-0.078-0.081-0.121-0.198-0.121-0.328c0-0.255,0.178-0.438,0.526-0.438h0.402V5.109c0-0.192-0.096-0.285-0.333-0.285
			c-0.168,0-0.25,0.039-0.334,0.147l-0.201-0.189c0.145-0.169,0.295-0.22,0.547-0.22c0.418,0,0.628,0.178,0.628,0.523v1.019H105.188
			z M105.181,5.431h-0.357c-0.181,0-0.273,0.082-0.273,0.22c0,0.139,0.087,0.217,0.28,0.217c0.117,0,0.204-0.009,0.285-0.087
			c0.045-0.046,0.065-0.117,0.065-0.226V5.431z"/>
	</g>
</g>
<g>
	<path id="repo1_40_" fill="#579663" stroke="#487A50" stroke-width="0.5" stroke-miterlimit="10" d="M85.651,6.535
		c0-0.646,1.474-1.168,3.286-1.168c1.816,0,3.287,0.521,3.287,1.168 M85.651,6.535V7.99c0,0.158,0.088,0.309,0.245,0.443
		c0.489,0.428,1.67,0.725,3.041,0.725c1.377,0,2.555-0.301,3.043-0.725c0.156-0.135,0.244-0.285,0.244-0.443V6.535"/>
	<path fill="#579663" stroke="#487A50" stroke-width="0.5" stroke-miterlimit="10" d="M92.225,6.535
		c0,0.646-1.471,1.168-3.287,1.168c-1.812,0-3.286-0.521-3.286-1.168s1.474-1.168,3.286-1.168
		C90.754,5.367,92.225,5.889,92.225,6.535z"/>
	<path id="repo1_39_" fill="#579663" stroke="#487A50" stroke-width="0.5" stroke-miterlimit="10" d="M85.651,5.08
		c0-0.646,1.474-1.17,3.286-1.17c1.816,0,3.287,0.523,3.287,1.17 M85.651,5.08v1.455c0,0.156,0.088,0.307,0.245,0.443
		c0.489,0.428,1.67,0.725,3.041,0.725c1.377,0,2.555-0.303,3.043-0.725c0.156-0.137,0.244-0.287,0.244-0.443V5.08"/>
	<path fill="#579663" stroke="#487A50" stroke-width="0.5" stroke-miterlimit="10" d="M92.225,5.08c0,0.646-1.471,1.168-3.287,1.168
		c-1.812,0-3.286-0.521-3.286-1.168s1.474-1.17,3.286-1.17C90.754,3.91,92.225,4.434,92.225,5.08z"/>
	<path id="repo1_38_" fill="#579663" stroke="#487A50" stroke-width="0.5" stroke-miterlimit="10" d="M85.651,3.625
		c0-0.648,1.474-1.17,3.286-1.17c1.816,0,3.287,0.521,3.287,1.17 M85.651,3.625V5.08c0,0.156,0.088,0.307,0.245,0.443
		c0.489,0.428,1.67,0.725,3.041,0.725c1.377,0,2.555-0.303,3.043-0.725c0.156-0.137,0.244-0.287,0.244-0.443V3.625"/>
	<path fill="#579663" stroke="#487A50" stroke-width="0.5" stroke-miterlimit="10" d="M92.225,3.625
		c0,0.645-1.471,1.168-3.287,1.168c-1.812,0-3.286-0.523-3.286-1.168c0-0.648,1.474-1.17,3.286-1.17
		C90.754,2.455,92.225,2.977,92.225,3.625z"/>
	<path id="repo1_37_" fill="#579663" stroke="#487A50" stroke-width="0.5" stroke-miterlimit="10" d="M85.651,2.168
		C85.651,1.522,87.121,1,88.938,1c1.817,0,3.287,0.521,3.287,1.168 M85.651,2.168v1.457c0,0.154,0.088,0.307,0.245,0.443
		c0.489,0.426,1.67,0.725,3.041,0.725c1.377,0,2.555-0.303,3.043-0.725c0.156-0.137,0.244-0.289,0.244-0.443V2.168"/>
	<path fill="#579663" stroke="#487A50" stroke-width="0.5" stroke-miterlimit="10" d="M92.225,2.168
		c0,0.646-1.471,1.168-3.287,1.168c-1.812,0-3.286-0.521-3.286-1.168S87.121,1,88.938,1C90.755,1,92.225,1.522,92.225,2.168z"/>
</g>
<g>
	<rect x="2.429" y="1.836" fill="#62B3CC" stroke="#57A1B2" stroke-width="0.5" stroke-miterlimit="10" width="20" height="7"/>
	<g enable-background="new    ">
		<path fill="#40767C" d="M9.529,6.481V5.051L9.035,6.094h-0.24L8.29,5.051v1.431H7.966V4.341H8.29l0.625,1.332l0.613-1.332h0.325
			v2.141H9.529z"/>
		<path fill="#40767C" d="M11.189,6.481V6.343c-0.111,0.111-0.216,0.156-0.406,0.156s-0.315-0.045-0.409-0.138
			c-0.078-0.081-0.12-0.198-0.12-0.328c0-0.255,0.177-0.438,0.526-0.438h0.403V5.486c0-0.192-0.096-0.285-0.333-0.285
			c-0.168,0-0.25,0.039-0.334,0.147l-0.201-0.189c0.144-0.169,0.294-0.22,0.547-0.22c0.418,0,0.628,0.178,0.628,0.523v1.019H11.189z
			 M11.183,5.808h-0.358c-0.18,0-0.273,0.082-0.273,0.22c0,0.139,0.087,0.217,0.28,0.217c0.117,0,0.204-0.009,0.286-0.087
			c0.045-0.046,0.066-0.117,0.066-0.226V5.808z"/>
		<path fill="#40767C" d="M12.451,6.499c-0.25,0-0.46-0.042-0.64-0.219l0.201-0.201c0.124,0.126,0.289,0.159,0.439,0.159
			c0.187,0,0.334-0.066,0.334-0.211c0-0.102-0.057-0.168-0.205-0.18l-0.244-0.021c-0.286-0.024-0.451-0.153-0.451-0.421
			c0-0.298,0.255-0.466,0.574-0.466c0.229,0,0.424,0.048,0.565,0.171l-0.192,0.195c-0.096-0.081-0.231-0.11-0.375-0.11
			c-0.184,0-0.277,0.081-0.277,0.195c0,0.09,0.048,0.159,0.21,0.174l0.241,0.021c0.286,0.023,0.454,0.159,0.454,0.43
			C13.085,6.334,12.815,6.499,12.451,6.499z"/>
		<path fill="#40767C" d="M13.879,6.481c-0.286,0-0.417-0.204-0.417-0.424V5.219h-0.175V4.984h0.175V4.521h0.306v0.463h0.295v0.234
			h-0.295v0.824c0,0.11,0.054,0.177,0.168,0.177h0.126v0.262H13.879z"/>
		<path fill="#40767C" d="M14.668,5.808c0,0.262,0.139,0.428,0.388,0.428c0.171,0,0.261-0.049,0.37-0.156l0.195,0.183
			c-0.156,0.156-0.304,0.237-0.571,0.237c-0.382,0-0.685-0.201-0.685-0.781c0-0.493,0.255-0.778,0.646-0.778
			c0.409,0,0.646,0.301,0.646,0.733v0.135H14.668z M15.311,5.388c-0.048-0.114-0.156-0.192-0.301-0.192
			c-0.144,0-0.255,0.078-0.304,0.192c-0.03,0.068-0.036,0.114-0.039,0.207h0.686C15.35,5.502,15.341,5.456,15.311,5.388z"/>
		<path fill="#40767C" d="M16.898,5.315c-0.069-0.069-0.123-0.103-0.229-0.103c-0.165,0-0.303,0.132-0.303,0.343v0.926h-0.307V4.957
			h0.3v0.166c0.078-0.108,0.234-0.184,0.406-0.184c0.147,0,0.259,0.039,0.364,0.145L16.898,5.315z"/>
	</g>
</g>
<g>
	<rect x="25.236" y="1.836" fill="#4BD6BA" stroke="#43BA9E" stroke-width="0.5" stroke-miterlimit="10" width="20" height="7"/>
	<g enable-background="new    ">
		<path fill="#3B9E84" d="M31.396,6.28c-0.135,0.135-0.331,0.201-0.553,0.201h-0.751V4.341h0.751c0.222,0,0.417,0.066,0.553,0.202
			c0.231,0.231,0.217,0.544,0.217,0.854S31.627,6.049,31.396,6.28z M31.174,4.777c-0.09-0.1-0.21-0.145-0.364-0.145h-0.394v1.557
			h0.394c0.153,0,0.273-0.045,0.364-0.144c0.111-0.124,0.114-0.355,0.114-0.649C31.288,5.102,31.285,4.9,31.174,4.777z"/>
		<path fill="#3B9E84" d="M32.279,5.808c0,0.262,0.139,0.428,0.388,0.428c0.171,0,0.261-0.049,0.37-0.156l0.195,0.183
			c-0.156,0.156-0.304,0.237-0.571,0.237c-0.382,0-0.685-0.201-0.685-0.781c0-0.493,0.255-0.778,0.646-0.778
			c0.409,0,0.646,0.301,0.646,0.733v0.135H32.279z M32.922,5.388c-0.048-0.114-0.156-0.192-0.301-0.192
			c-0.144,0-0.255,0.078-0.304,0.192c-0.03,0.068-0.036,0.114-0.039,0.207h0.686C32.961,5.502,32.952,5.456,32.922,5.388z"/>
		<path fill="#3B9E84" d="M34.229,6.481h-0.25l-0.559-1.524h0.325l0.361,1.073l0.357-1.073h0.325L34.229,6.481z"/>
		<path fill="#3B9E84" d="M35.248,5.808c0,0.262,0.139,0.428,0.388,0.428c0.171,0,0.261-0.049,0.37-0.156l0.195,0.183
			c-0.156,0.156-0.304,0.237-0.571,0.237c-0.382,0-0.685-0.201-0.685-0.781c0-0.493,0.255-0.778,0.646-0.778
			c0.409,0,0.646,0.301,0.646,0.733v0.135H35.248z M35.892,5.388c-0.048-0.114-0.156-0.192-0.301-0.192
			c-0.144,0-0.255,0.078-0.304,0.192c-0.03,0.068-0.036,0.114-0.039,0.207h0.686C35.931,5.502,35.922,5.456,35.892,5.388z"/>
		<path fill="#3B9E84" d="M37.049,6.481c-0.292,0-0.418-0.195-0.418-0.421v-1.72h0.307v1.702c0,0.117,0.042,0.177,0.166,0.177h0.135
			v0.262H37.049z"/>
		<path fill="#3B9E84" d="M38.532,6.319c-0.1,0.102-0.25,0.18-0.457,0.18s-0.355-0.078-0.454-0.18
			c-0.144-0.15-0.18-0.343-0.18-0.602c0-0.255,0.036-0.447,0.18-0.598c0.099-0.103,0.247-0.181,0.454-0.181s0.357,0.078,0.457,0.181
			c0.144,0.15,0.18,0.343,0.18,0.598C38.713,5.977,38.677,6.169,38.532,6.319z M38.301,5.3c-0.057-0.057-0.135-0.087-0.226-0.087
			S37.91,5.243,37.853,5.3c-0.093,0.094-0.105,0.253-0.105,0.418s0.012,0.325,0.105,0.418c0.057,0.057,0.132,0.09,0.223,0.09
			s0.168-0.033,0.226-0.09c0.093-0.093,0.105-0.253,0.105-0.418S38.394,5.394,38.301,5.3z"/>
		<path fill="#3B9E84" d="M40.2,6.364c-0.084,0.084-0.217,0.135-0.37,0.135c-0.162,0-0.289-0.042-0.399-0.174v0.772h-0.307V4.957
			h0.3V5.12c0.114-0.139,0.238-0.181,0.403-0.181c0.153,0,0.289,0.051,0.373,0.135c0.153,0.153,0.171,0.412,0.171,0.644
			S40.354,6.211,40.2,6.364z M39.749,5.213c-0.276,0-0.318,0.234-0.318,0.505s0.042,0.508,0.318,0.508s0.315-0.237,0.315-0.508
			S40.026,5.213,39.749,5.213z"/>
	</g>
</g>
<circle fill="#62B3CC" stroke="#57A1B2" stroke-width="0.5" stroke-miterlimit="10" cx="46.855" cy="33.388" r="3.248"/>
</svg>
