<?xml version="1.0" encoding="utf-8"?>
<!-- Generator: Adobe Illustrator 16.0.0, SVG Export Plug-In . SVG Version: 6.00 Build 0)  -->
<!DOCTYPE svg PUBLIC "-//W3C//DTD SVG 1.1//EN" "http://www.w3.org/Graphics/SVG/1.1/DTD/svg11.dtd">
<svg version="1.1" id="Layer_1" xmlns="http://www.w3.org/2000/svg" xmlns:xlink="http://www.w3.org/1999/xlink" x="0px" y="0px"
	 width="127.559px" height="108.293px" viewBox="0 0 127.559 108.293" enable-background="new 0 0 127.559 108.293"
	 xml:space="preserve">
<path fill="none" stroke="#404040" stroke-width="0.6" stroke-miterlimit="10" d="M46.78,66.389h-4.146l0,0"/>
<path fill="none" stroke="#DDDDDD" stroke-width="0.5" stroke-miterlimit="10" d="M83.518,40.313H4.721l0,0"/>
<g>
	<path id="repo1_65_" fill="#579663" stroke="#487A50" stroke-width="0.5" stroke-miterlimit="10" d="M42.594,100.625
		c0-0.646,1.471-1.168,3.286-1.168c1.813,0,3.287,0.521,3.287,1.168 M42.594,100.625v1.455c0,0.158,0.088,0.311,0.245,0.443
		c0.489,0.428,1.67,0.725,3.041,0.725c1.377,0,2.552-0.301,3.043-0.725c0.156-0.135,0.244-0.285,0.244-0.443v-1.455"/>
	<path fill="#579663" stroke="#487A50" stroke-width="0.5" stroke-miterlimit="10" d="M49.167,100.625
		c0,0.646-1.474,1.168-3.287,1.168c-1.815,0-3.286-0.521-3.286-1.168s1.471-1.168,3.286-1.168
		C47.697,99.458,49.167,99.98,49.167,100.625z"/>
	<path id="repo1_64_" fill="#579663" stroke="#487A50" stroke-width="0.5" stroke-miterlimit="10" d="M42.594,99.17
		c0-0.646,1.471-1.17,3.286-1.17c1.813,0,3.287,0.523,3.287,1.17 M42.594,99.17v1.455c0,0.156,0.088,0.309,0.245,0.443
		c0.489,0.428,1.67,0.725,3.041,0.725c1.377,0,2.552-0.303,3.043-0.725c0.156-0.137,0.244-0.287,0.244-0.443V99.17"/>
	<path fill="#579663" stroke="#487A50" stroke-width="0.5" stroke-miterlimit="10" d="M49.167,99.17
		c0,0.646-1.474,1.168-3.287,1.168c-1.815,0-3.286-0.521-3.286-1.168S44.065,98,45.88,98C47.697,98,49.167,98.525,49.167,99.17z"/>
	<path id="repo1_63_" fill="#579663" stroke="#487A50" stroke-width="0.5" stroke-miterlimit="10" d="M42.594,97.715
		c0-0.646,1.471-1.17,3.286-1.17c1.813,0,3.287,0.521,3.287,1.17 M42.594,97.715v1.455c0,0.156,0.088,0.309,0.245,0.443
		c0.489,0.428,1.67,0.725,3.041,0.725c1.377,0,2.552-0.303,3.043-0.725c0.156-0.137,0.244-0.287,0.244-0.443v-1.455"/>
	<path fill="#579663" stroke="#487A50" stroke-width="0.5" stroke-miterlimit="10" d="M49.167,97.715c0,0.646-1.474,1.17-3.287,1.17
		c-1.815,0-3.286-0.523-3.286-1.17s1.471-1.17,3.286-1.17C47.697,96.545,49.167,97.068,49.167,97.715z"/>
	<path id="repo1_62_" fill="#579663" stroke="#487A50" stroke-width="0.5" stroke-miterlimit="10" d="M42.594,96.26
		c0-0.646,1.471-1.17,3.286-1.17c1.813,0,3.287,0.521,3.287,1.17 M42.594,96.26v1.455c0,0.154,0.088,0.309,0.245,0.443
		c0.489,0.426,1.67,0.727,3.041,0.727c1.377,0,2.552-0.305,3.043-0.727c0.156-0.137,0.244-0.289,0.244-0.443V96.26"/>
	<path fill="#579663" stroke="#487A50" stroke-width="0.5" stroke-miterlimit="10" d="M49.167,96.26
		c0,0.646-1.474,1.168-3.287,1.168c-1.815,0-3.286-0.521-3.286-1.168c0-0.646,1.471-1.17,3.286-1.17
		C47.697,95.09,49.167,95.614,49.167,96.26z"/>
</g>
<g>
	<path id="repo1_61_" fill="#EFAB59" stroke="#D39450" stroke-width="0.5" stroke-miterlimit="10" d="M42.594,87.469
		c0-0.646,1.471-1.168,3.286-1.168c1.813,0,3.287,0.521,3.287,1.168 M42.594,87.469v1.453c0,0.158,0.088,0.311,0.245,0.443
		c0.489,0.428,1.67,0.725,3.041,0.725c1.377,0,2.552-0.301,3.043-0.725c0.156-0.135,0.244-0.285,0.244-0.443v-1.453"/>
	<path fill="#EFAB59" stroke="#D39450" stroke-width="0.5" stroke-miterlimit="10" d="M49.167,87.469
		c0,0.646-1.474,1.168-3.287,1.168c-1.815,0-3.286-0.521-3.286-1.168c0-0.646,1.471-1.168,3.286-1.168
		C47.697,86.301,49.167,86.823,49.167,87.469z"/>
	<path id="repo1_60_" fill="#EFAB59" stroke="#D39450" stroke-width="0.5" stroke-miterlimit="10" d="M42.594,86.014
		c0-0.646,1.471-1.17,3.286-1.17c1.813,0,3.287,0.521,3.287,1.17 M42.594,86.014v1.455c0,0.154,0.088,0.307,0.245,0.441
		c0.489,0.428,1.67,0.727,3.041,0.727c1.377,0,2.552-0.305,3.043-0.727c0.156-0.137,0.244-0.287,0.244-0.441v-1.455"/>
	<path fill="#EFAB59" stroke="#D39450" stroke-width="0.5" stroke-miterlimit="10" d="M49.167,86.014
		c0,0.646-1.474,1.168-3.287,1.168c-1.815,0-3.286-0.521-3.286-1.168c0-0.646,1.471-1.17,3.286-1.17
		C47.697,84.844,49.167,85.368,49.167,86.014z"/>
	<path id="repo1_59_" fill="#EFAB59" stroke="#D39450" stroke-width="0.5" stroke-miterlimit="10" d="M42.594,84.559
		c0-0.646,1.471-1.17,3.286-1.17c1.813,0,3.287,0.521,3.287,1.17 M42.594,84.559v1.455c0,0.154,0.088,0.307,0.245,0.441
		c0.489,0.43,1.67,0.727,3.041,0.727c1.377,0,2.552-0.305,3.043-0.727c0.156-0.137,0.244-0.287,0.244-0.441v-1.455"/>
	<path fill="#EFAB59" stroke="#D39450" stroke-width="0.5" stroke-miterlimit="10" d="M49.167,84.559
		c0,0.646-1.474,1.168-3.287,1.168c-1.815,0-3.286-0.521-3.286-1.168c0-0.646,1.471-1.17,3.286-1.17
		C47.697,83.389,49.167,83.911,49.167,84.559z"/>
	<path id="repo1_58_" fill="#EFAB59" stroke="#D39450" stroke-width="0.5" stroke-miterlimit="10" d="M42.594,83.102
		c0-0.646,1.471-1.168,3.286-1.168c1.813,0,3.287,0.521,3.287,1.168 M42.594,83.102v1.457c0,0.152,0.088,0.308,0.245,0.441
		c0.489,0.428,1.67,0.727,3.041,0.727c1.377,0,2.552-0.305,3.043-0.727c0.156-0.137,0.244-0.289,0.244-0.441v-1.457"/>
	<path fill="#EFAB59" stroke="#D39450" stroke-width="0.5" stroke-miterlimit="10" d="M49.167,83.102
		c0,0.646-1.474,1.168-3.287,1.168c-1.815,0-3.286-0.521-3.286-1.168c0-0.646,1.471-1.168,3.286-1.168
		C47.697,81.934,49.167,82.456,49.167,83.102z"/>
</g>
<g enable-background="new    ">
	<path fill="#404040" d="M42.961,72.221c-0.005-0.015-0.007-0.027-0.007-0.043c0-0.064,0.055-0.13,0.127-0.13
		c0.053,0,0.103,0.03,0.123,0.085l0.273,0.818l0.252-0.815c0.018-0.053,0.068-0.088,0.12-0.088c0.068,0,0.133,0.056,0.133,0.13
		c0,0.013-0.002,0.028-0.007,0.04l-0.355,1.047c-0.02,0.06-0.075,0.103-0.14,0.103s-0.123-0.056-0.138-0.098L42.961,72.221z"/>
	<path fill="#404040" d="M44.481,71.891l-0.225,0.13c-0.02,0.013-0.05,0.022-0.073,0.022c-0.07,0-0.123-0.055-0.123-0.123
		c0-0.045,0.022-0.085,0.065-0.109l0.395-0.228c0.022-0.013,0.048-0.021,0.073-0.021c0.08,0,0.145,0.065,0.145,0.146v1.528
		c0,0.073-0.058,0.131-0.127,0.131c-0.073,0-0.13-0.058-0.13-0.131V71.891z"/>
	<path fill="#404040" d="M45.066,73.199c0-0.088,0.073-0.16,0.163-0.16c0.087,0,0.16,0.072,0.16,0.16c0,0.09-0.073,0.162-0.16,0.162
		C45.138,73.361,45.066,73.289,45.066,73.199z"/>
	<path fill="#404040" d="M46.775,72.791c0,0.168-0.055,0.313-0.158,0.416c-0.105,0.104-0.25,0.16-0.418,0.16s-0.31-0.056-0.416-0.16
		c-0.103-0.103-0.158-0.248-0.158-0.416v-0.653c0-0.17,0.055-0.312,0.158-0.415c0.105-0.105,0.248-0.16,0.416-0.16
		s0.313,0.055,0.416,0.158c0.105,0.104,0.16,0.247,0.16,0.417V72.791z M46.517,72.115c0-0.202-0.118-0.314-0.318-0.314
		s-0.315,0.112-0.315,0.314v0.698c0,0.2,0.115,0.315,0.315,0.315s0.318-0.115,0.318-0.315V72.115z"/>
	<path fill="#404040" d="M47.011,73.199c0-0.088,0.072-0.16,0.163-0.16c0.087,0,0.16,0.072,0.16,0.16c0,0.09-0.073,0.162-0.16,0.162
		C47.083,73.361,47.011,73.289,47.011,73.199z"/>
	<path fill="#404040" d="M48.719,72.791c0,0.168-0.055,0.313-0.158,0.416c-0.105,0.104-0.25,0.16-0.418,0.16
		s-0.311-0.056-0.416-0.16c-0.103-0.103-0.158-0.248-0.158-0.416v-0.653c0-0.17,0.055-0.312,0.158-0.415
		c0.105-0.105,0.248-0.16,0.416-0.16s0.313,0.055,0.416,0.158c0.105,0.104,0.16,0.247,0.16,0.417V72.791z M48.462,72.115
		c0-0.202-0.118-0.314-0.318-0.314s-0.315,0.112-0.315,0.314v0.698c0,0.2,0.115,0.315,0.315,0.315s0.318-0.115,0.318-0.315V72.115z"
		/>
</g>
<circle fill="#4BD6BA" stroke="#43BA9E" stroke-width="0.5" stroke-miterlimit="10" cx="26.374" cy="40.313" r="3.348"/>
<path fill="none" stroke="#DDDDDD" stroke-width="0.5" stroke-miterlimit="10" d="M45.873,79.52v-2.58 M47.075,78.566l-1.202,1.188
	l-1.188-1.188"/>
<g>
	<line fill="none" stroke="#DDDDDD" stroke-width="0.5" stroke-miterlimit="10" x1="45.881" y1="91.708" x2="45.881" y2="93.477"/>
	<line fill="none" stroke="#DDDDDD" stroke-width="0.5" stroke-miterlimit="10" x1="44.997" y1="92.665" x2="46.764" y2="92.665"/>
</g>
<g>
	<path fill="none" stroke="#DDDDDD" stroke-width="0.5" stroke-miterlimit="10" d="M29.558,40.313c3.604,0,6.537,2.934,6.537,6.538
		v12.954c0,3.604,2.938,6.535,6.537,6.535"/>
</g>
<circle fill="#4BD6BA" stroke="#43BA9E" stroke-width="0.5" stroke-miterlimit="10" cx="15.374" cy="40.313" r="3.348"/>
<circle fill="#4BD6BA" stroke="#43BA9E" stroke-width="0.5" stroke-miterlimit="10" cx="4.374" cy="40.313" r="3.348"/>
<g enable-background="new    ">
	<path fill="#404040" d="M120.034,6.105c-0.091,0-0.163-0.072-0.163-0.16V4.512c0-0.088,0.072-0.16,0.163-0.16h0.33
		c0.411,0,0.688,0.272,0.688,0.681v0.393c0,0.408-0.277,0.681-0.688,0.681H120.034z M120.787,5.027c0-0.266-0.152-0.424-0.42-0.424
		h-0.23v1.249h0.23c0.268,0,0.42-0.16,0.42-0.423V5.027z"/>
	<path fill="#404040" d="M122.27,5.913c0,0.069-0.045,0.13-0.109,0.152c-0.123,0.043-0.266,0.065-0.406,0.065
		c-0.152,0-0.272-0.038-0.357-0.11s-0.13-0.175-0.13-0.298s0.045-0.218,0.13-0.288c0.085-0.072,0.205-0.11,0.357-0.11h0.258V5.237
		c0-0.105-0.077-0.188-0.207-0.188c-0.118,0-0.184,0.015-0.271,0.067c-0.021,0.013-0.048,0.022-0.07,0.022
		c-0.067,0-0.122-0.05-0.122-0.112c0-0.046,0.02-0.091,0.062-0.115c0.135-0.078,0.252-0.101,0.433-0.101
		c0.28,0,0.433,0.203,0.433,0.426V5.913z M122.012,5.562h-0.258c-0.217,0-0.23,0.117-0.23,0.16c0,0.045,0.014,0.17,0.23,0.17
		c0.086,0,0.178-0.013,0.258-0.032V5.562z"/>
	<path fill="#404040" d="M122.574,4.456c0-0.072,0.057-0.13,0.129-0.13c0.07,0,0.129,0.058,0.129,0.13v0.381h0.242
		c0.072,0,0.13,0.053,0.13,0.122c0,0.075-0.055,0.125-0.13,0.125h-0.242v0.653c0,0.096,0.049,0.155,0.114,0.155
		c0.073,0,0.085-0.02,0.133-0.02c0.062,0,0.125,0.045,0.125,0.12c0,0.062-0.048,0.109-0.11,0.122
		c-0.05,0.01-0.098,0.016-0.147,0.016c-0.205,0-0.372-0.16-0.372-0.391V4.456z"/>
	<path fill="#404040" d="M124.365,5.913c0,0.069-0.046,0.13-0.111,0.152c-0.122,0.043-0.265,0.065-0.404,0.065
		c-0.153,0-0.273-0.038-0.358-0.11s-0.13-0.175-0.13-0.298s0.045-0.218,0.13-0.288c0.085-0.072,0.205-0.11,0.358-0.11h0.258V5.237
		c0-0.105-0.078-0.188-0.209-0.188c-0.117,0-0.182,0.015-0.27,0.067c-0.02,0.013-0.048,0.022-0.07,0.022
		c-0.067,0-0.123-0.05-0.123-0.112c0-0.046,0.021-0.091,0.062-0.115c0.136-0.078,0.254-0.101,0.434-0.101
		c0.28,0,0.434,0.203,0.434,0.426V5.913z M124.108,5.562h-0.258c-0.219,0-0.23,0.117-0.23,0.16c0,0.045,0.012,0.17,0.23,0.17
		c0.084,0,0.178-0.013,0.258-0.032V5.562z"/>
</g>
<g>
	<path id="repo1_36_" fill="#EFAB59" stroke="#D39450" stroke-width="0.5" stroke-miterlimit="10" d="M110.4,6.535
		c0-0.646,1.474-1.168,3.286-1.168c1.816,0,3.287,0.521,3.287,1.168 M110.4,6.535V7.99c0,0.158,0.088,0.309,0.245,0.443
		c0.489,0.428,1.67,0.725,3.041,0.725c1.377,0,2.552-0.301,3.043-0.725c0.156-0.135,0.244-0.285,0.244-0.443V6.535"/>
	<path fill="#EFAB59" stroke="#D39450" stroke-width="0.5" stroke-miterlimit="10" d="M116.973,6.535
		c0,0.646-1.471,1.168-3.287,1.168c-1.812,0-3.286-0.521-3.286-1.168s1.474-1.168,3.286-1.168
		C115.502,5.367,116.973,5.889,116.973,6.535z"/>
	<path id="repo1_35_" fill="#EFAB59" stroke="#D39450" stroke-width="0.5" stroke-miterlimit="10" d="M110.4,5.08
		c0-0.646,1.474-1.17,3.286-1.17c1.816,0,3.287,0.523,3.287,1.17 M110.4,5.08v1.455c0,0.156,0.088,0.307,0.245,0.443
		c0.489,0.428,1.67,0.725,3.041,0.725c1.377,0,2.552-0.303,3.043-0.725c0.156-0.137,0.244-0.287,0.244-0.443V5.08"/>
	<path fill="#EFAB59" stroke="#D39450" stroke-width="0.5" stroke-miterlimit="10" d="M116.973,5.08
		c0,0.646-1.471,1.168-3.287,1.168c-1.812,0-3.286-0.521-3.286-1.168s1.474-1.17,3.286-1.17
		C115.502,3.91,116.973,4.434,116.973,5.08z"/>
	<path id="repo1_34_" fill="#EFAB59" stroke="#D39450" stroke-width="0.5" stroke-miterlimit="10" d="M110.4,3.625
		c0-0.648,1.474-1.17,3.286-1.17c1.816,0,3.287,0.521,3.287,1.17 M110.4,3.625V5.08c0,0.156,0.088,0.307,0.245,0.443
		c0.489,0.428,1.67,0.725,3.041,0.725c1.377,0,2.552-0.303,3.043-0.725c0.156-0.137,0.244-0.287,0.244-0.443V3.625"/>
	<path fill="#EFAB59" stroke="#D39450" stroke-width="0.5" stroke-miterlimit="10" d="M116.973,3.625
		c0,0.645-1.471,1.168-3.287,1.168c-1.812,0-3.286-0.523-3.286-1.168c0-0.648,1.474-1.17,3.286-1.17
		C115.502,2.455,116.973,2.977,116.973,3.625z"/>
	<path id="repo1_32_" fill="#EFAB59" stroke="#D39450" stroke-width="0.5" stroke-miterlimit="10" d="M110.4,2.168
		C110.4,1.522,111.87,1,113.686,1c1.816,0,3.287,0.521,3.287,1.168 M110.4,2.168v1.457c0,0.154,0.088,0.307,0.245,0.443
		c0.489,0.426,1.67,0.725,3.041,0.725c1.377,0,2.552-0.303,3.043-0.725c0.156-0.137,0.244-0.289,0.244-0.443V2.168"/>
	<path fill="#EFAB59" stroke="#D39450" stroke-width="0.5" stroke-miterlimit="10" d="M116.973,2.168
		c0,0.646-1.471,1.168-3.287,1.168c-1.812,0-3.286-0.521-3.286-1.168S111.87,1,113.686,1C115.502,1,116.973,1.522,116.973,2.168z"/>
</g>
<g enable-background="new    ">
	<path fill="#404040" d="M97.293,5.237c-0.195-0.085-0.296-0.238-0.296-0.433c0-0.298,0.28-0.479,0.565-0.479
		c0.138,0,0.283,0.025,0.413,0.083c0.052,0.022,0.098,0.058,0.098,0.127c0,0.065-0.056,0.12-0.126,0.12
		c-0.014,0-0.029-0.002-0.047-0.01c-0.061-0.022-0.147-0.075-0.351-0.075c-0.122,0-0.285,0.05-0.285,0.221
		c0,0.117,0.058,0.17,0.157,0.215l0.285,0.125c0.191,0.083,0.371,0.2,0.371,0.468c0,0.303-0.218,0.531-0.556,0.531
		c-0.147,0-0.317-0.04-0.448-0.096c-0.047-0.02-0.077-0.062-0.077-0.117c0-0.07,0.045-0.128,0.12-0.128
		c0.032,0,0.058,0.008,0.08,0.018c0.103,0.045,0.207,0.077,0.325,0.077c0.181,0,0.288-0.087,0.288-0.252
		c0-0.125-0.105-0.213-0.218-0.263L97.293,5.237z"/>
	<path fill="#404040" d="M98.27,5.312c0-0.146,0.047-0.271,0.138-0.36c0.093-0.093,0.218-0.141,0.362-0.141
		c0.123,0,0.24,0.027,0.348,0.08c0.048,0.022,0.073,0.067,0.073,0.115c0,0.062-0.053,0.118-0.123,0.118
		c-0.022,0-0.042-0.008-0.06-0.016c-0.072-0.032-0.155-0.06-0.238-0.06c-0.152,0-0.242,0.09-0.242,0.242v0.355
		c0,0.155,0.09,0.243,0.242,0.243c0.083,0,0.173-0.028,0.246-0.062c0.018-0.011,0.035-0.013,0.055-0.013
		c0.062,0,0.12,0.05,0.12,0.12c0,0.047-0.028,0.093-0.075,0.115c-0.107,0.052-0.223,0.08-0.346,0.08
		c-0.145,0-0.27-0.048-0.362-0.141C98.317,5.9,98.27,5.775,98.27,5.628V5.312z"/>
	<path fill="#404040" d="M100.16,5.292c0-0.152-0.09-0.242-0.245-0.242c-0.088,0-0.173,0.032-0.243,0.09V6
		c0,0.073-0.057,0.131-0.127,0.131c-0.072,0-0.131-0.058-0.131-0.131V4.456c0-0.072,0.059-0.13,0.131-0.13
		c0.07,0,0.127,0.058,0.127,0.13v0.421c0.078-0.035,0.178-0.065,0.261-0.065c0.147,0,0.255,0.043,0.348,0.136
		c0.091,0.09,0.138,0.22,0.138,0.365V6c0,0.073-0.058,0.131-0.13,0.131c-0.073,0-0.128-0.058-0.128-0.131V5.292z"/>
	<path fill="#404040" d="M100.935,5.593c0,0.103,0.018,0.17,0.05,0.215c0.043,0.055,0.107,0.085,0.193,0.085
		c0.095,0,0.186-0.027,0.27-0.064c0.018-0.008,0.035-0.013,0.053-0.013c0.062,0,0.123,0.053,0.123,0.117
		c0,0.048-0.02,0.09-0.064,0.112c-0.121,0.058-0.248,0.086-0.381,0.086c-0.146,0-0.271-0.048-0.363-0.141
		c-0.09-0.09-0.137-0.215-0.137-0.362V5.312c0-0.146,0.047-0.271,0.137-0.36c0.093-0.093,0.218-0.141,0.363-0.141
		c0.147,0,0.272,0.048,0.363,0.141c0.09,0.09,0.14,0.215,0.14,0.36V5.43c0,0.09-0.073,0.163-0.163,0.163H100.935z M101.423,5.354
		c0-0.207-0.085-0.305-0.245-0.305c-0.158,0-0.243,0.095-0.243,0.305H101.423z"/>
	<path fill="#404040" d="M103.326,5.265c0-0.117-0.098-0.215-0.215-0.215c-0.078,0-0.153,0.024-0.216,0.064V6
		c0,0.073-0.058,0.131-0.13,0.131c-0.07,0-0.128-0.058-0.128-0.131V5.232c0-0.146-0.095-0.183-0.205-0.183
		c-0.09,0-0.146,0.012-0.226,0.034V6c0,0.073-0.057,0.131-0.127,0.131c-0.072,0-0.131-0.058-0.131-0.131V5.037
		c0-0.067,0.043-0.128,0.105-0.152c0.131-0.051,0.258-0.073,0.402-0.073c0.121,0,0.226,0.038,0.303,0.103
		c0.104-0.067,0.227-0.103,0.352-0.103c0.27,0,0.473,0.203,0.473,0.474V6c0,0.073-0.058,0.131-0.131,0.131
		c-0.072,0-0.127-0.058-0.127-0.131V5.265z"/>
	<path fill="#404040" d="M104.823,5.913c0,0.069-0.046,0.13-0.11,0.152c-0.123,0.043-0.266,0.065-0.405,0.065
		c-0.153,0-0.272-0.038-0.358-0.11c-0.084-0.072-0.13-0.175-0.13-0.298s0.046-0.218,0.13-0.288c0.086-0.072,0.205-0.11,0.358-0.11
		h0.258V5.237c0-0.105-0.077-0.188-0.208-0.188c-0.117,0-0.183,0.015-0.27,0.067c-0.021,0.013-0.048,0.022-0.07,0.022
		c-0.068,0-0.123-0.05-0.123-0.112c0-0.046,0.02-0.091,0.062-0.115c0.135-0.078,0.253-0.101,0.434-0.101
		c0.279,0,0.433,0.203,0.433,0.426V5.913z M104.566,5.562h-0.258c-0.218,0-0.23,0.117-0.23,0.16c0,0.045,0.013,0.17,0.23,0.17
		c0.085,0,0.178-0.013,0.258-0.032V5.562z"/>
</g>
<g>
	<path id="repo1_40_" fill="#579663" stroke="#487A50" stroke-width="0.5" stroke-miterlimit="10" d="M87.598,6.535
		c0-0.646,1.471-1.168,3.286-1.168c1.816,0,3.287,0.521,3.287,1.168 M87.598,6.535V7.99c0,0.158,0.088,0.309,0.245,0.443
		c0.489,0.428,1.67,0.725,3.041,0.725c1.377,0,2.552-0.301,3.043-0.725c0.156-0.135,0.244-0.285,0.244-0.443V6.535"/>
	<path fill="#579663" stroke="#487A50" stroke-width="0.5" stroke-miterlimit="10" d="M94.172,6.535
		c0,0.646-1.471,1.168-3.287,1.168c-1.815,0-3.286-0.521-3.286-1.168s1.471-1.168,3.286-1.168
		C92.701,5.367,94.172,5.889,94.172,6.535z"/>
	<path id="repo1_39_" fill="#579663" stroke="#487A50" stroke-width="0.5" stroke-miterlimit="10" d="M87.598,5.08
		c0-0.646,1.471-1.17,3.286-1.17c1.816,0,3.287,0.523,3.287,1.17 M87.598,5.08v1.455c0,0.156,0.088,0.307,0.245,0.443
		c0.489,0.428,1.67,0.725,3.041,0.725c1.377,0,2.552-0.303,3.043-0.725c0.156-0.137,0.244-0.287,0.244-0.443V5.08"/>
	<path fill="#579663" stroke="#487A50" stroke-width="0.5" stroke-miterlimit="10" d="M94.172,5.08c0,0.646-1.471,1.168-3.287,1.168
		c-1.815,0-3.286-0.521-3.286-1.168s1.471-1.17,3.286-1.17C92.701,3.91,94.172,4.434,94.172,5.08z"/>
	<path id="repo1_38_" fill="#579663" stroke="#487A50" stroke-width="0.5" stroke-miterlimit="10" d="M87.598,3.625
		c0-0.648,1.471-1.17,3.286-1.17c1.816,0,3.287,0.521,3.287,1.17 M87.598,3.625V5.08c0,0.156,0.088,0.307,0.245,0.443
		c0.489,0.428,1.67,0.725,3.041,0.725c1.377,0,2.552-0.303,3.043-0.725c0.156-0.137,0.244-0.287,0.244-0.443V3.625"/>
	<path fill="#579663" stroke="#487A50" stroke-width="0.5" stroke-miterlimit="10" d="M94.172,3.625
		c0,0.645-1.471,1.168-3.287,1.168c-1.815,0-3.286-0.523-3.286-1.168c0-0.648,1.471-1.17,3.286-1.17
		C92.701,2.455,94.172,2.977,94.172,3.625z"/>
	<path id="repo1_37_" fill="#579663" stroke="#487A50" stroke-width="0.5" stroke-miterlimit="10" d="M87.598,2.168
		C87.598,1.522,89.069,1,90.885,1s3.287,0.521,3.287,1.168 M87.598,2.168v1.457c0,0.154,0.088,0.307,0.245,0.443
		c0.489,0.426,1.67,0.725,3.041,0.725c1.377,0,2.552-0.303,3.043-0.725c0.156-0.137,0.244-0.289,0.244-0.443V2.168"/>
	<path fill="#579663" stroke="#487A50" stroke-width="0.5" stroke-miterlimit="10" d="M94.172,2.168
		c0,0.646-1.471,1.168-3.287,1.168c-1.815,0-3.286-0.521-3.286-1.168S89.069,1,90.885,1S94.172,1.522,94.172,2.168z"/>
</g>
<g>
	<path id="repo1_30_" fill="#FCD770" stroke="#E0BD65" stroke-width="0.5" stroke-miterlimit="10" d="M61.845,26.957
		c0-0.646,1.471-1.168,3.287-1.168c1.817,0,3.288,0.521,3.288,1.168 M61.845,26.957v1.457c0,0.154,0.088,0.307,0.246,0.443
		c0.488,0.426,1.67,0.725,3.041,0.725c1.378,0,2.552-0.303,3.044-0.725c0.156-0.137,0.244-0.289,0.244-0.443v-1.457"/>
	<path fill="#FCD770" stroke="#E0BD65" stroke-width="0.5" stroke-miterlimit="10" d="M68.42,26.957
		c0,0.646-1.471,1.168-3.288,1.168c-1.816,0-3.287-0.521-3.287-1.168s1.471-1.168,3.287-1.168
		C66.949,25.789,68.42,26.311,68.42,26.957z"/>
</g>
<g enable-background="new    ">
	<path fill="#404040" d="M119.388,14.805c0-0.088,0.073-0.16,0.163-0.16h0.418c0.312,0,0.53,0.215,0.53,0.535
		c0,0.315-0.21,0.523-0.53,0.523h-0.315v0.588c0,0.072-0.062,0.133-0.133,0.133c-0.072,0-0.133-0.061-0.133-0.133V14.805z
		 M119.969,15.45c0.125,0,0.266-0.053,0.266-0.271c0-0.175-0.094-0.283-0.266-0.283h-0.315v0.554H119.969z"/>
	<path fill="#404040" d="M121.627,16.206c0,0.069-0.046,0.13-0.111,0.152c-0.122,0.043-0.265,0.065-0.404,0.065
		c-0.153,0-0.273-0.038-0.358-0.11s-0.13-0.175-0.13-0.298s0.045-0.218,0.13-0.288c0.085-0.072,0.205-0.11,0.358-0.11h0.258V15.53
		c0-0.105-0.078-0.188-0.209-0.188c-0.117,0-0.182,0.015-0.27,0.067c-0.02,0.013-0.048,0.022-0.07,0.022
		c-0.067,0-0.123-0.05-0.123-0.112c0-0.046,0.021-0.091,0.062-0.115c0.136-0.078,0.254-0.101,0.434-0.101
		c0.28,0,0.434,0.203,0.434,0.426V16.206z M121.369,15.855h-0.258c-0.219,0-0.23,0.117-0.23,0.16c0,0.045,0.012,0.17,0.23,0.17
		c0.084,0,0.178-0.013,0.258-0.032V15.855z"/>
	<path fill="#404040" d="M121.931,14.749c0-0.072,0.058-0.13,0.13-0.13c0.07,0,0.128,0.058,0.128,0.13v0.381h0.243
		c0.072,0,0.129,0.053,0.129,0.122c0,0.075-0.055,0.125-0.129,0.125h-0.243v0.653c0,0.096,0.05,0.155,0.115,0.155
		c0.072,0,0.085-0.02,0.132-0.02c0.062,0,0.125,0.045,0.125,0.12c0,0.062-0.047,0.109-0.109,0.122
		c-0.051,0.01-0.098,0.016-0.147,0.016c-0.206,0-0.373-0.16-0.373-0.391V14.749z"/>
	<path fill="#404040" d="M122.74,15.605c0-0.146,0.048-0.271,0.138-0.36c0.093-0.093,0.218-0.141,0.363-0.141
		c0.122,0,0.24,0.027,0.348,0.08c0.048,0.022,0.073,0.067,0.073,0.115c0,0.062-0.053,0.118-0.123,0.118
		c-0.023,0-0.043-0.008-0.061-0.016c-0.072-0.032-0.154-0.06-0.237-0.06c-0.153,0-0.243,0.09-0.243,0.242v0.355
		c0,0.155,0.09,0.243,0.243,0.243c0.083,0,0.173-0.028,0.245-0.062c0.018-0.011,0.035-0.013,0.055-0.013
		c0.062,0,0.121,0.05,0.121,0.12c0,0.047-0.028,0.093-0.076,0.115c-0.107,0.052-0.223,0.08-0.345,0.08
		c-0.146,0-0.271-0.048-0.363-0.141c-0.09-0.09-0.138-0.215-0.138-0.362V15.605z"/>
	<path fill="#404040" d="M124.631,15.585c0-0.152-0.09-0.242-0.245-0.242c-0.088,0-0.173,0.032-0.243,0.09v0.86
		c0,0.073-0.057,0.131-0.127,0.131c-0.072,0-0.131-0.058-0.131-0.131v-1.544c0-0.072,0.059-0.13,0.131-0.13
		c0.07,0,0.127,0.058,0.127,0.13v0.421c0.078-0.035,0.178-0.065,0.261-0.065c0.147,0,0.255,0.043,0.348,0.136
		c0.091,0.09,0.138,0.22,0.138,0.365v0.688c0,0.073-0.058,0.131-0.13,0.131c-0.073,0-0.128-0.058-0.128-0.131V15.585z"/>
</g>
<circle fill="#4BD6BA" stroke="#43BA9E" stroke-width="0.5" stroke-miterlimit="10" cx="54.477" cy="40.234" r="3.348"/>
<circle fill="#4BD6BA" stroke="#43BA9E" stroke-width="0.5" stroke-miterlimit="10" cx="65.198" cy="40.234" r="3.348"/>
<g>
	<path id="repo1_41_" fill="#FCD770" stroke="#E0BD65" stroke-width="0.5" stroke-miterlimit="10" d="M110.4,14.644
		c0-0.646,1.471-1.168,3.284-1.168c1.816,0,3.287,0.521,3.287,1.168 M110.4,14.644v1.457c0,0.154,0.088,0.307,0.243,0.443
		c0.488,0.426,1.673,0.725,3.041,0.725c1.377,0,2.554-0.303,3.043-0.725c0.156-0.137,0.244-0.289,0.244-0.443v-1.457"/>
	<path fill="#FCD770" stroke="#E0BD65" stroke-width="0.5" stroke-miterlimit="10" d="M116.974,14.644
		c0,0.646-1.471,1.168-3.287,1.168c-1.813,0-3.284-0.521-3.284-1.168s1.471-1.168,3.284-1.168
		C115.503,13.476,116.974,13.998,116.974,14.644z"/>
</g>
<path fill="none" stroke="#DDDDDD" stroke-width="0.5" stroke-miterlimit="10" d="M65.14,32.045v2.58 M63.937,32.997l1.203-1.188
	l1.188,1.188"/>
<g enable-background="new    ">
	<path fill="#404040" d="M61.069,21.931c0-0.07,0.045-0.133,0.11-0.152c0.125-0.04,0.255-0.065,0.391-0.065
		c0.147,0,0.272,0.048,0.363,0.141c0.09,0.09,0.14,0.215,0.14,0.36v0.315c0,0.147-0.047,0.277-0.138,0.367
		c-0.09,0.093-0.2,0.136-0.348,0.136c-0.083,0-0.183-0.03-0.26-0.065v0.468c0,0.072-0.058,0.13-0.128,0.13
		c-0.072,0-0.13-0.058-0.13-0.13V21.931z M61.815,22.193c0-0.152-0.09-0.242-0.245-0.242c-0.083,0-0.163,0.01-0.243,0.029v0.726
		c0.07,0.058,0.152,0.088,0.243,0.088c0.155,0,0.245-0.088,0.245-0.242V22.193z"/>
	<path fill="#404040" d="M63.29,22.814c0,0.069-0.045,0.13-0.11,0.152c-0.123,0.043-0.265,0.065-0.405,0.065
		c-0.153,0-0.273-0.038-0.358-0.11s-0.13-0.175-0.13-0.298s0.045-0.218,0.13-0.288c0.085-0.072,0.205-0.11,0.358-0.11h0.258v-0.087
		c0-0.105-0.078-0.188-0.208-0.188c-0.117,0-0.183,0.015-0.27,0.067c-0.02,0.013-0.047,0.022-0.07,0.022
		c-0.067,0-0.123-0.05-0.123-0.112c0-0.046,0.02-0.091,0.062-0.115c0.135-0.078,0.253-0.101,0.433-0.101
		c0.28,0,0.433,0.203,0.433,0.426V22.814z M63.032,22.464h-0.258c-0.218,0-0.23,0.117-0.23,0.16c0,0.045,0.013,0.17,0.23,0.17
		c0.085,0,0.178-0.013,0.258-0.032V22.464z"/>
	<path fill="#404040" d="M63.594,21.357c0-0.072,0.058-0.13,0.13-0.13c0.07,0,0.128,0.058,0.128,0.13v0.381h0.243
		c0.073,0,0.13,0.053,0.13,0.122c0,0.075-0.055,0.125-0.13,0.125h-0.243v0.653c0,0.096,0.05,0.155,0.115,0.155
		c0.072,0,0.085-0.02,0.132-0.02c0.062,0,0.125,0.045,0.125,0.12c0,0.062-0.047,0.109-0.11,0.122
		c-0.05,0.01-0.098,0.016-0.147,0.016c-0.206,0-0.373-0.16-0.373-0.391V21.357z"/>
	<path fill="#404040" d="M64.405,22.214c0-0.146,0.047-0.271,0.137-0.36c0.093-0.093,0.218-0.141,0.363-0.141
		c0.123,0,0.24,0.027,0.348,0.08c0.047,0.022,0.072,0.067,0.072,0.115c0,0.062-0.053,0.118-0.122,0.118
		c-0.022,0-0.043-0.008-0.061-0.016c-0.072-0.032-0.155-0.06-0.237-0.06c-0.152,0-0.243,0.09-0.243,0.242v0.355
		c0,0.155,0.091,0.243,0.243,0.243c0.082,0,0.172-0.028,0.245-0.062c0.018-0.011,0.035-0.013,0.056-0.013
		c0.062,0,0.119,0.05,0.119,0.12c0,0.047-0.027,0.093-0.074,0.115c-0.108,0.052-0.223,0.08-0.346,0.08
		c-0.146,0-0.271-0.048-0.363-0.141c-0.09-0.09-0.137-0.215-0.137-0.362V22.214z"/>
	<path fill="#404040" d="M66.295,22.193c0-0.152-0.09-0.242-0.246-0.242c-0.087,0-0.172,0.032-0.242,0.09v0.86
		c0,0.073-0.058,0.131-0.128,0.131c-0.072,0-0.13-0.058-0.13-0.131v-1.544c0-0.072,0.058-0.13,0.13-0.13
		c0.07,0,0.128,0.058,0.128,0.13v0.421c0.078-0.035,0.178-0.065,0.26-0.065c0.148,0,0.256,0.043,0.348,0.136
		c0.091,0.09,0.139,0.22,0.139,0.365v0.688c0,0.073-0.059,0.131-0.131,0.131s-0.127-0.058-0.127-0.131V22.193z"/>
	<path fill="#404040" d="M66.953,22.384c-0.067,0-0.119-0.055-0.119-0.123c0-0.064,0.049-0.122,0.119-0.122h0.584
		c0.066,0,0.122,0.055,0.122,0.122c0,0.068-0.056,0.123-0.122,0.123H66.953z"/>
	<path fill="#404040" d="M68.158,21.556l-0.225,0.13c-0.02,0.013-0.05,0.022-0.072,0.022c-0.07,0-0.123-0.055-0.123-0.123
		c0-0.045,0.022-0.085,0.065-0.109l0.396-0.228c0.021-0.013,0.047-0.021,0.072-0.021c0.08,0,0.145,0.065,0.145,0.146v1.528
		c0,0.073-0.057,0.131-0.127,0.131c-0.072,0-0.131-0.058-0.131-0.131V21.556z"/>
</g>
<g>
	<path id="repo1_1_" fill="#FCD770" stroke="#E0BD65" stroke-width="0.5" stroke-miterlimit="10" d="M81.679,26.957
		c0-0.646,1.471-1.168,3.287-1.168c1.817,0,3.288,0.521,3.288,1.168 M81.679,26.957v1.457c0,0.154,0.088,0.307,0.246,0.443
		c0.488,0.426,1.67,0.725,3.041,0.725c1.378,0,2.552-0.303,3.044-0.725c0.156-0.137,0.244-0.289,0.244-0.443v-1.457"/>
	<path fill="#FCD770" stroke="#E0BD65" stroke-width="0.5" stroke-miterlimit="10" d="M88.254,26.957
		c0,0.646-1.471,1.168-3.288,1.168c-1.816,0-3.287-0.521-3.287-1.168s1.471-1.168,3.287-1.168
		C86.783,25.789,88.254,26.311,88.254,26.957z"/>
</g>
<path fill="none" stroke="#DDDDDD" stroke-width="0.5" stroke-miterlimit="10" d="M84.974,32.045v2.58 M83.771,32.997l1.203-1.188
	l1.188,1.188"/>
<g enable-background="new    ">
	<path fill="#404040" d="M80.903,21.931c0-0.07,0.045-0.133,0.109-0.152c0.125-0.04,0.256-0.065,0.391-0.065
		c0.147,0,0.272,0.048,0.363,0.141c0.09,0.09,0.14,0.215,0.14,0.36v0.315c0,0.147-0.048,0.277-0.138,0.367
		c-0.09,0.093-0.2,0.136-0.348,0.136c-0.082,0-0.183-0.03-0.26-0.065v0.468c0,0.072-0.059,0.13-0.129,0.13
		c-0.072,0-0.129-0.058-0.129-0.13V21.931z M81.648,22.193c0-0.152-0.09-0.242-0.245-0.242c-0.082,0-0.162,0.01-0.242,0.029v0.726
		c0.069,0.058,0.152,0.088,0.242,0.088c0.155,0,0.245-0.088,0.245-0.242V22.193z"/>
	<path fill="#404040" d="M83.123,22.814c0,0.069-0.045,0.13-0.11,0.152c-0.122,0.043-0.265,0.065-0.405,0.065
		c-0.152,0-0.273-0.038-0.357-0.11c-0.086-0.072-0.131-0.175-0.131-0.298s0.045-0.218,0.131-0.288
		c0.084-0.072,0.205-0.11,0.357-0.11h0.258v-0.087c0-0.105-0.078-0.188-0.208-0.188c-0.117,0-0.183,0.015-0.271,0.067
		c-0.02,0.013-0.047,0.022-0.07,0.022c-0.066,0-0.122-0.05-0.122-0.112c0-0.046,0.021-0.091,0.062-0.115
		c0.136-0.078,0.253-0.101,0.433-0.101c0.281,0,0.434,0.203,0.434,0.426V22.814z M82.865,22.464h-0.258
		c-0.218,0-0.23,0.117-0.23,0.16c0,0.045,0.013,0.17,0.23,0.17c0.085,0,0.178-0.013,0.258-0.032V22.464z"/>
	<path fill="#404040" d="M83.427,21.357c0-0.072,0.058-0.13,0.13-0.13c0.07,0,0.128,0.058,0.128,0.13v0.381h0.243
		c0.072,0,0.129,0.053,0.129,0.122c0,0.075-0.055,0.125-0.129,0.125h-0.243v0.653c0,0.096,0.05,0.155,0.115,0.155
		c0.072,0,0.085-0.02,0.132-0.02c0.062,0,0.125,0.045,0.125,0.12c0,0.062-0.047,0.109-0.109,0.122
		c-0.051,0.01-0.098,0.016-0.147,0.016c-0.206,0-0.373-0.16-0.373-0.391V21.357z"/>
	<path fill="#404040" d="M84.237,22.214c0-0.146,0.048-0.271,0.138-0.36c0.093-0.093,0.218-0.141,0.363-0.141
		c0.122,0,0.24,0.027,0.348,0.08c0.048,0.022,0.073,0.067,0.073,0.115c0,0.062-0.053,0.118-0.123,0.118
		c-0.023,0-0.043-0.008-0.061-0.016c-0.072-0.032-0.154-0.06-0.237-0.06c-0.153,0-0.243,0.09-0.243,0.242v0.355
		c0,0.155,0.09,0.243,0.243,0.243c0.083,0,0.173-0.028,0.245-0.062c0.018-0.011,0.035-0.013,0.055-0.013
		c0.062,0,0.121,0.05,0.121,0.12c0,0.047-0.028,0.093-0.076,0.115c-0.107,0.052-0.223,0.08-0.345,0.08
		c-0.146,0-0.271-0.048-0.363-0.141c-0.09-0.09-0.138-0.215-0.138-0.362V22.214z"/>
	<path fill="#404040" d="M86.127,22.193c0-0.152-0.09-0.242-0.244-0.242c-0.088,0-0.174,0.032-0.243,0.09v0.86
		c0,0.073-0.058,0.131-0.128,0.131c-0.072,0-0.13-0.058-0.13-0.131v-1.544c0-0.072,0.058-0.13,0.13-0.13
		c0.07,0,0.128,0.058,0.128,0.13v0.421c0.077-0.035,0.178-0.065,0.261-0.065c0.146,0,0.255,0.043,0.348,0.136
		c0.09,0.09,0.137,0.22,0.137,0.365v0.688c0,0.073-0.057,0.131-0.13,0.131c-0.072,0-0.128-0.058-0.128-0.131V22.193z"/>
	<path fill="#404040" d="M86.787,22.384c-0.068,0-0.121-0.055-0.121-0.123c0-0.064,0.051-0.122,0.121-0.122h0.582
		c0.068,0,0.123,0.055,0.123,0.122c0,0.068-0.055,0.123-0.123,0.123H86.787z"/>
	<path fill="#404040" d="M87.789,23.007c-0.08,0-0.145-0.065-0.145-0.146c0-0.032,0.012-0.067,0.032-0.092l0.631-0.759
		c0.072-0.088,0.104-0.168,0.104-0.275c0-0.147-0.095-0.27-0.258-0.27c-0.107,0-0.188,0.015-0.295,0.069
		c-0.02,0.011-0.04,0.021-0.064,0.021c-0.065,0-0.125-0.051-0.125-0.118c0-0.045,0.024-0.09,0.069-0.112
		c0.153-0.08,0.275-0.098,0.415-0.098c0.15,0,0.281,0.05,0.373,0.146c0.096,0.095,0.143,0.225,0.143,0.375
		c0,0.195-0.092,0.315-0.175,0.423c-0.042,0.055-0.32,0.383-0.491,0.591h0.557c0.072,0,0.127,0.053,0.127,0.12
		c0,0.072-0.055,0.125-0.127,0.125H87.789z"/>
</g>
<path fill="none" stroke="#DDDDDD" stroke-width="0.5" stroke-miterlimit="10" d="M62.203,53.427c-3.604,0-6.538,2.933-6.538,6.535
	 M49.128,66.42c3.603,0,6.537-2.934,6.537-6.537"/>
<circle fill="#62B3CC" stroke="#57A1B2" stroke-width="0.5" stroke-miterlimit="10" cx="84.905" cy="66.5" r="3.35"/>
<circle fill="#4BD6BA" stroke="#43BA9E" stroke-width="0.5" stroke-miterlimit="10" cx="84.906" cy="40.353" r="3.349"/>
<circle fill="#FA715E" stroke="#E06255" stroke-width="0.5" stroke-miterlimit="10" cx="65.133" cy="53.427" r="3.348"/>
<circle fill="#62B3CC" stroke="#57A1B2" stroke-width="0.5" stroke-miterlimit="10" cx="45.88" cy="66.388" r="3.248"/>
<path fill="none" stroke="#DDDDDD" stroke-width="0.5" stroke-miterlimit="10" d="M75.019,59.961c0-3.604-2.934-6.535-6.538-6.535"
	/>
<path fill="none" stroke="#DDDDDD" stroke-width="0.5" stroke-miterlimit="10" d="M75.019,59.961c0,3.604,2.937,6.537,6.537,6.537"
	/>
<line fill="none" stroke="#DDDDDD" stroke-width="0.5" stroke-miterlimit="10" x1="49.128" y1="66.42" x2="81.556" y2="66.42"/>
<g enable-background="new    ">
	<path fill="#404040" d="M81.987,72.311c-0.006-0.015-0.008-0.027-0.008-0.043c0-0.064,0.055-0.13,0.127-0.13
		c0.053,0,0.104,0.03,0.123,0.085l0.273,0.818l0.252-0.815c0.018-0.053,0.068-0.088,0.12-0.088c0.067,0,0.133,0.056,0.133,0.13
		c0,0.013-0.003,0.028-0.007,0.04l-0.355,1.047c-0.021,0.06-0.076,0.103-0.141,0.103s-0.123-0.056-0.138-0.098L81.987,72.311z"/>
	<path fill="#404040" d="M83.506,71.98l-0.225,0.13c-0.02,0.013-0.05,0.022-0.072,0.022c-0.07,0-0.123-0.055-0.123-0.123
		c0-0.045,0.022-0.085,0.065-0.109l0.396-0.228c0.021-0.013,0.047-0.021,0.072-0.021c0.08,0,0.145,0.065,0.145,0.146v1.528
		c0,0.073-0.057,0.131-0.127,0.131c-0.072,0-0.131-0.058-0.131-0.131V71.98z"/>
	<path fill="#404040" d="M84.091,73.289c0-0.088,0.073-0.16,0.163-0.16c0.088,0,0.16,0.072,0.16,0.16c0,0.09-0.072,0.162-0.16,0.162
		C84.164,73.451,84.091,73.379,84.091,73.289z"/>
	<path fill="#404040" d="M85.8,72.881c0,0.168-0.056,0.313-0.157,0.416c-0.105,0.104-0.251,0.16-0.418,0.16
		c-0.168,0-0.311-0.056-0.416-0.16c-0.103-0.103-0.158-0.248-0.158-0.416v-0.653c0-0.17,0.056-0.312,0.158-0.415
		c0.105-0.105,0.248-0.16,0.416-0.16c0.167,0,0.312,0.055,0.415,0.158c0.104,0.104,0.16,0.247,0.16,0.417V72.881z M85.542,72.205
		c0-0.202-0.118-0.314-0.317-0.314c-0.201,0-0.316,0.112-0.316,0.314v0.698c0,0.2,0.115,0.315,0.316,0.315
		c0.199,0,0.317-0.115,0.317-0.315V72.205z"/>
	<path fill="#404040" d="M86.036,73.289c0-0.088,0.072-0.16,0.163-0.16c0.087,0,0.16,0.072,0.16,0.16c0,0.09-0.073,0.162-0.16,0.162
		C86.109,73.451,86.036,73.379,86.036,73.289z"/>
	<path fill="#404040" d="M86.838,71.98l-0.225,0.13c-0.02,0.013-0.05,0.022-0.072,0.022c-0.07,0-0.123-0.055-0.123-0.123
		c0-0.045,0.022-0.085,0.065-0.109l0.396-0.228c0.021-0.013,0.047-0.021,0.072-0.021c0.08,0,0.145,0.065,0.145,0.146v1.528
		c0,0.073-0.057,0.131-0.127,0.131c-0.072,0-0.131-0.058-0.131-0.131V71.98z"/>
</g>
<path fill="none" stroke="#DDDDDD" stroke-width="0.5" stroke-miterlimit="10" d="M81.556,40.433c-3.604,0-6.538,2.932-6.538,6.535
	 M68.481,53.427c3.604,0,6.537-2.934,6.537-6.537"/>
<g>
	<rect x="2" y="2.124" fill="#62B3CC" stroke="#57A1B2" stroke-width="0.5" stroke-miterlimit="10" width="20" height="7"/>
	<g>
		<path fill="#40767C" d="M9.119,6.77V5.339L8.626,6.382h-0.24L7.881,5.339V6.77H7.556v-2.14h0.324l0.625,1.332l0.613-1.332h0.325
			v2.14H9.119z"/>
		<path fill="#40767C" d="M10.78,6.77V6.631c-0.111,0.111-0.216,0.156-0.406,0.156s-0.315-0.045-0.409-0.138
			c-0.078-0.081-0.12-0.199-0.12-0.328c0-0.256,0.177-0.439,0.526-0.439h0.403V5.774c0-0.192-0.096-0.286-0.333-0.286
			c-0.168,0-0.25,0.039-0.334,0.147L9.905,5.447c0.144-0.168,0.294-0.219,0.547-0.219c0.418,0,0.628,0.177,0.628,0.523V6.77H10.78z
			 M10.774,6.096h-0.358c-0.18,0-0.273,0.081-0.273,0.219c0,0.139,0.087,0.217,0.28,0.217c0.117,0,0.204-0.009,0.286-0.087
			c0.045-0.045,0.066-0.117,0.066-0.226V6.096z"/>
		<path fill="#40767C" d="M12.042,6.788c-0.25,0-0.46-0.042-0.64-0.219l0.201-0.202c0.124,0.126,0.289,0.159,0.439,0.159
			c0.187,0,0.334-0.066,0.334-0.21c0-0.102-0.057-0.168-0.205-0.18l-0.244-0.021c-0.286-0.024-0.451-0.153-0.451-0.421
			c0-0.297,0.255-0.466,0.574-0.466c0.229,0,0.424,0.048,0.565,0.171l-0.192,0.195c-0.096-0.081-0.231-0.111-0.375-0.111
			c-0.184,0-0.277,0.081-0.277,0.195c0,0.09,0.048,0.16,0.21,0.174l0.241,0.021c0.286,0.024,0.454,0.16,0.454,0.43
			C12.676,6.622,12.406,6.788,12.042,6.788z"/>
		<path fill="#40767C" d="M13.47,6.77c-0.286,0-0.417-0.205-0.417-0.424V5.507h-0.175V5.272h0.175V4.81h0.306v0.463h0.295v0.234
			h-0.295v0.824c0,0.111,0.054,0.177,0.168,0.177h0.126V6.77H13.47z"/>
		<path fill="#40767C" d="M14.259,6.096c0,0.262,0.139,0.427,0.388,0.427c0.171,0,0.261-0.048,0.37-0.156l0.195,0.184
			c-0.156,0.156-0.304,0.237-0.571,0.237c-0.382,0-0.685-0.202-0.685-0.782c0-0.493,0.255-0.778,0.646-0.778
			c0.409,0,0.646,0.3,0.646,0.733v0.135H14.259z M14.902,5.675c-0.048-0.114-0.156-0.192-0.301-0.192
			c-0.144,0-0.255,0.078-0.304,0.192c-0.03,0.069-0.036,0.114-0.039,0.208h0.686C14.941,5.79,14.932,5.745,14.902,5.675z"/>
		<path fill="#40767C" d="M16.489,5.603c-0.069-0.069-0.123-0.102-0.229-0.102c-0.165,0-0.303,0.132-0.303,0.343V6.77H15.65V5.246
			h0.3v0.165c0.078-0.108,0.234-0.183,0.406-0.183c0.147,0,0.259,0.039,0.364,0.144L16.489,5.603z"/>
	</g>
</g>
<g>
	<rect x="25.204" y="2.124" fill="#FA715E" stroke="#E06255" stroke-width="0.5" stroke-miterlimit="10" width="20" height="7"/>
	<g>
		<path fill="#AA4743" d="M32.693,6.77V5.834h-0.869V6.77H31.5v-2.14h0.324v0.914h0.869V4.629h0.324v2.14H32.693z"/>
		<path fill="#AA4743" d="M34.555,6.607c-0.1,0.102-0.25,0.18-0.457,0.18s-0.355-0.078-0.454-0.18
			c-0.144-0.15-0.18-0.343-0.18-0.602c0-0.255,0.036-0.448,0.18-0.598c0.099-0.102,0.247-0.18,0.454-0.18s0.357,0.078,0.457,0.18
			c0.144,0.15,0.18,0.343,0.18,0.598C34.736,6.265,34.699,6.457,34.555,6.607z M34.324,5.588c-0.057-0.057-0.135-0.087-0.226-0.087
			s-0.166,0.03-0.223,0.087c-0.093,0.093-0.105,0.252-0.105,0.417c0,0.166,0.012,0.325,0.105,0.418
			c0.057,0.057,0.132,0.09,0.223,0.09s0.168-0.033,0.226-0.09c0.093-0.093,0.105-0.252,0.105-0.418
			C34.429,5.841,34.417,5.681,34.324,5.588z"/>
		<path fill="#AA4743" d="M35.601,6.77c-0.286,0-0.417-0.205-0.417-0.424V5.507h-0.175V5.272h0.175V4.81h0.306v0.463h0.295v0.234
			H35.49v0.824c0,0.111,0.054,0.177,0.168,0.177h0.126V6.77H35.601z"/>
		<path fill="#AA4743" d="M36.522,5.507V6.77h-0.307V5.507h-0.174V5.272h0.174V5.038c0-0.219,0.132-0.424,0.418-0.424h0.189v0.262
			h-0.135c-0.114,0-0.165,0.066-0.165,0.177v0.219h0.3v0.234H36.522z M37.12,4.894V4.62h0.328v0.273H37.12z M37.129,6.77V5.272
			h0.307V6.77H37.129z"/>
		<path fill="#AA4743" d="M38.755,6.77l-0.319-0.52l-0.321,0.52h-0.37l0.523-0.778l-0.502-0.746h0.37l0.3,0.496l0.298-0.496h0.37
			l-0.499,0.746l0.52,0.778H38.755z"/>
	</g>
</g>
<g>
	<rect x="48.028" y="2.124" fill="#4BD6BA" stroke="#43BA9E" stroke-width="0.5" stroke-miterlimit="10" width="20" height="7"/>
	<g>
		<path fill="#3B9E84" d="M54.248,6.568c-0.135,0.135-0.331,0.201-0.553,0.201h-0.751v-2.14h0.751c0.222,0,0.417,0.066,0.553,0.201
			c0.231,0.231,0.217,0.544,0.217,0.854S54.48,6.337,54.248,6.568z M54.026,5.065c-0.09-0.099-0.21-0.144-0.364-0.144h-0.394v1.557
			h0.394c0.153,0,0.273-0.045,0.364-0.145c0.111-0.123,0.114-0.354,0.114-0.649C54.14,5.39,54.137,5.188,54.026,5.065z"/>
		<path fill="#3B9E84" d="M55.131,6.096c0,0.262,0.139,0.427,0.388,0.427c0.171,0,0.261-0.048,0.37-0.156l0.195,0.184
			c-0.156,0.156-0.304,0.237-0.571,0.237c-0.382,0-0.685-0.202-0.685-0.782c0-0.493,0.255-0.778,0.646-0.778
			c0.409,0,0.646,0.3,0.646,0.733v0.135H55.131z M55.775,5.675c-0.048-0.114-0.156-0.192-0.301-0.192
			c-0.144,0-0.255,0.078-0.304,0.192c-0.03,0.069-0.036,0.114-0.039,0.208h0.686C55.814,5.79,55.804,5.745,55.775,5.675z"/>
		<path fill="#3B9E84" d="M57.082,6.77h-0.25l-0.559-1.524h0.325l0.361,1.073l0.357-1.073h0.325L57.082,6.77z"/>
		<path fill="#3B9E84" d="M58.101,6.096c0,0.262,0.139,0.427,0.388,0.427c0.171,0,0.261-0.048,0.37-0.156l0.195,0.184
			c-0.156,0.156-0.304,0.237-0.571,0.237c-0.382,0-0.685-0.202-0.685-0.782c0-0.493,0.255-0.778,0.646-0.778
			c0.409,0,0.646,0.3,0.646,0.733v0.135H58.101z M58.744,5.675c-0.048-0.114-0.156-0.192-0.301-0.192
			c-0.144,0-0.255,0.078-0.304,0.192c-0.03,0.069-0.036,0.114-0.039,0.208h0.686C58.783,5.79,58.774,5.745,58.744,5.675z"/>
		<path fill="#3B9E84" d="M59.902,6.77c-0.292,0-0.418-0.195-0.418-0.421V4.629h0.307v1.701c0,0.117,0.042,0.177,0.166,0.177h0.135
			V6.77H59.902z"/>
		<path fill="#3B9E84" d="M61.385,6.607c-0.1,0.102-0.25,0.18-0.457,0.18s-0.355-0.078-0.454-0.18
			c-0.144-0.15-0.18-0.343-0.18-0.602c0-0.255,0.036-0.448,0.18-0.598c0.099-0.102,0.247-0.18,0.454-0.18s0.357,0.078,0.457,0.18
			c0.144,0.15,0.18,0.343,0.18,0.598C61.565,6.265,61.529,6.457,61.385,6.607z M61.154,5.588c-0.057-0.057-0.135-0.087-0.226-0.087
			s-0.166,0.03-0.223,0.087C60.612,5.681,60.6,5.841,60.6,6.006c0,0.166,0.012,0.325,0.105,0.418c0.057,0.057,0.132,0.09,0.223,0.09
			s0.168-0.033,0.226-0.09c0.093-0.093,0.105-0.252,0.105-0.418C61.259,5.841,61.246,5.681,61.154,5.588z"/>
		<path fill="#3B9E84" d="M63.053,6.652c-0.084,0.084-0.217,0.135-0.37,0.135c-0.162,0-0.289-0.042-0.399-0.174v0.772h-0.307v-2.14
			h0.3v0.162c0.114-0.138,0.238-0.18,0.403-0.18c0.153,0,0.289,0.051,0.373,0.135c0.153,0.153,0.171,0.412,0.171,0.643
			S63.206,6.499,63.053,6.652z M62.602,5.501c-0.276,0-0.318,0.234-0.318,0.505s0.042,0.508,0.318,0.508
			c0.277,0,0.316-0.238,0.316-0.508S62.879,5.501,62.602,5.501z"/>
	</g>
</g>
</svg>
