<?xml version="1.0" encoding="utf-8"?>
<!-- Generator: Adobe Illustrator 16.0.0, SVG Export Plug-In . SVG Version: 6.00 Build 0)  -->
<!DOCTYPE svg PUBLIC "-//W3C//DTD SVG 1.1//EN" "http://www.w3.org/Graphics/SVG/1.1/DTD/svg11.dtd">
<svg version="1.1" id="Layer_1" xmlns="http://www.w3.org/2000/svg" xmlns:xlink="http://www.w3.org/1999/xlink" x="0px" y="0px"
	 width="127.559px" height="75.838px" viewBox="0 0 127.559 75.838" enable-background="new 0 0 127.559 75.838"
	 xml:space="preserve">
<path fill="none" stroke="#404040" stroke-width="0.6" stroke-miterlimit="10" d="M46.78,33.388h-4.146l0,0"/>
<path fill="none" stroke="#DDDDDD" stroke-width="0.5" stroke-miterlimit="10" d="M27.569,20.313H4.721l0,0"/>
<circle fill="#62B3CC" stroke="#57A1B2" stroke-width="0.5" stroke-miterlimit="10" cx="45.88" cy="33.388" r="3.248"/>
<g>
	<path id="repo1_65_" fill="#FFA759" stroke="#E59153" stroke-width="0.5" stroke-miterlimit="10" d="M42.594,67.627
		c0-0.646,1.471-1.168,3.286-1.168c1.814,0,3.287,0.521,3.287,1.168 M42.594,67.627v1.455c0,0.157,0.088,0.31,0.245,0.442
		c0.489,0.429,1.67,0.726,3.041,0.726c1.377,0,2.552-0.302,3.043-0.726c0.156-0.135,0.244-0.285,0.244-0.442v-1.455"/>
	<path fill="#FFA759" stroke="#E59153" stroke-width="0.5" stroke-miterlimit="10" d="M49.167,67.627
		c0,0.646-1.473,1.168-3.287,1.168c-1.815,0-3.286-0.521-3.286-1.168s1.471-1.168,3.286-1.168
		C47.697,66.459,49.167,66.981,49.167,67.627z"/>
	<path id="repo1_64_" fill="#FFA759" stroke="#E59153" stroke-width="0.5" stroke-miterlimit="10" d="M42.594,66.172
		c0-0.646,1.471-1.17,3.286-1.17c1.814,0,3.287,0.522,3.287,1.17 M42.594,66.172v1.455c0,0.156,0.088,0.308,0.245,0.442
		c0.489,0.429,1.67,0.726,3.041,0.726c1.377,0,2.552-0.303,3.043-0.726c0.156-0.137,0.244-0.286,0.244-0.442v-1.455"/>
	<path fill="#FFA759" stroke="#E59153" stroke-width="0.5" stroke-miterlimit="10" d="M49.167,66.172
		c0,0.646-1.473,1.168-3.287,1.168c-1.815,0-3.286-0.521-3.286-1.168s1.471-1.17,3.286-1.17
		C47.697,65.002,49.167,65.526,49.167,66.172z"/>
	<path id="repo1_63_" fill="#FFA759" stroke="#E59153" stroke-width="0.5" stroke-miterlimit="10" d="M42.594,64.717
		c0-0.647,1.471-1.17,3.286-1.17c1.814,0,3.287,0.521,3.287,1.17 M42.594,64.717v1.455c0,0.156,0.088,0.308,0.245,0.442
		c0.489,0.429,1.67,0.726,3.041,0.726c1.377,0,2.552-0.303,3.043-0.726c0.156-0.137,0.244-0.286,0.244-0.442v-1.455"/>
	<path fill="#FFA759" stroke="#E59153" stroke-width="0.5" stroke-miterlimit="10" d="M49.167,64.717
		c0,0.646-1.473,1.169-3.287,1.169c-1.815,0-3.286-0.523-3.286-1.169c0-0.647,1.471-1.17,3.286-1.17
		C47.697,63.547,49.167,64.069,49.167,64.717z"/>
	<path id="repo1_62_" fill="#FFA759" stroke="#E59153" stroke-width="0.5" stroke-miterlimit="10" d="M42.594,63.261
		c0-0.646,1.471-1.169,3.286-1.169c1.814,0,3.287,0.521,3.287,1.169 M42.594,63.261v1.456c0,0.154,0.088,0.308,0.245,0.443
		c0.489,0.426,1.67,0.726,3.041,0.726c1.377,0,2.552-0.304,3.043-0.726c0.156-0.138,0.244-0.289,0.244-0.443v-1.456"/>
	<path fill="#FFA759" stroke="#E59153" stroke-width="0.5" stroke-miterlimit="10" d="M49.167,63.261
		c0,0.646-1.473,1.168-3.287,1.168c-1.815,0-3.286-0.521-3.286-1.168c0-0.648,1.471-1.169,3.286-1.169
		C47.697,62.092,49.167,62.614,49.167,63.261z"/>
</g>
<g>
	<path id="repo1_61_" fill="#6ECCA8" stroke="#62B292" stroke-width="0.5" stroke-miterlimit="10" d="M42.594,54.47
		c0-0.646,1.471-1.168,3.286-1.168c1.814,0,3.287,0.52,3.287,1.168 M42.594,54.47v1.454c0,0.158,0.088,0.31,0.245,0.443
		c0.489,0.428,1.67,0.725,3.041,0.725c1.377,0,2.552-0.301,3.043-0.725c0.156-0.136,0.244-0.285,0.244-0.443V54.47"/>
	<path fill="#6ECCA8" stroke="#62B292" stroke-width="0.5" stroke-miterlimit="10" d="M49.167,54.47
		c0,0.646-1.473,1.168-3.287,1.168c-1.815,0-3.286-0.521-3.286-1.168c0-0.648,1.471-1.168,3.286-1.168
		C47.697,53.302,49.167,53.823,49.167,54.47z"/>
	<path id="repo1_60_" fill="#6ECCA8" stroke="#62B292" stroke-width="0.5" stroke-miterlimit="10" d="M42.594,53.015
		c0-0.646,1.471-1.17,3.286-1.17c1.814,0,3.287,0.522,3.287,1.17 M42.594,53.015v1.455c0,0.155,0.088,0.307,0.245,0.442
		c0.489,0.428,1.67,0.726,3.041,0.726c1.377,0,2.552-0.304,3.043-0.726c0.156-0.138,0.244-0.287,0.244-0.442v-1.455"/>
	<path fill="#6ECCA8" stroke="#62B292" stroke-width="0.5" stroke-miterlimit="10" d="M49.167,53.015
		c0,0.646-1.473,1.168-3.287,1.168c-1.815,0-3.286-0.521-3.286-1.168c0-0.646,1.471-1.17,3.286-1.17
		C47.697,51.845,49.167,52.367,49.167,53.015z"/>
	<path id="repo1_59_" fill="#6ECCA8" stroke="#62B292" stroke-width="0.5" stroke-miterlimit="10" d="M42.594,51.56
		c0-0.647,1.471-1.17,3.286-1.17c1.814,0,3.287,0.521,3.287,1.17 M42.594,51.56v1.455c0,0.155,0.088,0.307,0.245,0.442
		c0.489,0.429,1.67,0.726,3.041,0.726c1.377,0,2.552-0.304,3.043-0.726c0.156-0.138,0.244-0.287,0.244-0.442V51.56"/>
	<path fill="#6ECCA8" stroke="#62B292" stroke-width="0.5" stroke-miterlimit="10" d="M49.167,51.56
		c0,0.646-1.473,1.168-3.287,1.168c-1.815,0-3.286-0.522-3.286-1.168c0-0.647,1.471-1.17,3.286-1.17
		C47.697,50.39,49.167,50.91,49.167,51.56z"/>
	<path id="repo1_58_" fill="#6ECCA8" stroke="#62B292" stroke-width="0.5" stroke-miterlimit="10" d="M42.594,50.103
		c0-0.646,1.471-1.168,3.286-1.168c1.814,0,3.287,0.521,3.287,1.168 M42.594,50.103v1.457c0,0.153,0.088,0.308,0.245,0.442
		c0.489,0.427,1.67,0.726,3.041,0.726c1.377,0,2.552-0.304,3.043-0.726c0.156-0.138,0.244-0.289,0.244-0.442v-1.457"/>
	<path fill="#6ECCA8" stroke="#62B292" stroke-width="0.5" stroke-miterlimit="10" d="M49.167,50.103
		c0,0.646-1.473,1.168-3.287,1.168c-1.815,0-3.286-0.521-3.286-1.168c0-0.646,1.471-1.168,3.286-1.168
		C47.697,48.935,49.167,49.455,49.167,50.103z"/>
</g>
<text transform="matrix(1 0 0 1 42.9182 40.3408)" fill="#404040" font-family="'NettoOT-Bold'" font-size="2.5">v1.0.0</text>
<circle fill="#94FFDD" stroke="#88E5C3" stroke-width="0.5" stroke-miterlimit="10" cx="26.374" cy="20.313" r="3.348"/>
<path fill="none" stroke="#DDDDDD" stroke-width="0.5" stroke-miterlimit="10" d="M45.873,46.519v-2.58 M47.075,45.567l-1.202,1.188
	l-1.188-1.188"/>
<g>
	<line fill="none" stroke="#DDDDDD" stroke-width="0.5" stroke-miterlimit="10" x1="45.881" y1="58.708" x2="45.881" y2="60.476"/>
	<line fill="none" stroke="#DDDDDD" stroke-width="0.5" stroke-miterlimit="10" x1="44.997" y1="59.664" x2="46.764" y2="59.664"/>
</g>
<g>
	<path fill="none" stroke="#DDDDDD" stroke-width="0.5" stroke-miterlimit="10" d="M36.095,26.851c0-3.604-2.934-6.538-6.537-6.538"
		/>
	<path fill="none" stroke="#DDDDDD" stroke-width="0.5" stroke-miterlimit="10" d="M36.095,26.851c0,3.604,2.937,6.537,6.537,6.537"
		/>
</g>
<circle fill="#94FFDD" stroke="#88E5C3" stroke-width="0.5" stroke-miterlimit="10" cx="15.374" cy="20.313" r="3.348"/>
<circle fill="#94FFDD" stroke="#88E5C3" stroke-width="0.5" stroke-miterlimit="10" cx="4.374" cy="20.313" r="3.348"/>
<path fill="#94FFDD" stroke="#88E5C3" stroke-width="0.5" stroke-miterlimit="10" d="M17.891,1.152h15.116v7.855H17.891V1.152z"/>
<path fill="#404040" d="M21.101,6.024V4.357h0.58c0.425,0,0.802,0.283,0.802,0.834c0,0.551-0.377,0.833-0.802,0.833H21.101z
	 M21.666,5.819c0.31,0,0.562-0.204,0.562-0.628c0-0.427-0.254-0.63-0.562-0.63h-0.35v1.258H21.666z M23.865,5.693
	c-0.067,0.204-0.257,0.36-0.503,0.36c-0.302,0-0.567-0.22-0.567-0.612c0-0.359,0.253-0.597,0.532-0.597
	c0.347,0,0.554,0.236,0.554,0.597v0.08h-0.848c0,0.201,0.152,0.345,0.347,0.345c0.185,0,0.278-0.093,0.31-0.235L23.865,5.693z
	 M23.642,5.331c0-0.158-0.104-0.285-0.312-0.285c-0.188,0-0.294,0.145-0.312,0.285H23.642z M24.824,6.024H24.6l-0.473-1.133h0.256
	l0.324,0.882l0.333-0.882h0.235L24.824,6.024z M26.499,5.693c-0.062,0.204-0.248,0.36-0.501,0.36c-0.295,0-0.562-0.22-0.562-0.612
	c0-0.359,0.252-0.597,0.547-0.597c0.351,0,0.554,0.236,0.554,0.597v0.08h-0.85c0,0.201,0.156,0.345,0.342,0.345
	c0.191,0,0.285-0.093,0.316-0.235L26.499,5.693z M26.283,5.331c0-0.158-0.109-0.285-0.314-0.285c-0.188,0-0.295,0.145-0.312,0.285
	H26.283z M26.91,6.024V4.31h0.223v1.714H26.91z M28.701,5.455c0,0.347-0.234,0.598-0.58,0.598c-0.351,0-0.58-0.251-0.58-0.598
	c0-0.344,0.229-0.596,0.58-0.596C28.453,4.844,28.701,5.113,28.701,5.455z M28.466,5.455c0-0.266-0.16-0.409-0.346-0.409
	c-0.188,0-0.351,0.145-0.351,0.409c0,0.267,0.162,0.409,0.351,0.409C28.306,5.865,28.466,5.707,28.466,5.455z M29.093,6.462V4.891
	h0.223v0.175c0.062-0.111,0.188-0.205,0.373-0.205c0.351,0,0.523,0.268,0.523,0.596c0,0.332-0.191,0.598-0.539,0.598
	c-0.172,0-0.312-0.076-0.357-0.188v0.598h-0.223V6.462z M29.644,5.066c-0.203,0-0.328,0.171-0.328,0.391
	c0,0.236,0.144,0.409,0.328,0.409c0.205,0,0.33-0.173,0.33-0.409C29.99,5.22,29.865,5.066,29.644,5.066z"/>
<path fill="#62B3CC" stroke="#57A1B2" stroke-width="0.5" stroke-miterlimit="10" d="M1.027,1.151H16.14v7.857H1.027V1.151z"/>
<path fill="#404040" d="M6.478,6.024V4.717L5.912,6.024H5.71L5.145,4.717v1.307H4.906V4.356H5.22l0.598,1.367l0.598-1.367H6.73
	v1.668H6.478z M7.484,5.377L7.782,5.33c0.062-0.016,0.095-0.047,0.095-0.08c0-0.107-0.078-0.205-0.253-0.205
	c-0.155,0-0.234,0.098-0.251,0.238L7.17,5.235c0.017-0.221,0.22-0.359,0.473-0.359c0.347,0,0.472,0.189,0.472,0.408v0.549
	c0,0.094,0.018,0.156,0.018,0.189H7.906c0-0.033-0.016-0.08-0.016-0.158C7.844,5.942,7.734,6.052,7.531,6.052
	c-0.233,0-0.379-0.154-0.379-0.346C7.138,5.52,7.296,5.393,7.484,5.377z M7.876,5.535V5.487L7.531,5.535
	C7.436,5.551,7.372,5.598,7.372,5.707c0,0.08,0.062,0.158,0.188,0.158C7.735,5.865,7.876,5.787,7.876,5.535z M8.662,5.66
	C8.679,5.787,8.77,5.865,8.929,5.865c0.126,0,0.188-0.078,0.188-0.158c0-0.061-0.051-0.125-0.145-0.139L8.786,5.522
	C8.613,5.489,8.504,5.364,8.504,5.205c0-0.188,0.188-0.359,0.407-0.359c0.312,0,0.406,0.201,0.426,0.299L9.149,5.221
	C9.133,5.16,9.086,5.033,8.912,5.033c-0.108,0-0.188,0.08-0.188,0.158c0,0.061,0.049,0.125,0.127,0.143l0.188,0.047
	c0.205,0.045,0.313,0.172,0.313,0.328c0,0.158-0.143,0.346-0.409,0.346c-0.312,0-0.438-0.201-0.453-0.328L8.662,5.66z M10.045,4.891
	h0.251v0.205h-0.251v0.58c0,0.111,0.046,0.158,0.154,0.158c0.03,0,0.062,0,0.097-0.016v0.188c-0.019,0-0.079,0.018-0.156,0.018
	c-0.188,0-0.312-0.127-0.312-0.332V5.065H9.605V4.891h0.062c0.127,0,0.174-0.08,0.174-0.174V4.53h0.204V4.891z M11.679,5.692
	c-0.062,0.205-0.252,0.361-0.503,0.361c-0.3,0-0.565-0.219-0.565-0.613c0-0.359,0.251-0.596,0.552-0.596
	c0.347,0,0.551,0.236,0.551,0.596v0.062h-0.852c0,0.205,0.157,0.346,0.348,0.346c0.188,0,0.282-0.094,0.312-0.234L11.679,5.692z
	 M11.457,5.33c0-0.158-0.109-0.285-0.313-0.285c-0.188,0-0.299,0.145-0.312,0.285H11.457z M12.714,5.112h-0.095
	c-0.188,0-0.312,0.094-0.312,0.344v0.568h-0.22V4.893h0.22v0.203c0.078-0.174,0.22-0.221,0.346-0.221h0.077v0.236L12.714,5.112
	L12.714,5.112z"/>
<text transform="matrix(1 0 0 1 117.7542 6.1045)" fill="#404040" font-family="'NettoOT-Bold'" font-size="2.5">Data</text>
<g>
	<path id="repo1_36_" fill="#6ECCA8" stroke="#62B292" stroke-width="0.5" stroke-miterlimit="10" d="M108.452,6.535
		c0-0.646,1.472-1.168,3.285-1.168c1.816,0,3.287,0.521,3.287,1.168 M108.452,6.535V7.99c0,0.158,0.088,0.309,0.244,0.443
		c0.489,0.428,1.671,0.725,3.041,0.725c1.378,0,2.553-0.301,3.044-0.725c0.155-0.135,0.243-0.285,0.243-0.443V6.535"/>
	<path fill="#6ECCA8" stroke="#62B292" stroke-width="0.5" stroke-miterlimit="10" d="M115.026,6.535
		c0,0.646-1.471,1.168-3.287,1.168c-1.813,0-3.285-0.521-3.285-1.168s1.472-1.168,3.285-1.168
		C113.555,5.367,115.026,5.889,115.026,6.535z"/>
	<path id="repo1_35_" fill="#6ECCA8" stroke="#62B292" stroke-width="0.5" stroke-miterlimit="10" d="M108.452,5.08
		c0-0.646,1.472-1.17,3.285-1.17c1.816,0,3.287,0.523,3.287,1.17 M108.452,5.08v1.455c0,0.156,0.088,0.307,0.244,0.443
		c0.489,0.428,1.671,0.725,3.041,0.725c1.378,0,2.553-0.303,3.044-0.725c0.155-0.137,0.243-0.287,0.243-0.443V5.08"/>
	<path fill="#6ECCA8" stroke="#62B292" stroke-width="0.5" stroke-miterlimit="10" d="M115.026,5.08
		c0,0.646-1.471,1.168-3.287,1.168c-1.813,0-3.285-0.521-3.285-1.168s1.472-1.17,3.285-1.17
		C113.555,3.91,115.026,4.434,115.026,5.08z"/>
	<path id="repo1_34_" fill="#6ECCA8" stroke="#62B292" stroke-width="0.5" stroke-miterlimit="10" d="M108.452,3.625
		c0-0.648,1.472-1.17,3.285-1.17c1.816,0,3.287,0.521,3.287,1.17 M108.452,3.625V5.08c0,0.156,0.088,0.307,0.244,0.443
		c0.489,0.428,1.671,0.725,3.041,0.725c1.378,0,2.553-0.303,3.044-0.725c0.155-0.137,0.243-0.287,0.243-0.443V3.625"/>
	<path fill="#6ECCA8" stroke="#62B292" stroke-width="0.5" stroke-miterlimit="10" d="M115.026,3.625
		c0,0.645-1.471,1.168-3.287,1.168c-1.813,0-3.285-0.523-3.285-1.168c0-0.648,1.472-1.17,3.285-1.17
		C113.555,2.455,115.026,2.977,115.026,3.625z"/>
	<path id="repo1_32_" fill="#6ECCA8" stroke="#62B292" stroke-width="0.5" stroke-miterlimit="10" d="M108.452,2.168
		c0-0.646,1.471-1.168,3.285-1.168c1.816,0,3.287,0.521,3.287,1.168 M108.452,2.168v1.457c0,0.154,0.088,0.307,0.244,0.443
		c0.489,0.426,1.671,0.725,3.041,0.725c1.378,0,2.553-0.303,3.044-0.725c0.155-0.137,0.243-0.289,0.243-0.443V2.168"/>
	<path fill="#6ECCA8" stroke="#62B292" stroke-width="0.5" stroke-miterlimit="10" d="M115.026,2.168
		c0,0.646-1.471,1.168-3.287,1.168c-1.813,0-3.285-0.521-3.285-1.168S109.923,1,111.739,1C113.555,1,115.026,1.522,115.026,2.168z"
		/>
</g>
<text transform="matrix(1 0 0 1 94.9524 6.1045)" fill="#404040" font-family="'NettoOT-Bold'" font-size="2.5">Schema</text>
<g>
	<path id="repo1_40_" fill="#FFA759" stroke="#E59153" stroke-width="0.5" stroke-miterlimit="10" d="M85.651,6.535
		c0-0.646,1.472-1.168,3.286-1.168c1.816,0,3.287,0.521,3.287,1.168 M85.651,6.535V7.99c0,0.158,0.088,0.309,0.245,0.443
		c0.489,0.428,1.67,0.725,3.041,0.725c1.377,0,2.553-0.301,3.043-0.725c0.156-0.135,0.244-0.285,0.244-0.443V6.535"/>
	<path fill="#FFA759" stroke="#E59153" stroke-width="0.5" stroke-miterlimit="10" d="M92.225,6.535
		c0,0.646-1.471,1.168-3.287,1.168c-1.814,0-3.286-0.521-3.286-1.168s1.472-1.168,3.286-1.168
		C90.754,5.367,92.225,5.889,92.225,6.535z"/>
	<path id="repo1_39_" fill="#FFA759" stroke="#E59153" stroke-width="0.5" stroke-miterlimit="10" d="M85.651,5.08
		c0-0.646,1.472-1.17,3.286-1.17c1.816,0,3.287,0.523,3.287,1.17 M85.651,5.08v1.455c0,0.156,0.088,0.307,0.245,0.443
		c0.489,0.428,1.67,0.725,3.041,0.725c1.377,0,2.553-0.303,3.043-0.725c0.156-0.137,0.244-0.287,0.244-0.443V5.08"/>
	<path fill="#FFA759" stroke="#E59153" stroke-width="0.5" stroke-miterlimit="10" d="M92.225,5.08c0,0.646-1.471,1.168-3.287,1.168
		c-1.814,0-3.286-0.521-3.286-1.168s1.472-1.17,3.286-1.17C90.754,3.91,92.225,4.434,92.225,5.08z"/>
	<path id="repo1_38_" fill="#FFA759" stroke="#E59153" stroke-width="0.5" stroke-miterlimit="10" d="M85.651,3.625
		c0-0.648,1.472-1.17,3.286-1.17c1.816,0,3.287,0.521,3.287,1.17 M85.651,3.625V5.08c0,0.156,0.088,0.307,0.245,0.443
		c0.489,0.428,1.67,0.725,3.041,0.725c1.377,0,2.553-0.303,3.043-0.725c0.156-0.137,0.244-0.287,0.244-0.443V3.625"/>
	<path fill="#FFA759" stroke="#E59153" stroke-width="0.5" stroke-miterlimit="10" d="M92.225,3.625
		c0,0.645-1.471,1.168-3.287,1.168c-1.814,0-3.286-0.523-3.286-1.168c0-0.648,1.472-1.17,3.286-1.17
		C90.754,2.455,92.225,2.977,92.225,3.625z"/>
	<path id="repo1_37_" fill="#FFA759" stroke="#E59153" stroke-width="0.5" stroke-miterlimit="10" d="M85.651,2.168
		C85.651,1.522,87.121,1,88.938,1c1.817,0,3.287,0.521,3.287,1.168 M85.651,2.168v1.457c0,0.154,0.088,0.307,0.245,0.443
		c0.489,0.426,1.67,0.725,3.041,0.725c1.377,0,2.553-0.303,3.043-0.725c0.156-0.137,0.244-0.289,0.244-0.443V2.168"/>
	<path fill="#FFA759" stroke="#E59153" stroke-width="0.5" stroke-miterlimit="10" d="M92.225,2.168
		c0,0.646-1.471,1.168-3.287,1.168c-1.814,0-3.286-0.521-3.286-1.168S87.121,1,88.938,1C90.755,1,92.225,1.522,92.225,2.168z"/>
</g>
</svg>
