<?xml version="1.0" encoding="utf-8"?>
<!-- Generator: Adobe Illustrator 16.0.0, SVG Export Plug-In . SVG Version: 6.00 Build 0)  -->
<!DOCTYPE svg PUBLIC "-//W3C//DTD SVG 1.1//EN" "http://www.w3.org/Graphics/SVG/1.1/DTD/svg11.dtd">
<svg version="1.1" id="Layer_1" xmlns="http://www.w3.org/2000/svg" xmlns:xlink="http://www.w3.org/1999/xlink" x="0px" y="0px"
	 width="127.559px" height="95.839px" viewBox="0 0 127.559 95.839" enable-background="new 0 0 127.559 95.839"
	 xml:space="preserve">
<path fill="none" stroke="#404040" stroke-width="0.6" stroke-miterlimit="10" d="M46.78,53.388h-4.146l0,0"/>
<path fill="none" stroke="#DDDDDD" stroke-width="0.5" stroke-miterlimit="10" d="M112.946,40.313H4.721l0,0"/>
<path fill="none" stroke="#DDDDDD" stroke-width="0.5" stroke-miterlimit="10" d="M95.067,53.309h-52.17l0,0"/>
<g>
	<path id="repo1_65_" fill="#579663" stroke="#487A50" stroke-width="0.5" stroke-miterlimit="10" d="M42.594,87.626
		c0-0.646,1.471-1.168,3.286-1.168c1.814,0,3.287,0.521,3.287,1.168 M42.594,87.626v1.455c0,0.158,0.088,0.31,0.245,0.442
		c0.489,0.429,1.67,0.726,3.041,0.726c1.377,0,2.552-0.301,3.043-0.726c0.156-0.135,0.244-0.284,0.244-0.442v-1.455"/>
	<path fill="#579663" stroke="#487A50" stroke-width="0.5" stroke-miterlimit="10" d="M49.167,87.626
		c0,0.646-1.473,1.168-3.287,1.168c-1.815,0-3.286-0.521-3.286-1.168s1.471-1.168,3.286-1.168
		C47.697,86.458,49.167,86.981,49.167,87.626z"/>
	<path id="repo1_64_" fill="#579663" stroke="#487A50" stroke-width="0.5" stroke-miterlimit="10" d="M42.594,86.171
		c0-0.646,1.471-1.17,3.286-1.17c1.814,0,3.287,0.522,3.287,1.17 M42.594,86.171v1.455c0,0.156,0.088,0.308,0.245,0.442
		c0.489,0.429,1.67,0.726,3.041,0.726c1.377,0,2.552-0.303,3.043-0.726c0.156-0.137,0.244-0.286,0.244-0.442v-1.455"/>
	<path fill="#579663" stroke="#487A50" stroke-width="0.5" stroke-miterlimit="10" d="M49.167,86.171
		c0,0.646-1.473,1.168-3.287,1.168c-1.815,0-3.286-0.521-3.286-1.168s1.471-1.17,3.286-1.17
		C47.697,85.001,49.167,85.526,49.167,86.171z"/>
	<path id="repo1_63_" fill="#579663" stroke="#487A50" stroke-width="0.5" stroke-miterlimit="10" d="M42.594,84.716
		c0-0.647,1.471-1.17,3.286-1.17c1.814,0,3.287,0.521,3.287,1.17 M42.594,84.716v1.455c0,0.156,0.088,0.308,0.245,0.443
		c0.489,0.428,1.67,0.725,3.041,0.725c1.377,0,2.552-0.303,3.043-0.725c0.156-0.138,0.244-0.287,0.244-0.443v-1.455"/>
	<path fill="#579663" stroke="#487A50" stroke-width="0.5" stroke-miterlimit="10" d="M49.167,84.716
		c0,0.646-1.473,1.168-3.287,1.168c-1.815,0-3.286-0.522-3.286-1.168c0-0.647,1.471-1.17,3.286-1.17
		C47.697,83.546,49.167,84.069,49.167,84.716z"/>
	<path id="repo1_62_" fill="#579663" stroke="#487A50" stroke-width="0.5" stroke-miterlimit="10" d="M42.594,83.259
		c0-0.645,1.471-1.168,3.286-1.168c1.814,0,3.287,0.521,3.287,1.168 M42.594,83.259v1.457c0,0.154,0.088,0.308,0.245,0.443
		c0.489,0.426,1.67,0.725,3.041,0.725c1.377,0,2.552-0.303,3.043-0.725c0.156-0.138,0.244-0.289,0.244-0.443v-1.457"/>
	<path fill="#579663" stroke="#487A50" stroke-width="0.5" stroke-miterlimit="10" d="M49.167,83.259
		c0,0.646-1.473,1.169-3.287,1.169c-1.815,0-3.286-0.521-3.286-1.169c0-0.646,1.471-1.168,3.286-1.168
		C47.697,82.091,49.167,82.615,49.167,83.259z"/>
</g>
<g>
	<path id="repo1_61_" fill="#EFAB59" stroke="#D39450" stroke-width="0.5" stroke-miterlimit="10" d="M42.594,74.468
		c0-0.645,1.471-1.168,3.286-1.168c1.814,0,3.287,0.521,3.287,1.168 M42.594,74.468v1.455c0,0.158,0.088,0.31,0.245,0.443
		c0.489,0.428,1.67,0.725,3.041,0.725c1.377,0,2.552-0.301,3.043-0.725c0.156-0.136,0.244-0.285,0.244-0.443v-1.455"/>
	<path fill="#EFAB59" stroke="#D39450" stroke-width="0.5" stroke-miterlimit="10" d="M49.167,74.468
		c0,0.646-1.473,1.169-3.287,1.169c-1.815,0-3.286-0.521-3.286-1.169c0-0.646,1.471-1.168,3.286-1.168
		C47.697,73.3,49.167,73.824,49.167,74.468z"/>
	<path id="repo1_60_" fill="#EFAB59" stroke="#D39450" stroke-width="0.5" stroke-miterlimit="10" d="M42.594,73.014
		c0-0.646,1.471-1.171,3.286-1.171c1.814,0,3.287,0.523,3.287,1.171 M42.594,73.014v1.454c0,0.156,0.088,0.308,0.245,0.443
		c0.489,0.428,1.67,0.726,3.041,0.726c1.377,0,2.552-0.304,3.043-0.726c0.156-0.138,0.244-0.287,0.244-0.443v-1.454"/>
	<path fill="#EFAB59" stroke="#D39450" stroke-width="0.5" stroke-miterlimit="10" d="M49.167,73.014
		c0,0.646-1.473,1.168-3.287,1.168c-1.815,0-3.286-0.521-3.286-1.168s1.471-1.171,3.286-1.171
		C47.697,71.843,49.167,72.367,49.167,73.014z"/>
	<path id="repo1_59_" fill="#EFAB59" stroke="#D39450" stroke-width="0.5" stroke-miterlimit="10" d="M42.594,71.559
		c0-0.647,1.471-1.17,3.286-1.17c1.814,0,3.287,0.521,3.287,1.17 M42.594,71.559v1.455c0,0.155,0.088,0.307,0.245,0.442
		c0.489,0.428,1.67,0.726,3.041,0.726c1.377,0,2.552-0.304,3.043-0.726c0.156-0.138,0.244-0.287,0.244-0.442v-1.455"/>
	<path fill="#EFAB59" stroke="#D39450" stroke-width="0.5" stroke-miterlimit="10" d="M49.167,71.559
		c0,0.646-1.473,1.168-3.287,1.168c-1.815,0-3.286-0.522-3.286-1.168c0-0.647,1.471-1.17,3.286-1.17
		C47.697,70.389,49.167,70.91,49.167,71.559z"/>
	<path id="repo1_58_" fill="#EFAB59" stroke="#D39450" stroke-width="0.5" stroke-miterlimit="10" d="M42.594,70.102
		c0-0.646,1.471-1.168,3.286-1.168c1.814,0,3.287,0.521,3.287,1.168 M42.594,70.102v1.457c0,0.153,0.088,0.308,0.245,0.442
		c0.489,0.427,1.67,0.726,3.041,0.726c1.377,0,2.552-0.304,3.043-0.726c0.156-0.137,0.244-0.289,0.244-0.442v-1.457"/>
	<path fill="#EFAB59" stroke="#D39450" stroke-width="0.5" stroke-miterlimit="10" d="M49.167,70.102
		c0,0.646-1.473,1.168-3.287,1.168c-1.815,0-3.286-0.521-3.286-1.168s1.471-1.168,3.286-1.168
		C47.697,68.934,49.167,69.455,49.167,70.102z"/>
</g>
<g enable-background="new    ">
	<path fill="#404040" d="M41.961,59.22c-0.005-0.014-0.007-0.027-0.007-0.043c0-0.064,0.055-0.129,0.127-0.129
		c0.053,0,0.103,0.029,0.123,0.084l0.273,0.818l0.252-0.814c0.018-0.053,0.068-0.088,0.12-0.088c0.068,0,0.133,0.055,0.133,0.129
		c0,0.014-0.002,0.029-0.007,0.041l-0.355,1.047c-0.02,0.059-0.075,0.102-0.14,0.102s-0.123-0.055-0.138-0.098L41.961,59.22z"/>
	<path fill="#404040" d="M43.972,59.982v0.258c0,0.072-0.058,0.127-0.13,0.127c-0.07,0-0.127-0.055-0.127-0.127v-0.258h-0.496
		c-0.078,0-0.145-0.055-0.145-0.139c0-0.014,0.002-0.031,0.01-0.049l0.426-1.146c0.02-0.053,0.067-0.086,0.125-0.086
		c0.067,0,0.12,0.059,0.12,0.131c0,0.016-0.002,0.029-0.008,0.045l-0.377,0.998h0.345v-0.25c0-0.072,0.058-0.131,0.127-0.131
		c0.073,0,0.13,0.059,0.13,0.131v0.25h0.15c0.07,0,0.125,0.053,0.125,0.123s-0.055,0.123-0.125,0.123H43.972z"/>
	<path fill="#404040" d="M44.348,60.199c0-0.088,0.073-0.16,0.163-0.16c0.087,0,0.16,0.072,0.16,0.16c0,0.09-0.073,0.162-0.16,0.162
		C44.421,60.361,44.348,60.289,44.348,60.199z"/>
	<path fill="#404040" d="M44.973,60.341c-0.08,0-0.146-0.064-0.146-0.145c0-0.033,0.013-0.068,0.033-0.092l0.631-0.76
		c0.072-0.088,0.105-0.168,0.105-0.275c0-0.146-0.095-0.27-0.258-0.27c-0.108,0-0.188,0.016-0.295,0.07
		c-0.02,0.01-0.04,0.02-0.065,0.02c-0.065,0-0.125-0.051-0.125-0.117c0-0.045,0.025-0.09,0.07-0.113
		c0.153-0.08,0.275-0.098,0.416-0.098c0.15,0,0.28,0.051,0.373,0.146c0.095,0.094,0.143,0.225,0.143,0.375
		c0,0.195-0.093,0.314-0.175,0.422c-0.042,0.055-0.32,0.383-0.491,0.592h0.556c0.073,0,0.127,0.053,0.127,0.119
		c0,0.072-0.055,0.125-0.127,0.125H44.973z"/>
	<path fill="#404040" d="M46.461,58.89l-0.225,0.131c-0.02,0.012-0.05,0.021-0.073,0.021c-0.07,0-0.123-0.055-0.123-0.123
		c0-0.045,0.022-0.084,0.065-0.109l0.396-0.227c0.022-0.014,0.048-0.021,0.073-0.021c0.08,0,0.145,0.066,0.145,0.146v1.527
		c0,0.074-0.058,0.131-0.127,0.131c-0.073,0-0.13-0.057-0.13-0.131V58.89z"/>
	<path fill="#404040" d="M47.046,60.199c0-0.088,0.072-0.16,0.163-0.16c0.087,0,0.16,0.072,0.16,0.16c0,0.09-0.073,0.162-0.16,0.162
		C47.118,60.361,47.046,60.289,47.046,60.199z"/>
	<path fill="#404040" d="M48.755,59.791c0,0.168-0.055,0.314-0.158,0.416c-0.105,0.105-0.25,0.16-0.418,0.16
		s-0.311-0.055-0.416-0.16c-0.103-0.102-0.158-0.248-0.158-0.416v-0.652c0-0.17,0.055-0.312,0.158-0.416
		c0.105-0.105,0.248-0.16,0.416-0.16s0.313,0.055,0.416,0.158c0.105,0.105,0.16,0.248,0.16,0.418V59.791z M48.497,59.115
		c0-0.201-0.118-0.314-0.318-0.314s-0.315,0.113-0.315,0.314v0.699c0,0.199,0.115,0.314,0.315,0.314s0.318-0.115,0.318-0.314V59.115
		z"/>
</g>
<circle fill="#4BD6BA" stroke="#43BA9E" stroke-width="0.5" stroke-miterlimit="10" cx="26.374" cy="40.313" r="3.348"/>
<path fill="none" stroke="#DDDDDD" stroke-width="0.5" stroke-miterlimit="10" d="M45.873,66.519v-2.58 M47.075,65.567l-1.202,1.188
	l-1.188-1.188"/>
<g>
	<line fill="none" stroke="#DDDDDD" stroke-width="0.5" stroke-miterlimit="10" x1="45.881" y1="78.708" x2="45.881" y2="80.476"/>
	<line fill="none" stroke="#DDDDDD" stroke-width="0.5" stroke-miterlimit="10" x1="44.997" y1="79.664" x2="46.764" y2="79.664"/>
</g>
<g>
	<path id="repo1_9_" fill="#579663" stroke="#487A50" stroke-width="0.5" stroke-miterlimit="10" d="M92.3,87.626
		c0-0.646,1.471-1.168,3.286-1.168c1.814,0,3.287,0.521,3.287,1.168 M92.3,87.626v1.455c0,0.158,0.088,0.31,0.245,0.442
		c0.489,0.429,1.67,0.726,3.041,0.726c1.377,0,2.552-0.301,3.043-0.726c0.156-0.135,0.244-0.284,0.244-0.442v-1.455"/>
	<path fill="#579663" stroke="#487A50" stroke-width="0.5" stroke-miterlimit="10" d="M98.873,87.626
		c0,0.646-1.473,1.168-3.287,1.168c-1.815,0-3.286-0.521-3.286-1.168c0-0.646,1.471-1.168,3.286-1.168
		C97.403,86.458,98.873,86.981,98.873,87.626z"/>
	<path id="repo1_8_" fill="#579663" stroke="#487A50" stroke-width="0.5" stroke-miterlimit="10" d="M92.3,86.171
		c0-0.646,1.471-1.17,3.286-1.17c1.814,0,3.287,0.522,3.287,1.17 M92.3,86.171v1.455c0,0.156,0.088,0.308,0.245,0.442
		c0.489,0.429,1.67,0.726,3.041,0.726c1.377,0,2.552-0.303,3.043-0.726c0.156-0.137,0.244-0.286,0.244-0.442v-1.455"/>
	<path fill="#579663" stroke="#487A50" stroke-width="0.5" stroke-miterlimit="10" d="M98.873,86.171
		c0,0.646-1.473,1.168-3.287,1.168c-1.815,0-3.286-0.521-3.286-1.168c0-0.646,1.471-1.17,3.286-1.17
		C97.403,85.001,98.873,85.526,98.873,86.171z"/>
	<path id="repo1_7_" fill="#579663" stroke="#487A50" stroke-width="0.5" stroke-miterlimit="10" d="M92.3,84.716
		c0-0.647,1.471-1.17,3.286-1.17c1.814,0,3.287,0.521,3.287,1.17 M92.3,84.716v1.455c0,0.156,0.088,0.308,0.245,0.443
		c0.489,0.428,1.67,0.725,3.041,0.725c1.377,0,2.552-0.303,3.043-0.725c0.156-0.138,0.244-0.287,0.244-0.443v-1.455"/>
	<path fill="#579663" stroke="#487A50" stroke-width="0.5" stroke-miterlimit="10" d="M98.873,84.716
		c0,0.646-1.473,1.168-3.287,1.168c-1.815,0-3.286-0.522-3.286-1.168c0-0.647,1.471-1.17,3.286-1.17
		C97.403,83.546,98.873,84.069,98.873,84.716z"/>
	<path id="repo1_6_" fill="#579663" stroke="#487A50" stroke-width="0.5" stroke-miterlimit="10" d="M92.3,83.259
		c0-0.645,1.471-1.168,3.286-1.168c1.814,0,3.287,0.521,3.287,1.168 M92.3,83.259v1.457c0,0.154,0.088,0.308,0.245,0.443
		c0.489,0.426,1.67,0.725,3.041,0.725c1.377,0,2.552-0.303,3.043-0.725c0.156-0.138,0.244-0.289,0.244-0.443v-1.457"/>
	<path fill="#579663" stroke="#487A50" stroke-width="0.5" stroke-miterlimit="10" d="M98.873,83.259
		c0,0.646-1.473,1.169-3.287,1.169c-1.815,0-3.286-0.521-3.286-1.169c0-0.646,1.471-1.168,3.286-1.168
		C97.403,82.091,98.873,82.615,98.873,83.259z"/>
</g>
<g>
	<path id="repo1_5_" fill="#EFAB59" stroke="#D39450" stroke-width="0.5" stroke-miterlimit="10" d="M92.3,74.468
		c0-0.645,1.471-1.168,3.286-1.168c1.814,0,3.287,0.521,3.287,1.168 M92.3,74.468v1.455c0,0.158,0.088,0.31,0.245,0.443
		c0.489,0.428,1.67,0.725,3.041,0.725c1.377,0,2.552-0.301,3.043-0.725c0.156-0.136,0.244-0.285,0.244-0.443v-1.455"/>
	<path fill="#EFAB59" stroke="#D39450" stroke-width="0.5" stroke-miterlimit="10" d="M98.873,74.468
		c0,0.646-1.473,1.169-3.287,1.169c-1.815,0-3.286-0.521-3.286-1.169c0-0.646,1.471-1.168,3.286-1.168
		C97.403,73.3,98.873,73.824,98.873,74.468z"/>
	<path id="repo1_4_" fill="#EFAB59" stroke="#D39450" stroke-width="0.5" stroke-miterlimit="10" d="M92.3,73.014
		c0-0.646,1.471-1.171,3.286-1.171c1.814,0,3.287,0.523,3.287,1.171 M92.3,73.014v1.454c0,0.156,0.088,0.308,0.245,0.443
		c0.489,0.428,1.67,0.726,3.041,0.726c1.377,0,2.552-0.304,3.043-0.726c0.156-0.138,0.244-0.287,0.244-0.443v-1.454"/>
	<path fill="#EFAB59" stroke="#D39450" stroke-width="0.5" stroke-miterlimit="10" d="M98.873,73.014
		c0,0.646-1.473,1.168-3.287,1.168c-1.815,0-3.286-0.521-3.286-1.168s1.471-1.171,3.286-1.171
		C97.403,71.843,98.873,72.367,98.873,73.014z"/>
	<path id="repo1_3_" fill="#EFAB59" stroke="#D39450" stroke-width="0.5" stroke-miterlimit="10" d="M92.3,71.559
		c0-0.647,1.471-1.17,3.286-1.17c1.814,0,3.287,0.521,3.287,1.17 M92.3,71.559v1.455c0,0.155,0.088,0.307,0.245,0.442
		c0.489,0.428,1.67,0.726,3.041,0.726c1.377,0,2.552-0.304,3.043-0.726c0.156-0.138,0.244-0.287,0.244-0.442v-1.455"/>
	<path fill="#EFAB59" stroke="#D39450" stroke-width="0.5" stroke-miterlimit="10" d="M98.873,71.559
		c0,0.646-1.473,1.168-3.287,1.168c-1.815,0-3.286-0.522-3.286-1.168c0-0.647,1.471-1.17,3.286-1.17
		C97.403,70.389,98.873,70.91,98.873,71.559z"/>
	<path id="repo1_2_" fill="#EFAB59" stroke="#D39450" stroke-width="0.5" stroke-miterlimit="10" d="M92.3,70.102
		c0-0.646,1.471-1.168,3.286-1.168c1.814,0,3.287,0.521,3.287,1.168 M92.3,70.102v1.457c0,0.153,0.088,0.308,0.245,0.442
		c0.489,0.427,1.67,0.726,3.041,0.726c1.377,0,2.552-0.304,3.043-0.726c0.156-0.137,0.244-0.289,0.244-0.442v-1.457"/>
	<path fill="#EFAB59" stroke="#D39450" stroke-width="0.5" stroke-miterlimit="10" d="M98.873,70.102
		c0,0.646-1.473,1.168-3.287,1.168c-1.815,0-3.286-0.521-3.286-1.168s1.471-1.168,3.286-1.168
		C97.403,68.934,98.873,69.455,98.873,70.102z"/>
</g>
<path fill="none" stroke="#DDDDDD" stroke-width="0.5" stroke-miterlimit="10" d="M95.579,66.519v-2.58 M96.781,65.567l-1.202,1.188
	l-1.188-1.188"/>
<g>
	<line fill="none" stroke="#DDDDDD" stroke-width="0.5" stroke-miterlimit="10" x1="95.586" y1="78.708" x2="95.586" y2="80.476"/>
	<line fill="none" stroke="#DDDDDD" stroke-width="0.5" stroke-miterlimit="10" x1="94.703" y1="79.664" x2="96.471" y2="79.664"/>
</g>
<g>
	<path fill="none" stroke="#DDDDDD" stroke-width="0.5" stroke-miterlimit="10" d="M36.095,46.851c0-3.604-2.934-6.538-6.537-6.538"
		/>
	<path fill="none" stroke="#DDDDDD" stroke-width="0.5" stroke-miterlimit="10" d="M36.095,46.851c0,3.604,2.938,6.537,6.537,6.537"
		/>
</g>
<circle fill="#4BD6BA" stroke="#43BA9E" stroke-width="0.5" stroke-miterlimit="10" cx="15.374" cy="40.313" r="3.348"/>
<circle fill="#4BD6BA" stroke="#43BA9E" stroke-width="0.5" stroke-miterlimit="10" cx="4.374" cy="40.313" r="3.348"/>
<g enable-background="new    ">
	<path fill="#404040" d="M97.416,6.105c-0.09,0-0.163-0.072-0.163-0.16V4.512c0-0.088,0.073-0.16,0.163-0.16h0.33
		c0.41,0,0.688,0.272,0.688,0.681v0.393c0,0.408-0.278,0.681-0.688,0.681H97.416z M98.169,5.027c0-0.266-0.152-0.424-0.421-0.424
		h-0.229v1.249h0.229c0.269,0,0.421-0.16,0.421-0.423V5.027z"/>
	<path fill="#404040" d="M99.653,5.913c0,0.069-0.046,0.13-0.111,0.152c-0.122,0.043-0.265,0.065-0.404,0.065
		c-0.153,0-0.273-0.038-0.358-0.11s-0.13-0.175-0.13-0.298s0.045-0.218,0.13-0.288c0.085-0.072,0.205-0.11,0.358-0.11h0.258V5.237
		c0-0.105-0.078-0.188-0.209-0.188c-0.117,0-0.182,0.015-0.27,0.067c-0.02,0.013-0.048,0.022-0.07,0.022
		c-0.067,0-0.123-0.05-0.123-0.112c0-0.046,0.021-0.091,0.062-0.115c0.136-0.078,0.254-0.101,0.434-0.101
		c0.28,0,0.434,0.203,0.434,0.426V5.913z M99.395,5.562h-0.258c-0.219,0-0.23,0.117-0.23,0.16c0,0.045,0.012,0.17,0.23,0.17
		c0.084,0,0.178-0.013,0.258-0.032V5.562z"/>
	<path fill="#404040" d="M99.955,4.456c0-0.072,0.059-0.13,0.131-0.13c0.07,0,0.127,0.058,0.127,0.13v0.381h0.243
		c0.072,0,0.13,0.053,0.13,0.122c0,0.075-0.055,0.125-0.13,0.125h-0.243v0.653c0,0.096,0.051,0.155,0.115,0.155
		c0.072,0,0.086-0.02,0.133-0.02c0.062,0,0.125,0.045,0.125,0.12c0,0.062-0.047,0.109-0.109,0.122
		c-0.051,0.01-0.098,0.016-0.148,0.016c-0.205,0-0.373-0.16-0.373-0.391V4.456z"/>
	<path fill="#404040" d="M101.746,5.913c0,0.069-0.045,0.13-0.109,0.152c-0.123,0.043-0.266,0.065-0.406,0.065
		c-0.152,0-0.272-0.038-0.357-0.11s-0.13-0.175-0.13-0.298s0.045-0.218,0.13-0.288c0.085-0.072,0.205-0.11,0.357-0.11h0.258V5.237
		c0-0.105-0.077-0.188-0.207-0.188c-0.118,0-0.184,0.015-0.271,0.067c-0.021,0.013-0.048,0.022-0.07,0.022
		c-0.067,0-0.122-0.05-0.122-0.112c0-0.046,0.02-0.091,0.062-0.115c0.135-0.078,0.252-0.101,0.433-0.101
		c0.28,0,0.433,0.203,0.433,0.426V5.913z M101.489,5.562h-0.258c-0.217,0-0.23,0.117-0.23,0.16c0,0.045,0.014,0.17,0.23,0.17
		c0.086,0,0.178-0.013,0.258-0.032V5.562z"/>
</g>
<g>
	<path id="repo1_36_" fill="#EFAB59" stroke="#D39450" stroke-width="0.5" stroke-miterlimit="10" d="M87.781,6.535
		c0-0.646,1.471-1.168,3.284-1.168c1.816,0,3.287,0.521,3.287,1.168 M87.781,6.535V7.99c0,0.158,0.088,0.309,0.243,0.443
		c0.489,0.428,1.67,0.725,3.041,0.725c1.377,0,2.554-0.301,3.043-0.725c0.156-0.135,0.244-0.285,0.244-0.443V6.535"/>
	<path fill="#EFAB59" stroke="#D39450" stroke-width="0.5" stroke-miterlimit="10" d="M94.355,6.535
		c0,0.646-1.471,1.168-3.287,1.168c-1.813,0-3.284-0.521-3.284-1.168s1.471-1.168,3.284-1.168
		C92.884,5.367,94.355,5.889,94.355,6.535z"/>
	<path id="repo1_35_" fill="#EFAB59" stroke="#D39450" stroke-width="0.5" stroke-miterlimit="10" d="M87.781,5.08
		c0-0.646,1.471-1.17,3.284-1.17c1.816,0,3.287,0.523,3.287,1.17 M87.781,5.08v1.455c0,0.156,0.088,0.307,0.243,0.443
		c0.489,0.428,1.67,0.725,3.041,0.725c1.377,0,2.554-0.303,3.043-0.725c0.156-0.137,0.244-0.287,0.244-0.443V5.08"/>
	<path fill="#EFAB59" stroke="#D39450" stroke-width="0.5" stroke-miterlimit="10" d="M94.355,5.08c0,0.646-1.471,1.168-3.287,1.168
		c-1.813,0-3.284-0.521-3.284-1.168s1.471-1.17,3.284-1.17C92.884,3.91,94.355,4.434,94.355,5.08z"/>
	<path id="repo1_34_" fill="#EFAB59" stroke="#D39450" stroke-width="0.5" stroke-miterlimit="10" d="M87.781,3.625
		c0-0.648,1.471-1.17,3.284-1.17c1.816,0,3.287,0.521,3.287,1.17 M87.781,3.625V5.08c0,0.156,0.088,0.307,0.243,0.443
		c0.489,0.428,1.67,0.725,3.041,0.725c1.377,0,2.554-0.303,3.043-0.725c0.156-0.137,0.244-0.287,0.244-0.443V3.625"/>
	<path fill="#EFAB59" stroke="#D39450" stroke-width="0.5" stroke-miterlimit="10" d="M94.355,3.625
		c0,0.645-1.471,1.168-3.287,1.168c-1.813,0-3.284-0.523-3.284-1.168c0-0.648,1.471-1.17,3.284-1.17
		C92.884,2.455,94.355,2.977,94.355,3.625z"/>
	<path id="repo1_32_" fill="#EFAB59" stroke="#D39450" stroke-width="0.5" stroke-miterlimit="10" d="M87.781,2.168
		C87.781,1.522,89.252,1,91.068,1c1.816,0,3.287,0.521,3.287,1.168 M87.781,2.168v1.457c0,0.154,0.088,0.307,0.243,0.443
		c0.489,0.426,1.67,0.725,3.041,0.725c1.377,0,2.554-0.303,3.043-0.725c0.156-0.137,0.244-0.289,0.244-0.443V2.168"/>
	<path fill="#EFAB59" stroke="#D39450" stroke-width="0.5" stroke-miterlimit="10" d="M94.355,2.168
		c0,0.646-1.471,1.168-3.287,1.168c-1.813,0-3.284-0.521-3.284-1.168S89.252,1,91.068,1C92.884,1,94.355,1.522,94.355,2.168z"/>
</g>
<g enable-background="new    ">
	<path fill="#404040" d="M74.674,5.237c-0.195-0.085-0.295-0.238-0.295-0.433c0-0.298,0.28-0.479,0.565-0.479
		c0.138,0,0.282,0.025,0.413,0.083c0.053,0.022,0.098,0.058,0.098,0.127c0,0.065-0.055,0.12-0.125,0.12
		c-0.016,0-0.03-0.002-0.048-0.01c-0.06-0.022-0.147-0.075-0.351-0.075c-0.123,0-0.285,0.05-0.285,0.221
		c0,0.117,0.058,0.17,0.158,0.215l0.285,0.125c0.189,0.083,0.37,0.2,0.37,0.468c0,0.303-0.218,0.531-0.556,0.531
		c-0.147,0-0.318-0.04-0.447-0.096c-0.049-0.02-0.078-0.062-0.078-0.117c0-0.07,0.045-0.128,0.12-0.128
		c0.032,0,0.058,0.008,0.08,0.018c0.103,0.045,0.208,0.077,0.325,0.077c0.18,0,0.288-0.087,0.288-0.252
		c0-0.125-0.105-0.213-0.218-0.263L74.674,5.237z"/>
	<path fill="#404040" d="M75.652,5.312c0-0.146,0.048-0.271,0.138-0.36c0.092-0.093,0.217-0.141,0.363-0.141
		c0.122,0,0.24,0.027,0.348,0.08c0.047,0.022,0.072,0.067,0.072,0.115c0,0.062-0.053,0.118-0.123,0.118
		c-0.022,0-0.043-0.008-0.06-0.016c-0.073-0.032-0.155-0.06-0.237-0.06c-0.153,0-0.243,0.09-0.243,0.242v0.355
		c0,0.155,0.09,0.243,0.243,0.243c0.082,0,0.172-0.028,0.244-0.062c0.018-0.011,0.035-0.013,0.056-0.013
		c0.062,0,0.12,0.05,0.12,0.12c0,0.047-0.027,0.093-0.075,0.115c-0.107,0.052-0.223,0.08-0.345,0.08
		c-0.146,0-0.271-0.048-0.363-0.141c-0.09-0.09-0.138-0.215-0.138-0.362V5.312z"/>
	<path fill="#404040" d="M77.542,5.292c0-0.152-0.09-0.242-0.245-0.242c-0.088,0-0.173,0.032-0.242,0.09V6
		c0,0.073-0.059,0.131-0.129,0.131c-0.072,0-0.129-0.058-0.129-0.131V4.456c0-0.072,0.057-0.13,0.129-0.13
		c0.07,0,0.129,0.058,0.129,0.13v0.421c0.077-0.035,0.178-0.065,0.26-0.065c0.147,0,0.255,0.043,0.348,0.136
		c0.09,0.09,0.138,0.22,0.138,0.365V6c0,0.073-0.058,0.131-0.13,0.131S77.542,6.073,77.542,6V5.292z"/>
	<path fill="#404040" d="M78.317,5.593c0,0.103,0.018,0.17,0.051,0.215c0.042,0.055,0.107,0.085,0.192,0.085
		c0.095,0,0.185-0.027,0.271-0.064c0.018-0.008,0.035-0.013,0.053-0.013c0.062,0,0.122,0.053,0.122,0.117
		c0,0.048-0.021,0.09-0.065,0.112c-0.119,0.058-0.248,0.086-0.38,0.086c-0.146,0-0.271-0.048-0.363-0.141
		c-0.09-0.09-0.138-0.215-0.138-0.362V5.312c0-0.146,0.048-0.271,0.138-0.36c0.093-0.093,0.218-0.141,0.363-0.141
		c0.147,0,0.272,0.048,0.362,0.141c0.09,0.09,0.141,0.215,0.141,0.36V5.43c0,0.09-0.072,0.163-0.162,0.163H78.317z M78.805,5.354
		c0-0.207-0.085-0.305-0.245-0.305c-0.157,0-0.243,0.095-0.243,0.305H78.805z"/>
	<path fill="#404040" d="M80.708,5.265c0-0.117-0.098-0.215-0.216-0.215c-0.077,0-0.152,0.024-0.215,0.064V6
		c0,0.073-0.058,0.131-0.13,0.131c-0.07,0-0.128-0.058-0.128-0.131V5.232c0-0.146-0.095-0.183-0.205-0.183
		c-0.09,0-0.145,0.012-0.225,0.034V6c0,0.073-0.059,0.131-0.129,0.131c-0.072,0-0.129-0.058-0.129-0.131V5.037
		c0-0.067,0.042-0.128,0.104-0.152c0.13-0.051,0.258-0.073,0.403-0.073c0.119,0,0.225,0.038,0.303,0.103
		c0.103-0.067,0.225-0.103,0.35-0.103c0.271,0,0.474,0.203,0.474,0.474V6c0,0.073-0.058,0.131-0.13,0.131
		c-0.073,0-0.128-0.058-0.128-0.131V5.265z"/>
	<path fill="#404040" d="M82.205,5.913c0,0.069-0.045,0.13-0.11,0.152c-0.122,0.043-0.265,0.065-0.405,0.065
		c-0.152,0-0.273-0.038-0.357-0.11c-0.086-0.072-0.131-0.175-0.131-0.298s0.045-0.218,0.131-0.288
		c0.084-0.072,0.205-0.11,0.357-0.11h0.258V5.237c0-0.105-0.078-0.188-0.208-0.188c-0.117,0-0.183,0.015-0.271,0.067
		c-0.02,0.013-0.047,0.022-0.07,0.022c-0.066,0-0.122-0.05-0.122-0.112c0-0.046,0.021-0.091,0.062-0.115
		c0.136-0.078,0.253-0.101,0.433-0.101c0.281,0,0.434,0.203,0.434,0.426V5.913z M81.948,5.562H81.69c-0.218,0-0.23,0.117-0.23,0.16
		c0,0.045,0.013,0.17,0.23,0.17c0.085,0,0.178-0.013,0.258-0.032V5.562z"/>
</g>
<g>
	<path id="repo1_40_" fill="#579663" stroke="#487A50" stroke-width="0.5" stroke-miterlimit="10" d="M64.981,6.535
		c0-0.646,1.473-1.168,3.285-1.168c1.816,0,3.287,0.521,3.287,1.168 M64.981,6.535V7.99c0,0.158,0.088,0.309,0.244,0.443
		c0.49,0.428,1.67,0.725,3.041,0.725c1.377,0,2.553-0.301,3.043-0.725c0.156-0.135,0.244-0.285,0.244-0.443V6.535"/>
	<path fill="#579663" stroke="#487A50" stroke-width="0.5" stroke-miterlimit="10" d="M71.553,6.535
		c0,0.646-1.471,1.168-3.287,1.168c-1.812,0-3.285-0.521-3.285-1.168s1.473-1.168,3.285-1.168
		C70.082,5.367,71.553,5.889,71.553,6.535z"/>
	<path id="repo1_39_" fill="#579663" stroke="#487A50" stroke-width="0.5" stroke-miterlimit="10" d="M64.981,5.08
		c0-0.646,1.473-1.17,3.285-1.17c1.816,0,3.287,0.523,3.287,1.17 M64.981,5.08v1.455c0,0.156,0.088,0.307,0.244,0.443
		c0.49,0.428,1.67,0.725,3.041,0.725c1.377,0,2.553-0.303,3.043-0.725c0.156-0.137,0.244-0.287,0.244-0.443V5.08"/>
	<path fill="#579663" stroke="#487A50" stroke-width="0.5" stroke-miterlimit="10" d="M71.553,5.08c0,0.646-1.471,1.168-3.287,1.168
		c-1.812,0-3.285-0.521-3.285-1.168s1.473-1.17,3.285-1.17C70.082,3.91,71.553,4.434,71.553,5.08z"/>
	<path id="repo1_38_" fill="#579663" stroke="#487A50" stroke-width="0.5" stroke-miterlimit="10" d="M64.981,3.625
		c0-0.648,1.473-1.17,3.285-1.17c1.816,0,3.287,0.521,3.287,1.17 M64.981,3.625V5.08c0,0.156,0.088,0.307,0.244,0.443
		c0.49,0.428,1.67,0.725,3.041,0.725c1.377,0,2.553-0.303,3.043-0.725c0.156-0.137,0.244-0.287,0.244-0.443V3.625"/>
	<path fill="#579663" stroke="#487A50" stroke-width="0.5" stroke-miterlimit="10" d="M71.553,3.625
		c0,0.645-1.471,1.168-3.287,1.168c-1.812,0-3.285-0.523-3.285-1.168c0-0.648,1.473-1.17,3.285-1.17
		C70.082,2.455,71.553,2.977,71.553,3.625z"/>
	<path id="repo1_37_" fill="#579663" stroke="#487A50" stroke-width="0.5" stroke-miterlimit="10" d="M64.981,2.168
		C64.981,1.522,66.451,1,68.266,1c1.816,0,3.287,0.521,3.287,1.168 M64.981,2.168v1.457c0,0.154,0.088,0.307,0.244,0.443
		c0.49,0.426,1.67,0.725,3.041,0.725c1.377,0,2.553-0.303,3.043-0.725c0.156-0.137,0.244-0.289,0.244-0.443V2.168"/>
	<path fill="#579663" stroke="#487A50" stroke-width="0.5" stroke-miterlimit="10" d="M71.553,2.168
		c0,0.646-1.471,1.168-3.287,1.168c-1.812,0-3.285-0.521-3.285-1.168S66.451,1,68.266,1C70.082,1,71.553,1.522,71.553,2.168z"/>
</g>
<g>
	<path id="repo1_29_" fill="#FCD770" stroke="#E0BD65" stroke-width="0.5" stroke-miterlimit="10" d="M72.628,26.957
		c0-0.646,1.471-1.168,3.286-1.168c1.814,0,3.287,0.521,3.287,1.168 M72.628,26.957v1.457c0,0.154,0.088,0.307,0.245,0.443
		c0.487,0.426,1.67,0.725,3.041,0.725c1.377,0,2.552-0.303,3.043-0.725c0.154-0.137,0.244-0.289,0.244-0.443v-1.457"/>
	<path fill="#FCD770" stroke="#E0BD65" stroke-width="0.5" stroke-miterlimit="10" d="M79.201,26.957
		c0,0.646-1.473,1.168-3.287,1.168c-1.815,0-3.286-0.521-3.286-1.168s1.471-1.168,3.286-1.168
		C77.731,25.789,79.201,26.311,79.201,26.957z"/>
</g>
<g>
	<path id="repo1_30_" fill="#FCD770" stroke="#E0BD65" stroke-width="0.5" stroke-miterlimit="10" d="M61.845,26.957
		c0-0.646,1.471-1.168,3.287-1.168c1.817,0,3.288,0.521,3.288,1.168 M61.845,26.957v1.457c0,0.154,0.088,0.307,0.246,0.443
		c0.488,0.426,1.67,0.725,3.041,0.725c1.378,0,2.552-0.303,3.044-0.725c0.156-0.137,0.244-0.289,0.244-0.443v-1.457"/>
	<path fill="#FCD770" stroke="#E0BD65" stroke-width="0.5" stroke-miterlimit="10" d="M68.42,26.957
		c0,0.646-1.471,1.168-3.288,1.168c-1.816,0-3.287-0.521-3.287-1.168s1.471-1.168,3.287-1.168
		C66.949,25.789,68.42,26.311,68.42,26.957z"/>
</g>
<g enable-background="new    ">
	<path fill="#404040" d="M116.363,4.638c0-0.088,0.073-0.16,0.163-0.16h0.418c0.312,0,0.53,0.215,0.53,0.535
		c0,0.315-0.21,0.523-0.53,0.523h-0.315v0.588c0,0.072-0.062,0.133-0.133,0.133c-0.072,0-0.133-0.061-0.133-0.133V4.638z
		 M116.944,5.283c0.125,0,0.266-0.053,0.266-0.271c0-0.175-0.094-0.283-0.266-0.283h-0.315v0.554H116.944z"/>
	<path fill="#404040" d="M118.602,6.039c0,0.069-0.046,0.13-0.111,0.152c-0.122,0.043-0.265,0.065-0.404,0.065
		c-0.153,0-0.273-0.038-0.358-0.11s-0.13-0.175-0.13-0.298s0.045-0.218,0.13-0.288c0.085-0.072,0.205-0.11,0.358-0.11h0.258V5.363
		c0-0.105-0.078-0.188-0.209-0.188c-0.117,0-0.182,0.015-0.27,0.067c-0.02,0.013-0.048,0.022-0.07,0.022
		c-0.067,0-0.123-0.05-0.123-0.112c0-0.046,0.021-0.091,0.062-0.115c0.136-0.078,0.254-0.101,0.434-0.101
		c0.28,0,0.434,0.203,0.434,0.426V6.039z M118.344,5.688h-0.258c-0.219,0-0.23,0.117-0.23,0.16c0,0.045,0.012,0.17,0.23,0.17
		c0.084,0,0.178-0.013,0.258-0.032V5.688z"/>
	<path fill="#404040" d="M118.906,4.582c0-0.072,0.058-0.13,0.13-0.13c0.07,0,0.128,0.058,0.128,0.13v0.381h0.243
		c0.072,0,0.129,0.053,0.129,0.122c0,0.075-0.055,0.125-0.129,0.125h-0.243v0.653c0,0.096,0.05,0.155,0.115,0.155
		c0.072,0,0.085-0.02,0.132-0.02c0.062,0,0.125,0.045,0.125,0.12c0,0.062-0.047,0.109-0.109,0.122
		c-0.051,0.01-0.098,0.016-0.147,0.016c-0.206,0-0.373-0.16-0.373-0.391V4.582z"/>
	<path fill="#404040" d="M119.715,5.438c0-0.146,0.048-0.271,0.138-0.36c0.093-0.093,0.218-0.141,0.363-0.141
		c0.122,0,0.24,0.027,0.348,0.08c0.048,0.022,0.073,0.067,0.073,0.115c0,0.062-0.053,0.118-0.123,0.118
		c-0.023,0-0.043-0.008-0.061-0.016c-0.072-0.032-0.154-0.06-0.237-0.06c-0.153,0-0.243,0.09-0.243,0.242v0.355
		c0,0.155,0.09,0.243,0.243,0.243c0.083,0,0.173-0.028,0.245-0.062c0.018-0.011,0.035-0.013,0.055-0.013
		c0.062,0,0.121,0.05,0.121,0.12c0,0.047-0.028,0.093-0.076,0.115c-0.107,0.052-0.223,0.08-0.345,0.08
		c-0.146,0-0.271-0.048-0.363-0.141c-0.09-0.09-0.138-0.215-0.138-0.362V5.438z"/>
	<path fill="#404040" d="M121.606,5.418c0-0.152-0.09-0.242-0.245-0.242c-0.088,0-0.173,0.032-0.243,0.09v0.86
		c0,0.073-0.057,0.131-0.127,0.131c-0.072,0-0.131-0.058-0.131-0.131V4.582c0-0.072,0.059-0.13,0.131-0.13
		c0.07,0,0.127,0.058,0.127,0.13v0.421c0.078-0.035,0.178-0.065,0.261-0.065c0.147,0,0.255,0.043,0.348,0.136
		c0.091,0.09,0.138,0.22,0.138,0.365v0.688c0,0.073-0.058,0.131-0.13,0.131c-0.073,0-0.128-0.058-0.128-0.131V5.418z"/>
</g>
<circle fill="#4BD6BA" stroke="#43BA9E" stroke-width="0.5" stroke-miterlimit="10" cx="54.477" cy="40.234" r="3.348"/>
<circle fill="#4BD6BA" stroke="#43BA9E" stroke-width="0.5" stroke-miterlimit="10" cx="65.198" cy="40.234" r="3.348"/>
<circle fill="#4BD6BA" stroke="#43BA9E" stroke-width="0.5" stroke-miterlimit="10" cx="75.916" cy="40.234" r="3.348"/>
<g>
	<path id="repo1_41_" fill="#FCD770" stroke="#E0BD65" stroke-width="0.5" stroke-miterlimit="10" d="M107.374,4.477
		c0-0.646,1.471-1.168,3.287-1.168c1.814,0,3.287,0.521,3.287,1.168 M107.374,4.477v1.457c0,0.154,0.088,0.307,0.246,0.443
		c0.486,0.426,1.67,0.725,3.041,0.725c1.377,0,2.551-0.303,3.043-0.725c0.154-0.137,0.244-0.289,0.244-0.443V4.477"/>
	<path fill="#FCD770" stroke="#E0BD65" stroke-width="0.5" stroke-miterlimit="10" d="M113.948,4.477
		c0,0.646-1.473,1.168-3.287,1.168c-1.816,0-3.287-0.521-3.287-1.168s1.471-1.168,3.287-1.168
		C112.477,3.309,113.948,3.831,113.948,4.477z"/>
</g>
<path fill="none" stroke="#DDDDDD" stroke-width="0.5" stroke-miterlimit="10" d="M65.14,32.045v2.58 M63.937,32.997l1.203-1.188
	l1.188,1.188"/>
<path fill="none" stroke="#DDDDDD" stroke-width="0.5" stroke-miterlimit="10" d="M75.922,32.045v2.58 M74.72,32.997l1.202-1.188
	l1.188,1.188"/>
<g enable-background="new    ">
	<path fill="#404040" d="M60.185,21.931c0-0.07,0.045-0.133,0.11-0.152c0.125-0.04,0.255-0.065,0.391-0.065
		c0.147,0,0.272,0.048,0.363,0.141c0.09,0.09,0.14,0.215,0.14,0.36v0.315c0,0.147-0.047,0.277-0.138,0.367
		c-0.09,0.093-0.2,0.136-0.348,0.136c-0.083,0-0.183-0.03-0.26-0.065v0.468c0,0.072-0.058,0.13-0.128,0.13
		c-0.072,0-0.13-0.058-0.13-0.13V21.931z M60.931,22.193c0-0.152-0.09-0.242-0.245-0.242c-0.083,0-0.163,0.01-0.243,0.029v0.726
		c0.07,0.058,0.152,0.088,0.243,0.088c0.155,0,0.245-0.088,0.245-0.242V22.193z"/>
	<path fill="#404040" d="M62.406,22.814c0,0.069-0.045,0.13-0.11,0.152c-0.123,0.043-0.265,0.065-0.405,0.065
		c-0.153,0-0.273-0.038-0.358-0.11s-0.13-0.175-0.13-0.298s0.045-0.218,0.13-0.288c0.085-0.072,0.205-0.11,0.358-0.11h0.258v-0.087
		c0-0.105-0.078-0.188-0.208-0.188c-0.117,0-0.183,0.015-0.27,0.067c-0.02,0.013-0.047,0.022-0.07,0.022
		c-0.067,0-0.123-0.05-0.123-0.112c0-0.046,0.02-0.091,0.062-0.115c0.135-0.078,0.253-0.101,0.433-0.101
		c0.28,0,0.433,0.203,0.433,0.426V22.814z M62.149,22.464h-0.258c-0.218,0-0.23,0.117-0.23,0.16c0,0.045,0.013,0.17,0.23,0.17
		c0.085,0,0.178-0.013,0.258-0.032V22.464z"/>
	<path fill="#404040" d="M62.71,21.357c0-0.072,0.058-0.13,0.13-0.13c0.07,0,0.128,0.058,0.128,0.13v0.381h0.243
		c0.073,0,0.13,0.053,0.13,0.122c0,0.075-0.055,0.125-0.13,0.125h-0.243v0.653c0,0.096,0.05,0.155,0.115,0.155
		c0.072,0,0.085-0.02,0.132-0.02c0.062,0,0.125,0.045,0.125,0.12c0,0.062-0.047,0.109-0.11,0.122
		c-0.05,0.01-0.098,0.016-0.147,0.016c-0.206,0-0.373-0.16-0.373-0.391V21.357z"/>
	<path fill="#404040" d="M63.52,22.214c0-0.146,0.047-0.271,0.137-0.36c0.093-0.093,0.218-0.141,0.363-0.141
		c0.123,0,0.24,0.027,0.348,0.08c0.048,0.022,0.073,0.067,0.073,0.115c0,0.062-0.053,0.118-0.123,0.118
		c-0.023,0-0.043-0.008-0.061-0.016c-0.072-0.032-0.155-0.06-0.237-0.06c-0.153,0-0.243,0.09-0.243,0.242v0.355
		c0,0.155,0.09,0.243,0.243,0.243c0.083,0,0.172-0.028,0.245-0.062c0.018-0.011,0.035-0.013,0.055-0.013
		c0.062,0,0.121,0.05,0.121,0.12c0,0.047-0.028,0.093-0.076,0.115c-0.107,0.052-0.222,0.08-0.345,0.08
		c-0.146,0-0.271-0.048-0.363-0.141c-0.09-0.09-0.137-0.215-0.137-0.362V22.214z"/>
	<path fill="#404040" d="M65.41,22.193c0-0.152-0.09-0.242-0.244-0.242c-0.088,0-0.174,0.032-0.243,0.09v0.86
		c0,0.073-0.058,0.131-0.128,0.131c-0.072,0-0.13-0.058-0.13-0.131v-1.544c0-0.072,0.058-0.13,0.13-0.13
		c0.07,0,0.128,0.058,0.128,0.13v0.421c0.077-0.035,0.178-0.065,0.261-0.065c0.146,0,0.255,0.043,0.348,0.136
		c0.09,0.09,0.137,0.22,0.137,0.365v0.688c0,0.073-0.057,0.131-0.13,0.131c-0.072,0-0.128-0.058-0.128-0.131V22.193z"/>
	<path fill="#404040" d="M66.071,22.384c-0.068,0-0.121-0.055-0.121-0.123c0-0.064,0.051-0.122,0.121-0.122h0.582
		c0.068,0,0.123,0.055,0.123,0.122c0,0.068-0.055,0.123-0.123,0.123H66.071z"/>
	<path fill="#404040" d="M68.161,22.504c0,0.29-0.251,0.528-0.558,0.528c-0.309,0-0.559-0.238-0.559-0.528
		c0-0.17,0.082-0.323,0.23-0.421c-0.121-0.09-0.19-0.22-0.19-0.367c0-0.271,0.232-0.488,0.519-0.488
		c0.285,0,0.518,0.218,0.518,0.488c0,0.147-0.086,0.277-0.195,0.367C68.059,22.181,68.161,22.334,68.161,22.504z M67.604,22.209
		c-0.166,0-0.301,0.135-0.301,0.295s0.135,0.29,0.301,0.29c0.164,0,0.3-0.13,0.3-0.29S67.768,22.209,67.604,22.209z M67.604,21.466
		c-0.144,0-0.258,0.109-0.258,0.25c0,0.138,0.114,0.253,0.258,0.253c0.143,0,0.26-0.115,0.26-0.253
		C67.864,21.575,67.746,21.466,67.604,21.466z"/>
	<path fill="#404040" d="M69.25,22.646v0.258c0,0.072-0.057,0.128-0.13,0.128c-0.069,0-0.128-0.056-0.128-0.128v-0.258h-0.495
		c-0.077,0-0.146-0.055-0.146-0.138c0-0.015,0.003-0.032,0.01-0.05l0.426-1.146c0.021-0.053,0.068-0.085,0.125-0.085
		c0.068,0,0.121,0.058,0.121,0.13c0,0.016-0.003,0.03-0.008,0.045l-0.378,0.999h0.345v-0.25c0-0.073,0.059-0.131,0.128-0.131
		c0.073,0,0.13,0.058,0.13,0.131v0.25h0.15c0.07,0,0.125,0.053,0.125,0.122c0,0.07-0.055,0.123-0.125,0.123H69.25z"/>
</g>
<g enable-background="new    ">
	<path fill="#404040" d="M70.936,21.931c0-0.07,0.045-0.133,0.109-0.152c0.125-0.04,0.256-0.065,0.391-0.065
		c0.147,0,0.272,0.048,0.363,0.141c0.09,0.09,0.14,0.215,0.14,0.36v0.315c0,0.147-0.048,0.277-0.138,0.367
		c-0.09,0.093-0.2,0.136-0.348,0.136c-0.082,0-0.183-0.03-0.26-0.065v0.468c0,0.072-0.059,0.13-0.129,0.13
		c-0.072,0-0.129-0.058-0.129-0.13V21.931z M71.681,22.193c0-0.152-0.09-0.242-0.245-0.242c-0.082,0-0.162,0.01-0.242,0.029v0.726
		c0.069,0.058,0.152,0.088,0.242,0.088c0.155,0,0.245-0.088,0.245-0.242V22.193z"/>
	<path fill="#404040" d="M73.156,22.814c0,0.069-0.045,0.13-0.11,0.152c-0.122,0.043-0.265,0.065-0.405,0.065
		c-0.152,0-0.273-0.038-0.357-0.11c-0.086-0.072-0.131-0.175-0.131-0.298s0.045-0.218,0.131-0.288
		c0.084-0.072,0.205-0.11,0.357-0.11h0.258v-0.087c0-0.105-0.078-0.188-0.208-0.188c-0.117,0-0.183,0.015-0.271,0.067
		c-0.02,0.013-0.047,0.022-0.07,0.022c-0.066,0-0.122-0.05-0.122-0.112c0-0.046,0.021-0.091,0.062-0.115
		c0.136-0.078,0.253-0.101,0.433-0.101c0.281,0,0.434,0.203,0.434,0.426V22.814z M72.899,22.464h-0.258
		c-0.218,0-0.23,0.117-0.23,0.16c0,0.045,0.013,0.17,0.23,0.17c0.085,0,0.178-0.013,0.258-0.032V22.464z"/>
	<path fill="#404040" d="M73.46,21.357c0-0.072,0.058-0.13,0.13-0.13c0.07,0,0.128,0.058,0.128,0.13v0.381h0.243
		c0.072,0,0.129,0.053,0.129,0.122c0,0.075-0.055,0.125-0.129,0.125h-0.243v0.653c0,0.096,0.05,0.155,0.115,0.155
		c0.072,0,0.085-0.02,0.132-0.02c0.062,0,0.125,0.045,0.125,0.12c0,0.062-0.047,0.109-0.109,0.122
		c-0.051,0.01-0.098,0.016-0.147,0.016c-0.206,0-0.373-0.16-0.373-0.391V21.357z"/>
	<path fill="#404040" d="M74.27,22.214c0-0.146,0.048-0.271,0.138-0.36c0.093-0.093,0.218-0.141,0.363-0.141
		c0.122,0,0.24,0.027,0.348,0.08c0.048,0.022,0.073,0.067,0.073,0.115c0,0.062-0.053,0.118-0.123,0.118
		c-0.023,0-0.043-0.008-0.061-0.016c-0.072-0.032-0.154-0.06-0.237-0.06c-0.153,0-0.243,0.09-0.243,0.242v0.355
		c0,0.155,0.09,0.243,0.243,0.243c0.083,0,0.173-0.028,0.245-0.062c0.018-0.011,0.035-0.013,0.055-0.013
		c0.062,0,0.121,0.05,0.121,0.12c0,0.047-0.028,0.093-0.076,0.115c-0.107,0.052-0.223,0.08-0.345,0.08
		c-0.146,0-0.271-0.048-0.363-0.141c-0.09-0.09-0.138-0.215-0.138-0.362V22.214z"/>
	<path fill="#404040" d="M76.16,22.193c0-0.152-0.09-0.242-0.244-0.242c-0.088,0-0.174,0.032-0.243,0.09v0.86
		c0,0.073-0.058,0.131-0.128,0.131c-0.072,0-0.13-0.058-0.13-0.131v-1.544c0-0.072,0.058-0.13,0.13-0.13
		c0.07,0,0.128,0.058,0.128,0.13v0.421c0.077-0.035,0.178-0.065,0.261-0.065c0.146,0,0.255,0.043,0.348,0.136
		c0.09,0.09,0.137,0.22,0.137,0.365v0.688c0,0.073-0.057,0.131-0.13,0.131c-0.072,0-0.128-0.058-0.128-0.131V22.193z"/>
	<path fill="#404040" d="M76.821,22.384c-0.068,0-0.121-0.055-0.121-0.123c0-0.064,0.051-0.122,0.121-0.122h0.582
		c0.068,0,0.123,0.055,0.123,0.122c0,0.068-0.055,0.123-0.123,0.123H76.821z"/>
	<path fill="#404040" d="M78.911,22.504c0,0.29-0.251,0.528-0.558,0.528c-0.309,0-0.559-0.238-0.559-0.528
		c0-0.17,0.082-0.323,0.23-0.421c-0.121-0.09-0.19-0.22-0.19-0.367c0-0.271,0.232-0.488,0.519-0.488
		c0.285,0,0.518,0.218,0.518,0.488c0,0.147-0.086,0.277-0.195,0.367C78.809,22.181,78.911,22.334,78.911,22.504z M78.354,22.209
		c-0.166,0-0.301,0.135-0.301,0.295s0.135,0.29,0.301,0.29c0.164,0,0.3-0.13,0.3-0.29S78.518,22.209,78.354,22.209z M78.354,21.466
		c-0.144,0-0.258,0.109-0.258,0.25c0,0.138,0.114,0.253,0.258,0.253c0.143,0,0.26-0.115,0.26-0.253
		C78.614,21.575,78.496,21.466,78.354,21.466z"/>
	<path fill="#404040" d="M80.216,22.496c0,0.296-0.24,0.536-0.536,0.536c-0.162,0-0.3-0.033-0.428-0.096
		c-0.047-0.022-0.072-0.062-0.072-0.109c0-0.068,0.055-0.123,0.127-0.123c0.021,0,0.043,0.008,0.061,0.018
		c0.093,0.05,0.19,0.072,0.312,0.072c0.152,0,0.275-0.145,0.275-0.298v-0.082c0-0.153-0.123-0.298-0.275-0.298
		c-0.09,0-0.182,0.022-0.262,0.064c-0.021,0.011-0.046,0.018-0.068,0.018c-0.08,0-0.145-0.064-0.145-0.145v-0.641
		c0-0.088,0.072-0.16,0.16-0.16h0.678c0.067,0,0.123,0.055,0.123,0.122c0,0.065-0.053,0.123-0.123,0.123h-0.58v0.41
		c0.069-0.02,0.145-0.03,0.217-0.03c0.296,0,0.536,0.24,0.536,0.536V22.496z"/>
</g>
<path fill="none" stroke="#404040" stroke-width="0.6" stroke-miterlimit="10" d="M96.486,53.309H92.34l0,0"/>
<g enable-background="new    ">
	<path fill="#404040" d="M91.666,59.14c-0.004-0.016-0.007-0.027-0.007-0.043c0-0.064,0.055-0.131,0.128-0.131
		c0.053,0,0.102,0.031,0.122,0.086l0.272,0.818l0.253-0.816c0.018-0.053,0.067-0.088,0.12-0.088c0.068,0,0.133,0.057,0.133,0.131
		c0,0.012-0.002,0.027-0.008,0.039l-0.355,1.047c-0.02,0.061-0.074,0.104-0.14,0.104s-0.122-0.057-0.138-0.098L91.666,59.14z"/>
	<path fill="#404040" d="M93.678,59.9v0.258c0,0.072-0.058,0.129-0.131,0.129c-0.069,0-0.127-0.057-0.127-0.129V59.9h-0.496
		c-0.077,0-0.145-0.055-0.145-0.137c0-0.016,0.002-0.033,0.01-0.051l0.426-1.146c0.02-0.053,0.067-0.084,0.125-0.084
		c0.067,0,0.12,0.057,0.12,0.129c0,0.016-0.003,0.031-0.008,0.045l-0.378,1h0.346v-0.25c0-0.074,0.058-0.131,0.127-0.131
		c0.073,0,0.131,0.057,0.131,0.131v0.25h0.15c0.07,0,0.125,0.053,0.125,0.121c0,0.07-0.055,0.123-0.125,0.123H93.678z"/>
	<path fill="#404040" d="M94.054,60.119c0-0.088,0.073-0.16,0.163-0.16c0.088,0,0.16,0.072,0.16,0.16c0,0.09-0.072,0.162-0.16,0.162
		C94.127,60.281,94.054,60.208,94.054,60.119z"/>
	<path fill="#404040" d="M94.68,60.261c-0.08,0-0.146-0.066-0.146-0.146c0-0.031,0.014-0.066,0.033-0.092l0.631-0.758
		c0.072-0.088,0.105-0.168,0.105-0.275c0-0.148-0.096-0.27-0.258-0.27c-0.108,0-0.188,0.014-0.296,0.068
		c-0.021,0.012-0.04,0.021-0.065,0.021c-0.064,0-0.125-0.051-0.125-0.119c0-0.045,0.025-0.09,0.07-0.111
		c0.152-0.08,0.275-0.098,0.416-0.098c0.149,0,0.279,0.049,0.372,0.145c0.095,0.096,0.144,0.225,0.144,0.375
		c0,0.195-0.094,0.316-0.176,0.424c-0.043,0.055-0.32,0.383-0.49,0.59h0.555c0.073,0,0.128,0.053,0.128,0.121
		c0,0.072-0.055,0.125-0.128,0.125H94.68z"/>
	<path fill="#404040" d="M95.914,60.261c-0.08,0-0.145-0.066-0.145-0.146c0-0.031,0.012-0.066,0.032-0.092l0.631-0.758
		c0.072-0.088,0.104-0.168,0.104-0.275c0-0.148-0.095-0.27-0.258-0.27c-0.107,0-0.188,0.014-0.295,0.068
		c-0.02,0.012-0.04,0.021-0.064,0.021c-0.065,0-0.125-0.051-0.125-0.119c0-0.045,0.024-0.09,0.069-0.111
		c0.153-0.08,0.275-0.098,0.415-0.098c0.15,0,0.281,0.049,0.373,0.145c0.096,0.096,0.143,0.225,0.143,0.375
		c0,0.195-0.092,0.316-0.175,0.424c-0.042,0.055-0.32,0.383-0.491,0.59h0.557c0.072,0,0.127,0.053,0.127,0.121
		c0,0.072-0.055,0.125-0.127,0.125H95.914z"/>
	<path fill="#404040" d="M97.027,60.119c0-0.088,0.073-0.16,0.163-0.16c0.088,0,0.16,0.072,0.16,0.16c0,0.09-0.072,0.162-0.16,0.162
		C97.1,60.281,97.027,60.208,97.027,60.119z"/>
	<path fill="#404040" d="M98.736,59.71c0,0.168-0.056,0.312-0.157,0.416c-0.105,0.104-0.251,0.16-0.418,0.16
		c-0.168,0-0.311-0.057-0.416-0.16c-0.103-0.104-0.158-0.248-0.158-0.416v-0.654c0-0.17,0.056-0.312,0.158-0.414
		c0.105-0.105,0.248-0.16,0.416-0.16c0.167,0,0.312,0.055,0.415,0.158c0.104,0.104,0.16,0.246,0.16,0.416V59.71z M98.478,59.035
		c0-0.203-0.118-0.314-0.317-0.314c-0.201,0-0.316,0.111-0.316,0.314v0.697c0,0.201,0.115,0.316,0.316,0.316
		c0.199,0,0.317-0.115,0.317-0.316V59.035z"/>
</g>
<g>
	<path fill="none" stroke="#DDDDDD" stroke-width="0.5" stroke-miterlimit="10" d="M85.801,46.772c0-3.604-2.934-6.538-6.537-6.538"
		/>
	<path fill="none" stroke="#DDDDDD" stroke-width="0.5" stroke-miterlimit="10" d="M85.801,46.772c0,3.604,2.936,6.537,6.537,6.537"
		/>
</g>
<g>
	<path id="repo1_1_" fill="#FCD770" stroke="#E0BD65" stroke-width="0.5" stroke-miterlimit="10" d="M109.551,26.88
		c0-0.646,1.471-1.168,3.287-1.168c1.815,0,3.288,0.521,3.288,1.168 M109.551,26.88v1.457c0,0.154,0.088,0.307,0.246,0.443
		c0.488,0.426,1.67,0.725,3.041,0.725c1.378,0,2.552-0.303,3.044-0.725c0.156-0.137,0.244-0.289,0.244-0.443V26.88"/>
	<path fill="#FCD770" stroke="#E0BD65" stroke-width="0.5" stroke-miterlimit="10" d="M116.126,26.88
		c0,0.646-1.473,1.168-3.288,1.168c-1.816,0-3.287-0.521-3.287-1.168s1.471-1.168,3.287-1.168
		C114.656,25.712,116.126,26.234,116.126,26.88z"/>
</g>
<circle fill="#4BD6BA" stroke="#43BA9E" stroke-width="0.5" stroke-miterlimit="10" cx="102.183" cy="40.157" r="3.348"/>
<circle fill="#4BD6BA" stroke="#43BA9E" stroke-width="0.5" stroke-miterlimit="10" cx="112.905" cy="40.157" r="3.348"/>
<path fill="none" stroke="#DDDDDD" stroke-width="0.5" stroke-miterlimit="10" d="M112.846,31.968v2.58 M111.643,32.92l1.203-1.188
	l1.188,1.188"/>
<g enable-background="new    ">
	<path fill="#404040" d="M107.854,21.854c0-0.07,0.045-0.133,0.109-0.152c0.125-0.04,0.256-0.065,0.391-0.065
		c0.147,0,0.272,0.048,0.363,0.141c0.09,0.09,0.14,0.215,0.14,0.36v0.315c0,0.147-0.048,0.277-0.138,0.367
		c-0.09,0.093-0.2,0.136-0.348,0.136c-0.082,0-0.183-0.03-0.26-0.065v0.468c0,0.072-0.059,0.13-0.129,0.13
		c-0.072,0-0.129-0.058-0.129-0.13V21.854z M108.599,22.116c0-0.152-0.09-0.242-0.245-0.242c-0.082,0-0.162,0.01-0.242,0.029v0.726
		c0.069,0.058,0.152,0.088,0.242,0.088c0.155,0,0.245-0.088,0.245-0.242V22.116z"/>
	<path fill="#404040" d="M110.074,22.737c0,0.069-0.045,0.13-0.11,0.152c-0.122,0.043-0.265,0.065-0.405,0.065
		c-0.152,0-0.273-0.038-0.357-0.11c-0.086-0.072-0.131-0.175-0.131-0.298s0.045-0.218,0.131-0.288
		c0.084-0.072,0.205-0.11,0.357-0.11h0.258v-0.087c0-0.105-0.078-0.188-0.208-0.188c-0.117,0-0.183,0.015-0.271,0.067
		c-0.02,0.013-0.047,0.022-0.07,0.022c-0.066,0-0.122-0.05-0.122-0.112c0-0.046,0.021-0.091,0.062-0.115
		c0.136-0.078,0.253-0.101,0.433-0.101c0.281,0,0.434,0.203,0.434,0.426V22.737z M109.817,22.387h-0.258
		c-0.218,0-0.23,0.117-0.23,0.16c0,0.045,0.013,0.17,0.23,0.17c0.085,0,0.178-0.013,0.258-0.032V22.387z"/>
	<path fill="#404040" d="M110.378,21.28c0-0.072,0.058-0.13,0.13-0.13c0.07,0,0.128,0.058,0.128,0.13v0.381h0.243
		c0.072,0,0.129,0.053,0.129,0.122c0,0.075-0.055,0.125-0.129,0.125h-0.243v0.653c0,0.096,0.05,0.155,0.115,0.155
		c0.072,0,0.085-0.02,0.132-0.02c0.062,0,0.125,0.045,0.125,0.12c0,0.062-0.047,0.109-0.109,0.122
		c-0.051,0.01-0.098,0.016-0.147,0.016c-0.206,0-0.373-0.16-0.373-0.391V21.28z"/>
	<path fill="#404040" d="M111.188,22.137c0-0.146,0.048-0.271,0.138-0.36c0.093-0.093,0.218-0.141,0.363-0.141
		c0.122,0,0.24,0.027,0.348,0.08c0.048,0.022,0.073,0.067,0.073,0.115c0,0.062-0.053,0.118-0.123,0.118
		c-0.023,0-0.043-0.008-0.061-0.016c-0.072-0.032-0.154-0.06-0.237-0.06c-0.153,0-0.243,0.09-0.243,0.242v0.355
		c0,0.155,0.09,0.243,0.243,0.243c0.083,0,0.173-0.028,0.245-0.062c0.018-0.011,0.035-0.013,0.055-0.013
		c0.062,0,0.121,0.05,0.121,0.12c0,0.047-0.028,0.093-0.076,0.115c-0.107,0.052-0.223,0.08-0.345,0.08
		c-0.146,0-0.271-0.048-0.363-0.141c-0.09-0.09-0.138-0.215-0.138-0.362V22.137z"/>
	<path fill="#404040" d="M113.078,22.116c0-0.152-0.09-0.242-0.244-0.242c-0.088,0-0.174,0.032-0.243,0.09v0.86
		c0,0.073-0.058,0.131-0.128,0.131c-0.072,0-0.13-0.058-0.13-0.131V21.28c0-0.072,0.058-0.13,0.13-0.13
		c0.07,0,0.128,0.058,0.128,0.13v0.421c0.077-0.035,0.178-0.065,0.261-0.065c0.146,0,0.255,0.043,0.348,0.136
		c0.09,0.09,0.137,0.22,0.137,0.365v0.688c0,0.073-0.057,0.131-0.13,0.131c-0.072,0-0.128-0.058-0.128-0.131V22.116z"/>
	<path fill="#404040" d="M113.739,22.307c-0.068,0-0.121-0.055-0.121-0.123c0-0.064,0.051-0.122,0.121-0.122h0.582
		c0.068,0,0.123,0.055,0.123,0.122c0,0.068-0.055,0.123-0.123,0.123H113.739z"/>
	<path fill="#404040" d="M115.829,22.427c0,0.29-0.251,0.528-0.558,0.528c-0.309,0-0.559-0.238-0.559-0.528
		c0-0.17,0.082-0.323,0.23-0.421c-0.121-0.09-0.19-0.22-0.19-0.367c0-0.271,0.232-0.488,0.519-0.488
		c0.285,0,0.518,0.218,0.518,0.488c0,0.147-0.086,0.277-0.195,0.367C115.727,22.104,115.829,22.257,115.829,22.427z M115.272,22.132
		c-0.166,0-0.301,0.135-0.301,0.295s0.135,0.29,0.301,0.29c0.164,0,0.3-0.13,0.3-0.29S115.436,22.132,115.272,22.132z
		 M115.272,21.389c-0.144,0-0.258,0.109-0.258,0.25c0,0.138,0.114,0.253,0.258,0.253c0.143,0,0.26-0.115,0.26-0.253
		C115.531,21.498,115.414,21.389,115.272,21.389z"/>
	<path fill="#404040" d="M117.179,22.419c0,0.296-0.24,0.536-0.536,0.536c-0.293,0-0.533-0.24-0.533-0.536v-0.41
		c0-0.258,0.053-0.46,0.16-0.608c0.121-0.162,0.307-0.25,0.536-0.25c0.06,0,0.118,0.008,0.173,0.021
		c0.062,0.012,0.103,0.06,0.103,0.12c0,0.064-0.056,0.114-0.125,0.114c-0.043,0-0.073-0.017-0.15-0.017
		c-0.101,0-0.388,0.02-0.431,0.497c0.08-0.06,0.17-0.085,0.268-0.085c0.296,0,0.536,0.24,0.536,0.536V22.419z M116.921,22.314
		c0-0.153-0.125-0.275-0.278-0.275c-0.149,0-0.275,0.122-0.275,0.275v0.127c0,0.153,0.126,0.275,0.275,0.275
		c0.153,0,0.278-0.122,0.278-0.275V22.314z"/>
</g>
<g>
	<rect x="2" y="1.836" fill="#62B3CC" stroke="#57A1B2" stroke-width="0.5" stroke-miterlimit="10" width="20" height="7"/>
	<g>
		<path fill="#40767C" d="M9.119,6.481V5.051L8.626,6.094h-0.24L7.881,5.051v1.431H7.556v-2.14h0.324l0.625,1.332l0.613-1.332h0.325
			v2.14H9.119z"/>
		<path fill="#40767C" d="M10.78,6.481V6.343C10.669,6.455,10.563,6.5,10.374,6.5s-0.315-0.045-0.409-0.138
			c-0.078-0.081-0.12-0.199-0.12-0.328c0-0.256,0.177-0.439,0.526-0.439h0.403V5.486c0-0.192-0.096-0.286-0.333-0.286
			c-0.168,0-0.25,0.039-0.334,0.147L9.905,5.159c0.144-0.168,0.294-0.219,0.547-0.219c0.418,0,0.628,0.177,0.628,0.523v1.019H10.78z
			 M10.774,5.808h-0.358c-0.18,0-0.273,0.081-0.273,0.219c0,0.139,0.087,0.217,0.28,0.217c0.117,0,0.204-0.009,0.286-0.087
			c0.045-0.045,0.066-0.117,0.066-0.226V5.808z"/>
		<path fill="#40767C" d="M12.042,6.5c-0.25,0-0.46-0.042-0.64-0.219l0.201-0.202c0.124,0.126,0.289,0.159,0.439,0.159
			c0.187,0,0.334-0.066,0.334-0.21c0-0.102-0.057-0.168-0.205-0.18l-0.244-0.021c-0.286-0.024-0.451-0.153-0.451-0.421
			c0-0.297,0.255-0.466,0.574-0.466c0.229,0,0.424,0.048,0.565,0.171l-0.192,0.195c-0.096-0.081-0.231-0.111-0.375-0.111
			c-0.184,0-0.277,0.081-0.277,0.195c0,0.09,0.048,0.16,0.21,0.174l0.241,0.021c0.286,0.024,0.454,0.16,0.454,0.43
			C12.676,6.334,12.406,6.5,12.042,6.5z"/>
		<path fill="#40767C" d="M13.47,6.481c-0.286,0-0.417-0.205-0.417-0.424V5.219h-0.175V4.984h0.175V4.521h0.306v0.463h0.295v0.234
			h-0.295v0.824c0,0.111,0.054,0.177,0.168,0.177h0.126v0.262H13.47z"/>
		<path fill="#40767C" d="M14.259,5.808c0,0.262,0.139,0.427,0.388,0.427c0.171,0,0.261-0.048,0.37-0.156l0.195,0.184
			C15.055,6.418,14.908,6.5,14.64,6.5c-0.382,0-0.685-0.202-0.685-0.782c0-0.493,0.255-0.778,0.646-0.778
			c0.409,0,0.646,0.3,0.646,0.733v0.135H14.259z M14.902,5.387c-0.048-0.114-0.156-0.192-0.301-0.192
			c-0.144,0-0.255,0.078-0.304,0.192c-0.03,0.069-0.036,0.114-0.039,0.208h0.686C14.941,5.501,14.932,5.457,14.902,5.387z"/>
		<path fill="#40767C" d="M16.489,5.315c-0.069-0.069-0.123-0.102-0.229-0.102c-0.165,0-0.303,0.132-0.303,0.343v0.926H15.65V4.958
			h0.3v0.165c0.078-0.108,0.234-0.183,0.406-0.183c0.147,0,0.259,0.039,0.364,0.144L16.489,5.315z"/>
	</g>
</g>
<g>
	<rect x="25.074" y="1.836" fill="#4BD6BA" stroke="#43BA9E" stroke-width="0.5" stroke-miterlimit="10" width="20" height="7"/>
	<g>
		<path fill="#3B9E84" d="M31.295,6.28c-0.135,0.135-0.331,0.201-0.553,0.201H29.99v-2.14h0.751c0.222,0,0.417,0.066,0.553,0.201
			c0.231,0.231,0.217,0.544,0.217,0.854S31.526,6.049,31.295,6.28z M31.073,4.777c-0.09-0.099-0.21-0.144-0.364-0.144h-0.394V6.19
			h0.394c0.153,0,0.273-0.045,0.364-0.145c0.111-0.123,0.114-0.354,0.114-0.649C31.187,5.102,31.184,4.9,31.073,4.777z"/>
		<path fill="#3B9E84" d="M32.177,5.808c0,0.262,0.139,0.427,0.388,0.427c0.171,0,0.261-0.048,0.37-0.156l0.195,0.184
			C32.974,6.418,32.827,6.5,32.559,6.5c-0.382,0-0.685-0.202-0.685-0.782c0-0.493,0.255-0.778,0.646-0.778
			c0.409,0,0.646,0.3,0.646,0.733v0.135H32.177z M32.821,5.387c-0.048-0.114-0.156-0.192-0.301-0.192
			c-0.144,0-0.255,0.078-0.304,0.192c-0.03,0.069-0.036,0.114-0.039,0.208h0.686C32.86,5.501,32.851,5.457,32.821,5.387z"/>
		<path fill="#3B9E84" d="M34.128,6.481h-0.25L33.32,4.958h0.325l0.361,1.073l0.357-1.073h0.325L34.128,6.481z"/>
		<path fill="#3B9E84" d="M35.147,5.808c0,0.262,0.139,0.427,0.388,0.427c0.171,0,0.261-0.048,0.37-0.156L36.1,6.262
			C35.944,6.418,35.797,6.5,35.529,6.5c-0.382,0-0.685-0.202-0.685-0.782c0-0.493,0.255-0.778,0.646-0.778
			c0.409,0,0.646,0.3,0.646,0.733v0.135H35.147z M35.791,5.387c-0.048-0.114-0.156-0.192-0.301-0.192
			c-0.144,0-0.255,0.078-0.304,0.192c-0.03,0.069-0.036,0.114-0.039,0.208h0.686C35.83,5.501,35.821,5.457,35.791,5.387z"/>
		<path fill="#3B9E84" d="M36.948,6.481c-0.292,0-0.418-0.195-0.418-0.421V4.341h0.307v1.701c0,0.117,0.042,0.177,0.166,0.177h0.135
			v0.262H36.948z"/>
		<path fill="#3B9E84" d="M38.431,6.319c-0.1,0.102-0.25,0.18-0.457,0.18s-0.355-0.078-0.454-0.18
			c-0.144-0.15-0.18-0.343-0.18-0.602c0-0.255,0.036-0.448,0.18-0.598c0.099-0.102,0.247-0.18,0.454-0.18s0.357,0.078,0.457,0.18
			c0.144,0.15,0.18,0.343,0.18,0.598C38.612,5.977,38.575,6.169,38.431,6.319z M38.2,5.3c-0.057-0.057-0.135-0.087-0.226-0.087
			s-0.166,0.03-0.223,0.087c-0.093,0.093-0.105,0.252-0.105,0.417c0,0.166,0.012,0.325,0.105,0.418
			c0.057,0.057,0.132,0.09,0.223,0.09s0.168-0.033,0.226-0.09c0.093-0.093,0.105-0.252,0.105-0.418
			C38.305,5.553,38.293,5.393,38.2,5.3z"/>
		<path fill="#3B9E84" d="M40.099,6.364C40.015,6.448,39.883,6.5,39.729,6.5c-0.162,0-0.289-0.042-0.399-0.174v0.772h-0.307v-2.14
			h0.3V5.12c0.114-0.138,0.238-0.18,0.403-0.18c0.153,0,0.289,0.051,0.373,0.135c0.153,0.153,0.171,0.412,0.171,0.643
			S40.253,6.211,40.099,6.364z M39.648,5.213c-0.276,0-0.318,0.234-0.318,0.505s0.042,0.508,0.318,0.508
			c0.277,0,0.316-0.238,0.316-0.508S39.925,5.213,39.648,5.213z"/>
	</g>
</g>
<circle fill="#62B3CC" stroke="#57A1B2" stroke-width="0.5" stroke-miterlimit="10" cx="45.88" cy="53.388" r="3.248"/>
<circle fill="#62B3CC" stroke="#57A1B2" stroke-width="0.5" stroke-miterlimit="10" cx="95.586" cy="53.309" r="3.248"/>
</svg>
