<?xml version="1.0" encoding="utf-8"?>
<!-- Generator: Adobe Illustrator 16.0.0, SVG Export Plug-In . SVG Version: 6.00 Build 0)  -->
<!DOCTYPE svg PUBLIC "-//W3C//DTD SVG 1.1//EN" "http://www.w3.org/Graphics/SVG/1.1/DTD/svg11.dtd">
<svg version="1.1" id="Layer_1" xmlns="http://www.w3.org/2000/svg" xmlns:xlink="http://www.w3.org/1999/xlink" x="0px" y="0px"
	 width="127px" height="75.167px" viewBox="0 0 127 75.167" enable-background="new 0 0 127 75.167" xml:space="preserve">
<path fill="none" stroke="#DDDDDD" stroke-width="0.5" stroke-miterlimit="10" d="M67.132,44.615c0-2.652,2.152-4.812,4.806-4.812"
	/>
<path fill="none" stroke="#59AFE1" stroke-width="0.5" stroke-miterlimit="10" d="M62.196,39.821"/>
<path fill="none" stroke="#DDDDDD" stroke-width="0.5" stroke-miterlimit="10" d="M40.545,44.615c0-2.652-2.156-4.812-4.808-4.812
	 M26.556,59.023h33.393"/>
<path fill="#FFD6D3" stroke="#E5C2C1" stroke-width="0.5" stroke-miterlimit="10" d="M50.177,56.561
	c1.363,0,2.466,1.097,2.466,2.463s-1.104,2.464-2.466,2.464c-1.362,0-2.467-1.098-2.467-2.464S48.814,56.561,50.177,56.561z"/>
<path fill="#FFD6D3" stroke="#E5C2C1" stroke-width="0.5" stroke-miterlimit="10" d="M57.497,56.561
	c1.363,0,2.467,1.097,2.467,2.463s-1.104,2.464-2.467,2.464c-1.363,0-2.466-1.098-2.466-2.464S56.134,56.561,57.497,56.561z"/>
<path fill="#FFD6D3" stroke="#E5C2C1" stroke-width="0.5" stroke-miterlimit="10" d="M38.719,56.561c1.36,0,2.466,1.097,2.466,2.463
	s-1.106,2.464-2.466,2.464c-1.363,0-2.467-1.098-2.467-2.464S37.355,56.561,38.719,56.561z"/>
<path fill="none" stroke="#DDDDDD" stroke-width="0.5" stroke-miterlimit="10" d="M122.049,39.821H28.946"/>
<path fill="#4BD6BA" stroke="#43BA9E" stroke-width="0.5" stroke-miterlimit="10" d="M76.621,37.352c1.365,0,2.464,1.108,2.464,2.47
	c0,1.359-1.099,2.471-2.464,2.471c-1.366,0-2.465-1.109-2.465-2.471S75.254,37.352,76.621,37.352z"/>
<path fill="#4BD6BA" stroke="#43BA9E" stroke-width="0.5" stroke-miterlimit="10" d="M50.177,37.352c1.363,0,2.466,1.108,2.466,2.47
	c0,1.359-1.104,2.471-2.466,2.471c-1.362,0-2.467-1.109-2.467-2.471S48.814,37.352,50.177,37.352z"/>
<path fill="#4BD6BA" stroke="#43BA9E" stroke-width="0.5" stroke-miterlimit="10" d="M122.049,37.352
	c1.361,0,2.465,1.108,2.465,2.47c0,1.359-1.104,2.471-2.465,2.471c-1.363,0-2.469-1.109-2.469-2.471S120.686,37.352,122.049,37.352z
	"/>
<path fill="none" stroke="#DDDDDD" stroke-width="0.5" stroke-miterlimit="10" d="M40.545,44.615c0,2.651,2.152,4.811,4.808,4.811
	h16.843"/>
<path fill="#FFD6D3" stroke="#E5C2C1" stroke-width="0.5" stroke-miterlimit="10" d="M50.177,46.957
	c1.363,0,2.466,1.104,2.466,2.469c0,1.359-1.104,2.465-2.466,2.465c-1.362,0-2.467-1.104-2.467-2.465
	C47.71,48.06,48.814,46.957,50.177,46.957z"/>
<path fill="#FFD6D3" stroke="#E5C2C1" stroke-width="0.5" stroke-miterlimit="10" d="M57.497,46.957
	c1.363,0,2.467,1.104,2.467,2.469c0,1.359-1.104,2.465-2.467,2.465c-1.363,0-2.466-1.104-2.466-2.465
	C55.031,48.06,56.134,46.957,57.497,46.957z"/>
<path fill="none" stroke="#DDDDDD" stroke-width="0.5" stroke-miterlimit="10" d="M62.196,49.425h0.14
	c2.656,0,4.796-2.158,4.796-4.811"/>
<path fill="none" stroke="#CCCCCC" stroke-width="0.5" stroke-linecap="round" stroke-linejoin="round" d="M14.131,39.821"/>
<path fill="none" stroke="#CCCCCC" stroke-width="0.5" stroke-linecap="round" stroke-linejoin="round" stroke-dasharray="0,14.1243" d="
	M11.93,39.821H4.201"/>
<path fill="none" stroke="#CCCCCC" stroke-width="0.5" stroke-linecap="round" stroke-linejoin="round" d="M122.049,30.223"/>
<path fill="none" stroke="#CCCCCC" stroke-width="0.5" stroke-linecap="round" stroke-linejoin="round" stroke-dasharray="0,14.9632" d="
	M119.721,30.223h-12.843"/>
<path fill="none" stroke="#CCCCCC" stroke-width="0.5" stroke-linecap="round" stroke-linejoin="round" d="M105.708,30.223"/>
<path fill="none" stroke="#DDDDDD" stroke-width="0.5" stroke-miterlimit="10" d="M14.131,35.009c0-2.645-2.156-4.805-4.808-4.805"
	/>
<path fill="none" stroke="#DEEFF8" stroke-width="0.5" stroke-miterlimit="10" d="M62.196,30.223"/>
<path fill="#FFD6D3" stroke="#E5C2C1" stroke-width="0.5" stroke-miterlimit="10" d="M24.089,56.561
	c1.363,0,2.467,1.097,2.467,2.463s-1.104,2.464-2.467,2.464c-1.363,0-2.466-1.098-2.466-2.464S22.727,56.561,24.089,56.561z"/>
<path fill="none" stroke="#DDDDDD" stroke-width="0.5" stroke-miterlimit="10" d="M101.568,30.223H6.997"/>
<path fill="#62B3CC" stroke="#57A1B2" stroke-width="0.5" stroke-miterlimit="10" d="M4.53,27.756c1.363,0,2.466,1.104,2.466,2.467
	c0,1.36-1.104,2.47-2.466,2.47c-1.362,0-2.467-1.109-2.467-2.47C2.064,28.86,3.168,27.756,4.53,27.756z"/>
<path fill="#62B3CC" stroke="#57A1B2" stroke-width="0.5" stroke-miterlimit="10" d="M50.177,27.756
	c1.363,0,2.466,1.104,2.466,2.467c0,1.36-1.104,2.47-2.466,2.47c-1.362,0-2.467-1.109-2.467-2.47
	C47.71,28.86,48.814,27.756,50.177,27.756z"/>
<path fill="#62B3CC" stroke="#57A1B2" stroke-width="0.5" stroke-miterlimit="10" d="M101.568,27.756c1.357,0,2.47,1.104,2.47,2.467
	c0,1.36-1.11,2.47-2.47,2.47c-1.36,0-2.471-1.109-2.471-2.47C99.098,28.86,100.208,27.756,101.568,27.756z"/>
<path fill="#404040" d="M3.894,19.375H3.705l-0.39-0.985h0.204L3.8,19.14l0.28-0.75h0.204L3.894,19.375z M4.611,18.25
	c0.079-0.125,0.219-0.217,0.408-0.217c0.186,0,0.311,0.076,0.406,0.217c0.091,0.125,0.125,0.295,0.125,0.484
	c0,0.186-0.034,0.344-0.125,0.484c-0.079,0.125-0.22,0.217-0.406,0.217c-0.189,0-0.314-0.076-0.408-0.217
	c-0.092-0.125-0.125-0.299-0.125-0.484C4.486,18.545,4.534,18.375,4.611,18.25z M4.815,19.14c0.046,0.046,0.11,0.079,0.204,0.079
	c0.092,0,0.156-0.033,0.201-0.079c0.08-0.079,0.11-0.22,0.11-0.421c0-0.204-0.03-0.344-0.11-0.42
	c-0.045-0.049-0.109-0.08-0.201-0.08c-0.094,0-0.158,0.031-0.204,0.08c-0.079,0.076-0.11,0.216-0.11,0.42
	C4.705,18.92,4.736,19.061,4.815,19.14z M5.955,19.109c0.076,0,0.141,0.061,0.141,0.141c0,0.076-0.064,0.14-0.141,0.14
	c-0.079,0-0.14-0.063-0.14-0.14C5.815,19.17,5.861,19.109,5.955,19.109z M6.562,19.375v-0.922H6.251v-0.14
	c0.186,0,0.311-0.11,0.345-0.25h0.17v1.312H6.562z"/>
<path fill="none" stroke="#DDDDDD" stroke-width="0.5" stroke-miterlimit="10" d="M5.095,24.93v-2.747 M6.361,23.914L5.095,25.18
	l-1.28-1.266"/>
<path fill="#404040" d="M48.725,19.375h-0.204l-0.39-0.985h0.219l0.281,0.75l0.28-0.75h0.205L48.725,19.375z M49.442,18.25
	c0.079-0.125,0.22-0.217,0.405-0.217c0.189,0,0.314,0.076,0.406,0.217c0.094,0.125,0.125,0.295,0.125,0.484
	c0,0.186-0.031,0.344-0.125,0.484c-0.076,0.125-0.216,0.217-0.406,0.217c-0.186,0-0.311-0.076-0.405-0.217
	c-0.095-0.125-0.125-0.299-0.125-0.484C49.317,18.545,49.363,18.375,49.442,18.25z M49.646,19.14
	c0.046,0.046,0.107,0.079,0.201,0.079c0.095,0,0.156-0.033,0.205-0.079c0.076-0.079,0.11-0.22,0.11-0.421
	c0-0.204-0.034-0.344-0.11-0.42c-0.049-0.049-0.11-0.08-0.205-0.08c-0.094,0-0.155,0.031-0.201,0.08
	c-0.079,0.076-0.11,0.216-0.11,0.42C49.536,18.92,49.567,19.061,49.646,19.14z M50.783,19.109c0.08,0,0.141,0.061,0.141,0.141
	c0,0.076-0.061,0.14-0.141,0.14c-0.076,0-0.14-0.063-0.14-0.14C50.643,19.17,50.707,19.109,50.783,19.109z M51.253,18.515v-0.046
	c0-0.219,0.171-0.421,0.451-0.421c0.284,0,0.439,0.187,0.439,0.405c0,0.172-0.094,0.312-0.25,0.406l-0.265,0.17
	c-0.079,0.049-0.14,0.11-0.155,0.189h0.67v0.186h-0.92c0-0.219,0.091-0.375,0.311-0.529l0.219-0.141
	c0.125-0.08,0.186-0.171,0.186-0.281c0-0.125-0.076-0.234-0.25-0.234c-0.171,0-0.25,0.125-0.25,0.266v0.061L51.253,18.515z"/>
<path fill="none" stroke="#DDDDDD" stroke-width="0.5" stroke-miterlimit="10" d="M50.177,24.93v-2.747 M51.439,23.914l-1.262,1.266
	l-1.281-1.266"/>
<path fill="#404040" d="M100.287,19.375H100.1l-0.392-0.985h0.22l0.28,0.75l0.28-0.75h0.207L100.287,19.375z M101.159,19.375v-0.922
	h-0.312v-0.14c0.188,0,0.312-0.11,0.348-0.25h0.17v1.312H101.159z M101.878,19.109c0.079,0,0.142,0.061,0.142,0.141
	c0,0.076-0.062,0.14-0.142,0.14c-0.073,0-0.142-0.063-0.142-0.14C101.738,19.17,101.805,19.109,101.878,19.109z M102.439,18.25
	c0.08-0.125,0.22-0.217,0.408-0.217c0.188,0,0.312,0.076,0.407,0.217c0.086,0.125,0.122,0.295,0.122,0.484
	c0,0.186-0.036,0.344-0.122,0.484c-0.085,0.125-0.22,0.217-0.407,0.217c-0.188,0-0.312-0.076-0.408-0.217
	c-0.092-0.125-0.121-0.299-0.121-0.484C102.318,18.545,102.348,18.375,102.439,18.25z M102.628,19.14
	c0.043,0.046,0.108,0.079,0.201,0.079c0.098,0,0.157-0.033,0.207-0.079c0.073-0.079,0.11-0.22,0.11-0.421
	c0-0.204-0.037-0.344-0.11-0.42c-0.05-0.049-0.109-0.08-0.207-0.08c-0.093,0-0.158,0.031-0.201,0.08
	c-0.079,0.076-0.108,0.216-0.108,0.42C102.52,18.92,102.549,19.061,102.628,19.14z"/>
<path fill="none" stroke="#DDDDDD" stroke-width="0.5" stroke-miterlimit="10" d="M101.568,24.93v-2.747 M102.848,23.914
	l-1.279,1.266l-1.264-1.266"/>
<path fill="none" stroke="#CCCCCC" stroke-width="0.5" stroke-linecap="round" stroke-linejoin="round" d="M41.557,49.425"/>
<path fill="none" stroke="#CCCCCC" stroke-width="0.5" stroke-linecap="round" stroke-linejoin="round" stroke-dasharray="0,13.6844" d="
	M39.42,49.425H4.17"/>
<path fill="none" stroke="#CCCCCC" stroke-width="0.5" stroke-linecap="round" stroke-linejoin="round" d="M122.049,49.425"/>
<path fill="none" stroke="#CCCCCC" stroke-width="0.5" stroke-linecap="round" stroke-linejoin="round" stroke-dasharray="0,13.7717" d="
	M119.893,49.425h-52.67"/>
<path fill="none" stroke="#CCCCCC" stroke-width="0.5" stroke-linecap="round" stroke-linejoin="round" d="M20.156,59.023"/>
<path fill="none" stroke="#CCCCCC" stroke-width="0.5" stroke-linecap="round" stroke-linejoin="round" stroke-dasharray="0,13.6492" d="
	M18.019,59.023H4.17"/>
<path fill="none" stroke="#CCCCCC" stroke-width="0.5" stroke-linecap="round" stroke-linejoin="round" d="M122.049,59.023"/>
<path fill="none" stroke="#CCCCCC" stroke-width="0.5" stroke-linecap="round" stroke-linejoin="round" stroke-dasharray="0,13.907" d="
	M119.879,59.023H62.351"/>
<path fill="none" stroke="#CCCCCC" stroke-width="0.5" stroke-linecap="round" stroke-linejoin="round" d="M61.26,59.023"/>
<path fill="none" stroke="#DDDDDD" stroke-width="0.5" stroke-miterlimit="10" d="M14.131,35.009c0,2.66,2.153,4.812,4.809,4.812
	h14.937"/>
<circle fill="#4BD6BA" stroke="#43BA9E" stroke-width="0.5" stroke-miterlimit="10" cx="31.41" cy="39.824" r="2.448"/>
<path fill="#4BD6BA" stroke="#43BA9E" stroke-width="0.5" stroke-miterlimit="10" d="M24.089,37.352c1.363,0,2.467,1.108,2.467,2.47
	c0,1.359-1.104,2.471-2.467,2.471c-1.363,0-2.466-1.109-2.466-2.471S22.727,37.352,24.089,37.352z"/>
<path fill="none" stroke="#DDDDDD" stroke-width="0.5" stroke-miterlimit="10" d="M24.089,42.272V56.56"/>
<g>
	<rect x="2" y="2" fill="#62B3CC" stroke="#57A1B2" stroke-width="0.5" stroke-miterlimit="10" width="20" height="7"/>
	<g enable-background="new    ">
		<path fill="#40767C" d="M9.1,6.646V5.215L8.606,6.258h-0.24L7.861,5.215v1.431H7.537V4.505h0.324l0.625,1.332L9.1,4.505h0.325
			v2.141H9.1z"/>
		<path fill="#40767C" d="M10.76,6.646V6.507c-0.111,0.111-0.216,0.156-0.406,0.156s-0.315-0.045-0.409-0.138
			c-0.078-0.081-0.12-0.198-0.12-0.328c0-0.255,0.177-0.438,0.526-0.438h0.403V5.65c0-0.192-0.096-0.285-0.333-0.285
			c-0.168,0-0.25,0.039-0.334,0.147L9.885,5.323c0.144-0.169,0.294-0.22,0.547-0.22c0.418,0,0.628,0.178,0.628,0.523v1.019H10.76z
			 M10.754,5.972h-0.358c-0.18,0-0.273,0.082-0.273,0.22c0,0.139,0.087,0.217,0.28,0.217c0.117,0,0.204-0.009,0.286-0.087
			c0.045-0.046,0.066-0.117,0.066-0.226V5.972z"/>
		<path fill="#40767C" d="M12.022,6.663c-0.25,0-0.46-0.042-0.64-0.219l0.201-0.201c0.124,0.126,0.289,0.159,0.439,0.159
			c0.187,0,0.334-0.066,0.334-0.211c0-0.102-0.057-0.168-0.205-0.18L11.908,5.99c-0.286-0.024-0.451-0.153-0.451-0.421
			c0-0.298,0.255-0.466,0.574-0.466c0.229,0,0.424,0.048,0.565,0.171L12.404,5.47c-0.096-0.081-0.231-0.11-0.375-0.11
			c-0.184,0-0.277,0.081-0.277,0.195c0,0.09,0.048,0.159,0.21,0.174l0.241,0.021c0.286,0.023,0.454,0.159,0.454,0.43
			C12.656,6.498,12.386,6.663,12.022,6.663z"/>
		<path fill="#40767C" d="M13.45,6.646c-0.286,0-0.417-0.204-0.417-0.424V5.383h-0.175V5.148h0.175V4.686h0.306v0.463h0.295v0.234
			h-0.295v0.824c0,0.11,0.054,0.177,0.168,0.177h0.126v0.262H13.45z"/>
		<path fill="#40767C" d="M14.239,5.972c0,0.262,0.139,0.428,0.388,0.428c0.171,0,0.261-0.049,0.37-0.156l0.195,0.183
			c-0.156,0.156-0.304,0.237-0.571,0.237c-0.382,0-0.685-0.201-0.685-0.781c0-0.493,0.255-0.778,0.646-0.778
			c0.409,0,0.646,0.301,0.646,0.733v0.135H14.239z M14.882,5.552c-0.048-0.114-0.156-0.192-0.301-0.192
			c-0.144,0-0.255,0.078-0.304,0.192c-0.03,0.068-0.036,0.114-0.039,0.207h0.686C14.921,5.666,14.912,5.62,14.882,5.552z"/>
		<path fill="#40767C" d="M16.469,5.479C16.4,5.41,16.346,5.377,16.24,5.377c-0.165,0-0.303,0.132-0.303,0.343v0.926H15.63V5.121
			h0.3v0.166c0.078-0.108,0.234-0.184,0.406-0.184c0.147,0,0.259,0.039,0.364,0.145L16.469,5.479z"/>
	</g>
</g>
<g>
	<rect x="25.129" y="2" fill="#4BD6BA" stroke="#43BA9E" stroke-width="0.5" stroke-miterlimit="10" width="20" height="7"/>
	<g enable-background="new    ">
		<path fill="#3B9E84" d="M31.29,6.444c-0.135,0.135-0.331,0.201-0.553,0.201h-0.751V4.505h0.751c0.222,0,0.417,0.066,0.553,0.202
			c0.231,0.231,0.217,0.544,0.217,0.854S31.521,6.213,31.29,6.444z M31.068,4.941c-0.09-0.1-0.21-0.145-0.364-0.145H30.31v1.557
			h0.394c0.153,0,0.273-0.045,0.364-0.144c0.111-0.124,0.114-0.355,0.114-0.649C31.182,5.266,31.179,5.064,31.068,4.941z"/>
		<path fill="#3B9E84" d="M32.173,5.972c0,0.262,0.139,0.428,0.388,0.428c0.171,0,0.261-0.049,0.37-0.156l0.195,0.183
			c-0.156,0.156-0.304,0.237-0.571,0.237c-0.382,0-0.685-0.201-0.685-0.781c0-0.493,0.255-0.778,0.646-0.778
			c0.409,0,0.646,0.301,0.646,0.733v0.135H32.173z M32.816,5.552c-0.048-0.114-0.156-0.192-0.301-0.192
			c-0.144,0-0.255,0.078-0.304,0.192c-0.03,0.068-0.036,0.114-0.039,0.207h0.686C32.855,5.666,32.846,5.62,32.816,5.552z"/>
		<path fill="#3B9E84" d="M34.124,6.646h-0.25l-0.559-1.524h0.325L34,6.194l0.357-1.073h0.325L34.124,6.646z"/>
		<path fill="#3B9E84" d="M35.143,5.972c0,0.262,0.139,0.428,0.388,0.428c0.171,0,0.261-0.049,0.37-0.156l0.195,0.183
			c-0.156,0.156-0.304,0.237-0.571,0.237c-0.382,0-0.685-0.201-0.685-0.781c0-0.493,0.255-0.778,0.646-0.778
			c0.409,0,0.646,0.301,0.646,0.733v0.135H35.143z M35.786,5.552c-0.048-0.114-0.156-0.192-0.301-0.192
			c-0.144,0-0.255,0.078-0.304,0.192c-0.03,0.068-0.036,0.114-0.039,0.207h0.686C35.825,5.666,35.816,5.62,35.786,5.552z"/>
		<path fill="#3B9E84" d="M36.943,6.646c-0.292,0-0.418-0.195-0.418-0.421v-1.72h0.307v1.702c0,0.117,0.042,0.177,0.166,0.177h0.135
			v0.262H36.943z"/>
		<path fill="#3B9E84" d="M38.427,6.483c-0.1,0.102-0.25,0.18-0.457,0.18s-0.355-0.078-0.454-0.18
			c-0.144-0.15-0.18-0.343-0.18-0.602c0-0.255,0.036-0.447,0.18-0.598c0.099-0.103,0.247-0.181,0.454-0.181s0.357,0.078,0.457,0.181
			c0.144,0.15,0.18,0.343,0.18,0.598C38.607,6.141,38.571,6.333,38.427,6.483z M38.195,5.464c-0.057-0.057-0.135-0.087-0.226-0.087
			s-0.166,0.03-0.223,0.087c-0.093,0.094-0.105,0.253-0.105,0.418s0.012,0.325,0.105,0.418c0.057,0.057,0.132,0.09,0.223,0.09
			s0.168-0.033,0.226-0.09C38.288,6.207,38.3,6.047,38.3,5.882S38.288,5.558,38.195,5.464z"/>
		<path fill="#3B9E84" d="M40.095,6.528c-0.084,0.084-0.217,0.135-0.37,0.135c-0.162,0-0.289-0.042-0.399-0.174v0.772h-0.307V5.121
			h0.3v0.163c0.114-0.139,0.238-0.181,0.403-0.181c0.153,0,0.289,0.051,0.373,0.135c0.153,0.153,0.171,0.412,0.171,0.644
			S40.248,6.375,40.095,6.528z M39.644,5.377c-0.276,0-0.318,0.234-0.318,0.505s0.042,0.508,0.318,0.508s0.315-0.237,0.315-0.508
			S39.92,5.377,39.644,5.377z"/>
	</g>
</g>
<g>
	<rect x="48.129" y="2" fill="#FFD6D3" stroke="#E5C2C1" stroke-width="0.5" stroke-miterlimit="10" width="20" height="7"/>
	<g enable-background="new    ">
		<path fill="#AF9595" d="M53.42,4.797v0.652h0.89V5.74h-0.89v0.905h-0.324V4.505h1.368v0.292H53.42z"/>
		<path fill="#AF9595" d="M54.941,5.972c0,0.262,0.139,0.428,0.388,0.428c0.171,0,0.261-0.049,0.37-0.156l0.195,0.183
			c-0.156,0.156-0.304,0.237-0.571,0.237c-0.382,0-0.685-0.201-0.685-0.781c0-0.493,0.255-0.778,0.646-0.778
			c0.409,0,0.646,0.301,0.646,0.733v0.135H54.941z M55.585,5.552c-0.048-0.114-0.156-0.192-0.301-0.192
			c-0.144,0-0.255,0.078-0.304,0.192c-0.03,0.068-0.036,0.114-0.039,0.207h0.686C55.624,5.666,55.615,5.62,55.585,5.552z"/>
		<path fill="#AF9595" d="M57.153,6.646V6.507c-0.111,0.111-0.216,0.156-0.406,0.156s-0.315-0.045-0.409-0.138
			c-0.078-0.081-0.12-0.198-0.12-0.328c0-0.255,0.177-0.438,0.526-0.438h0.403V5.65c0-0.192-0.096-0.285-0.333-0.285
			c-0.168,0-0.25,0.039-0.334,0.147l-0.201-0.189c0.144-0.169,0.294-0.22,0.547-0.22c0.418,0,0.628,0.178,0.628,0.523v1.019H57.153z
			 M57.147,5.972H56.79c-0.18,0-0.273,0.082-0.273,0.22c0,0.139,0.087,0.217,0.28,0.217c0.117,0,0.204-0.009,0.286-0.087
			c0.045-0.046,0.066-0.117,0.066-0.226V5.972z"/>
		<path fill="#AF9595" d="M58.376,6.646c-0.286,0-0.417-0.204-0.417-0.424V5.383h-0.175V5.148h0.175V4.686h0.306v0.463h0.295v0.234
			h-0.295v0.824c0,0.11,0.054,0.177,0.168,0.177h0.126v0.262H58.376z"/>
		<path fill="#AF9595" d="M59.869,6.646V6.492c-0.105,0.114-0.252,0.171-0.406,0.171c-0.156,0-0.285-0.051-0.375-0.138
			c-0.117-0.114-0.153-0.259-0.153-0.43V5.121h0.307v0.93c0,0.237,0.135,0.339,0.307,0.339s0.315-0.104,0.315-0.339v-0.93h0.307
			v1.524H59.869z"/>
		<path fill="#AF9595" d="M61.491,5.479c-0.069-0.069-0.123-0.103-0.229-0.103c-0.165,0-0.303,0.132-0.303,0.343v0.926h-0.307V5.121
			h0.3v0.166c0.078-0.108,0.234-0.184,0.406-0.184c0.147,0,0.259,0.039,0.364,0.145L61.491,5.479z"/>
		<path fill="#AF9595" d="M62.102,5.972c0,0.262,0.139,0.428,0.388,0.428c0.171,0,0.261-0.049,0.369-0.156l0.195,0.183
			c-0.156,0.156-0.303,0.237-0.571,0.237c-0.382,0-0.685-0.201-0.685-0.781c0-0.493,0.255-0.778,0.646-0.778
			c0.409,0,0.646,0.301,0.646,0.733v0.135H62.102z M62.746,5.552c-0.048-0.114-0.156-0.192-0.301-0.192
			c-0.144,0-0.255,0.078-0.304,0.192c-0.03,0.068-0.036,0.114-0.039,0.207h0.686C62.785,5.666,62.775,5.62,62.746,5.552z"/>
	</g>
</g>
</svg>
