<?xml version="1.0" encoding="utf-8"?>
<!-- Generator: Adobe Illustrator 16.0.0, SVG Export Plug-In . SVG Version: 6.00 Build 0)  -->
<!DOCTYPE svg PUBLIC "-//W3C//DTD SVG 1.1//EN" "http://www.w3.org/Graphics/SVG/1.1/DTD/svg11.dtd">
<svg version="1.1" id="Layer_1" xmlns="http://www.w3.org/2000/svg" xmlns:xlink="http://www.w3.org/1999/xlink" x="0px" y="0px"
	 width="127px" height="75.167px" viewBox="-53.5 0 127 75.167" enable-background="new -53.5 0 127 75.167" xml:space="preserve">
<path fill="#404040" d="M-28.823,7.111h-0.25v0.671h-0.235V6.144h0.625c0.311,0,0.516,0.217,0.516,0.497
	c0,0.235-0.156,0.424-0.406,0.47l0.39,0.701h-0.265L-28.823,7.111z M-28.713,6.91c0.186,0,0.311-0.11,0.311-0.284
	c0-0.171-0.125-0.28-0.311-0.28h-0.345V6.91H-28.713z M-26.826,7.471c-0.061,0.201-0.25,0.36-0.5,0.36
	c-0.296,0-0.561-0.22-0.561-0.61c0-0.36,0.25-0.595,0.546-0.595c0.344,0,0.549,0.235,0.549,0.595V7.3h-0.845
	c0,0.201,0.156,0.341,0.345,0.341c0.186,0,0.28-0.094,0.311-0.234L-26.826,7.471z M-27.042,7.111c0-0.156-0.11-0.281-0.314-0.281
	c-0.186,0-0.296,0.141-0.311,0.281H-27.042z M-26.42,7.797V6.096h0.219v1.701H-26.42z M-24.734,7.471
	c-0.061,0.201-0.25,0.36-0.497,0.36c-0.299,0-0.564-0.22-0.564-0.61c0-0.36,0.25-0.595,0.53-0.595c0.345,0,0.549,0.235,0.549,0.595
	V7.3h-0.844c0,0.201,0.155,0.341,0.344,0.341c0.186,0,0.281-0.094,0.311-0.234L-24.734,7.471z M-24.951,7.111
	c0-0.156-0.109-0.281-0.314-0.281c-0.186,0-0.295,0.141-0.311,0.281H-24.951z M-24.045,7.157l0.296-0.046
	c0.061-0.015,0.094-0.046,0.094-0.079c0-0.107-0.079-0.202-0.25-0.202c-0.155,0-0.235,0.095-0.25,0.235l-0.219-0.049
	c0.03-0.216,0.219-0.356,0.469-0.356c0.342,0,0.467,0.186,0.467,0.405v0.561c0,0.095,0.015,0.156,0.015,0.186h-0.217
	c0-0.03-0.015-0.076-0.015-0.155c-0.049,0.079-0.158,0.189-0.36,0.189c-0.234,0-0.375-0.156-0.375-0.345
	C-24.39,7.3-24.249,7.175-24.045,7.157z M-23.655,7.315V7.266l-0.344,0.049c-0.095,0.016-0.156,0.061-0.156,0.171
	c0,0.079,0.061,0.155,0.186,0.155C-23.813,7.641-23.655,7.565-23.655,7.315z M-22.889,7.44c0.015,0.125,0.106,0.201,0.265,0.201
	c0.125,0,0.186-0.061,0.186-0.155c0-0.064-0.046-0.125-0.141-0.14L-22.764,7.3c-0.174-0.034-0.284-0.159-0.284-0.314
	c0-0.186,0.189-0.36,0.405-0.36c0.314,0,0.409,0.204,0.424,0.299l-0.189,0.076c-0.015-0.061-0.061-0.186-0.235-0.186
	c-0.106,0-0.186,0.076-0.186,0.156c0,0.061,0.046,0.125,0.125,0.14l0.186,0.046c0.205,0.048,0.314,0.174,0.314,0.329
	s-0.141,0.345-0.406,0.345c-0.314,0-0.439-0.205-0.454-0.33L-22.889,7.44z M-20.832,7.471c-0.061,0.201-0.25,0.36-0.497,0.36
	c-0.299,0-0.564-0.22-0.564-0.61c0-0.36,0.25-0.595,0.546-0.595c0.345,0,0.549,0.235,0.549,0.595V7.3h-0.845
	c0,0.201,0.156,0.341,0.345,0.341c0.186,0,0.281-0.094,0.311-0.234L-20.832,7.471z M-21.063,7.111c0-0.156-0.11-0.281-0.314-0.281
	c-0.186,0-0.296,0.141-0.311,0.281H-21.063z"/>
<path fill="#94FFDD" stroke="#88E5C3" stroke-width="0.5" stroke-miterlimit="10" d="M-29.649,2.958h15.016v7.806h-15.016V2.958z"/>
<path fill="#404040" d="M-26.481,7.797V6.144h0.576c0.424,0,0.799,0.281,0.799,0.827c0,0.545-0.375,0.826-0.799,0.826H-26.481z
	 M-25.905,7.596c0.314,0,0.564-0.205,0.564-0.625c0-0.421-0.25-0.625-0.564-0.625h-0.341v1.25H-25.905z M-23.719,7.471
	c-0.061,0.201-0.25,0.36-0.5,0.36c-0.296,0-0.561-0.22-0.561-0.61c0-0.36,0.25-0.595,0.546-0.595c0.344,0,0.546,0.235,0.546,0.595
	V7.3h-0.842c0,0.201,0.156,0.341,0.345,0.341c0.186,0,0.28-0.094,0.311-0.234L-23.719,7.471z M-23.935,7.111
	c0-0.156-0.11-0.281-0.314-0.281c-0.186,0-0.296,0.141-0.311,0.281H-23.935z M-22.764,7.797h-0.22l-0.454-1.122h0.25l0.329,0.872
	l0.326-0.872h0.235L-22.764,7.797z M-21.097,7.471c-0.061,0.201-0.25,0.36-0.497,0.36c-0.299,0-0.564-0.22-0.564-0.61
	c0-0.36,0.25-0.595,0.546-0.595c0.345,0,0.549,0.235,0.549,0.595V7.3h-0.845c0,0.201,0.156,0.341,0.345,0.341
	c0.186,0,0.28-0.094,0.311-0.234L-21.097,7.471z M-21.313,7.111c0-0.156-0.11-0.281-0.314-0.281c-0.186,0-0.296,0.141-0.311,0.281
	H-21.313z M-20.691,7.797V6.096h0.219v1.701H-20.691z M-18.926,7.236c0,0.345-0.235,0.595-0.576,0.595
	c-0.345,0-0.579-0.25-0.579-0.595s0.234-0.595,0.579-0.595C-19.161,6.641-18.926,6.891-18.926,7.236z M-19.145,7.236
	c0-0.265-0.156-0.406-0.342-0.406c-0.189,0-0.344,0.141-0.344,0.406s0.155,0.405,0.344,0.405
	C-19.301,7.641-19.145,7.501-19.145,7.236z M-18.52,8.236V6.675h0.219v0.171c0.061-0.11,0.186-0.205,0.375-0.205
	c0.342,0,0.516,0.269,0.516,0.595c0,0.329-0.189,0.595-0.531,0.595c-0.174,0-0.314-0.08-0.36-0.189v0.595H-18.52z M-17.975,6.846
	c-0.201,0-0.326,0.17-0.326,0.39c0,0.235,0.141,0.39,0.326,0.39c0.205,0,0.33-0.17,0.33-0.39
	C-17.645,7.001-17.77,6.846-17.975,6.846z"/>
<path fill="#62B3CC" stroke="#57A1B2" stroke-width="0.5" stroke-miterlimit="10" d="M-51.272,2.958h15.02v7.806h-15.02V2.958z"/>
<path fill="#404040" d="M-45.854,7.797V6.501l-0.576,1.296h-0.204l-0.561-1.296v1.296h-0.235V6.144h0.311l0.579,1.357l0.592-1.357
	h0.314v1.653H-45.854z M-44.854,7.157l0.311-0.046c0.064-0.015,0.095-0.046,0.095-0.079c0-0.107-0.08-0.202-0.25-0.202
	c-0.156,0-0.235,0.095-0.25,0.235l-0.235-0.064c0.03-0.216,0.22-0.36,0.47-0.36c0.341,0,0.466,0.189,0.466,0.409v0.561
	c0,0.095,0.018,0.155,0.018,0.186h-0.219c0-0.031-0.015-0.076-0.015-0.156c-0.049,0.08-0.156,0.189-0.36,0.189
	c-0.235,0-0.375-0.159-0.375-0.345S-45.059,7.175-44.854,7.157z M-44.464,7.315V7.266l-0.345,0.049
	c-0.095,0.016-0.155,0.061-0.155,0.171c0,0.079,0.076,0.155,0.186,0.155C-44.604,7.641-44.464,7.565-44.464,7.315z M-43.699,7.44
	c0.015,0.125,0.106,0.201,0.265,0.201c0.125,0,0.186-0.061,0.186-0.155c0-0.064-0.046-0.125-0.14-0.14L-43.574,7.3
	c-0.174-0.034-0.284-0.159-0.284-0.314c0-0.186,0.189-0.36,0.409-0.36c0.311,0,0.405,0.204,0.421,0.299l-0.189,0.076
	c-0.016-0.061-0.061-0.186-0.232-0.186c-0.11,0-0.189,0.076-0.189,0.156c0,0.061,0.045,0.125,0.125,0.14l0.186,0.046
	c0.204,0.048,0.314,0.174,0.314,0.329s-0.14,0.345-0.406,0.345c-0.314,0-0.439-0.205-0.454-0.33L-43.699,7.44z M-42.312,6.675h0.25
	v0.201h-0.25v0.595c0,0.11,0.049,0.155,0.156,0.155c0.033,0,0.064,0,0.094-0.015v0.186c-0.015,0-0.076,0.015-0.155,0.015
	c-0.186,0-0.311-0.122-0.311-0.326V6.861h-0.22V6.66h0.061c0.125,0,0.174-0.08,0.174-0.174V6.3h0.201V6.675z M-40.702,7.471
	c-0.064,0.201-0.25,0.36-0.5,0.36c-0.296,0-0.564-0.22-0.564-0.61c0-0.36,0.25-0.595,0.549-0.595c0.341,0,0.546,0.235,0.546,0.595
	V7.3h-0.845c0,0.201,0.159,0.341,0.345,0.341c0.186,0,0.28-0.094,0.311-0.234L-40.702,7.471z M-40.921,7.111
	c0-0.156-0.11-0.281-0.311-0.281c-0.189,0-0.299,0.141-0.314,0.281H-40.921z M-39.671,6.891h-0.095
	c-0.189,0-0.314,0.095-0.314,0.345v0.561h-0.216V6.675h0.216v0.201C-40,6.705-39.86,6.66-39.735,6.66h0.079v0.231H-39.671z"/>
<path fill="#FFD6D3" stroke="#E5C2C1" stroke-width="0.5" stroke-miterlimit="10" d="M-8.138,2.958H6.878v7.806H-8.138V2.958z"/>
<path fill="#404040" d="M-4.611,7.721V6.065h1.016v0.22h-0.781v0.53h0.701v0.217h-0.701v0.704h-0.235V7.721z M-2.33,7.391
	c-0.064,0.205-0.25,0.36-0.5,0.36c-0.299,0-0.564-0.219-0.564-0.61c0-0.356,0.25-0.591,0.534-0.591c0.341,0,0.545,0.235,0.545,0.591
	v0.08h-0.844c0,0.201,0.155,0.344,0.344,0.344c0.186,0,0.281-0.094,0.311-0.234L-2.33,7.391z M-2.549,7.032
	c0-0.156-0.11-0.281-0.311-0.281c-0.189,0-0.299,0.14-0.314,0.281H-2.549z M-1.644,7.08l0.311-0.048
	c0.064-0.016,0.095-0.046,0.095-0.077c0-0.109-0.08-0.204-0.25-0.204c-0.156,0-0.235,0.095-0.25,0.235l-0.22-0.046
	c0.034-0.219,0.22-0.36,0.47-0.36c0.344,0,0.469,0.186,0.469,0.406v0.561c0,0.094,0.015,0.159,0.015,0.189h-0.219
	c0-0.03-0.015-0.079-0.015-0.155c-0.046,0.076-0.156,0.186-0.36,0.186c-0.235,0-0.375-0.155-0.375-0.344
	C-1.989,7.221-1.848,7.096-1.644,7.08z M-1.254,7.236V7.19l-0.344,0.046C-1.69,7.251-1.754,7.3-1.754,7.407
	c0,0.079,0.08,0.158,0.186,0.158C-1.409,7.565-1.254,7.486-1.254,7.236z M-0.287,6.596h0.25V6.8h-0.25v0.591
	c0,0.11,0.049,0.156,0.159,0.156c0.03,0,0.061,0,0.091-0.015v0.189c-0.015,0-0.076,0.015-0.156,0.015
	c-0.186,0-0.311-0.125-0.311-0.329V6.785h-0.219V6.58h0.061c0.125,0,0.174-0.079,0.174-0.17V6.221h0.201V6.596z M0.774,7.751
	c-0.265,0-0.421-0.204-0.421-0.451V6.596h0.22v0.67c0,0.156,0.079,0.299,0.25,0.299c0.17,0,0.265-0.125,0.265-0.283V6.611h0.22
	v0.921c0,0.094,0,0.174,0.015,0.204H1.118c0-0.03-0.015-0.095-0.015-0.14C1.058,7.706,0.917,7.751,0.774,7.751z M2.43,6.815H2.335
	c-0.186,0-0.311,0.095-0.311,0.342v0.564h-0.22V6.596h0.22V6.8c0.079-0.174,0.22-0.22,0.345-0.22h0.076v0.235H2.43z M3.756,7.391
	c-0.061,0.205-0.25,0.36-0.497,0.36c-0.299,0-0.564-0.219-0.564-0.61c0-0.356,0.25-0.591,0.546-0.591
	c0.344,0,0.549,0.235,0.549,0.591v0.08H2.945c0,0.201,0.155,0.344,0.344,0.344c0.186,0,0.281-0.094,0.311-0.234L3.756,7.391z
	 M3.539,7.032c0-0.156-0.109-0.281-0.314-0.281c-0.186,0-0.295,0.14-0.311,0.281H3.539z"/>
<path fill="none" stroke="#DDDDDD" stroke-width="0.5" stroke-miterlimit="10" d="M13.86,54.614c0-2.652,2.152-4.812,4.805-4.812"/>
<path fill="none" stroke="#59AFE1" stroke-width="0.5" stroke-miterlimit="10" d="M8.924,49.821"/>
<path fill="none" stroke="#DDDDDD" stroke-width="0.5" stroke-miterlimit="10" d="M-12.727,54.614c0-2.652-2.156-4.812-4.808-4.812
	 M-26.716,69.023H6.677"/>
<path fill="#FFD6D3" stroke="#E5C2C1" stroke-width="0.5" stroke-miterlimit="10" d="M-3.095,66.561
	c1.363,0,2.466,1.097,2.466,2.463s-1.104,2.464-2.466,2.464s-2.467-1.098-2.467-2.464S-4.458,66.561-3.095,66.561z"/>
<path fill="#FFD6D3" stroke="#E5C2C1" stroke-width="0.5" stroke-miterlimit="10" d="M4.225,66.561c1.363,0,2.467,1.097,2.467,2.463
	s-1.104,2.464-2.467,2.464c-1.363,0-2.466-1.098-2.466-2.464S2.862,66.561,4.225,66.561z"/>
<path fill="#FFD6D3" stroke="#E5C2C1" stroke-width="0.5" stroke-miterlimit="10" d="M-14.553,66.561
	c1.36,0,2.466,1.097,2.466,2.463s-1.106,2.464-2.466,2.464c-1.363,0-2.467-1.098-2.467-2.464S-15.917,66.561-14.553,66.561z"/>
<path fill="none" stroke="#DDDDDD" stroke-width="0.5" stroke-miterlimit="10" d="M68.778,49.821h-93.104"/>
<path fill="#94FFDD" stroke="#88E5C3" stroke-width="0.5" stroke-miterlimit="10" d="M23.349,47.352c1.366,0,2.464,1.109,2.464,2.47
	c0,1.359-1.098,2.47-2.464,2.47s-2.464-1.11-2.464-2.47C20.885,48.461,21.982,47.352,23.349,47.352z"/>
<path fill="#94FFDD" stroke="#88E5C3" stroke-width="0.5" stroke-miterlimit="10" d="M-3.095,47.352c1.363,0,2.466,1.109,2.466,2.47
	c0,1.359-1.104,2.47-2.466,2.47s-2.467-1.11-2.467-2.47C-5.562,48.461-4.458,47.352-3.095,47.352z"/>
<path fill="#94FFDD" stroke="#88E5C3" stroke-width="0.5" stroke-miterlimit="10" d="M68.778,47.352c1.36,0,2.464,1.109,2.464,2.47
	c0,1.359-1.104,2.47-2.464,2.47c-1.365,0-2.47-1.11-2.47-2.47C66.309,48.461,67.413,47.352,68.778,47.352z"/>
<path fill="none" stroke="#DDDDDD" stroke-width="0.5" stroke-miterlimit="10" d="M-12.727,54.614c0,2.652,2.152,4.812,4.808,4.812
	H8.924"/>
<path fill="#FFD6D3" stroke="#E5C2C1" stroke-width="0.5" stroke-miterlimit="10" d="M-3.095,56.956c1.363,0,2.466,1.104,2.466,2.47
	c0,1.359-1.104,2.463-2.466,2.463s-2.467-1.104-2.467-2.463C-5.562,58.06-4.458,56.956-3.095,56.956z"/>
<path fill="#FFD6D3" stroke="#E5C2C1" stroke-width="0.5" stroke-miterlimit="10" d="M4.225,56.956c1.363,0,2.467,1.104,2.467,2.47
	c0,1.359-1.104,2.463-2.467,2.463c-1.363,0-2.466-1.104-2.466-2.463C1.759,58.06,2.862,56.956,4.225,56.956z"/>
<path fill="none" stroke="#DDDDDD" stroke-width="0.5" stroke-miterlimit="10" d="M8.924,59.426h0.14
	c2.656,0,4.796-2.159,4.796-4.812"/>
<path fill="none" stroke="#CCCCCC" stroke-width="0.5" stroke-linecap="round" stroke-linejoin="round" d="M-39.141,49.821"/>
<path fill="none" stroke="#CCCCCC" stroke-width="0.5" stroke-linecap="round" stroke-linejoin="round" stroke-dasharray="0,14.1243" d="
	M-41.342,49.821h-7.729"/>
<path fill="none" stroke="#CCCCCC" stroke-width="0.5" stroke-linecap="round" stroke-linejoin="round" d="M68.778,40.223"/>
<path fill="none" stroke="#CCCCCC" stroke-width="0.5" stroke-linecap="round" stroke-linejoin="round" stroke-dasharray="0,14.9632" d="
	M66.449,40.223H53.606"/>
<path fill="none" stroke="#CCCCCC" stroke-width="0.5" stroke-linecap="round" stroke-linejoin="round" d="M52.436,40.223"/>
<path fill="none" stroke="#DDDDDD" stroke-width="0.5" stroke-miterlimit="10" d="M-39.141,45.01c0-2.646-2.156-4.806-4.808-4.806"
	/>
<path fill="none" stroke="#DEEFF8" stroke-width="0.5" stroke-miterlimit="10" d="M8.924,40.223"/>
<path fill="#FFD6D3" stroke="#E5C2C1" stroke-width="0.5" stroke-miterlimit="10" d="M-29.183,66.561
	c1.363,0,2.467,1.097,2.467,2.463s-1.104,2.464-2.467,2.464s-2.466-1.098-2.466-2.464S-30.545,66.561-29.183,66.561z"/>
<path fill="none" stroke="#DDDDDD" stroke-width="0.5" stroke-miterlimit="10" d="M48.296,40.223h-94.571"/>
<path fill="#62B3CC" stroke="#57A1B2" stroke-width="0.5" stroke-miterlimit="10" d="M-48.742,37.756
	c1.363,0,2.466,1.104,2.466,2.467c0,1.36-1.104,2.47-2.466,2.47s-2.467-1.109-2.467-2.47C-51.208,38.86-50.104,37.756-48.742,37.756
	z"/>
<path fill="#62B3CC" stroke="#57A1B2" stroke-width="0.5" stroke-miterlimit="10" d="M-3.095,37.756
	c1.363,0,2.466,1.104,2.466,2.467c0,1.36-1.104,2.47-2.466,2.47s-2.467-1.109-2.467-2.47C-5.562,38.86-4.458,37.756-3.095,37.756z"
	/>
<path fill="#62B3CC" stroke="#57A1B2" stroke-width="0.5" stroke-miterlimit="10" d="M48.296,37.756c1.359,0,2.47,1.104,2.47,2.467
	c0,1.36-1.11,2.47-2.47,2.47c-1.36,0-2.47-1.109-2.47-2.47C45.826,38.86,46.936,37.756,48.296,37.756z"/>
<path fill="#404040" d="M-49.378,29.375h-0.189l-0.39-0.985h0.204l0.281,0.75l0.28-0.75h0.204L-49.378,29.375z M-48.661,28.25
	c0.079-0.125,0.219-0.217,0.408-0.217c0.186,0,0.311,0.076,0.406,0.217c0.091,0.125,0.125,0.295,0.125,0.484
	c0,0.186-0.034,0.344-0.125,0.484c-0.079,0.125-0.22,0.217-0.406,0.217c-0.189,0-0.314-0.076-0.408-0.217
	c-0.092-0.125-0.125-0.299-0.125-0.484C-48.786,28.545-48.738,28.375-48.661,28.25z M-48.457,29.14
	c0.046,0.046,0.11,0.079,0.204,0.079c0.092,0,0.156-0.033,0.201-0.079c0.08-0.079,0.11-0.22,0.11-0.421
	c0-0.204-0.03-0.344-0.11-0.42c-0.045-0.049-0.109-0.08-0.201-0.08c-0.094,0-0.158,0.031-0.204,0.08
	c-0.079,0.076-0.11,0.216-0.11,0.42C-48.567,28.92-48.536,29.061-48.457,29.14z M-47.317,29.109c0.076,0,0.141,0.061,0.141,0.141
	c0,0.076-0.064,0.14-0.141,0.14c-0.079,0-0.14-0.063-0.14-0.14C-47.457,29.17-47.411,29.109-47.317,29.109z M-46.71,29.375v-0.922
	h-0.311v-0.14c0.186,0,0.311-0.11,0.345-0.25h0.17v1.312H-46.71z"/>
<path fill="none" stroke="#DDDDDD" stroke-width="0.5" stroke-miterlimit="10" d="M-48.177,34.93v-2.747 M-46.911,33.914
	l-1.266,1.266l-1.28-1.266"/>
<path fill="#404040" d="M-4.547,29.375h-0.204l-0.39-0.985h0.219l0.281,0.75l0.28-0.75h0.205L-4.547,29.375z M-3.83,28.25
	c0.079-0.125,0.22-0.217,0.405-0.217c0.189,0,0.314,0.076,0.406,0.217c0.094,0.125,0.125,0.295,0.125,0.484
	c0,0.186-0.031,0.344-0.125,0.484c-0.076,0.125-0.216,0.217-0.406,0.217c-0.186,0-0.311-0.076-0.405-0.217
	c-0.095-0.125-0.125-0.299-0.125-0.484C-3.955,28.545-3.909,28.375-3.83,28.25z M-3.626,29.14c0.046,0.046,0.107,0.079,0.201,0.079
	c0.095,0,0.156-0.033,0.205-0.079c0.076-0.079,0.11-0.22,0.11-0.421c0-0.204-0.034-0.344-0.11-0.42
	c-0.049-0.049-0.11-0.08-0.205-0.08c-0.094,0-0.155,0.031-0.201,0.08c-0.079,0.076-0.11,0.216-0.11,0.42
	C-3.736,28.92-3.705,29.061-3.626,29.14z M-2.489,29.109c0.08,0,0.141,0.061,0.141,0.141c0,0.076-0.061,0.14-0.141,0.14
	c-0.076,0-0.14-0.063-0.14-0.14C-2.629,29.17-2.565,29.109-2.489,29.109z M-2.019,28.515v-0.046c0-0.219,0.171-0.421,0.451-0.421
	c0.284,0,0.439,0.187,0.439,0.405c0,0.172-0.094,0.312-0.25,0.406l-0.265,0.17c-0.079,0.049-0.14,0.11-0.155,0.189h0.67v0.186h-0.92
	c0-0.219,0.091-0.375,0.311-0.529l0.219-0.141c0.125-0.08,0.186-0.171,0.186-0.281c0-0.125-0.076-0.234-0.25-0.234
	c-0.171,0-0.25,0.125-0.25,0.266v0.061L-2.019,28.515z"/>
<path fill="none" stroke="#DDDDDD" stroke-width="0.5" stroke-miterlimit="10" d="M-3.095,34.93v-2.747 M-1.833,33.914l-1.262,1.266
	l-1.281-1.266"/>
<path fill="#404040" d="M47.015,29.375h-0.188l-0.391-0.985h0.22l0.28,0.75l0.28-0.75h0.208L47.015,29.375z M47.887,29.375v-0.922
	h-0.311v-0.14c0.188,0,0.311-0.11,0.348-0.25h0.17v1.312H47.887z M48.606,29.109c0.079,0,0.141,0.061,0.141,0.141
	c0,0.076-0.062,0.14-0.141,0.14c-0.073,0-0.141-0.063-0.141-0.14C48.466,29.17,48.533,29.109,48.606,29.109z M49.167,28.25
	c0.08-0.125,0.22-0.217,0.409-0.217c0.188,0,0.311,0.076,0.408,0.217c0.086,0.125,0.122,0.295,0.122,0.484
	c0,0.186-0.036,0.344-0.122,0.484c-0.085,0.125-0.22,0.217-0.408,0.217c-0.189,0-0.312-0.076-0.409-0.217
	c-0.091-0.125-0.121-0.299-0.121-0.484C49.046,28.545,49.076,28.375,49.167,28.25z M49.356,29.14
	c0.043,0.046,0.109,0.079,0.201,0.079c0.098,0,0.158-0.033,0.207-0.079c0.073-0.079,0.11-0.22,0.11-0.421
	c0-0.204-0.037-0.344-0.11-0.42c-0.049-0.049-0.109-0.08-0.207-0.08c-0.092,0-0.158,0.031-0.201,0.08
	c-0.079,0.076-0.109,0.216-0.109,0.42C49.247,28.92,49.277,29.061,49.356,29.14z"/>
<path fill="none" stroke="#DDDDDD" stroke-width="0.5" stroke-miterlimit="10" d="M48.296,34.93v-2.747 M49.576,33.914l-1.28,1.266
	l-1.263-1.266"/>
<path fill="none" stroke="#CCCCCC" stroke-width="0.5" stroke-linecap="round" stroke-linejoin="round" d="M-11.715,59.426"/>
<path fill="none" stroke="#CCCCCC" stroke-width="0.5" stroke-linecap="round" stroke-linejoin="round" stroke-dasharray="0,13.6844" d="
	M-13.852,59.426h-35.25"/>
<path fill="none" stroke="#CCCCCC" stroke-width="0.5" stroke-linecap="round" stroke-linejoin="round" d="M68.778,59.426"/>
<path fill="none" stroke="#CCCCCC" stroke-width="0.5" stroke-linecap="round" stroke-linejoin="round" stroke-dasharray="0,13.7717" d="
	M66.62,59.426H13.951"/>
<path fill="none" stroke="#CCCCCC" stroke-width="0.5" stroke-linecap="round" stroke-linejoin="round" d="M-33.116,69.023"/>
<path fill="none" stroke="#CCCCCC" stroke-width="0.5" stroke-linecap="round" stroke-linejoin="round" stroke-dasharray="0,13.6492" d="
	M-35.253,69.023h-13.849"/>
<path fill="none" stroke="#CCCCCC" stroke-width="0.5" stroke-linecap="round" stroke-linejoin="round" d="M68.778,69.023"/>
<path fill="none" stroke="#CCCCCC" stroke-width="0.5" stroke-linecap="round" stroke-linejoin="round" stroke-dasharray="0,13.907" d="
	M66.607,69.023H9.079"/>
<path fill="none" stroke="#CCCCCC" stroke-width="0.5" stroke-linecap="round" stroke-linejoin="round" d="M7.988,69.023"/>
<path fill="none" stroke="#DDDDDD" stroke-width="0.5" stroke-miterlimit="10" d="M-39.141,45.01c0,2.659,2.153,4.812,4.809,4.812
	h14.937"/>
<circle fill="#94FFDD" stroke="#88E5C3" stroke-width="0.5" stroke-miterlimit="10" cx="-21.862" cy="49.824" r="2.448"/>
<path fill="#94FFDD" stroke="#88E5C3" stroke-width="0.5" stroke-miterlimit="10" d="M-29.183,47.352
	c1.363,0,2.467,1.109,2.467,2.47c0,1.359-1.104,2.47-2.467,2.47s-2.466-1.11-2.466-2.47C-31.649,48.461-30.545,47.352-29.183,47.352
	z"/>
<path fill="none" stroke="#DDDDDD" stroke-width="0.5" stroke-miterlimit="10" d="M-29.183,52.272v14.288"/>
</svg>
