<?xml version="1.0" encoding="utf-8"?>
<!-- Generator: Adobe Illustrator 16.0.0, SVG Export Plug-In . SVG Version: 6.00 Build 0)  -->
<!DOCTYPE svg PUBLIC "-//W3C//DTD SVG 1.1//EN" "http://www.w3.org/Graphics/SVG/1.1/DTD/svg11.dtd">
<svg version="1.1" id="Layer_1" xmlns="http://www.w3.org/2000/svg" xmlns:xlink="http://www.w3.org/1999/xlink" x="0px" y="0px"
	 width="127.561px" height="53.875px" viewBox="0 0 127.561 53.875" enable-background="new 0 0 127.561 53.875"
	 xml:space="preserve">
<path fill="#404040" d="M25.218,6.138h-0.25v0.668h-0.233V5.175h0.623c0.312,0,0.513,0.215,0.513,0.495
	c0,0.234-0.155,0.422-0.404,0.468l0.39,0.699h-0.265L25.218,6.138z M25.327,5.935c0.186,0,0.311-0.106,0.311-0.279
	c0-0.17-0.125-0.28-0.311-0.28h-0.344v0.559H25.327z M27.208,6.497c-0.061,0.201-0.249,0.355-0.495,0.355
	c-0.298,0-0.562-0.215-0.562-0.604c0-0.358,0.249-0.592,0.544-0.592c0.343,0,0.547,0.234,0.547,0.592v0.076H26.4
	c0,0.204,0.155,0.343,0.343,0.343c0.187,0,0.28-0.094,0.311-0.234L27.208,6.497z M26.992,6.138c0-0.155-0.109-0.279-0.312-0.279
	c-0.187,0-0.296,0.14-0.311,0.279H26.992z M27.615,6.822V5.126h0.216v1.695L27.615,6.822L27.615,6.822z M29.31,6.497
	c-0.063,0.201-0.249,0.355-0.498,0.355c-0.298,0-0.562-0.215-0.562-0.604c0-0.358,0.249-0.592,0.547-0.592
	c0.341,0,0.544,0.234,0.544,0.592v0.076h-0.842c0,0.204,0.158,0.343,0.343,0.343c0.187,0,0.28-0.094,0.311-0.234L29.31,6.497z
	 M29.076,6.138c0-0.155-0.109-0.279-0.312-0.279c-0.186,0-0.294,0.14-0.311,0.279H29.076z M29.979,6.184l0.31-0.046
	c0.064-0.015,0.094-0.045,0.094-0.079c0-0.106-0.078-0.2-0.249-0.2c-0.154,0-0.233,0.094-0.249,0.234l-0.203-0.049
	c0.032-0.216,0.219-0.358,0.468-0.358c0.343,0,0.468,0.188,0.468,0.407v0.559c0,0.094,0.015,0.155,0.015,0.185h-0.219
	c0-0.03-0.015-0.076-0.015-0.155C30.353,6.761,30.243,6.87,30.04,6.87c-0.233,0-0.374-0.158-0.374-0.343
	C29.635,6.324,29.775,6.199,29.979,6.184z M30.368,6.342V6.293l-0.343,0.048c-0.094,0.015-0.155,0.061-0.155,0.17
	c0,0.076,0.079,0.155,0.187,0.155C30.228,6.667,30.368,6.588,30.368,6.342z M31.13,6.463c0.016,0.125,0.106,0.204,0.265,0.204
	c0.125,0,0.186-0.061,0.186-0.155c0-0.064-0.046-0.125-0.14-0.14l-0.187-0.048c-0.173-0.03-0.282-0.155-0.282-0.31
	c0-0.186,0.188-0.358,0.406-0.358c0.311,0,0.404,0.204,0.419,0.298L31.609,6.03c-0.015-0.061-0.062-0.185-0.231-0.185
	c-0.108,0-0.188,0.076-0.188,0.155c0,0.061,0.046,0.125,0.125,0.14l0.188,0.046c0.201,0.048,0.311,0.173,0.311,0.328
	c0,0.155-0.141,0.34-0.404,0.34c-0.312,0-0.438-0.2-0.453-0.325L31.13,6.463z M33.181,6.497c-0.062,0.201-0.246,0.355-0.495,0.355
	c-0.298,0-0.562-0.215-0.562-0.604c0-0.358,0.249-0.592,0.528-0.592c0.343,0,0.547,0.234,0.547,0.592v0.076h-0.841
	c0,0.204,0.155,0.343,0.343,0.343c0.186,0,0.279-0.094,0.311-0.234L33.181,6.497z M32.965,6.138c0-0.155-0.108-0.279-0.312-0.279
	c-0.186,0-0.294,0.14-0.311,0.279H32.965z"/>
<path fill="#94FFDD" stroke="#88E5C3" stroke-width="0.5" stroke-miterlimit="10" d="M24.394,2h14.964v7.779H24.394V2z"/>
<path fill="#404040" d="M27.566,6.822V5.175h0.577c0.419,0,0.793,0.279,0.793,0.823s-0.374,0.823-0.793,0.823L27.566,6.822
	L27.566,6.822z M28.125,6.622c0.313,0,0.562-0.204,0.562-0.623s-0.249-0.623-0.562-0.623h-0.34v1.246H28.125z M30.304,6.497
	c-0.062,0.201-0.249,0.355-0.498,0.355c-0.295,0-0.56-0.215-0.56-0.604c0-0.358,0.249-0.592,0.529-0.592
	c0.343,0,0.543,0.234,0.543,0.592v0.076h-0.854c0,0.204,0.155,0.343,0.341,0.343c0.188,0,0.281-0.094,0.312-0.234L30.304,6.497z
	 M30.088,6.138c0-0.155-0.108-0.279-0.312-0.279c-0.187,0-0.295,0.14-0.311,0.279H30.088z M31.255,6.822h-0.219l-0.453-1.118h0.249
	l0.328,0.869l0.325-0.869h0.234L31.255,6.822z M32.917,6.497c-0.061,0.201-0.246,0.355-0.496,0.355
	c-0.297,0-0.562-0.215-0.562-0.604c0-0.358,0.249-0.592,0.529-0.592c0.343,0,0.547,0.234,0.547,0.592v0.076h-0.843
	c0,0.204,0.155,0.343,0.345,0.343c0.185,0,0.278-0.094,0.31-0.234L32.917,6.497z M32.701,6.138c0-0.155-0.109-0.279-0.312-0.279
	c-0.187,0-0.296,0.14-0.311,0.279H32.701z M33.324,6.822V5.126h0.215v1.695L33.324,6.822L33.324,6.822z M35.095,6.263
	c0,0.343-0.234,0.589-0.574,0.589c-0.343,0-0.577-0.246-0.577-0.589c0-0.343,0.234-0.592,0.577-0.592
	C34.846,5.655,35.095,5.919,35.095,6.263z M34.861,6.263c0-0.264-0.155-0.404-0.34-0.404c-0.188,0-0.343,0.14-0.343,0.404
	c0,0.265,0.154,0.404,0.343,0.404C34.707,6.667,34.861,6.527,34.861,6.263z M35.484,7.259V5.704h0.219v0.17
	c0.062-0.109,0.186-0.204,0.374-0.204c0.34,0,0.514,0.264,0.514,0.592c0,0.325-0.188,0.589-0.528,0.589
	c-0.173,0-0.313-0.076-0.358-0.185v0.592L35.484,7.259L35.484,7.259z M36.028,5.874c-0.201,0-0.325,0.17-0.325,0.389
	c0,0.234,0.14,0.389,0.325,0.389c0.204,0,0.328-0.17,0.328-0.389C36.372,6.029,36.247,5.874,36.028,5.874z"/>
<path fill="#62B3CC" stroke="#57A1B2" stroke-width="0.5" stroke-miterlimit="10" d="M2.706,2h14.967v7.779H2.706V2z"/>
<path fill="#404040" d="M8.105,6.822V5.531L7.531,6.822H7.327L6.768,5.531v1.291H6.534V5.175h0.311l0.593,1.352l0.589-1.352h0.312
	v1.646L8.105,6.822L8.105,6.822z M9.102,6.184l0.294-0.046C9.457,6.123,9.49,6.093,9.49,6.059c0-0.106-0.079-0.2-0.249-0.2
	c-0.155,0-0.234,0.094-0.249,0.234L8.773,6.029c0.03-0.219,0.219-0.358,0.468-0.358c0.34,0,0.465,0.188,0.465,0.404v0.562
	c0,0.094,0.019,0.155,0.019,0.185h-0.22c0-0.03-0.015-0.076-0.015-0.155C9.442,6.746,9.335,6.852,9.132,6.852
	c-0.233,0-0.374-0.155-0.374-0.34C8.759,6.324,8.898,6.199,9.102,6.184z M9.491,6.342V6.293L9.148,6.341
	c-0.094,0.015-0.155,0.061-0.155,0.17c0,0.076,0.062,0.155,0.186,0.155C9.351,6.667,9.491,6.588,9.491,6.342z M10.253,6.463
	c0.016,0.125,0.106,0.204,0.266,0.204c0.125,0,0.185-0.061,0.185-0.155c0-0.064-0.045-0.125-0.14-0.14l-0.187-0.048
	c-0.173-0.03-0.281-0.155-0.281-0.31c0-0.186,0.188-0.358,0.406-0.358c0.311,0,0.404,0.204,0.419,0.298L10.733,6.03
	c-0.016-0.061-0.062-0.185-0.231-0.185c-0.108,0-0.188,0.076-0.188,0.155c0,0.061,0.045,0.125,0.125,0.14l0.185,0.046
	c0.204,0.048,0.313,0.173,0.313,0.328c0,0.155-0.141,0.34-0.404,0.34c-0.312,0-0.438-0.2-0.453-0.325L10.253,6.463z M11.636,5.704
	h0.248v0.201h-0.248v0.592c0,0.109,0.048,0.155,0.154,0.155c0.033,0,0.064,0,0.094-0.015v0.185c-0.015,0-0.075,0.015-0.154,0.015
	c-0.186,0-0.311-0.125-0.311-0.325V5.889h-0.219V5.686h0.062c0.125,0,0.173-0.076,0.173-0.17V5.33h0.201V5.704z M13.24,6.497
	c-0.064,0.201-0.249,0.355-0.498,0.355c-0.295,0-0.562-0.215-0.562-0.604c0-0.358,0.25-0.592,0.547-0.592
	c0.34,0,0.544,0.234,0.544,0.592v0.076H12.43c0,0.204,0.157,0.343,0.343,0.343c0.185,0,0.278-0.094,0.31-0.234L13.24,6.497z
	 M13.021,6.138c0-0.155-0.109-0.279-0.311-0.279c-0.188,0-0.297,0.14-0.312,0.279H13.021z M14.267,5.919h-0.095
	c-0.188,0-0.312,0.094-0.312,0.343v0.559h-0.215V5.704h0.215v0.201c0.079-0.17,0.219-0.219,0.344-0.219h0.079V5.92L14.267,5.919
	L14.267,5.919z"/>
<path fill="none" stroke="#59AFE1" stroke-width="0.5" stroke-miterlimit="10" d="M62.739,48.824"/>
<path fill="none" stroke="#DDDDDD" stroke-width="0.5" stroke-miterlimit="10" d="M122.4,48.824H29.62"/>
<path fill="#94FFDD" stroke="#88E5C3" stroke-width="0.5" stroke-miterlimit="10" d="M77.128,46.363
	c1.361,0,2.455,1.104,2.455,2.461c0,1.355-1.094,2.461-2.455,2.461c-1.354,0-2.454-1.105-2.454-2.461
	C74.674,47.468,75.773,46.363,77.128,46.363z"/>
<path fill="#94FFDD" stroke="#88E5C3" stroke-width="0.5" stroke-miterlimit="10" d="M50.776,46.363
	c1.357,0,2.458,1.104,2.458,2.461c0,1.355-1.101,2.461-2.458,2.461c-1.358,0-2.458-1.105-2.458-2.461
	C48.318,47.468,49.418,46.363,50.776,46.363z"/>
<path fill="#94FFDD" stroke="#88E5C3" stroke-width="0.5" stroke-miterlimit="10" d="M122.4,46.363c1.354,0,2.455,1.104,2.455,2.461
	c0,1.355-1.101,2.461-2.455,2.461c-1.361,0-2.455-1.105-2.455-2.461C119.945,47.468,121.039,46.363,122.4,46.363z"/>
<path fill="none" stroke="#CCCCCC" stroke-width="0.5" stroke-linecap="round" stroke-linejoin="round" d="M14.856,48.824"/>
<path fill="none" stroke="#CCCCCC" stroke-width="0.5" stroke-linecap="round" stroke-linejoin="round" stroke-dasharray="0,14.1243" d="
	M12.648,48.824H4.964"/>
<path fill="none" stroke="#CCCCCC" stroke-width="0.5" stroke-linecap="round" stroke-linejoin="round" d="M122.4,39.254"/>
<path fill="none" stroke="#CCCCCC" stroke-width="0.5" stroke-linecap="round" stroke-linejoin="round" stroke-dasharray="0,14.9632" d="
	M120.066,39.254h-12.803"/>
<path fill="none" stroke="#CCCCCC" stroke-width="0.5" stroke-linecap="round" stroke-linejoin="round" d="M106.097,39.254"/>
<path fill="none" stroke="#DDDDDD" stroke-width="0.5" stroke-miterlimit="10" d="M14.856,44.029c0-2.637-2.146-4.775-4.792-4.775"
	/>
<path fill="none" stroke="#DEEFF8" stroke-width="0.5" stroke-miterlimit="10" d="M62.739,39.254"/>
<path fill="none" stroke="#DDDDDD" stroke-width="0.5" stroke-miterlimit="10" d="M101.988,39.254H7.747"/>
<path fill="#62B3CC" stroke="#57A1B2" stroke-width="0.5" stroke-miterlimit="10" d="M5.289,36.799c1.358,0,2.458,1.105,2.458,2.455
	c0,1.361-1.1,2.461-2.458,2.461c-1.354,0-2.458-1.1-2.458-2.461C2.831,37.904,3.934,36.799,5.289,36.799z"/>
<path fill="#62B3CC" stroke="#57A1B2" stroke-width="0.5" stroke-miterlimit="10" d="M50.776,36.799
	c1.357,0,2.458,1.105,2.458,2.455c0,1.361-1.101,2.461-2.458,2.461c-1.358,0-2.458-1.1-2.458-2.461
	C48.318,37.904,49.418,36.799,50.776,36.799z"/>
<path fill="#62B3CC" stroke="#57A1B2" stroke-width="0.5" stroke-miterlimit="10" d="M101.988,36.799
	c1.354,0,2.461,1.105,2.461,2.455c0,1.361-1.104,2.461-2.461,2.461c-1.354,0-2.461-1.1-2.461-2.461
	C99.527,37.904,100.634,36.799,101.988,36.799z"/>
<path fill="#A3A3A3" d="M4.372,29.457H4.187l-0.39-0.982h0.217l0.282,0.748l0.279-0.748h0.201L4.372,29.457z M5.104,28.336
	c0.076-0.125,0.219-0.219,0.403-0.219c0.187,0,0.311,0.078,0.404,0.219c0.094,0.123,0.125,0.293,0.125,0.482
	c0,0.186-0.03,0.34-0.125,0.479c-0.076,0.123-0.219,0.22-0.404,0.22c-0.185,0-0.31-0.076-0.403-0.22
	c-0.095-0.123-0.125-0.295-0.125-0.479C4.979,28.629,5.025,28.459,5.104,28.336z M5.304,29.238c0.049,0.045,0.109,0.078,0.203,0.078
	c0.095,0,0.155-0.033,0.204-0.078c0.076-0.08,0.106-0.219,0.106-0.42c0-0.203-0.03-0.344-0.106-0.42
	C5.664,28.35,5.603,28.32,5.508,28.32c-0.094,0-0.154,0.029-0.203,0.078c-0.076,0.076-0.106,0.217-0.106,0.42
	C5.198,29.02,5.229,29.143,5.304,29.238z M6.426,29.191c0.079,0,0.141,0.061,0.141,0.141c0,0.076-0.062,0.139-0.141,0.139
	c-0.078,0-0.14-0.062-0.14-0.139C6.286,29.252,6.347,29.191,6.426,29.191z M7.048,29.457v-0.918H6.735v-0.141
	c0.188,0,0.312-0.109,0.344-0.248h0.17v1.307H7.048z"/>
<path fill="none" stroke="#DDDDDD" stroke-width="0.5" stroke-miterlimit="10" d="M5.587,33.984v-2.74 M6.845,32.971l-1.259,1.275
	l-1.275-1.275"/>
<path fill="#A3A3A3" d="M49.315,29.457h-0.188l-0.389-0.982h0.219l0.279,0.748l0.28-0.748h0.204L49.315,29.457z M50.047,28.336
	c0.076-0.125,0.217-0.219,0.404-0.219c0.187,0,0.311,0.078,0.404,0.219c0.094,0.123,0.125,0.293,0.125,0.482
	c0,0.186-0.03,0.34-0.125,0.479c-0.079,0.123-0.219,0.22-0.404,0.22c-0.188,0-0.312-0.076-0.404-0.22
	c-0.094-0.123-0.125-0.295-0.125-0.479C49.923,28.629,49.968,28.459,50.047,28.336z M50.248,29.238
	c0.046,0.045,0.109,0.078,0.204,0.078c0.091,0,0.155-0.033,0.201-0.078c0.079-0.08,0.109-0.219,0.109-0.42
	c0-0.203-0.03-0.344-0.109-0.42c-0.047-0.049-0.111-0.078-0.202-0.078c-0.094,0-0.158,0.029-0.204,0.078
	c-0.076,0.076-0.108,0.217-0.108,0.42C50.138,29.02,50.172,29.143,50.248,29.238z M51.369,29.191c0.076,0,0.14,0.061,0.14,0.141
	c0,0.076-0.063,0.139-0.14,0.139c-0.079,0-0.14-0.062-0.14-0.139C51.229,29.252,51.29,29.191,51.369,29.191z M51.849,28.6v-0.045
	c0-0.219,0.173-0.424,0.452-0.424s0.436,0.189,0.436,0.408c0,0.17-0.091,0.309-0.249,0.404l-0.265,0.17
	c-0.076,0.045-0.141,0.109-0.155,0.186h0.668v0.188h-0.917c0-0.219,0.094-0.372,0.312-0.528l0.216-0.14
	c0.125-0.079,0.188-0.174,0.188-0.278c0-0.125-0.079-0.233-0.249-0.233s-0.249,0.125-0.249,0.264v0.061L51.849,28.6z"/>
<path fill="none" stroke="#DDDDDD" stroke-width="0.5" stroke-miterlimit="10" d="M50.776,33.984v-2.74 M52.038,32.971l-1.261,1.275
	l-1.276-1.275"/>
<path fill="#A3A3A3" d="M100.694,29.457h-0.183l-0.39-0.982h0.219l0.279,0.748l0.279-0.748h0.201L100.694,29.457z M101.581,29.457
	v-0.918h-0.304v-0.141c0.183,0,0.304-0.109,0.341-0.248h0.17v1.307H101.581z M102.286,29.191c0.073,0,0.14,0.061,0.14,0.141
	c0,0.076-0.065,0.139-0.14,0.139c-0.079,0-0.146-0.062-0.146-0.139C102.141,29.252,102.207,29.191,102.286,29.191z M102.857,28.336
	c0.085-0.125,0.219-0.219,0.407-0.219c0.188,0,0.31,0.078,0.406,0.219c0.092,0.123,0.121,0.293,0.121,0.482
	c0,0.186-0.029,0.34-0.121,0.479c-0.079,0.123-0.219,0.22-0.406,0.22c-0.188,0-0.311-0.076-0.407-0.22
	c-0.091-0.123-0.121-0.295-0.121-0.479C102.736,28.629,102.767,28.459,102.857,28.336z M103.046,29.238
	c0.05,0.045,0.109,0.078,0.2,0.078c0.099,0,0.158-0.033,0.207-0.078c0.072-0.08,0.109-0.219,0.109-0.42
	c0-0.203-0.037-0.344-0.109-0.42c-0.049-0.049-0.108-0.078-0.207-0.078c-0.091,0-0.15,0.029-0.2,0.078
	c-0.079,0.076-0.104,0.217-0.104,0.42C102.942,29.02,102.967,29.143,103.046,29.238z"/>
<path fill="none" stroke="#DDDDDD" stroke-width="0.5" stroke-miterlimit="10" d="M101.988,33.984v-2.74 M103.246,32.971
	l-1.258,1.275l-1.276-1.275"/>
<path fill="none" stroke="#DDDDDD" stroke-width="0.5" stroke-miterlimit="10" d="M14.856,44.029c0,2.65,2.147,4.795,4.792,4.795
	h14.888"/>
<circle fill="#94FFDD" stroke="#88E5C3" stroke-width="0.5" stroke-miterlimit="10" cx="32.063" cy="48.824" r="2.443"/>
<path fill="#94FFDD" stroke="#88E5C3" stroke-width="0.5" stroke-miterlimit="10" d="M24.783,46.363
	c1.355,0,2.458,1.104,2.458,2.461c0,1.355-1.103,2.461-2.458,2.461c-1.358,0-2.458-1.105-2.458-2.461
	C22.325,47.468,23.425,46.363,24.783,46.363z"/>
</svg>
