<?xml version="1.0" encoding="utf-8"?>
<!-- Generator: Adobe Illustrator 16.0.0, SVG Export Plug-In . SVG Version: 6.00 Build 0)  -->
<!DOCTYPE svg PUBLIC "-//W3C//DTD SVG 1.1//EN" "http://www.w3.org/Graphics/SVG/1.1/DTD/svg11.dtd">
<svg version="1.1" id="Layer_1" xmlns="http://www.w3.org/2000/svg" xmlns:xlink="http://www.w3.org/1999/xlink" x="0px" y="0px"
	 width="127.561px" height="53.875px" viewBox="0 0 127.561 53.875" enable-background="new 0 0 127.561 53.875"
	 xml:space="preserve">
<path fill="none" stroke="#59AFE1" stroke-width="0.5" stroke-miterlimit="10" d="M62.739,48.824"/>
<path fill="none" stroke="#DDDDDD" stroke-width="0.5" stroke-miterlimit="10" d="M122.4,48.824H29.62"/>
<path fill="#4BD6BA" stroke="#43BA9E" stroke-width="0.5" stroke-miterlimit="10" d="M77.128,46.363c1.36,0,2.455,1.104,2.455,2.461
	c0,1.355-1.095,2.461-2.455,2.461c-1.354,0-2.454-1.105-2.454-2.461C74.674,47.468,75.773,46.363,77.128,46.363z"/>
<path fill="#4BD6BA" stroke="#43BA9E" stroke-width="0.5" stroke-miterlimit="10" d="M50.776,46.363
	c1.357,0,2.458,1.104,2.458,2.461c0,1.355-1.101,2.461-2.458,2.461s-2.458-1.105-2.458-2.461
	C48.318,47.468,49.418,46.363,50.776,46.363z"/>
<path fill="#4BD6BA" stroke="#43BA9E" stroke-width="0.5" stroke-miterlimit="10" d="M122.4,46.363c1.354,0,2.455,1.104,2.455,2.461
	c0,1.355-1.101,2.461-2.455,2.461c-1.36,0-2.455-1.105-2.455-2.461C119.945,47.468,121.039,46.363,122.4,46.363z"/>
<path fill="none" stroke="#CCCCCC" stroke-width="0.5" stroke-linecap="round" stroke-linejoin="round" d="M14.856,48.824"/>
<path fill="none" stroke="#CCCCCC" stroke-width="0.5" stroke-linecap="round" stroke-linejoin="round" stroke-dasharray="0,14.1243" d="
	M12.648,48.824H4.964"/>
<path fill="none" stroke="#CCCCCC" stroke-width="0.5" stroke-linecap="round" stroke-linejoin="round" d="M122.4,39.254"/>
<path fill="none" stroke="#CCCCCC" stroke-width="0.5" stroke-linecap="round" stroke-linejoin="round" stroke-dasharray="0,14.9632" d="
	M120.066,39.254h-12.803"/>
<path fill="none" stroke="#CCCCCC" stroke-width="0.5" stroke-linecap="round" stroke-linejoin="round" d="M106.097,39.254"/>
<path fill="none" stroke="#DDDDDD" stroke-width="0.5" stroke-miterlimit="10" d="M14.856,44.029c0-2.637-2.146-4.775-4.792-4.775"
	/>
<path fill="none" stroke="#DEEFF8" stroke-width="0.5" stroke-miterlimit="10" d="M62.739,39.254"/>
<path fill="none" stroke="#DDDDDD" stroke-width="0.5" stroke-miterlimit="10" d="M101.988,39.254H7.747"/>
<path fill="#62B3CC" stroke="#57A1B2" stroke-width="0.5" stroke-miterlimit="10" d="M5.289,36.799c1.357,0,2.458,1.105,2.458,2.455
	c0,1.361-1.101,2.461-2.458,2.461c-1.354,0-2.458-1.1-2.458-2.461C2.831,37.904,3.934,36.799,5.289,36.799z"/>
<path fill="#62B3CC" stroke="#57A1B2" stroke-width="0.5" stroke-miterlimit="10" d="M50.776,36.799
	c1.357,0,2.458,1.105,2.458,2.455c0,1.361-1.101,2.461-2.458,2.461s-2.458-1.1-2.458-2.461
	C48.318,37.904,49.418,36.799,50.776,36.799z"/>
<path fill="#62B3CC" stroke="#57A1B2" stroke-width="0.5" stroke-miterlimit="10" d="M101.988,36.799
	c1.354,0,2.462,1.105,2.462,2.455c0,1.361-1.104,2.461-2.462,2.461c-1.354,0-2.461-1.1-2.461-2.461
	C99.527,37.904,100.634,36.799,101.988,36.799z"/>
<path fill="#A3A3A3" d="M4.372,29.457H4.187l-0.39-0.982h0.217l0.282,0.748l0.279-0.748h0.2L4.372,29.457z M5.104,28.336
	c0.076-0.125,0.22-0.219,0.403-0.219c0.187,0,0.311,0.078,0.404,0.219c0.094,0.123,0.125,0.293,0.125,0.482
	c0,0.186-0.03,0.34-0.125,0.479c-0.076,0.123-0.22,0.221-0.404,0.221c-0.186,0-0.311-0.076-0.403-0.221
	c-0.095-0.123-0.125-0.295-0.125-0.479C4.979,28.629,5.025,28.459,5.104,28.336z M5.304,29.238c0.049,0.045,0.109,0.078,0.203,0.078
	c0.095,0,0.155-0.033,0.204-0.078c0.076-0.08,0.105-0.219,0.105-0.42c0-0.203-0.029-0.344-0.105-0.42
	C5.664,28.35,5.603,28.32,5.508,28.32c-0.094,0-0.154,0.029-0.203,0.078c-0.076,0.076-0.105,0.217-0.105,0.42
	C5.198,29.02,5.229,29.143,5.304,29.238z M6.426,29.191c0.079,0,0.141,0.061,0.141,0.141c0,0.076-0.062,0.139-0.141,0.139
	c-0.078,0-0.14-0.062-0.14-0.139C6.286,29.252,6.347,29.191,6.426,29.191z M7.048,29.457v-0.918H6.735v-0.141
	c0.188,0,0.312-0.109,0.345-0.248h0.17v1.307H7.048z"/>
<path fill="none" stroke="#DDDDDD" stroke-width="0.5" stroke-miterlimit="10" d="M5.587,33.984v-2.74 M6.845,32.971l-1.259,1.275
	l-1.275-1.275"/>
<path fill="#A3A3A3" d="M49.315,29.457h-0.188l-0.39-0.982h0.22l0.278,0.748l0.28-0.748h0.204L49.315,29.457z M50.047,28.336
	c0.076-0.125,0.217-0.219,0.404-0.219c0.187,0,0.311,0.078,0.403,0.219c0.095,0.123,0.125,0.293,0.125,0.482
	c0,0.186-0.029,0.34-0.125,0.479c-0.079,0.123-0.219,0.221-0.403,0.221c-0.188,0-0.312-0.076-0.404-0.221
	c-0.094-0.123-0.125-0.295-0.125-0.479C49.923,28.629,49.968,28.459,50.047,28.336z M50.248,29.238
	c0.046,0.045,0.108,0.078,0.204,0.078c0.091,0,0.154-0.033,0.2-0.078c0.079-0.08,0.109-0.219,0.109-0.42
	c0-0.203-0.03-0.344-0.109-0.42c-0.047-0.049-0.11-0.078-0.201-0.078c-0.095,0-0.158,0.029-0.204,0.078
	c-0.076,0.076-0.108,0.217-0.108,0.42C50.138,29.02,50.172,29.143,50.248,29.238z M51.369,29.191c0.075,0,0.14,0.061,0.14,0.141
	c0,0.076-0.063,0.139-0.14,0.139c-0.079,0-0.141-0.062-0.141-0.139C51.229,29.252,51.29,29.191,51.369,29.191z M51.849,28.6v-0.045
	c0-0.219,0.173-0.424,0.452-0.424s0.436,0.189,0.436,0.408c0,0.17-0.091,0.309-0.249,0.404l-0.265,0.17
	c-0.076,0.045-0.141,0.109-0.155,0.186h0.668v0.188h-0.917c0-0.219,0.095-0.371,0.312-0.527l0.216-0.141
	c0.125-0.078,0.188-0.174,0.188-0.277c0-0.125-0.079-0.232-0.249-0.232s-0.249,0.125-0.249,0.264v0.061L51.849,28.6z"/>
<path fill="none" stroke="#DDDDDD" stroke-width="0.5" stroke-miterlimit="10" d="M50.776,33.984v-2.74 M52.038,32.971l-1.262,1.275
	l-1.275-1.275"/>
<path fill="#A3A3A3" d="M100.694,29.457h-0.183l-0.39-0.982h0.219l0.279,0.748l0.278-0.748h0.201L100.694,29.457z M101.581,29.457
	v-0.918h-0.305v-0.141c0.184,0,0.305-0.109,0.342-0.248h0.17v1.307H101.581z M102.286,29.191c0.072,0,0.14,0.061,0.14,0.141
	c0,0.076-0.065,0.139-0.14,0.139c-0.079,0-0.146-0.062-0.146-0.139C102.141,29.252,102.207,29.191,102.286,29.191z M102.857,28.336
	c0.085-0.125,0.22-0.219,0.407-0.219c0.188,0,0.311,0.078,0.406,0.219c0.092,0.123,0.121,0.293,0.121,0.482
	c0,0.186-0.029,0.34-0.121,0.479c-0.079,0.123-0.219,0.221-0.406,0.221s-0.311-0.076-0.407-0.221
	c-0.091-0.123-0.121-0.295-0.121-0.479C102.736,28.629,102.767,28.459,102.857,28.336z M103.046,29.238
	c0.05,0.045,0.108,0.078,0.2,0.078c0.099,0,0.157-0.033,0.207-0.078c0.071-0.08,0.108-0.219,0.108-0.42
	c0-0.203-0.037-0.344-0.108-0.42c-0.05-0.049-0.108-0.078-0.207-0.078c-0.092,0-0.15,0.029-0.2,0.078
	c-0.079,0.076-0.104,0.217-0.104,0.42C102.942,29.02,102.967,29.143,103.046,29.238z"/>
<path fill="none" stroke="#DDDDDD" stroke-width="0.5" stroke-miterlimit="10" d="M101.988,33.984v-2.74 M103.246,32.971
	l-1.259,1.275l-1.275-1.275"/>
<path fill="none" stroke="#DDDDDD" stroke-width="0.5" stroke-miterlimit="10" d="M14.856,44.029c0,2.65,2.147,4.795,4.792,4.795
	h14.889"/>
<circle fill="#4BD6BA" stroke="#43BA9E" stroke-width="0.5" stroke-miterlimit="10" cx="32.063" cy="48.824" r="2.443"/>
<path fill="#4BD6BA" stroke="#43BA9E" stroke-width="0.5" stroke-miterlimit="10" d="M24.783,46.363
	c1.354,0,2.458,1.104,2.458,2.461c0,1.355-1.104,2.461-2.458,2.461c-1.358,0-2.458-1.105-2.458-2.461
	C22.325,47.468,23.425,46.363,24.783,46.363z"/>
<g>
	<rect x="1.801" y="2" fill="#62B3CC" stroke="#57A1B2" stroke-width="0.5" stroke-miterlimit="10" width="20" height="7"/>
	<g>
		<path fill="#40767C" d="M8.92,6.646V5.215L8.427,6.258h-0.24L7.681,5.215v1.431H7.357v-2.14h0.324l0.625,1.332L8.92,4.505h0.325
			v2.14H8.92z"/>
		<path fill="#40767C" d="M10.58,6.646V6.507c-0.111,0.111-0.216,0.156-0.406,0.156S9.859,6.619,9.765,6.525
			c-0.078-0.081-0.12-0.199-0.12-0.328c0-0.256,0.177-0.439,0.526-0.439h0.403V5.65c0-0.192-0.096-0.286-0.333-0.286
			c-0.168,0-0.25,0.039-0.334,0.147L9.705,5.323C9.849,5.154,10,5.104,10.252,5.104c0.418,0,0.628,0.177,0.628,0.523v1.019H10.58z
			 M10.574,5.972h-0.358c-0.18,0-0.273,0.081-0.273,0.219c0,0.139,0.087,0.217,0.28,0.217c0.117,0,0.204-0.009,0.286-0.087
			c0.045-0.045,0.066-0.117,0.066-0.226V5.972z"/>
		<path fill="#40767C" d="M11.842,6.664c-0.25,0-0.46-0.042-0.64-0.219l0.201-0.202c0.124,0.126,0.289,0.159,0.439,0.159
			c0.187,0,0.334-0.066,0.334-0.21c0-0.102-0.057-0.168-0.205-0.18L11.728,5.99c-0.286-0.024-0.451-0.153-0.451-0.421
			c0-0.297,0.255-0.466,0.574-0.466c0.229,0,0.424,0.048,0.565,0.171L12.224,5.47c-0.096-0.081-0.231-0.111-0.375-0.111
			c-0.184,0-0.277,0.081-0.277,0.195c0,0.09,0.048,0.16,0.21,0.174l0.241,0.021c0.286,0.024,0.454,0.16,0.454,0.43
			C12.476,6.498,12.206,6.664,11.842,6.664z"/>
		<path fill="#40767C" d="M13.27,6.646c-0.286,0-0.417-0.205-0.417-0.424V5.383h-0.175V5.148h0.175V4.686h0.306v0.463h0.295v0.234
			h-0.295v0.824c0,0.111,0.054,0.177,0.168,0.177h0.126v0.262H13.27z"/>
		<path fill="#40767C" d="M14.059,5.972c0,0.262,0.139,0.427,0.388,0.427c0.171,0,0.261-0.048,0.37-0.156l0.195,0.184
			c-0.156,0.156-0.304,0.237-0.571,0.237c-0.382,0-0.685-0.202-0.685-0.782c0-0.493,0.255-0.778,0.646-0.778
			c0.409,0,0.646,0.3,0.646,0.733v0.135H14.059z M14.702,5.551c-0.048-0.114-0.156-0.192-0.301-0.192
			c-0.144,0-0.255,0.078-0.304,0.192c-0.03,0.069-0.036,0.114-0.039,0.208h0.686C14.741,5.666,14.732,5.621,14.702,5.551z"/>
		<path fill="#40767C" d="M16.289,5.479C16.22,5.41,16.166,5.377,16.06,5.377c-0.165,0-0.303,0.132-0.303,0.343v0.926H15.45V5.122
			h0.3v0.165c0.078-0.108,0.234-0.183,0.406-0.183c0.147,0,0.259,0.039,0.364,0.144L16.289,5.479z"/>
	</g>
</g>
<g>
	<rect x="25.032" y="2" fill="#4BD6BA" stroke="#43BA9E" stroke-width="0.5" stroke-miterlimit="10" width="20" height="7"/>
	<g>
		<path fill="#3B9E84" d="M31.252,6.444c-0.135,0.135-0.331,0.201-0.553,0.201h-0.751v-2.14h0.751c0.222,0,0.417,0.066,0.553,0.201
			c0.231,0.231,0.217,0.544,0.217,0.854S31.484,6.213,31.252,6.444z M31.03,4.941c-0.09-0.099-0.21-0.144-0.364-0.144h-0.394v1.557
			h0.394c0.153,0,0.273-0.045,0.364-0.145c0.111-0.123,0.114-0.354,0.114-0.649C31.144,5.266,31.141,5.064,31.03,4.941z"/>
		<path fill="#3B9E84" d="M32.135,5.972c0,0.262,0.139,0.427,0.388,0.427c0.171,0,0.261-0.048,0.37-0.156l0.195,0.184
			c-0.156,0.156-0.304,0.237-0.571,0.237c-0.382,0-0.685-0.202-0.685-0.782c0-0.493,0.255-0.778,0.646-0.778
			c0.409,0,0.646,0.3,0.646,0.733v0.135H32.135z M32.779,5.551c-0.048-0.114-0.156-0.192-0.301-0.192
			c-0.144,0-0.255,0.078-0.304,0.192c-0.03,0.069-0.036,0.114-0.039,0.208h0.686C32.818,5.666,32.808,5.621,32.779,5.551z"/>
		<path fill="#3B9E84" d="M34.086,6.646h-0.25l-0.559-1.524h0.325l0.361,1.073l0.357-1.073h0.325L34.086,6.646z"/>
		<path fill="#3B9E84" d="M35.105,5.972c0,0.262,0.139,0.427,0.388,0.427c0.171,0,0.261-0.048,0.37-0.156l0.195,0.184
			c-0.156,0.156-0.304,0.237-0.571,0.237c-0.382,0-0.685-0.202-0.685-0.782c0-0.493,0.255-0.778,0.646-0.778
			c0.409,0,0.646,0.3,0.646,0.733v0.135H35.105z M35.748,5.551c-0.048-0.114-0.156-0.192-0.301-0.192
			c-0.144,0-0.255,0.078-0.304,0.192c-0.03,0.069-0.036,0.114-0.039,0.208h0.686C35.787,5.666,35.778,5.621,35.748,5.551z"/>
		<path fill="#3B9E84" d="M36.906,6.646c-0.292,0-0.418-0.195-0.418-0.421V4.505h0.307v1.701c0,0.117,0.042,0.177,0.166,0.177h0.135
			v0.262H36.906z"/>
		<path fill="#3B9E84" d="M38.389,6.483c-0.1,0.102-0.25,0.18-0.457,0.18s-0.355-0.078-0.454-0.18
			c-0.144-0.15-0.18-0.343-0.18-0.602c0-0.255,0.036-0.448,0.18-0.598c0.099-0.102,0.247-0.18,0.454-0.18s0.357,0.078,0.457,0.18
			c0.144,0.15,0.18,0.343,0.18,0.598C38.569,6.141,38.533,6.333,38.389,6.483z M38.157,5.464c-0.057-0.057-0.135-0.087-0.226-0.087
			s-0.166,0.03-0.223,0.087c-0.093,0.093-0.105,0.252-0.105,0.417c0,0.166,0.012,0.325,0.105,0.418
			c0.057,0.057,0.132,0.09,0.223,0.09S38.1,6.357,38.157,6.3c0.093-0.093,0.105-0.252,0.105-0.418
			C38.262,5.717,38.25,5.557,38.157,5.464z"/>
		<path fill="#3B9E84" d="M40.057,6.528c-0.084,0.084-0.217,0.135-0.37,0.135c-0.162,0-0.289-0.042-0.399-0.174v0.772h-0.307v-2.14
			h0.3v0.162c0.114-0.138,0.238-0.18,0.403-0.18c0.153,0,0.289,0.051,0.373,0.135c0.153,0.153,0.171,0.412,0.171,0.643
			S40.21,6.375,40.057,6.528z M39.606,5.377c-0.276,0-0.318,0.234-0.318,0.505s0.042,0.508,0.318,0.508
			c0.277,0,0.316-0.238,0.316-0.508S39.883,5.377,39.606,5.377z"/>
	</g>
</g>
</svg>
