<?xml version="1.0" encoding="utf-8"?>
<!-- Generator: Adobe Illustrator 16.0.0, SVG Export Plug-In . SVG Version: 6.00 Build 0)  -->
<!DOCTYPE svg PUBLIC "-//W3C//DTD SVG 1.1//EN" "http://www.w3.org/Graphics/SVG/1.1/DTD/svg11.dtd">
<svg version="1.1" id="Layer_1" xmlns="http://www.w3.org/2000/svg" xmlns:xlink="http://www.w3.org/1999/xlink" x="0px" y="0px"
	 width="127px" height="124.5px" viewBox="0 0 127 124.5" enable-background="new 0 0 127 124.5" xml:space="preserve">
<path fill="none" stroke="#DDDDDD" stroke-width="0.5" stroke-miterlimit="10" d="M67.02,66.036c0-2.65,2.158-4.804,4.81-4.804"/>
<path fill="none" stroke="#59AFE1" stroke-width="0.5" stroke-miterlimit="10" d="M62.091,61.232"/>
<path fill="none" stroke="#DDDDDD" stroke-width="0.5" stroke-miterlimit="10" d="M40.45,66.036c0-2.65-2.155-4.804-4.806-4.804
	 M26.467,80.422h33.378"/>
<path fill="#FFD6D3" stroke="#E5C2C1" stroke-width="0.5" stroke-miterlimit="10" d="M50.077,77.96c1.362,0,2.465,1.103,2.465,2.462
	c0,1.365-1.103,2.469-2.465,2.469s-2.466-1.104-2.466-2.469C47.612,79.062,48.715,77.96,50.077,77.96z"/>
<path fill="#FFD6D3" stroke="#E5C2C1" stroke-width="0.5" stroke-miterlimit="10" d="M57.395,77.96c1.362,0,2.466,1.103,2.466,2.462
	c0,1.365-1.104,2.469-2.466,2.469c-1.362,0-2.465-1.104-2.465-2.469C54.929,79.062,56.033,77.96,57.395,77.96z"/>
<path fill="#FFD6D3" stroke="#E5C2C1" stroke-width="0.5" stroke-miterlimit="10" d="M38.64,77.96c1.362,0,2.465,1.103,2.465,2.462
	c0,1.365-1.103,2.469-2.465,2.469c-1.363,0-2.466-1.104-2.466-2.469C36.174,79.062,37.277,77.96,38.64,77.96z"/>
<path fill="none" stroke="#DDDDDD" stroke-width="0.5" stroke-miterlimit="10" d="M121.914,61.232H28.872"/>
<path fill="#4BD6BA" stroke="#43BA9E" stroke-width="0.5" stroke-miterlimit="10" d="M76.51,58.771c1.358,0,2.469,1.097,2.469,2.461
	c0,1.359-1.109,2.463-2.469,2.463c-1.358,0-2.469-1.104-2.469-2.463C74.041,59.868,75.151,58.771,76.51,58.771z"/>
<path fill="#4BD6BA" stroke="#43BA9E" stroke-width="0.5" stroke-miterlimit="10" d="M50.077,58.771
	c1.362,0,2.465,1.097,2.465,2.461c0,1.359-1.103,2.463-2.465,2.463s-2.466-1.104-2.466-2.463
	C47.612,59.868,48.715,58.771,50.077,58.771z"/>
<path fill="#4BD6BA" stroke="#43BA9E" stroke-width="0.5" stroke-miterlimit="10" d="M121.914,58.771
	c1.365,0,2.469,1.097,2.469,2.461c0,1.359-1.104,2.463-2.469,2.463c-1.354,0-2.463-1.104-2.463-2.463
	C119.451,59.868,120.561,58.771,121.914,58.771z"/>
<path fill="none" stroke="#DDDDDD" stroke-width="0.5" stroke-miterlimit="10" d="M40.45,66.036c0,2.657,2.151,4.805,4.806,4.805
	h16.835 M14.048,37.188c0,2.651,2.152,4.807,4.806,4.807h2.701"/>
<path fill="#FFD6D3" stroke="#E5C2C1" stroke-width="0.5" stroke-miterlimit="10" d="M50.077,68.365
	c1.362,0,2.465,1.103,2.465,2.463c0,1.363-1.103,2.463-2.465,2.463s-2.466-1.1-2.466-2.463
	C47.612,69.468,48.715,68.365,50.077,68.365z"/>
<path fill="#FFD6D3" stroke="#E5C2C1" stroke-width="0.5" stroke-miterlimit="10" d="M57.395,68.365
	c1.362,0,2.466,1.103,2.466,2.463c0,1.363-1.104,2.463-2.466,2.463c-1.362,0-2.465-1.1-2.465-2.463
	C54.929,69.468,56.033,68.365,57.395,68.365z"/>
<path fill="none" stroke="#DDDDDD" stroke-width="0.5" stroke-miterlimit="10" d="M62.091,70.828h0.141
	c2.654,0,4.807-2.152,4.807-4.805"/>
<path fill="none" stroke="#CCCCCC" stroke-width="0.5" stroke-linecap="round" stroke-linejoin="round" d="M11.957,42.04"/>
<path fill="none" stroke="#CCCCCC" stroke-width="0.5" stroke-linecap="round" stroke-linejoin="round" stroke-dasharray="0,14.3051" d="
	M9.726,42.04H4.155"/>
<path fill="none" stroke="#CCCCCC" stroke-width="0.5" stroke-linecap="round" stroke-linejoin="round" d="M121.939,42.04"/>
<path fill="none" stroke="#CCCCCC" stroke-width="0.5" stroke-linecap="round" stroke-linejoin="round" stroke-dasharray="0,14.1689" d="
	M119.721,42.04H39.014"/>
<path fill="none" stroke="#CCCCCC" stroke-width="0.5" stroke-linecap="round" stroke-linejoin="round" d="M85.922,51.64"/>
<path fill="none" stroke="#CCCCCC" stroke-width="0.5" stroke-linecap="round" stroke-linejoin="round" stroke-dasharray="0,13.9788" d="
	M83.733,51.64H4.125"/>
<path fill="none" stroke="#CCCCCC" stroke-width="0.5" stroke-linecap="round" stroke-linejoin="round" d="M121.939,51.64"/>
<path fill="none" stroke="#CCCCCC" stroke-width="0.5" stroke-linecap="round" stroke-linejoin="round" stroke-dasharray="0,14.7877" d="
	M119.621,51.64h-8.082"/>
<path fill="none" stroke="#CCCCCC" stroke-width="0.5" stroke-linecap="round" stroke-linejoin="round" d="M121.914,32.442"/>
<path fill="none" stroke="#CCCCCC" stroke-width="0.5" stroke-linecap="round" stroke-linejoin="round" stroke-dasharray="0,14.9632" d="
	M119.598,32.442h-12.849"/>
<path fill="none" stroke="#CCCCCC" stroke-width="0.5" stroke-linecap="round" stroke-linejoin="round" d="M105.578,32.442"/>
<path fill="none" stroke="#DDDDDD" stroke-width="0.5" stroke-miterlimit="10" d="M14.048,37.248c0-2.65-2.155-4.806-4.806-4.806
	 M33.833,37.188c0,2.651-2.154,4.807-4.806,4.807h-7.491 M33.833,37.248c0-2.65,2.155-4.806,4.807-4.806 M43.43,61.232
	c-2.654,0-4.806-2.156-4.806-4.803v-9.648 M38.624,46.781c0-2.651-2.155-4.806-4.806-4.806"/>
<path fill="none" stroke="#DEEFF8" stroke-width="0.5" stroke-miterlimit="10" d="M62.091,32.442"/>
<path fill="#FFD6D3" stroke="#E5C2C1" stroke-width="0.5" stroke-miterlimit="10" d="M24.002,77.96c1.362,0,2.465,1.103,2.465,2.462
	c0,1.365-1.103,2.469-2.465,2.469c-1.359,0-2.466-1.104-2.466-2.469C21.536,79.062,22.642,77.96,24.002,77.96z"/>
<path fill="none" stroke="#DDDDDD" stroke-width="0.5" stroke-miterlimit="10" d="M101.446,32.442H6.917"/>
<circle fill="#62B3CC" stroke="#57A1B2" stroke-width="0.5" stroke-miterlimit="10" cx="4.466" cy="32.442" r="2.466"/>
<circle fill="#62B3CC" stroke="#57A1B2" stroke-width="0.5" stroke-miterlimit="10" cx="50.077" cy="32.442" r="2.466"/>
<path fill="#62B3CC" stroke="#57A1B2" stroke-width="0.5" stroke-miterlimit="10" d="M101.446,29.977
	c1.366,0,2.463,1.104,2.463,2.466c0,1.362-1.097,2.466-2.463,2.466c-1.365,0-2.462-1.104-2.462-2.466
	C98.984,31.081,100.08,29.977,101.446,29.977z"/>
<path fill="#404040" d="M3.338,21.615H3.152l-0.39-0.981h0.216l0.284,0.749l0.281-0.749h0.201L3.338,21.615z M4.073,20.479
	c0.076-0.125,0.216-0.22,0.406-0.22c0.185,0,0.311,0.079,0.405,0.22c0.095,0.125,0.125,0.295,0.125,0.48
	c0,0.189-0.03,0.346-0.125,0.484c-0.08,0.125-0.22,0.221-0.405,0.221c-0.189,0-0.314-0.08-0.406-0.221
	c-0.095-0.124-0.125-0.295-0.125-0.484C3.947,20.773,3.978,20.604,4.073,20.479z M4.259,21.383c0.049,0.046,0.109,0.076,0.204,0.076
	c0.091,0,0.155-0.03,0.201-0.076c0.08-0.078,0.11-0.219,0.11-0.424c0-0.201-0.031-0.341-0.11-0.42
	c-0.045-0.045-0.109-0.076-0.201-0.076c-0.095,0-0.155,0.031-0.204,0.076c-0.077,0.079-0.11,0.219-0.11,0.42
	C4.149,21.164,4.182,21.289,4.259,21.383z M5.398,21.334c0.079,0,0.14,0.064,0.14,0.141c0,0.079-0.061,0.141-0.14,0.141
	c-0.079,0-0.14-0.062-0.14-0.141C5.258,21.398,5.319,21.334,5.398,21.334z M6.008,21.615v-0.921H5.694v-0.14
	c0.189,0,0.314-0.109,0.345-0.25H6.21v1.311H6.008z"/>
<path fill="none" stroke="#DDDDDD" stroke-width="0.5" stroke-miterlimit="10" d="M4.539,27.151v-2.745 M5.819,26.141l-1.28,1.276
	l-1.262-1.276"/>
<path fill="#404040" d="M48.627,21.615h-0.189l-0.39-0.981h0.219l0.281,0.749l0.28-0.749h0.204L48.627,21.615z M49.358,20.479
	c0.079-0.125,0.219-0.22,0.408-0.22c0.186,0,0.311,0.079,0.406,0.22c0.091,0.125,0.125,0.295,0.125,0.48
	c0,0.189-0.033,0.346-0.125,0.484c-0.08,0.125-0.22,0.221-0.406,0.221c-0.189,0-0.313-0.08-0.408-0.221
	c-0.091-0.124-0.125-0.295-0.125-0.484C49.233,20.773,49.267,20.604,49.358,20.479z M49.547,21.383
	c0.046,0.046,0.11,0.076,0.201,0.076c0.095,0,0.158-0.03,0.204-0.076c0.08-0.078,0.109-0.219,0.109-0.424
	c0-0.201-0.03-0.341-0.109-0.42c-0.046-0.045-0.109-0.076-0.204-0.076c-0.091,0-0.155,0.031-0.201,0.076
	c-0.079,0.079-0.11,0.219-0.11,0.42C49.437,21.164,49.468,21.289,49.547,21.383z M50.687,21.334c0.076,0,0.14,0.064,0.14,0.141
	c0,0.079-0.064,0.141-0.14,0.141c-0.079,0-0.14-0.062-0.14-0.141C50.547,21.398,50.608,21.334,50.687,21.334z M51.153,20.743v-0.049
	c0-0.216,0.174-0.421,0.455-0.421c0.28,0,0.436,0.189,0.436,0.406c0,0.174-0.094,0.313-0.25,0.404l-0.265,0.174
	c-0.076,0.047-0.14,0.11-0.155,0.186h0.67v0.189h-0.92c0-0.219,0.094-0.375,0.311-0.53l0.22-0.144
	c0.125-0.076,0.189-0.17,0.189-0.279c0-0.125-0.079-0.234-0.25-0.234c-0.173,0-0.25,0.124-0.25,0.268v0.061L51.153,20.743z"/>
<path fill="none" stroke="#DDDDDD" stroke-width="0.5" stroke-miterlimit="10" d="M50.077,27.151v-2.745 M51.357,26.141l-1.28,1.276
	l-1.265-1.276"/>
<path fill="#404040" d="M100.166,21.615h-0.184l-0.391-0.981h0.215l0.285,0.749l0.28-0.749h0.194L100.166,21.615z M101.043,21.615
	v-0.921h-0.316v-0.14c0.188,0,0.316-0.109,0.342-0.25h0.171v1.311H101.043z M101.758,21.334c0.078,0,0.141,0.064,0.141,0.141
	c0,0.079-0.062,0.141-0.141,0.141c-0.08,0-0.142-0.062-0.142-0.141C101.616,21.398,101.678,21.334,101.758,21.334z M102.324,20.479
	c0.072-0.125,0.214-0.22,0.402-0.22c0.184,0,0.311,0.079,0.402,0.22c0.098,0.125,0.127,0.295,0.127,0.48
	c0,0.189-0.029,0.346-0.127,0.484c-0.072,0.125-0.22,0.221-0.402,0.221c-0.188,0-0.317-0.08-0.402-0.221
	c-0.098-0.124-0.128-0.295-0.128-0.484C102.196,20.773,102.239,20.604,102.324,20.479z M102.52,21.383
	c0.049,0.046,0.109,0.076,0.207,0.076s0.158-0.03,0.201-0.076c0.08-0.078,0.108-0.219,0.108-0.424c0-0.201-0.028-0.341-0.108-0.42
	c-0.043-0.045-0.104-0.076-0.201-0.076c-0.098,0-0.158,0.031-0.207,0.076c-0.073,0.079-0.11,0.219-0.11,0.42
	C102.408,21.164,102.446,21.289,102.52,21.383z"/>
<path fill="none" stroke="#DDDDDD" stroke-width="0.5" stroke-miterlimit="10" d="M101.446,27.151v-2.745 M102.727,26.141
	l-1.28,1.276l-1.269-1.276"/>
<path fill="none" stroke="#CCCCCC" stroke-width="0.5" stroke-linecap="round" stroke-linejoin="round" d="M12.814,61.232"/>
<path fill="none" stroke="#CCCCCC" stroke-width="0.5" stroke-linecap="round" stroke-linejoin="round" stroke-dasharray="0,12.543" d="
	M10.863,61.232H4.015"/>
<path fill="none" stroke="#CCCCCC" stroke-width="0.5" stroke-linecap="round" stroke-linejoin="round" d="M41.465,70.828"/>
<path fill="none" stroke="#CCCCCC" stroke-width="0.5" stroke-linecap="round" stroke-linejoin="round" stroke-dasharray="0,13.6844" d="
	M39.325,70.828H4.106"/>
<path fill="none" stroke="#CCCCCC" stroke-width="0.5" stroke-linecap="round" stroke-linejoin="round" d="M121.939,70.828"/>
<path fill="none" stroke="#CCCCCC" stroke-width="0.5" stroke-linecap="round" stroke-linejoin="round" stroke-dasharray="0,13.7717" d="
	M119.781,70.828H67.129"/>
<path fill="none" stroke="#CCCCCC" stroke-width="0.5" stroke-linecap="round" stroke-linejoin="round" d="M20.07,80.422"/>
<path fill="none" stroke="#CCCCCC" stroke-width="0.5" stroke-linecap="round" stroke-linejoin="round" stroke-dasharray="0,13.6492" d="
	M17.949,80.422H4.091"/>
<path fill="none" stroke="#CCCCCC" stroke-width="0.5" stroke-linecap="round" stroke-linejoin="round" d="M121.939,80.422"/>
<path fill="none" stroke="#CCCCCC" stroke-width="0.5" stroke-linecap="round" stroke-linejoin="round" stroke-dasharray="0,13.907" d="
	M119.748,80.422H62.249"/>
<path fill="none" stroke="#CCCCCC" stroke-width="0.5" stroke-linecap="round" stroke-linejoin="round" d="M61.171,80.422"/>
<path fill="none" stroke="#DDDDDD" stroke-width="0.5" stroke-miterlimit="10" d="M14.048,37.188v19.255
	c0,2.652,2.152,4.804,4.806,4.804h14.934"/>
<circle fill="#4BD6BA" stroke="#43BA9E" stroke-width="0.5" stroke-miterlimit="10" cx="31.322" cy="61.233" r="2.45"/>
<path fill="#4BD6BA" stroke="#43BA9E" stroke-width="0.5" stroke-miterlimit="10" d="M24.002,58.771
	c1.362,0,2.465,1.097,2.465,2.461c0,1.359-1.103,2.463-2.465,2.463c-1.359,0-2.466-1.104-2.466-2.463
	C21.536,59.868,22.642,58.771,24.002,58.771z"/>
<path fill="#FA715E" stroke="#E06255" stroke-width="0.5" stroke-miterlimit="10" d="M24.002,39.574
	c1.362,0,2.465,1.103,2.465,2.466c0,1.358-1.103,2.468-2.465,2.468c-1.359,0-2.466-1.109-2.466-2.468
	C21.536,40.677,22.642,39.574,24.002,39.574z"/>
<path fill="none" stroke="#DDDDDD" stroke-width="0.5" stroke-miterlimit="10" d="M84.514,56.441c0,2.652-2.151,4.805-4.805,4.805
	 M111.076,56.441c0,2.652,2.15,4.805,4.803,4.805h3.59 M89.45,51.64h-0.146c-2.651,0-4.803,2.146-4.803,4.803 M111.076,56.441
	c0-2.656-2.156-4.802-4.811-4.802H89.45"/>
<path fill="#CC6281" stroke="#B25775" stroke-width="0.5" stroke-miterlimit="10" d="M101.446,49.171
	c1.366,0,2.463,1.103,2.463,2.469c0,1.358-1.097,2.463-2.463,2.463c-1.365,0-2.462-1.104-2.462-2.463
	C98.984,50.273,100.08,49.171,101.446,49.171z"/>
<path fill="#CC6281" stroke="#B25775" stroke-width="0.5" stroke-miterlimit="10" d="M94.145,49.171
	c1.365,0,2.461,1.103,2.461,2.469c0,1.358-1.096,2.463-2.461,2.463s-2.463-1.104-2.463-2.463
	C91.682,50.273,92.779,49.171,94.145,49.171z"/>
<path fill="none" stroke="#DDDDDD" stroke-width="0.5" stroke-miterlimit="10" d="M24.002,63.695v14.275 M26.467,41.976h7.366
	 M101.446,49.189V34.908"/>
<g>
	<rect x="2" y="2" fill="#62B3CC" stroke="#57A1B2" stroke-width="0.5" stroke-miterlimit="10" width="20" height="7"/>
	<g>
		<path fill="#40767C" d="M9.119,6.646V5.215L8.626,6.258h-0.24L7.88,5.215v1.431H7.556v-2.14H7.88l0.625,1.332l0.613-1.332h0.325
			v2.14H9.119z"/>
		<path fill="#40767C" d="M10.779,6.646V6.507c-0.111,0.111-0.216,0.156-0.406,0.156s-0.315-0.045-0.409-0.138
			c-0.078-0.081-0.12-0.199-0.12-0.328c0-0.256,0.177-0.439,0.526-0.439h0.403V5.65c0-0.192-0.096-0.286-0.333-0.286
			c-0.168,0-0.25,0.039-0.334,0.147L9.905,5.323c0.144-0.168,0.294-0.219,0.547-0.219c0.418,0,0.628,0.177,0.628,0.523v1.019H10.779
			z M10.773,5.972h-0.358c-0.18,0-0.273,0.081-0.273,0.219c0,0.139,0.087,0.217,0.28,0.217c0.117,0,0.204-0.009,0.286-0.087
			c0.045-0.045,0.066-0.117,0.066-0.226V5.972z"/>
		<path fill="#40767C" d="M12.042,6.664c-0.25,0-0.46-0.042-0.64-0.219l0.201-0.202c0.124,0.126,0.289,0.159,0.439,0.159
			c0.187,0,0.334-0.066,0.334-0.21c0-0.102-0.057-0.168-0.205-0.18L11.927,5.99c-0.286-0.024-0.451-0.153-0.451-0.421
			c0-0.297,0.255-0.466,0.574-0.466c0.229,0,0.424,0.048,0.565,0.171L12.423,5.47c-0.096-0.081-0.231-0.111-0.375-0.111
			c-0.184,0-0.277,0.081-0.277,0.195c0,0.09,0.048,0.16,0.21,0.174l0.241,0.021c0.286,0.024,0.454,0.16,0.454,0.43
			C12.676,6.498,12.405,6.664,12.042,6.664z"/>
		<path fill="#40767C" d="M13.47,6.646c-0.286,0-0.417-0.205-0.417-0.424V5.383h-0.175V5.148h0.175V4.686h0.306v0.463h0.295v0.234
			h-0.295v0.824c0,0.111,0.054,0.177,0.168,0.177h0.126v0.262H13.47z"/>
		<path fill="#40767C" d="M14.258,5.972c0,0.262,0.139,0.427,0.388,0.427c0.171,0,0.261-0.048,0.37-0.156l0.195,0.184
			c-0.156,0.156-0.304,0.237-0.571,0.237c-0.382,0-0.685-0.202-0.685-0.782c0-0.493,0.255-0.778,0.646-0.778
			c0.409,0,0.646,0.3,0.646,0.733v0.135H14.258z M14.902,5.551c-0.048-0.114-0.156-0.192-0.301-0.192
			c-0.144,0-0.255,0.078-0.304,0.192c-0.03,0.069-0.036,0.114-0.039,0.208h0.686C14.941,5.666,14.932,5.621,14.902,5.551z"/>
		<path fill="#40767C" d="M16.488,5.479c-0.069-0.069-0.123-0.102-0.229-0.102c-0.165,0-0.303,0.132-0.303,0.343v0.926H15.65V5.122
			h0.3v0.165c0.078-0.108,0.234-0.183,0.406-0.183c0.147,0,0.259,0.039,0.364,0.144L16.488,5.479z"/>
	</g>
</g>
<g>
	<rect x="25.204" y="2" fill="#FA715E" stroke="#E06255" stroke-width="0.5" stroke-miterlimit="10" width="20" height="7"/>
	<g>
		<path fill="#AA4743" d="M32.693,6.646V5.71h-0.869v0.935H31.5v-2.14h0.324v0.914h0.869V4.505h0.324v2.14H32.693z"/>
		<path fill="#AA4743" d="M34.555,6.483c-0.1,0.102-0.25,0.18-0.457,0.18s-0.355-0.078-0.454-0.18
			c-0.144-0.15-0.18-0.343-0.18-0.602c0-0.255,0.036-0.448,0.18-0.598c0.099-0.102,0.247-0.18,0.454-0.18s0.357,0.078,0.457,0.18
			c0.144,0.15,0.18,0.343,0.18,0.598C34.735,6.141,34.699,6.333,34.555,6.483z M34.324,5.464c-0.057-0.057-0.135-0.087-0.226-0.087
			s-0.166,0.03-0.223,0.087c-0.093,0.093-0.105,0.252-0.105,0.417c0,0.166,0.012,0.325,0.105,0.418
			c0.057,0.057,0.132,0.09,0.223,0.09s0.168-0.033,0.226-0.09c0.093-0.093,0.105-0.252,0.105-0.418
			C34.429,5.717,34.417,5.557,34.324,5.464z"/>
		<path fill="#AA4743" d="M35.601,6.646c-0.286,0-0.417-0.205-0.417-0.424V5.383h-0.175V5.148h0.175V4.686h0.306v0.463h0.295v0.234
			H35.49v0.824c0,0.111,0.054,0.177,0.168,0.177h0.126v0.262H35.601z"/>
		<path fill="#AA4743" d="M36.522,5.383v1.263h-0.307V5.383h-0.174V5.148h0.174V4.914c0-0.219,0.132-0.424,0.418-0.424h0.189v0.262
			h-0.135c-0.114,0-0.165,0.066-0.165,0.177v0.219h0.3v0.234H36.522z M37.12,4.77V4.496h0.328V4.77H37.12z M37.129,6.646V5.148
			h0.307v1.497H37.129z"/>
		<path fill="#AA4743" d="M38.755,6.646l-0.319-0.52l-0.321,0.52h-0.37l0.523-0.778l-0.502-0.746h0.37l0.3,0.496l0.298-0.496h0.37
			l-0.499,0.746l0.52,0.778H38.755z"/>
	</g>
</g>
<g>
	<rect x="48.028" y="2" fill="#4BD6BA" stroke="#43BA9E" stroke-width="0.5" stroke-miterlimit="10" width="20" height="7"/>
	<g>
		<path fill="#3B9E84" d="M54.248,6.444c-0.135,0.135-0.331,0.201-0.553,0.201h-0.751v-2.14h0.751c0.222,0,0.417,0.066,0.553,0.201
			c0.231,0.231,0.217,0.544,0.217,0.854S54.479,6.213,54.248,6.444z M54.026,4.941c-0.09-0.099-0.21-0.144-0.364-0.144h-0.394v1.557
			h0.394c0.153,0,0.273-0.045,0.364-0.145c0.111-0.123,0.114-0.354,0.114-0.649C54.14,5.266,54.137,5.064,54.026,4.941z"/>
		<path fill="#3B9E84" d="M55.131,5.972c0,0.262,0.139,0.427,0.388,0.427c0.171,0,0.261-0.048,0.37-0.156l0.195,0.184
			c-0.156,0.156-0.304,0.237-0.571,0.237c-0.382,0-0.685-0.202-0.685-0.782c0-0.493,0.255-0.778,0.646-0.778
			c0.409,0,0.646,0.3,0.646,0.733v0.135H55.131z M55.774,5.551c-0.048-0.114-0.156-0.192-0.301-0.192
			c-0.144,0-0.255,0.078-0.304,0.192c-0.03,0.069-0.036,0.114-0.039,0.208h0.686C55.813,5.666,55.804,5.621,55.774,5.551z"/>
		<path fill="#3B9E84" d="M57.082,6.646h-0.25l-0.559-1.524h0.325l0.361,1.073l0.357-1.073h0.325L57.082,6.646z"/>
		<path fill="#3B9E84" d="M58.101,5.972c0,0.262,0.139,0.427,0.388,0.427c0.171,0,0.261-0.048,0.37-0.156l0.195,0.184
			c-0.156,0.156-0.304,0.237-0.571,0.237c-0.382,0-0.685-0.202-0.685-0.782c0-0.493,0.255-0.778,0.646-0.778
			c0.409,0,0.646,0.3,0.646,0.733v0.135H58.101z M58.744,5.551c-0.048-0.114-0.156-0.192-0.301-0.192
			c-0.144,0-0.255,0.078-0.304,0.192c-0.03,0.069-0.036,0.114-0.039,0.208h0.686C58.783,5.666,58.774,5.621,58.744,5.551z"/>
		<path fill="#3B9E84" d="M59.901,6.646c-0.292,0-0.418-0.195-0.418-0.421V4.505h0.307v1.701c0,0.117,0.042,0.177,0.166,0.177h0.135
			v0.262H59.901z"/>
		<path fill="#3B9E84" d="M61.385,6.483c-0.1,0.102-0.25,0.18-0.457,0.18s-0.355-0.078-0.454-0.18
			c-0.144-0.15-0.18-0.343-0.18-0.602c0-0.255,0.036-0.448,0.18-0.598c0.099-0.102,0.247-0.18,0.454-0.18s0.357,0.078,0.457,0.18
			c0.144,0.15,0.18,0.343,0.18,0.598C61.565,6.141,61.529,6.333,61.385,6.483z M61.153,5.464c-0.057-0.057-0.135-0.087-0.226-0.087
			s-0.166,0.03-0.223,0.087C60.612,5.557,60.6,5.717,60.6,5.882c0,0.166,0.012,0.325,0.105,0.418c0.057,0.057,0.132,0.09,0.223,0.09
			s0.168-0.033,0.226-0.09c0.093-0.093,0.105-0.252,0.105-0.418C61.258,5.717,61.246,5.557,61.153,5.464z"/>
		<path fill="#3B9E84" d="M63.053,6.528c-0.084,0.084-0.217,0.135-0.37,0.135c-0.162,0-0.289-0.042-0.399-0.174v0.772h-0.307v-2.14
			h0.3v0.162c0.114-0.138,0.238-0.18,0.403-0.18c0.153,0,0.289,0.051,0.373,0.135c0.153,0.153,0.171,0.412,0.171,0.643
			S63.206,6.375,63.053,6.528z M62.602,5.377c-0.276,0-0.318,0.234-0.318,0.505s0.042,0.508,0.318,0.508
			c0.277,0,0.316-0.238,0.316-0.508S62.878,5.377,62.602,5.377z"/>
	</g>
</g>
<g>
	<rect x="71.027" y="2" fill="#FFD6D3" stroke="#E5C2C1" stroke-width="0.5" stroke-miterlimit="10" width="20" height="7"/>
	<g>
		<path fill="#AF9595" d="M76.415,4.797v0.652h0.89v0.292h-0.89v0.905h-0.324v-2.14h1.368v0.292H76.415z"/>
		<path fill="#AF9595" d="M77.936,5.972c0,0.262,0.139,0.427,0.389,0.427c0.171,0,0.262-0.048,0.369-0.156l0.195,0.184
			c-0.156,0.156-0.303,0.237-0.57,0.237c-0.383,0-0.686-0.202-0.686-0.782c0-0.493,0.256-0.778,0.646-0.778
			c0.408,0,0.646,0.3,0.646,0.733v0.135H77.936z M78.58,5.551c-0.049-0.114-0.156-0.192-0.301-0.192s-0.256,0.078-0.305,0.192
			c-0.029,0.069-0.035,0.114-0.039,0.208h0.686C78.619,5.666,78.609,5.621,78.58,5.551z"/>
		<path fill="#AF9595" d="M80.148,6.646V6.507c-0.111,0.111-0.217,0.156-0.406,0.156s-0.315-0.045-0.408-0.138
			c-0.078-0.081-0.121-0.199-0.121-0.328c0-0.256,0.178-0.439,0.526-0.439h0.403V5.65c0-0.192-0.097-0.286-0.334-0.286
			c-0.168,0-0.25,0.039-0.334,0.147l-0.201-0.189c0.145-0.168,0.295-0.219,0.547-0.219c0.418,0,0.629,0.177,0.629,0.523v1.019
			H80.148z M80.143,5.972h-0.358c-0.181,0-0.273,0.081-0.273,0.219c0,0.139,0.087,0.217,0.28,0.217c0.117,0,0.203-0.009,0.285-0.087
			c0.045-0.045,0.066-0.117,0.066-0.226V5.972z"/>
		<path fill="#AF9595" d="M81.371,6.646c-0.285,0-0.418-0.205-0.418-0.424V5.383h-0.174V5.148h0.174V4.686h0.307v0.463h0.295v0.234
			H81.26v0.824c0,0.111,0.055,0.177,0.168,0.177h0.127v0.262H81.371z"/>
		<path fill="#AF9595" d="M82.863,6.646V6.492c-0.105,0.114-0.252,0.171-0.406,0.171c-0.156,0-0.285-0.051-0.375-0.138
			c-0.117-0.114-0.153-0.259-0.153-0.43V5.122h0.307V6.05c0,0.237,0.136,0.34,0.307,0.34s0.315-0.105,0.315-0.34V5.122h0.307v1.524
			H82.863z"/>
		<path fill="#AF9595" d="M84.486,5.479c-0.069-0.069-0.123-0.102-0.229-0.102c-0.166,0-0.304,0.132-0.304,0.343v0.926h-0.307V5.122
			h0.3v0.165c0.078-0.108,0.234-0.183,0.406-0.183c0.147,0,0.259,0.039,0.363,0.144L84.486,5.479z"/>
		<path fill="#AF9595" d="M85.097,5.972c0,0.262,0.139,0.427,0.388,0.427c0.172,0,0.262-0.048,0.37-0.156l0.195,0.184
			c-0.156,0.156-0.304,0.237-0.571,0.237c-0.382,0-0.686-0.202-0.686-0.782c0-0.493,0.256-0.778,0.646-0.778
			c0.408,0,0.646,0.3,0.646,0.733v0.135H85.097z M85.74,5.551c-0.049-0.114-0.156-0.192-0.301-0.192s-0.256,0.078-0.304,0.192
			c-0.03,0.069-0.036,0.114-0.039,0.208h0.686C85.779,5.666,85.77,5.621,85.74,5.551z"/>
	</g>
</g>
<g>
	<rect x="94.027" y="2" fill="#CC6281" stroke="#B25775" stroke-width="0.5" stroke-miterlimit="10" width="20" height="7"/>
	<g>
		<path fill="#7C3E56" d="M100.108,6.646l-0.45-0.902h-0.406v0.902h-0.324v-2.14h0.829c0.405,0,0.664,0.261,0.664,0.625
			c0,0.307-0.187,0.502-0.427,0.568l0.493,0.947H100.108z M99.732,4.797h-0.48v0.67h0.48c0.217,0,0.363-0.124,0.363-0.334
			S99.949,4.797,99.732,4.797z"/>
		<path fill="#7C3E56" d="M101.081,5.972c0,0.262,0.139,0.427,0.388,0.427c0.172,0,0.262-0.048,0.37-0.156l0.195,0.184
			c-0.156,0.156-0.304,0.237-0.571,0.237c-0.382,0-0.686-0.202-0.686-0.782c0-0.493,0.256-0.778,0.646-0.778
			c0.408,0,0.646,0.3,0.646,0.733v0.135H101.081z M101.725,5.551c-0.049-0.114-0.156-0.192-0.301-0.192s-0.256,0.078-0.304,0.192
			c-0.03,0.069-0.036,0.114-0.039,0.208h0.686C101.764,5.666,101.754,5.621,101.725,5.551z"/>
		<path fill="#7C3E56" d="M102.882,6.646c-0.292,0-0.418-0.195-0.418-0.421V4.505h0.307v1.701c0,0.117,0.042,0.177,0.165,0.177
			h0.136v0.262H102.882z"/>
		<path fill="#7C3E56" d="M103.557,5.972c0,0.262,0.139,0.427,0.388,0.427c0.171,0,0.261-0.048,0.37-0.156l0.195,0.184
			c-0.156,0.156-0.305,0.237-0.572,0.237c-0.381,0-0.685-0.202-0.685-0.782c0-0.493,0.255-0.778,0.646-0.778
			c0.409,0,0.646,0.3,0.646,0.733v0.135H103.557z M104.199,5.551c-0.048-0.114-0.156-0.192-0.301-0.192
			c-0.144,0-0.255,0.078-0.303,0.192c-0.03,0.069-0.036,0.114-0.039,0.208h0.686C104.238,5.666,104.229,5.621,104.199,5.551z"/>
		<path fill="#7C3E56" d="M105.769,6.646V6.507c-0.11,0.111-0.216,0.156-0.405,0.156s-0.316-0.045-0.409-0.138
			c-0.078-0.081-0.12-0.199-0.12-0.328c0-0.256,0.178-0.439,0.525-0.439h0.403V5.65c0-0.192-0.097-0.286-0.333-0.286
			c-0.169,0-0.25,0.039-0.334,0.147l-0.201-0.189c0.144-0.168,0.294-0.219,0.547-0.219c0.418,0,0.628,0.177,0.628,0.523v1.019
			H105.769z M105.763,5.972h-0.358c-0.18,0-0.273,0.081-0.273,0.219c0,0.139,0.088,0.217,0.28,0.217
			c0.117,0,0.204-0.009,0.286-0.087c0.045-0.045,0.065-0.117,0.065-0.226V5.972z"/>
		<path fill="#7C3E56" d="M107.031,6.664c-0.25,0-0.461-0.042-0.641-0.219l0.201-0.202c0.123,0.126,0.289,0.159,0.439,0.159
			c0.186,0,0.334-0.066,0.334-0.21c0-0.102-0.058-0.168-0.205-0.18l-0.244-0.021c-0.285-0.024-0.45-0.153-0.45-0.421
			c0-0.297,0.255-0.466,0.574-0.466c0.229,0,0.424,0.048,0.565,0.171l-0.193,0.195c-0.096-0.081-0.23-0.111-0.375-0.111
			c-0.184,0-0.277,0.081-0.277,0.195c0,0.09,0.049,0.16,0.211,0.174l0.24,0.021c0.285,0.024,0.454,0.16,0.454,0.43
			C107.665,6.498,107.395,6.664,107.031,6.664z"/>
		<path fill="#7C3E56" d="M108.26,5.972c0,0.262,0.139,0.427,0.389,0.427c0.171,0,0.262-0.048,0.369-0.156l0.195,0.184
			c-0.156,0.156-0.303,0.237-0.57,0.237c-0.383,0-0.686-0.202-0.686-0.782c0-0.493,0.256-0.778,0.646-0.778
			c0.408,0,0.646,0.3,0.646,0.733v0.135H108.26z M108.904,5.551c-0.049-0.114-0.156-0.192-0.301-0.192s-0.256,0.078-0.305,0.192
			c-0.029,0.069-0.035,0.114-0.039,0.208h0.686C108.943,5.666,108.934,5.621,108.904,5.551z"/>
	</g>
</g>
</svg>
