<?xml version="1.0" encoding="utf-8"?>
<!-- Generator: Adobe Illustrator 16.0.0, SVG Export Plug-In . SVG Version: 6.00 Build 0)  -->
<!DOCTYPE svg PUBLIC "-//W3C//DTD SVG 1.1//EN" "http://www.w3.org/Graphics/SVG/1.1/DTD/svg11.dtd">
<svg version="1.1" id="Layer_1" xmlns="http://www.w3.org/2000/svg" xmlns:xlink="http://www.w3.org/1999/xlink" x="0px" y="0px"
	 width="127px" height="124.5px" viewBox="-53.5 0 127 124.5" enable-background="new -53.5 0 127 124.5" xml:space="preserve">
<path fill="none" stroke="#DDDDDD" stroke-width="0.5" stroke-miterlimit="10" d="M13.758,73.036c0-2.65,2.157-4.803,4.809-4.803"/>
<path fill="none" stroke="#59AFE1" stroke-width="0.5" stroke-miterlimit="10" d="M8.829,68.233"/>
<path fill="none" stroke="#DDDDDD" stroke-width="0.5" stroke-miterlimit="10" d="M-12.812,73.036c0-2.65-2.155-4.803-4.806-4.803
	 M-26.795,87.422H6.583"/>
<path fill="#FFD6D3" stroke="#E5C2C1" stroke-width="0.5" stroke-miterlimit="10" d="M-3.185,84.96c1.362,0,2.465,1.103,2.465,2.462
	c0,1.365-1.103,2.469-2.465,2.469s-2.466-1.104-2.466-2.469C-5.65,86.062-4.547,84.96-3.185,84.96z"/>
<path fill="#FFD6D3" stroke="#E5C2C1" stroke-width="0.5" stroke-miterlimit="10" d="M4.133,84.96c1.362,0,2.466,1.103,2.466,2.462
	c0,1.365-1.104,2.469-2.466,2.469s-2.465-1.104-2.465-2.469C1.667,86.062,2.771,84.96,4.133,84.96z"/>
<path fill="#FFD6D3" stroke="#E5C2C1" stroke-width="0.5" stroke-miterlimit="10" d="M-14.622,84.96
	c1.362,0,2.465,1.103,2.465,2.462c0,1.365-1.103,2.469-2.465,2.469c-1.363,0-2.466-1.104-2.466-2.469
	C-17.088,86.062-15.985,84.96-14.622,84.96z"/>
<path fill="none" stroke="#DDDDDD" stroke-width="0.5" stroke-miterlimit="10" d="M68.652,68.233H-24.39"/>
<path fill="#94FFDD" stroke="#88E5C3" stroke-width="0.5" stroke-miterlimit="10" d="M23.248,65.771
	c1.358,0,2.468,1.097,2.468,2.462c0,1.359-1.109,2.463-2.468,2.463c-1.359,0-2.469-1.104-2.469-2.463
	C20.779,66.868,21.889,65.771,23.248,65.771z"/>
<path fill="#94FFDD" stroke="#88E5C3" stroke-width="0.5" stroke-miterlimit="10" d="M-3.185,65.771
	c1.362,0,2.465,1.097,2.465,2.462c0,1.359-1.103,2.463-2.465,2.463s-2.466-1.104-2.466-2.463
	C-5.65,66.868-4.547,65.771-3.185,65.771z"/>
<path fill="#94FFDD" stroke="#88E5C3" stroke-width="0.5" stroke-miterlimit="10" d="M68.652,65.771
	c1.365,0,2.468,1.097,2.468,2.462c0,1.359-1.103,2.463-2.468,2.463c-1.354,0-2.463-1.104-2.463-2.463
	C66.189,66.868,67.299,65.771,68.652,65.771z"/>
<path fill="none" stroke="#DDDDDD" stroke-width="0.5" stroke-miterlimit="10" d="M-12.812,73.036c0,2.658,2.151,4.805,4.806,4.805
	H8.829 M-39.214,44.188c0,2.651,2.152,4.807,4.806,4.807h2.701"/>
<path fill="#FFD6D3" stroke="#E5C2C1" stroke-width="0.5" stroke-miterlimit="10" d="M-3.185,75.365
	c1.362,0,2.465,1.103,2.465,2.463c0,1.364-1.103,2.463-2.465,2.463s-2.466-1.099-2.466-2.463
	C-5.65,76.468-4.547,75.365-3.185,75.365z"/>
<path fill="#FFD6D3" stroke="#E5C2C1" stroke-width="0.5" stroke-miterlimit="10" d="M4.133,75.365c1.362,0,2.466,1.103,2.466,2.463
	c0,1.364-1.104,2.463-2.466,2.463s-2.465-1.099-2.465-2.463C1.667,76.468,2.771,75.365,4.133,75.365z"/>
<path fill="none" stroke="#DDDDDD" stroke-width="0.5" stroke-miterlimit="10" d="M8.829,77.828H8.97
	c2.654,0,4.807-2.152,4.807-4.804"/>
<path fill="none" stroke="#CCCCCC" stroke-width="0.5" stroke-linecap="round" stroke-linejoin="round" d="M-41.305,49.04"/>
<path fill="none" stroke="#CCCCCC" stroke-width="0.5" stroke-linecap="round" stroke-linejoin="round" stroke-dasharray="0,14.3051" d="
	M-43.536,49.04h-5.571"/>
<path fill="none" stroke="#CCCCCC" stroke-width="0.5" stroke-linecap="round" stroke-linejoin="round" d="M68.677,49.04"/>
<path fill="none" stroke="#CCCCCC" stroke-width="0.5" stroke-linecap="round" stroke-linejoin="round" stroke-dasharray="0,14.1689" d="
	M66.458,49.04h-80.706"/>
<path fill="none" stroke="#CCCCCC" stroke-width="0.5" stroke-linecap="round" stroke-linejoin="round" d="M32.659,58.64"/>
<path fill="none" stroke="#CCCCCC" stroke-width="0.5" stroke-linecap="round" stroke-linejoin="round" stroke-dasharray="0,13.9788" d="
	M30.471,58.64h-79.608"/>
<path fill="none" stroke="#CCCCCC" stroke-width="0.5" stroke-linecap="round" stroke-linejoin="round" d="M68.677,58.64"/>
<path fill="none" stroke="#CCCCCC" stroke-width="0.5" stroke-linecap="round" stroke-linejoin="round" stroke-dasharray="0,14.7877" d="
	M66.36,58.64h-8.083"/>
<path fill="none" stroke="#CCCCCC" stroke-width="0.5" stroke-linecap="round" stroke-linejoin="round" d="M68.652,39.442"/>
<path fill="none" stroke="#CCCCCC" stroke-width="0.5" stroke-linecap="round" stroke-linejoin="round" stroke-dasharray="0,14.9632" d="
	M66.336,39.442H53.487"/>
<path fill="none" stroke="#CCCCCC" stroke-width="0.5" stroke-linecap="round" stroke-linejoin="round" d="M52.316,39.442"/>
<path fill="none" stroke="#DDDDDD" stroke-width="0.5" stroke-miterlimit="10" d="M-39.214,44.248c0-2.65-2.155-4.806-4.806-4.806
	 M-19.429,44.188c0,2.651-2.154,4.807-4.806,4.807h-7.491 M-19.429,44.248c0-2.65,2.155-4.806,4.807-4.806 M-9.832,68.233
	c-2.654,0-4.806-2.157-4.806-4.803v-9.649 M-14.638,53.781c0-2.651-2.155-4.806-4.806-4.806"/>
<path fill="none" stroke="#DEEFF8" stroke-width="0.5" stroke-miterlimit="10" d="M8.829,39.442"/>
<path fill="#FFD6D3" stroke="#E5C2C1" stroke-width="0.5" stroke-miterlimit="10" d="M-29.26,84.96c1.362,0,2.465,1.103,2.465,2.462
	c0,1.365-1.103,2.469-2.465,2.469c-1.359,0-2.466-1.104-2.466-2.469C-31.726,86.062-30.62,84.96-29.26,84.96z"/>
<path fill="none" stroke="#DDDDDD" stroke-width="0.5" stroke-miterlimit="10" d="M48.184,39.442h-94.529"/>
<circle fill="#62B3CC" stroke="#57A1B2" stroke-width="0.5" stroke-miterlimit="10" cx="-48.796" cy="39.442" r="2.466"/>
<circle fill="#62B3CC" stroke="#57A1B2" stroke-width="0.5" stroke-miterlimit="10" cx="-3.185" cy="39.442" r="2.466"/>
<path fill="#62B3CC" stroke="#57A1B2" stroke-width="0.5" stroke-miterlimit="10" d="M48.184,36.977
	c1.366,0,2.463,1.104,2.463,2.466s-1.097,2.466-2.463,2.466c-1.365,0-2.462-1.104-2.462-2.466S46.818,36.977,48.184,36.977z"/>
<path fill="#404040" d="M-49.924,28.615h-0.186l-0.39-0.981h0.216L-50,28.383l0.281-0.749h0.201L-49.924,28.615z M-49.189,27.479
	c0.076-0.125,0.216-0.22,0.406-0.22c0.185,0,0.311,0.079,0.405,0.22c0.095,0.125,0.125,0.295,0.125,0.48
	c0,0.189-0.03,0.346-0.125,0.484c-0.08,0.125-0.22,0.221-0.405,0.221c-0.189,0-0.314-0.08-0.406-0.221
	c-0.095-0.124-0.125-0.295-0.125-0.484C-49.315,27.773-49.284,27.604-49.189,27.479z M-49.003,28.383
	c0.049,0.046,0.109,0.076,0.204,0.076c0.091,0,0.155-0.03,0.201-0.076c0.08-0.078,0.11-0.219,0.11-0.424
	c0-0.201-0.031-0.341-0.11-0.42c-0.045-0.045-0.109-0.076-0.201-0.076c-0.095,0-0.155,0.031-0.204,0.076
	c-0.077,0.079-0.11,0.219-0.11,0.42C-49.113,28.164-49.08,28.289-49.003,28.383z M-47.864,28.334c0.079,0,0.14,0.064,0.14,0.141
	c0,0.079-0.061,0.141-0.14,0.141s-0.14-0.062-0.14-0.141C-48.004,28.398-47.943,28.334-47.864,28.334z M-47.254,28.615v-0.921
	h-0.314v-0.14c0.189,0,0.314-0.109,0.345-0.25h0.171v1.311H-47.254z"/>
<path fill="none" stroke="#DDDDDD" stroke-width="0.5" stroke-miterlimit="10" d="M-48.723,34.151v-2.745 M-47.443,33.141
	l-1.28,1.276l-1.262-1.276"/>
<path fill="#404040" d="M-4.635,28.615h-0.189l-0.39-0.981h0.219l0.281,0.749l0.28-0.749h0.204L-4.635,28.615z M-3.904,27.479
	c0.079-0.125,0.219-0.22,0.408-0.22c0.186,0,0.311,0.079,0.406,0.22c0.091,0.125,0.125,0.295,0.125,0.48
	c0,0.189-0.033,0.346-0.125,0.484c-0.08,0.125-0.22,0.221-0.406,0.221c-0.189,0-0.313-0.08-0.408-0.221
	c-0.091-0.124-0.125-0.295-0.125-0.484C-4.029,27.773-3.995,27.604-3.904,27.479z M-3.715,28.383
	c0.046,0.046,0.11,0.076,0.201,0.076c0.095,0,0.158-0.03,0.204-0.076c0.08-0.078,0.109-0.219,0.109-0.424
	c0-0.201-0.03-0.341-0.109-0.42c-0.046-0.045-0.109-0.076-0.204-0.076c-0.091,0-0.155,0.031-0.201,0.076
	c-0.079,0.079-0.11,0.219-0.11,0.42C-3.825,28.164-3.794,28.289-3.715,28.383z M-2.575,28.334c0.076,0,0.14,0.064,0.14,0.141
	c0,0.079-0.064,0.141-0.14,0.141c-0.079,0-0.14-0.062-0.14-0.141C-2.715,28.398-2.654,28.334-2.575,28.334z M-2.109,27.743v-0.049
	c0-0.216,0.174-0.421,0.455-0.421c0.28,0,0.436,0.189,0.436,0.406c0,0.174-0.094,0.313-0.25,0.404l-0.265,0.174
	c-0.076,0.047-0.14,0.11-0.155,0.186h0.67v0.189h-0.92c0-0.219,0.094-0.375,0.311-0.53l0.22-0.144
	c0.125-0.076,0.189-0.17,0.189-0.279c0-0.125-0.079-0.234-0.25-0.234c-0.173,0-0.25,0.124-0.25,0.268v0.061L-2.109,27.743z"/>
<path fill="none" stroke="#DDDDDD" stroke-width="0.5" stroke-miterlimit="10" d="M-3.185,34.151v-2.745 M-1.905,33.141l-1.28,1.276
	l-1.265-1.276"/>
<path fill="#404040" d="M46.904,28.615h-0.184l-0.391-0.981h0.215l0.286,0.749l0.28-0.749h0.194L46.904,28.615z M47.781,28.615
	v-0.921h-0.316v-0.14c0.188,0,0.316-0.109,0.341-0.25h0.171v1.311H47.781z M48.495,28.334c0.079,0,0.141,0.064,0.141,0.141
	c0,0.079-0.062,0.141-0.141,0.141c-0.08,0-0.141-0.062-0.141-0.141C48.354,28.398,48.415,28.334,48.495,28.334z M49.062,27.479
	c0.073-0.125,0.214-0.22,0.402-0.22c0.184,0,0.311,0.079,0.402,0.22c0.098,0.125,0.128,0.295,0.128,0.48
	c0,0.189-0.03,0.346-0.128,0.484c-0.072,0.125-0.219,0.221-0.402,0.221c-0.188,0-0.317-0.08-0.402-0.221
	c-0.098-0.124-0.128-0.295-0.128-0.484C48.934,27.773,48.977,27.604,49.062,27.479z M49.257,28.383
	c0.049,0.046,0.109,0.076,0.207,0.076s0.158-0.03,0.201-0.076c0.08-0.078,0.109-0.219,0.109-0.424c0-0.201-0.029-0.341-0.109-0.42
	c-0.043-0.045-0.104-0.076-0.201-0.076s-0.158,0.031-0.207,0.076c-0.073,0.079-0.11,0.219-0.11,0.42
	C49.146,28.164,49.184,28.289,49.257,28.383z"/>
<path fill="none" stroke="#DDDDDD" stroke-width="0.5" stroke-miterlimit="10" d="M48.184,34.151v-2.745 M49.464,33.141l-1.28,1.276
	l-1.268-1.276"/>
<path fill="none" stroke="#CCCCCC" stroke-width="0.5" stroke-linecap="round" stroke-linejoin="round" d="M-40.448,68.233"/>
<path fill="none" stroke="#CCCCCC" stroke-width="0.5" stroke-linecap="round" stroke-linejoin="round" stroke-dasharray="0,12.543" d="
	M-42.399,68.233h-6.848"/>
<path fill="none" stroke="#CCCCCC" stroke-width="0.5" stroke-linecap="round" stroke-linejoin="round" d="M-11.797,77.828"/>
<path fill="none" stroke="#CCCCCC" stroke-width="0.5" stroke-linecap="round" stroke-linejoin="round" stroke-dasharray="0,13.6844" d="
	M-13.937,77.828h-35.219"/>
<path fill="none" stroke="#CCCCCC" stroke-width="0.5" stroke-linecap="round" stroke-linejoin="round" d="M68.677,77.828"/>
<path fill="none" stroke="#CCCCCC" stroke-width="0.5" stroke-linecap="round" stroke-linejoin="round" stroke-dasharray="0,13.7717" d="
	M66.519,77.828H13.867"/>
<path fill="none" stroke="#CCCCCC" stroke-width="0.5" stroke-linecap="round" stroke-linejoin="round" d="M-33.192,87.422"/>
<path fill="none" stroke="#CCCCCC" stroke-width="0.5" stroke-linecap="round" stroke-linejoin="round" stroke-dasharray="0,13.6492" d="
	M-35.313,87.422h-13.858"/>
<path fill="none" stroke="#CCCCCC" stroke-width="0.5" stroke-linecap="round" stroke-linejoin="round" d="M68.677,87.422"/>
<path fill="none" stroke="#CCCCCC" stroke-width="0.5" stroke-linecap="round" stroke-linejoin="round" stroke-dasharray="0,13.907" d="
	M66.487,87.422h-57.5"/>
<path fill="none" stroke="#CCCCCC" stroke-width="0.5" stroke-linecap="round" stroke-linejoin="round" d="M7.909,87.422"/>
<path fill="#CC6281" stroke="#B25775" stroke-width="0.5" stroke-miterlimit="10" d="M-8.225,2.087H6.787v7.802H-8.225V2.087z"/>
<path fill="#404040" d="M-4.275,6.238h-0.25v0.67H-4.76v-1.64h0.625c0.311,0,0.515,0.22,0.515,0.5c0,0.235-0.159,0.421-0.409,0.47
	l0.39,0.701h-0.265L-4.275,6.238z M-4.169,6.034c0.189,0,0.314-0.109,0.314-0.28c0-0.171-0.125-0.281-0.314-0.281H-4.51v0.561
	H-4.169z M-2.279,6.598c-0.064,0.201-0.25,0.357-0.5,0.357c-0.295,0-0.561-0.217-0.561-0.607c0-0.36,0.25-0.594,0.546-0.594
	c0.344,0,0.545,0.234,0.545,0.594v0.076H-3.09c0,0.205,0.155,0.345,0.341,0.345c0.189,0,0.28-0.095,0.313-0.235L-2.279,6.598z
	 M-2.499,6.238c0-0.156-0.109-0.28-0.311-0.28c-0.188,0-0.295,0.14-0.313,0.28H-2.499z M-1.874,6.924V5.223h0.22v1.701H-1.874z
	 M-0.174,6.598c-0.061,0.201-0.25,0.357-0.5,0.357c-0.295,0-0.561-0.217-0.561-0.607c0-0.36,0.25-0.594,0.546-0.594
	c0.344,0,0.545,0.234,0.545,0.594v0.076h-0.841c0,0.205,0.155,0.345,0.344,0.345c0.186,0,0.281-0.095,0.311-0.235L-0.174,6.598z
	 M-0.393,6.238c0-0.156-0.106-0.28-0.311-0.28c-0.186,0-0.295,0.14-0.311,0.28H-0.393z M0.497,6.284l0.314-0.046
	c0.061-0.016,0.091-0.049,0.091-0.08c0-0.109-0.076-0.201-0.25-0.201c-0.156,0-0.232,0.091-0.248,0.231L0.186,6.144
	c0.031-0.219,0.219-0.36,0.467-0.36c0.344,0,0.469,0.189,0.469,0.406v0.548c0,0.091,0.016,0.155,0.016,0.186H0.902
	c0-0.031-0.015-0.08-0.015-0.155C0.842,6.844,0.731,6.955,0.531,6.955c-0.235,0-0.375-0.156-0.375-0.342
	C0.156,6.424,0.312,6.299,0.497,6.284L0.497,6.284z M0.887,6.439V6.394L0.545,6.439C0.451,6.454,0.387,6.503,0.387,6.613
	c0,0.076,0.08,0.156,0.189,0.156C0.747,6.769,0.887,6.689,0.887,6.439z M1.667,6.564c0.015,0.125,0.109,0.205,0.265,0.205
	c0.125,0,0.189-0.08,0.189-0.156c0-0.064-0.049-0.125-0.14-0.14L1.792,6.424c-0.17-0.03-0.28-0.155-0.28-0.311
	c0-0.189,0.188-0.359,0.405-0.359c0.314,0,0.405,0.204,0.421,0.295L2.152,6.128C2.137,6.064,2.091,5.939,1.917,5.939
	c-0.109,0-0.186,0.08-0.186,0.159c0,0.061,0.045,0.125,0.125,0.14l0.186,0.046c0.204,0.045,0.313,0.17,0.313,0.329
	c0,0.156-0.143,0.342-0.408,0.342c-0.311,0-0.436-0.202-0.451-0.326L1.667,6.564L1.667,6.564z M3.712,6.598
	c-0.061,0.201-0.25,0.357-0.5,0.357c-0.295,0-0.561-0.217-0.561-0.607c0-0.36,0.25-0.594,0.546-0.594
	c0.345,0,0.545,0.234,0.545,0.594v0.076H2.901c0,0.205,0.156,0.345,0.342,0.345c0.188,0,0.283-0.095,0.313-0.235L3.712,6.598z
	 M3.493,6.238c0-0.156-0.11-0.28-0.312-0.28c-0.189,0-0.295,0.14-0.311,0.28H3.493z"/>
<path fill="#94FFDD" stroke="#88E5C3" stroke-width="0.5" stroke-miterlimit="10" d="M13.282,2.087h15.007v7.802H13.282V2.087z"/>
<path fill="#404040" d="M16.463,6.924V5.269h0.574c0.427,0,0.799,0.281,0.799,0.83c0,0.545-0.372,0.826-0.799,0.826H16.463z
	 M17.024,6.72c0.312,0,0.561-0.202,0.561-0.622c0-0.424-0.249-0.625-0.561-0.625h-0.341V6.72H17.024z M19.207,6.598
	c-0.062,0.201-0.251,0.357-0.5,0.357c-0.293,0-0.561-0.217-0.561-0.607c0-0.36,0.25-0.594,0.53-0.594
	c0.347,0,0.542,0.234,0.542,0.594v0.076h-0.841c0,0.205,0.158,0.345,0.342,0.345c0.194,0,0.285-0.095,0.316-0.235L19.207,6.598z
	 M18.987,6.238c0-0.156-0.11-0.28-0.311-0.28c-0.188,0-0.299,0.14-0.312,0.28H18.987z M20.157,6.924h-0.22l-0.463-1.125h0.244
	l0.329,0.875l0.329-0.875h0.231L20.157,6.924z M21.827,6.598c-0.061,0.201-0.249,0.357-0.5,0.357c-0.291,0-0.561-0.217-0.561-0.607
	c0-0.36,0.25-0.594,0.549-0.594c0.342,0,0.549,0.234,0.549,0.594v0.076h-0.848c0,0.205,0.153,0.345,0.348,0.345
	c0.183,0,0.28-0.095,0.305-0.235L21.827,6.598z M21.608,6.238c0-0.156-0.11-0.28-0.311-0.28c-0.189,0-0.3,0.14-0.311,0.28H21.608z
	 M22.23,6.924V5.223h0.219v1.701H22.23z M24.01,6.363c0,0.341-0.231,0.592-0.572,0.592c-0.342,0-0.58-0.25-0.58-0.592
	c0-0.344,0.238-0.594,0.58-0.594C23.766,5.754,24.01,6.019,24.01,6.363z M23.778,6.363c0-0.265-0.158-0.405-0.341-0.405
	c-0.189,0-0.342,0.14-0.342,0.405c0,0.266,0.152,0.406,0.342,0.406C23.62,6.769,23.778,6.613,23.778,6.363z M24.4,7.359v-1.56h0.219
	v0.174c0.062-0.11,0.189-0.205,0.378-0.205c0.341,0,0.513,0.265,0.513,0.594c0,0.326-0.183,0.592-0.524,0.592
	c-0.177,0-0.317-0.077-0.366-0.186v0.591H24.4z M24.948,5.973c-0.201,0-0.329,0.17-0.329,0.39c0,0.235,0.146,0.406,0.329,0.406
	c0.207,0,0.33-0.171,0.33-0.406C25.289,6.128,25.168,5.973,24.948,5.973z"/>
<path fill="#1B7C99" stroke="#176C7F" stroke-width="0.5" stroke-miterlimit="10" d="M-29.711,2.087h15.01v7.802h-15.01V2.087z"/>
<path fill="#404040" d="M-24.235,6.924V6.189h-0.841v0.734h-0.235V5.269h0.235v0.705h0.841V5.269H-24v1.655H-24.235z M-22.439,6.363
	c0,0.341-0.235,0.592-0.579,0.592c-0.342,0-0.576-0.25-0.576-0.592c0-0.344,0.234-0.594,0.576-0.594
	C-22.674,5.754-22.439,6.019-22.439,6.363z M-22.659,6.363c0-0.265-0.155-0.405-0.341-0.405c-0.189,0-0.344,0.14-0.344,0.405
	c0,0.266,0.155,0.406,0.344,0.406C-22.814,6.769-22.659,6.613-22.659,6.363z M-21.754,5.799h0.25v0.204h-0.25V6.58
	c0,0.109,0.049,0.158,0.155,0.158c0.034,0,0.064,0,0.094-0.018v0.189c-0.015,0-0.079,0.015-0.155,0.015
	c-0.189,0-0.314-0.125-0.314-0.326V5.973h-0.216V5.799h0.061c0.125,0,0.174-0.076,0.174-0.171V5.443h0.201V5.799z M-20.535,5.239
	v0.204c-0.018,0-0.049-0.015-0.094-0.015c-0.079,0-0.174,0.03-0.174,0.186v0.186h0.75v1.125h-0.216v-0.92h-0.534v0.92h-0.231v-0.92
	h-0.204V5.799h0.204V5.613c0-0.25,0.171-0.39,0.375-0.39C-20.599,5.223-20.553,5.239-20.535,5.239z M-20.178,5.208
	c0.095,0,0.155,0.061,0.155,0.155c0,0.094-0.076,0.156-0.155,0.156c-0.091,0-0.155-0.076-0.155-0.156
	C-20.333,5.269-20.254,5.208-20.178,5.208z M-19.319,6.348l-0.405-0.548h0.265l0.28,0.39l0.265-0.39h0.265l-0.405,0.548
	c0.061,0.092,0.344,0.481,0.42,0.576h-0.265l-0.295-0.421l-0.281,0.421h-0.265L-19.319,6.348z"/>
<path fill="#62B3CC" stroke="#57A1B2" stroke-width="0.5" stroke-miterlimit="10" d="M-51.213,2.087h15.01v7.802h-15.01V2.087z"/>
<path fill="#404040" d="M-45.8,6.924V5.628l-0.561,1.295h-0.205l-0.56-1.295v1.295h-0.235V5.269h0.313l0.592,1.36l0.594-1.36h0.311
	v1.655H-45.8z M-44.8,6.284l0.295-0.046c0.064-0.016,0.095-0.049,0.095-0.08c0-0.109-0.08-0.201-0.25-0.201
	c-0.155,0-0.235,0.091-0.25,0.231l-0.201-0.046c0.016-0.219,0.216-0.36,0.466-0.36c0.344,0,0.469,0.189,0.469,0.406v0.548
	c0,0.091,0.015,0.155,0.015,0.186h-0.219c0-0.031-0.016-0.08-0.016-0.155c-0.045,0.076-0.155,0.186-0.359,0.186
	c-0.234,0-0.375-0.156-0.375-0.342C-45.145,6.424-44.989,6.299-44.8,6.284z M-44.41,6.439V6.394l-0.345,0.046
	c-0.091,0.015-0.155,0.063-0.155,0.173c0,0.076,0.064,0.156,0.189,0.156C-44.551,6.769-44.41,6.689-44.41,6.439z M-43.63,6.564
	c0.016,0.125,0.11,0.205,0.266,0.205c0.125,0,0.186-0.08,0.186-0.156c0-0.064-0.045-0.125-0.14-0.14l-0.186-0.049
	c-0.17-0.03-0.28-0.155-0.28-0.311c0-0.189,0.186-0.359,0.406-0.359c0.311,0,0.405,0.204,0.42,0.295l-0.186,0.079
	c-0.015-0.064-0.064-0.189-0.234-0.189c-0.11,0-0.189,0.08-0.189,0.159c0,0.061,0.049,0.125,0.125,0.14l0.189,0.046
	c0.201,0.045,0.311,0.17,0.311,0.329c0,0.156-0.14,0.342-0.405,0.342c-0.311,0-0.436-0.202-0.451-0.326L-43.63,6.564z
	 M-42.259,5.799h0.25v0.204h-0.25V6.58c0,0.109,0.049,0.158,0.159,0.158c0.03,0,0.061,0,0.091-0.018v0.189
	c-0.015,0-0.077,0.015-0.155,0.015c-0.186,0-0.311-0.125-0.311-0.326V5.973h-0.219V5.799h0.064c0.125,0,0.171-0.076,0.171-0.171
	V5.443h0.201V5.799z M-40.634,6.598c-0.064,0.201-0.25,0.357-0.5,0.357c-0.295,0-0.561-0.217-0.561-0.607
	c0-0.36,0.25-0.594,0.545-0.594c0.344,0,0.545,0.234,0.545,0.594v0.061h-0.841c0,0.204,0.155,0.344,0.341,0.344
	c0.189,0,0.283-0.094,0.313-0.235L-40.634,6.598z M-40.854,6.238c0-0.156-0.109-0.28-0.311-0.28c-0.189,0-0.296,0.14-0.314,0.28
	H-40.854z M-39.604,6.019h-0.094c-0.186,0-0.311,0.095-0.311,0.344v0.561h-0.22V5.799h0.22v0.204c0.076-0.171,0.216-0.22,0.341-0.22
	h0.079v0.235H-39.604z"/>
<path fill="#FFD6D3" stroke="#E5C2C1" stroke-width="0.5" stroke-miterlimit="10" d="M34.78,2.087h15.014v7.802H34.78V2.087z"/>
<path fill="#404040" d="M38.291,6.844V5.193h1.018v0.216h-0.78v0.53h0.695v0.22h-0.695v0.705h-0.237V6.844z M40.59,6.518
	c-0.067,0.202-0.257,0.36-0.501,0.36c-0.305,0-0.566-0.219-0.566-0.609c0-0.359,0.25-0.594,0.549-0.594
	c0.341,0,0.542,0.235,0.542,0.594v0.079h-0.841c0,0.201,0.158,0.341,0.342,0.341c0.188,0,0.28-0.091,0.316-0.235L40.59,6.518z
	 M40.352,6.159c0-0.155-0.11-0.28-0.312-0.28c-0.188,0-0.298,0.14-0.316,0.28H40.352z M41.26,6.208l0.304-0.049
	c0.067-0.015,0.098-0.045,0.098-0.076c0-0.109-0.079-0.204-0.249-0.204c-0.152,0-0.238,0.095-0.25,0.235l-0.207-0.049
	c0.036-0.217,0.219-0.357,0.475-0.357c0.342,0,0.464,0.186,0.464,0.406v0.561c0,0.095,0.019,0.155,0.019,0.189h-0.22
	c0-0.034-0.019-0.08-0.019-0.159c-0.043,0.08-0.152,0.189-0.354,0.189c-0.237,0-0.378-0.155-0.378-0.344
	C40.912,6.348,41.053,6.223,41.26,6.208z M41.65,6.363V6.314l-0.349,0.049c-0.091,0.015-0.152,0.061-0.152,0.171
	c0,0.079,0.073,0.155,0.184,0.155C41.504,6.689,41.65,6.613,41.65,6.363z M42.613,5.723h0.249v0.201h-0.249v0.594
	c0,0.11,0.049,0.156,0.157,0.156c0.031,0,0.062,0,0.092-0.015v0.186c-0.018,0-0.079,0.019-0.151,0.019
	c-0.195,0-0.317-0.125-0.317-0.33V5.909h-0.22V5.708h0.061c0.128,0,0.177-0.079,0.177-0.173V5.348h0.202V5.723L42.613,5.723z
	 M43.674,6.878c-0.269,0-0.421-0.204-0.421-0.454V5.723h0.219v0.67c0,0.155,0.08,0.295,0.251,0.295c0.17,0,0.268-0.125,0.268-0.28
	v-0.67h0.213v0.92c0,0.094,0,0.17,0.019,0.205h-0.208c0-0.034-0.011-0.095-0.011-0.144C43.954,6.829,43.813,6.878,43.674,6.878z
	 M45.344,5.939h-0.098c-0.183,0-0.306,0.095-0.306,0.345v0.56h-0.219V5.723h0.219v0.201c0.074-0.17,0.221-0.217,0.342-0.217h0.073
	v0.231H45.344z M46.653,6.518c-0.06,0.202-0.249,0.36-0.499,0.36c-0.299,0-0.562-0.219-0.562-0.609c0-0.359,0.251-0.594,0.544-0.594
	c0.347,0,0.548,0.235,0.548,0.594v0.079h-0.841c0,0.201,0.158,0.341,0.341,0.341c0.188,0,0.28-0.091,0.317-0.235L46.653,6.518z
	 M46.44,6.159c0-0.155-0.11-0.28-0.316-0.28c-0.183,0-0.293,0.14-0.311,0.28H46.44z"/>
<path fill="none" stroke="#DDDDDD" stroke-width="0.5" stroke-miterlimit="10" d="M-39.214,44.188v19.255
	c0,2.652,2.152,4.804,4.806,4.804h14.934"/>
<circle fill="#94FFDD" stroke="#88E5C3" stroke-width="0.5" stroke-miterlimit="10" cx="-21.94" cy="68.233" r="2.45"/>
<path fill="#94FFDD" stroke="#88E5C3" stroke-width="0.5" stroke-miterlimit="10" d="M-29.26,65.771
	c1.362,0,2.465,1.097,2.465,2.462c0,1.359-1.103,2.463-2.465,2.463c-1.359,0-2.466-1.104-2.466-2.463
	C-31.726,66.868-30.62,65.771-29.26,65.771z"/>
<path fill="#1B7C99" stroke="#176C7F" stroke-width="0.5" stroke-miterlimit="10" d="M-29.26,46.574
	c1.362,0,2.465,1.103,2.465,2.466c0,1.358-1.103,2.468-2.465,2.468c-1.359,0-2.466-1.109-2.466-2.468
	C-31.726,47.677-30.62,46.574-29.26,46.574z"/>
<path fill="none" stroke="#DDDDDD" stroke-width="0.5" stroke-miterlimit="10" d="M31.252,63.442c0,2.652-2.152,4.804-4.805,4.804
	 M57.814,63.442c0,2.652,2.151,4.804,4.803,4.804h3.59 M36.188,58.64h-0.146c-2.651,0-4.803,2.146-4.803,4.803 M57.814,63.442
	c0-2.657-2.157-4.803-4.81-4.803H36.188"/>
<path fill="#CC6281" stroke="#B25775" stroke-width="0.5" stroke-miterlimit="10" d="M48.184,56.171
	c1.366,0,2.463,1.103,2.463,2.469c0,1.358-1.097,2.463-2.463,2.463c-1.365,0-2.462-1.104-2.462-2.463
	C45.722,57.273,46.818,56.171,48.184,56.171z"/>
<path fill="#CC6281" stroke="#B25775" stroke-width="0.5" stroke-miterlimit="10" d="M40.882,56.171
	c1.365,0,2.462,1.103,2.462,2.469c0,1.358-1.097,2.463-2.462,2.463s-2.462-1.104-2.462-2.463
	C38.42,57.273,39.517,56.171,40.882,56.171z"/>
<path fill="none" stroke="#DDDDDD" stroke-width="0.5" stroke-miterlimit="10" d="M-29.26,70.696v14.274 M-26.795,48.976h7.366
	 M48.184,56.189V41.908"/>
</svg>
