<?xml version="1.0" encoding="utf-8"?>
<!-- Generator: Adobe Illustrator 16.0.0, SVG Export Plug-In . SVG Version: 6.00 Build 0)  -->
<!DOCTYPE svg PUBLIC "-//W3C//DTD SVG 1.1//EN" "http://www.w3.org/Graphics/SVG/1.1/DTD/svg11.dtd">
<svg version="1.1" id="Layer_1" xmlns="http://www.w3.org/2000/svg" xmlns:xlink="http://www.w3.org/1999/xlink" x="0px" y="0px"
	 width="127.559px" height="46.343px" viewBox="0 0 127.559 46.343" enable-background="new 0 0 127.559 46.343"
	 xml:space="preserve">
<g id="git_x5F_workflow_x5F_8">
	<path fill="none" stroke="#DDDDDD" stroke-width="0.5" stroke-miterlimit="10" d="M53.097,26.875c0-3.604,2.936-6.538,6.538-6.538"
		/>
	<path fill="none" stroke="#59AFE1" stroke-width="0.6" stroke-miterlimit="10" d="M46.368,20.337"/>
	<path fill="none" stroke="#DDDDDD" stroke-width="0.5" stroke-miterlimit="10" d="M16.902,26.875c0-3.604-2.934-6.538-6.536-6.538
		 M62.68,20.337H7.797"/>
	<circle fill="#94FFDD" stroke="#88E5C3" stroke-width="0.5" stroke-miterlimit="10" cx="66.028" cy="20.338" r="3.348"/>
	<path fill="none" stroke="#DDDDDD" stroke-width="0.5" stroke-miterlimit="10" d="M16.902,26.875c0,3.604,2.936,6.537,6.537,6.537
		h22.945"/>
	<circle fill="#FFD6D3" stroke="#E5C2C1" stroke-width="0.5" stroke-miterlimit="10" cx="30.008" cy="33.412" r="3.349"/>
	<circle fill="#FFD6D3" stroke="#E5C2C1" stroke-width="0.5" stroke-miterlimit="10" cx="39.974" cy="33.412" r="3.349"/>
	<path fill="none" stroke="#DDDDDD" stroke-width="0.5" stroke-miterlimit="10" d="M46.368,33.412h0.189
		c3.604,0,6.538-2.934,6.538-6.537"/>
	<circle fill="#94FFDD" stroke="#88E5C3" stroke-width="0.5" stroke-miterlimit="10" cx="4.449" cy="20.338" r="3.348"/>
</g>
<path fill="#94FFDD" stroke="#88E5C3" stroke-width="0.5" stroke-miterlimit="10" d="M1.1,1.977h15.116v7.856H1.1V1.977z"/>
<path fill="#404040" d="M4.31,6.849V5.182h0.58c0.425,0,0.802,0.284,0.802,0.834c0,0.551-0.377,0.833-0.802,0.833H4.31z
	 M4.875,6.644c0.31,0,0.562-0.204,0.562-0.628c0-0.426-0.254-0.63-0.562-0.63H4.528v1.258H4.875z M7.074,6.518
	C7.007,6.722,6.82,6.879,6.573,6.879c-0.303,0-0.569-0.22-0.569-0.613c0-0.359,0.253-0.596,0.532-0.596
	c0.347,0,0.554,0.236,0.554,0.596v0.08H6.242c0,0.202,0.153,0.345,0.347,0.345c0.185,0,0.278-0.093,0.31-0.235L7.074,6.518z
	 M6.851,6.157c0-0.158-0.105-0.285-0.313-0.285c-0.188,0-0.294,0.144-0.312,0.285H6.851z M8.033,6.849H7.81L7.337,5.717h0.256
	l0.324,0.881L8.25,5.717h0.236L8.033,6.849z M9.708,6.518C9.646,6.722,9.46,6.879,9.207,6.879c-0.295,0-0.562-0.22-0.562-0.613
	c0-0.359,0.252-0.596,0.547-0.596c0.35,0,0.553,0.236,0.553,0.596v0.08H8.896c0,0.202,0.156,0.345,0.342,0.345
	c0.191,0,0.285-0.093,0.316-0.235L9.708,6.518z M9.492,6.157c0-0.158-0.109-0.285-0.314-0.285c-0.188,0-0.295,0.144-0.312,0.285
	H9.492z M10.119,6.849V5.135h0.223v1.714H10.119z M11.91,6.281c0,0.347-0.234,0.598-0.58,0.598c-0.35,0-0.58-0.251-0.58-0.598
	c0-0.344,0.23-0.596,0.58-0.596C11.662,5.67,11.91,5.938,11.91,6.281z M11.675,6.281c0-0.266-0.16-0.409-0.346-0.409
	c-0.188,0-0.35,0.144-0.35,0.409c0,0.267,0.162,0.409,0.35,0.409C11.515,6.69,11.675,6.533,11.675,6.281z M12.302,7.288V5.717h0.223
	v0.174c0.062-0.111,0.188-0.205,0.373-0.205c0.35,0,0.523,0.268,0.523,0.596c0,0.332-0.191,0.598-0.539,0.598
	c-0.172,0-0.312-0.077-0.357-0.188V7.29h-0.223V7.288z M12.853,5.891c-0.203,0-0.328,0.171-0.328,0.391
	c0,0.236,0.143,0.409,0.328,0.409c0.205,0,0.33-0.173,0.33-0.409C13.199,6.046,13.074,5.891,12.853,5.891z"/>
<path fill="#FFD6D3" stroke="#E5C2C1" stroke-width="0.5" stroke-miterlimit="10" d="M19.216,1.977h15.111v7.856H19.216V1.977z"/>
<path fill="#404040" d="M22.751,6.769V5.104h1.02v0.22h-0.785v0.534h0.709v0.219h-0.709v0.708h-0.232L22.751,6.769L22.751,6.769z
	 M25.06,6.44C25,6.644,24.808,6.802,24.558,6.802c-0.299,0-0.562-0.22-0.562-0.614c0-0.361,0.248-0.598,0.549-0.598
	c0.346,0,0.549,0.236,0.549,0.598v0.078h-0.85c0,0.205,0.152,0.348,0.348,0.348c0.186,0,0.283-0.096,0.314-0.236L25.06,6.44z
	 M24.824,6.076c0-0.154-0.109-0.281-0.312-0.281c-0.193,0-0.301,0.143-0.316,0.281H24.824z M25.734,6.127l0.316-0.051
	c0.062-0.015,0.094-0.046,0.094-0.077c0-0.108-0.078-0.204-0.25-0.204c-0.16,0-0.236,0.096-0.254,0.235l-0.201-0.046
	c0.031-0.221,0.219-0.363,0.473-0.363c0.348,0,0.473,0.189,0.473,0.409v0.567c0,0.093,0.014,0.155,0.014,0.187h-0.221
	c0-0.031-0.016-0.078-0.016-0.156c-0.049,0.078-0.156,0.188-0.359,0.188c-0.236,0-0.377-0.157-0.377-0.346
	C25.392,6.266,25.533,6.141,25.734,6.127z M26.128,6.281V6.235l-0.342,0.046c-0.102,0.016-0.162,0.064-0.162,0.174
	c0,0.078,0.078,0.158,0.191,0.158C25.988,6.614,26.128,6.533,26.128,6.281z M27.101,5.637h0.254v0.205h-0.254V6.44
	c0,0.108,0.051,0.158,0.16,0.158c0.031,0,0.062,0,0.094-0.016v0.187c-0.018,0-0.078,0.016-0.154,0.016
	c-0.191,0-0.314-0.125-0.314-0.329V5.827H26.66V5.622h0.066c0.125,0,0.172-0.077,0.172-0.17V5.263H27.1L27.101,5.637L27.101,5.637z
	 M28.171,6.802c-0.27,0-0.424-0.204-0.424-0.456V5.637h0.219v0.676c0,0.158,0.076,0.301,0.254,0.301c0.17,0,0.264-0.127,0.264-0.285
	V5.655h0.225v0.928c0,0.093,0,0.171,0.014,0.202H28.52c0-0.031-0.02-0.094-0.02-0.141C28.453,6.753,28.312,6.802,28.171,6.802z
	 M29.851,5.858h-0.094c-0.188,0-0.312,0.096-0.312,0.347v0.564h-0.223V5.637h0.223v0.205c0.076-0.172,0.219-0.221,0.344-0.221h0.076
	v0.236L29.851,5.858L29.851,5.858z M31.169,6.44c-0.062,0.204-0.248,0.362-0.502,0.362c-0.295,0-0.564-0.22-0.564-0.614
	c0-0.361,0.254-0.598,0.549-0.598c0.35,0,0.551,0.236,0.551,0.598v0.078h-0.846c0,0.205,0.156,0.348,0.344,0.348
	c0.189,0,0.283-0.096,0.312-0.236L31.169,6.44z M30.953,6.076c0-0.154-0.109-0.281-0.316-0.281c-0.188,0-0.295,0.143-0.316,0.281
	H30.953z"/>
</svg>
