<?xml version="1.0" encoding="utf-8"?>
<!-- Generator: Adobe Illustrator 16.0.4, SVG Export Plug-In . SVG Version: 6.00 Build 0)  -->
<!DOCTYPE svg PUBLIC "-//W3C//DTD SVG 1.1//EN" "http://www.w3.org/Graphics/SVG/1.1/DTD/svg11.dtd">
<svg version="1.1" id="Layer_1" xmlns="http://www.w3.org/2000/svg" xmlns:xlink="http://www.w3.org/1999/xlink" x="0px" y="0px"
	 width="127.559px" height="46.343px" viewBox="0 -12.323 127.559 46.343" enable-background="new 0 -12.323 127.559 46.343"
	 xml:space="preserve">
<g id="git_x5F_workflow_x5F_8">
	<path fill="none" stroke="#404040" stroke-width="0.6" stroke-miterlimit="10" d="M53.097,17.042c0-3.604,2.934-6.538,6.538-6.538"
		/>
	<path fill="none" stroke="#59AFE1" stroke-width="0.6" stroke-miterlimit="10" d="M46.368,10.504"/>
	<path fill="none" stroke="#404040" stroke-width="0.6" stroke-miterlimit="10" d="M16.902,17.042c0-3.604-2.934-6.538-6.538-6.538
		 M62.68,10.504H7.797"/>
	<circle fill="#B18BE8" stroke="#404040" stroke-width="0.6" stroke-miterlimit="10" cx="66.028" cy="10.505" r="3.348"/>
	<path fill="none" stroke="#404040" stroke-width="0.6" stroke-miterlimit="10" d="M16.902,17.042c0,3.604,2.934,6.537,6.537,6.537
		h22.945"/>
	<circle fill="#4ED1A1" stroke="#404040" stroke-width="0.6" stroke-miterlimit="10" cx="30.008" cy="23.579" r="3.349"/>
	<circle fill="#4ED1A1" stroke="#404040" stroke-width="0.6" stroke-miterlimit="10" cx="39.974" cy="23.579" r="3.349"/>
	<path fill="none" stroke="#404040" stroke-width="0.6" stroke-miterlimit="10" d="M46.368,23.579h0.191
		c3.604,0,6.538-2.934,6.538-6.537"/>
	<circle fill="#B18BE8" stroke="#404040" stroke-width="0.6" stroke-miterlimit="10" cx="4.449" cy="10.505" r="3.348"/>
</g>
<path fill="#B18BE8" stroke="#404040" stroke-width="0.6" stroke-linecap="round" stroke-linejoin="round" stroke-miterlimit="10" d="
	M1.1-7.856h15.116V0H1.1V-7.856z"/>
<path fill="#404040" d="M4.31-2.984v-1.667h0.58c0.425,0,0.802,0.284,0.802,0.834c0,0.551-0.377,0.833-0.802,0.833H4.31z
	 M4.875-3.189c0.31,0,0.563-0.204,0.563-0.628c0-0.426-0.254-0.63-0.563-0.63H4.528v1.258H4.875z M7.074-3.315
	C7.007-3.111,6.82-2.954,6.573-2.954c-0.301,0-0.569-0.22-0.569-0.613c0-0.359,0.253-0.596,0.532-0.596
	c0.347,0,0.554,0.236,0.554,0.596v0.08H6.242c0,0.202,0.155,0.345,0.347,0.345c0.185,0,0.278-0.093,0.31-0.235L7.074-3.315z
	 M6.851-3.676c0-0.158-0.107-0.285-0.315-0.285c-0.186,0-0.294,0.144-0.31,0.285H6.851z M8.033-2.984H7.81L7.337-4.116h0.256
	l0.324,0.881L8.25-4.116h0.238L8.033-2.984z M9.708-3.315C9.646-3.111,9.46-2.954,9.207-2.954c-0.295,0-0.562-0.22-0.562-0.613
	c0-0.359,0.252-0.596,0.547-0.596c0.348,0,0.551,0.236,0.551,0.596v0.08H8.896c0,0.202,0.156,0.345,0.342,0.345
	c0.191,0,0.285-0.093,0.316-0.235L9.708-3.315z M9.492-3.676c0-0.158-0.109-0.285-0.314-0.285c-0.188,0-0.295,0.144-0.312,0.285
	H9.492z M10.119-2.984v-1.714h0.223v1.714H10.119z M11.91-3.552c0,0.347-0.234,0.598-0.58,0.598c-0.348,0-0.58-0.251-0.58-0.598
	c0-0.344,0.232-0.596,0.58-0.596C11.662-4.163,11.91-3.895,11.91-3.552z M11.675-3.552c0-0.266-0.16-0.409-0.346-0.409
	s-0.348,0.144-0.348,0.409c0,0.267,0.162,0.409,0.348,0.409S11.675-3.3,11.675-3.552z M12.302-2.545v-1.571h0.223v0.174
	c0.062-0.111,0.186-0.205,0.373-0.205c0.348,0,0.523,0.268,0.523,0.596c0,0.332-0.191,0.598-0.539,0.598
	c-0.172,0-0.311-0.077-0.357-0.188v0.598H12.302z M12.853-3.942c-0.203,0-0.328,0.171-0.328,0.391c0,0.236,0.141,0.409,0.328,0.409
	c0.205,0,0.33-0.173,0.33-0.409C13.199-3.787,13.074-3.942,12.853-3.942z"/>
<path fill="#4ED1A1" stroke="#404040" stroke-width="0.6" stroke-linecap="round" stroke-linejoin="round" stroke-miterlimit="10" d="
	M19.216-7.856h15.111V0H19.216V-7.856z"/>
<path fill="#404040" d="M22.751-3.064v-1.665h1.02v0.22h-0.785v0.534h0.709v0.219h-0.709v0.708h-0.234V-3.064z M25.06-3.393
	C25-3.189,24.808-3.031,24.558-3.031c-0.299,0-0.562-0.22-0.562-0.614c0-0.361,0.248-0.598,0.549-0.598
	c0.346,0,0.549,0.236,0.549,0.598v0.078h-0.85c0,0.205,0.154,0.348,0.348,0.348c0.186,0,0.283-0.096,0.314-0.236L25.06-3.393z
	 M24.824-3.757c0-0.154-0.109-0.281-0.311-0.281c-0.193,0-0.301,0.143-0.316,0.281H24.824z M25.734-3.706l0.316-0.051
	c0.062-0.015,0.094-0.046,0.094-0.077c0-0.108-0.078-0.204-0.25-0.204c-0.16,0-0.238,0.096-0.254,0.235l-0.201-0.046
	c0.031-0.221,0.217-0.363,0.471-0.363c0.348,0,0.473,0.189,0.473,0.409v0.567c0,0.093,0.014,0.155,0.014,0.187h-0.221
	c0-0.031-0.016-0.078-0.016-0.156c-0.047,0.078-0.156,0.188-0.359,0.188c-0.236,0-0.377-0.157-0.377-0.346
	C25.392-3.567,25.533-3.692,25.734-3.706z M26.128-3.552v-0.046l-0.342,0.046c-0.1,0.016-0.162,0.064-0.162,0.174
	c0,0.078,0.078,0.158,0.193,0.158C25.988-3.219,26.128-3.3,26.128-3.552z M27.101-4.196h0.254v0.205h-0.254v0.598
	c0,0.108,0.051,0.158,0.16,0.158c0.031,0,0.062,0,0.094-0.016v0.187c-0.018,0-0.078,0.016-0.156,0.016
	c-0.191,0-0.314-0.125-0.314-0.329v-0.629H26.66v-0.205h0.068c0.125,0,0.172-0.077,0.172-0.17v-0.189h0.201V-4.196z M28.171-3.031
	c-0.268,0-0.424-0.204-0.424-0.456v-0.709h0.219v0.676c0,0.158,0.076,0.301,0.254,0.301c0.17,0,0.264-0.127,0.264-0.285v-0.674
	h0.223v0.928c0,0.093,0,0.171,0.014,0.202h-0.201c0-0.031-0.02-0.094-0.02-0.141C28.453-3.08,28.312-3.031,28.171-3.031z
	 M29.851-3.975h-0.094c-0.188,0-0.311,0.096-0.311,0.347v0.564h-0.223v-1.132h0.223v0.205c0.076-0.172,0.217-0.221,0.342-0.221
	h0.076v0.236H29.851z M31.169-3.393c-0.062,0.204-0.248,0.362-0.502,0.362c-0.295,0-0.564-0.22-0.564-0.614
	c0-0.361,0.254-0.598,0.549-0.598c0.348,0,0.549,0.236,0.549,0.598v0.078h-0.844c0,0.205,0.156,0.348,0.342,0.348
	c0.191,0,0.285-0.096,0.314-0.236L31.169-3.393z M30.953-3.757c0-0.154-0.109-0.281-0.316-0.281c-0.188,0-0.295,0.143-0.316,0.281
	H30.953z"/>
</svg>
