<?xml version="1.0" encoding="utf-8"?>
<!-- Generator: Adobe Illustrator 16.0.0, SVG Export Plug-In . SVG Version: 6.00 Build 0)  -->
<!DOCTYPE svg PUBLIC "-//W3C//DTD SVG 1.1//EN" "http://www.w3.org/Graphics/SVG/1.1/DTD/svg11.dtd">
<svg version="1.1" id="Layer_1" xmlns="http://www.w3.org/2000/svg" xmlns:xlink="http://www.w3.org/1999/xlink" x="0px" y="0px"
	 width="127.559px" height="51.635px" viewBox="0 0 127.559 51.635" enable-background="new 0 0 127.559 51.635"
	 xml:space="preserve">
<circle fill="#4BD6BA" cx="42.765" cy="47.159" r="3.248"/>
<circle fill="#62B3CC" stroke="#57A1B2" stroke-width="0.5" stroke-miterlimit="10" cx="42.765" cy="21.798" r="3.248"/>
<path fill="none" stroke="#DDDDDD" stroke-width="0.5" stroke-miterlimit="10" d="M28.43,40.817c0,3.496,2.846,6.341,6.34,6.341
	h4.747 M28.43,40.817c0-3.494-2.845-6.34-6.34-6.34H2.807l0,0 M28.43,28.14c0-3.495,2.846-6.341,6.34-6.341h4.747 M28.43,28.14
	c0,3.494-2.845,6.34-6.34,6.34"/>
<circle fill="#CC6281" stroke="#B25775" stroke-width="0.5" stroke-miterlimit="10" cx="15.703" cy="34.479" r="3.247"/>
<circle fill="#CC6281" stroke="#B25775" stroke-width="0.5" stroke-miterlimit="10" cx="6.054" cy="34.479" r="3.247"/>
<g>
	<rect x="2" y="2" fill="#62B3CC" stroke="#57A1B2" stroke-width="0.5" stroke-miterlimit="10" width="20" height="7"/>
	<g>
		<path fill="#40767C" d="M9.119,6.646V5.215L8.626,6.258h-0.24L7.881,5.215v1.431H7.556v-2.14h0.324l0.625,1.332l0.613-1.332h0.325
			v2.14H9.119z"/>
		<path fill="#40767C" d="M10.78,6.646V6.507c-0.111,0.111-0.216,0.156-0.406,0.156s-0.315-0.045-0.409-0.138
			c-0.078-0.081-0.12-0.199-0.12-0.328c0-0.256,0.177-0.439,0.526-0.439h0.403V5.65c0-0.192-0.096-0.286-0.333-0.286
			c-0.168,0-0.25,0.039-0.334,0.147L9.905,5.323c0.144-0.168,0.294-0.219,0.547-0.219c0.418,0,0.628,0.177,0.628,0.523v1.019H10.78z
			 M10.774,5.972h-0.358c-0.18,0-0.273,0.081-0.273,0.219c0,0.139,0.087,0.217,0.28,0.217c0.117,0,0.204-0.009,0.286-0.087
			c0.045-0.045,0.066-0.117,0.066-0.226V5.972z"/>
		<path fill="#40767C" d="M12.042,6.664c-0.25,0-0.46-0.042-0.64-0.219l0.201-0.202c0.124,0.126,0.289,0.159,0.439,0.159
			c0.187,0,0.334-0.066,0.334-0.21c0-0.102-0.057-0.168-0.205-0.18L11.927,5.99c-0.286-0.024-0.451-0.153-0.451-0.421
			c0-0.297,0.255-0.466,0.574-0.466c0.229,0,0.424,0.048,0.565,0.171L12.424,5.47c-0.096-0.081-0.231-0.111-0.375-0.111
			c-0.184,0-0.277,0.081-0.277,0.195c0,0.09,0.048,0.16,0.21,0.174l0.241,0.021c0.286,0.024,0.454,0.16,0.454,0.43
			C12.676,6.498,12.406,6.664,12.042,6.664z"/>
		<path fill="#40767C" d="M13.47,6.646c-0.286,0-0.417-0.205-0.417-0.424V5.383h-0.175V5.148h0.175V4.686h0.306v0.463h0.295v0.234
			h-0.295v0.824c0,0.111,0.054,0.177,0.168,0.177h0.126v0.262H13.47z"/>
		<path fill="#40767C" d="M14.259,5.972c0,0.262,0.139,0.427,0.388,0.427c0.171,0,0.261-0.048,0.37-0.156l0.195,0.184
			c-0.156,0.156-0.304,0.237-0.571,0.237c-0.382,0-0.685-0.202-0.685-0.782c0-0.493,0.255-0.778,0.646-0.778
			c0.409,0,0.646,0.3,0.646,0.733v0.135H14.259z M14.902,5.551c-0.048-0.114-0.156-0.192-0.301-0.192
			c-0.144,0-0.255,0.078-0.304,0.192c-0.03,0.069-0.036,0.114-0.039,0.208h0.686C14.941,5.666,14.932,5.621,14.902,5.551z"/>
		<path fill="#40767C" d="M16.489,5.479C16.42,5.41,16.365,5.377,16.26,5.377c-0.165,0-0.303,0.132-0.303,0.343v0.926H15.65V5.122
			h0.3v0.165c0.078-0.108,0.234-0.183,0.406-0.183c0.147,0,0.259,0.039,0.364,0.144L16.489,5.479z"/>
	</g>
</g>
<g>
	<rect x="25" y="2" fill="#4BD6BA" stroke="#43BA9E" stroke-width="0.5" stroke-miterlimit="10" width="20" height="7"/>
	<g>
		<path fill="#3B9E84" d="M31.22,6.444c-0.135,0.135-0.331,0.201-0.553,0.201h-0.751v-2.14h0.751c0.222,0,0.417,0.066,0.553,0.201
			c0.231,0.231,0.217,0.544,0.217,0.854S31.452,6.213,31.22,6.444z M30.998,4.941c-0.09-0.099-0.21-0.144-0.364-0.144H30.24v1.557
			h0.394c0.153,0,0.273-0.045,0.364-0.145c0.111-0.123,0.114-0.354,0.114-0.649C31.113,5.266,31.11,5.064,30.998,4.941z"/>
		<path fill="#3B9E84" d="M32.103,5.972c0,0.262,0.139,0.427,0.388,0.427c0.171,0,0.261-0.048,0.37-0.156l0.195,0.184
			c-0.156,0.156-0.304,0.237-0.571,0.237c-0.382,0-0.685-0.202-0.685-0.782c0-0.493,0.255-0.778,0.646-0.778
			c0.409,0,0.646,0.3,0.646,0.733v0.135H32.103z M32.747,5.551c-0.048-0.114-0.156-0.192-0.301-0.192
			c-0.144,0-0.255,0.078-0.304,0.192c-0.03,0.069-0.036,0.114-0.039,0.208h0.686C32.786,5.666,32.777,5.621,32.747,5.551z"/>
		<path fill="#3B9E84" d="M34.054,6.646h-0.25l-0.559-1.524h0.325l0.361,1.073l0.357-1.073h0.325L34.054,6.646z"/>
		<path fill="#3B9E84" d="M35.073,5.972c0,0.262,0.139,0.427,0.388,0.427c0.171,0,0.261-0.048,0.37-0.156l0.195,0.184
			c-0.156,0.156-0.304,0.237-0.571,0.237c-0.382,0-0.685-0.202-0.685-0.782c0-0.493,0.255-0.778,0.646-0.778
			c0.409,0,0.646,0.3,0.646,0.733v0.135H35.073z M35.717,5.551c-0.048-0.114-0.156-0.192-0.301-0.192
			c-0.144,0-0.255,0.078-0.304,0.192c-0.03,0.069-0.036,0.114-0.039,0.208h0.686C35.756,5.666,35.746,5.621,35.717,5.551z"/>
		<path fill="#3B9E84" d="M36.874,6.646c-0.292,0-0.418-0.195-0.418-0.421V4.505h0.307v1.701c0,0.117,0.042,0.177,0.166,0.177h0.135
			v0.262H36.874z"/>
		<path fill="#3B9E84" d="M38.357,6.483c-0.1,0.102-0.25,0.18-0.457,0.18s-0.355-0.078-0.454-0.18
			c-0.144-0.15-0.18-0.343-0.18-0.602c0-0.255,0.036-0.448,0.18-0.598c0.099-0.102,0.247-0.18,0.454-0.18s0.357,0.078,0.457,0.18
			c0.144,0.15,0.18,0.343,0.18,0.598C38.537,6.141,38.501,6.333,38.357,6.483z M38.126,5.464C38.069,5.407,37.99,5.377,37.9,5.377
			s-0.166,0.03-0.223,0.087c-0.093,0.093-0.105,0.252-0.105,0.417c0,0.166,0.012,0.325,0.105,0.418
			c0.057,0.057,0.132,0.09,0.223,0.09s0.168-0.033,0.226-0.09c0.093-0.093,0.105-0.252,0.105-0.418
			C38.231,5.717,38.219,5.557,38.126,5.464z"/>
		<path fill="#3B9E84" d="M40.025,6.528c-0.084,0.084-0.217,0.135-0.37,0.135c-0.162,0-0.289-0.042-0.399-0.174v0.772h-0.307v-2.14
			h0.3v0.162c0.114-0.138,0.238-0.18,0.403-0.18c0.153,0,0.289,0.051,0.373,0.135c0.153,0.153,0.171,0.412,0.171,0.643
			S40.178,6.375,40.025,6.528z M39.574,5.377c-0.276,0-0.318,0.234-0.318,0.505s0.042,0.508,0.318,0.508
			c0.277,0,0.316-0.238,0.316-0.508S39.851,5.377,39.574,5.377z"/>
	</g>
</g>
<g>
	<rect x="48" y="2" fill="#CC6281" stroke="#B25775" stroke-width="0.5" stroke-miterlimit="10" width="20" height="7"/>
	<g>
		<path fill="#7C3E56" d="M54.082,6.646l-0.451-0.902h-0.406v0.902h-0.324v-2.14h0.83c0.406,0,0.664,0.261,0.664,0.625
			c0,0.307-0.186,0.502-0.427,0.568l0.493,0.947H54.082z M53.706,4.797h-0.481v0.67h0.481c0.217,0,0.364-0.124,0.364-0.334
			S53.923,4.797,53.706,4.797z"/>
		<path fill="#7C3E56" d="M55.054,5.972c0,0.262,0.139,0.427,0.388,0.427c0.171,0,0.261-0.048,0.37-0.156l0.195,0.184
			c-0.156,0.156-0.304,0.237-0.571,0.237c-0.382,0-0.685-0.202-0.685-0.782c0-0.493,0.255-0.778,0.646-0.778
			c0.409,0,0.646,0.3,0.646,0.733v0.135H55.054z M55.698,5.551c-0.048-0.114-0.156-0.192-0.301-0.192
			c-0.144,0-0.255,0.078-0.304,0.192c-0.03,0.069-0.036,0.114-0.039,0.208h0.686C55.737,5.666,55.728,5.621,55.698,5.551z"/>
		<path fill="#7C3E56" d="M56.855,6.646c-0.292,0-0.418-0.195-0.418-0.421V4.505h0.307v1.701c0,0.117,0.042,0.177,0.166,0.177h0.135
			v0.262H56.855z"/>
		<path fill="#7C3E56" d="M57.53,5.972c0,0.262,0.139,0.427,0.388,0.427c0.171,0,0.261-0.048,0.37-0.156l0.195,0.184
			c-0.156,0.156-0.304,0.237-0.571,0.237c-0.382,0-0.685-0.202-0.685-0.782c0-0.493,0.255-0.778,0.646-0.778
			c0.409,0,0.646,0.3,0.646,0.733v0.135H57.53z M58.173,5.551c-0.048-0.114-0.156-0.192-0.301-0.192
			c-0.144,0-0.255,0.078-0.304,0.192c-0.03,0.069-0.036,0.114-0.039,0.208h0.686C58.212,5.666,58.203,5.621,58.173,5.551z"/>
		<path fill="#7C3E56" d="M59.742,6.646V6.507c-0.111,0.111-0.216,0.156-0.406,0.156s-0.315-0.045-0.409-0.138
			c-0.078-0.081-0.12-0.199-0.12-0.328c0-0.256,0.177-0.439,0.526-0.439h0.403V5.65c0-0.192-0.096-0.286-0.333-0.286
			c-0.168,0-0.25,0.039-0.334,0.147l-0.201-0.189c0.144-0.168,0.294-0.219,0.547-0.219c0.418,0,0.628,0.177,0.628,0.523v1.019
			H59.742z M59.736,5.972h-0.358c-0.18,0-0.273,0.081-0.273,0.219c0,0.139,0.087,0.217,0.28,0.217c0.117,0,0.204-0.009,0.286-0.087
			c0.045-0.045,0.066-0.117,0.066-0.226V5.972z"/>
		<path fill="#7C3E56" d="M61.004,6.664c-0.25,0-0.46-0.042-0.64-0.219l0.201-0.202c0.124,0.126,0.289,0.159,0.439,0.159
			c0.187,0,0.334-0.066,0.334-0.21c0-0.102-0.057-0.168-0.205-0.18L60.89,5.99c-0.285-0.024-0.451-0.153-0.451-0.421
			c0-0.297,0.255-0.466,0.574-0.466c0.229,0,0.424,0.048,0.565,0.171L61.386,5.47c-0.096-0.081-0.231-0.111-0.375-0.111
			c-0.184,0-0.277,0.081-0.277,0.195c0,0.09,0.048,0.16,0.21,0.174l0.241,0.021c0.285,0.024,0.454,0.16,0.454,0.43
			C61.638,6.498,61.368,6.664,61.004,6.664z"/>
		<path fill="#7C3E56" d="M62.234,5.972c0,0.262,0.139,0.427,0.388,0.427c0.171,0,0.261-0.048,0.37-0.156l0.195,0.184
			c-0.156,0.156-0.304,0.237-0.571,0.237c-0.382,0-0.685-0.202-0.685-0.782c0-0.493,0.255-0.778,0.646-0.778
			c0.409,0,0.646,0.3,0.646,0.733v0.135H62.234z M62.877,5.551c-0.048-0.114-0.156-0.192-0.301-0.192
			c-0.144,0-0.255,0.078-0.304,0.192c-0.03,0.069-0.036,0.114-0.039,0.208h0.686C62.916,5.666,62.907,5.621,62.877,5.551z"/>
	</g>
</g>
</svg>
