<?xml version="1.0" encoding="utf-8"?>
<!-- Generator: Adobe Illustrator 16.0.0, SVG Export Plug-In . SVG Version: 6.00 Build 0)  -->
<!DOCTYPE svg PUBLIC "-//W3C//DTD SVG 1.1//EN" "http://www.w3.org/Graphics/SVG/1.1/DTD/svg11.dtd">
<svg version="1.1" id="Layer_1" xmlns="http://www.w3.org/2000/svg" xmlns:xlink="http://www.w3.org/1999/xlink" x="0px" y="0px"
	 width="127.559px" height="46.343px" viewBox="0 0 127.559 46.343" enable-background="new 0 0 127.559 46.343"
	 xml:space="preserve">
<g id="git_x5F_workflow_x5F_8">
	<path fill="none" stroke="#DDDDDD" stroke-width="0.5" stroke-miterlimit="10" d="M53.996,26.875c0-3.604,2.937-6.538,6.538-6.538"
		/>
	<path fill="none" stroke="#59AFE1" stroke-width="0.6" stroke-miterlimit="10" d="M47.268,20.337"/>
	<path fill="none" stroke="#DDDDDD" stroke-width="0.5" stroke-miterlimit="10" d="M17.801,26.875c0-3.604-2.934-6.538-6.535-6.538
		 M63.579,20.337H8.697"/>
	<circle fill="#4BD6BA" stroke="#43BA9E" stroke-width="0.5" stroke-miterlimit="10" cx="66.927" cy="20.338" r="3.348"/>
	<path fill="none" stroke="#DDDDDD" stroke-width="0.5" stroke-miterlimit="10" d="M17.801,26.875c0,3.604,2.937,6.537,6.537,6.537
		h22.945"/>
	<circle fill="#FFD6D3" stroke="#E5C2C1" stroke-width="0.5" stroke-miterlimit="10" cx="30.907" cy="33.412" r="3.349"/>
	<circle fill="#FFD6D3" stroke="#E5C2C1" stroke-width="0.5" stroke-miterlimit="10" cx="40.873" cy="33.412" r="3.349"/>
	<path fill="none" stroke="#DDDDDD" stroke-width="0.5" stroke-miterlimit="10" d="M47.268,33.412h0.188
		c3.604,0,6.538-2.934,6.538-6.537"/>
	<circle fill="#4BD6BA" stroke="#43BA9E" stroke-width="0.5" stroke-miterlimit="10" cx="5.349" cy="20.338" r="3.348"/>
</g>
<g>
	<rect x="2.632" y="2" fill="#4BD6BA" stroke="#43BA9E" stroke-width="0.5" stroke-miterlimit="10" width="20" height="7"/>
	<text transform="matrix(1 0 0 1 7.2078 6.6455)" fill="#3B9E84" font-family="'DINPro-Medium'" font-size="3">Develop</text>
</g>
<g>
	<rect x="25.631" y="2" fill="#FFD6D3" stroke="#E5C2C1" stroke-width="0.5" stroke-miterlimit="10" width="20" height="7"/>
	<text transform="matrix(1 0 0 1 30.3186 6.6455)" fill="#AF9595" font-family="'DINPro-Medium'" font-size="3">Feature</text>
</g>
</svg>
