<?xml version="1.0" encoding="utf-8"?>
<!-- Generator: Adobe Illustrator 16.0.0, SVG Export Plug-In . SVG Version: 6.00 Build 0)  -->
<!DOCTYPE svg PUBLIC "-//W3C//DTD SVG 1.1//EN" "http://www.w3.org/Graphics/SVG/1.1/DTD/svg11.dtd">
<svg version="1.1" id="Layer_1" xmlns="http://www.w3.org/2000/svg" xmlns:xlink="http://www.w3.org/1999/xlink" x="0px" y="0px"
	 width="127.559px" height="51.635px" viewBox="0 0 127.559 51.635" enable-background="new 0 0 127.559 51.635"
	 xml:space="preserve">
<circle fill="#94FFDD" stroke="#88E5C3" stroke-width="0.5" stroke-miterlimit="10" cx="42.765" cy="47.159" r="3.248"/>
<circle fill="#62B3CC" stroke="#57A1B2" stroke-width="0.5" stroke-miterlimit="10" cx="42.765" cy="21.798" r="3.248"/>
<path fill="none" stroke="#DDDDDD" stroke-width="0.5" stroke-miterlimit="10" d="M28.43,40.818c0,3.495,2.846,6.34,6.34,6.34h4.747
	 M28.43,40.818c0-3.495-2.845-6.34-6.34-6.34H2.807l0,0 M28.43,28.14c0-3.495,2.846-6.341,6.34-6.341h4.747 M28.43,28.14
	c0,3.494-2.845,6.34-6.34,6.34"/>
<circle fill="#CC6281" stroke="#B25775" stroke-width="0.5" stroke-miterlimit="10" cx="15.703" cy="34.479" r="3.247"/>
<circle fill="#CC6281" stroke="#B25775" stroke-width="0.5" stroke-miterlimit="10" cx="6.054" cy="34.479" r="3.247"/>
<path fill="#CC6281" stroke="#B25775" stroke-width="0.5" stroke-miterlimit="10" d="M2.807,2.694h15.111v7.857H2.807V2.694z"/>
<path fill="#404040" d="M6.781,6.875H6.529v0.674H6.295v-1.65h0.627c0.313,0,0.52,0.219,0.52,0.504c0,0.236-0.157,0.425-0.409,0.472
	l0.395,0.708h-0.27L6.781,6.875z M6.891,6.67c0.189,0,0.314-0.111,0.314-0.283c0-0.173-0.125-0.284-0.314-0.284H6.545V6.67H6.891z
	 M8.792,7.235C8.729,7.439,8.539,7.596,8.288,7.596c-0.298,0-0.565-0.219-0.565-0.613c0-0.359,0.252-0.596,0.55-0.596
	c0.348,0,0.552,0.236,0.552,0.596v0.08h-0.85c0,0.203,0.157,0.345,0.346,0.345s0.283-0.094,0.313-0.236L8.792,7.235z M8.572,6.875
	c0-0.158-0.11-0.285-0.313-0.285c-0.189,0-0.299,0.144-0.314,0.285H8.572z M9.199,7.566V5.853H9.42v1.714H9.199z M10.912,7.235
	C10.85,7.439,10.66,7.596,10.41,7.596c-0.301,0-0.566-0.219-0.566-0.613c0-0.359,0.252-0.596,0.55-0.596
	c0.348,0,0.551,0.236,0.551,0.596v0.08h-0.849c0,0.203,0.156,0.345,0.345,0.345c0.189,0,0.284-0.094,0.315-0.236L10.912,7.235z
	 M10.691,6.875c0-0.158-0.108-0.285-0.312-0.285c-0.189,0-0.299,0.144-0.314,0.285H10.691z M11.588,6.921l0.313-0.047
	c0.062-0.017,0.095-0.047,0.095-0.081c0-0.108-0.078-0.204-0.251-0.204c-0.157,0-0.235,0.096-0.253,0.238l-0.22-0.049
	c0.031-0.22,0.22-0.36,0.473-0.36c0.346,0,0.472,0.189,0.472,0.409v0.549c0,0.094,0.015,0.156,0.015,0.189h-0.234
	c0-0.033-0.017-0.08-0.017-0.158c-0.047,0.078-0.157,0.188-0.359,0.188c-0.237,0-0.378-0.156-0.378-0.346
	C11.242,7.063,11.399,6.937,11.588,6.921z M11.98,7.079V7.03l-0.346,0.049c-0.094,0.016-0.158,0.062-0.158,0.171
	c0,0.08,0.08,0.158,0.189,0.158C11.839,7.408,11.98,7.331,11.98,7.079z M12.766,7.204c0.018,0.126,0.111,0.205,0.269,0.205
	c0.125,0,0.188-0.078,0.188-0.158c0-0.062-0.048-0.125-0.142-0.14l-0.188-0.047c-0.174-0.033-0.283-0.158-0.283-0.315
	c0-0.188,0.188-0.36,0.408-0.36c0.314,0,0.408,0.202,0.424,0.298l-0.188,0.078c-0.018-0.062-0.064-0.188-0.236-0.188
	c-0.109,0-0.188,0.08-0.188,0.158c0,0.061,0.049,0.125,0.126,0.142l0.188,0.047c0.205,0.046,0.314,0.173,0.314,0.329
	c0,0.158-0.142,0.346-0.408,0.346c-0.314,0-0.439-0.203-0.456-0.33L12.766,7.204z M14.824,7.235
	c-0.063,0.205-0.254,0.361-0.505,0.361c-0.297,0-0.564-0.219-0.564-0.613c0-0.359,0.253-0.596,0.55-0.596
	c0.346,0,0.551,0.236,0.551,0.596v0.08h-0.848c0,0.203,0.156,0.345,0.345,0.345c0.189,0,0.282-0.094,0.313-0.236L14.824,7.235z
	 M14.604,6.875c0-0.158-0.108-0.285-0.313-0.285c-0.188,0-0.299,0.144-0.314,0.285H14.604z"/>
<path fill="#94FFDD" stroke="#88E5C3" stroke-width="0.5" stroke-miterlimit="10" d="M20.233,2.694H35.35v7.856H20.233V2.694z"/>
<path fill="#404040" d="M23.443,7.566V5.899h0.58c0.426,0,0.803,0.284,0.803,0.834c0,0.551-0.377,0.833-0.803,0.833H23.443z
	 M24.009,7.361c0.31,0,0.562-0.204,0.562-0.628c0-0.426-0.254-0.63-0.562-0.63h-0.348v1.258H24.009z M26.207,7.235
	c-0.066,0.204-0.254,0.361-0.501,0.361c-0.302,0-0.569-0.22-0.569-0.613c0-0.359,0.253-0.596,0.532-0.596
	c0.347,0,0.554,0.236,0.554,0.596v0.08h-0.848c0,0.202,0.154,0.345,0.347,0.345c0.186,0,0.278-0.093,0.311-0.235L26.207,7.235z
	 M25.984,6.875c0-0.158-0.106-0.285-0.314-0.285c-0.187,0-0.294,0.144-0.311,0.285H25.984z M27.166,7.566h-0.224L26.47,6.435h0.256
	l0.324,0.881l0.332-0.881h0.238L27.166,7.566z M28.842,7.235c-0.062,0.204-0.248,0.361-0.502,0.361c-0.295,0-0.562-0.22-0.562-0.613
	c0-0.359,0.252-0.596,0.548-0.596c0.348,0,0.551,0.236,0.551,0.596v0.08H28.03c0,0.202,0.156,0.345,0.343,0.345
	c0.19,0,0.285-0.093,0.315-0.235L28.842,7.235z M28.625,6.875c0-0.158-0.109-0.285-0.314-0.285c-0.188,0-0.295,0.144-0.312,0.285
	H28.625z M29.252,7.566V5.853h0.223v1.714H29.252z M31.043,7c0,0.347-0.234,0.598-0.58,0.598c-0.348,0-0.58-0.251-0.58-0.598
	c0-0.344,0.232-0.596,0.58-0.596C30.795,6.388,31.043,6.655,31.043,7z M30.809,7c0-0.266-0.16-0.409-0.346-0.409
	c-0.187,0-0.348,0.144-0.348,0.409c0,0.267,0.161,0.409,0.348,0.409C30.649,7.408,30.809,7.251,30.809,7z M31.436,8.006V6.436h0.224
	v0.174c0.062-0.111,0.186-0.205,0.373-0.205c0.348,0,0.522,0.268,0.522,0.596c0,0.332-0.19,0.598-0.539,0.598
	c-0.172,0-0.311-0.077-0.356-0.188v0.598h-0.224V8.006z M31.986,6.608c-0.202,0-0.327,0.171-0.327,0.391
	c0,0.236,0.141,0.409,0.327,0.409c0.205,0,0.33-0.173,0.33-0.409C32.332,6.764,32.207,6.608,31.986,6.608z"/>
<path fill="#62B3CC" stroke="#57A1B2" stroke-width="0.5" stroke-miterlimit="10" d="M37.35,2.694h15.113v7.857H37.35V2.694z"/>
<path fill="#404040" d="M42.801,7.566V6.261l-0.565,1.305h-0.202l-0.565-1.305v1.305H41.23V5.899h0.314l0.598,1.367l0.596-1.367
	h0.315v1.667H42.801z M43.807,6.921l0.299-0.047C44.168,6.857,44.2,6.827,44.2,6.793c0-0.108-0.078-0.204-0.252-0.204
	c-0.156,0-0.235,0.096-0.252,0.238l-0.203-0.049c0.017-0.22,0.22-0.36,0.473-0.36c0.346,0,0.471,0.189,0.471,0.409v0.549
	c0,0.094,0.017,0.156,0.017,0.189H44.23c0-0.033-0.015-0.08-0.015-0.158c-0.048,0.078-0.158,0.188-0.361,0.188
	c-0.234,0-0.378-0.156-0.378-0.346C43.461,7.063,43.619,6.937,43.807,6.921z M44.199,7.079V7.03l-0.346,0.049
	c-0.095,0.016-0.158,0.062-0.158,0.171c0,0.08,0.063,0.158,0.188,0.158C44.058,7.408,44.199,7.331,44.199,7.079z M44.986,7.204
	c0.017,0.126,0.109,0.205,0.267,0.205c0.126,0,0.188-0.078,0.188-0.158c0-0.062-0.049-0.125-0.143-0.14L45.11,7.064
	c-0.174-0.033-0.282-0.158-0.282-0.315c0-0.188,0.188-0.36,0.407-0.36c0.314,0,0.408,0.202,0.426,0.298l-0.188,0.078
	c-0.016-0.062-0.062-0.188-0.236-0.188c-0.108,0-0.188,0.08-0.188,0.158c0,0.061,0.049,0.125,0.127,0.142l0.188,0.047
	c0.205,0.046,0.315,0.173,0.315,0.329c0,0.158-0.143,0.346-0.409,0.346c-0.313,0-0.438-0.203-0.455-0.33L44.986,7.204z
	 M46.368,6.435h0.251v0.205h-0.251v0.58c0,0.111,0.046,0.158,0.154,0.158c0.032,0,0.064,0,0.097-0.016v0.188
	c-0.017,0-0.079,0.018-0.156,0.018c-0.189,0-0.314-0.127-0.314-0.332V6.608h-0.221V6.435h0.062c0.127,0,0.174-0.08,0.174-0.173
	V6.073h0.204V6.435z M48.002,7.235c-0.063,0.205-0.252,0.361-0.503,0.361c-0.3,0-0.565-0.219-0.565-0.613
	c0-0.359,0.251-0.596,0.55-0.596c0.347,0,0.551,0.236,0.551,0.596v0.062h-0.85c0,0.205,0.157,0.347,0.347,0.347
	c0.188,0,0.281-0.094,0.312-0.236L48.002,7.235z M47.781,6.875c0-0.158-0.11-0.285-0.314-0.285c-0.188,0-0.299,0.144-0.312,0.285
	H47.781z M49.037,6.655h-0.095c-0.188,0-0.312,0.093-0.312,0.344v0.568h-0.22V6.436h0.22V6.64c0.078-0.174,0.22-0.221,0.346-0.221
	h0.077v0.236H49.037z"/>
</svg>
