<?xml version="1.0" encoding="utf-8"?>
<!-- Generator: Adobe Illustrator 16.0.4, SVG Export Plug-In . SVG Version: 6.00 Build 0)  -->
<!DOCTYPE svg PUBLIC "-//W3C//DTD SVG 1.1//EN" "http://www.w3.org/Graphics/SVG/1.1/DTD/svg11.dtd">
<svg version="1.1" id="Layer_1" xmlns="http://www.w3.org/2000/svg" xmlns:xlink="http://www.w3.org/1999/xlink" x="0px" y="0px"
	 width="127.559px" height="51.635px" viewBox="0 -17.615 127.559 51.635" enable-background="new 0 -17.615 127.559 51.635"
	 xml:space="preserve">
<circle fill="#B18BE8" stroke="#404040" stroke-width="0.6" stroke-miterlimit="10" cx="42.765" cy="29.799" r="3.248"/>
<circle fill="#B3E3FF" stroke="#404040" stroke-width="0.6" stroke-miterlimit="10" cx="42.765" cy="4.438" r="3.248"/>
<path fill="none" stroke="#404040" stroke-width="0.6" stroke-miterlimit="10" d="M28.43,23.458c0,3.495,2.846,6.34,6.34,6.34h4.747
	 M28.43,23.458c0-3.495-2.845-6.34-6.34-6.34H2.807l0,0 M28.43,10.779c0-3.495,2.846-6.341,6.34-6.341h4.747 M28.43,10.779
	c0,3.494-2.845,6.34-6.34,6.34"/>
<circle fill="#4CD3D6" stroke="#404040" stroke-width="0.6" stroke-linejoin="round" stroke-miterlimit="10" cx="15.703" cy="17.118" r="3.247"/>
<circle fill="#4CD3D6" stroke="#404040" stroke-width="0.6" stroke-linejoin="round" stroke-miterlimit="10" cx="6.054" cy="17.118" r="3.247"/>
<path fill="#4CD3D6" stroke="#404040" stroke-width="0.6" stroke-linecap="round" stroke-linejoin="round" stroke-miterlimit="10" d="
	M2.807-14.666h15.111v7.857H2.807V-14.666z"/>
<path fill="#404040" d="M6.781-10.486H6.529v0.674H6.295v-1.65h0.627c0.314,0,0.52,0.219,0.52,0.504c0,0.236-0.158,0.425-0.41,0.472
	l0.395,0.708H7.157L6.781-10.486z M6.891-10.69c0.189,0,0.314-0.111,0.314-0.283c0-0.173-0.125-0.284-0.314-0.284H6.545v0.567H6.891
	z M8.792-10.125C8.729-9.921,8.539-9.764,8.288-9.764c-0.298,0-0.565-0.219-0.565-0.613c0-0.359,0.252-0.596,0.55-0.596
	c0.347,0,0.551,0.236,0.551,0.596v0.08H7.975c0,0.203,0.157,0.345,0.346,0.345c0.188,0,0.283-0.094,0.313-0.236L8.792-10.125z
	 M8.572-10.486c0-0.158-0.111-0.285-0.314-0.285c-0.189,0-0.299,0.144-0.314,0.285H8.572z M9.199-9.794v-1.714H9.42v1.714H9.199z
	 M10.912-10.125C10.85-9.921,10.66-9.764,10.41-9.764c-0.3,0-0.566-0.219-0.566-0.613c0-0.359,0.252-0.596,0.55-0.596
	c0.347,0,0.551,0.236,0.551,0.596v0.08h-0.849c0,0.203,0.156,0.345,0.345,0.345c0.189,0,0.284-0.094,0.315-0.236L10.912-10.125z
	 M10.691-10.486c0-0.158-0.109-0.285-0.312-0.285c-0.189,0-0.299,0.144-0.314,0.285H10.691z M11.588-10.439l0.314-0.047
	c0.062-0.017,0.094-0.047,0.094-0.081c0-0.108-0.078-0.204-0.251-0.204c-0.157,0-0.235,0.096-0.253,0.238l-0.219-0.049
	c0.031-0.22,0.219-0.36,0.472-0.36c0.346,0,0.472,0.189,0.472,0.409v0.549c0,0.094,0.015,0.156,0.015,0.189h-0.235
	c0-0.033-0.016-0.08-0.016-0.158c-0.047,0.078-0.158,0.188-0.36,0.188c-0.237,0-0.378-0.156-0.378-0.346
	C11.242-10.297,11.399-10.424,11.588-10.439z M11.98-10.281v-0.049l-0.346,0.049c-0.094,0.016-0.158,0.062-0.158,0.171
	c0,0.08,0.08,0.158,0.189,0.158C11.839-9.952,11.98-10.03,11.98-10.281z M12.766-10.156c0.017,0.126,0.111,0.205,0.268,0.205
	c0.125,0,0.188-0.078,0.188-0.158c0-0.062-0.048-0.125-0.142-0.14l-0.188-0.047c-0.174-0.033-0.283-0.158-0.283-0.315
	c0-0.188,0.188-0.36,0.408-0.36c0.314,0,0.408,0.202,0.424,0.298l-0.188,0.078c-0.017-0.062-0.064-0.188-0.236-0.188
	c-0.11,0-0.189,0.08-0.189,0.158c0,0.061,0.049,0.125,0.126,0.142l0.188,0.047c0.205,0.046,0.314,0.173,0.314,0.329
	c0,0.158-0.141,0.346-0.408,0.346c-0.314,0-0.439-0.203-0.456-0.33L12.766-10.156z M14.824-10.125
	c-0.063,0.205-0.253,0.361-0.504,0.361c-0.297,0-0.565-0.219-0.565-0.613c0-0.359,0.253-0.596,0.55-0.596
	c0.346,0,0.551,0.236,0.551,0.596v0.08h-0.848c0,0.203,0.156,0.345,0.345,0.345s0.282-0.094,0.313-0.236L14.824-10.125z
	 M14.604-10.486c0-0.158-0.109-0.285-0.314-0.285c-0.188,0-0.299,0.144-0.314,0.285H14.604z"/>
<path fill="#B18BE8" stroke="#404040" stroke-width="0.6" stroke-linecap="round" stroke-linejoin="round" stroke-miterlimit="10" d="
	M20.233-14.666H35.35v7.856H20.233V-14.666z"/>
<path fill="#404040" d="M23.443-9.794v-1.667h0.58c0.425,0,0.802,0.284,0.802,0.834c0,0.551-0.377,0.833-0.802,0.833H23.443z
	 M24.009-9.999c0.31,0,0.563-0.204,0.563-0.628c0-0.426-0.254-0.63-0.563-0.63h-0.348v1.258H24.009z M26.207-10.125
	c-0.066,0.204-0.254,0.361-0.501,0.361c-0.301,0-0.569-0.22-0.569-0.613c0-0.359,0.253-0.596,0.532-0.596
	c0.347,0,0.554,0.236,0.554,0.596v0.08h-0.848c0,0.202,0.155,0.345,0.347,0.345c0.185,0,0.278-0.093,0.31-0.235L26.207-10.125z
	 M25.984-10.485c0-0.158-0.107-0.285-0.315-0.285c-0.186,0-0.294,0.144-0.31,0.285H25.984z M27.166-9.794h-0.223l-0.473-1.132h0.256
	l0.324,0.881l0.332-0.881h0.238L27.166-9.794z M28.842-10.125c-0.062,0.204-0.248,0.361-0.502,0.361
	c-0.295,0-0.562-0.22-0.562-0.613c0-0.359,0.252-0.596,0.547-0.596c0.348,0,0.551,0.236,0.551,0.596v0.08h-0.846
	c0,0.202,0.156,0.345,0.342,0.345c0.191,0,0.285-0.093,0.316-0.235L28.842-10.125z M28.625-10.485c0-0.158-0.109-0.285-0.314-0.285
	c-0.188,0-0.295,0.144-0.312,0.285H28.625z M29.252-9.794v-1.714h0.223v1.714H29.252z M31.043-10.361
	c0,0.347-0.234,0.598-0.58,0.598c-0.348,0-0.58-0.251-0.58-0.598c0-0.344,0.232-0.596,0.58-0.596
	C30.795-10.972,31.043-10.705,31.043-10.361z M30.809-10.361c0-0.266-0.16-0.409-0.346-0.409s-0.348,0.144-0.348,0.409
	c0,0.267,0.162,0.409,0.348,0.409S30.809-10.109,30.809-10.361z M31.436-9.354v-1.571h0.223v0.174
	c0.062-0.111,0.186-0.205,0.373-0.205c0.348,0,0.523,0.268,0.523,0.596c0,0.332-0.191,0.598-0.539,0.598
	c-0.172,0-0.311-0.077-0.357-0.188v0.598H31.436z M31.986-10.752c-0.203,0-0.328,0.171-0.328,0.391c0,0.236,0.141,0.409,0.328,0.409
	c0.205,0,0.33-0.173,0.33-0.409C32.332-10.596,32.207-10.752,31.986-10.752z"/>
<path fill="#B3E3FF" stroke="#404040" stroke-width="0.6" stroke-linecap="round" stroke-linejoin="round" stroke-miterlimit="10" d="
	M37.35-14.666h15.113v7.857H37.35V-14.666z"/>
<path fill="#404040" d="M42.801-9.794v-1.305l-0.565,1.305h-0.203l-0.565-1.305v1.305H41.23v-1.667h0.314l0.598,1.367l0.596-1.367
	h0.315v1.667H42.801z M43.807-10.439l0.299-0.047c0.062-0.017,0.094-0.047,0.094-0.081c0-0.108-0.078-0.204-0.252-0.204
	c-0.156,0-0.235,0.096-0.251,0.238l-0.204-0.049c0.017-0.22,0.22-0.36,0.473-0.36c0.346,0,0.471,0.189,0.471,0.409v0.549
	c0,0.094,0.016,0.156,0.016,0.189H44.23c0-0.033-0.015-0.08-0.015-0.158c-0.048,0.078-0.158,0.188-0.361,0.188
	c-0.235,0-0.378-0.156-0.378-0.346C43.461-10.297,43.619-10.424,43.807-10.439z M44.199-10.281v-0.049l-0.345,0.049
	c-0.095,0.016-0.158,0.062-0.158,0.171c0,0.08,0.063,0.158,0.188,0.158C44.058-9.952,44.199-10.03,44.199-10.281z M44.986-10.156
	c0.016,0.126,0.109,0.205,0.266,0.205c0.126,0,0.189-0.078,0.189-0.158c0-0.062-0.049-0.125-0.143-0.14l-0.188-0.047
	c-0.174-0.033-0.283-0.158-0.283-0.315c0-0.188,0.188-0.36,0.408-0.36c0.314,0,0.408,0.202,0.425,0.298l-0.188,0.078
	c-0.016-0.062-0.063-0.188-0.236-0.188c-0.109,0-0.189,0.08-0.189,0.158c0,0.061,0.049,0.125,0.127,0.142l0.188,0.047
	c0.205,0.046,0.315,0.173,0.315,0.329c0,0.158-0.143,0.346-0.409,0.346c-0.314,0-0.439-0.203-0.455-0.33L44.986-10.156z
	 M46.368-10.926h0.251v0.205h-0.251v0.58c0,0.111,0.046,0.158,0.155,0.158c0.032,0,0.064,0,0.096-0.016v0.188
	c-0.016,0-0.079,0.018-0.156,0.018c-0.189,0-0.314-0.127-0.314-0.332v-0.627h-0.221v-0.174h0.062c0.127,0,0.174-0.08,0.174-0.173
	v-0.188h0.204V-10.926z M48.002-10.125c-0.063,0.205-0.252,0.361-0.503,0.361c-0.3,0-0.565-0.219-0.565-0.613
	c0-0.359,0.251-0.596,0.55-0.596c0.346,0,0.55,0.236,0.55,0.596v0.062h-0.849c0,0.205,0.157,0.347,0.346,0.347
	s0.282-0.094,0.313-0.236L48.002-10.125z M47.781-10.486c0-0.158-0.11-0.285-0.314-0.285c-0.188,0-0.299,0.144-0.312,0.285H47.781z
	 M49.037-10.705h-0.094c-0.188,0-0.313,0.093-0.313,0.344v0.568h-0.22v-1.132h0.22v0.205c0.078-0.174,0.22-0.221,0.346-0.221h0.077
	v0.236H49.037z"/>
</svg>
