<?xml version="1.0" encoding="utf-8"?>
<!-- Generator: Adobe Illustrator 16.0.0, SVG Export Plug-In . SVG Version: 6.00 Build 0)  -->
<!DOCTYPE svg PUBLIC "-//W3C//DTD SVG 1.1//EN" "http://www.w3.org/Graphics/SVG/1.1/DTD/svg11.dtd">
<svg version="1.1" id="Layer_1" xmlns="http://www.w3.org/2000/svg" xmlns:xlink="http://www.w3.org/1999/xlink" x="0px" y="0px"
	 width="127px" height="103.5px" viewBox="-53.5 0 127 103.5" enable-background="new -53.5 0 127 103.5" xml:space="preserve">
<path fill="#CC6281" stroke="#B25775" stroke-width="0.5" stroke-miterlimit="10" d="M-30.067,1.467h15.16v7.88h-15.16V1.467z"/>
<path fill="#404040" d="M-26.081,5.675h-0.252v0.68h-0.237V4.684h0.631c0.314,0,0.52,0.222,0.52,0.505
	c0,0.237-0.157,0.425-0.409,0.471l0.394,0.711h-0.268L-26.081,5.675z M-25.97,5.472c0.188,0,0.314-0.111,0.314-0.283
	c0-0.176-0.126-0.283-0.314-0.283h-0.348v0.566H-25.97z M-24.064,6.039c-0.062,0.206-0.252,0.363-0.505,0.363
	c-0.298,0-0.566-0.222-0.566-0.615c0-0.36,0.252-0.597,0.551-0.597c0.348,0,0.554,0.237,0.554,0.597v0.08h-0.853
	c0,0.204,0.157,0.348,0.348,0.348c0.188,0,0.283-0.096,0.314-0.237L-24.064,6.039z M-24.283,5.675c0-0.157-0.111-0.283-0.317-0.283
	c-0.188,0-0.298,0.142-0.314,0.283H-24.283z M-23.655,6.355V4.653h0.222v1.717h-0.222V6.355z M-21.953,6.039
	c-0.062,0.206-0.252,0.363-0.502,0.363c-0.302,0-0.569-0.222-0.569-0.615c0-0.36,0.252-0.597,0.551-0.597
	c0.348,0,0.554,0.237,0.554,0.597v0.08h-0.853c0,0.204,0.157,0.348,0.348,0.348c0.188,0,0.283-0.096,0.314-0.237L-21.953,6.039z
	 M-22.171,5.675c0-0.157-0.111-0.283-0.317-0.283c-0.188,0-0.299,0.142-0.314,0.283H-22.171z M-21.257,5.709l0.314-0.049
	c0.065-0.015,0.096-0.046,0.096-0.077c0-0.111-0.08-0.207-0.252-0.207c-0.157,0-0.237,0.096-0.252,0.237l-0.206-0.046
	c0.034-0.222,0.221-0.363,0.474-0.363c0.348,0,0.474,0.188,0.474,0.41V6.18c0,0.096,0.016,0.16,0.016,0.191h-0.252
	c0-0.031-0.016-0.08-0.016-0.157c-0.049,0.077-0.16,0.188-0.363,0.188c-0.237,0-0.378-0.157-0.378-0.348
	C-21.605,5.851-21.463,5.74-21.257,5.709z M-20.863,5.866V5.82l-0.348,0.046c-0.096,0.016-0.157,0.062-0.157,0.173
	c0,0.08,0.077,0.157,0.188,0.157C-21.023,6.214-20.863,6.118-20.863,5.866z M-20.09,5.992c0.015,0.126,0.107,0.203,0.268,0.203
	c0.126,0,0.188-0.077,0.188-0.157c0-0.062-0.046-0.126-0.142-0.142l-0.188-0.046C-20.14,5.82-20.25,5.693-20.25,5.534
	c0-0.188,0.191-0.36,0.409-0.36c0.317,0,0.413,0.203,0.428,0.299l-0.19,0.08c-0.016-0.064-0.062-0.19-0.237-0.19
	c-0.107,0-0.188,0.08-0.188,0.157c0,0.065,0.046,0.126,0.126,0.142l0.188,0.049c0.206,0.046,0.317,0.172,0.317,0.33
	c0,0.157-0.142,0.348-0.409,0.348c-0.317,0-0.443-0.207-0.459-0.333L-20.09,5.992z M-18.013,6.039
	c-0.062,0.206-0.252,0.363-0.502,0.363c-0.302,0-0.569-0.222-0.569-0.615c0-0.36,0.252-0.597,0.536-0.597
	c0.348,0,0.554,0.237,0.554,0.597v0.08h-0.853c0,0.204,0.157,0.348,0.348,0.348c0.188,0,0.283-0.096,0.314-0.237L-18.013,6.039z
	 M-18.247,5.675c0-0.157-0.111-0.283-0.317-0.283c-0.188,0-0.298,0.142-0.314,0.283H-18.247z"/>
<path fill="#94FFDD" stroke="#88E5C3" stroke-width="0.5" stroke-miterlimit="10" d="M-8.289,1.467H6.874v7.88H-8.289V1.467z"/>
<path fill="#404040" d="M-5.088,6.355V4.684h0.582c0.425,0,0.803,0.283,0.803,0.834c0,0.551-0.378,0.837-0.803,0.837H-5.088z
	 M-4.506,6.149c0.317,0,0.569-0.203,0.569-0.631c0-0.425-0.252-0.631-0.569-0.631h-0.345v1.262H-4.506z M-2.299,6.039
	C-2.36,6.245-2.551,6.401-2.804,6.401c-0.298,0-0.566-0.222-0.566-0.615c0-0.36,0.252-0.597,0.551-0.597
	c0.348,0,0.551,0.237,0.551,0.597v0.08h-0.85c0,0.204,0.157,0.348,0.345,0.348c0.191,0,0.286-0.096,0.317-0.237L-2.299,6.039z
	 M-2.521,5.675c0-0.157-0.108-0.283-0.314-0.283c-0.188,0-0.298,0.142-0.314,0.283H-2.521z M-1.338,6.355h-0.219L-2.016,5.22h0.252
	l0.333,0.883l0.329-0.883h0.237L-1.338,6.355z M0.348,6.039C0.287,6.245,0.096,6.401-0.156,6.401c-0.299,0-0.566-0.222-0.566-0.615
	c0-0.36,0.252-0.597,0.551-0.597c0.348,0,0.551,0.237,0.551,0.597v0.08H-0.47c0,0.204,0.157,0.348,0.348,0.348
	c0.188,0,0.283-0.096,0.314-0.237L0.348,6.039z M0.13,5.675c0-0.157-0.111-0.283-0.317-0.283c-0.188,0-0.299,0.142-0.314,0.283H0.13
	z M0.758,6.355V4.653h0.222v1.717H0.758V6.355z M2.54,5.786c0,0.348-0.237,0.6-0.585,0.6c-0.345,0-0.582-0.252-0.582-0.6
	c0-0.345,0.237-0.597,0.582-0.597C2.303,5.189,2.54,5.441,2.54,5.786z M2.318,5.786c0-0.268-0.157-0.41-0.345-0.41
	c-0.191,0-0.348,0.142-0.348,0.41c0,0.268,0.172,0.409,0.348,0.409C2.146,6.195,2.318,6.054,2.318,5.786z M2.949,6.811V5.22h0.222
	v0.172C3.232,5.281,3.359,5.189,3.55,5.189c0.345,0,0.52,0.268,0.52,0.597c0,0.332-0.191,0.6-0.539,0.6
	c-0.172,0-0.314-0.08-0.36-0.191v0.6H2.949V6.811z M3.5,5.392c-0.203,0-0.33,0.175-0.33,0.394c0,0.237,0.142,0.409,0.33,0.409
	c0.206,0,0.333-0.172,0.333-0.409C3.833,5.567,3.707,5.392,3.5,5.392z"/>
<path fill="#62B3CC" stroke="#57A1B2" stroke-width="0.5" stroke-miterlimit="10" d="M-51.771,1.467h15.163v7.88h-15.163V1.467z"/>
<path fill="#404040" d="M-46.301,6.355V5.047l-0.566,1.308h-0.207l-0.566-1.308v1.308h-0.237V4.684h0.314l0.585,1.37l0.597-1.37
	h0.317v1.671H-46.301z M-45.292,5.709l0.314-0.049c0.065-0.015,0.096-0.046,0.096-0.077c0-0.111-0.08-0.207-0.252-0.207
	c-0.157,0-0.237,0.096-0.252,0.237l-0.222-0.046c0.034-0.222,0.222-0.363,0.474-0.363c0.348,0,0.471,0.188,0.471,0.41V6.18
	c0,0.096,0.019,0.16,0.019,0.191h-0.222c0-0.031-0.015-0.08-0.015-0.157c-0.049,0.077-0.157,0.188-0.363,0.188
	c-0.237,0-0.379-0.157-0.379-0.348C-45.639,5.851-45.482,5.74-45.292,5.709z M-44.897,5.866V5.82l-0.348,0.046
	c-0.096,0.016-0.157,0.062-0.157,0.173c0,0.08,0.077,0.157,0.188,0.157C-45.039,6.214-44.897,6.118-44.897,5.866z M-44.109,5.992
	c0.016,0.126,0.111,0.203,0.268,0.203c0.126,0,0.188-0.077,0.188-0.157c0-0.062-0.046-0.126-0.142-0.142l-0.188-0.046
	c-0.176-0.031-0.287-0.157-0.287-0.317c0-0.188,0.191-0.36,0.413-0.36c0.314,0,0.409,0.203,0.425,0.299l-0.191,0.08
	c-0.015-0.064-0.062-0.19-0.234-0.19c-0.111,0-0.191,0.08-0.191,0.157c0,0.065,0.049,0.126,0.126,0.142l0.19,0.049
	c0.204,0.046,0.314,0.172,0.314,0.33c0,0.157-0.142,0.348-0.409,0.348c-0.317,0-0.443-0.207-0.458-0.333L-44.109,5.992z
	 M-42.724,5.22h0.252v0.206h-0.252v0.597c0,0.111,0.049,0.157,0.157,0.157c0.034,0,0.065,0,0.096-0.015v0.191
	c-0.016,0-0.077,0.015-0.157,0.015c-0.188,0-0.314-0.126-0.314-0.332V5.407h-0.222V5.204h0.062c0.126,0,0.175-0.08,0.175-0.172
	V4.841h0.203V5.22z M-41.083,6.039c-0.064,0.206-0.252,0.363-0.505,0.363c-0.298,0-0.566-0.222-0.566-0.615
	c0-0.36,0.25-0.597,0.551-0.597c0.345,0,0.551,0.237,0.551,0.597v0.08h-0.853c0,0.204,0.16,0.348,0.348,0.348
	c0.191,0,0.283-0.096,0.317-0.237L-41.083,6.039z M-41.305,5.675c0-0.157-0.111-0.283-0.314-0.283c-0.191,0-0.302,0.142-0.317,0.283
	H-41.305z M-40.043,5.441h-0.096c-0.191,0-0.314,0.092-0.314,0.345v0.569h-0.222V5.22h0.222v0.206
	c0.077-0.175,0.219-0.222,0.345-0.222h0.08v0.237H-40.043z"/>
<path fill="#FFD6D3" stroke="#E5C2C1" stroke-width="0.5" stroke-miterlimit="10" d="M13.335,1.467h15.163v7.88H13.335V1.467z"/>
<path fill="#404040" d="M16.881,6.275V4.604h1.028v0.222h-0.788v0.536h0.702v0.222h-0.702v0.708h-0.24V6.275z M19.184,5.961
	c-0.067,0.203-0.253,0.36-0.505,0.36c-0.302,0-0.572-0.218-0.572-0.612c0-0.363,0.259-0.6,0.554-0.6c0.345,0,0.554,0.237,0.554,0.6
	v0.077h-0.849c0,0.206,0.159,0.348,0.345,0.348c0.185,0,0.283-0.095,0.313-0.237L19.184,5.961z M18.962,5.598
	c0-0.157-0.11-0.283-0.314-0.283c-0.19,0-0.301,0.142-0.319,0.283H18.962z M19.879,5.629l0.296-0.046
	c0.062-0.016,0.099-0.049,0.099-0.08c0-0.111-0.086-0.203-0.259-0.203c-0.154,0-0.234,0.092-0.246,0.234l-0.21-0.046
	c0.019-0.222,0.222-0.363,0.475-0.363c0.351,0,0.474,0.191,0.474,0.41v0.554c0,0.092,0.013,0.157,0.013,0.188h-0.234
	c0-0.031-0.012-0.08-0.012-0.157c-0.05,0.077-0.16,0.188-0.369,0.188c-0.234,0-0.376-0.157-0.376-0.345
	C19.528,5.771,19.67,5.66,19.879,5.629z M20.273,5.786V5.74l-0.352,0.046c-0.092,0.015-0.153,0.064-0.153,0.175
	c0,0.077,0.062,0.157,0.185,0.157C20.113,6.134,20.273,6.039,20.273,5.786z M21.246,5.14h0.252v0.206h-0.252v0.582
	c0,0.111,0.049,0.16,0.16,0.16c0.03,0,0.062,0,0.092-0.018v0.19c-0.019,0-0.08,0.016-0.153,0.016c-0.191,0-0.32-0.126-0.32-0.33
	V5.315h-0.222V5.14h0.062c0.129,0,0.179-0.077,0.179-0.172V4.779h0.203V5.14z M22.317,6.306c-0.271,0-0.425-0.203-0.425-0.456V5.14
	h0.222v0.68c0,0.157,0.08,0.298,0.252,0.298c0.173,0,0.271-0.126,0.271-0.283V5.14h0.221v0.93c0,0.095,0,0.175,0.013,0.206h-0.222
	c0-0.031-0.012-0.096-0.012-0.142C22.601,6.26,22.465,6.306,22.317,6.306z M23.991,5.361h-0.098c-0.186,0-0.314,0.095-0.314,0.348
	v0.566h-0.222V5.14h0.222v0.206c0.08-0.172,0.222-0.222,0.351-0.222h0.074v0.237H23.991z M25.327,5.961
	c-0.062,0.203-0.252,0.36-0.498,0.36c-0.308,0-0.573-0.218-0.573-0.612c0-0.363,0.253-0.6,0.549-0.6c0.351,0,0.554,0.237,0.554,0.6
	v0.077h-0.85c0,0.206,0.16,0.348,0.345,0.348c0.19,0,0.283-0.095,0.32-0.237L25.327,5.961z M25.112,5.598
	c0-0.157-0.111-0.283-0.32-0.283c-0.185,0-0.296,0.142-0.314,0.283H25.112z"/>
<path fill="none" stroke="#DDDDDD" stroke-width="0.5" stroke-miterlimit="10" d="M13.871,63.471c0-2.685,2.179-4.852,4.851-4.852"
	/>
<path fill="none" stroke="#59AFE1" stroke-width="0.5" stroke-miterlimit="10" d="M8.875,58.632"/>
<path fill="none" stroke="#DDDDDD" stroke-width="0.5" stroke-miterlimit="10" d="M-12.968,63.471c0-2.685-2.176-4.852-4.854-4.852
	 M-27.105,78.012H6.622"/>
<path fill="#FFD6D3" stroke="#E5C2C1" stroke-width="0.5" stroke-miterlimit="10" d="M-3.244,75.524c1.376,0,2.49,1.114,2.49,2.487
	c0,1.379-1.114,2.493-2.49,2.493s-2.49-1.114-2.49-2.493C-5.734,76.639-4.62,75.524-3.244,75.524z"/>
<path fill="#FFD6D3" stroke="#E5C2C1" stroke-width="0.5" stroke-miterlimit="10" d="M4.131,75.524c1.376,0,2.49,1.114,2.49,2.487
	c0,1.379-1.114,2.493-2.49,2.493s-2.49-1.114-2.49-2.493C1.641,76.639,2.755,75.524,4.131,75.524z"/>
<path fill="#FFD6D3" stroke="#E5C2C1" stroke-width="0.5" stroke-miterlimit="10" d="M-14.812,75.524c1.376,0,2.49,1.114,2.49,2.487
	c0,1.379-1.114,2.493-2.49,2.493s-2.49-1.114-2.49-2.493C-17.302,76.639-16.188,75.524-14.812,75.524z"/>
<path fill="none" stroke="#DDDDDD" stroke-width="0.5" stroke-miterlimit="10" d="M69.314,58.632h-93.991"/>
<path fill="#94FFDD" stroke="#88E5C3" stroke-width="0.5" stroke-miterlimit="10" d="M23.45,56.145c1.379,0,2.493,1.108,2.493,2.487
	c0,1.373-1.114,2.487-2.493,2.487c-1.373,0-2.487-1.114-2.487-2.487C20.963,57.253,22.077,56.145,23.45,56.145z"/>
<path fill="#94FFDD" stroke="#88E5C3" stroke-width="0.5" stroke-miterlimit="10" d="M-3.244,56.145c1.376,0,2.49,1.108,2.49,2.487
	c0,1.373-1.114,2.487-2.49,2.487s-2.49-1.114-2.49-2.487C-5.734,57.253-4.62,56.145-3.244,56.145z"/>
<path fill="#94FFDD" stroke="#88E5C3" stroke-width="0.5" stroke-miterlimit="10" d="M69.314,56.145
	c1.379,0,2.487,1.108,2.487,2.487c0,1.373-1.108,2.487-2.487,2.487c-1.373,0-2.487-1.114-2.487-2.487
	C66.827,57.253,67.941,56.145,69.314,56.145z"/>
<path fill="none" stroke="#DDDDDD" stroke-width="0.5" stroke-miterlimit="10" d="M-12.968,63.471c0,2.678,2.173,4.851,4.854,4.851
	H8.89"/>
<path fill="#FFD6D3" stroke="#E5C2C1" stroke-width="0.5" stroke-miterlimit="10" d="M-3.244,65.834c1.376,0,2.49,1.114,2.49,2.487
	c0,1.379-1.114,2.487-2.49,2.487s-2.49-1.108-2.49-2.487C-5.734,66.948-4.62,65.834-3.244,65.834z"/>
<path fill="#FFD6D3" stroke="#E5C2C1" stroke-width="0.5" stroke-miterlimit="10" d="M4.131,65.834c1.376,0,2.49,1.114,2.49,2.487
	c0,1.379-1.114,2.487-2.49,2.487s-2.49-1.108-2.49-2.487C1.641,66.948,2.755,65.834,4.131,65.834z"/>
<path fill="none" stroke="#DDDDDD" stroke-width="0.5" stroke-miterlimit="10" d="M8.875,68.321h0.142
	c2.681,0,4.842-2.173,4.842-4.851"/>
<path fill="none" stroke="#CCCCCC" stroke-width="0.5" stroke-linecap="round" stroke-linejoin="round" d="M-41.32,48.941"/>
<path fill="none" stroke="#CCCCCC" stroke-width="0.5" stroke-linecap="round" stroke-linejoin="round" stroke-dasharray="0,14.9858" d="
	M-43.685,48.941h-5.895"/>
<path fill="none" stroke="#CCCCCC" stroke-width="0.5" stroke-linecap="round" stroke-linejoin="round" d="M32.549,48.941"/>
<path fill="none" stroke="#CCCCCC" stroke-width="0.5" stroke-linecap="round" stroke-linejoin="round" stroke-dasharray="0,14.0118" d="
	M30.345,48.941h-67.362"/>
<path fill="none" stroke="#CCCCCC" stroke-width="0.5" stroke-linecap="round" stroke-linejoin="round" d="M69.314,48.941"/>
<path fill="none" stroke="#CCCCCC" stroke-width="0.5" stroke-linecap="round" stroke-linejoin="round" stroke-dasharray="0,14.7877" d="
	M66.987,48.941h-8.151"/>
<path fill="none" stroke="#CCCCCC" stroke-width="0.5" stroke-linecap="round" stroke-linejoin="round" d="M69.314,39.246"/>
<path fill="none" stroke="#CCCCCC" stroke-width="0.5" stroke-linecap="round" stroke-linejoin="round" stroke-dasharray="0,14.9632" d="
	M66.95,39.246H53.985"/>
<path fill="none" stroke="#CCCCCC" stroke-width="0.5" stroke-linecap="round" stroke-linejoin="round" d="M52.815,39.246"/>
<path fill="none" stroke="#DDDDDD" stroke-width="0.5" stroke-miterlimit="10" d="M-39.634,44.084c0-2.678-2.176-4.854-4.854-4.854"
	/>
<path fill="none" stroke="#DEEFF8" stroke-width="0.5" stroke-miterlimit="10" d="M8.875,39.246"/>
<path fill="#FFD6D3" stroke="#E5C2C1" stroke-width="0.5" stroke-miterlimit="10" d="M-29.581,75.524c1.376,0,2.49,1.114,2.49,2.487
	c0,1.379-1.114,2.493-2.49,2.493c-1.373,0-2.49-1.114-2.49-2.493C-32.071,76.639-30.953,75.524-29.581,75.524z"/>
<path fill="none" stroke="#DDDDDD" stroke-width="0.5" stroke-miterlimit="10" d="M48.642,39.246h-95.478"/>
<circle fill="#62B3CC" stroke="#57A1B2" stroke-width="0.5" stroke-miterlimit="10" cx="-49.327" cy="39.246" r="2.49"/>
<circle fill="#62B3CC" stroke="#57A1B2" stroke-width="0.5" stroke-miterlimit="10" cx="-3.244" cy="39.246" r="2.49"/>
<path fill="#62B3CC" stroke="#57A1B2" stroke-width="0.5" stroke-miterlimit="10" d="M48.642,36.756c1.373,0,2.487,1.113,2.487,2.49
	c0,1.375-1.114,2.489-2.487,2.489c-1.379,0-2.493-1.114-2.493-2.489C46.148,37.869,47.263,36.756,48.642,36.756z"/>
<path fill="#404040" d="M-50.373,28.273h-0.19l-0.394-0.99h0.222l0.283,0.757l0.283-0.757h0.207L-50.373,28.273z M-49.631,27.141
	c0.077-0.125,0.218-0.221,0.409-0.221c0.188,0,0.314,0.08,0.41,0.221c0.092,0.127,0.126,0.299,0.126,0.486
	c0,0.191-0.034,0.349-0.126,0.49c-0.08,0.126-0.222,0.222-0.41,0.222c-0.191,0-0.317-0.08-0.409-0.222
	c-0.096-0.127-0.126-0.299-0.126-0.49C-49.757,27.439-49.711,27.268-49.631,27.141z M-49.428,28.04
	c0.046,0.046,0.111,0.077,0.206,0.077c0.092,0,0.157-0.031,0.203-0.077c0.08-0.08,0.111-0.222,0.111-0.428
	c0-0.203-0.031-0.345-0.111-0.425c-0.046-0.047-0.111-0.08-0.203-0.08c-0.095,0-0.16,0.033-0.206,0.08
	c-0.08,0.08-0.111,0.222-0.111,0.425C-49.539,27.818-49.508,27.96-49.428,28.04z M-48.292,28.006c0.077,0,0.142,0.064,0.142,0.143
	c0,0.08-0.064,0.141-0.142,0.141c-0.08,0-0.142-0.061-0.142-0.141C-48.434,28.07-48.372,28.006-48.292,28.006z M-47.661,28.273
	v-0.929h-0.317v-0.142c0.191,0,0.317-0.111,0.348-0.252h0.172v1.322H-47.661z"/>
<path fill="none" stroke="#DDDDDD" stroke-width="0.5" stroke-miterlimit="10" d="M-49.145,33.902v-2.773 M-47.867,32.88
	l-1.277,1.274l-1.293-1.274"/>
<path fill="#404040" d="M-4.709,28.273H-4.9l-0.394-0.99h0.222l0.283,0.757l0.283-0.757H-4.3L-4.709,28.273z M-3.986,27.141
	c0.08-0.125,0.222-0.221,0.41-0.221c0.191,0,0.317,0.08,0.409,0.221c0.096,0.127,0.126,0.299,0.126,0.486
	c0,0.191-0.031,0.349-0.126,0.49c-0.077,0.126-0.218,0.222-0.409,0.222c-0.188,0-0.314-0.08-0.41-0.222
	c-0.095-0.127-0.126-0.299-0.126-0.49C-4.112,27.439-4.062,27.268-3.986,27.141z M-3.779,28.04c0.046,0.046,0.111,0.077,0.203,0.077
	c0.095,0,0.16-0.031,0.206-0.077c0.077-0.08,0.111-0.222,0.111-0.428c0-0.203-0.034-0.345-0.111-0.425
	c-0.046-0.047-0.111-0.08-0.206-0.08c-0.092,0-0.157,0.033-0.203,0.08c-0.08,0.08-0.111,0.222-0.111,0.425
	C-3.89,27.818-3.859,27.96-3.779,28.04z M-2.646,28.006c0.08,0,0.142,0.064,0.142,0.143c0,0.08-0.062,0.141-0.142,0.141
	c-0.077,0-0.142-0.061-0.142-0.141C-2.788,28.07-2.724,28.006-2.646,28.006z M-2.157,27.409v-0.05c0-0.219,0.172-0.424,0.458-0.424
	c0.283,0,0.44,0.19,0.44,0.409c0,0.175-0.096,0.317-0.252,0.409l-0.268,0.176c-0.08,0.046-0.142,0.11-0.157,0.188h0.677v0.191h-0.93
	c0-0.223,0.095-0.379,0.314-0.539l0.222-0.143c0.126-0.076,0.188-0.172,0.188-0.282c0-0.126-0.077-0.237-0.252-0.237
	c-0.172,0-0.249,0.127-0.249,0.268v0.064L-2.157,27.409z"/>
<path fill="none" stroke="#DDDDDD" stroke-width="0.5" stroke-miterlimit="10" d="M-3.244,33.902v-2.773 M-1.966,32.88l-1.277,1.274
	l-1.293-1.274"/>
<path fill="#404040" d="M47.349,28.273h-0.19l-0.395-0.99h0.216l0.283,0.757l0.289-0.757h0.203L47.349,28.273z M48.229,28.273
	v-0.929h-0.313v-0.142c0.185,0,0.313-0.111,0.345-0.252h0.172v1.322H48.229z M48.949,28.006c0.086,0,0.147,0.064,0.147,0.143
	c0,0.08-0.062,0.141-0.147,0.141c-0.074,0-0.136-0.061-0.136-0.141C48.813,28.07,48.863,28.006,48.949,28.006z M49.521,27.141
	c0.08-0.125,0.216-0.221,0.413-0.221c0.185,0,0.308,0.08,0.406,0.221c0.099,0.127,0.123,0.299,0.123,0.486
	c0,0.191-0.024,0.349-0.123,0.49c-0.08,0.126-0.222,0.222-0.406,0.222c-0.197,0-0.32-0.08-0.413-0.222
	c-0.092-0.127-0.129-0.299-0.129-0.49C49.393,27.439,49.43,27.268,49.521,27.141z M49.713,28.04c0.043,0.046,0.11,0.077,0.203,0.077
	c0.092,0,0.153-0.031,0.203-0.077c0.08-0.08,0.11-0.222,0.11-0.428c0-0.203-0.03-0.345-0.11-0.425
	c-0.05-0.047-0.111-0.08-0.203-0.08c-0.093,0-0.16,0.033-0.203,0.08c-0.087,0.08-0.111,0.222-0.111,0.425
	C49.602,27.818,49.626,27.96,49.713,28.04z"/>
<path fill="none" stroke="#DDDDDD" stroke-width="0.5" stroke-miterlimit="10" d="M48.642,33.902v-2.773 M49.916,32.88l-1.274,1.274
	l-1.28-1.274"/>
<path fill="none" stroke="#CCCCCC" stroke-width="0.5" stroke-linecap="round" stroke-linejoin="round" d="M-40.88,58.632"/>
<path fill="none" stroke="#CCCCCC" stroke-width="0.5" stroke-linecap="round" stroke-linejoin="round" stroke-dasharray="0,12.543" d="
	M-42.866,58.632h-6.92"/>
<path fill="none" stroke="#CCCCCC" stroke-width="0.5" stroke-linecap="round" stroke-linejoin="round" d="M-11.943,68.321"/>
<path fill="none" stroke="#CCCCCC" stroke-width="0.5" stroke-linecap="round" stroke-linejoin="round" stroke-dasharray="0,13.6844" d="
	M-14.104,68.321H-49.69"/>
<path fill="none" stroke="#CCCCCC" stroke-width="0.5" stroke-linecap="round" stroke-linejoin="round" d="M69.314,68.321"/>
<path fill="none" stroke="#CCCCCC" stroke-width="0.5" stroke-linecap="round" stroke-linejoin="round" stroke-dasharray="0,13.7717" d="
	M67.141,68.321H13.969"/>
<path fill="none" stroke="#CCCCCC" stroke-width="0.5" stroke-linecap="round" stroke-linejoin="round" d="M-33.551,78.012"/>
<path fill="none" stroke="#CCCCCC" stroke-width="0.5" stroke-linecap="round" stroke-linejoin="round" stroke-dasharray="0,13.6492" d="
	M-35.709,78.012H-49.69"/>
<path fill="none" stroke="#CCCCCC" stroke-width="0.5" stroke-linecap="round" stroke-linejoin="round" d="M69.314,78.012"/>
<path fill="none" stroke="#CCCCCC" stroke-width="0.5" stroke-linecap="round" stroke-linejoin="round" stroke-dasharray="0,13.907" d="
	M67.123,78.012H9.047"/>
<path fill="none" stroke="#CCCCCC" stroke-width="0.5" stroke-linecap="round" stroke-linejoin="round" d="M7.945,78.012"/>
<path fill="none" stroke="#DDDDDD" stroke-width="0.5" stroke-miterlimit="10" d="M-39.634,44.02v9.761
	c0,2.672,2.173,4.852,4.854,4.852h15.083"/>
<circle fill="#94FFDD" stroke="#88E5C3" stroke-width="0.5" stroke-miterlimit="10" cx="-22.187" cy="58.631" r="2.475"/>
<path fill="#94FFDD" stroke="#88E5C3" stroke-width="0.5" stroke-miterlimit="10" d="M-29.581,56.145c1.376,0,2.49,1.108,2.49,2.487
	c0,1.373-1.114,2.487-2.49,2.487c-1.373,0-2.49-1.114-2.49-2.487C-32.071,57.253-30.953,56.145-29.581,56.145z"/>
<path fill="none" stroke="#DDDDDD" stroke-width="0.5" stroke-miterlimit="10" d="M31.527,53.78c0,2.672-2.18,4.852-4.839,4.852
	 M58.362,53.78c0,2.672,2.173,4.852,4.857,4.852h3.62 M36.501,48.941h-0.142c-2.678,0-4.857,2.167-4.857,4.852 M58.362,53.78
	c0-2.684-2.173-4.857-4.857-4.857H36.501"/>
<path fill="#CC6281" stroke="#B25775" stroke-width="0.5" stroke-miterlimit="10" d="M48.642,46.448
	c1.373,0,2.487,1.114,2.487,2.493c0,1.373-1.114,2.487-2.487,2.487c-1.379,0-2.493-1.114-2.493-2.487
	C46.148,47.562,47.263,46.448,48.642,46.448z"/>
<path fill="#CC6281" stroke="#B25775" stroke-width="0.5" stroke-miterlimit="10" d="M41.248,46.448
	c1.372,0,2.493,1.114,2.493,2.493c0,1.373-1.121,2.487-2.493,2.487c-1.373,0-2.493-1.114-2.493-2.487
	C38.755,47.562,39.875,46.448,41.248,46.448z"/>
<path fill="none" stroke="#DDDDDD" stroke-width="0.5" stroke-miterlimit="10" d="M-29.581,61.106v14.418 M48.642,46.448v-4.728"/>
</svg>
