<?xml version="1.0" encoding="utf-8"?>
<!-- Generator: Adobe Illustrator 16.0.0, SVG Export Plug-In . SVG Version: 6.00 Build 0)  -->
<!DOCTYPE svg PUBLIC "-//W3C//DTD SVG 1.1//EN" "http://www.w3.org/Graphics/SVG/1.1/DTD/svg11.dtd">
<svg version="1.1" id="Layer_1" xmlns="http://www.w3.org/2000/svg" xmlns:xlink="http://www.w3.org/1999/xlink" x="0px" y="0px"
	 width="127px" height="103.5px" viewBox="0 0 127 103.5" enable-background="new 0 0 127 103.5" xml:space="preserve">
<path fill="none" stroke="#DDDDDD" stroke-width="0.5" stroke-miterlimit="10" d="M67.688,53.471c0-2.685,2.18-4.852,4.852-4.852"/>
<path fill="none" stroke="#59AFE1" stroke-width="0.5" stroke-miterlimit="10" d="M62.692,48.632"/>
<path fill="none" stroke="#DDDDDD" stroke-width="0.5" stroke-miterlimit="10" d="M40.849,53.471c0-2.685-2.176-4.852-4.854-4.852
	 M26.712,68.012h33.727"/>
<path fill="none" stroke="#DDDDDD" stroke-width="0.5" stroke-miterlimit="10" d="M123.131,48.632H29.14"/>
<path fill="#4BD6BA" stroke="#43BA9E" stroke-width="0.5" stroke-miterlimit="10" d="M77.268,46.145
	c1.379,0,2.492,1.108,2.492,2.487c0,1.373-1.113,2.487-2.492,2.487c-1.373,0-2.488-1.114-2.488-2.487
	C74.779,47.253,75.895,46.145,77.268,46.145z"/>
<path fill="#4BD6BA" stroke="#43BA9E" stroke-width="0.5" stroke-miterlimit="10" d="M50.573,46.145c1.376,0,2.49,1.108,2.49,2.487
	c0,1.373-1.114,2.487-2.49,2.487s-2.49-1.114-2.49-2.487C48.083,47.253,49.197,46.145,50.573,46.145z"/>
<path fill="#4BD6BA" stroke="#43BA9E" stroke-width="0.5" stroke-miterlimit="10" d="M123.131,46.145
	c1.379,0,2.486,1.108,2.486,2.487c0,1.373-1.107,2.487-2.486,2.487c-1.373,0-2.486-1.114-2.486-2.487
	C120.645,47.253,121.758,46.145,123.131,46.145z"/>
<path fill="none" stroke="#DDDDDD" stroke-width="0.5" stroke-miterlimit="10" d="M40.849,53.471c0,2.678,2.173,4.852,4.854,4.852
	h17.004"/>
<path fill="none" stroke="#DDDDDD" stroke-width="0.5" stroke-miterlimit="10" d="M62.692,58.32h0.142
	c2.682,0,4.842-2.172,4.842-4.85"/>
<path fill="none" stroke="#CCCCCC" stroke-width="0.5" stroke-linecap="round" stroke-linejoin="round" d="M12.497,38.941"/>
<path fill="none" stroke="#CCCCCC" stroke-width="0.5" stroke-linecap="round" stroke-linejoin="round" stroke-dasharray="0,14.9858" d="
	M10.132,38.941H4.237"/>
<path fill="none" stroke="#CCCCCC" stroke-width="0.5" stroke-linecap="round" stroke-linejoin="round" d="M86.365,38.941"/>
<path fill="none" stroke="#CCCCCC" stroke-width="0.5" stroke-linecap="round" stroke-linejoin="round" stroke-dasharray="0,14.0118" d="
	M84.162,38.941H16.8"/>
<path fill="none" stroke="#CCCCCC" stroke-width="0.5" stroke-linecap="round" stroke-linejoin="round" d="M123.131,38.941"/>
<path fill="none" stroke="#CCCCCC" stroke-width="0.5" stroke-linecap="round" stroke-linejoin="round" stroke-dasharray="0,14.7877" d="
	M120.803,38.941h-8.15"/>
<path fill="none" stroke="#CCCCCC" stroke-width="0.5" stroke-linecap="round" stroke-linejoin="round" d="M123.131,29.246"/>
<path fill="none" stroke="#CCCCCC" stroke-width="0.5" stroke-linecap="round" stroke-linejoin="round" stroke-dasharray="0,14.9632" d="
	M120.768,29.246h-12.965"/>
<path fill="none" stroke="#CCCCCC" stroke-width="0.5" stroke-linecap="round" stroke-linejoin="round" d="M106.633,29.246"/>
<path fill="none" stroke="#DDDDDD" stroke-width="0.5" stroke-miterlimit="10" d="M14.183,34.084c0-2.678-2.176-4.854-4.854-4.854"
	/>
<path fill="none" stroke="#DEEFF8" stroke-width="0.5" stroke-miterlimit="10" d="M62.692,29.246"/>
<path fill="none" stroke="#DDDDDD" stroke-width="0.5" stroke-miterlimit="10" d="M102.459,29.246H6.981"/>
<circle fill="#62B3CC" stroke="#57A1B2" stroke-width="0.5" stroke-miterlimit="10" cx="4.49" cy="29.246" r="2.49"/>
<circle fill="#62B3CC" stroke="#57A1B2" stroke-width="0.5" stroke-miterlimit="10" cx="50.573" cy="29.246" r="2.49"/>
<path fill="#62B3CC" stroke="#57A1B2" stroke-width="0.5" stroke-miterlimit="10" d="M102.459,26.756
	c1.373,0,2.486,1.113,2.486,2.49c0,1.375-1.113,2.489-2.486,2.489c-1.379,0-2.492-1.114-2.492-2.489
	C99.965,27.869,101.08,26.756,102.459,26.756z"/>
<path fill="#404040" d="M3.444,18.273h-0.19l-0.394-0.99h0.222l0.283,0.757l0.283-0.757h0.207L3.444,18.273z M4.186,17.141
	c0.077-0.125,0.218-0.221,0.409-0.221c0.188,0,0.314,0.08,0.41,0.221c0.092,0.127,0.126,0.299,0.126,0.486
	c0,0.191-0.034,0.349-0.126,0.49c-0.08,0.126-0.222,0.222-0.41,0.222c-0.191,0-0.317-0.08-0.409-0.222
	C4.09,17.99,4.06,17.818,4.06,17.627C4.06,17.439,4.106,17.268,4.186,17.141z M4.389,18.04c0.046,0.046,0.111,0.077,0.206,0.077
	c0.092,0,0.157-0.031,0.203-0.077c0.08-0.08,0.111-0.222,0.111-0.428c0-0.203-0.031-0.345-0.111-0.425
	c-0.046-0.047-0.111-0.08-0.203-0.08c-0.095,0-0.16,0.033-0.206,0.08c-0.08,0.08-0.111,0.222-0.111,0.425
	C4.278,17.818,4.309,17.96,4.389,18.04z M5.525,18.006c0.077,0,0.142,0.064,0.142,0.143c0,0.08-0.064,0.141-0.142,0.141
	c-0.08,0-0.142-0.061-0.142-0.141C5.383,18.07,5.445,18.006,5.525,18.006z M6.156,18.273v-0.929H5.839v-0.142
	c0.191,0,0.317-0.111,0.348-0.252h0.172v1.322L6.156,18.273L6.156,18.273z"/>
<path fill="none" stroke="#DDDDDD" stroke-width="0.5" stroke-miterlimit="10" d="M4.672,23.902v-2.773 M5.95,22.88l-1.277,1.274
	L3.38,22.88"/>
<path fill="#404040" d="M49.108,18.273h-0.191l-0.394-0.99h0.222l0.283,0.757l0.283-0.757h0.206L49.108,18.273z M49.831,17.141
	c0.08-0.125,0.222-0.221,0.41-0.221c0.191,0,0.317,0.08,0.409,0.221c0.096,0.127,0.126,0.299,0.126,0.486
	c0,0.191-0.031,0.349-0.126,0.49c-0.077,0.126-0.218,0.222-0.409,0.222c-0.188,0-0.314-0.08-0.41-0.222
	c-0.095-0.127-0.126-0.299-0.126-0.49C49.705,17.439,49.755,17.268,49.831,17.141z M50.038,18.04
	c0.046,0.046,0.111,0.077,0.203,0.077c0.095,0,0.16-0.031,0.206-0.077c0.077-0.08,0.111-0.222,0.111-0.428
	c0-0.203-0.034-0.345-0.111-0.425c-0.046-0.047-0.111-0.08-0.206-0.08c-0.092,0-0.157,0.033-0.203,0.08
	c-0.08,0.08-0.111,0.222-0.111,0.425C49.927,17.818,49.958,17.96,50.038,18.04z M51.171,18.006c0.08,0,0.142,0.064,0.142,0.143
	c0,0.08-0.062,0.141-0.142,0.141c-0.077,0-0.142-0.061-0.142-0.141C51.029,18.07,51.093,18.006,51.171,18.006z M51.66,17.409v-0.05
	c0-0.219,0.172-0.424,0.458-0.424c0.283,0,0.44,0.19,0.44,0.409c0,0.175-0.096,0.317-0.252,0.409l-0.268,0.176
	c-0.08,0.046-0.142,0.11-0.157,0.188h0.677v0.191h-0.93c0-0.223,0.095-0.379,0.314-0.539l0.222-0.143
	c0.126-0.076,0.188-0.172,0.188-0.282c0-0.126-0.077-0.237-0.252-0.237c-0.172,0-0.249,0.127-0.249,0.268v0.064L51.66,17.409z"/>
<path fill="none" stroke="#DDDDDD" stroke-width="0.5" stroke-miterlimit="10" d="M50.573,23.902v-2.773 M51.851,22.88l-1.277,1.274
	l-1.293-1.274"/>
<path fill="#404040" d="M101.166,18.273h-0.189l-0.395-0.99h0.215l0.283,0.757l0.289-0.757h0.203L101.166,18.273z M102.047,18.273
	v-0.929h-0.314v-0.142c0.186,0,0.314-0.111,0.346-0.252h0.172v1.322L102.047,18.273L102.047,18.273z M102.766,18.006
	c0.086,0,0.148,0.064,0.148,0.143c0,0.08-0.062,0.141-0.148,0.141c-0.074,0-0.135-0.061-0.135-0.141
	C102.631,18.07,102.68,18.006,102.766,18.006z M103.338,17.141c0.08-0.125,0.217-0.221,0.414-0.221c0.184,0,0.307,0.08,0.404,0.221
	c0.1,0.127,0.123,0.299,0.123,0.486c0,0.191-0.023,0.349-0.123,0.49c-0.08,0.126-0.221,0.222-0.404,0.222
	c-0.197,0-0.32-0.08-0.414-0.222c-0.092-0.127-0.129-0.299-0.129-0.49C103.211,17.439,103.248,17.268,103.338,17.141z
	 M103.529,18.04c0.043,0.046,0.111,0.077,0.203,0.077s0.154-0.031,0.203-0.077c0.08-0.08,0.111-0.222,0.111-0.428
	c0-0.203-0.031-0.345-0.111-0.425c-0.049-0.047-0.111-0.08-0.203-0.08s-0.16,0.033-0.203,0.08c-0.086,0.08-0.109,0.222-0.109,0.425
	C103.42,17.818,103.443,17.96,103.529,18.04z"/>
<path fill="none" stroke="#DDDDDD" stroke-width="0.5" stroke-miterlimit="10" d="M102.459,23.902v-2.773 M103.732,22.88
	l-1.273,1.274l-1.279-1.274"/>
<path fill="none" stroke="#CCCCCC" stroke-width="0.5" stroke-linecap="round" stroke-linejoin="round" d="M12.937,48.632"/>
<path fill="none" stroke="#CCCCCC" stroke-width="0.5" stroke-linecap="round" stroke-linejoin="round" stroke-dasharray="0,12.543" d="
	M10.951,48.632h-6.92"/>
<path fill="none" stroke="#CCCCCC" stroke-width="0.5" stroke-linecap="round" stroke-linejoin="round" d="M41.874,58.32"/>
<path fill="none" stroke="#CCCCCC" stroke-width="0.5" stroke-linecap="round" stroke-linejoin="round" stroke-dasharray="0,13.6844" d="
	M39.713,58.32H4.127"/>
<path fill="none" stroke="#CCCCCC" stroke-width="0.5" stroke-linecap="round" stroke-linejoin="round" d="M123.131,58.32"/>
<path fill="none" stroke="#CCCCCC" stroke-width="0.5" stroke-linecap="round" stroke-linejoin="round" stroke-dasharray="0,13.7717" d="
	M120.957,58.32H67.785"/>
<path fill="none" stroke="#CCCCCC" stroke-width="0.5" stroke-linecap="round" stroke-linejoin="round" d="M20.266,68.012"/>
<path fill="none" stroke="#CCCCCC" stroke-width="0.5" stroke-linecap="round" stroke-linejoin="round" stroke-dasharray="0,13.6492" d="
	M18.108,68.012H4.127"/>
<path fill="none" stroke="#CCCCCC" stroke-width="0.5" stroke-linecap="round" stroke-linejoin="round" d="M123.131,68.012"/>
<path fill="none" stroke="#CCCCCC" stroke-width="0.5" stroke-linecap="round" stroke-linejoin="round" stroke-dasharray="0,13.907" d="
	M120.939,68.012H62.864"/>
<path fill="none" stroke="#CCCCCC" stroke-width="0.5" stroke-linecap="round" stroke-linejoin="round" d="M61.762,68.012"/>
<path fill="none" stroke="#DDDDDD" stroke-width="0.5" stroke-miterlimit="10" d="M14.183,34.02v9.761
	c0,2.672,2.173,4.852,4.854,4.852H34.12"/>
<circle fill="#4BD6BA" stroke="#43BA9E" stroke-width="0.5" stroke-miterlimit="10" cx="31.63" cy="48.631" r="2.475"/>
<path fill="#4BD6BA" stroke="#43BA9E" stroke-width="0.5" stroke-miterlimit="10" d="M24.236,46.145c1.376,0,2.49,1.108,2.49,2.487
	c0,1.373-1.114,2.487-2.49,2.487c-1.373,0-2.49-1.114-2.49-2.487C21.746,47.253,22.864,46.145,24.236,46.145z"/>
<path fill="none" stroke="#DDDDDD" stroke-width="0.5" stroke-miterlimit="10" d="M85.344,43.779c0,2.673-2.18,4.853-4.838,4.853
	 M112.18,43.779c0,2.673,2.172,4.853,4.855,4.853h3.621 M90.318,38.941h-0.143c-2.678,0-4.857,2.167-4.857,4.852 M112.18,43.779
	c0-2.683-2.174-4.856-4.857-4.856H90.318"/>
<path fill="none" stroke="#DDDDDD" stroke-width="0.5" stroke-miterlimit="10" d="M24.236,51.105v14.418 M102.459,36.448V31.72"/>
<g>
	<rect x="2" y="2" fill="#62B3CC" stroke="#57A1B2" stroke-width="0.5" stroke-miterlimit="10" width="20" height="7"/>
	<text transform="matrix(1 0 0 1 7.2568 6.6455)" fill="#40767C" font-family="'DINPro-Medium'" font-size="3">Master</text>
</g>
<g>
	<rect x="24.969" y="2" fill="#4BD6BA" stroke="#43BA9E" stroke-width="0.5" stroke-miterlimit="10" width="20" height="7"/>
	<text transform="matrix(1 0 0 1 29.5449 6.6455)" fill="#3B9E84" font-family="'DINPro-Medium'" font-size="3">Develop</text>
</g>
<g>
	<rect x="47.968" y="2" fill="#FFD6D3" stroke="#E5C2C1" stroke-width="0.5" stroke-miterlimit="10" width="20" height="7"/>
	<text transform="matrix(1 0 0 1 52.6558 6.6455)" fill="#AF9595" font-family="'DINPro-Medium'" font-size="3">Feature</text>
</g>
<g>
	<rect x="70.968" y="2" fill="#CC6281" stroke="#B25775" stroke-width="0.5" stroke-miterlimit="10" width="20" height="7"/>
	<text transform="matrix(1 0 0 1 75.5508 6.6455)" fill="#7C3E56" font-family="'DINPro-Medium'" font-size="3">Release</text>
</g>
<path fill="#FFD6D3" stroke="#E5C2C1" stroke-width="0.5" stroke-miterlimit="10" d="M50.573,65.523c1.376,0,2.49,1.115,2.49,2.487
	c0,1.38-1.114,2.493-2.49,2.493s-2.49-1.113-2.49-2.493C48.083,66.639,49.197,65.523,50.573,65.523z"/>
<path fill="#FFD6D3" stroke="#E5C2C1" stroke-width="0.5" stroke-miterlimit="10" d="M57.948,65.523c1.376,0,2.49,1.115,2.49,2.487
	c0,1.38-1.114,2.493-2.49,2.493s-2.49-1.113-2.49-2.493C55.458,66.639,56.572,65.523,57.948,65.523z"/>
<path fill="#FFD6D3" stroke="#E5C2C1" stroke-width="0.5" stroke-miterlimit="10" d="M39.005,65.523c1.376,0,2.49,1.115,2.49,2.487
	c0,1.38-1.114,2.493-2.49,2.493s-2.49-1.113-2.49-2.493C36.515,66.639,37.629,65.523,39.005,65.523z"/>
<path fill="#FFD6D3" stroke="#E5C2C1" stroke-width="0.5" stroke-miterlimit="10" d="M50.573,55.834c1.376,0,2.49,1.114,2.49,2.486
	c0,1.38-1.114,2.488-2.49,2.488s-2.49-1.108-2.49-2.488C48.083,56.948,49.197,55.834,50.573,55.834z"/>
<path fill="#FFD6D3" stroke="#E5C2C1" stroke-width="0.5" stroke-miterlimit="10" d="M57.948,55.834c1.376,0,2.49,1.114,2.49,2.486
	c0,1.38-1.114,2.488-2.49,2.488s-2.49-1.108-2.49-2.488C55.458,56.948,56.572,55.834,57.948,55.834z"/>
<path fill="#FFD6D3" stroke="#E5C2C1" stroke-width="0.5" stroke-miterlimit="10" d="M24.236,65.523c1.376,0,2.49,1.115,2.49,2.487
	c0,1.38-1.114,2.493-2.49,2.493c-1.373,0-2.49-1.113-2.49-2.493C21.746,66.639,22.864,65.523,24.236,65.523z"/>
<path fill="#CC6281" stroke="#B25775" stroke-width="0.5" stroke-miterlimit="10" d="M102.459,36.448
	c1.373,0,2.486,1.114,2.486,2.493c0,1.373-1.113,2.487-2.486,2.487c-1.379,0-2.492-1.114-2.492-2.487
	C99.965,37.562,101.08,36.448,102.459,36.448z"/>
<path fill="#CC6281" stroke="#B25775" stroke-width="0.5" stroke-miterlimit="10" d="M95.064,36.448
	c1.373,0,2.494,1.114,2.494,2.493c0,1.373-1.121,2.487-2.494,2.487s-2.492-1.114-2.492-2.487
	C92.572,37.562,93.691,36.448,95.064,36.448z"/>
</svg>
